<?xml version="1.0" standalone="no"?>
 <!DOCTYPE svg PUBLIC "-//W3C//DTD SVG 1.1//EN" 
 "http://www.w3.org/Graphics/SVG/1.1/DTD/svg11.dtd"> 
<svg xmlns="http://www.w3.org/2000/svg" version="1.1" 
    width="29.7002cm" height="21.0007cm" viewBox="0 0 116930 82680 ">
<title>SVG Picture created as ladekurve_ebox-B.Cu.svg date 2018/04/14 00:01:14 </title>
  <desc>Picture generated by PCBNEW </desc>
<g style="fill:#000000; fill-opacity:1;stroke:#000000; stroke-opacity:1;
stroke-linecap:round; stroke-linejoin:round; "
 transform="translate(0 0) scale(1 1)">
</g>
<g style="fill:#000000; fill-opacity:0.0; 
stroke:#000000; stroke-width:-0.000393701; stroke-opacity:1; 
stroke-linecap:round; stroke-linejoin:round;">
</g>
<g style="fill:#000000; fill-opacity:0.0; 
stroke:#000000; stroke-width:98.4252; stroke-opacity:1; 
stroke-linecap:round; stroke-linejoin:round;">
<path d="M71809 28083
L71809 27689
L71584 28083
L71584 27689
" />
<path d="M71171 28046
L71190 28064
L71246 28083
L71284 28083
L71340 28064
L71378 28027
L71396 27989
L71415 27914
L71415 27858
L71396 27783
L71378 27746
L71340 27708
L71284 27689
L71246 27689
L71190 27708
L71171 27727
" />
<path d="M71831 32815
L71643 32815
" />
<path d="M71868 32928
L71737 32534
L71606 32928
" />
<path d="M71474 32928
L71474 32534
" />
<path d="M70987 32778
L70687 32778
" />
<path d="M71831 31315
L71643 31315
" />
<path d="M71868 31428
L71737 31034
L71606 31428
" />
<path d="M71474 31428
L71474 31034
" />
<path d="M70987 31278
L70687 31278
" />
<path d="M70837 31428
L70837 31128
" />
<path d="M71799 29815
L71612 29815
" />
<path d="M71837 29928
L71706 29534
L71574 29928
" />
<path d="M71368 29534
L71293 29534
L71256 29553
L71218 29590
L71199 29665
L71199 29796
L71218 29871
L71256 29909
L71293 29928
L71368 29928
L71406 29909
L71443 29871
L71462 29796
L71462 29665
L71443 29590
L71406 29553
L71368 29534
" />
<path d="M70525 29553
L70562 29534
L70618 29534
L70675 29553
L70712 29590
L70731 29628
L70750 29703
L70750 29759
L70731 29834
L70712 29871
L70675 29909
L70618 29928
L70581 29928
L70525 29909
L70506 29890
L70506 29759
L70581 29759
" />
<path d="M70337 29928
L70337 29534
L70112 29928
L70112 29534
" />
<path d="M69925 29928
L69925 29534
L69831 29534
L69775 29553
L69737 29590
L69718 29628
L69700 29703
L69700 29759
L69718 29834
L69737 29871
L69775 29909
L69831 29928
L69925 29928
" />
<path d="M71799 26815
L71612 26815
" />
<path d="M71837 26928
L71706 26534
L71574 26928
" />
<path d="M71368 26534
L71293 26534
L71256 26553
L71218 26590
L71200 26665
L71200 26796
L71218 26871
L71256 26909
L71293 26928
L71368 26928
L71406 26909
L71443 26871
L71462 26796
L71462 26665
L71443 26590
L71406 26553
L71368 26534
" />
</g>
<g style="fill:#000000; fill-opacity:0.0; 
stroke:#000000; stroke-width:59.0551; stroke-opacity:1; 
stroke-linecap:round; stroke-linejoin:round;">
<path d="M69250 37000
L69250 22500
" />
<path d="M79000 37000
L69250 37000
" />
<path d="M79000 22500
L79000 37000
" />
<path d="M69250 22500
L79000 22500
" />
</g>
<g style="fill:#000000; fill-opacity:0.0; 
stroke:#000000; stroke-width:669.291; stroke-opacity:1; 
stroke-linecap:round; stroke-linejoin:round;">
<path d="M77500 32750
L77500 32750
" />
<path d="M77500 31250
L77500 31250
" />
<path d="M77500 29750
L77500 29750
" />
<path d="M77500 28250
L77500 28250
" />
</g>
<g style="fill:#000000; fill-opacity:0.0; 
stroke:#000000; stroke-width:0; stroke-opacity:1; 
stroke-linecap:round; stroke-linejoin:round;">
</g>
<g style="fill:#000000; fill-opacity:1.0; 
stroke:#000000; stroke-width:0; stroke-opacity:1; 
stroke-linecap:round; stroke-linejoin:round;">
<polyline style="fill-rule:evenodd;"
points="77165,27084
77165,26415
77834,26415
77834,27084
77165,27084
" /> 
<circle cx="77586.6" cy="35250" r="590.551" /> 
</g>
<g style="fill:#000000; fill-opacity:1.0; 
stroke:#000000; stroke-width:39.3701; stroke-opacity:1; 
stroke-linecap:round; stroke-linejoin:round;">
</g>
<g style="fill:#000000; fill-opacity:1.0; 
stroke:#000000; stroke-width:0; stroke-opacity:1; 
stroke-linecap:round; stroke-linejoin:round;">
<circle cx="70500" cy="35250" r="590.551" /> 
</g>
<g style="fill:#000000; fill-opacity:1.0; 
stroke:#000000; stroke-width:39.3701; stroke-opacity:1; 
stroke-linecap:round; stroke-linejoin:round;">
</g>
<g style="fill:#000000; fill-opacity:1.0; 
stroke:#000000; stroke-width:0; stroke-opacity:1; 
stroke-linecap:round; stroke-linejoin:round;">
<circle cx="77586.6" cy="24250" r="590.551" /> 
</g>
<g style="fill:#000000; fill-opacity:1.0; 
stroke:#000000; stroke-width:39.3701; stroke-opacity:1; 
stroke-linecap:round; stroke-linejoin:round;">
</g>
<g style="fill:#000000; fill-opacity:1.0; 
stroke:#000000; stroke-width:0; stroke-opacity:1; 
stroke-linecap:round; stroke-linejoin:round;">
<circle cx="70500" cy="24250" r="590.551" /> 
</g>
<g style="fill:#000000; fill-opacity:1.0; 
stroke:#000000; stroke-width:39.3701; stroke-opacity:1; 
stroke-linecap:round; stroke-linejoin:round;">
</g>
<g style="fill:#000000; fill-opacity:1.0; 
stroke:#000000; stroke-width:629.921; stroke-opacity:1; 
stroke-linecap:round; stroke-linejoin:round;">
</g>
<g style="fill:#000000; fill-opacity:0.0; 
stroke:#000000; stroke-width:629.921; stroke-opacity:1; 
stroke-linecap:round; stroke-linejoin:round;">
<path d="M76000 27750
L76000 27750
" />
</g>
<g style="fill:#000000; fill-opacity:1.0; 
stroke:#000000; stroke-width:0; stroke-opacity:1; 
stroke-linecap:round; stroke-linejoin:round;">
<circle cx="76000" cy="31750" r="314.961" /> 
</g>
<g style="fill:#000000; fill-opacity:1.0; 
stroke:#000000; stroke-width:39.3701; stroke-opacity:1; 
stroke-linecap:round; stroke-linejoin:round;">
</g>
<g style="fill:#000000; fill-opacity:1.0; 
stroke:#000000; stroke-width:236.22; stroke-opacity:1; 
stroke-linecap:round; stroke-linejoin:round;">
</g>
<g style="fill:#000000; fill-opacity:0.0; 
stroke:#000000; stroke-width:236.22; stroke-opacity:1; 
stroke-linecap:round; stroke-linejoin:round;">
<path d="M76000 27304
L76554 26750
" />
<path d="M76554 26750
L77500 26750
" />
<path d="M76000 27750
L76000 27304
" />
<path d="M77836 24250
L77001 24250
" />
<path d="M77001 24250
L74500 26751
" />
<path d="M74500 30250
L76000 31750
" />
<path d="M74500 26751
L74500 30250
" />
<path d="M76500 31250
L77500 31250
" />
<path d="M76000 31750
L76500 31250
" />
<path d="M70750 24250
L77836 24250
" />
</g>
<g style="fill:#000000; fill-opacity:1.0; 
stroke:#000000; stroke-width:100; stroke-opacity:1; 
stroke-linecap:round; stroke-linejoin:round;">
<polyline style="fill-rule:evenodd;"
points="78720,36720
69529,36720
69529,35846
69974,35846
70037,35971
70348,36093
70683,36087
70962,35971
71025,35846
77061,35846
77124,35971
77435,36093
77769,36087
78049,35971
78111,35846
77586,35320
77061,35846
71025,35846
70500,35320
69974,35846
69529,35846
69529,35098
69656,35098
69662,35433
69778,35712
69903,35775
70429,35250
70570,35250
71096,35775
71221,35712
71343,35401
71337,35098
76743,35098
76749,35433
76865,35712
76990,35775
77515,35250
77657,35250
78182,35775
78308,35712
78430,35401
78423,35066
78308,34787
78182,34724
77657,35250
77515,35250
76990,34724
76865,34787
76743,35098
71337,35098
71337,35066
71221,34787
71096,34724
70570,35250
70429,35250
69903,34724
69778,34787
69656,35098
69529,35098
69529,34653
69974,34653
70500,35179
71025,34653
77061,34653
77586,35179
78111,34653
78049,34528
77737,34406
77403,34412
77124,34528
77061,34653
71025,34653
70962,34528
70651,34406
70316,34412
70037,34528
69974,34653
69529,34653
69529,33550
73000,33550
73019,33546
73035,33535
73046,33519
73050,33500
73050,32890
76932,32890
76999,33051
77153,33220
77359,33317
77450,33270
77450,32800
77550,32800
77550,33270
77640,33317
77846,33220
78000,33051
78067,32890
78019,32800
77550,32800
77450,32800
76980,32800
76932,32890
73050,32890
73050,32609
76932,32609
76980,32700
77450,32700
77450,32229
77550,32229
77550,32700
78019,32700
78067,32609
78000,32448
77846,32279
77640,32182
77550,32229
77450,32229
77359,32182
77153,32279
76999,32448
76932,32609
73050,32609
73050,26000
73046,25980
73035,25964
73019,25953
73000,25950
69529,25950
69529,24082
69659,24082
69659,24417
69787,24726
70023,24962
70332,25090
70667,25090
70976,24962
71212,24726
71257,24618
76112,24618
74265,26465
74234,26486
74154,26606
74153,26607
74124,26751
74131,26787
74131,30213
74124,30250
74153,30393
74153,30393
74234,30515
74265,30535
75435,31705
75435,31862
75521,32070
75679,32228
75887,32314
76112,32314
76320,32228
76478,32070
76564,31862
76564,31705
76652,31618
77042,31618
77078,31671
77271,31800
77442,31834
77557,31834
77728,31800
77921,31671
78050,31478
78096,31250
78050,31021
77921,30828
77728,30699
77557,30665
77442,30665
77271,30699
77078,30828
77042,30881
76536,30881
76499,30874
76463,30881
76463,30881
76356,30903
76234,30984
76214,31015
76044,31185
75955,31185
74868,30097
74868,29890
76932,29890
76999,30051
77153,30220
77359,30317
77450,30270
77450,29800
77550,29800
77550,30270
77640,30317
77846,30220
78000,30051
78067,29890
78019,29800
77550,29800
77450,29800
76980,29800
76932,29890
74868,29890
74868,29609
76932,29609
76980,29700
77450,29700
77450,29229
77550,29229
77550,29700
78019,29700
78067,29609
78000,29448
77846,29279
77640,29182
77550,29229
77450,29229
77359,29182
77153,29279
76999,29448
76932,29609
74868,29609
74868,27750
75423,27750
75467,27970
75592,28157
75779,28282
75944,28314
76055,28314
76220,28282
76268,28250
76903,28250
76949,28478
77078,28671
77271,28800
77442,28834
77557,28834
77728,28800
77921,28671
78050,28478
78096,28250
78050,28021
77921,27828
77728,27699
77557,27665
77442,27665
77271,27699
77078,27828
76949,28021
76903,28250
76268,28250
76407,28157
76532,27970
76576,27750
76532,27529
76437,27387
76707,27118
76917,27118
76929,27182
76985,27264
77067,27320
77165,27339
77834,27339
77932,27320
78014,27264
78070,27182
78089,27084
78089,26415
78070,26317
78014,26235
77932,26179
77834,26160
77165,26160
77067,26179
76985,26235
76929,26317
76917,26381
76590,26381
76554,26374
76518,26381
76410,26403
76289,26484
76268,26515
75765,27018
75734,27039
75714,27069
75714,27069
75653,27160
75624,27304
75627,27319
75592,27342
75467,27529
75423,27750
74868,27750
74868,26903
76959,24812
77110,24962
77419,25090
77753,25090
78062,24962
78299,24726
78427,24417
78427,24082
78299,23773
78062,23537
77753,23409
77419,23409
77110,23537
76874,23773
76829,23881
71257,23881
71212,23773
70976,23537
70667,23409
70332,23409
70023,23537
69787,23773
69659,24082
69529,24082
69529,22779
78720,22779
78720,36720
" /> 
</g>
<g style="fill:#FFFFFF; fill-opacity:1.0; 
stroke:#FFFFFF; stroke-width:100; stroke-opacity:1; 
stroke-linecap:round; stroke-linejoin:round;">
</g>
<g style="fill:#FFFFFF; fill-opacity:1.0; 
stroke:#FFFFFF; stroke-width:0; stroke-opacity:1; 
stroke-linecap:round; stroke-linejoin:round;">
<circle cx="77500" cy="32750" r="68.8976" /> 
</g>
<g style="fill:#FFFFFF; fill-opacity:1.0; 
stroke:#FFFFFF; stroke-width:39.3701; stroke-opacity:1; 
stroke-linecap:round; stroke-linejoin:round;">
</g>
<g style="fill:#FFFFFF; fill-opacity:1.0; 
stroke:#FFFFFF; stroke-width:0; stroke-opacity:1; 
stroke-linecap:round; stroke-linejoin:round;">
<circle cx="77500" cy="31250" r="68.8976" /> 
</g>
<g style="fill:#FFFFFF; fill-opacity:1.0; 
stroke:#FFFFFF; stroke-width:39.3701; stroke-opacity:1; 
stroke-linecap:round; stroke-linejoin:round;">
</g>
<g style="fill:#FFFFFF; fill-opacity:1.0; 
stroke:#FFFFFF; stroke-width:0; stroke-opacity:1; 
stroke-linecap:round; stroke-linejoin:round;">
<circle cx="77500" cy="29750" r="68.8976" /> 
</g>
<g style="fill:#FFFFFF; fill-opacity:1.0; 
stroke:#FFFFFF; stroke-width:39.3701; stroke-opacity:1; 
stroke-linecap:round; stroke-linejoin:round;">
</g>
<g style="fill:#FFFFFF; fill-opacity:1.0; 
stroke:#FFFFFF; stroke-width:0; stroke-opacity:1; 
stroke-linecap:round; stroke-linejoin:round;">
<circle cx="77500" cy="28250" r="68.8976" /> 
</g>
<g style="fill:#FFFFFF; fill-opacity:1.0; 
stroke:#FFFFFF; stroke-width:39.3701; stroke-opacity:1; 
stroke-linecap:round; stroke-linejoin:round;">
</g>
<g style="fill:#FFFFFF; fill-opacity:1.0; 
stroke:#FFFFFF; stroke-width:0; stroke-opacity:1; 
stroke-linecap:round; stroke-linejoin:round;">
<circle cx="77500" cy="26750" r="68.8976" /> 
</g>
<g style="fill:#FFFFFF; fill-opacity:1.0; 
stroke:#FFFFFF; stroke-width:39.3701; stroke-opacity:1; 
stroke-linecap:round; stroke-linejoin:round;">
</g>
<g style="fill:#FFFFFF; fill-opacity:1.0; 
stroke:#FFFFFF; stroke-width:0; stroke-opacity:1; 
stroke-linecap:round; stroke-linejoin:round;">
<circle cx="77586.6" cy="35250" r="68.8976" /> 
</g>
<g style="fill:#FFFFFF; fill-opacity:1.0; 
stroke:#FFFFFF; stroke-width:39.3701; stroke-opacity:1; 
stroke-linecap:round; stroke-linejoin:round;">
</g>
<g style="fill:#FFFFFF; fill-opacity:1.0; 
stroke:#FFFFFF; stroke-width:0; stroke-opacity:1; 
stroke-linecap:round; stroke-linejoin:round;">
<circle cx="70500" cy="35250" r="68.8976" /> 
</g>
<g style="fill:#FFFFFF; fill-opacity:1.0; 
stroke:#FFFFFF; stroke-width:39.3701; stroke-opacity:1; 
stroke-linecap:round; stroke-linejoin:round;">
</g>
<g style="fill:#FFFFFF; fill-opacity:1.0; 
stroke:#FFFFFF; stroke-width:0; stroke-opacity:1; 
stroke-linecap:round; stroke-linejoin:round;">
<circle cx="77586.6" cy="24250" r="68.8976" /> 
</g>
<g style="fill:#FFFFFF; fill-opacity:1.0; 
stroke:#FFFFFF; stroke-width:39.3701; stroke-opacity:1; 
stroke-linecap:round; stroke-linejoin:round;">
</g>
<g style="fill:#FFFFFF; fill-opacity:1.0; 
stroke:#FFFFFF; stroke-width:0; stroke-opacity:1; 
stroke-linecap:round; stroke-linejoin:round;">
<circle cx="70500" cy="24250" r="68.8976" /> 
</g>
<g style="fill:#FFFFFF; fill-opacity:1.0; 
stroke:#FFFFFF; stroke-width:39.3701; stroke-opacity:1; 
stroke-linecap:round; stroke-linejoin:round;">
</g>
<g style="fill:#FFFFFF; fill-opacity:1.0; 
stroke:#FFFFFF; stroke-width:0; stroke-opacity:1; 
stroke-linecap:round; stroke-linejoin:round;">
<circle cx="76000" cy="27750" r="68.8976" /> 
</g>
<g style="fill:#FFFFFF; fill-opacity:1.0; 
stroke:#FFFFFF; stroke-width:39.3701; stroke-opacity:1; 
stroke-linecap:round; stroke-linejoin:round;">
</g>
<g style="fill:#FFFFFF; fill-opacity:1.0; 
stroke:#FFFFFF; stroke-width:0; stroke-opacity:1; 
stroke-linecap:round; stroke-linejoin:round;">
<circle cx="76000" cy="31750" r="68.8976" /> 
</g>
<g style="fill:#FFFFFF; fill-opacity:1.0; 
stroke:#FFFFFF; stroke-width:39.3701; stroke-opacity:1; 
stroke-linecap:round; stroke-linejoin:round;">
</g>
<g style="fill:#000000; fill-opacity:1.0; 
stroke:#000000; stroke-width:39.3701; stroke-opacity:1; 
stroke-linecap:round; stroke-linejoin:round;">
</g> 
</svg>
