<?xml version="1.0" standalone="no"?>
 <!DOCTYPE svg PUBLIC "-//W3C//DTD SVG 1.1//EN" 
 "http://www.w3.org/Graphics/SVG/1.1/DTD/svg11.dtd"> 
<svg xmlns="http://www.w3.org/2000/svg" version="1.1" 
    width="29.7002cm" height="21.0007cm" viewBox="0 0 116930 82680 ">
<title>SVG Picture created as ladekurve_ebox-F.SilkS.svg date 2018/04/14 00:01:14 </title>
  <desc>Picture generated by PCBNEW </desc>
<g style="fill:#000000; fill-opacity:1;stroke:#000000; stroke-opacity:1;
stroke-linecap:round; stroke-linejoin:round; "
 transform="translate(0 0) scale(1 1)">
</g>
<g style="fill:#000000; fill-opacity:0.0; 
stroke:#000000; stroke-width:-0.000393701; stroke-opacity:1; 
stroke-linecap:round; stroke-linejoin:round;">
</g>
<g style="fill:#000000; fill-opacity:0.0; 
stroke:#000000; stroke-width:59.0551; stroke-opacity:1; 
stroke-linecap:round; stroke-linejoin:round;">
<path d="M69250 37000
L69250 22500
" />
<path d="M79000 37000
L69250 37000
" />
<path d="M79000 22500
L79000 37000
" />
<path d="M69250 22500
L79000 22500
" />
<path d="M79114 26226
L79114 26726
" />
</g>
<g style="fill:#000000; fill-opacity:0.0; 
stroke:#000000; stroke-width:47.2441; stroke-opacity:1; 
stroke-linecap:round; stroke-linejoin:round;">
<path d="M79114 33273
L79114 31226
" />
<path d="M78066 32250
L79114 32250
" />
<path d="M78066 31226
L78066 33273
" />
<path d="M79114 32600
L81476 32600
" />
<path d="M77910 32899
L78066 32899
" />
<path d="M78066 33273
L79114 33273
" />
<path d="M81476 32899
L79114 32899
" />
<path d="M81476 32600
L81476 32899
" />
<path d="M77910 32600
L78066 32600
" />
<path d="M78066 31773
L79114 31773
" />
<path d="M81476 31399
L79114 31399
" />
<path d="M79114 31773
L79114 29726
" />
<path d="M78066 30750
L79114 30750
" />
<path d="M78066 29726
L78066 31773
" />
<path d="M81476 31100
L81476 31399
" />
<path d="M77910 31100
L78066 31100
" />
<path d="M79114 31100
L81476 31100
" />
<path d="M77910 31399
L78066 31399
" />
<path d="M78066 30273
L79114 30273
" />
<path d="M78066 28226
L78066 30273
" />
<path d="M78066 29250
L79114 29250
" />
<path d="M77910 29600
L78066 29600
" />
<path d="M79114 30273
L79114 28226
" />
<path d="M77910 29899
L78066 29899
" />
<path d="M79114 29600
L81476 29600
" />
<path d="M81476 29600
L81476 29899
" />
<path d="M81476 29899
L79114 29899
" />
<path d="M77000 26250
L77500 26250
" />
<path d="M77000 26750
L77000 26250
" />
<path d="M77910 28399
L78066 28399
" />
<path d="M77910 28100
L78066 28100
" />
<path d="M81476 28399
L79114 28399
" />
<path d="M81476 28100
L81476 28399
" />
<path d="M79114 28100
L81476 28100
" />
<path d="M78066 27750
L79114 27750
" />
<path d="M77937 26899
L78066 26899
" />
<path d="M77937 26600
L78066 26600
" />
<path d="M79114 26860
L81476 26860
" />
<path d="M79114 26812
L81476 26812
" />
<path d="M79114 26765
L81476 26765
" />
<path d="M79114 26718
L81476 26718
" />
<path d="M79114 26671
L81476 26671
" />
<path d="M79114 26624
L81476 26624
" />
<path d="M81476 26899
L79114 26899
" />
<path d="M81476 26600
L81476 26899
" />
<path d="M79114 26600
L81476 26600
" />
<path d="M79114 26226
L78066 26226
" />
<path d="M79114 28773
L79114 26726
" />
<path d="M78066 28773
L79114 28773
" />
<path d="M78066 26226
L78066 28773
" />
</g>
<g style="fill:#000000; fill-opacity:0.0; 
stroke:#000000; stroke-width:59.0551; stroke-opacity:1; 
stroke-linecap:round; stroke-linejoin:round;">
<path d="M78767 36750
L70500 36750
" />
<path d="M78767 33773
L78767 36726
" />
<path d="M70500 33750
L78767 33750
" />
<path d="M70500 36702
L70500 33750
" />
<path d="M78767 25750
L70500 25750
" />
<path d="M78767 22773
L78767 25726
" />
<path d="M70500 22750
L78767 22750
" />
<path d="M70500 25702
L70500 22750
" />
</g>
<g style="fill:#000000; fill-opacity:0.0; 
stroke:#000000; stroke-width:47.2441; stroke-opacity:1; 
stroke-linecap:round; stroke-linejoin:round;">
<path d="M76000 28159
L76000 28462
" />
<path d="M76000 31340
L76000 31037
" />
<path d="M75460 28462
L75460 31037
" />
<path d="M76539 28462
L75460 28462
" />
<path d="M76539 31037
L76539 28462
" />
<path d="M75460 31037
L76539 31037
" />
</g>
<g style="fill:#000000; fill-opacity:0.0; 
stroke:#000000; stroke-width:59.0551; stroke-opacity:1; 
stroke-linecap:round; stroke-linejoin:round;">
<path d="M75618 26284
L75618 26565
L75600 26621
L75562 26659
L75506 26678
L75468 26678
" />
<path d="M76012 26678
L75787 26678
" />
<path d="M75899 26678
L75899 26284
L75862 26340
L75824 26378
L75787 26396
" />
<path d="M73705 32784
L73705 33065
L73686 33121
L73649 33159
L73592 33178
L73555 33178
" />
<path d="M73855 32784
L74099 32784
L73967 32934
L74024 32934
L74061 32953
L74080 32971
L74099 33009
L74099 33103
L74080 33140
L74061 33159
L74024 33178
L73911 33178
L73874 33159
L73855 33140
" />
<path d="M73705 26284
L73705 26565
L73686 26621
L73649 26659
L73592 26678
L73555 26678
" />
<path d="M73874 26321
L73892 26303
L73930 26284
L74024 26284
L74061 26303
L74080 26321
L74099 26359
L74099 26396
L74080 26453
L73855 26678
L74099 26678
" />
<path d="M74434 29928
L74303 29740
" />
<path d="M74209 29928
L74209 29534
L74359 29534
L74396 29553
L74415 29571
L74434 29609
L74434 29665
L74415 29703
L74396 29721
L74359 29740
L74209 29740
" />
<path d="M74809 29928
L74584 29928
" />
<path d="M74696 29928
L74696 29534
L74659 29590
L74621 29628
L74584 29646
" />
</g> 
</svg>
