<?xml version="1.0" encoding="UTF-8" standalone="no"?>
<!-- Created with Inkscape (http://www.inkscape.org/) -->

<svg
   xmlns:dc="http://purl.org/dc/elements/1.1/"
   xmlns:cc="http://creativecommons.org/ns#"
   xmlns:rdf="http://www.w3.org/1999/02/22-rdf-syntax-ns#"
   xmlns:svg="http://www.w3.org/2000/svg"
   xmlns="http://www.w3.org/2000/svg"
   xmlns:sodipodi="http://sodipodi.sourceforge.net/DTD/sodipodi-0.dtd"
   xmlns:inkscape="http://www.inkscape.org/namespaces/inkscape"
   id="svg4155"
   version="1.1"
   inkscape:version="0.91 r13725"
   xml:space="preserve"
   width="628.20001"
   height="815.97699"
   viewBox="0 0 628.20001 815.97699"
   sodipodi:docname="esdu_oils_table.svg"><metadata
     id="metadata4161"><rdf:RDF><cc:Work
         rdf:about=""><dc:format>image/svg+xml</dc:format><dc:type
           rdf:resource="http://purl.org/dc/dcmitype/StillImage" /><dc:title></dc:title></cc:Work></rdf:RDF></metadata><defs
     id="defs4159"><clipPath
       clipPathUnits="userSpaceOnUse"
       id="clipPath4463"><path
         d="M 0,0 595,0 595,842 0,842 0,0 Z"
         id="path4465"
         inkscape:connector-curvature="0" /></clipPath><clipPath
       clipPathUnits="userSpaceOnUse"
       id="clipPath4473"><path
         d="m 15.72,0.11099 0.06,0 0,841.85999 -0.06,0 0,-841.85999 z"
         id="path4475"
         inkscape:connector-curvature="0" /></clipPath></defs><sodipodi:namedview
     pagecolor="#ffffff"
     bordercolor="#666666"
     borderopacity="1"
     objecttolerance="10"
     gridtolerance="10"
     guidetolerance="10"
     inkscape:pageopacity="0"
     inkscape:pageshadow="2"
     inkscape:window-width="1301"
     inkscape:window-height="744"
     id="namedview4157"
     showgrid="false"
     fit-margin-top="0"
     fit-margin-left="0"
     fit-margin-right="0"
     fit-margin-bottom="0"
     inkscape:zoom="0.84248162"
     inkscape:cx="254.73023"
     inkscape:cy="574.95619"
     inkscape:window-x="65"
     inkscape:window-y="24"
     inkscape:window-maximized="1"
     inkscape:current-layer="g4163" /><g
     id="g4163"
     inkscape:groupmode="layer"
     inkscape:label="esdu_FILM THICKNESSES IN LUBRICATED HERTZIAN CONTACTS (EHL)"
     transform="matrix(1.25,0,0,-1.25,-57.8,900.85)"><text
       id="text4177"
       style="font-variant:normal;font-weight:normal;font-size:30px;font-family:MSTT31c49d00;-inkscape-font-specification:MSTT31c49d00;writing-mode:lr-tb;fill:#008517;fill-opacity:1;fill-rule:nonzero;stroke:none"
       transform="scale(1,-1)"
       x="48.040001"
       y="-777.91998"><tspan
         id="tspan4179"
         y="-777.91998"
         x="48.040001"></tspan></text>
<text
       id="text4183"
       style="font-variant:normal;font-weight:normal;font-size:10.92000008px;font-family:Times;-inkscape-font-specification:Times-Roman;writing-mode:lr-tb;fill:#000000;fill-opacity:1;fill-rule:nonzero;stroke:none"
       transform="scale(1,-1)"
       x="84.040001"
       y="-83.240997"><tspan
         id="tspan4185"
         sodipodi:role="line"
         y="-83.240997"
         x="84.040001 90.777641 96.303162 101.21716 105.42136 110.33536 112.61764 115.62064 120.54556 126.07108 129.07408 133.98808 138.19228 140.47456 146.00008 150.80487 156.3304 161.2444 163.40656 168.93208 173.84608 178.76007 184.16548 186.44775 191.36176 196.76715 205.40488 210.81027 213.91156 216.91455 221.82855 227.35408 229.51624 233.21811 236.82172 242.34723 250.90851 253.1908 258.71631 264.24185 269.64725 272.74854 275.75153 280.06491 285.59045 290.39523 295.92075 298.20303 303.72855 308.53336 311.63464 316.43945 319.23495 321.51724 329.46701 334.38101 342.33078 344.61304 350.01846 354.94336 357.94638 362.87128 365.15356 369.95837 375.48389 381.0094 384.01242 387.11368 392.63922 398.04462 402.96954 405.97253 409.09564 414.62115 416.78333 422.30884 427.22284 432.02765 437.55316 446.11444 451.02844 453.31073 458.11554 463.64105 468.55505 471.55804 474.65933 479.46414 484.98965 488.09094 492.89572 495.17801 500.09201 505.49741 511.02292 513.30518 516.30817 521.83374 526.74774 528.90985 534.43536 538.74878 543.55359">These tables have been compiled from published data. New data continually become available and the user</tspan><tspan
         id="tspan4187"
         sodipodi:role="line"
         y="-70.278961"
         x="84.040001 88.353401 93.878922 99.404442 104.80984 107.91112 113.43664 116.07928 120.99328 124.09456 132.04431 136.84912 142.37463 146.68803 149.45079 154.2556 159.78111 165.30664 169.51083 175.03636 178.13763 181.14064 183.9034 186.9064 192.43192 197.34592 200.10867 208.66995 213.58395 218.98935 224.51488 228.21675 233.02156 237.93555 240.93855 246.46408 250.16595 254.97075 258.69449 261.45724 266.86264 270.58636 273.34912 276.35211 281.87766 286.79163 289.55441 294.95981 299.88474 303.58661 306.5896 309.59259 314.51752 320.04303 323.04605 327.96005 331.56363 334.32642 337.42767 342.95322 348.35861 352.08234 355.08533 359.99933 364.91333 370.31873 373.42001">should always consult the manufacturer of the particular lubricant.</tspan></text>
<text
       id="text4193"
       style="font-style:italic;font-variant:normal;font-size:10.92000008px;font-family:Times;-inkscape-font-specification:Times-Italic;writing-mode:lr-tb;fill:#000000;fill-opacity:1;fill-rule:nonzero;stroke:none"
       transform="scale(1,-1)"
       x="59.928638"
       y="-686.60376"><tspan
         id="tspan4195"
         sodipodi:role="line"
         y="-686.60376"
         x="59.928638 69.166962 72.770561 80.097878 86.813683 93.52948 100.24528 106.36048 109.12324 117.05116 120.65476 126.76996">MINERAL OILS</tspan><tspan
         id="tspan4197"
         sodipodi:role="line"
         y="-693.19946"
         x="155.20564 162.55479 167.3596 172.88512 176.72896 181.64296 185.95636 188.95935">Nearest </tspan><tspan
         id="tspan4199"
         sodipodi:role="line"
         y="-680.11731"
         x="154.84528 158.44888 163.9744 171.8914 174.65416 181.36996">ISO VG</tspan><tspan
         id="tspan4201"
         sodipodi:role="line"
         y="-686.59283"
         x="210.52635 217.85367 224.56947">KVI</tspan><tspan
         id="tspan4203"
         sodipodi:role="line"
         y="-708.19263"
         x="245.68875 253.63852 258.55252 264.07803 269.48343 277.4332 280.53448 285.33929 288.10205 292.90683 296.02997 300.23416 305.15909 310.6846 314.88879 317.99008 320.9931 325.31741 328.08017 340.3215 343.117 345.75964 353.70941 358.62341 364.14893 368.35312 373.87866 377.7225 382.63651 388.16202">Dynamic viscosity, , measured </tspan><tspan
         id="tspan4205"
         sodipodi:role="line"
         y="-694.14948"
         x="264.28552 269.81104 272.81406 275.57681 281.10233 284.10532 292.05508 297.5806 301.89401 307.41953 312.82492 317.73892 322.05234 325.05533 329.96933 332.73209 338.13748 342.10144 346.90625 351.23056 355.43478 360.9603 364.80414 369.72906">at atmospheric pressure </tspan></text>
<text
       id="text4207"
       style="font-variant:normal;font-weight:normal;font-size:10.92000008px;font-family:Times;-inkscape-font-specification:Times-Roman;writing-mode:lr-tb;fill:#000000;fill-opacity:1;fill-rule:nonzero;stroke:none"
       transform="scale(1,-1)"
       x="284.56396"
       y="-678.18445"><tspan
         id="tspan4209"
         sodipodi:role="line"
         y="-678.18445"
         x="284.56396 288.16757 293.69308">(10</tspan></text>
<text
       id="text4211"
       style="font-variant:normal;font-weight:normal;font-size:8.76000023px;font-family:Times;-inkscape-font-specification:Times-Roman;writing-mode:lr-tb;fill:#000000;fill-opacity:1;fill-rule:nonzero;stroke:none"
       transform="scale(1,-1)"
       x="299.20001"
       y="-682.64398"><tspan
         id="tspan4213"
         sodipodi:role="line"
         y="-682.64398"
         x="299.20001 303.51868">–3</tspan></text>
<text
       id="text4215"
       style="font-variant:normal;font-weight:normal;font-size:10.92000008px;font-family:Times;-inkscape-font-specification:Times-Roman;writing-mode:lr-tb;fill:#000000;fill-opacity:1;fill-rule:nonzero;stroke:none"
       transform="scale(1,-1)"
       x="310.72275"
       y="-678.20099"><tspan
         id="tspan4217"
         sodipodi:role="line"
         y="-678.20099"
         x="310.72275 318.63977 321.40253 325.60672 328.36948">N s m</tspan></text>
<text
       id="text4219"
       style="font-variant:normal;font-weight:normal;font-size:8.76000023px;font-family:Times;-inkscape-font-specification:Times-Roman;writing-mode:lr-tb;fill:#000000;fill-opacity:1;fill-rule:nonzero;stroke:none"
       transform="scale(1,-1)"
       x="336.88"
       y="-682.64398"><tspan
         id="tspan4221"
         sodipodi:role="line"
         y="-682.64398"
         x="336.88 341.19867">–2</tspan></text>
<text
       id="text4223"
       style="font-variant:normal;font-weight:normal;font-size:10.92000008px;font-family:Times;-inkscape-font-specification:Times-Roman;writing-mode:lr-tb;fill:#000000;fill-opacity:1;fill-rule:nonzero;stroke:none"
       transform="scale(1,-1)"
       x="345.76001"
       y="-678.20099"><tspan
         id="tspan4225"
         y="-678.20099"
         x="345.76001">)</tspan></text>
<text
       id="text4227"
       style="font-style:italic;font-variant:normal;font-size:10.92000008px;font-family:Times;-inkscape-font-specification:Times-Italic;writing-mode:lr-tb;fill:#000000;fill-opacity:1;fill-rule:nonzero;stroke:none"
       transform="scale(1,-1)"
       x="423.04083"
       y="-701.72266"><tspan
         id="tspan4229"
         sodipodi:role="line"
         y="-701.72266"
         x="423.04083 429.77847 433.62231 438.53632 442.84973 447.05392 452.57944 456.42328 461.33728 464.10004 468.90485 473.82977 479.35529 484.8808 490.28619 495.2002 500.72571 503.72873 506.49149">Pressure exponent, </tspan></text>
<text
       id="text4231"
       style="font-variant:normal;font-weight:normal;font-size:10.92000008px;font-family:Times;-inkscape-font-specification:Times-Roman;writing-mode:lr-tb;fill:#000000;fill-opacity:1;fill-rule:nonzero;stroke:none"
       transform="scale(1,-1)"
       x="439.95593"
       y="-684.6875"><tspan
         id="tspan4233"
         sodipodi:role="line"
         y="-684.6875"
         x="439.95593 443.67963 449.08505">(10</tspan></text>
<text
       id="text4235"
       style="font-variant:normal;font-weight:normal;font-size:8.76000023px;font-family:Times;-inkscape-font-specification:Times-Roman;writing-mode:lr-tb;fill:#000000;fill-opacity:1;fill-rule:nonzero;stroke:none"
       transform="scale(1,-1)"
       x="454.60001"
       y="-689.12402"><tspan
         id="tspan4237"
         sodipodi:role="line"
         y="-689.12402"
         x="454.60001 459.04132">–9</tspan></text>
<text
       id="text4239"
       style="font-variant:normal;font-weight:normal;font-size:10.92000008px;font-family:Times;-inkscape-font-specification:Times-Roman;writing-mode:lr-tb;fill:#000000;fill-opacity:1;fill-rule:nonzero;stroke:none"
       transform="scale(1,-1)"
       x="466.12277"
       y="-684.68103"><tspan
         id="tspan4241"
         y="-684.68103"
         x="466.12277">m</tspan></text>
<text
       id="text4243"
       style="font-variant:normal;font-weight:normal;font-size:8.76000023px;font-family:Times;-inkscape-font-specification:Times-Roman;writing-mode:lr-tb;fill:#000000;fill-opacity:1;fill-rule:nonzero;stroke:none"
       transform="scale(1,-1)"
       x="474.64001"
       y="-689.12402"><tspan
         id="tspan4245"
         y="-689.12402"
         x="474.64001">2</tspan></text>
<text
       id="text4247"
       style="font-variant:normal;font-weight:normal;font-size:10.92000008px;font-family:Times;-inkscape-font-specification:Times-Roman;writing-mode:lr-tb;fill:#000000;fill-opacity:1;fill-rule:nonzero;stroke:none"
       transform="scale(1,-1)"
       x="481.84277"
       y="-684.68103"><tspan
         id="tspan4249"
         y="-684.68103"
         x="481.84277">N</tspan></text>
<text
       id="text4251"
       style="font-variant:normal;font-weight:normal;font-size:8.76000023px;font-family:Times;-inkscape-font-specification:Times-Roman;writing-mode:lr-tb;fill:#000000;fill-opacity:1;fill-rule:nonzero;stroke:none"
       transform="scale(1,-1)"
       x="489.76001"
       y="-689.12402"><tspan
         id="tspan4253"
         sodipodi:role="line"
         y="-689.12402"
         x="489.76001 494.20132">–1</tspan></text>
<text
       id="text4255"
       style="font-variant:normal;font-weight:normal;font-size:10.92000008px;font-family:Times;-inkscape-font-specification:Times-Roman;writing-mode:lr-tb;fill:#000000;fill-opacity:1;fill-rule:nonzero;stroke:none"
       transform="scale(1,-1)"
       x="498.51999"
       y="-684.68103"><tspan
         id="tspan4257"
         y="-684.68103"
         x="498.51999">)</tspan><tspan
         id="tspan4259"
         sodipodi:role="line"
         y="-661.1593"
         x="257.19891 262.60431 269.44025 275.31519 307.35446 312.88 319.59579 325.47076 354.3869 359.91245 365.43796 372.15375 378.02872 406.94489 412.4704 419.18619 425.06116 458.30164 463.82715 470.54297 477.61911 510.37912 515.90466 521.43018 528.14594 534.02094">30°C60°C100°C30°C60°C100°C</tspan><tspan
         id="tspan4261"
         sodipodi:role="line"
         y="-646.15521"
         x="55.12431 63.161449 66.164436 71.689949 77.215462 79.858131 87.895241 91.498848 94.261604 99.787117 102.79011 105.8914">High VI oils</tspan></text>
<path
       inkscape:connector-curvature="0"
       id="path4263"
       style="fill:#000000;fill-opacity:1;fill-rule:evenodd;stroke:none"
       d="m 55.12,645.2 54.96,0 0,-0.48 -54.96,0 0,0.48 z" /><text
       id="text4265"
       style="font-variant:normal;font-weight:normal;font-size:10.92000008px;font-family:Times;-inkscape-font-specification:Times-Roman;writing-mode:lr-tb;fill:#000000;fill-opacity:1;fill-rule:nonzero;stroke:none"
       transform="scale(1,-1)"
       x="55.119999"
       y="-631.16101"><tspan
         id="tspan4267"
         sodipodi:role="line"
         y="-631.16101"
         x="55.119999 61.857639 64.958923 70.484444 75.889839 78.991119 81.753883 90.315163 95.229164 100.03396 105.55948 108.66076 114.06616 118.98016 121.74292 127.26844 130.27144 163.27168 168.7972 207.31204 212.83755 218.24295 263.48453 268.88992 308.72607 314.25159 319.77713 322.57263 349.21744 354.74295 357.53848 402.41968 448.86243 454.38797 459.91348 462.70898 506.38901 511.91452 517.44006 520.2356">Light machine oil321083812.15.3–18.413.4</tspan><tspan
         id="tspan4269"
         sodipodi:role="line"
         y="-616.15692"
         x="55.119999 63.15712 67.961922 72.875923 78.401443 83.806839 86.569603 95.207321 100.01212 104.92612 110.45164 113.45464 118.98016 123.89417 126.5368 132.06232 135.1636 157.72432 163.24983 168.77536 207.29019 212.81572 258.05728 263.58279 268.98819 308.70425 314.22977 349.15192 354.67743 357.47296 402.35416 407.87967 413.40518 416.04782 448.80783 454.33334 459.85889 462.65439 506.33438 511.85992 517.38544 520.18097">Heavy machine oil10096153349.123.720.515.8</tspan><tspan
         id="tspan4271"
         sodipodi:role="line"
         y="-601.15283"
         x="55.119999 63.15712 67.961922 72.875923 78.401443 83.806839 86.569603 95.207321 100.01212 104.92612 110.45164 113.45464 118.98016 123.89417 126.5368 132.06232 135.1636 157.72432 163.24983 168.77536 207.29019 212.81572 258.05728 263.58279 268.98819 308.70425 314.22977 319.75528 322.55078 349.19559 354.72113 360.24664 363.04214 402.39783 407.92337 413.44888 416.09152 448.8515 454.37704 459.90256 462.69809 506.37808 511.90359 517.42914 520.22467">Heavy machine oil1509625050.512.625.021.317.6</tspan><tspan
         id="tspan4273"
         sodipodi:role="line"
         y="-586.14874"
         x="55.119999 62.556519 67.961922 71.063202 74.0662 79.591721 85.117241 89.922043 93.623924 96.386681 101.9122 104.9152 157.71339 163.23892 168.76443 207.27928 212.80479 258.04636 263.57187 268.97729 303.17871 308.70425 314.22977 349.15192 354.67743 360.20294 362.99847 402.35416 407.87967 448.79691 454.32245 506.27979 511.80533">Cylinder oil4609681013526.8342822</tspan><tspan
         id="tspan4275"
         sodipodi:role="line"
         y="-571.14465"
         x="55.119999 64.969841 69.905678 75.321999 78.456039 83.98156 92.542839 95.305603 103.25536 106.86988 109.63264 115.15816 118.17208 121.27336">Medium VI oils</tspan></text>
<path
       inkscape:connector-curvature="0"
       id="path4277"
       style="fill:#000000;fill-opacity:1;fill-rule:evenodd;stroke:none"
       d="m 55.12,570.2 70.2,0 0,-0.48 -70.2,0 0,0.48 z" /><text
       id="text4279"
       style="font-variant:normal;font-weight:normal;font-size:10.92000008px;font-family:Times;-inkscape-font-specification:Times-Roman;writing-mode:lr-tb;fill:#000000;fill-opacity:1;fill-rule:nonzero;stroke:none"
       transform="scale(1,-1)"
       x="55.119999"
       y="-556.16101"><tspan
         id="tspan4281"
         sodipodi:role="line"
         y="-556.16101"
         x="55.119999 61.257042 66.782562 69.883842 75.300163 80.825684 83.926956 88.742683 91.50544 97.03096 100.04488 163.29352 168.82996 216.72508 263.53912 268.95544 274.49188 277.28741 314.38263 319.90814 322.70367 349.35941 354.89584 357.69135 402.58347 408.10901 449.03714 454.56268 506.53094 512.05652">Spindle oil15–18.66.32.4201613</tspan><tspan
         id="tspan4283"
         sodipodi:role="line"
         y="-541.15692"
         x="55.119999 61.857639 64.958923 70.484444 75.889839 78.991119 81.753883 90.315163 95.229164 100.03396 105.55948 108.66076 114.06616 118.98016 121.74292 127.26844 130.27144 163.27168 168.7972 207.31204 212.83755 263.4736 268.879 308.71515 314.24066 349.16284 354.68835 357.48389 402.36508 407.89059 448.80783 454.33334 506.29071 511.81622">Light machine oil326845123.9282016</tspan><tspan
         id="tspan4285"
         sodipodi:role="line"
         y="-526.15283"
         x="55.119999 64.969841 69.905678 75.321999 78.456039 83.271759 86.4058 91.93132 96.74704 99.84832 102.61108 110.56084 116.08636 119.10028 122.1142 127.05004 129.81281 135.33832 138.35223 163.43549 168.97192 207.49768 213.03412 258.28659 263.82303 269.23935 308.96631 314.49182 320.01736 322.81287 349.4686 355.00504 357.80057 402.69269 408.2182 413.74371 416.39728 449.16818 454.69373 460.21924 463.01474 506.70569 512.2312 517.75671 520.55225">Medicinal white oil686310723.36.429.622.817.8</tspan><tspan
         id="tspan4287"
         sodipodi:role="line"
         y="-511.14877"
         x="55.119999 63.15712 67.961922 72.875923 78.401443 83.806839 86.569603 95.207321 100.01212 104.92612 110.45164 113.45464 118.98016 123.89417 126.5368 132.06232 135.1636 163.23892 168.76443 207.27928 212.80479 258.04636 263.57187 268.97729 308.69333 314.21884 319.74435 322.53989 349.18466 354.71021 357.50571 402.3869 407.91245 413.43796 416.0806 448.84061 454.36612 459.89163 462.68716 506.36716 511.89267 517.41821 520.21375">Heavy machine oil758412226.37.327.021.617.5</tspan><tspan
         id="tspan4289"
         sodipodi:role="line"
         y="-496.14468"
         x="55.119999 63.15712 67.961922 72.875923 78.401443 83.806839 86.569603 95.207321 100.01212 104.92612 110.45164 113.45464 118.98016 123.89417 126.5368 132.06232 135.1636 157.72432 163.24983 168.77536 207.29019 212.81572 258.05728 263.58279 268.98819 308.70425 314.22977 349.15192 354.67743 357.47296 402.35416 407.87967 448.79691 454.32245 506.27979 511.80533">Heavy machine oil10038171317.5282318</tspan><tspan
         id="tspan4291"
         sodipodi:role="line"
         y="-481.14059"
         x="55.119999 61.8358 67.339478 75.267403 78.030159 85.958076 89.638123 92.400879 97.806282 100.9294 103.9324">Low VI oils</tspan></text>
<path
       inkscape:connector-curvature="0"
       id="path4293"
       style="fill:#000000;fill-opacity:1;fill-rule:evenodd;stroke:none"
       d="m 55.12,480.2 53.16,0 0,-0.48 -53.16,0 0,0.48 z" /><text
       id="text4295"
       style="font-variant:normal;font-weight:normal;font-size:10.92000008px;font-family:Times;-inkscape-font-specification:Times-Roman;writing-mode:lr-tb;fill:#000000;fill-opacity:1;fill-rule:nonzero;stroke:none"
       transform="scale(1,-1)"
       x="55.119999"
       y="-464.121"><tspan
         id="tspan4297"
         sodipodi:role="line"
         y="-464.121"
         x="55.119999 61.24612 66.760719 69.851082 75.256477 80.77108 83.861443 88.666245 91.429001 96.943604 99.946602 163.18433 168.70984 207.22467 212.7502 263.38623 268.79166 274.30624 277.09085 314.17514 319.70068 322.48526 349.13007 354.64468 357.42926 402.31049 407.82507 413.33966 415.98233 448.74231 454.25693 459.77151 462.55612 506.23611 511.7507 517.26532 520.04993">Spindle oil22–630.78.63.125.720.315.4</tspan><tspan
         id="tspan4299"
         sodipodi:role="line"
         y="-449.11691"
         x="55.119999 63.146202 67.940079 72.843163 78.357758 83.752243 86.514999 95.1418 99.935684 104.83876 110.35336 113.34544 118.86004 123.76312 126.40576 131.92036 135.01071 157.56052 163.07512 168.58972 207.09363 212.60823 257.8389 263.35349 268.74796 308.45309 313.96768 319.48227 322.26688 348.90076 354.41534 357.19995 402.07022 407.58484 413.09943 415.73114 448.48022 453.99484 459.50943 462.29404 505.9631 511.47772 516.99231 519.77692">Heavy machine oil100–716530.06.833.023.816.0</tspan><tspan
         id="tspan4301"
         sodipodi:role="line"
         y="-434.11285"
         x="55.119999 63.146202 67.940079 72.843163 78.357758 83.752243 86.514999 95.1418 99.935684 104.83876 110.35336 113.34544 118.86004 123.76312 126.40576 131.92036 135.01071 157.56052 163.07512 168.58972 207.09363 257.8389 263.35349 268.74796 308.45309 313.96768 319.48227 322.26688 348.90076 354.41534 357.19995 402.07022 407.58484 413.09943 415.73114 448.48022 453.99484 459.50943 462.29404 505.9631 511.47772 516.99231 519.77692">Heavy machine oil150831044.29.434.626.319.5</tspan><tspan
         id="tspan4303"
         sodipodi:role="line"
         y="-419.10876"
         x="55.119999 62.545601 67.940079 71.030441 74.022522 79.537117 85.05172 89.845604 93.53656 96.299324 101.81392 104.806 154.22992 159.74452 165.25912 170.77371 207.12639 252.35704 257.87164 263.38623 268.78073 302.97125 308.48584 314.00043 348.91168 354.42627 402.05933 407.57391 413.0885 415.72025 448.46933 453.98392 459.4985 462.28311 505.95221 511.4668 516.98138 519.76599">Cylinder oil1000–20001802441.529.425.0</tspan></text>
<text
       id="text4305"
       style="font-style:italic;font-variant:normal;font-size:10.92000008px;font-family:Times;-inkscape-font-specification:Times-Italic;writing-mode:lr-tb;fill:#000000;fill-opacity:1;fill-rule:nonzero;stroke:none"
       transform="scale(1,-1)"
       x="87.279404"
       y="-354.9101"><tspan
         id="tspan4307"
         sodipodi:role="line"
         y="-354.9101"
         x="87.279404 95.316521 101.3116 109.34872 116.06452 122.6602 125.42296 131.53816 139.46608 146.18188 152.89767 156.57771 163.90504 170.62083 177.94817 184.06335">OTHER LUBRICANTS</tspan><tspan
         id="tspan4309"
         sodipodi:role="line"
         y="-377.71103"
         x="233.08324 241.02208 245.92517 251.43976 256.95435 264.89319 267.89621 272.82111 274.74304 279.64612 282.64911 286.9516 291.85468 297.26007 301.56256 304.65292 307.65591 311.98022 314.76483 326.28543 329.07004 331.11209 339.0509 343.85571 349.3703 353.67279 359.18738 363.03122 367.83603 373.36154 375.40359 380.91818 383.9212">Dynamic viscosity, , measured at </tspan><tspan
         id="tspan4311"
         sodipodi:role="line"
         y="-363.66791"
         x="262.47989 267.99448 270.98654 278.92538 284.44 288.74246 294.13696 299.65155 304.55463 308.74792 311.86011 316.76318 319.39493 324.90952 328.74243 333.64551 337.948 342.14127 347.65585 351.4888">atmospheric pressure</tspan></text>
<text
       id="text4313"
       style="font-variant:normal;font-weight:normal;font-size:10.92000008px;font-family:Times;-inkscape-font-specification:Times-Roman;writing-mode:lr-tb;fill:#000000;fill-opacity:1;fill-rule:nonzero;stroke:none"
       transform="scale(1,-1)"
       x="277.00348"
       y="-347.70288"><tspan
         id="tspan4315"
         sodipodi:role="line"
         y="-347.70288"
         x="277.00348 280.60709 286.1326">(10</tspan></text>
<text
       id="text4317"
       style="font-variant:normal;font-weight:normal;font-size:8.76000023px;font-family:Times;-inkscape-font-specification:Times-Roman;writing-mode:lr-tb;fill:#000000;fill-opacity:1;fill-rule:nonzero;stroke:none"
       transform="scale(1,-1)"
       x="291.64001"
       y="-352.164"><tspan
         id="tspan4319"
         sodipodi:role="line"
         y="-352.164"
         x="291.64001 295.95868">–3</tspan></text>
<text
       id="text4321"
       style="font-variant:normal;font-weight:normal;font-size:10.92000008px;font-family:Times;-inkscape-font-specification:Times-Roman;writing-mode:lr-tb;fill:#000000;fill-opacity:1;fill-rule:nonzero;stroke:none"
       transform="scale(1,-1)"
       x="303.28275"
       y="-347.72101"><tspan
         id="tspan4323"
         sodipodi:role="line"
         y="-347.72101"
         x="303.28275 311.19977 313.96252 318.16672 320.92947">N s m</tspan></text>
<text
       id="text4325"
       style="font-variant:normal;font-weight:normal;font-size:8.76000023px;font-family:Times;-inkscape-font-specification:Times-Roman;writing-mode:lr-tb;fill:#000000;fill-opacity:1;fill-rule:nonzero;stroke:none"
       transform="scale(1,-1)"
       x="329.44"
       y="-352.164"><tspan
         id="tspan4327"
         sodipodi:role="line"
         y="-352.164"
         x="329.44 333.75867">–2</tspan></text>
<text
       id="text4329"
       style="font-variant:normal;font-weight:normal;font-size:10.92000008px;font-family:Times;-inkscape-font-specification:Times-Roman;writing-mode:lr-tb;fill:#000000;fill-opacity:1;fill-rule:nonzero;stroke:none"
       transform="scale(1,-1)"
       x="338.32001"
       y="-347.72101"><tspan
         id="tspan4331"
         y="-347.72101"
         x="338.32001">)</tspan></text>
<text
       id="text4333"
       style="font-style:italic;font-variant:normal;font-size:10.92000008px;font-family:Times;-inkscape-font-specification:Times-Italic;writing-mode:lr-tb;fill:#000000;fill-opacity:1;fill-rule:nonzero;stroke:none"
       transform="scale(1,-1)"
       x="420.51483"
       y="-371.24268"><tspan
         id="tspan4335"
         sodipodi:role="line"
         y="-371.24268"
         x="420.51483 427.25247 431.09631 436.01031 440.32373 444.52792 450.05344 453.89728 458.81128 461.57404 466.48804 471.29285 476.81836 482.34387 487.86942 492.67419 498.19974 501.20273 503.99823">Pressure exponent, </tspan></text>
<text
       id="text4337"
       style="font-variant:normal;font-weight:normal;font-size:10.92000008px;font-family:Times;-inkscape-font-specification:Times-Roman;writing-mode:lr-tb;fill:#000000;fill-opacity:1;fill-rule:nonzero;stroke:none"
       transform="scale(1,-1)"
       x="437.42993"
       y="-354.20749"><tspan
         id="tspan4339"
         sodipodi:role="line"
         y="-354.20749"
         x="437.42993 441.14273 446.67917">(10</tspan></text>
<text
       id="text4341"
       style="font-variant:normal;font-weight:normal;font-size:8.76000023px;font-family:Times;-inkscape-font-specification:Times-Roman;writing-mode:lr-tb;fill:#000000;fill-opacity:1;fill-rule:nonzero;stroke:none"
       transform="scale(1,-1)"
       x="452.07999"
       y="-358.64401"><tspan
         id="tspan4343"
         sodipodi:role="line"
         y="-358.64401"
         x="452.07999 456.52133">–9</tspan></text>
<text
       id="text4345"
       style="font-variant:normal;font-weight:normal;font-size:10.92000008px;font-family:Times;-inkscape-font-specification:Times-Roman;writing-mode:lr-tb;fill:#000000;fill-opacity:1;fill-rule:nonzero;stroke:none"
       transform="scale(1,-1)"
       x="463.48264"
       y="-354.20099"><tspan
         id="tspan4347"
         y="-354.20099"
         x="463.48264">m</tspan></text>
<text
       id="text4349"
       style="font-variant:normal;font-weight:normal;font-size:8.76000023px;font-family:Times;-inkscape-font-specification:Times-Roman;writing-mode:lr-tb;fill:#000000;fill-opacity:1;fill-rule:nonzero;stroke:none"
       transform="scale(1,-1)"
       x="472.12"
       y="-358.64401"><tspan
         id="tspan4351"
         y="-358.64401"
         x="472.12">2</tspan></text>
<text
       id="text4353"
       style="font-variant:normal;font-weight:normal;font-size:10.92000008px;font-family:Times;-inkscape-font-specification:Times-Roman;writing-mode:lr-tb;fill:#000000;fill-opacity:1;fill-rule:nonzero;stroke:none"
       transform="scale(1,-1)"
       x="479.32275"
       y="-354.20099"><tspan
         id="tspan4355"
         y="-354.20099"
         x="479.32275">N</tspan></text>
<text
       id="text4357"
       style="font-variant:normal;font-weight:normal;font-size:8.76000023px;font-family:Times;-inkscape-font-specification:Times-Roman;writing-mode:lr-tb;fill:#000000;fill-opacity:1;fill-rule:nonzero;stroke:none"
       transform="scale(1,-1)"
       x="487.23999"
       y="-358.64401"><tspan
         id="tspan4359"
         sodipodi:role="line"
         y="-358.64401"
         x="487.23999 491.6813">–1</tspan></text>
<text
       id="text4361"
       style="font-variant:normal;font-weight:normal;font-size:10.92000008px;font-family:Times;-inkscape-font-specification:Times-Roman;writing-mode:lr-tb;fill:#000000;fill-opacity:1;fill-rule:nonzero;stroke:none"
       transform="scale(1,-1)"
       x="496"
       y="-354.20099"><tspan
         id="tspan4363"
         y="-354.20099"
         x="496">)</tspan><tspan
         id="tspan4365"
         sodipodi:role="line"
         y="-328.27692"
         x="247.00217 252.52768 259.24347 265.11844 299.80035 305.32587 312.04169 317.91663 349.59558 355.00098 360.52649 367.3624 373.23737 405.99738 411.52289 418.23868 424.11365 460.237 465.76251 472.47833 478.35327 510.15231 515.55774 521.08325 527.79901 533.67401">30°C60°C100°C30°C60°C100°C</tspan><tspan
         id="tspan4367"
         sodipodi:role="line"
         y="-310.76123"
         x="55.487213 64.965759 69.890686 72.893677 77.818604 250.25632 255.78185 258.55554 264.0592 303.89536 309.4209 312.19458 317.59998 355.87457 361.40009 364.17377 369.67743 409.15323 463.15265 517.39227">Water0.800.470.28000</tspan><tspan
         id="tspan4369"
         sodipodi:role="line"
         y="-293.24554"
         x="55.487213 62.224854 65.227844 70.753357 76.27887 79.281891 84.195892 89.721405 94.526215 97.288971 102.81448 108.34 111.34299 116.86853 121.78253 125.38611 130.91165 134.51523 140.04077 145.56628 151.0918 154.09479 159.00879 164.53433 169.33911 172.10187 177.62741 183.15292 186.15591 191.68143 196.59543">Ethylene oxide-propylene oxide </tspan><tspan
         id="tspan4371"
         sodipodi:role="line"
         y="-280.28351"
         x="55.487213 60.401215 65.80661 71.332123 76.857635 79.860626 85.386169 93.947449 98.86145">copolymer</tspan><tspan
         id="tspan4373"
         sodipodi:role="line"
         y="-293.24554"
         x="239.32541 244.85092 250.26724 298.40259 303.9281 309.45364 312.24915 350.41455 355.83087 361.35638 364.15192 403.75876 409.28427 414.80981 417.46338 457.79092 463.31644 468.84195 471.63748 512.20526 517.7417 523.15802 525.9317">20462.522.517.614.312.2</tspan><tspan
         id="tspan4375"
         sodipodi:role="line"
         y="-262.76785"
         x="55.487213 62.836365 67.750366 71.965485 75.099518 80.515839 84.250488 87.013245 92.538757 95.552673 239.44553 244.98196 250.39828 298.53363 304.05914 350.51282 355.92914 361.46561 364.26111 403.86795 409.39349 414.91901 417.57257 457.90012 463.42563 468.95117 471.74667 512.31445 517.85089 523.26721 526.04089">Castor oil3608018.015.914.412.3</tspan><tspan
         id="tspan4377"
         sodipodi:role="line"
         y="-245.25217"
         x="55.487213 63.436951 66.450867 70.152771 75.678284 79.292786 84.228638 87.242554 92.768066 98.29361 101.30753 106.83304 111.74704 117.27255 122.68887 125.79016 129.40469 132.16745 137.69296 143.21848 146.23239 151.75793 156.67191 159.68585 164.62167 167.63559 245.04749 250.46381 256.00024 258.79578 299.0032 304.05914 309.59558 312.39111 356.20215 361.72766 364.52319 370.04871 404.02084 409.54636 415.07187 417.72543 458.05301 463.57852 469.10403 471.89957 512.46735 518.00378 523.4201 526.19379">Di(2-ethylhexyl) phthalate43.511.64.0520.816.613.5</tspan><tspan
         id="tspan4379"
         sodipodi:role="line"
         y="-227.73648"
         x="55.487213 63.436951 66.450867 71.97641 76.890411 81.804413 85.418915 90.944427 93.958374 96.72113 100.423 105.83932 108.94061 114.46613 119.28183 124.21768 127.83221 130.96625 136.49176 141.3075 239.47827 245.01472 250.43105 298.56641 304.09192 350.54559 355.96191 361.49835 364.29388 409.42624 414.95175 417.60532 463.4584 468.99484 471.79034 517.76355 523.17987 525.95355">Glycerol (glycerine)5357313.95.95.53.6</tspan><tspan
         id="tspan4381"
         sodipodi:role="line"
         y="-210.22081"
         x="55.487213 61.624237 67.14975 70.152771 75.678284 81.203796 84.807404 90.332916 95.858429 101.26385 104.36511 109.27911 114.68451 119.60944 122.37219 127.89771 130.90073 136.42624 141.34024 146.74564 149.86877 152.63153 158.03693 163.56244 244.91644 250.32184 255.84737 258.64288 307.00757 359.68564 403.72601 409.25153 414.77704 417.41968 467.45511 520.13318">Polypropylene glycol 75082.3––17.8––</tspan><tspan
         id="tspan4383"
         sodipodi:role="line"
         y="-192.70512"
         x="55.487213 61.624237 67.14975 70.152771 75.678284 81.203796 84.807404 90.332916 95.858429 101.26385 104.36511 109.27911 114.68451 119.60944 122.37219 127.89771 130.90073 136.42624 141.34024 146.74564 149.86877 152.63153 158.03693 163.56244 169.08795 239.40182 244.92735 250.33276 306.97479 359.65289 403.69324 409.21875 414.74426 417.3869 467.42236 520.10046">Polypropylene glycol 1500177––17.4––</tspan><tspan
         id="tspan4385"
         sodipodi:role="line"
         y="-175.30957"
         x="55.487213 63.436951 68.962494 74.488007 77.501923 81.815308 84.578094 89.994385 244.92735 250.34367 255.88013 258.67566 307.05124 359.74023 403.7915 409.31705 414.84256 417.49612 467.54248 520.23151">Hyvis 0591.1––29.3––</tspan><tspan
         id="tspan4387"
         sodipodi:role="line"
         y="-157.79388"
         x="55.487213 63.436951 68.962494 74.488007 77.490997 81.804413 84.567169 89.972565 239.72943 245.25496 250.3 306.94205 359.62012 403.66046 409.186 414.71152 417.35416 467.38959 520.06769">Hyvis 07211––30.2––</tspan><tspan
         id="tspan4389"
         sodipodi:role="line"
         y="-140.2782"
         x="55.487213 61.602386 66.407196 71.932709 75.055847 80.461243 83.584351 87.166107 92.091034 97.015961 99.778717 105.18411 244.86185 250.26724 306.9093 359.58734 403.62772 409.15323 414.67877 417.32141 467.35684 520.03491">Santotrac 4030––34.5––</tspan><tspan
         id="tspan4391"
         sodipodi:role="line"
         y="-122.76252"
         x="55.487213 61.842651 65.446228 68.547516 72.151123 77.065125 80.668732 86.194244 89.197235 94.722748 100.24829 105.7738 109.978 115.50351 121.02905 125.94305 128.94604 133.87097 136.63373 141.43851 145.76285 148.76584 153.69077 244.88368 250.28908 255.81461 258.61011 306.97479 359.65289 403.69324 409.21875 414.74426 417.3869 467.42236 520.10046">Tri-arylphosphate ester25.5––31.6––</tspan><tspan
         id="tspan4393"
         sodipodi:role="line"
         y="-105.24683"
         x="55.487213 63.436951 66.439972 70.141846 75.667358 79.270966 84.195892 87.198883 92.724396 98.249908 101.25293 106.77844 111.69244 117.21796 122.62335 125.72464 129.32825 132.091 136.40439 141.2092 146.73471 151.64871 156.56271 161.36752 164.46881 244.86185 250.26724 255.79276 258.58829 306.95294 359.63104 409.186 414.71152 417.35416 467.38959 520.06769">Di(2-ethylhexyl) sebacate14.7––9.3––</tspan></text>
<path
       inkscape:connector-curvature="0"
       id="path4395"
       style="fill:#000000;fill-opacity:1;fill-rule:evenodd;stroke:none"
       d="m 46.24,414.8 0.48,0 0,305.4 -0.48,0 0,-305.4 z" /><path
       inkscape:connector-curvature="0"
       id="path4397"
       style="fill:#000000;fill-opacity:1;fill-rule:evenodd;stroke:none"
       d="m 145.48,414.2 0.48,0 0,306.48 -0.48,0 0,-306.48 z" /><path
       inkscape:connector-curvature="0"
       id="path4399"
       style="fill:#000000;fill-opacity:1;fill-rule:evenodd;stroke:none"
       d="m 198.28,414.2 0.48,0 0,306.48 -0.48,0 0,-306.48 z" /><path
       inkscape:connector-curvature="0"
       id="path4401"
       style="fill:#000000;fill-opacity:1;fill-rule:evenodd;stroke:none"
       d="m 240.04,414.2 0.48,0 0,306.48 -0.48,0 0,-306.48 z" /><path
       inkscape:connector-curvature="0"
       id="path4403"
       style="fill:#000000;fill-opacity:1;fill-rule:evenodd;stroke:none"
       d="m 293.8,414.2 0.48,0 0,257.52 -0.48,0 0,-257.52 z" /><path
       inkscape:connector-curvature="0"
       id="path4405"
       style="fill:#000000;fill-opacity:1;fill-rule:evenodd;stroke:none"
       d="m 340.24,414.2 0.48,0 0,257.52 -0.48,0 0,-257.52 z" /><path
       inkscape:connector-curvature="0"
       id="path4407"
       style="fill:#000000;fill-opacity:1;fill-rule:evenodd;stroke:none"
       d="m 393.4,414.2 0.48,0 0,306.48 -0.48,0 0,-306.48 z" /><path
       inkscape:connector-curvature="0"
       id="path4409"
       style="fill:#000000;fill-opacity:1;fill-rule:evenodd;stroke:none"
       d="m 439.84,414.2 0.48,0 0,257.52 -0.48,0 0,-257.52 z" /><path
       inkscape:connector-curvature="0"
       id="path4411"
       style="fill:#000000;fill-opacity:1;fill-rule:evenodd;stroke:none"
       d="m 497.32,414.2 0.48,0 0,257.52 -0.48,0 0,-257.52 z" /><path
       inkscape:connector-curvature="0"
       id="path4413"
       style="fill:#000000;fill-opacity:1;fill-rule:evenodd;stroke:none"
       d="m 548.32,414.8 0.48,0 0,305.4 -0.48,0 0,-305.4 z" /><path
       inkscape:connector-curvature="0"
       id="path4415"
       style="fill:#000000;fill-opacity:1;fill-rule:evenodd;stroke:none"
       d="m 46.24,720.68 502.56,0 0,-0.48 -502.56,0 0,0.48 z" /><path
       inkscape:connector-curvature="0"
       id="path4417"
       style="fill:#000000;fill-opacity:1;fill-rule:evenodd;stroke:none"
       d="m 240.04,671.72 308.76,0 0,-0.48 -308.76,0 0,0.48 z" /><path
       inkscape:connector-curvature="0"
       id="path4419"
       style="fill:#000000;fill-opacity:1;fill-rule:evenodd;stroke:none"
       d="m 46.24,656.72 194.28,0 0,-0.48 -194.28,0 0,0.48 z" /><path
       inkscape:connector-curvature="0"
       id="path4421"
       style="fill:#000000;fill-opacity:1;fill-rule:evenodd;stroke:none"
       d="m 240.04,656.72 308.76,0 0,-0.48 -308.76,0 0,0.48 z" /><path
       inkscape:connector-curvature="0"
       id="path4423"
       style="fill:#000000;fill-opacity:1;fill-rule:evenodd;stroke:none"
       d="m 46.24,414.8 502.56,0 0,-0.48 -502.56,0 0,0.48 z" /><path
       inkscape:connector-curvature="0"
       id="path4425"
       style="fill:#000000;fill-opacity:1;fill-rule:evenodd;stroke:none"
       d="m 46.6,99.8 0.48,0 0,291.48 -0.48,0 0,-291.48 z" /><path
       inkscape:connector-curvature="0"
       id="path4427"
       style="fill:#000000;fill-opacity:1;fill-rule:evenodd;stroke:none"
       d="m 229.84,99.32 0.48,0 0,292.44 -0.48,0 0,-292.44 z" /><path
       inkscape:connector-curvature="0"
       id="path4429"
       style="fill:#000000;fill-opacity:1;fill-rule:evenodd;stroke:none"
       d="m 283.48,99.32 0.48,0 0,240.96 -0.48,0 0,-240.96 z" /><path
       inkscape:connector-curvature="0"
       id="path4431"
       style="fill:#000000;fill-opacity:1;fill-rule:evenodd;stroke:none"
       d="m 335.44,99.32 0.48,0 0,240.96 -0.48,0 0,-240.96 z" /><path
       inkscape:connector-curvature="0"
       id="path4433"
       style="fill:#000000;fill-opacity:1;fill-rule:evenodd;stroke:none"
       d="m 388.6,99.32 0.48,0 0,292.44 -0.48,0 0,-292.44 z" /><path
       inkscape:connector-curvature="0"
       id="path4435"
       style="fill:#000000;fill-opacity:1;fill-rule:evenodd;stroke:none"
       d="m 442.72,99.32 0.48,0 0,240.96 -0.48,0 0,-240.96 z" /><path
       inkscape:connector-curvature="0"
       id="path4437"
       style="fill:#000000;fill-opacity:1;fill-rule:evenodd;stroke:none"
       d="m 496.96,99.32 0.48,0 0,240.96 -0.48,0 0,-240.96 z" /><path
       inkscape:connector-curvature="0"
       id="path4439"
       style="fill:#000000;fill-opacity:1;fill-rule:evenodd;stroke:none"
       d="m 547.96,99.8 0.48,0 0,291.48 -0.48,0 0,-291.48 z" /><path
       inkscape:connector-curvature="0"
       id="path4441"
       style="fill:#000000;fill-opacity:1;fill-rule:evenodd;stroke:none"
       d="m 46.48,391.76 502.08,0 0,-0.48 -502.08,0 0,0.48 z" /><path
       inkscape:connector-curvature="0"
       id="path4443"
       style="fill:#000000;fill-opacity:1;fill-rule:evenodd;stroke:none"
       d="m 229.84,340.28 318.72,0 0,-0.48 -318.72,0 0,0.48 z" /><path
       inkscape:connector-curvature="0"
       id="path4445"
       style="fill:#000000;fill-opacity:1;fill-rule:evenodd;stroke:none"
       d="m 46.48,322.76 502.08,0 0,-0.48 -502.08,0 0,0.48 z" /><path
       inkscape:connector-curvature="0"
       id="path4447"
       style="fill:#000000;fill-opacity:1;fill-rule:evenodd;stroke:none"
       d="m 46.48,99.8 502.08,0 0,-0.48 -502.08,0 0,0.48 z" /><text
       id="text4449"
       style="font-variant:normal;font-weight:normal;font-size:10.92000008px;font-family:Symbol;-inkscape-font-specification:Symbol;writing-mode:lr-tb;fill:#000000;fill-opacity:1;fill-rule:nonzero;stroke:none"
       transform="scale(1,-1)"
       x="331.60001"
       y="-708.20001"><tspan
         id="tspan4451"
         y="-708.20001"
         x="331.60001">η</tspan><tspan
         id="tspan4453"
         y="-701.72443"
         x="510.16385">α</tspan><tspan
         id="tspan4455"
         y="-377.72806"
         x="317.68793">η</tspan><tspan
         id="tspan4457"
         y="-371.2525"
         x="507.65225">α</tspan></text>
</g></svg>