<?xml version="1.0" encoding="UTF-8" standalone="no"?>
<!-- Created with Inkscape (http://www.inkscape.org/) -->

<svg
   xmlns:dc="http://purl.org/dc/elements/1.1/"
   xmlns:cc="http://creativecommons.org/ns#"
   xmlns:rdf="http://www.w3.org/1999/02/22-rdf-syntax-ns#"
   xmlns:svg="http://www.w3.org/2000/svg"
   xmlns="http://www.w3.org/2000/svg"
   xmlns:sodipodi="http://sodipodi.sourceforge.net/DTD/sodipodi-0.dtd"
   xmlns:inkscape="http://www.inkscape.org/namespaces/inkscape"
   id="svg6960"
   version="1.1"
   inkscape:version="0.91 r13725"
   xml:space="preserve"
   width="450"
   height="280.79999"
   viewBox="0 0 450 280.79999"
   sodipodi:docname="background_capacitance.pdf"><metadata
     id="metadata6966"><rdf:RDF><cc:Work
         rdf:about=""><dc:format>image/svg+xml</dc:format><dc:type
           rdf:resource="http://purl.org/dc/dcmitype/StillImage" /><dc:title></dc:title></cc:Work></rdf:RDF></metadata><defs
     id="defs6964"><clipPath
       clipPathUnits="userSpaceOnUse"
       id="clipPath6978"><path
         d="m 54.11,41.892864 292.57,0 0,169.448446 -292.57,0 0,-169.448446 z"
         id="path6980"
         inkscape:connector-curvature="0" /></clipPath><clipPath
       clipPathUnits="userSpaceOnUse"
       id="clipPath7064"><path
         d="m 54.11,41.892864 292.57,0 0,169.448446 -292.57,0 0,-169.448446 z"
         id="path7066"
         inkscape:connector-curvature="0" /></clipPath><clipPath
       clipPathUnits="userSpaceOnUse"
       id="clipPath7074"><path
         d="m 54.11,41.892864 292.57,0 0,169.448446 -292.57,0 0,-169.448446 z"
         id="path7076"
         inkscape:connector-curvature="0" /></clipPath><clipPath
       clipPathUnits="userSpaceOnUse"
       id="clipPath7084"><path
         d="m 54.11,41.892864 292.57,0 0,169.448446 -292.57,0 0,-169.448446 z"
         id="path7086"
         inkscape:connector-curvature="0" /></clipPath><clipPath
       clipPathUnits="userSpaceOnUse"
       id="clipPath7094"><path
         d="m 54.11,41.892864 292.57,0 0,169.448446 -292.57,0 0,-169.448446 z"
         id="path7096"
         inkscape:connector-curvature="0" /></clipPath><clipPath
       clipPathUnits="userSpaceOnUse"
       id="clipPath7104"><path
         d="m -4,-4 8,0 0,8 -8,0 0,-8 z"
         id="path7106"
         inkscape:connector-curvature="0" /></clipPath><clipPath
       clipPathUnits="userSpaceOnUse"
       id="clipPath7116"><path
         d="m -4,-4 8,0 0,8 -8,0 0,-8 z"
         id="path7118"
         inkscape:connector-curvature="0" /></clipPath><clipPath
       clipPathUnits="userSpaceOnUse"
       id="clipPath7128"><path
         d="m -4,-4 8,0 0,8 -8,0 0,-8 z"
         id="path7130"
         inkscape:connector-curvature="0" /></clipPath><clipPath
       clipPathUnits="userSpaceOnUse"
       id="clipPath7140"><path
         d="m -4,-4 8,0 0,8 -8,0 0,-8 z"
         id="path7142"
         inkscape:connector-curvature="0" /></clipPath><clipPath
       clipPathUnits="userSpaceOnUse"
       id="clipPath7150"><path
         d="m 54.11,41.892864 292.57,0 0,169.448446 -292.57,0 0,-169.448446 z"
         id="path7152"
         inkscape:connector-curvature="0" /></clipPath><clipPath
       clipPathUnits="userSpaceOnUse"
       id="clipPath7160"><path
         d="m -4,-4 8,0 0,8 -8,0 0,-8 z"
         id="path7162"
         inkscape:connector-curvature="0" /></clipPath><clipPath
       clipPathUnits="userSpaceOnUse"
       id="clipPath7172"><path
         d="m -4,-4 8,0 0,8 -8,0 0,-8 z"
         id="path7174"
         inkscape:connector-curvature="0" /></clipPath><clipPath
       clipPathUnits="userSpaceOnUse"
       id="clipPath7184"><path
         d="m -4,-4 8,0 0,8 -8,0 0,-8 z"
         id="path7186"
         inkscape:connector-curvature="0" /></clipPath><clipPath
       clipPathUnits="userSpaceOnUse"
       id="clipPath7196"><path
         d="m -4,-4 8,0 0,8 -8,0 0,-8 z"
         id="path7198"
         inkscape:connector-curvature="0" /></clipPath><clipPath
       clipPathUnits="userSpaceOnUse"
       id="clipPath7206"><path
         d="m 54.11,41.892864 292.57,0 0,169.448446 -292.57,0 0,-169.448446 z"
         id="path7208"
         inkscape:connector-curvature="0" /></clipPath></defs><sodipodi:namedview
     pagecolor="#ffffff"
     bordercolor="#666666"
     borderopacity="1"
     objecttolerance="10"
     gridtolerance="10"
     guidetolerance="10"
     inkscape:pageopacity="0"
     inkscape:pageshadow="2"
     inkscape:window-width="1855"
     inkscape:window-height="1056"
     id="namedview6962"
     showgrid="false"
     inkscape:zoom="3.0533333"
     inkscape:cx="225"
     inkscape:cy="140.39999"
     inkscape:window-x="65"
     inkscape:window-y="24"
     inkscape:window-maximized="1"
     inkscape:current-layer="g6968" /><g
     id="g6968"
     inkscape:groupmode="layer"
     inkscape:label="background_capacitance"
     transform="matrix(1.25,0,0,-1.25,0,280.8)"><path
       d="m 0,0 360,0 0,224.64 -360,0 L 0,0 Z"
       style="fill:#ffffff;fill-opacity:1;fill-rule:nonzero;stroke:none"
       id="path6970"
       inkscape:connector-curvature="0" /><path
       d="m 54.11,41.892864 292.57,0 0,169.448446 -292.57,0 0,-169.448446 z"
       style="fill:#ffffff;fill-opacity:1;fill-rule:nonzero;stroke:none"
       id="path6972"
       inkscape:connector-curvature="0" /><g
       id="g6974"><g
         id="g6976"
         clip-path="url(#clipPath6978)"><path
           d="m 77.04,61.92 38.88,0 0,82.08 -38.88,0 0,-82.08 z"
           style="fill:#ff0000;fill-opacity:0.2;fill-rule:nonzero;stroke:#000000;stroke-width:1;stroke-linecap:butt;stroke-linejoin:miter;stroke-miterlimit:10;stroke-dasharray:none;stroke-opacity:0.2"
           id="path6982"
           inkscape:connector-curvature="0" /></g></g><g
       id="g6984"><path
         d="m 67.408636,41.892864 0,-3.5"
         style="fill:#000000;fill-opacity:1;fill-rule:nonzero;stroke:#000000;stroke-width:0.80000001;stroke-linecap:butt;stroke-linejoin:round;stroke-miterlimit:10;stroke-dasharray:none;stroke-opacity:1"
         id="path6986"
         inkscape:connector-curvature="0" /><text
         transform="matrix(1,0,0,-1,53.096136,27.299114)"
         style="font-variant:normal;font-weight:normal;font-size:10px;font-family:'DejaVu Sans';-inkscape-font-specification:DejaVuSans;writing-mode:lr-tb;fill:#000000;fill-opacity:1;fill-rule:nonzero;stroke:none"
         id="text6988"><tspan
           x="0 6.3600001 9.54 15.9 22.26"
           y="0"
           sodipodi:role="line"
           id="tspan6990">0.000</tspan></text>
<path
         d="m 120.62447,41.892864 0,-3.5"
         style="fill:#000000;fill-opacity:1;fill-rule:nonzero;stroke:#000000;stroke-width:0.80000001;stroke-linecap:butt;stroke-linejoin:round;stroke-miterlimit:10;stroke-dasharray:none;stroke-opacity:1"
         id="path6992"
         inkscape:connector-curvature="0" /><text
         transform="matrix(1,0,0,-1,106.31197,27.299114)"
         style="font-variant:normal;font-weight:normal;font-size:10px;font-family:'DejaVu Sans';-inkscape-font-specification:DejaVuSans;writing-mode:lr-tb;fill:#000000;fill-opacity:1;fill-rule:nonzero;stroke:none"
         id="text6994"><tspan
           x="0 6.3600001 9.54 15.9 22.26"
           y="0"
           sodipodi:role="line"
           id="tspan6996">0.002</tspan></text>
<path
         d="m 173.8403,41.892864 0,-3.5"
         style="fill:#000000;fill-opacity:1;fill-rule:nonzero;stroke:#000000;stroke-width:0.80000001;stroke-linecap:butt;stroke-linejoin:round;stroke-miterlimit:10;stroke-dasharray:none;stroke-opacity:1"
         id="path6998"
         inkscape:connector-curvature="0" /><text
         transform="matrix(1,0,0,-1,159.5278,27.299114)"
         style="font-variant:normal;font-weight:normal;font-size:10px;font-family:'DejaVu Sans';-inkscape-font-specification:DejaVuSans;writing-mode:lr-tb;fill:#000000;fill-opacity:1;fill-rule:nonzero;stroke:none"
         id="text7000"><tspan
           x="0 6.3600001 9.54 15.9 22.26"
           y="0"
           sodipodi:role="line"
           id="tspan7002">0.004</tspan></text>
<path
         d="m 227.05613,41.892864 0,-3.5"
         style="fill:#000000;fill-opacity:1;fill-rule:nonzero;stroke:#000000;stroke-width:0.80000001;stroke-linecap:butt;stroke-linejoin:round;stroke-miterlimit:10;stroke-dasharray:none;stroke-opacity:1"
         id="path7004"
         inkscape:connector-curvature="0" /><text
         transform="matrix(1,0,0,-1,212.74363,27.299114)"
         style="font-variant:normal;font-weight:normal;font-size:10px;font-family:'DejaVu Sans';-inkscape-font-specification:DejaVuSans;writing-mode:lr-tb;fill:#000000;fill-opacity:1;fill-rule:nonzero;stroke:none"
         id="text7006"><tspan
           x="0 6.3600001 9.54 15.9 22.26"
           y="0"
           sodipodi:role="line"
           id="tspan7008">0.006</tspan></text>
<path
         d="m 280.27196,41.892864 0,-3.5"
         style="fill:#000000;fill-opacity:1;fill-rule:nonzero;stroke:#000000;stroke-width:0.80000001;stroke-linecap:butt;stroke-linejoin:round;stroke-miterlimit:10;stroke-dasharray:none;stroke-opacity:1"
         id="path7010"
         inkscape:connector-curvature="0" /><text
         transform="matrix(1,0,0,-1,265.95946,27.299114)"
         style="font-variant:normal;font-weight:normal;font-size:10px;font-family:'DejaVu Sans';-inkscape-font-specification:DejaVuSans;writing-mode:lr-tb;fill:#000000;fill-opacity:1;fill-rule:nonzero;stroke:none"
         id="text7012"><tspan
           x="0 6.3600001 9.54 15.9 22.26"
           y="0"
           sodipodi:role="line"
           id="tspan7014">0.008</tspan></text>
<path
         d="m 333.48779,41.892864 0,-3.5"
         style="fill:#000000;fill-opacity:1;fill-rule:nonzero;stroke:#000000;stroke-width:0.80000001;stroke-linecap:butt;stroke-linejoin:round;stroke-miterlimit:10;stroke-dasharray:none;stroke-opacity:1"
         id="path7016"
         inkscape:connector-curvature="0" /><text
         transform="matrix(1,0,0,-1,319.1753,27.299114)"
         style="font-variant:normal;font-weight:normal;font-size:10px;font-family:'DejaVu Sans';-inkscape-font-specification:DejaVuSans;writing-mode:lr-tb;fill:#000000;fill-opacity:1;fill-rule:nonzero;stroke:none"
         id="text7018"><tspan
           x="0 6.3600001 9.54 15.9 22.26"
           y="0"
           sodipodi:role="line"
           id="tspan7020">0.010</tspan></text>
<text
         transform="matrix(1,0,0,-1,179.88719,13.627239)"
         style="font-variant:normal;font-weight:normal;font-size:10px;font-family:'DejaVu Sans';-inkscape-font-specification:DejaVuSans;writing-mode:lr-tb;fill:#000000;fill-opacity:1;fill-rule:nonzero;stroke:none"
         id="text7022"><tspan
           x="0 6.1100001 8.8900003 18.629999 24.780001 27.959999 31.860001 37.07"
           y="0"
           sodipodi:role="line"
           id="tspan7024">Time [s]</tspan></text>
<path
         d="m 54.11,41.892864 -3.5,0"
         style="fill:#000000;fill-opacity:1;fill-rule:nonzero;stroke:#000000;stroke-width:0.80000001;stroke-linecap:butt;stroke-linejoin:round;stroke-miterlimit:10;stroke-dasharray:none;stroke-opacity:1"
         id="path7026"
         inkscape:connector-curvature="0" /><text
         transform="matrix(1,0,0,-1,24.844375,38.095989)"
         style="font-variant:normal;font-weight:normal;font-size:10px;font-family:'DejaVu Sans';-inkscape-font-specification:DejaVuSans;writing-mode:lr-tb;fill:#000000;fill-opacity:1;fill-rule:nonzero;stroke:none"
         id="text7028"><tspan
           x="0 6.3600001 9.54 15.9"
           y="0"
           sodipodi:role="line"
           id="tspan7030">0.00</tspan></text>
<path
         d="m 54.11,80.403875 -3.5,0"
         style="fill:#000000;fill-opacity:1;fill-rule:nonzero;stroke:#000000;stroke-width:0.80000001;stroke-linecap:butt;stroke-linejoin:round;stroke-miterlimit:10;stroke-dasharray:none;stroke-opacity:1"
         id="path7032"
         inkscape:connector-curvature="0" /><text
         transform="matrix(1,0,0,-1,24.844375,76.607)"
         style="font-variant:normal;font-weight:normal;font-size:10px;font-family:'DejaVu Sans';-inkscape-font-specification:DejaVuSans;writing-mode:lr-tb;fill:#000000;fill-opacity:1;fill-rule:nonzero;stroke:none"
         id="text7034"><tspan
           x="0 6.3600001 9.54 15.9"
           y="0"
           sodipodi:role="line"
           id="tspan7036">0.05</tspan></text>
<path
         d="m 54.11,118.91489 -3.5,0"
         style="fill:#000000;fill-opacity:1;fill-rule:nonzero;stroke:#000000;stroke-width:0.80000001;stroke-linecap:butt;stroke-linejoin:round;stroke-miterlimit:10;stroke-dasharray:none;stroke-opacity:1"
         id="path7038"
         inkscape:connector-curvature="0" /><text
         transform="matrix(1,0,0,-1,24.844375,115.11801)"
         style="font-variant:normal;font-weight:normal;font-size:10px;font-family:'DejaVu Sans';-inkscape-font-specification:DejaVuSans;writing-mode:lr-tb;fill:#000000;fill-opacity:1;fill-rule:nonzero;stroke:none"
         id="text7040"><tspan
           x="0 6.3600001 9.54 15.9"
           y="0"
           sodipodi:role="line"
           id="tspan7042">0.10</tspan></text>
<path
         d="m 54.11,157.4259 -3.5,0"
         style="fill:#000000;fill-opacity:1;fill-rule:nonzero;stroke:#000000;stroke-width:0.80000001;stroke-linecap:butt;stroke-linejoin:round;stroke-miterlimit:10;stroke-dasharray:none;stroke-opacity:1"
         id="path7044"
         inkscape:connector-curvature="0" /><text
         transform="matrix(1,0,0,-1,24.844375,153.62902)"
         style="font-variant:normal;font-weight:normal;font-size:10px;font-family:'DejaVu Sans';-inkscape-font-specification:DejaVuSans;writing-mode:lr-tb;fill:#000000;fill-opacity:1;fill-rule:nonzero;stroke:none"
         id="text7046"><tspan
           x="0 6.3600001 9.54 15.9"
           y="0"
           sodipodi:role="line"
           id="tspan7048">0.15</tspan></text>
<path
         d="m 54.11,195.93691 -3.5,0"
         style="fill:#000000;fill-opacity:1;fill-rule:nonzero;stroke:#000000;stroke-width:0.80000001;stroke-linecap:butt;stroke-linejoin:round;stroke-miterlimit:10;stroke-dasharray:none;stroke-opacity:1"
         id="path7050"
         inkscape:connector-curvature="0" /><text
         transform="matrix(1,0,0,-1,24.844375,192.14003)"
         style="font-variant:normal;font-weight:normal;font-size:10px;font-family:'DejaVu Sans';-inkscape-font-specification:DejaVuSans;writing-mode:lr-tb;fill:#000000;fill-opacity:1;fill-rule:nonzero;stroke:none"
         id="text7052"><tspan
           x="0 6.3600001 9.54 15.9"
           y="0"
           sodipodi:role="line"
           id="tspan7054">0.20</tspan></text>
<text
         transform="matrix(0,1,1,0,18.76625,98.546775)"
         style="font-variant:normal;font-weight:normal;font-size:10px;font-family:'DejaVu Sans';-inkscape-font-specification:DejaVuSans;writing-mode:lr-tb;fill:#000000;fill-opacity:1;fill-rule:nonzero;stroke:none"
         id="text7056"><tspan
           x="0 6.8400002 12.96 15.74 19.66 25.790001 32.139999 38.290001 41.470001 45.369999 52.209999"
           y="0"
           sodipodi:role="line"
           id="tspan7058">Voltage [V]</tspan></text>
</g><g
       id="g7060"><g
         id="g7062"
         clip-path="url(#clipPath7064)"><path
           d="m 67.408636,41.265905 0.319295,0.91194 0.106432,-0.962775 0.106432,1.064445 0.106431,-0.83646 0.106432,0.253403 0.106432,-1.139926 0.106431,0.430553 0.106432,2.178953 0.106432,-2.913743 0.212863,1.646731 0.106432,-2.052637 0.212863,1.875486 0.106432,-1.317847 0.106431,1.722983 0.106432,-1.976385 0.106432,1.571249 0.106431,-0.05083 0.212864,-0.911941 0.106431,0.811042 0.212864,-1.647501 0.106431,0.760207 0.106432,-1.621314 0.212863,2.153536 0.212864,-1.672148 0.106431,2.736593 0.106432,-1.926321 0.106432,1.773817 0.106431,-2.356104 0.106432,2.280622 0.106432,-0.152503 0.106431,-1.165343 0.106432,0.100898 0.106432,-0.988192 0.212863,0.861876 0.106432,-3.370483 0.106431,3.446735 0.106432,-0.912711 0.106432,0.07625 0.212863,2.02722 0.212863,-2.660341 0.212864,2.508607 0.106431,-1.394098 0.106432,0.861876 0.106432,-0.07625 0.106431,-1.19076 0.106432,0.785624 0.106432,-1.875486 0.106431,1.115279 0.106432,-0.101669 0.106432,-0.304237 0.106431,1.672918 0.106432,-2.255205 0.319295,3.344297 0.106431,-2.964578 0.106432,2.584859 0.106432,-2.889096 0.212863,1.647501 0.106432,-1.900903 0.212863,1.875486 0.106432,0.253402 0.106431,-1.317847 0.106432,0.683956 0.106432,-2.20437 0.106431,2.280622 0.319295,-1.824652 0.106432,-2.381521 0.212863,4.636726 0.106432,-0.835689 0.106432,2.508607 0.212863,-1.799234 0.106432,0.126316 0.106431,-0.354301 0.106432,0.17715 0.106432,-0.861876 0.106431,0.506805 0.106432,-1.216178 0.106432,2.229788 0.106431,-1.444163 0.106432,0.202568 0.106432,0.506805 0.106431,1.267012 0.106432,-1.595897 0.106432,0.988193 0.106431,-1.520415 0.212864,4.003605 0.106431,-2.306039 0.106432,1.241595 0.106432,-3.066247 0.106431,1.824652 0.106432,-0.937358 0.106432,0.202568 0.106431,-1.596667 0.106432,1.494998 0.106432,-1.773818 0.106431,1.064445 0.106432,-0.27882 0.212863,1.115279 0.106432,0.45597 0.106432,-0.02542 0.106431,0.127086 0.106432,-1.723753 0.212863,2.103472 0.106432,-2.356874 0.106432,0.152504 0.212863,1.216177 0.106432,-1.418745 0.106431,1.849298 0.212864,-3.192562 0.212863,3.877288 0.212863,-2.458543 0.319295,2.255205 0.106432,-1.520415 0.106432,2.154306 0.212863,-1.773817 0.106432,1.7484 0.212863,-2.913743 0.106432,1.697565 0.106431,-1.19076 0.106432,1.038257 0.212863,-0.911941 0.106432,1.722983 0.106432,-1.165344 0.106431,1.621314 0.106432,-3.318879 0.212863,3.192563 0.212864,-0.937358 0.106431,1.418745 0.212864,-1.824651 0.212863,-1.064445 0.106432,0.380489 0.106431,-0.27882 0.106432,0.633122 0.106432,-0.430554 0.106431,1.622084 0.106432,-1.19153 0.106431,0.760207 0.106432,-0.328884 0.106432,0.683955 0.106431,-1.089861 0.106432,1.7484 0.106432,-1.342494 0.106431,0.05083 0.319295,-2.179723 0.106432,0.532222 0.106432,-0.45597 0.106431,0.02542 0.106432,3.319649 0.106432,-1.039027 0.106431,1.089092 0.319295,-1.520415 0.106432,1.419516 0.106432,-1.368681 0.106431,1.875486 0.106432,-2.001803 0.106432,2.356104 0.212863,-2.634923 0.106432,0.886523 0.212863,-0.227985 0.106432,-2.634923 0.212863,3.496799 0.212863,-3.67472 0.106432,3.978957 0.106432,-2.078054 0.106431,2.30604 0.106432,-1.850069 0.106432,2.685757 0.212863,-2.862908 0.212863,0.304237 0.106432,-0.55764 0.106432,0.658539 0.212863,-1.672148 0.106432,1.19076 0.106431,-0.27882 0.106432,1.596667 0.106432,-2.255205 0.319295,2.02722 0.106431,-0.608474 0.106432,1.622084 0.212863,-3.167916 0.106432,0.710143 0.106432,-0.177921 0.106431,-0.532222 0.212864,2.128888 0.106431,-1.292429 0.106432,2.736592 0.106432,-3.369713 0.106431,2.457773 0.106432,-2.787427 0.106432,2.052637 0.212863,-0.329655 0.106432,0.886524 0.106431,-1.444163 0.106432,1.875486 0.212863,-1.140696 0.106432,0.127086 0.106432,0.481388 0.106431,-1.418746 0.425727,20.955382 0.212863,10.845471 0.745022,37.173143 0.212863,5.8529 0.319295,12.6447 0.106432,0.73479 0.319295,9.6293 0.106432,-0.12709 0.319295,9.27422 0.319295,5.85368 0.106431,0.83568 0.212863,2.86368 0.63859,10.11068 0.319295,4.15534 0.319295,3.57305 0.425727,4.28243 0.106432,-0.20257 0.106431,3.47138 0.106432,-2.81284 0.319295,4.28242 0.106432,-0.55764 0.106431,1.52042 0.106435,-0.45597 0.31929,0.6077 0.10643,1.41952 0.10643,-1.54583 0.21287,1.03902 0.10643,3.54764 0.10643,-2.20514 0.21287,1.87548 0.10643,-0.78562 0.10643,0.60847 0.10643,-0.55764 0.21286,1.52042 0.10643,-1.57125 0.21287,2.02722 0.10643,-1.19076 0.10643,0.81104 0.10643,-0.91271 0.10644,2.22979 0.10643,-2.33069 0.10643,3.47138 0.21286,-1.24159 0.21286,2.83749 0.21287,-2.1027 0.10643,0.81104 0.3193,-0.32966 0.10643,0.96278 0.10643,-1.77382 0.10643,1.08986 0.10643,-0.53222 0.10643,0.91194 0.21287,-0.96277 0.21286,2.48319 0.10643,-0.91194 0.10643,2.12812 0.10643,-0.45598 0.10644,-2.07805 0.10643,3.59847 0.21286,-4.7384 0.10643,0.53223 0.10644,1.77381 0.10643,-1.7484 0.10643,1.54584 0.10643,-1.11528 0.10643,0.2534 0.10643,-0.0762 0.10644,1.01361 0.10643,-0.12632 0.10643,0.81104 0.10643,-1.06444 0.21286,1.57125 0.10644,-2.58486 0.10643,2.43235 0.10643,-1.62131 0.10643,0.45597 0.10643,-0.12708 0.10643,0.22798 0.10643,-1.26701 0.10644,2.83826 0.10643,-0.96278 0.21286,-4.58666 0.21286,3.64931 0.3193,1.92555 0.10643,1.54583 0.10643,-2.35687 0.10644,1.08986 0.10643,-1.41875 0.10643,1.39333 0.10643,-1.59667 0.10643,0.38049 0.10643,-1.41951 0.10643,1.54583 0.10644,-1.16535 0.31929,1.495 0.10643,-0.32965 0.10644,1.19153 0.21286,-2.61028 0.21286,1.64673 0.10643,-0.65854 0.10643,-2.02721 0.10644,4.86548 0.10643,-1.46958 0.10643,0.17715 0.10643,-2.53403 0.10643,1.95097 0.10644,-2.45777 0.21286,1.64673 0.10643,-0.91194 0.10643,1.7484 0.10643,-1.46958 0.10643,1.36868 0.10644,-0.83646 0.10643,1.06444 0.10643,-0.93812 0.10643,1.19153 0.10643,-1.01361 0.10644,1.08909 0.10643,-1.21618 0.10643,1.03903 0.10643,-3.26882 0.10643,0.65854 0.10643,1.3941 0.10644,-3.04083 0.10643,2.02722 0.10643,-2.61028 0.21286,3.92813 0.10643,2.53402 0.10643,-1.49577 0.10644,0.65931 0.10643,-1.34326 0.10643,1.21618 0.10643,-1.52042 0.10643,1.06444 0.21287,-0.78562 0.10643,0.17792 0.10643,-0.12709 0.10643,-1.34326 0.10643,0.12709 0.10643,1.24159 0.10644,-1.82465 0.10643,1.26701 0.21286,-1.67215 0.21287,3.29424 0.10643,-2.07806 0.21286,4.00361 0.10643,-2.10347 0.10643,1.11527 0.10644,-2.88832 0.10643,1.69756 0.10643,-2.43312 0.10643,0.22875 0.10643,-0.98819 0.10643,1.8493 0.10644,-1.87472 0.10643,1.03826 0.10643,-0.0247 0.10643,0.53146 0.10643,-0.27805 0.10643,1.39332 0.10644,-0.22798 0.10643,0.2534 0.10643,-1.14069 0.21286,1.29243 0.10643,-1.44417 0.10644,1.64673 0.10643,-1.08909 0.10643,0.2534 0.31929,-2.1543 0.10644,-0.63312 0.10643,1.16534 0.10643,2.50861 0.10643,-1.54583 0.10643,2.99076 0.21287,-2.8891 0.10643,2.33146 0.21286,-1.95097 0.10643,-0.4059 0.10643,1.01361 0.10644,-0.93736 0.10643,0.12632 0.10643,0.30423 0.10643,0.68396 0.10643,-3.87652 0.10643,2.48319 0.10644,-0.35507 0.10643,1.495 0.10643,-0.86111 0.10643,0.58306 0.10643,1.54506 0.10643,-3.01541 0.10643,0.2534 0.10644,1.97638 0.10643,-2.40694 0.10643,0.40514 0.10643,1.77382 0.10643,-1.01361 0.10643,0.65931 0.10644,-1.21618 0.21286,1.19076 0.10643,-1.08986 0.3193,0.86187 0.10643,-2.10347 0.10643,3.64931 0.21286,-1.46958 0.10644,0.83568 0.21286,-1.84929 0.10643,0.30346 0.10643,-0.98819 0.10643,2.63569 0.10644,-2.07805 0.10643,0.35507 0.10643,-1.62208 0.10643,0.32965 0.10643,-0.20257 0.10643,2.25521 0.21287,-0.53222 0.21286,2.66034 0.10643,-3.04083 0.21287,2.88909 0.10643,-6.53763 0.10643,6.91735 0.21286,-2.30604 0.10643,-0.0501 0.10643,0.53222 0.10644,-2.61028 0.10643,2.61028 0.31929,-0.98896 0.10644,0.22875 0.10643,1.51965 0.10643,-3.82569 0.10643,4.63673 0.10643,-2.71118 0.10643,2.12889 0.10644,-3.11708 0.10643,2.61028 0.10643,-2.02722 0.21286,1.79846 0.10643,-0.17715 0.10643,-1.44416 0.10644,0.2534 0.10643,-0.27882 0.21286,0.78563 0.10643,-1.62209 0.10643,2.30604 0.10644,-0.43055 0.10643,0.10167 0.21286,-2.28062 0.10643,0.15173 0.10643,0.76021 0.10644,-0.53223 0.21286,2.53403 0.10643,-1.13993 0.10643,-2.48396 0.21287,1.44494 0.21286,1.13992 0.10643,-0.88652 0.10643,1.34249 0.10643,-0.6077 0.3193,0.81104 0.10643,-0.58306 0.10643,2.20437 0.10643,-2.93916 0.10644,0.48139 0.21286,2.07806 0.10643,-3.1425 0.10643,3.04083 0.21287,-2.76201 0.10643,1.49499 0.10643,-1.21617 0.10643,4.05444 0.10643,-3.87729 0.21287,0.65931 0.21286,-0.48216 0.10643,1.41951 0.21286,-1.39409 0.10644,0.4059 0.10643,-0.32965 0.10643,1.11528 0.10643,-2.7366 0.10643,2.02645 0.10643,-0.3543 0.10644,0.65854 0.10643,-2.68576 0.10643,2.81285 0.10643,-0.15251 0.3193,0.50681 0.10643,0.30423 0.21286,-3.26881 0.10643,3.82645 0.21287,-3.92735 0.10643,2.53326 0.10643,-1.67215 0.10643,1.49499 0.10643,-0.93735 0.10643,0.7602 0.10644,-1.06444 0.10643,2.58486 0.10643,-2.83826 0.10643,1.11528 0.10643,-0.48139 0.21287,1.36791 0.10643,-1.44416 0.10643,1.39333 0.10643,-0.68396 0.10643,4.0036 0.10643,-3.80103 0.10644,2.93993 0.10643,-1.31785 0.10643,-3.26881 0.21286,2.88832 0.10643,-4.28242 0.10644,1.59666 0.10643,-0.73479 0.10643,0.27882 0.21286,-0.63389 0.21287,2.35688 0.10643,0.60847 0.10643,-1.34326 0.10643,1.52041 0.10643,-1.08986 0.10643,0.91271 0.10644,-0.86188 0.10643,0.88653 0.21286,-0.83569 0.10643,-2.28062 0.10643,1.36791 0.10644,-0.50681 0.10643,0.32966 0.21286,-0.58306 0.10643,3.19333 0.10643,-4.0036 0.21287,1.79846 0.10643,2.15431 0.10643,-2.0018 0.21286,0.96277 0.10644,0.81104 0.10643,-0.5068 0.10643,1.5959 0.10643,-4.43416 0.10643,2.33145 0.21287,-0.70937 0.10643,0.98819 0.10643,-1.41951 0.10643,1.92632 0.21286,-1.87549 0.10644,5.01722 0.10643,-3.19257 0.10643,0.58306 0.21286,-2.30604 0.10643,2.22979 0.21287,-1.46958 0.10643,0.3543 0.10643,-1.72298 0.10643,2.05263 0.10643,-0.7602 0.10644,0.0508 0.10643,-1.01361 0.21286,2.12812 0.10643,-2.55867 0.10643,0.65854 0.10644,1.87471 0.10643,-0.96277 0.10643,2.0018 0.10643,-2.71117 0.10643,2.05263 0.21287,-1.24159 0.10643,-0.81104 0.10643,0.0763 0.10643,-0.17715 0.21286,-1.41952 0.10644,0.32965 0.10643,1.64674 0.21286,-2.22979 0.10643,0.78562 0.10643,1.77382 0.10644,-0.2534 0.10643,1.13992 0.10643,-1.51964 0.10643,0.76021 0.10643,1.79846 0.10643,-3.06548 0.10644,1.77382 0.10643,-1.36868 0.10643,1.90013 0.10643,-0.8611 0.10643,0.93735 0.10643,-2.05263 0.21287,0.38049 0.10643,3.62311 0.10643,-3.14173 0.10643,1.11451 0.21287,-1.69756 0.21286,1.49499 0.10643,-1.49499 0.21286,1.7484 0.10644,2.53402 0.21286,-3.82645 0.10643,0.65931 0.10643,-2.50861 0.10643,2.55944 0.10644,-2.96535 0.21286,1.95174 0.10643,0.1009 0.10643,2.38229 0.10643,-1.36868 0.21287,1.77382 0.21286,-2.58486 0.10643,1.3941 0.10643,-3.54764 0.10644,1.69757 0.10643,-0.58306 0.10643,0.43132 0.10643,-2.17972 0.10643,2.40771 0.10643,-0.48139 0.10644,-2.10347 0.10643,2.53402 0.10643,-0.22798 0.21286,1.26701 0.10643,-0.55764 0.21287,0.98819 0.10643,-1.21617 0.10643,1.67215 0.10643,-2.8375 0.10643,2.05264 0.10644,-0.60847 0.10643,0.0508 0.10643,-1.31785 0.21286,2.99 0.10643,-0.27882 0.10644,-2.63492 0.21286,0.93735 0.10643,-0.63389 0.3193,2.40771 0.21286,-0.22798 0.10643,-3.80104 0.21286,2.50861 0.10644,-2.99 0.21286,2.15354 0.10643,0.60847 0.10643,-2.05264 0.10643,1.44417 0.10643,-0.86111 0.21287,2.22979 0.10643,0.86111 0.10643,-0.88653 0.10643,0.45597 0.10643,-1.36791 0.10644,0.53145 0.21286,-2.33068 0.10643,1.8493 0.10643,-0.15174 0.10643,-0.68395 0.10644,0.65853 0.10643,-2.30603 0.10643,2.38229 0.21286,-0.32966 0.10643,1.495 0.21287,-0.58306 0.10643,-0.22798 0.10643,1.6475 0.10643,-1.36868 0.10643,1.62208 0.10644,-1.19076 0.21286,0.12632 0.10643,-0.15174 0.10643,0.40514 0.10643,-1.54583 0.10644,4.63749 0.10643,-4.10527 0.10643,0.91194 0.10643,-1.5959 0.10643,1.67215 0.10643,-0.63312 0.10644,-1.47035 0.10643,0.27882 0.10643,2.86368 0.10643,-2.76201 0.10643,0.32965 0.10643,-1.59666 0.10644,2.33145 0.10643,-0.78562 0.10643,1.08986 0.10643,-0.43132 0.10643,-1.52042 0.21287,1.85007 0.31929,-2.76201 0.3193,2.68576 0.10643,-0.17715 0.10643,0.12632 0.10643,0.91271 0.10643,-1.19076 0.10643,1.34249 0.21287,-1.69757 0.10643,-0.48138 0.21286,0.6077 0.10643,-1.44416 0.21287,1.95097 0.21286,-1.01361 0.21286,0.78562 0.10644,0.0254 0.10643,0.17792 0.10643,1.29166 0.21286,-1.06368 0.10643,0.55687 0.10644,-2.81207 0.10643,2.28062 0.10643,-1.34326 0.10643,2.2552 0.21286,-2.0018 0.10644,0.55764 0.10643,1.77382 0.42572,-1.82466 0.10644,0.60771 0.10643,2.43312 0.21286,-2.61027 0.10643,1.95097 0.10643,-3.47139 0.10644,3.26882 0.21286,-2.25521 0.10643,-0.93736 0.10643,1.92555 0.10644,-4.12992 0.10643,3.14173 0.10643,-1.87471 0.10643,1.39332 0.10643,-0.32965 0.10643,0.0508 0.10643,1.46958 0.10644,-0.88653 0.10643,-1.92555 0.21286,2.99 0.10643,-1.16612 0.10643,1.34327 0.10644,-0.12709 0.10643,0.50681 0.31929,-2.00181 0.10643,1.44494 0.10644,-2.33146 0.10643,0.88652 0.10643,1.92632 0.10643,-3.4968 0.10643,3.14173 0.21287,-0.48139 0.10643,-0.15173 0.10643,1.16534 0.10643,-3.14249 0.10643,1.62208 0.10643,-0.27882 0.10644,1.87549 0.10643,-1.97639 0.21286,0.65854 0.10643,1.57125 0.21287,-2.25521 0.10643,1.36791 0.10643,-1.84929 0.21286,4.12992 0.10643,-3.75021 0.10644,2.05264 0.21286,-2.05264 0.10643,0.81105 0.10643,2.6095 0.53216,-4.38332 0.10643,1.85007 0.10643,-0.58306 0.10644,0.2534 0.10643,-2.2552 0.10643,1.44416 0.21286,-0.93736 0.10643,1.06445 0.10644,2.86291 0.10643,-2.30604 0.21286,1.11528 0.10643,0.68395 0.21287,-1.52041 0.10643,-0.0755 0.10643,0.32888 0.10643,-1.21618 0.21286,1.90014 0.10644,-1.95097 0.10643,2.2552 0.10643,-2.91374 0.10643,2.17895 0.10643,-1.54583 0.10643,4.05444 0.10644,-3.57305 0.21286,1.41951 0.10643,-0.63389 0.10643,1.08986 0.10643,-1.95096 0.10644,2.30604 0.21286,-2.91452 0.10643,0.55764 0.10643,-0.10167 0.10643,-0.6077 0.10644,2.93916 0.10643,-3.82645 0.31929,2.4077 0.10643,-0.0254 0.10644,2.81284 0.10643,-0.27882 0.10643,-2.61028 0.10643,4.53583 0.21286,-5.57485 0.10644,-0.17715 0.10643,2.30604 0.31929,-3.77562 0.10644,3.52221 0.10643,-3.52221 0.10643,1.19076 0.10643,-1.2416 0.21286,3.16715 0.10644,-0.22799 0.21286,2.61028 0.10643,-3.19256 0.10643,0.37971 0.10643,2.10348 0.10643,-2.12889 0.10644,0.7602 0.10643,-0.15173 0.10643,-0.4059 0.10643,-2.20437 0.10643,2.83826 0.10643,-2.30604 0.3193,3.57305 0.10643,-0.2534 0.21286,-1.41875 0.21287,1.39333 0.10643,-1.19076 0.10643,1.13992 0.10643,-0.37971 0.21287,-1.57125 0.10643,0.0508 0.10643,0.43055 0.21286,-2.96457 0.10643,1.31784 0.10644,3.57229 0.10643,-4.43416 0.10643,4.61208 0.21286,-2.66111 0.10643,0.91271 0.10644,0.43055 0.10643,-0.70937 0.10643,0.0755 0.10643,-1.21618 0.10643,1.57125 0.10643,-0.12709 0.10644,-2.5086 0.10643,0.98896 0.10643,-0.17792 0.10643,1.24159 0.10643,-0.58228 0.10643,0.7602 0.10644,-0.0763 0.10643,0.81104 0.31929,-1.39409 0.10644,1.41951 0.10643,-1.26701 0.10643,2.15353 0.10643,-1.77381 0.21286,3.34506 0.21287,-4.78923 0.21286,1.79924 0.21286,-3.72479 0.10643,0.65854 0.10644,3.62312 0.10643,-2.76201 0.10643,2.86368 0.10643,-1.44417 0.10643,2.58486 0.10643,-1.87548 0.10644,0.88652 0.10643,-1.34249 0.10643,0.55764 0.10643,-0.6339 0.10643,0.10167 0.10643,-2.10347 0.10644,0.40514 0.10643,3.16791 0.10643,-4.51041 0.31929,4.05444 0.10644,-1.52041 0.21286,2.63492 0.10643,-3.19256 0.10643,2.76201 0.21287,-1.92555 0.10643,2.30527 0.21286,-2.12812 0.10643,0.83646 0.21287,-2.50861 0.10643,0.2534 0.10643,0.78486 0.10643,-1.3425 0.10643,1.13993 0.10643,-0.2534 0.10644,1.11528 0.10643,-0.12709 0.10643,-1.39333 0.21286,2.73659 0.10643,-2.10347 0.21287,2.58486 0.10643,-1.03903 0.10643,0.83646 0.10643,-3.11708 0.10643,3.59847 0.42573,-1.82465 0.10643,-1.11451 0.21287,0.68396 0.10643,0.20256 0.10643,0.68396 0.10643,-0.40514 0.10643,0.25341 0.10643,-0.0508 0.10644,0.50681 0.10643,-1.62132 0.10643,1.72299 0.10643,-0.60848 0.10643,4.86548 0.10643,-3.95277 0.10644,0.27805 0.10643,-1.67215 0.10643,0.65854 0.10643,-1.7484 0.21286,1.72376 0.10644,-1.06445 0.10643,1.5959 0.21286,-3.01541 0.21286,1.06444 0.10644,-0.6077 0.21286,2.22978 0.10643,-0.10167 0.10643,0.78563 0.21287,-2.33146 0.10643,2.86368 0.10643,-2.2552 0.10643,1.36791 0.21286,-1.67215 0.10644,2.20437 0.10643,-1.19076 0.10643,1.26701 0.10643,-0.73479 0.10643,0.63312 0.10643,-1.31707 0.10644,0.93735 0.10643,-0.0508 0.10643,0.45597 0.10643,-1.29166 0.10643,0.83569 0.10643,-0.86111 0.10644,2.35611 0.10643,-1.52042 0.10643,1.1407 0.10643,-3.37048 0.21286,1.41951 0.21287,-1.1407 0.10643,-0.17715 0.10643,2.10271 0.10643,-1.41875 0.10643,2.38229 0.10644,-1.9009 0.21286,1.14069 0.10643,-0.35507 0.10643,-1.495 0.21287,0.63313 0.10643,-0.27805 0.10643,0.81027 0.10643,-1.19076 0.10643,-3.69937 0.10643,3.36971 0.10644,-1.52041 0.10643,0.27882 0.10643,2.35687 0.10643,-0.83646 0.21286,1.16612 0.10644,2.05186 0.10643,-2.53325 0.10643,1.16534 0.31929,-1.06444 0.21287,0.43055 0.10643,-1.57048 0.10643,2.25521 0.10643,-1.34327 0.10643,0.70937 0.10644,-0.88652 0.10643,0.98819 0.10643,-0.70937 0.10643,1.52042 0.21286,-0.81105 0.10644,0.30424 0.10643,-1.06444 0.10643,0.78562 0.10643,-1.03903 0.10643,4.485 0.10643,-3.44597 0.10644,0.20257 0.21286,-0.40591 0.10643,-1.36791 0.10643,1.2416 0.10643,-1.36868 0.10644,0.0254 0.10643,1.79924 0.10643,-0.0508 0.10643,-0.5068 0.10643,1.31784 0.10643,-0.5068 0.10644,-1.39333 0.10643,1.19076 0.10643,-1.24159 0.10643,0.78562 0.10643,-1.06444 0.21287,1.26701 0.10643,0.22798 0.10643,-5.62491 0.10643,5.2452 0.21286,-2.12889 0.10644,0.38049 0.21286,2.1027 0.10643,-0.12632 0.10643,1.79924 0.10643,-4.35868 0.10644,2.86291 0.10643,-0.43056 0.10643,0.76021 0.10643,-1.79923 0.10643,0.68472 0.10643,-1.31784 0.10644,2.73659 0.10643,-3.21798 0.10643,1.8493 0.10643,-0.0501 0.10643,-0.35507 0.10643,1.06445 0.10644,-0.50681 0.42572,0.88652 0.10643,-0.0508 0.10644,-1.90013 0.10643,0.5068 0.10643,1.08986 0.10643,-0.68472 0.10643,-1.64673 0.10643,1.44416 0.10644,-0.2534 0.10643,-1.29243 0.10643,1.95174 0.10643,-2.58486 0.10643,3.16714 0.10643,-0.98819 0.10644,1.08986 0.10643,-1.14069 0.53216,3.34506 0.21286,-2.48319 0.10643,-1.69756 0.10643,1.79923 0.10643,-2.07805 0.10644,0.98819 0.10643,2.50861 0.10643,-4.13069 0.31929,1.77381 0.10644,-0.12631 0.10643,1.39332 0.10643,-0.91194 0.10643,1.39333 0.10643,-2.43235 0.21287,2.2552 0.10643,-0.32965 0.21286,-2.1027 0.10643,4.02902 0.10643,-4.68833 0.10644,5.67652 0.10643,-8.59027 0.10643,5.72659 0.10643,-1.72298 0.10643,0.10167 0.10643,-0.76021 0.3193,4.25701 0.10643,-3.54764 0.10643,0.0254 0.10643,1.44416 0.10644,-1.79923 0.21286,0.30424 0.21286,-0.38049 0.10643,1.47035 0.10643,-2.40771 0.10644,2.0018 0.10643,-3.11631 0.10643,3.8511 0.21286,-1.64673 0.21287,1.57125 0.10643,-0.40591 0.10643,-1.64673 0.10643,1.26702 0.10643,-2.58486 0.10643,5.37228 0.10644,-6.15791 0.10643,0.40591 0.10643,2.76201 0.21286,-2.00257 0.10643,2.53402 0.10644,-1.01361 0.10643,0.98819 0.10643,-0.22798 0.21286,0.27882 0.21287,1.06444 0.10643,-0.22798 0.10643,0.22798 0.10643,-1.72298 0.10643,1.06444 0.10643,-1.08986 0.10644,0.12709 0.10643,-0.38049 0.21286,1.41875 0.10643,-0.81028 0.10643,0.68396 0.21287,-2.40771 0.10643,5.24597 0.10643,-2.63569 0.10643,1.7484 0.10643,-1.7484 0.10644,0.0254 0.10643,0.35508 0.10643,-1.72376 0.10643,1.7484 0.10643,-2.45777 0.10644,1.1407 0.10643,-0.8873 0.10643,1.21618 0.10643,-0.27805 0.10643,0.50604 0.10643,-1.0891 0.10644,0.12632 0.10643,-0.30347 0.10643,0.30347 0.10643,-1.21618 0.10643,2.20437 0.21286,-1.26701 0.10644,0.60847 0.10643,-4.20617 0.10643,6.00541 0.10643,-2.68576 0.10643,1.16534 0.10643,-0.58305 0.10644,0.2534 0.10643,-0.40514 0.10643,0.76021 0.10643,-1.14069 0.10643,1.21617 0.10643,-0.50603 0.10644,0.6077 0.21286,-0.10167 0.10643,0.55764 0.10643,-0.73479 0.10643,1.6475 0.10644,-2.35687 0.10643,2.17895 0.10643,-1.82388 0.10643,0.93736 0.21286,-0.27882 0.10644,-1.64673 0.10643,1.19076 0.10643,-1.29243 0.10643,2.15354 0.10643,-0.9882 0.10643,2.58486 0.10644,-3.72478 0.10643,3.54763 0.10643,-1.92632 0.21286,3.1425 0.21287,-3.54764 0.10643,-0.20256 0.10643,0.40513 0.10643,-0.91194 0.10643,1.01361 0.21287,-0.86187 0.31929,1.11527 0.10643,-1.59666 0.10643,6.15791 0.21287,-4.66292 0.10643,-0.68395 0.10643,1.01361 0.21286,-1.01361 0.10644,-0.88729 0.21286,0.78562 0.10643,-0.2534 0.10643,-1.03903 0.10643,3.49757 0.10644,-3.3959 0.10643,0.0508 0.10643,2.10271 0.10643,-2.60951 0.10643,3.11631 0.10643,-2.40694 0.10644,1.44417 0.10643,-0.50681 0.10643,1.6475 0.10643,-1.79923 0.10643,1.16534 0.10643,-0.63312 0.10644,1.44416 0.21286,-1.87471 0.10643,1.1145 0.10643,-1.97638 0.10643,0.45597 0.10644,-0.83646 0.10643,2.86368 0.10643,-6.53763 0.10643,4.7384 0.10643,-0.83569 0.10643,0.1009 0.21287,1.54583 0.10643,-0.88653 0.10643,3.2434 0.10643,-3.09166 0.10643,0.53222 0.10644,4.81465 0.21286,-5.52402 0.10643,1.06367 0.10643,-0.0501 0.10643,-0.25341 0.10644,0.20257 0.10643,0.98819 0.21286,-2.48319 0.10643,0.27882 0.21287,-2.58486 0.10643,3.72479 0.10643,-0.22799 0.21286,-1.54583 0.10643,3.37049 0.10644,-1.54584 0.10643,2.93916 0.21286,-3.16714 0.10643,1.01361 0.10643,-0.20257 0.10644,-1.82465 0.10643,1.67215 0.31929,-1.16535 0.10643,1.57125 0.10644,-0.98819 0.10643,0.55687 0.10643,-0.0254 0.10643,-0.3543 0.3193,1.54583 0.10643,-0.7602 0.10643,0.8611 0.10643,-0.83569 0.10643,2.38152 0.10643,-4.78922 0.10644,1.92555 0.10643,-1.36792 0.10643,0.22799 0.10643,1.97638 0.10643,-4.28242 0.10643,3.34507 0.10644,-0.10167 0.10643,0.0762 0.10643,-0.27882 0.10643,1.46958 0.10643,-1.08909 0.10643,3.01541 0.10644,-5.82826 0.21286,4.23159 0.10643,-3.44596 0.10643,0.96277 0.10643,-0.48138 0.10644,-1.495 0.10643,1.7484 0.10643,-0.20257 0.21286,3.72479 0.10643,-1.54584 0.10644,0.37972 0.21286,-0.70937 0.10643,-0.3543 0.10643,1.69756 0.10643,-1.46958 0.10644,0.0501 0.10643,-0.3543 0.21286,0.48138 0.10643,0.96278 0.10644,-1.59667 0.10643,0.65931 0.21286,-0.58306 0.21286,1.97639 0.21287,-3.69937 0.10643,1.95097 0.10643,-0.98819 0.10643,2.20437 0.10643,-1.26701 0.10643,3.11708 0.10644,-2.68576 0.10643,3.29423 0.21286,-3.67472 0.10643,-0.37972 0.10643,0.2534 0.10644,-0.10167 0.10643,-0.78562 0.10643,1.19153 0.10643,-0.76021 0.10643,2.17896 0.10643,-3.82646 0.10644,4.3841 0.10643,-2.20514 0.10643,0.98896 0.31929,-2.10347 0.21287,1.41874 0.21286,-0.7602 0.3193,-2.50861 0.21286,2.53402 0.10643,-1.06444 0.10643,0.60847 0.10643,2.10347 0.10644,-0.78562 0.10643,1.19076 0.21286,-1.13993 0.10643,0.30347 0.10643,-0.81027 0.10644,0.65854 0.10643,-1.2416 0.10643,0.50681 0.10643,-0.0508 0.10643,0.63389 0.10643,-1.14069 0.21287,1.95097 0.10643,0.27881 0.10643,-1.31784 0.10643,0.98896 0.10644,-0.12709 0.21286,-0.55764 0.10643,2.58486 0.10643,-2.93916 0.21286,1.54584 0.10644,-1.62209 0.10643,0.96278 0.10643,-1.97639 0.10643,1.57125 0.10643,-2.33146 0.10643,1.95097 0.10644,-0.45597 0.10643,0.68396 0.10643,-0.2534 0.21286,0.35507 0.10643,0.63312 0.10644,-3.62312 0.10643,5.29604 0.21286,-3.19334 0.10643,1.47035 0.10643,-2.5086 0.10644,0.43055 0.10643,1.92555 0.10643,-3.95277 0.10643,0.83646 0.10643,2.78743 0.10643,-0.35508 0.3193,0.12632 0.10643,0.58306 0.10643,-0.1009 0.10643,-1.495 0.10644,3.19256 0.31929,-2.2552 0.10643,-0.76021 0.10643,1.97639 0.10644,-1.67215 0.10643,0.40513 0.10643,-0.0762 0.10643,0.10167 0.10643,0.50681 0.10643,-0.63389 0.10644,0.30423 0.10643,-0.12631 0.10643,0.48138 0.10643,1.5959 0.21286,-3.64853 0.10644,3.95277 0.10643,-2.96458 0.10643,1.90013 0.10643,-1.77381 0.10643,0.27882 0.10643,2.28062 0.10644,-3.52222 0.31929,1.67292 0.10643,-1.31785 0.10643,0.93736 0.10644,-0.86111 0.10643,1.08909 0.10643,-3.19256 0.10643,4.66215 0.10643,-1.87472 0.10643,1.57125 0.10644,-1.95174 0.10643,0.63389 0.10643,-1.7484 0.10643,1.54583 0.10643,-0.60847 0.10643,2.30604 0.10644,-1.69757 0.10643,0.60771 0.10643,-1.46958 0.21286,2.22978 0.10643,-1.24159 0.10644,0.68396 0.31929,-1.3425 0.10643,1.29243 0.10643,-0.58306 0.10644,1.7484 0.10643,-2.33145 0.21286,2.61027 0.10643,-4.63749 0.21287,1.97638 0.10643,0.25341 0.10643,-1.19076 0.10643,2.30603 0.10643,-1.69756 0.10643,2.07805 0.21287,-2.38229 0.21286,2.12889 0.10643,-0.83646 0.10643,1.54583 0.10644,-2.1543 0.21286,1.11528 0.10643,-1.495 0.10643,0.91194 0.10643,-0.98819 0.10644,1.52041 0.10643,-1.67215 0.10643,0.68396 0.10643,-0.73479 0.10643,0.27882 0.21287,1.36791 0.10643,-1.82388 0.10643,1.06367 0.10643,-1.49499 0.10643,2.58485 0.10643,-1.95096 0.10644,0.5068 0.10643,2.22979 0.21286,-3.34507 0.21286,1.44417 0.10644,-1.13993 0.10643,1.77382 0.10643,-2.10347 0.10643,1.01361 0.10643,-0.50681 0.3193,2.68653 0.10643,-1.7484 0.10643,1.97638 0.10643,-1.29243 0.10643,1.54584 0.10644,-0.15251 0.10643,-2.83749 0.10643,1.21618 0.10643,-0.86188 0.10643,0.70938 0.10643,-0.20257 0.10644,3.34506 0.10643,-4.30784 0.10643,1.08986 0.10643,-1.9009 0.10643,2.71118 0.10643,-1.01361 0.10644,0.63389 0.10643,-0.15174 0.10643,-0.58305 0.10643,0.96277 0.10643,-1.16534 0.10643,0.53222 0.10644,-0.53222 0.10643,0.98819 0.31929,-1.72298 0.10643,0.96277 0.10644,-4.02902 0.10643,3.4968 0.10643,-1.21618 0.10643,1.67215 0.10643,-2.58486 0.10643,0.83646 0.10644,2.86368 0.10643,-2.66111 0.21286,2.17972 0.10643,-0.68472 0.10643,-2.88833 0.10644,3.95277 0.10643,-0.83646 0.10643,0.86188 0.21286,-1.26701 0.10643,0.0508 0.10644,1.13993 0.10643,-0.73479 0.10643,0.20257 0.10643,0.83645 0.10643,-1.06444 0.10643,0.32965 0.10644,0.83646 0.10643,-0.17792 0.10643,0.9882 0.21286,-1.79847 0.10643,1.16534 0.10644,-1.67214 0.10643,1.69756 0.10643,-0.68395 0.10643,1.06367 0.21286,-1.19076 0.10644,1.34326 0.10643,-1.34326 0.10643,0.17715 0.10643,1.36868 0.21286,-3.01541 0.10644,1.72298 0.10643,-1.08986 0.10643,2.17972 0.10643,-2.30604 0.10643,2.02722 0.10643,-1.39409 0.10644,1.52041 0.10643,-1.57048 0.10643,0.63312 0.10643,-4.23159 0.10643,2.83826 0.10643,-0.63389 0.21287,0.98819 0.10643,-0.91194 0.10643,2.05264 0.10643,-3.3959 0.10643,2.58486 0.21287,-2.33146 0.21286,4.8909 0.10643,-2.12889 0.21287,2.53403 0.10643,-2.76201 0.10643,0.65854 0.10643,-0.12632 0.21286,-0.78563 0.10643,0.40514 0.10644,-2.1027 0.10643,2.12812 0.10643,-0.45597 0.10643,2.17895 0.10643,-2.17895 0.10643,0.81104 0.10644,-0.50681 0.10643,0.86188 0.21286,-0.27882 0.10643,1.82388 0.10643,-2.58409 0.10644,3.16715 0.21286,-3.01541 0.10643,-0.0254 0.10643,0.5068 0.10643,-2.71117 0.10644,2.63492 0.10643,-1.7484 0.42572,2.30604 0.21287,-1.39333 0.10643,2.48319 0.10643,-2.73659 0.10643,1.7484 0.10643,-2.76201 0.21287,1.67215 0.10643,-2.07805 0.10643,1.21694 0.10643,-0.0763 0.10643,0.15174 0.10644,-0.65854 0.10643,-1.57125 0.10643,4.33326 0.10643,-0.12709 0.10643,-0.43055 0.10643,1.92555 0.21287,-2.30527 0.10643,0.15173 0.10643,-0.65854 0.10643,1.52042 0.10643,-1.87549 0.10644,1.01361 0.31929,-3.34506 0.10643,2.73659 0.10643,-1.72298 0.10644,1.54583 0.10643,-1.39333 0.31929,3.8511 0.10643,-2.66034 0.21287,3.90194 0.10643,-4.38333 0.10643,1.77382 0.21286,-1.21618 0.10644,-0.58306 0.10643,0.30424 0.10643,-0.22798 0.10643,0.48138 0.10643,-1.36868 0.21287,1.34327 0.10643,0.81104 0.10643,-0.10167 0.21286,-0.55764 0.21287,3.62389 0.21286,-3.77562 0.10643,1.57125 0.10643,-3.70014 0.10643,1.52041 0.10644,-0.70937 0.10643,0.12709 0.10643,2.76201 0.10643,-3.01542 0.21286,2.68576 0.10644,0.40514 0.10643,-0.78563 0.10643,-1.77304 0.10643,2.73659 0.10643,-3.1425 0.21287,2.30604 0.21286,-1.72298 0.10643,2.83826 0.10643,-3.62389 0.3193,1.13993 0.10643,0.10167 0.10643,-0.63312 0.10643,1.92555 0.10643,-1.57125 0.10644,1.82465 0.10643,-0.76021 0.10643,2.25521 0.21286,-3.62389 0.21287,1.79923 0.21286,-1.92555 0.21286,1.3425 0.10643,-1.82388 0.10644,2.40693 0.10643,-0.3543 0.10643,-0.86187 0.10643,0.60847 0.10643,-0.55764 0.10643,1.11451 0.21287,-1.01361 0.10643,-0.55687 0.10643,3.31888 0.21286,-2.73659 0.10644,-0.88653 0.10643,1.69757 0.10643,-1.79923 0.10643,0.10166 0.10643,2.68576 0.10643,-2.15353 0.21287,1.7484 0.21286,-2.43313 0.10643,1.1407 0.10643,-2.61028 0.3193,4.78923 0.10643,-1.2416 0.21286,3.1425 0.21287,-3.72555 0.10643,1.9009 0.10643,-2.58486 0.21286,1.59667 0.10644,-2.63569 0.10643,2.45854 0.10643,-1.16612 0.10643,1.57125 0.10643,-2.96457 0.10643,0.65853 0.10644,1.87549 0.10643,-0.10167 0.10643,-0.63312 0.10643,0.50681 0.21287,-0.8873 0.10643,3.06625 0.10643,-3.26882 0.10643,1.03903 0.10643,-0.96277 0.10643,2.66034 0.10643,-3.39513 0.10644,2.02645 0.10643,-1.57048 0.10643,0.88652 0.10643,-1.36791 0.10643,0.81027 0.10644,-3.39513 0.21286,3.54763 0.10643,-1.41951 0.21286,2.50861 0.10643,-0.81028 0.10644,-2.1543 0.21286,2.81284 0.21286,0.86188 0.21287,-3.11708 0.10643,1.24159 0.21286,-1.06444 0.10643,0.78562 0.10643,1.97639 0.10644,-0.58229 0.10643,1.82388 0.10643,-1.64673 0.21286,0.68396 0.10643,-1.39333 0.10644,1.82388 0.10643,-4.05367 0.10643,5.11811 0.10643,-3.59769 0.10643,1.26701 0.10643,-0.30424 0.10644,1.16534 0.10643,-0.45597 0.10643,0.37972 0.21286,-1.79846 0.10643,1.29166 0.10644,-1.08909 0.21286,0.70937 0.10643,-0.10167 0.10643,-0.76021 0.10643,1.92632 0.10644,-0.93812 0.10643,0.86187 0.21286,-1.67215 0.10643,0.0501 0.10643,0.81104 0.10644,-0.30424 0.10643,0.32966 0.10643,-0.96278 0.10643,0.68396 0.10643,-0.48139 0.10643,0.65931 0.10644,-0.35507 0.10643,-1.19076 0.10643,1.26701 0.10643,-0.78563 0.10643,1.01361 0.10643,-2.30604 0.10644,2.66035 0.10643,-2.12812 0.21286,3.01541 0.3193,-3.06625 0.10643,1.06445 0.10643,-0.86188 0.10643,3.04083 0.10643,-2.22979 0.10643,1.36868 0.10644,-1.72375 0.10643,0.60847 0.10643,1.52042 0.10643,-1.36868 0.21286,0.58305 0.10644,-0.2534 0.21286,-1.13992 0.10643,-0.30424 0.21286,0.76021 0.21287,-0.32966 0.10643,-0.17715 0.10643,0.0508 0.10643,0.88652 0.10643,-0.81104 0.10644,1.21618 0.10643,-1.46958 0.10643,2.28062 0.10643,-1.13993 0.10643,0.45597 0.10643,-0.12708 0.10644,0.22875 0.10643,-0.32965 0.10643,-2.22979 0.10643,4.3579 0.10643,-3.49679 0.10643,1.54583 0.10644,-2.63493 0.10643,3.16715 0.10643,-2.81284 0.10643,1.26701 0.10643,2.83826 0.10644,-3.7502 0.21286,2.63492 0.10643,-1.26701 0.10643,0.76021 0.10643,1.69833 0.21287,-1.52041 0.10643,1.82388 0.21286,-4.12992 0.10643,1.11451 0.10643,-1.31708 0.10644,2.78743 0.10643,-1.26702 0.10643,0.81028 0.10643,-1.39333 0.10643,1.82465 0.10643,-0.93813 0.10644,0.68473 0.10643,-0.71015 0.10643,0.40591 0.10643,-3.2434 0.10643,1.01361 0.10643,4.61131 0.21287,-4.58589 0.21286,4.3579 0.10643,-5.57485 0.21287,3.3959 0.10643,-2.43235 0.10643,2.0018 0.10643,-0.12709 0.10643,-2.5086 0.10643,4.05443 0.10644,-1.64673 0.10643,0.1009 0.21286,1.26701 0.10643,0.0254 0.10643,-0.93736 0.10644,-4.38409 0.10643,2.66111 0.10643,-0.32965 0.10643,0.63312 0.10643,-0.0247 0.10643,-1.49577 0.10644,3.1425 0.10643,-1.01361 0.21286,1.67215 0.10643,-1.39333 0.10643,1.03903 0.10644,-1.41952 0.10643,2.15431 0.10643,-1.95097 0.10643,2.83749 0.10643,-4.07908 0.21287,2.63492 0.10643,0.32965 0.21286,-1.85007 0.3193,0.76021 0.10643,-0.81104 0.10643,1.7484 0.10643,-1.5959 0.10643,0.55687 0.21287,3.42132 0.10643,-3.3959 0.10643,2.76201 0.10643,-2.12812 0.10643,0.76021 0.10643,-0.20257 0.10644,0.43055 0.10643,-4.73839 0.10643,3.29423 0.21286,-2.86368 0.21287,2.28062 0.21286,-0.32965 0.10643,2.66111 0.10643,-2.0018 0.10643,0.30347 0.10644,-0.12632 0.10643,1.7484 0.10643,-2.58486 0.10643,1.57125 0.10643,-0.86188 0.10643,-2.66034 0.21287,1.97639 0.10643,0.22798 0.10643,-0.78562 0.10643,2.78742 0.10643,-2.68575 0.21287,3.24339 0.10643,-1.54583 0.42573,1.19076 0.10643,-0.3543 0.10643,0.73479 0.10643,-2.35687 0.21286,0.78562 0.10644,-0.0508 0.10643,-0.0755 0.10643,-2.38229 0.21286,2.10347 0.10643,3.62311 0.10644,-3.54686 0.10643,0.96277 0.10643,-0.7602 0.10643,2.30604 0.10643,-2.58486 0.10643,3.54763 0.21287,-4.30784 0.10643,1.79923 0.10643,-2.02722 0.21286,1.69757 0.10644,-3.57305 0.10643,3.16791 0.10643,-0.55764 0.10643,0.53223 0.10643,2.53402 0.10643,-3.59847 0.10644,2.05264 0.10643,-3.37048 0.10643,3.72478 0.10643,-0.53145 0.10643,0.15173 0.10643,-2.55944 0.21287,1.34326 0.10643,-0.96277 0.10643,-4.05444 0.42573,7.65214 0.10643,-3.2434 0.10643,2.0018 0.10643,-2.6095 0.10643,2.66034 0.21287,-0.73479 0.10643,-0.0508 0.10643,-2.07805 0.10643,2.55944 0.10643,-0.2534 0.10644,0.45597 0.10643,-1.52042 0.10643,0.30424 0.21286,0.83646 0.10643,3.7502 0.21287,-5.09347 0.10643,1.95097 0.10643,-2.68576 0.10643,1.59667 0.10643,-1.69756 0.10644,2.20437 0.10643,-0.0254 0.10643,1.29243 0.21286,-2.50861 0.10643,0.63312 0.10644,-0.20257 0.10643,1.01361 0.10643,-2.10347 0.10643,2.99 0.3193,-4.28166 0.10643,4.61131 0.10643,-4.15534 0.21286,2.33069 0.10643,-1.46958 0.10644,1.6475 0.10643,-0.48139 0.21286,-2.22978 0.10643,5.95457 0.3193,-4.51041 0.10643,2.07728 0.31929,-1.16534 0.10644,-0.43055 0.10643,0.20256 0.10643,-0.0508 0.10643,0.17792 0.10643,-1.01361 0.21287,0.93736 0.10643,-0.17715 0.10643,0 0.10643,1.77305 0.10643,-2.02645 0.10643,2.68575 0.10644,-3.92735 0.10643,0.3543 0.10643,-0.43055 0.10643,2.33146 0.10643,-0.27882 0.10643,0.0755 0.10644,1.59666 0.10643,-2.96457 0.10643,0.2534 0.10643,0.6077 0.10643,-0.17715 0.10643,-1.11528 0.10644,2.96535 0.10643,-2.66111 0.10643,0.12709 0.21286,2.17895 0.10643,-0.48139 0.10644,0.0254 0.21286,-0.68396 0.10643,-0.38049 0.10643,0.45598 0.10643,-0.12632 0.21287,-1.62208 0.10643,-0.88653 0.21286,1.64673 0.10643,0.68473 0.10644,-2.55944 0.10643,0.81104 0.21286,2.98999 0.10643,0.1009 0.21287,0.68396 0.10643,-3.5977 0.21286,2.22979 0.21286,-1.52042 0.10644,1.29243 0.10643,-1.59667 0.10643,1.79924 0.10643,-1.69757 0.10643,0.9882 0.10643,-0.20257 0.10643,0.78562 0.10644,-0.0508 0.10643,-1.36868 0.21286,4.05444 0.21287,-4.3841 0.10643,1.01361 0.10643,-0.55687 0.10643,0.93736 0.10643,-1.52041 0.10643,1.82465 0.10643,-2.40771 0.21287,2.71195 0.10643,-1.95174 0.10643,0.35507 0.3193,2.07805 0.10643,-2.5086 0.21286,2.55867 0.10643,-2.38152 0.10643,2.48319 0.10644,-1.90014 0.10643,0.68396 0.10643,-0.78563 0.10643,0.40514 0.10643,-2.15354 0.21287,1.7484 0.10643,-0.91194 0.10643,2.00181 0.10643,-3.82646 0.21286,5.09347 0.21287,-2.23056 0.10643,2.17972 0.10643,-2.1543 0.10643,1.36868 0.10644,-0.65854 0.10643,0.20257 0.10643,-0.17792 0.10643,-0.88653 0.10643,1.62209 0.10643,-0.22876 0,0"
           style="fill:none;stroke:#1f77b4;stroke-width:0.5;stroke-linecap:square;stroke-linejoin:round;stroke-miterlimit:10;stroke-dasharray:none;stroke-opacity:1"
           id="path7068"
           inkscape:connector-curvature="0" /></g></g><g
       id="g7070"><g
         id="g7072"
         clip-path="url(#clipPath7074)"><path
           d="m 94.043234,41.892864 0.745022,41.133816 0.745022,30.15 0.745021,22.09916 0.745022,16.1981 0.745022,11.87279 0.745021,8.70243 0.745022,6.37866 0.745024,4.67539 0.74502,3.42693 0.74502,2.51186 0.74502,1.84112 0.85146,1.51029 0.85145,1.05895 0.95788,0.81811 1.06432,0.59724 1.27718,0.44145 1.59648,0.30513 2.34149,0.20109 4.25727,0.10093 15.64545,0.0206 202.22016,3e-5 0,0"
           style="fill:none;stroke:#ff0000;stroke-width:0.5;stroke-linecap:square;stroke-linejoin:round;stroke-miterlimit:10;stroke-dasharray:none;stroke-opacity:1"
           id="path7078"
           inkscape:connector-curvature="0" /></g></g><g
       id="g7080"><g
         id="g7082"
         clip-path="url(#clipPath7084)"><path
           d="m 96.570912,139.24332 c 0.795609,0 1.55874,0.31609 2.121321,0.87867 0.56258,0.56259 0.878679,1.32572 0.878679,2.12133 0,0.7956 -0.316099,1.55873 -0.878679,2.12132 -0.562581,0.56258 -1.325712,0.87868 -2.121321,0.87868 -0.795609,0 -1.558739,-0.3161 -2.12132,-0.87868 -0.562581,-0.56259 -0.87868,-1.32572 -0.87868,-2.12132 0,-0.79561 0.316099,-1.55874 0.87868,-2.12133 0.562581,-0.56258 1.325711,-0.87867 2.12132,-0.87867 z"
           style="fill:#dc143c;fill-opacity:1;fill-rule:nonzero;stroke:#dc143c;stroke-width:1;stroke-linecap:butt;stroke-linejoin:round;stroke-miterlimit:10;stroke-dasharray:none;stroke-opacity:1"
           id="path7088"
           inkscape:connector-curvature="0" /></g></g><g
       id="g7090"><g
         id="g7092"
         clip-path="url(#clipPath7094)"><g
           id="g7098"
           transform="translate(77.04,61.92)"><g
             id="g7100"><g
               id="g7102"
               clip-path="url(#clipPath7104)"><path
                 d="m 0,-3.5 c 0.928211,0 1.81853,0.368782 2.474874,1.025126 C 3.131218,-1.81853 3.5,-0.928211 3.5,0 3.5,0.928211 3.131218,1.81853 2.474874,2.474874 1.81853,3.131218 0.928211,3.5 0,3.5 -0.928211,3.5 -1.81853,3.131218 -2.474874,2.474874 -3.131218,1.81853 -3.5,0.928211 -3.5,0 c 0,-0.928211 0.368782,-1.81853 1.025126,-2.474874 C -1.81853,-3.131218 -0.928211,-3.5 0,-3.5 Z"
                 style="fill:#ffffff;fill-opacity:0.5;fill-rule:nonzero;stroke:#000000;stroke-width:1;stroke-linecap:butt;stroke-linejoin:round;stroke-miterlimit:10;stroke-dasharray:none;stroke-opacity:0.5"
                 id="path7108"
                 inkscape:connector-curvature="0" /></g></g><g
             id="g7110"
             transform="translate(38.88,0)"><g
               id="g7112"><g
                 id="g7114"
                 clip-path="url(#clipPath7116)"><path
                   d="m 0,-3.5 c 0.928211,0 1.81853,0.368782 2.474874,1.025126 C 3.131218,-1.81853 3.5,-0.928211 3.5,0 3.5,0.928211 3.131218,1.81853 2.474874,2.474874 1.81853,3.131218 0.928211,3.5 0,3.5 -0.928211,3.5 -1.81853,3.131218 -2.474874,2.474874 -3.131218,1.81853 -3.5,0.928211 -3.5,0 c 0,-0.928211 0.368782,-1.81853 1.025126,-2.474874 C -1.81853,-3.131218 -0.928211,-3.5 0,-3.5 Z"
                   style="fill:#ffffff;fill-opacity:0.5;fill-rule:nonzero;stroke:#000000;stroke-width:1;stroke-linecap:butt;stroke-linejoin:round;stroke-miterlimit:10;stroke-dasharray:none;stroke-opacity:0.5"
                   id="path7120"
                   inkscape:connector-curvature="0" /></g></g><g
               id="g7122"
               transform="translate(0,82.08)"><g
                 id="g7124"><g
                   id="g7126"
                   clip-path="url(#clipPath7128)"><path
                     d="m 0,-3.5 c 0.928211,0 1.81853,0.368782 2.474874,1.025126 C 3.131218,-1.81853 3.5,-0.928211 3.5,0 3.5,0.928211 3.131218,1.81853 2.474874,2.474874 1.81853,3.131218 0.928211,3.5 0,3.5 -0.928211,3.5 -1.81853,3.131218 -2.474874,2.474874 -3.131218,1.81853 -3.5,0.928211 -3.5,0 c 0,-0.928211 0.368782,-1.81853 1.025126,-2.474874 C -1.81853,-3.131218 -0.928211,-3.5 0,-3.5 Z"
                     style="fill:#ffffff;fill-opacity:0.5;fill-rule:nonzero;stroke:#000000;stroke-width:1;stroke-linecap:butt;stroke-linejoin:round;stroke-miterlimit:10;stroke-dasharray:none;stroke-opacity:0.5"
                     id="path7132"
                     inkscape:connector-curvature="0" /></g></g><g
                 id="g7134"
                 transform="translate(-38.88,0)"><g
                   id="g7136"><g
                     id="g7138"
                     clip-path="url(#clipPath7140)"><path
                       d="m 0,-3.5 c 0.928211,0 1.81853,0.368782 2.474874,1.025126 C 3.131218,-1.81853 3.5,-0.928211 3.5,0 3.5,0.928211 3.131218,1.81853 2.474874,2.474874 1.81853,3.131218 0.928211,3.5 0,3.5 -0.928211,3.5 -1.81853,3.131218 -2.474874,2.474874 -3.131218,1.81853 -3.5,0.928211 -3.5,0 c 0,-0.928211 0.368782,-1.81853 1.025126,-2.474874 C -1.81853,-3.131218 -0.928211,-3.5 0,-3.5 Z"
                       style="fill:#ffffff;fill-opacity:0.5;fill-rule:nonzero;stroke:#000000;stroke-width:1;stroke-linecap:butt;stroke-linejoin:round;stroke-miterlimit:10;stroke-dasharray:none;stroke-opacity:0.5"
                       id="path7144"
                       inkscape:connector-curvature="0" /></g></g></g></g></g></g></g></g><g
       id="g7146"><g
         id="g7148"
         clip-path="url(#clipPath7150)"><g
           id="g7154"
           transform="translate(77.04,102.96)"><g
             id="g7156"><g
               id="g7158"
               clip-path="url(#clipPath7160)"><path
                 d="m -3.5,-3.5 7,0 0,7 -7,0 0,-7 z"
                 style="fill:#ffffff;fill-opacity:0.5;fill-rule:nonzero;stroke:#000000;stroke-width:1;stroke-linecap:butt;stroke-linejoin:miter;stroke-miterlimit:10;stroke-dasharray:none;stroke-opacity:0.5"
                 id="path7164"
                 inkscape:connector-curvature="0" /></g></g><g
             id="g7166"
             transform="translate(19.44,-41.04)"><g
               id="g7168"><g
                 id="g7170"
                 clip-path="url(#clipPath7172)"><path
                   d="m -3.5,-3.5 7,0 0,7 -7,0 0,-7 z"
                   style="fill:#ffffff;fill-opacity:0.5;fill-rule:nonzero;stroke:#000000;stroke-width:1;stroke-linecap:butt;stroke-linejoin:miter;stroke-miterlimit:10;stroke-dasharray:none;stroke-opacity:0.5"
                   id="path7176"
                   inkscape:connector-curvature="0" /></g></g><g
               id="g7178"
               transform="translate(19.44,41.04)"><g
                 id="g7180"><g
                   id="g7182"
                   clip-path="url(#clipPath7184)"><path
                     d="m -3.5,-3.5 7,0 0,7 -7,0 0,-7 z"
                     style="fill:#ffffff;fill-opacity:0.5;fill-rule:nonzero;stroke:#000000;stroke-width:1;stroke-linecap:butt;stroke-linejoin:miter;stroke-miterlimit:10;stroke-dasharray:none;stroke-opacity:0.5"
                     id="path7188"
                     inkscape:connector-curvature="0" /></g></g><g
                 id="g7190"
                 transform="translate(-19.44,41.04)"><g
                   id="g7192"><g
                     id="g7194"
                     clip-path="url(#clipPath7196)"><path
                       d="m -3.5,-3.5 7,0 0,7 -7,0 0,-7 z"
                       style="fill:#ffffff;fill-opacity:0.5;fill-rule:nonzero;stroke:#000000;stroke-width:1;stroke-linecap:butt;stroke-linejoin:miter;stroke-miterlimit:10;stroke-dasharray:none;stroke-opacity:0.5"
                       id="path7200"
                       inkscape:connector-curvature="0" /></g></g></g></g></g></g></g></g><g
       id="g7202"><g
         id="g7204"
         clip-path="url(#clipPath7206)"><path
           d="m 92.98,99.46 7,0 0,7 -7,0 0,-7 z"
           style="fill:#ffffff;fill-opacity:0.5;fill-rule:nonzero;stroke:#000000;stroke-width:1;stroke-linecap:butt;stroke-linejoin:miter;stroke-miterlimit:10;stroke-dasharray:none;stroke-opacity:0.5"
           id="path7210"
           inkscape:connector-curvature="0" /></g></g><g
       id="g7212"><path
         d="m 54.11,41.892864 0,169.448446"
         style="fill:none;stroke:#000000;stroke-width:0.80000001;stroke-linecap:square;stroke-linejoin:miter;stroke-miterlimit:10;stroke-dasharray:none;stroke-opacity:1"
         id="path7214"
         inkscape:connector-curvature="0" /><path
         d="m 346.68,41.892864 0,169.448446"
         style="fill:none;stroke:#000000;stroke-width:0.80000001;stroke-linecap:square;stroke-linejoin:miter;stroke-miterlimit:10;stroke-dasharray:none;stroke-opacity:1"
         id="path7216"
         inkscape:connector-curvature="0" /><path
         d="m 54.11,41.892864 292.57,0"
         style="fill:none;stroke:#000000;stroke-width:0.80000001;stroke-linecap:square;stroke-linejoin:miter;stroke-miterlimit:10;stroke-dasharray:none;stroke-opacity:1"
         id="path7218"
         inkscape:connector-curvature="0" /><path
         d="m 54.11,211.34131 292.57,0"
         style="fill:none;stroke:#000000;stroke-width:0.80000001;stroke-linecap:square;stroke-linejoin:miter;stroke-miterlimit:10;stroke-dasharray:none;stroke-opacity:1"
         id="path7220"
         inkscape:connector-curvature="0" /><text
         transform="matrix(1,0,0,-1,117.85724,153.43394)"
         style="font-variant:normal;font-weight:normal;font-size:10px;font-family:'DejaVu Sans';-inkscape-font-specification:DejaVuSans;writing-mode:lr-tb;fill:#000000;fill-opacity:1;fill-rule:nonzero;stroke:none"
         id="text7222"><tspan
           x="0 3.9200001 10.05 16.389999 19.57 27.950001 31.129999 37.490002 40.669998 47.029999 53.389999 59.75 66.110001 72.470001 78.830002 84.980003 88.589996 94.949997"
           y="0"
           sodipodi:role="line"
           id="tspan7224">tau = 9.013490e-05</tspan></text>
<text
         transform="matrix(1,0,0,-1,117.85724,142.24332)"
         style="font-variant:normal;font-weight:normal;font-size:10px;font-family:'DejaVu Sans';-inkscape-font-specification:DejaVuSans;writing-mode:lr-tb;fill:#000000;fill-opacity:1;fill-rule:nonzero;stroke:none"
         id="text7226"><tspan
           x="0 5.5 8.6800003 17.059999 20.24 26.6 29.780001 36.139999 42.5 48.860001 55.220001 61.580002 67.940002 74.089996 77.699997 84.059998"
           y="0"
           sodipodi:role="line"
           id="tspan7228">c = 8.900454e-11</tspan></text>
</g></g></svg>