<?xml version="1.0" encoding="UTF-8" standalone="no"?>
<!-- Created with Inkscape (http://www.inkscape.org/) -->

<svg
   xmlns:dc="http://purl.org/dc/elements/1.1/"
   xmlns:cc="http://creativecommons.org/ns#"
   xmlns:rdf="http://www.w3.org/1999/02/22-rdf-syntax-ns#"
   xmlns:svg="http://www.w3.org/2000/svg"
   xmlns="http://www.w3.org/2000/svg"
   xmlns:sodipodi="http://sodipodi.sourceforge.net/DTD/sodipodi-0.dtd"
   xmlns:inkscape="http://www.inkscape.org/namespaces/inkscape"
   id="svg4375"
   version="1.1"
   inkscape:version="0.91 r13725"
   xml:space="preserve"
   width="558"
   height="254.25"
   viewBox="0 0 558 254.25"
   sodipodi:docname="cap_with_dif_temp_and_load_shc320.pdf"><metadata
     id="metadata4381"><rdf:RDF><cc:Work
         rdf:about=""><dc:format>image/svg+xml</dc:format><dc:type
           rdf:resource="http://purl.org/dc/dcmitype/StillImage" /><dc:title></dc:title></cc:Work></rdf:RDF></metadata><defs
     id="defs4379"><clipPath
       clipPathUnits="userSpaceOnUse"
       id="clipPath4473"><path
         d="m 42.9375,30.34375 189.06446,0 0,169.55625 -189.06446,0 0,-169.55625 z"
         id="path4475"
         inkscape:connector-curvature="0" /></clipPath><clipPath
       clipPathUnits="userSpaceOnUse"
       id="clipPath4483"><path
         d="m 42.9375,30.34375 189.06446,0 0,169.55625 -189.06446,0 0,-169.55625 z"
         id="path4485"
         inkscape:connector-curvature="0" /></clipPath><clipPath
       clipPathUnits="userSpaceOnUse"
       id="clipPath4493"><path
         d="m 42.9375,30.34375 189.06446,0 0,169.55625 -189.06446,0 0,-169.55625 z"
         id="path4495"
         inkscape:connector-curvature="0" /></clipPath><clipPath
       clipPathUnits="userSpaceOnUse"
       id="clipPath4583"><path
         d="m 253.83554,30.34375 189.06446,0 0,169.55625 -189.06446,0 0,-169.55625 z"
         id="path4585"
         inkscape:connector-curvature="0" /></clipPath><clipPath
       clipPathUnits="userSpaceOnUse"
       id="clipPath4593"><path
         d="m 253.83554,30.34375 189.06446,0 0,169.55625 -189.06446,0 0,-169.55625 z"
         id="path4595"
         inkscape:connector-curvature="0" /></clipPath><clipPath
       clipPathUnits="userSpaceOnUse"
       id="clipPath4603"><path
         d="m 253.83554,30.34375 189.06446,0 0,169.55625 -189.06446,0 0,-169.55625 z"
         id="path4605"
         inkscape:connector-curvature="0" /></clipPath></defs><sodipodi:namedview
     pagecolor="#ffffff"
     bordercolor="#666666"
     borderopacity="1"
     objecttolerance="10"
     gridtolerance="10"
     guidetolerance="10"
     inkscape:pageopacity="0"
     inkscape:pageshadow="2"
     inkscape:window-width="1855"
     inkscape:window-height="1056"
     id="namedview4377"
     showgrid="false"
     inkscape:zoom="2.4623656"
     inkscape:cx="279"
     inkscape:cy="127.125"
     inkscape:window-x="65"
     inkscape:window-y="24"
     inkscape:window-maximized="1"
     inkscape:current-layer="g4383" /><g
     id="g4383"
     inkscape:groupmode="layer"
     inkscape:label="cap_with_dif_temp_and_load_shc320"
     transform="matrix(1.25,0,0,-1.25,0,254.25)"><path
       d="m 0,0 446.4,0 0,203.4 L 0,203.4 0,0 Z"
       style="fill:#ffffff;fill-opacity:1;fill-rule:nonzero;stroke:none"
       id="path4385"
       inkscape:connector-curvature="0" /><path
       d="m 42.9375,30.34375 189.06446,0 0,169.55625 -189.06446,0 0,-169.55625 z"
       style="fill:#ffffff;fill-opacity:1;fill-rule:nonzero;stroke:none"
       id="path4387"
       inkscape:connector-curvature="0" /><path
       d="m 43.418629,30.34375 0,-3.5"
       style="fill:#000000;fill-opacity:1;fill-rule:nonzero;stroke:#000000;stroke-width:0.80000001;stroke-linecap:butt;stroke-linejoin:round;stroke-miterlimit:10;stroke-dasharray:none;stroke-opacity:1"
       id="path4389"
       inkscape:connector-curvature="0" /><text
       transform="matrix(1,0,0,-1,35.465504,15.75)"
       style="font-variant:normal;font-weight:normal;font-size:10px;font-family:'DejaVu Sans';-inkscape-font-specification:DejaVuSans;writing-mode:lr-tb;fill:#000000;fill-opacity:1;fill-rule:nonzero;stroke:none"
       id="text4391"><tspan
         x="0 6.3600001 9.54"
         y="0"
         sodipodi:role="line"
         id="tspan4393">0.0</tspan></text>
<path
       d="m 83.98218,30.34375 0,-3.5"
       style="fill:#000000;fill-opacity:1;fill-rule:nonzero;stroke:#000000;stroke-width:0.80000001;stroke-linecap:butt;stroke-linejoin:round;stroke-miterlimit:10;stroke-dasharray:none;stroke-opacity:1"
       id="path4395"
       inkscape:connector-curvature="0" /><text
       transform="matrix(1,0,0,-1,76.029055,15.75)"
       style="font-variant:normal;font-weight:normal;font-size:10px;font-family:'DejaVu Sans';-inkscape-font-specification:DejaVuSans;writing-mode:lr-tb;fill:#000000;fill-opacity:1;fill-rule:nonzero;stroke:none"
       id="text4397"><tspan
         x="0 6.3600001 9.54"
         y="0"
         sodipodi:role="line"
         id="tspan4399">0.5</tspan></text>
<path
       d="m 124.54573,30.34375 0,-3.5"
       style="fill:#000000;fill-opacity:1;fill-rule:nonzero;stroke:#000000;stroke-width:0.80000001;stroke-linecap:butt;stroke-linejoin:round;stroke-miterlimit:10;stroke-dasharray:none;stroke-opacity:1"
       id="path4401"
       inkscape:connector-curvature="0" /><text
       transform="matrix(1,0,0,-1,116.59261,15.75)"
       style="font-variant:normal;font-weight:normal;font-size:10px;font-family:'DejaVu Sans';-inkscape-font-specification:DejaVuSans;writing-mode:lr-tb;fill:#000000;fill-opacity:1;fill-rule:nonzero;stroke:none"
       id="text4403"><tspan
         x="0 6.3600001 9.54"
         y="0"
         sodipodi:role="line"
         id="tspan4405">1.0</tspan></text>
<path
       d="m 165.10928,30.34375 0,-3.5"
       style="fill:#000000;fill-opacity:1;fill-rule:nonzero;stroke:#000000;stroke-width:0.80000001;stroke-linecap:butt;stroke-linejoin:round;stroke-miterlimit:10;stroke-dasharray:none;stroke-opacity:1"
       id="path4407"
       inkscape:connector-curvature="0" /><text
       transform="matrix(1,0,0,-1,157.15616,15.75)"
       style="font-variant:normal;font-weight:normal;font-size:10px;font-family:'DejaVu Sans';-inkscape-font-specification:DejaVuSans;writing-mode:lr-tb;fill:#000000;fill-opacity:1;fill-rule:nonzero;stroke:none"
       id="text4409"><tspan
         x="0 6.3600001 9.54"
         y="0"
         sodipodi:role="line"
         id="tspan4411">1.5</tspan></text>
<path
       d="m 205.67283,30.34375 0,-3.5"
       style="fill:#000000;fill-opacity:1;fill-rule:nonzero;stroke:#000000;stroke-width:0.80000001;stroke-linecap:butt;stroke-linejoin:round;stroke-miterlimit:10;stroke-dasharray:none;stroke-opacity:1"
       id="path4413"
       inkscape:connector-curvature="0" /><text
       transform="matrix(1,0,0,-1,197.71971,15.75)"
       style="font-variant:normal;font-weight:normal;font-size:10px;font-family:'DejaVu Sans';-inkscape-font-specification:DejaVuSans;writing-mode:lr-tb;fill:#000000;fill-opacity:1;fill-rule:nonzero;stroke:none"
       id="text4415"><tspan
         x="0 6.3600001 9.54"
         y="0"
         sodipodi:role="line"
         id="tspan4417">2.0</tspan></text>
<text
       transform="matrix(1,0,0,-1,107.12598,2.078125)"
       style="font-variant:normal;font-weight:normal;font-size:10px;font-family:'DejaVu Sans';-inkscape-font-specification:DejaVuSans;writing-mode:lr-tb;fill:#000000;fill-opacity:1;fill-rule:nonzero;stroke:none"
       id="text4419"><tspan
         x="0 6.3499999 12.7 18.85 25 31.35 34.529999 38.43 48.169998 51.540001 56.75"
         y="0"
         sodipodi:role="line"
         id="tspan4421">Speed [m/s]</tspan></text>
<path
       d="m 42.9375,31.277089 -3.5,0"
       style="fill:#000000;fill-opacity:1;fill-rule:nonzero;stroke:#000000;stroke-width:0.80000001;stroke-linecap:butt;stroke-linejoin:round;stroke-miterlimit:10;stroke-dasharray:none;stroke-opacity:1"
       id="path4423"
       inkscape:connector-curvature="0" /><text
       transform="matrix(1,0,0,-1,20.03125,27.480214)"
       style="font-variant:normal;font-weight:normal;font-size:10px;font-family:'DejaVu Sans';-inkscape-font-specification:DejaVuSans;writing-mode:lr-tb;fill:#000000;fill-opacity:1;fill-rule:nonzero;stroke:none"
       id="text4425"><tspan
         x="0 6.3600001 9.54"
         y="0"
         sodipodi:role="line"
         id="tspan4427">0.0</tspan></text>
<path
       d="m 42.9375,55.810928 -3.5,0"
       style="fill:#000000;fill-opacity:1;fill-rule:nonzero;stroke:#000000;stroke-width:0.80000001;stroke-linecap:butt;stroke-linejoin:round;stroke-miterlimit:10;stroke-dasharray:none;stroke-opacity:1"
       id="path4429"
       inkscape:connector-curvature="0" /><text
       transform="matrix(1,0,0,-1,20.03125,52.014053)"
       style="font-variant:normal;font-weight:normal;font-size:10px;font-family:'DejaVu Sans';-inkscape-font-specification:DejaVuSans;writing-mode:lr-tb;fill:#000000;fill-opacity:1;fill-rule:nonzero;stroke:none"
       id="text4431"><tspan
         x="0 6.3600001 9.54"
         y="0"
         sodipodi:role="line"
         id="tspan4433">2.5</tspan></text>
<path
       d="m 42.9375,80.344767 -3.5,0"
       style="fill:#000000;fill-opacity:1;fill-rule:nonzero;stroke:#000000;stroke-width:0.80000001;stroke-linecap:butt;stroke-linejoin:round;stroke-miterlimit:10;stroke-dasharray:none;stroke-opacity:1"
       id="path4435"
       inkscape:connector-curvature="0" /><text
       transform="matrix(1,0,0,-1,20.03125,76.547892)"
       style="font-variant:normal;font-weight:normal;font-size:10px;font-family:'DejaVu Sans';-inkscape-font-specification:DejaVuSans;writing-mode:lr-tb;fill:#000000;fill-opacity:1;fill-rule:nonzero;stroke:none"
       id="text4437"><tspan
         x="0 6.3600001 9.54"
         y="0"
         sodipodi:role="line"
         id="tspan4439">5.0</tspan></text>
<path
       d="m 42.9375,104.8786 -3.5,0"
       style="fill:#000000;fill-opacity:1;fill-rule:nonzero;stroke:#000000;stroke-width:0.80000001;stroke-linecap:butt;stroke-linejoin:round;stroke-miterlimit:10;stroke-dasharray:none;stroke-opacity:1"
       id="path4441"
       inkscape:connector-curvature="0" /><text
       transform="matrix(1,0,0,-1,20.03125,101.08173)"
       style="font-variant:normal;font-weight:normal;font-size:10px;font-family:'DejaVu Sans';-inkscape-font-specification:DejaVuSans;writing-mode:lr-tb;fill:#000000;fill-opacity:1;fill-rule:nonzero;stroke:none"
       id="text4443"><tspan
         x="0 6.3600001 9.54"
         y="0"
         sodipodi:role="line"
         id="tspan4445">7.5</tspan></text>
<path
       d="m 42.9375,129.41244 -3.5,0"
       style="fill:#000000;fill-opacity:1;fill-rule:nonzero;stroke:#000000;stroke-width:0.80000001;stroke-linecap:butt;stroke-linejoin:round;stroke-miterlimit:10;stroke-dasharray:none;stroke-opacity:1"
       id="path4447"
       inkscape:connector-curvature="0" /><text
       transform="matrix(1,0,0,-1,13.671875,125.61557)"
       style="font-variant:normal;font-weight:normal;font-size:10px;font-family:'DejaVu Sans';-inkscape-font-specification:DejaVuSans;writing-mode:lr-tb;fill:#000000;fill-opacity:1;fill-rule:nonzero;stroke:none"
       id="text4449"><tspan
         x="0 6.3600001 12.72 15.9"
         y="0"
         sodipodi:role="line"
         id="tspan4451">10.0</tspan></text>
<path
       d="m 42.9375,153.94628 -3.5,0"
       style="fill:#000000;fill-opacity:1;fill-rule:nonzero;stroke:#000000;stroke-width:0.80000001;stroke-linecap:butt;stroke-linejoin:round;stroke-miterlimit:10;stroke-dasharray:none;stroke-opacity:1"
       id="path4453"
       inkscape:connector-curvature="0" /><text
       transform="matrix(1,0,0,-1,13.671875,150.14941)"
       style="font-variant:normal;font-weight:normal;font-size:10px;font-family:'DejaVu Sans';-inkscape-font-specification:DejaVuSans;writing-mode:lr-tb;fill:#000000;fill-opacity:1;fill-rule:nonzero;stroke:none"
       id="text4455"><tspan
         x="0 6.3600001 12.72 15.9"
         y="0"
         sodipodi:role="line"
         id="tspan4457">12.5</tspan></text>
<path
       d="m 42.9375,178.48012 -3.5,0"
       style="fill:#000000;fill-opacity:1;fill-rule:nonzero;stroke:#000000;stroke-width:0.80000001;stroke-linecap:butt;stroke-linejoin:round;stroke-miterlimit:10;stroke-dasharray:none;stroke-opacity:1"
       id="path4459"
       inkscape:connector-curvature="0" /><text
       transform="matrix(1,0,0,-1,13.671875,174.68325)"
       style="font-variant:normal;font-weight:normal;font-size:10px;font-family:'DejaVu Sans';-inkscape-font-specification:DejaVuSans;writing-mode:lr-tb;fill:#000000;fill-opacity:1;fill-rule:nonzero;stroke:none"
       id="text4461"><tspan
         x="0 6.3600001 12.72 15.9"
         y="0"
         sodipodi:role="line"
         id="tspan4463">15.0</tspan></text>
<text
       transform="matrix(0,1,1,0,7.59375,93.848437)"
       style="font-variant:normal;font-weight:normal;font-size:10px;font-family:'DejaVu Sans';-inkscape-font-specification:DejaVuSans;writing-mode:lr-tb;fill:#000000;fill-opacity:1;fill-rule:nonzero;stroke:none"
       id="text4465"><tspan
         x="0 6.98 13.11 19.459999 22.639999 26.540001 32.889999 38.639999"
         y="0"
         sodipodi:role="line"
         id="tspan4467">Cap [pF]</tspan></text>
<g
       id="g4469"><g
         id="g4471"
         clip-path="url(#clipPath4473)"><path
           d="m 51.531339,85.315729 1.622542,-6.213861 1.947051,-5.499333 2.33646,-4.86697 2.803753,-4.307321 3.364503,-3.812025 4.037404,-3.373683 4.844884,-2.985746 5.813862,-2.642418 6.976634,-2.338568 8.37196,-2.069658 10.046348,-1.83167 12.05563,-1.621047 14.46675,-1.434645 17.36009,-1.269676 20.83212,-1.123676 24.99854,-0.994467 29.99825,-0.880113"
           style="fill:none;stroke:#1f77b4;stroke-width:1.5;stroke-linecap:square;stroke-linejoin:round;stroke-miterlimit:10;stroke-dasharray:none;stroke-opacity:1"
           id="path4477"
           inkscape:connector-curvature="0" /></g></g><g
       id="g4479"><g
         id="g4481"
         clip-path="url(#clipPath4483)"><path
           d="m 51.531339,131.02533 1.622542,-11.46997 1.947051,-10.15105 2.33646,-8.98378 2.803753,-7.950753 3.364503,-7.036499 4.037404,-6.227378 4.844884,-5.511296 5.813862,-4.877556 6.976634,-4.316691 8.37196,-3.820317 10.046348,-3.381022 12.05563,-2.992241 14.46675,-2.648166 17.36009,-2.343655 20.83212,-2.07416 24.99854,-1.835654 29.99825,-1.624574"
           style="fill:none;stroke:#ff7f0e;stroke-width:1.5;stroke-linecap:square;stroke-linejoin:round;stroke-miterlimit:10;stroke-dasharray:none;stroke-opacity:1"
           id="path4487"
           inkscape:connector-curvature="0" /></g></g><g
       id="g4489"><g
         id="g4491"
         clip-path="url(#clipPath4493)"><path
           d="m 51.531339,192.1929 1.622542,-18.50358 1.947051,-16.37587 2.33646,-14.49283 2.803753,-12.8263 3.364503,-11.35141 4.037404,-10.04613 4.844884,-8.890931 5.813862,-7.868569 6.976634,-6.963769 8.37196,-6.16301 10.046348,-5.454331 12.05563,-4.827141 14.46675,-4.272072 17.36009,-3.780831 20.83212,-3.346075 24.99854,-2.961313 29.99825,-2.620793"
           style="fill:none;stroke:#2ca02c;stroke-width:1.5;stroke-linecap:square;stroke-linejoin:round;stroke-miterlimit:10;stroke-dasharray:none;stroke-opacity:1"
           id="path4497"
           inkscape:connector-curvature="0" /></g></g><g
       id="g4499"><path
         d="m 42.9375,30.34375 0,169.55625"
         style="fill:none;stroke:#000000;stroke-width:0.80000001;stroke-linecap:square;stroke-linejoin:miter;stroke-miterlimit:10;stroke-dasharray:none;stroke-opacity:1"
         id="path4501"
         inkscape:connector-curvature="0" /><path
         d="m 232.00196,30.34375 0,169.55625"
         style="fill:none;stroke:#000000;stroke-width:0.80000001;stroke-linecap:square;stroke-linejoin:miter;stroke-miterlimit:10;stroke-dasharray:none;stroke-opacity:1"
         id="path4503"
         inkscape:connector-curvature="0" /><path
         d="m 42.9375,30.34375 189.06446,0"
         style="fill:none;stroke:#000000;stroke-width:0.80000001;stroke-linecap:square;stroke-linejoin:miter;stroke-miterlimit:10;stroke-dasharray:none;stroke-opacity:1"
         id="path4505"
         inkscape:connector-curvature="0" /><path
         d="m 42.9375,199.9 189.06446,0"
         style="fill:none;stroke:#000000;stroke-width:0.80000001;stroke-linecap:square;stroke-linejoin:miter;stroke-miterlimit:10;stroke-dasharray:none;stroke-opacity:1"
         id="path4507"
         inkscape:connector-curvature="0" /><path
         d="m 149.90821,147.88437 75.09375,0 c 1.33333,0 2,0.66667 2,2 l 0,43.01563 c 0,1.33333 -0.66667,2 -2,2 l -75.09375,0 c -1.33333,0 -2,-0.66667 -2,-2 l 0,-43.01563 c 0,-1.33333 0.66667,-2 2,-2 z"
         style="fill:#ffffff;fill-opacity:0.8;fill-rule:nonzero;stroke:#cccccc;stroke-width:1;stroke-linecap:butt;stroke-linejoin:miter;stroke-miterlimit:10;stroke-dasharray:none;stroke-opacity:0.8"
         id="path4509"
         inkscape:connector-curvature="0" /><path
         d="m 151.90821,186.80625 20,0"
         style="fill:none;stroke:#1f77b4;stroke-width:1.5;stroke-linecap:square;stroke-linejoin:round;stroke-miterlimit:10;stroke-dasharray:none;stroke-opacity:1"
         id="path4511"
         inkscape:connector-curvature="0" /><text
         transform="matrix(1,0,0,-1,179.90821,183.30625)"
         style="font-variant:normal;font-weight:normal;font-size:10px;font-family:'DejaVu Sans';-inkscape-font-specification:DejaVuSans;writing-mode:lr-tb;fill:#000000;fill-opacity:1;fill-rule:nonzero;stroke:none"
         id="text4513"><tspan
           x="0 6.3600001 12.72 19.700001 22.879999 29.24 35.599998"
           y="0"
           sodipodi:role="line"
           id="tspan4515">40C,40N</tspan></text>
<path
         d="m 151.90821,172.13437 20,0"
         style="fill:none;stroke:#ff7f0e;stroke-width:1.5;stroke-linecap:square;stroke-linejoin:round;stroke-miterlimit:10;stroke-dasharray:none;stroke-opacity:1"
         id="path4517"
         inkscape:connector-curvature="0" /><text
         transform="matrix(1,0,0,-1,179.90821,168.63437)"
         style="font-variant:normal;font-weight:normal;font-size:10px;font-family:'DejaVu Sans';-inkscape-font-specification:DejaVuSans;writing-mode:lr-tb;fill:#000000;fill-opacity:1;fill-rule:nonzero;stroke:none"
         id="text4519"><tspan
           x="0 6.3600001 12.72 19.700001 22.879999 29.24 35.599998"
           y="0"
           sodipodi:role="line"
           id="tspan4521">60C,40N</tspan></text>
<path
         d="m 151.90821,157.4625 20,0"
         style="fill:none;stroke:#2ca02c;stroke-width:1.5;stroke-linecap:square;stroke-linejoin:round;stroke-miterlimit:10;stroke-dasharray:none;stroke-opacity:1"
         id="path4523"
         inkscape:connector-curvature="0" /><text
         transform="matrix(1,0,0,-1,179.90821,153.9625)"
         style="font-variant:normal;font-weight:normal;font-size:10px;font-family:'DejaVu Sans';-inkscape-font-specification:DejaVuSans;writing-mode:lr-tb;fill:#000000;fill-opacity:1;fill-rule:nonzero;stroke:none"
         id="text4525"><tspan
           x="0 6.3600001 12.72 19.700001 22.879999 29.24 35.599998"
           y="0"
           sodipodi:role="line"
           id="tspan4527">80C,40N</tspan></text>
<path
         d="m 253.83554,30.34375 189.06446,0 0,169.55625 -189.06446,0 0,-169.55625 z"
         style="fill:#ffffff;fill-opacity:1;fill-rule:nonzero;stroke:none"
         id="path4529"
         inkscape:connector-curvature="0" /><path
         d="m 254.31667,30.34375 0,-3.5"
         style="fill:#000000;fill-opacity:1;fill-rule:nonzero;stroke:#000000;stroke-width:0.80000001;stroke-linecap:butt;stroke-linejoin:round;stroke-miterlimit:10;stroke-dasharray:none;stroke-opacity:1"
         id="path4531"
         inkscape:connector-curvature="0" /><text
         transform="matrix(1,0,0,-1,246.36354,15.75)"
         style="font-variant:normal;font-weight:normal;font-size:10px;font-family:'DejaVu Sans';-inkscape-font-specification:DejaVuSans;writing-mode:lr-tb;fill:#000000;fill-opacity:1;fill-rule:nonzero;stroke:none"
         id="text4533"><tspan
           x="0 6.3600001 9.54"
           y="0"
           sodipodi:role="line"
           id="tspan4535">0.0</tspan></text>
<path
         d="m 294.88022,30.34375 0,-3.5"
         style="fill:#000000;fill-opacity:1;fill-rule:nonzero;stroke:#000000;stroke-width:0.80000001;stroke-linecap:butt;stroke-linejoin:round;stroke-miterlimit:10;stroke-dasharray:none;stroke-opacity:1"
         id="path4537"
         inkscape:connector-curvature="0" /><text
         transform="matrix(1,0,0,-1,286.9271,15.75)"
         style="font-variant:normal;font-weight:normal;font-size:10px;font-family:'DejaVu Sans';-inkscape-font-specification:DejaVuSans;writing-mode:lr-tb;fill:#000000;fill-opacity:1;fill-rule:nonzero;stroke:none"
         id="text4539"><tspan
           x="0 6.3600001 9.54"
           y="0"
           sodipodi:role="line"
           id="tspan4541">0.5</tspan></text>
<path
         d="m 335.44377,30.34375 0,-3.5"
         style="fill:#000000;fill-opacity:1;fill-rule:nonzero;stroke:#000000;stroke-width:0.80000001;stroke-linecap:butt;stroke-linejoin:round;stroke-miterlimit:10;stroke-dasharray:none;stroke-opacity:1"
         id="path4543"
         inkscape:connector-curvature="0" /><text
         transform="matrix(1,0,0,-1,327.49065,15.75)"
         style="font-variant:normal;font-weight:normal;font-size:10px;font-family:'DejaVu Sans';-inkscape-font-specification:DejaVuSans;writing-mode:lr-tb;fill:#000000;fill-opacity:1;fill-rule:nonzero;stroke:none"
         id="text4545"><tspan
           x="0 6.3600001 9.54"
           y="0"
           sodipodi:role="line"
           id="tspan4547">1.0</tspan></text>
<path
         d="m 376.00732,30.34375 0,-3.5"
         style="fill:#000000;fill-opacity:1;fill-rule:nonzero;stroke:#000000;stroke-width:0.80000001;stroke-linecap:butt;stroke-linejoin:round;stroke-miterlimit:10;stroke-dasharray:none;stroke-opacity:1"
         id="path4549"
         inkscape:connector-curvature="0" /><text
         transform="matrix(1,0,0,-1,368.0542,15.75)"
         style="font-variant:normal;font-weight:normal;font-size:10px;font-family:'DejaVu Sans';-inkscape-font-specification:DejaVuSans;writing-mode:lr-tb;fill:#000000;fill-opacity:1;fill-rule:nonzero;stroke:none"
         id="text4551"><tspan
           x="0 6.3600001 9.54"
           y="0"
           sodipodi:role="line"
           id="tspan4553">1.5</tspan></text>
<path
         d="m 416.57087,30.34375 0,-3.5"
         style="fill:#000000;fill-opacity:1;fill-rule:nonzero;stroke:#000000;stroke-width:0.80000001;stroke-linecap:butt;stroke-linejoin:round;stroke-miterlimit:10;stroke-dasharray:none;stroke-opacity:1"
         id="path4555"
         inkscape:connector-curvature="0" /><text
         transform="matrix(1,0,0,-1,408.61775,15.75)"
         style="font-variant:normal;font-weight:normal;font-size:10px;font-family:'DejaVu Sans';-inkscape-font-specification:DejaVuSans;writing-mode:lr-tb;fill:#000000;fill-opacity:1;fill-rule:nonzero;stroke:none"
         id="text4557"><tspan
           x="0 6.3600001 9.54"
           y="0"
           sodipodi:role="line"
           id="tspan4559">2.0</tspan></text>
<text
         transform="matrix(1,0,0,-1,319.61777,2.078125)"
         style="font-variant:normal;font-weight:normal;font-size:10px;font-family:'DejaVu Sans';-inkscape-font-specification:DejaVuSans;writing-mode:lr-tb;fill:#000000;fill-opacity:1;fill-rule:nonzero;stroke:none"
         id="text4561"><tspan
           x="0 6.3499999 12.7 18.85 25 31.35 35.25 44.990002 48.360001 53.57"
           y="0"
           sodipodi:role="line"
           id="tspan4563">Speed[m/s]</tspan></text>
<path
         d="m 253.83554,31.277089 -3.5,0"
         style="fill:#000000;fill-opacity:1;fill-rule:nonzero;stroke:#000000;stroke-width:0.80000001;stroke-linecap:butt;stroke-linejoin:round;stroke-miterlimit:10;stroke-dasharray:none;stroke-opacity:1"
         id="path4565"
         inkscape:connector-curvature="0" /><path
         d="m 253.83554,55.810928 -3.5,0"
         style="fill:#000000;fill-opacity:1;fill-rule:nonzero;stroke:#000000;stroke-width:0.80000001;stroke-linecap:butt;stroke-linejoin:round;stroke-miterlimit:10;stroke-dasharray:none;stroke-opacity:1"
         id="path4567"
         inkscape:connector-curvature="0" /><path
         d="m 253.83554,80.344767 -3.5,0"
         style="fill:#000000;fill-opacity:1;fill-rule:nonzero;stroke:#000000;stroke-width:0.80000001;stroke-linecap:butt;stroke-linejoin:round;stroke-miterlimit:10;stroke-dasharray:none;stroke-opacity:1"
         id="path4569"
         inkscape:connector-curvature="0" /><path
         d="m 253.83554,104.8786 -3.5,0"
         style="fill:#000000;fill-opacity:1;fill-rule:nonzero;stroke:#000000;stroke-width:0.80000001;stroke-linecap:butt;stroke-linejoin:round;stroke-miterlimit:10;stroke-dasharray:none;stroke-opacity:1"
         id="path4571"
         inkscape:connector-curvature="0" /><path
         d="m 253.83554,129.41244 -3.5,0"
         style="fill:#000000;fill-opacity:1;fill-rule:nonzero;stroke:#000000;stroke-width:0.80000001;stroke-linecap:butt;stroke-linejoin:round;stroke-miterlimit:10;stroke-dasharray:none;stroke-opacity:1"
         id="path4573"
         inkscape:connector-curvature="0" /><path
         d="m 253.83554,153.94628 -3.5,0"
         style="fill:#000000;fill-opacity:1;fill-rule:nonzero;stroke:#000000;stroke-width:0.80000001;stroke-linecap:butt;stroke-linejoin:round;stroke-miterlimit:10;stroke-dasharray:none;stroke-opacity:1"
         id="path4575"
         inkscape:connector-curvature="0" /><path
         d="m 253.83554,178.48012 -3.5,0"
         style="fill:#000000;fill-opacity:1;fill-rule:nonzero;stroke:#000000;stroke-width:0.80000001;stroke-linecap:butt;stroke-linejoin:round;stroke-miterlimit:10;stroke-dasharray:none;stroke-opacity:1"
         id="path4577"
         inkscape:connector-curvature="0" /></g><g
       id="g4579"><g
         id="g4581"
         clip-path="url(#clipPath4583)"><path
           d="m 262.42938,128.0476 1.62254,-11.12756 1.94705,-9.84802 2.33646,-8.715598 2.80376,-7.7134 3.3645,-6.826442 4.0374,-6.041474 4.84489,-5.346771 5.81386,-4.731949 6.97663,-4.187826 8.37196,-3.706272 10.04636,-3.28009 12.05562,-2.902915 14.46675,-2.569111 17.36009,-2.273691 20.83212,-2.012242 24.99854,-1.780855 29.99825,-1.576076"
           style="fill:none;stroke:#1f77b4;stroke-width:1.5;stroke-linecap:square;stroke-linejoin:round;stroke-miterlimit:10;stroke-dasharray:none;stroke-opacity:1"
           id="path4587"
           inkscape:connector-curvature="0" /></g></g><g
       id="g4589"><g
         id="g4591"
         clip-path="url(#clipPath4593)"><path
           d="m 262.42938,161.57436 1.62254,-14.98278 1.94705,-13.25992 2.33646,-11.73518 2.80376,-10.38575 3.3645,-9.19151 4.0374,-8.13458 4.84489,-7.199193 5.81386,-6.371363 6.97663,-5.638726 8.37196,-4.990332 10.04636,-4.416499 12.05562,-3.908648 14.46675,-3.459197 17.36009,-3.061426 20.83212,-2.709395 24.99854,-2.397843 29.99825,-2.122118"
           style="fill:none;stroke:#ff7f0e;stroke-width:1.5;stroke-linecap:square;stroke-linejoin:round;stroke-miterlimit:10;stroke-dasharray:none;stroke-opacity:1"
           id="path4597"
           inkscape:connector-curvature="0" /></g></g><g
       id="g4599"><g
         id="g4601"
         clip-path="url(#clipPath4603)"><path
           d="m 262.42938,192.1929 1.62254,-18.50358 1.94705,-16.37587 2.33646,-14.49283 2.80376,-12.8263 3.3645,-11.35141 4.0374,-10.04613 4.84489,-8.890931 5.81386,-7.868569 6.97663,-6.963769 8.37196,-6.16301 10.04636,-5.454331 12.05562,-4.827141 14.46675,-4.272072 17.36009,-3.780831 20.83212,-3.346075 24.99854,-2.961313 29.99825,-2.620793"
           style="fill:none;stroke:#2ca02c;stroke-width:1.5;stroke-linecap:square;stroke-linejoin:round;stroke-miterlimit:10;stroke-dasharray:none;stroke-opacity:1"
           id="path4607"
           inkscape:connector-curvature="0" /></g></g><g
       id="g4609"><path
         d="m 253.83554,30.34375 0,169.55625"
         style="fill:none;stroke:#000000;stroke-width:0.80000001;stroke-linecap:square;stroke-linejoin:miter;stroke-miterlimit:10;stroke-dasharray:none;stroke-opacity:1"
         id="path4611"
         inkscape:connector-curvature="0" /><path
         d="M 442.9,30.34375 442.9,199.9"
         style="fill:none;stroke:#000000;stroke-width:0.80000001;stroke-linecap:square;stroke-linejoin:miter;stroke-miterlimit:10;stroke-dasharray:none;stroke-opacity:1"
         id="path4613"
         inkscape:connector-curvature="0" /><path
         d="m 253.83554,30.34375 189.06446,0"
         style="fill:none;stroke:#000000;stroke-width:0.80000001;stroke-linecap:square;stroke-linejoin:miter;stroke-miterlimit:10;stroke-dasharray:none;stroke-opacity:1"
         id="path4615"
         inkscape:connector-curvature="0" /><path
         d="M 253.83554,199.9 442.9,199.9"
         style="fill:none;stroke:#000000;stroke-width:0.80000001;stroke-linecap:square;stroke-linejoin:miter;stroke-miterlimit:10;stroke-dasharray:none;stroke-opacity:1"
         id="path4617"
         inkscape:connector-curvature="0" /><path
         d="m 360.80625,147.88437 75.09375,0 c 1.33333,0 2,0.66667 2,2 l 0,43.01563 c 0,1.33333 -0.66667,2 -2,2 l -75.09375,0 c -1.33333,0 -2,-0.66667 -2,-2 l 0,-43.01563 c 0,-1.33333 0.66667,-2 2,-2 z"
         style="fill:#ffffff;fill-opacity:0.8;fill-rule:nonzero;stroke:#cccccc;stroke-width:1;stroke-linecap:butt;stroke-linejoin:miter;stroke-miterlimit:10;stroke-dasharray:none;stroke-opacity:0.8"
         id="path4619"
         inkscape:connector-curvature="0" /><path
         d="m 362.80625,186.80625 20,0"
         style="fill:none;stroke:#1f77b4;stroke-width:1.5;stroke-linecap:square;stroke-linejoin:round;stroke-miterlimit:10;stroke-dasharray:none;stroke-opacity:1"
         id="path4621"
         inkscape:connector-curvature="0" /><text
         transform="matrix(1,0,0,-1,390.80625,183.30625)"
         style="font-variant:normal;font-weight:normal;font-size:10px;font-family:'DejaVu Sans';-inkscape-font-specification:DejaVuSans;writing-mode:lr-tb;fill:#000000;fill-opacity:1;fill-rule:nonzero;stroke:none"
         id="text4623"><tspan
           x="0 6.3600001 12.72 19.700001 22.879999 29.24 35.599998"
           y="0"
           sodipodi:role="line"
           id="tspan4625">80C,20N</tspan></text>
<path
         d="m 362.80625,172.13437 20,0"
         style="fill:none;stroke:#ff7f0e;stroke-width:1.5;stroke-linecap:square;stroke-linejoin:round;stroke-miterlimit:10;stroke-dasharray:none;stroke-opacity:1"
         id="path4627"
         inkscape:connector-curvature="0" /><text
         transform="matrix(1,0,0,-1,390.80625,168.63437)"
         style="font-variant:normal;font-weight:normal;font-size:10px;font-family:'DejaVu Sans';-inkscape-font-specification:DejaVuSans;writing-mode:lr-tb;fill:#000000;fill-opacity:1;fill-rule:nonzero;stroke:none"
         id="text4629"><tspan
           x="0 6.3600001 12.72 19.700001 22.879999 29.24 35.599998"
           y="0"
           sodipodi:role="line"
           id="tspan4631">80C,30N</tspan></text>
<path
         d="m 362.80625,157.4625 20,0"
         style="fill:none;stroke:#2ca02c;stroke-width:1.5;stroke-linecap:square;stroke-linejoin:round;stroke-miterlimit:10;stroke-dasharray:none;stroke-opacity:1"
         id="path4633"
         inkscape:connector-curvature="0" /><text
         transform="matrix(1,0,0,-1,390.80625,153.9625)"
         style="font-variant:normal;font-weight:normal;font-size:10px;font-family:'DejaVu Sans';-inkscape-font-specification:DejaVuSans;writing-mode:lr-tb;fill:#000000;fill-opacity:1;fill-rule:nonzero;stroke:none"
         id="text4635"><tspan
           x="0 6.3600001 12.72 19.700001 22.879999 29.24 35.599998"
           y="0"
           sodipodi:role="line"
           id="tspan4637">80C,40N</tspan></text>
</g></g></svg>