<?xml version="1.0" encoding="UTF-8" standalone="no"?>
<!-- Created with Inkscape (http://www.inkscape.org/) -->

<svg
   xmlns:dc="http://purl.org/dc/elements/1.1/"
   xmlns:cc="http://creativecommons.org/ns#"
   xmlns:rdf="http://www.w3.org/1999/02/22-rdf-syntax-ns#"
   xmlns:svg="http://www.w3.org/2000/svg"
   xmlns="http://www.w3.org/2000/svg"
   xmlns:sodipodi="http://sodipodi.sourceforge.net/DTD/sodipodi-0.dtd"
   xmlns:inkscape="http://www.inkscape.org/namespaces/inkscape"
   id="svg6074"
   version="1.1"
   inkscape:version="0.91 r13725"
   xml:space="preserve"
   width="421.90079"
   height="253.02859"
   viewBox="0 0 421.90079 253.02859"
   sodipodi:docname="cap_theo_meas_vs_speed_60C.pdf"><metadata
     id="metadata6080"><rdf:RDF><cc:Work
         rdf:about=""><dc:format>image/svg+xml</dc:format><dc:type
           rdf:resource="http://purl.org/dc/dcmitype/StillImage" /><dc:title></dc:title></cc:Work></rdf:RDF></metadata><defs
     id="defs6078"><clipPath
       clipPathUnits="userSpaceOnUse"
       id="clipPath6154"><path
         d="m 33.390625,30.34375 264.379995,0 0,168.35947 -264.379995,0 0,-168.35947 z"
         id="path6156"
         inkscape:connector-curvature="0" /></clipPath><clipPath
       clipPathUnits="userSpaceOnUse"
       id="clipPath6166"><path
         d="m -3.5,-3.5 7,0 0,7 -7,0 0,-7 z"
         id="path6168"
         inkscape:connector-curvature="0" /></clipPath><clipPath
       clipPathUnits="userSpaceOnUse"
       id="clipPath6178"><path
         d="m -3.5,-3.5 7,0 0,7 -7,0 0,-7 z"
         id="path6180"
         inkscape:connector-curvature="0" /></clipPath><clipPath
       clipPathUnits="userSpaceOnUse"
       id="clipPath6190"><path
         d="m -3.5,-3.5 7,0 0,7 -7,0 0,-7 z"
         id="path6192"
         inkscape:connector-curvature="0" /></clipPath><clipPath
       clipPathUnits="userSpaceOnUse"
       id="clipPath6202"><path
         d="m -3.5,-3.5 7,0 0,7 -7,0 0,-7 z"
         id="path6204"
         inkscape:connector-curvature="0" /></clipPath><clipPath
       clipPathUnits="userSpaceOnUse"
       id="clipPath6214"><path
         d="m -3.5,-3.5 7,0 0,7 -7,0 0,-7 z"
         id="path6216"
         inkscape:connector-curvature="0" /></clipPath><clipPath
       clipPathUnits="userSpaceOnUse"
       id="clipPath6226"><path
         d="m -3.5,-3.5 7,0 0,7 -7,0 0,-7 z"
         id="path6228"
         inkscape:connector-curvature="0" /></clipPath><clipPath
       clipPathUnits="userSpaceOnUse"
       id="clipPath6236"><path
         d="m 33.390625,30.34375 264.379995,0 0,168.35947 -264.379995,0 0,-168.35947 z"
         id="path6238"
         inkscape:connector-curvature="0" /></clipPath><clipPath
       clipPathUnits="userSpaceOnUse"
       id="clipPath6248"><path
         d="m -3.5,-3.5 7,0 0,7 -7,0 0,-7 z"
         id="path6250"
         inkscape:connector-curvature="0" /></clipPath><clipPath
       clipPathUnits="userSpaceOnUse"
       id="clipPath6260"><path
         d="m -3.5,-3.5 7,0 0,7 -7,0 0,-7 z"
         id="path6262"
         inkscape:connector-curvature="0" /></clipPath><clipPath
       clipPathUnits="userSpaceOnUse"
       id="clipPath6272"><path
         d="m -3.5,-3.5 7,0 0,7 -7,0 0,-7 z"
         id="path6274"
         inkscape:connector-curvature="0" /></clipPath><clipPath
       clipPathUnits="userSpaceOnUse"
       id="clipPath6284"><path
         d="m -3.5,-3.5 7,0 0,7 -7,0 0,-7 z"
         id="path6286"
         inkscape:connector-curvature="0" /></clipPath><clipPath
       clipPathUnits="userSpaceOnUse"
       id="clipPath6296"><path
         d="m -3.5,-3.5 7,0 0,7 -7,0 0,-7 z"
         id="path6298"
         inkscape:connector-curvature="0" /></clipPath><clipPath
       clipPathUnits="userSpaceOnUse"
       id="clipPath6308"><path
         d="m -3.5,-3.5 7,0 0,7 -7,0 0,-7 z"
         id="path6310"
         inkscape:connector-curvature="0" /></clipPath><clipPath
       clipPathUnits="userSpaceOnUse"
       id="clipPath6380"><path
         d="m 33.390625,30.34375 264.379995,0 0,168.35947 -264.379995,0 0,-168.35947 z"
         id="path6382"
         inkscape:connector-curvature="0" /></clipPath><clipPath
       clipPathUnits="userSpaceOnUse"
       id="clipPath6392"><path
         d="m -3.3531695,-2.927051 6.706339,0 0,6.427051 -6.706339,0 0,-6.427051 z"
         id="path6394"
         inkscape:connector-curvature="0" /></clipPath><clipPath
       clipPathUnits="userSpaceOnUse"
       id="clipPath6404"><path
         d="m -3.3531695,-2.927051 6.706339,0 0,6.427051 -6.706339,0 0,-6.427051 z"
         id="path6406"
         inkscape:connector-curvature="0" /></clipPath><clipPath
       clipPathUnits="userSpaceOnUse"
       id="clipPath6416"><path
         d="m -3.3531695,-2.927051 6.706339,0 0,6.427051 -6.706339,0 0,-6.427051 z"
         id="path6418"
         inkscape:connector-curvature="0" /></clipPath><clipPath
       clipPathUnits="userSpaceOnUse"
       id="clipPath6428"><path
         d="m -3.3531695,-2.927051 6.706339,0 0,6.427051 -6.706339,0 0,-6.427051 z"
         id="path6430"
         inkscape:connector-curvature="0" /></clipPath><clipPath
       clipPathUnits="userSpaceOnUse"
       id="clipPath6440"><path
         d="m -3.3531695,-2.927051 6.706339,0 0,6.427051 -6.706339,0 0,-6.427051 z"
         id="path6442"
         inkscape:connector-curvature="0" /></clipPath><clipPath
       clipPathUnits="userSpaceOnUse"
       id="clipPath6452"><path
         d="m -3.3531695,-2.927051 6.706339,0 0,6.427051 -6.706339,0 0,-6.427051 z"
         id="path6454"
         inkscape:connector-curvature="0" /></clipPath></defs><sodipodi:namedview
     pagecolor="#ffffff"
     bordercolor="#666666"
     borderopacity="1"
     objecttolerance="10"
     gridtolerance="10"
     guidetolerance="10"
     inkscape:pageopacity="0"
     inkscape:pageshadow="2"
     inkscape:window-width="1855"
     inkscape:window-height="1056"
     id="namedview6076"
     showgrid="false"
     inkscape:zoom="3.2566898"
     inkscape:cx="210.95039"
     inkscape:cy="126.5143"
     inkscape:window-x="65"
     inkscape:window-y="24"
     inkscape:window-maximized="1"
     inkscape:current-layer="g6082" /><g
     id="g6082"
     inkscape:groupmode="layer"
     inkscape:label="cap_theo_meas_vs_speed_60C"
     transform="matrix(1.25,0,0,-1.25,0,253.02859)"><path
       d="m 0,0 337.52062,0 0,202.42287 L 0,202.42287 0,0 Z"
       style="fill:#ffffff;fill-opacity:1;fill-rule:nonzero;stroke:none"
       id="path6084"
       inkscape:connector-curvature="0" /><path
       d="m 33.390625,30.34375 264.379995,0 0,168.35947 -264.379995,0 0,-168.35947 z"
       style="fill:#ffffff;fill-opacity:1;fill-rule:nonzero;stroke:none"
       id="path6086"
       inkscape:connector-curvature="0" /><path
       d="m 70.707419,30.34375 0,-3.5"
       style="fill:#000000;fill-opacity:1;fill-rule:nonzero;stroke:#000000;stroke-width:0.80000001;stroke-linecap:butt;stroke-linejoin:round;stroke-miterlimit:10;stroke-dasharray:none;stroke-opacity:1"
       id="path6088"
       inkscape:connector-curvature="0" /><text
       transform="matrix(1,0,0,-1,62.754294,15.75)"
       style="font-variant:normal;font-weight:normal;font-size:10px;font-family:'DejaVu Sans';-inkscape-font-specification:DejaVuSans;writing-mode:lr-tb;fill:#000000;fill-opacity:1;fill-rule:nonzero;stroke:none"
       id="text6090"><tspan
         x="0 6.3600001 9.54"
         y="0"
         sodipodi:role="line"
         id="tspan6092">0.2</tspan></text>
<path
       d="m 121.30646,30.34375 0,-3.5"
       style="fill:#000000;fill-opacity:1;fill-rule:nonzero;stroke:#000000;stroke-width:0.80000001;stroke-linecap:butt;stroke-linejoin:round;stroke-miterlimit:10;stroke-dasharray:none;stroke-opacity:1"
       id="path6094"
       inkscape:connector-curvature="0" /><text
       transform="matrix(1,0,0,-1,113.35334,15.75)"
       style="font-variant:normal;font-weight:normal;font-size:10px;font-family:'DejaVu Sans';-inkscape-font-specification:DejaVuSans;writing-mode:lr-tb;fill:#000000;fill-opacity:1;fill-rule:nonzero;stroke:none"
       id="text6096"><tspan
         x="0 6.3600001 9.54"
         y="0"
         sodipodi:role="line"
         id="tspan6098">0.4</tspan></text>
<path
       d="m 171.9055,30.34375 0,-3.5"
       style="fill:#000000;fill-opacity:1;fill-rule:nonzero;stroke:#000000;stroke-width:0.80000001;stroke-linecap:butt;stroke-linejoin:round;stroke-miterlimit:10;stroke-dasharray:none;stroke-opacity:1"
       id="path6100"
       inkscape:connector-curvature="0" /><text
       transform="matrix(1,0,0,-1,163.95238,15.75)"
       style="font-variant:normal;font-weight:normal;font-size:10px;font-family:'DejaVu Sans';-inkscape-font-specification:DejaVuSans;writing-mode:lr-tb;fill:#000000;fill-opacity:1;fill-rule:nonzero;stroke:none"
       id="text6102"><tspan
         x="0 6.3600001 9.54"
         y="0"
         sodipodi:role="line"
         id="tspan6104">0.6</tspan></text>
<path
       d="m 222.50455,30.34375 0,-3.5"
       style="fill:#000000;fill-opacity:1;fill-rule:nonzero;stroke:#000000;stroke-width:0.80000001;stroke-linecap:butt;stroke-linejoin:round;stroke-miterlimit:10;stroke-dasharray:none;stroke-opacity:1"
       id="path6106"
       inkscape:connector-curvature="0" /><text
       transform="matrix(1,0,0,-1,214.55142,15.75)"
       style="font-variant:normal;font-weight:normal;font-size:10px;font-family:'DejaVu Sans';-inkscape-font-specification:DejaVuSans;writing-mode:lr-tb;fill:#000000;fill-opacity:1;fill-rule:nonzero;stroke:none"
       id="text6108"><tspan
         x="0 6.3600001 9.54"
         y="0"
         sodipodi:role="line"
         id="tspan6110">0.8</tspan></text>
<path
       d="m 273.10359,30.34375 0,-3.5"
       style="fill:#000000;fill-opacity:1;fill-rule:nonzero;stroke:#000000;stroke-width:0.80000001;stroke-linecap:butt;stroke-linejoin:round;stroke-miterlimit:10;stroke-dasharray:none;stroke-opacity:1"
       id="path6112"
       inkscape:connector-curvature="0" /><text
       transform="matrix(1,0,0,-1,265.15047,15.75)"
       style="font-variant:normal;font-weight:normal;font-size:10px;font-family:'DejaVu Sans';-inkscape-font-specification:DejaVuSans;writing-mode:lr-tb;fill:#000000;fill-opacity:1;fill-rule:nonzero;stroke:none"
       id="text6114"><tspan
         x="0 6.3600001 9.54"
         y="0"
         sodipodi:role="line"
         id="tspan6116">1.0</tspan></text>
<text
       transform="matrix(1,0,0,-1,135.23687,2.078125)"
       style="font-variant:normal;font-weight:normal;font-size:10px;font-family:'DejaVu Sans';-inkscape-font-specification:DejaVuSans;writing-mode:lr-tb;fill:#000000;fill-opacity:1;fill-rule:nonzero;stroke:none"
       id="text6118"><tspan
         x="0 6.3499999 12.7 18.85 25 31.35 34.529999 38.43 48.169998 51.540001 56.75"
         y="0"
         sodipodi:role="line"
         id="tspan6120">Speed [m/s]</tspan></text>
<path
       d="m 33.390625,66.506502 -3.5,0"
       style="fill:#000000;fill-opacity:1;fill-rule:nonzero;stroke:#000000;stroke-width:0.80000001;stroke-linecap:butt;stroke-linejoin:round;stroke-miterlimit:10;stroke-dasharray:none;stroke-opacity:1"
       id="path6122"
       inkscape:connector-curvature="0" /><text
       transform="matrix(1,0,0,-1,20.03125,62.709627)"
       style="font-variant:normal;font-weight:normal;font-size:10px;font-family:'DejaVu Sans';-inkscape-font-specification:DejaVuSans;writing-mode:lr-tb;fill:#000000;fill-opacity:1;fill-rule:nonzero;stroke:none"
       id="text6124"><tspan
         x="0"
         y="0"
         id="tspan6126">5</tspan></text>
<path
       d="m 33.390625,103.59757 -3.5,0"
       style="fill:#000000;fill-opacity:1;fill-rule:nonzero;stroke:#000000;stroke-width:0.80000001;stroke-linecap:butt;stroke-linejoin:round;stroke-miterlimit:10;stroke-dasharray:none;stroke-opacity:1"
       id="path6128"
       inkscape:connector-curvature="0" /><text
       transform="matrix(1,0,0,-1,13.671875,99.800694)"
       style="font-variant:normal;font-weight:normal;font-size:10px;font-family:'DejaVu Sans';-inkscape-font-specification:DejaVuSans;writing-mode:lr-tb;fill:#000000;fill-opacity:1;fill-rule:nonzero;stroke:none"
       id="text6130"><tspan
         x="0 6.3600001"
         y="0"
         sodipodi:role="line"
         id="tspan6132">10</tspan></text>
<path
       d="m 33.390625,140.68864 -3.5,0"
       style="fill:#000000;fill-opacity:1;fill-rule:nonzero;stroke:#000000;stroke-width:0.80000001;stroke-linecap:butt;stroke-linejoin:round;stroke-miterlimit:10;stroke-dasharray:none;stroke-opacity:1"
       id="path6134"
       inkscape:connector-curvature="0" /><text
       transform="matrix(1,0,0,-1,13.671875,136.89176)"
       style="font-variant:normal;font-weight:normal;font-size:10px;font-family:'DejaVu Sans';-inkscape-font-specification:DejaVuSans;writing-mode:lr-tb;fill:#000000;fill-opacity:1;fill-rule:nonzero;stroke:none"
       id="text6136"><tspan
         x="0 6.3600001"
         y="0"
         sodipodi:role="line"
         id="tspan6138">15</tspan></text>
<path
       d="m 33.390625,177.7797 -3.5,0"
       style="fill:#000000;fill-opacity:1;fill-rule:nonzero;stroke:#000000;stroke-width:0.80000001;stroke-linecap:butt;stroke-linejoin:round;stroke-miterlimit:10;stroke-dasharray:none;stroke-opacity:1"
       id="path6140"
       inkscape:connector-curvature="0" /><text
       transform="matrix(1,0,0,-1,13.671875,173.98283)"
       style="font-variant:normal;font-weight:normal;font-size:10px;font-family:'DejaVu Sans';-inkscape-font-specification:DejaVuSans;writing-mode:lr-tb;fill:#000000;fill-opacity:1;fill-rule:nonzero;stroke:none"
       id="text6142"><tspan
         x="0 6.3600001"
         y="0"
         sodipodi:role="line"
         id="tspan6144">20</tspan></text>
<text
       transform="matrix(0,1,1,0,7.59375,93.250047)"
       style="font-variant:normal;font-weight:normal;font-size:10px;font-family:'DejaVu Sans';-inkscape-font-specification:DejaVuSans;writing-mode:lr-tb;fill:#000000;fill-opacity:1;fill-rule:nonzero;stroke:none"
       id="text6146"><tspan
         x="0 6.98 13.11 19.459999 22.639999 26.540001 32.889999 38.639999"
         y="0"
         sodipodi:role="line"
         id="tspan6148">Cap [pF]</tspan></text>
<g
       id="g6150"><g
         id="g6152"
         clip-path="url(#clipPath6154)"><path
           d="M 45.407898,191.05052 55.527706,158.71007 88.923075,119.63389 116.49955,88.416566 209.3488,53.144816 285.75335,37.996453"
           style="fill:none;stroke:#1f77b4;stroke-width:1.5;stroke-linecap:square;stroke-linejoin:round;stroke-miterlimit:10;stroke-dasharray:none;stroke-opacity:1"
           id="path6158"
           inkscape:connector-curvature="0" /><g
           id="g6160"
           transform="translate(45.407898,191.05052)"><g
             id="g6162"><g
               id="g6164"
               clip-path="url(#clipPath6166)"><path
                 d="m -3,-3 6,0 0,6 -6,0 0,-6 z"
                 style="fill:#1f77b4;fill-opacity:1;fill-rule:nonzero;stroke:#1f77b4;stroke-width:1;stroke-linecap:butt;stroke-linejoin:miter;stroke-miterlimit:10;stroke-dasharray:none;stroke-opacity:1"
                 id="path6170"
                 inkscape:connector-curvature="0" /></g></g><g
             id="g6172"
             transform="translate(10.119809,-32.340443)"><g
               id="g6174"><g
                 id="g6176"
                 clip-path="url(#clipPath6178)"><path
                   d="m -3,-3 6,0 0,6 -6,0 0,-6 z"
                   style="fill:#1f77b4;fill-opacity:1;fill-rule:nonzero;stroke:#1f77b4;stroke-width:1;stroke-linecap:butt;stroke-linejoin:miter;stroke-miterlimit:10;stroke-dasharray:none;stroke-opacity:1"
                   id="path6182"
                   inkscape:connector-curvature="0" /></g></g><g
               id="g6184"
               transform="translate(33.395368,-39.076181)"><g
                 id="g6186"><g
                   id="g6188"
                   clip-path="url(#clipPath6190)"><path
                     d="m -3,-3 6,0 0,6 -6,0 0,-6 z"
                     style="fill:#1f77b4;fill-opacity:1;fill-rule:nonzero;stroke:#1f77b4;stroke-width:1;stroke-linecap:butt;stroke-linejoin:miter;stroke-miterlimit:10;stroke-dasharray:none;stroke-opacity:1"
                     id="path6194"
                     inkscape:connector-curvature="0" /></g></g><g
                 id="g6196"
                 transform="translate(27.576478,-31.217326)"><g
                   id="g6198"><g
                     id="g6200"
                     clip-path="url(#clipPath6202)"><path
                       d="m -3,-3 6,0 0,6 -6,0 0,-6 z"
                       style="fill:#1f77b4;fill-opacity:1;fill-rule:nonzero;stroke:#1f77b4;stroke-width:1;stroke-linecap:butt;stroke-linejoin:miter;stroke-miterlimit:10;stroke-dasharray:none;stroke-opacity:1"
                       id="path6206"
                       inkscape:connector-curvature="0" /></g></g><g
                   id="g6208"
                   transform="translate(92.849244,-35.27175)"><g
                     id="g6210"><g
                       id="g6212"
                       clip-path="url(#clipPath6214)"><path
                         d="m -3,-3 6,0 0,6 -6,0 0,-6 z"
                         style="fill:#1f77b4;fill-opacity:1;fill-rule:nonzero;stroke:#1f77b4;stroke-width:1;stroke-linecap:butt;stroke-linejoin:miter;stroke-miterlimit:10;stroke-dasharray:none;stroke-opacity:1"
                         id="path6218"
                         inkscape:connector-curvature="0" /></g></g><g
                     id="g6220"
                     transform="translate(76.404555,-15.148363)"><g
                       id="g6222"><g
                         id="g6224"
                         clip-path="url(#clipPath6226)"><path
                           d="m -3,-3 6,0 0,6 -6,0 0,-6 z"
                           style="fill:#1f77b4;fill-opacity:1;fill-rule:nonzero;stroke:#1f77b4;stroke-width:1;stroke-linecap:butt;stroke-linejoin:miter;stroke-miterlimit:10;stroke-dasharray:none;stroke-opacity:1"
                           id="path6230"
                           inkscape:connector-curvature="0" /></g></g></g></g></g></g></g></g></g></g><g
       id="g6232"><g
         id="g6234"
         clip-path="url(#clipPath6236)"><path
           d="M 45.407898,185.25176 55.527706,160.64602 88.923075,117.35626 116.49955,100.77483 209.3488,78.475018 285.75335,73.30996"
           style="fill:none;stroke:#ff7f0e;stroke-width:1.5;stroke-linecap:square;stroke-linejoin:round;stroke-miterlimit:10;stroke-dasharray:none;stroke-opacity:1"
           id="path6240"
           inkscape:connector-curvature="0" /><g
           id="g6242"
           transform="translate(45.407898,185.25176)"><g
             id="g6244"><g
               id="g6246"
               clip-path="url(#clipPath6248)"><path
                 d="M 0,3 -3,-3 3,-3 0,3 Z"
                 style="fill:#ff7f0e;fill-opacity:1;fill-rule:nonzero;stroke:#ff7f0e;stroke-width:1;stroke-linecap:butt;stroke-linejoin:miter;stroke-miterlimit:10;stroke-dasharray:none;stroke-opacity:1"
                 id="path6252"
                 inkscape:connector-curvature="0" /></g></g><g
             id="g6254"
             transform="translate(10.119809,-24.605735)"><g
               id="g6256"><g
                 id="g6258"
                 clip-path="url(#clipPath6260)"><path
                   d="M 0,3 -3,-3 3,-3 0,3 Z"
                   style="fill:#ff7f0e;fill-opacity:1;fill-rule:nonzero;stroke:#ff7f0e;stroke-width:1;stroke-linecap:butt;stroke-linejoin:miter;stroke-miterlimit:10;stroke-dasharray:none;stroke-opacity:1"
                   id="path6264"
                   inkscape:connector-curvature="0" /></g></g><g
               id="g6266"
               transform="translate(33.395368,-43.289758)"><g
                 id="g6268"><g
                   id="g6270"
                   clip-path="url(#clipPath6272)"><path
                     d="M 0,3 -3,-3 3,-3 0,3 Z"
                     style="fill:#ff7f0e;fill-opacity:1;fill-rule:nonzero;stroke:#ff7f0e;stroke-width:1;stroke-linecap:butt;stroke-linejoin:miter;stroke-miterlimit:10;stroke-dasharray:none;stroke-opacity:1"
                     id="path6276"
                     inkscape:connector-curvature="0" /></g></g><g
                 id="g6278"
                 transform="translate(27.576478,-16.581436)"><g
                   id="g6280"><g
                     id="g6282"
                     clip-path="url(#clipPath6284)"><path
                       d="M 0,3 -3,-3 3,-3 0,3 Z"
                       style="fill:#ff7f0e;fill-opacity:1;fill-rule:nonzero;stroke:#ff7f0e;stroke-width:1;stroke-linecap:butt;stroke-linejoin:miter;stroke-miterlimit:10;stroke-dasharray:none;stroke-opacity:1"
                       id="path6288"
                       inkscape:connector-curvature="0" /></g></g><g
                   id="g6290"
                   transform="translate(92.849244,-22.299811)"><g
                     id="g6292"><g
                       id="g6294"
                       clip-path="url(#clipPath6296)"><path
                         d="M 0,3 -3,-3 3,-3 0,3 Z"
                         style="fill:#ff7f0e;fill-opacity:1;fill-rule:nonzero;stroke:#ff7f0e;stroke-width:1;stroke-linecap:butt;stroke-linejoin:miter;stroke-miterlimit:10;stroke-dasharray:none;stroke-opacity:1"
                         id="path6300"
                         inkscape:connector-curvature="0" /></g></g><g
                     id="g6302"
                     transform="translate(76.404555,-5.1650579)"><g
                       id="g6304"><g
                         id="g6306"
                         clip-path="url(#clipPath6308)"><path
                           d="M 0,3 -3,-3 3,-3 0,3 Z"
                           style="fill:#ff7f0e;fill-opacity:1;fill-rule:nonzero;stroke:#ff7f0e;stroke-width:1;stroke-linecap:butt;stroke-linejoin:miter;stroke-miterlimit:10;stroke-dasharray:none;stroke-opacity:1"
                           id="path6312"
                           inkscape:connector-curvature="0" /></g></g></g></g></g></g></g></g></g></g><g
       id="g6314"><path
         d="m 33.390625,30.34375 0,168.35947"
         style="fill:none;stroke:#000000;stroke-width:0.80000001;stroke-linecap:square;stroke-linejoin:miter;stroke-miterlimit:10;stroke-dasharray:none;stroke-opacity:1"
         id="path6316"
         inkscape:connector-curvature="0" /><path
         d="m 297.77062,30.34375 0,168.35947"
         style="fill:none;stroke:#000000;stroke-width:0.80000001;stroke-linecap:square;stroke-linejoin:miter;stroke-miterlimit:10;stroke-dasharray:none;stroke-opacity:1"
         id="path6318"
         inkscape:connector-curvature="0" /><path
         d="m 33.390625,30.34375 264.379995,0"
         style="fill:none;stroke:#000000;stroke-width:0.80000001;stroke-linecap:square;stroke-linejoin:miter;stroke-miterlimit:10;stroke-dasharray:none;stroke-opacity:1"
         id="path6320"
         inkscape:connector-curvature="0" /><path
         d="m 33.390625,198.70322 264.379995,0"
         style="fill:none;stroke:#000000;stroke-width:0.80000001;stroke-linecap:square;stroke-linejoin:miter;stroke-miterlimit:10;stroke-dasharray:none;stroke-opacity:1"
         id="path6322"
         inkscape:connector-curvature="0" /><path
         d="m 172.55187,98.07036 118.21875,0 c 1.33334,0 2,0.666666 2,2 l 0,28.90625 c 0,1.33333 -0.66666,2 -2,2 l -118.21875,0 c -1.33333,0 -2,-0.66667 -2,-2 l 0,-28.90625 c 0,-1.333334 0.66667,-2 2,-2 z"
         style="fill:#ffffff;fill-opacity:0.8;fill-rule:nonzero;stroke:#cccccc;stroke-width:1;stroke-linecap:butt;stroke-linejoin:miter;stroke-miterlimit:10;stroke-dasharray:none;stroke-opacity:0.8"
         id="path6324"
         inkscape:connector-curvature="0" /><path
         d="m 174.55187,122.88286 20,0"
         style="fill:none;stroke:#1f77b4;stroke-width:1.5;stroke-linecap:square;stroke-linejoin:round;stroke-miterlimit:10;stroke-dasharray:none;stroke-opacity:1"
         id="path6326"
         inkscape:connector-curvature="0" /><path
         d="m 181.55187,119.88286 6,0 0,6 -6,0 0,-6 z"
         style="fill:#1f77b4;fill-opacity:1;fill-rule:nonzero;stroke:#1f77b4;stroke-width:1;stroke-linecap:butt;stroke-linejoin:miter;stroke-miterlimit:10;stroke-dasharray:none;stroke-opacity:1"
         id="path6328"
         inkscape:connector-curvature="0" /><text
         transform="matrix(1,0,0,-1,202.55187,119.38286)"
         style="font-variant:normal;font-weight:normal;font-size:10px;font-family:'DejaVu Sans';-inkscape-font-specification:DejaVuSans;writing-mode:lr-tb;fill:#000000;fill-opacity:1;fill-rule:nonzero;stroke:none"
         id="text6330"><tspan
           x="0 6.98 11.98 18.33 24.48 34.220001 40.369999 45.580002 50.790001 56.939999 63.279999 66.459999 72.82 79.18"
           y="0"
           sodipodi:role="line"
           id="tspan6332">C_gemessen,60C</tspan></text>
<path
         d="m 174.55187,107.92973 20,0"
         style="fill:none;stroke:#ff7f0e;stroke-width:1.5;stroke-linecap:square;stroke-linejoin:round;stroke-miterlimit:10;stroke-dasharray:none;stroke-opacity:1"
         id="path6334"
         inkscape:connector-curvature="0" /><path
         d="m 184.55187,110.92973 -3,-6 6,0 -3,6 z"
         style="fill:#ff7f0e;fill-opacity:1;fill-rule:nonzero;stroke:#ff7f0e;stroke-width:1;stroke-linecap:butt;stroke-linejoin:miter;stroke-miterlimit:10;stroke-dasharray:none;stroke-opacity:1"
         id="path6336"
         inkscape:connector-curvature="0" /><text
         transform="matrix(1,0,0,-1,202.55187,104.42973)"
         style="font-variant:normal;font-weight:normal;font-size:10px;font-family:'DejaVu Sans';-inkscape-font-specification:DejaVuSans;writing-mode:lr-tb;fill:#000000;fill-opacity:1;fill-rule:nonzero;stroke:none"
         id="text6338"><tspan
           x="0 6.98 11.98 18.33 24.48 28.59 34.740002 40.240002 46.580002 52.919998 59.07 62.990002 66.169998 72.529999 78.889999"
           y="0"
           sodipodi:role="line"
           id="tspan6340">C_berechnet,60C</tspan></text>
<path
         d="m 297.77062,51.529345 3.5,0"
         style="fill:#008000;fill-opacity:1;fill-rule:nonzero;stroke:#008000;stroke-width:0.80000001;stroke-linecap:butt;stroke-linejoin:round;stroke-miterlimit:10;stroke-dasharray:none;stroke-opacity:1"
         id="path6342"
         inkscape:connector-curvature="0" /><text
         transform="matrix(1,0,0,-1,304.77062,47.73247)"
         style="font-variant:normal;font-weight:normal;font-size:10px;font-family:'DejaVu Sans';-inkscape-font-specification:DejaVuSans;writing-mode:lr-tb;fill:#008000;fill-opacity:1;fill-rule:nonzero;stroke:none"
         id="text6344"><tspan
           x="0 6.3600001 12.72"
           y="0"
           sodipodi:role="line"
           id="tspan6346">100</tspan></text>
<path
         d="m 297.77062,88.303507 3.5,0"
         style="fill:#008000;fill-opacity:1;fill-rule:nonzero;stroke:#008000;stroke-width:0.80000001;stroke-linecap:butt;stroke-linejoin:round;stroke-miterlimit:10;stroke-dasharray:none;stroke-opacity:1"
         id="path6348"
         inkscape:connector-curvature="0" /><text
         transform="matrix(1,0,0,-1,304.77062,84.506632)"
         style="font-variant:normal;font-weight:normal;font-size:10px;font-family:'DejaVu Sans';-inkscape-font-specification:DejaVuSans;writing-mode:lr-tb;fill:#008000;fill-opacity:1;fill-rule:nonzero;stroke:none"
         id="text6350"><tspan
           x="0 6.3600001 12.72"
           y="0"
           sodipodi:role="line"
           id="tspan6352">150</tspan></text>
<path
         d="m 297.77062,125.07767 3.5,0"
         style="fill:#008000;fill-opacity:1;fill-rule:nonzero;stroke:#008000;stroke-width:0.80000001;stroke-linecap:butt;stroke-linejoin:round;stroke-miterlimit:10;stroke-dasharray:none;stroke-opacity:1"
         id="path6354"
         inkscape:connector-curvature="0" /><text
         transform="matrix(1,0,0,-1,304.77062,121.28079)"
         style="font-variant:normal;font-weight:normal;font-size:10px;font-family:'DejaVu Sans';-inkscape-font-specification:DejaVuSans;writing-mode:lr-tb;fill:#008000;fill-opacity:1;fill-rule:nonzero;stroke:none"
         id="text6356"><tspan
           x="0 6.3600001 12.72"
           y="0"
           sodipodi:role="line"
           id="tspan6358">200</tspan></text>
<path
         d="m 297.77062,161.85183 3.5,0"
         style="fill:#008000;fill-opacity:1;fill-rule:nonzero;stroke:#008000;stroke-width:0.80000001;stroke-linecap:butt;stroke-linejoin:round;stroke-miterlimit:10;stroke-dasharray:none;stroke-opacity:1"
         id="path6360"
         inkscape:connector-curvature="0" /><text
         transform="matrix(1,0,0,-1,304.77062,158.05496)"
         style="font-variant:normal;font-weight:normal;font-size:10px;font-family:'DejaVu Sans';-inkscape-font-specification:DejaVuSans;writing-mode:lr-tb;fill:#008000;fill-opacity:1;fill-rule:nonzero;stroke:none"
         id="text6362"><tspan
           x="0 6.3600001 12.72"
           y="0"
           sodipodi:role="line"
           id="tspan6364">250</tspan></text>
<path
         d="m 297.77062,198.62599 3.5,0"
         style="fill:#008000;fill-opacity:1;fill-rule:nonzero;stroke:#008000;stroke-width:0.80000001;stroke-linecap:butt;stroke-linejoin:round;stroke-miterlimit:10;stroke-dasharray:none;stroke-opacity:1"
         id="path6366"
         inkscape:connector-curvature="0" /><text
         transform="matrix(1,0,0,-1,304.77062,194.82912)"
         style="font-variant:normal;font-weight:normal;font-size:10px;font-family:'DejaVu Sans';-inkscape-font-specification:DejaVuSans;writing-mode:lr-tb;fill:#008000;fill-opacity:1;fill-rule:nonzero;stroke:none"
         id="text6368"><tspan
           x="0 6.3600001 12.72"
           y="0"
           sodipodi:role="line"
           id="tspan6370">300</tspan></text>
<text
         transform="matrix(0,1,1,0,335.4425,90.44536)"
         style="font-variant:normal;font-weight:normal;font-size:10px;font-family:'DejaVu Sans';-inkscape-font-specification:DejaVuSans;writing-mode:lr-tb;fill:#008000;fill-opacity:1;fill-rule:nonzero;stroke:none"
         id="text6372"><tspan
           x="0 5.75 8.5299997 11.31 21.049999 24.23 28.129999 34.470001 44.209999"
           y="0"
           sodipodi:role="line"
           id="tspan6374">Film [nm]</tspan></text>
</g><g
       id="g6376"><g
         id="g6378"
         clip-path="url(#clipPath6380)"><path
           d="m 45.407898,37.996453 10.119808,11.252894 33.395369,35.08255 27.576475,24.712233 92.84925,59.57415 76.40455,22.43224"
           style="fill:none;stroke:#008000;stroke-width:1.5;stroke-linecap:square;stroke-linejoin:round;stroke-miterlimit:10;stroke-dasharray:none;stroke-opacity:1"
           id="path6384"
           inkscape:connector-curvature="0" /><g
           id="g6386"
           transform="translate(45.407898,37.996453)"><g
             id="g6388"><g
               id="g6390"
               clip-path="url(#clipPath6392)"><path
                 d="m 0,3 -0.673542,-2.072949 -2.179628,0 1.763356,-1.281153 L -1.763356,-2.427051 0,-1.145898 1.763356,-2.427051 1.089814,-0.354102 2.85317,0.927051 l -2.179628,0 L 0,3 Z"
                 style="fill:#008000;fill-opacity:1;fill-rule:nonzero;stroke:#008000;stroke-width:1;stroke-linecap:butt;stroke-linejoin:bevel;stroke-miterlimit:10;stroke-dasharray:none;stroke-opacity:1"
                 id="path6396"
                 inkscape:connector-curvature="0" /></g></g><g
             id="g6398"
             transform="translate(10.119809,11.252894)"><g
               id="g6400"><g
                 id="g6402"
                 clip-path="url(#clipPath6404)"><path
                   d="m 0,3 -0.673542,-2.072949 -2.179628,0 1.763356,-1.281153 L -1.763356,-2.427051 0,-1.145898 1.763356,-2.427051 1.089814,-0.354102 2.85317,0.927051 l -2.179628,0 L 0,3 Z"
                   style="fill:#008000;fill-opacity:1;fill-rule:nonzero;stroke:#008000;stroke-width:1;stroke-linecap:butt;stroke-linejoin:bevel;stroke-miterlimit:10;stroke-dasharray:none;stroke-opacity:1"
                   id="path6408"
                   inkscape:connector-curvature="0" /></g></g><g
               id="g6410"
               transform="translate(33.395368,35.082551)"><g
                 id="g6412"><g
                   id="g6414"
                   clip-path="url(#clipPath6416)"><path
                     d="m 0,3 -0.673542,-2.072949 -2.179628,0 1.763356,-1.281153 L -1.763356,-2.427051 0,-1.145898 1.763356,-2.427051 1.089814,-0.354102 2.85317,0.927051 l -2.179628,0 L 0,3 Z"
                     style="fill:#008000;fill-opacity:1;fill-rule:nonzero;stroke:#008000;stroke-width:1;stroke-linecap:butt;stroke-linejoin:bevel;stroke-miterlimit:10;stroke-dasharray:none;stroke-opacity:1"
                     id="path6420"
                     inkscape:connector-curvature="0" /></g></g><g
                 id="g6422"
                 transform="translate(27.576478,24.712237)"><g
                   id="g6424"><g
                     id="g6426"
                     clip-path="url(#clipPath6428)"><path
                       d="m 0,3 -0.673542,-2.072949 -2.179628,0 1.763356,-1.281153 L -1.763356,-2.427051 0,-1.145898 1.763356,-2.427051 1.089814,-0.354102 2.85317,0.927051 l -2.179628,0 L 0,3 Z"
                       style="fill:#008000;fill-opacity:1;fill-rule:nonzero;stroke:#008000;stroke-width:1;stroke-linecap:butt;stroke-linejoin:bevel;stroke-miterlimit:10;stroke-dasharray:none;stroke-opacity:1"
                       id="path6432"
                       inkscape:connector-curvature="0" /></g></g><g
                   id="g6434"
                   transform="translate(92.849244,59.574143)"><g
                     id="g6436"><g
                       id="g6438"
                       clip-path="url(#clipPath6440)"><path
                         d="m 0,3 -0.673542,-2.072949 -2.179628,0 1.763356,-1.281153 L -1.763356,-2.427051 0,-1.145898 1.763356,-2.427051 1.089814,-0.354102 2.85317,0.927051 l -2.179628,0 L 0,3 Z"
                         style="fill:#008000;fill-opacity:1;fill-rule:nonzero;stroke:#008000;stroke-width:1;stroke-linecap:butt;stroke-linejoin:bevel;stroke-miterlimit:10;stroke-dasharray:none;stroke-opacity:1"
                         id="path6444"
                         inkscape:connector-curvature="0" /></g></g><g
                     id="g6446"
                     transform="translate(76.404555,22.432239)"><g
                       id="g6448"><g
                         id="g6450"
                         clip-path="url(#clipPath6452)"><path
                           d="m 0,3 -0.673542,-2.072949 -2.179628,0 1.763356,-1.281153 L -1.763356,-2.427051 0,-1.145898 1.763356,-2.427051 1.089814,-0.354102 2.85317,0.927051 l -2.179628,0 L 0,3 Z"
                           style="fill:#008000;fill-opacity:1;fill-rule:nonzero;stroke:#008000;stroke-width:1;stroke-linecap:butt;stroke-linejoin:bevel;stroke-miterlimit:10;stroke-dasharray:none;stroke-opacity:1"
                           id="path6456"
                           inkscape:connector-curvature="0" /></g></g></g></g></g></g></g></g></g></g><g
       id="g6458"><path
         d="m 33.390625,30.34375 0,168.35947"
         style="fill:none;stroke:#000000;stroke-width:0.80000001;stroke-linecap:square;stroke-linejoin:miter;stroke-miterlimit:10;stroke-dasharray:none;stroke-opacity:1"
         id="path6460"
         inkscape:connector-curvature="0" /><path
         d="m 297.77062,30.34375 0,168.35947"
         style="fill:none;stroke:#000000;stroke-width:0.80000001;stroke-linecap:square;stroke-linejoin:miter;stroke-miterlimit:10;stroke-dasharray:none;stroke-opacity:1"
         id="path6462"
         inkscape:connector-curvature="0" /><path
         d="m 33.390625,30.34375 264.379995,0"
         style="fill:none;stroke:#000000;stroke-width:0.80000001;stroke-linecap:square;stroke-linejoin:miter;stroke-miterlimit:10;stroke-dasharray:none;stroke-opacity:1"
         id="path6464"
         inkscape:connector-curvature="0" /><path
         d="m 33.390625,198.70322 264.379995,0"
         style="fill:none;stroke:#000000;stroke-width:0.80000001;stroke-linecap:square;stroke-linejoin:miter;stroke-miterlimit:10;stroke-dasharray:none;stroke-opacity:1"
         id="path6466"
         inkscape:connector-curvature="0" /></g></g></svg>