<?xml version="1.0" encoding="UTF-8" standalone="no"?>
<!-- Created with Inkscape (http://www.inkscape.org/) -->

<svg
   xmlns:dc="http://purl.org/dc/elements/1.1/"
   xmlns:cc="http://creativecommons.org/ns#"
   xmlns:rdf="http://www.w3.org/1999/02/22-rdf-syntax-ns#"
   xmlns:svg="http://www.w3.org/2000/svg"
   xmlns="http://www.w3.org/2000/svg"
   xmlns:sodipodi="http://sodipodi.sourceforge.net/DTD/sodipodi-0.dtd"
   xmlns:inkscape="http://www.inkscape.org/namespaces/inkscape"
   id="svg5568"
   version="1.1"
   inkscape:version="0.91 r13725"
   xml:space="preserve"
   width="422.13437"
   height="254.4547"
   viewBox="0 0 422.13437 254.4547"
   sodipodi:docname="cap_theo_meas_vs_speed_40C.pdf"><metadata
     id="metadata5574"><rdf:RDF><cc:Work
         rdf:about=""><dc:format>image/svg+xml</dc:format><dc:type
           rdf:resource="http://purl.org/dc/dcmitype/StillImage" /><dc:title></dc:title></cc:Work></rdf:RDF></metadata><defs
     id="defs5572"><clipPath
       clipPathUnits="userSpaceOnUse"
       id="clipPath5678"><path
         d="m 42.9375,30.34375 255.02,0 0,169.72 -255.02,0 0,-169.72 z"
         id="path5680"
         inkscape:connector-curvature="0" /></clipPath><clipPath
       clipPathUnits="userSpaceOnUse"
       id="clipPath5690"><path
         d="m -3.5,-3.5 7,0 0,7 -7,0 0,-7 z"
         id="path5692"
         inkscape:connector-curvature="0" /></clipPath><clipPath
       clipPathUnits="userSpaceOnUse"
       id="clipPath5702"><path
         d="m -3.5,-3.5 7,0 0,7 -7,0 0,-7 z"
         id="path5704"
         inkscape:connector-curvature="0" /></clipPath><clipPath
       clipPathUnits="userSpaceOnUse"
       id="clipPath5714"><path
         d="m -3.5,-3.5 7,0 0,7 -7,0 0,-7 z"
         id="path5716"
         inkscape:connector-curvature="0" /></clipPath><clipPath
       clipPathUnits="userSpaceOnUse"
       id="clipPath5726"><path
         d="m -3.5,-3.5 7,0 0,7 -7,0 0,-7 z"
         id="path5728"
         inkscape:connector-curvature="0" /></clipPath><clipPath
       clipPathUnits="userSpaceOnUse"
       id="clipPath5738"><path
         d="m -3.5,-3.5 7,0 0,7 -7,0 0,-7 z"
         id="path5740"
         inkscape:connector-curvature="0" /></clipPath><clipPath
       clipPathUnits="userSpaceOnUse"
       id="clipPath5750"><path
         d="m -3.5,-3.5 7,0 0,7 -7,0 0,-7 z"
         id="path5752"
         inkscape:connector-curvature="0" /></clipPath><clipPath
       clipPathUnits="userSpaceOnUse"
       id="clipPath5762"><path
         d="m -3.5,-3.5 7,0 0,7 -7,0 0,-7 z"
         id="path5764"
         inkscape:connector-curvature="0" /></clipPath><clipPath
       clipPathUnits="userSpaceOnUse"
       id="clipPath5772"><path
         d="m 42.9375,30.34375 255.02,0 0,169.72 -255.02,0 0,-169.72 z"
         id="path5774"
         inkscape:connector-curvature="0" /></clipPath><clipPath
       clipPathUnits="userSpaceOnUse"
       id="clipPath5784"><path
         d="m -3.5,-3.5 7,0 0,7 -7,0 0,-7 z"
         id="path5786"
         inkscape:connector-curvature="0" /></clipPath><clipPath
       clipPathUnits="userSpaceOnUse"
       id="clipPath5796"><path
         d="m -3.5,-3.5 7,0 0,7 -7,0 0,-7 z"
         id="path5798"
         inkscape:connector-curvature="0" /></clipPath><clipPath
       clipPathUnits="userSpaceOnUse"
       id="clipPath5808"><path
         d="m -3.5,-3.5 7,0 0,7 -7,0 0,-7 z"
         id="path5810"
         inkscape:connector-curvature="0" /></clipPath><clipPath
       clipPathUnits="userSpaceOnUse"
       id="clipPath5820"><path
         d="m -3.5,-3.5 7,0 0,7 -7,0 0,-7 z"
         id="path5822"
         inkscape:connector-curvature="0" /></clipPath><clipPath
       clipPathUnits="userSpaceOnUse"
       id="clipPath5832"><path
         d="m -3.5,-3.5 7,0 0,7 -7,0 0,-7 z"
         id="path5834"
         inkscape:connector-curvature="0" /></clipPath><clipPath
       clipPathUnits="userSpaceOnUse"
       id="clipPath5844"><path
         d="m -3.5,-3.5 7,0 0,7 -7,0 0,-7 z"
         id="path5846"
         inkscape:connector-curvature="0" /></clipPath><clipPath
       clipPathUnits="userSpaceOnUse"
       id="clipPath5856"><path
         d="m -3.5,-3.5 7,0 0,7 -7,0 0,-7 z"
         id="path5858"
         inkscape:connector-curvature="0" /></clipPath><clipPath
       clipPathUnits="userSpaceOnUse"
       id="clipPath5928"><path
         d="m 42.9375,30.34375 255.02,0 0,169.72 -255.02,0 0,-169.72 z"
         id="path5930"
         inkscape:connector-curvature="0" /></clipPath><clipPath
       clipPathUnits="userSpaceOnUse"
       id="clipPath5940"><path
         d="m -3.3531695,-2.927051 6.706339,0 0,6.427051 -6.706339,0 0,-6.427051 z"
         id="path5942"
         inkscape:connector-curvature="0" /></clipPath><clipPath
       clipPathUnits="userSpaceOnUse"
       id="clipPath5952"><path
         d="m -3.3531695,-2.927051 6.706339,0 0,6.427051 -6.706339,0 0,-6.427051 z"
         id="path5954"
         inkscape:connector-curvature="0" /></clipPath><clipPath
       clipPathUnits="userSpaceOnUse"
       id="clipPath5964"><path
         d="m -3.3531695,-2.927051 6.706339,0 0,6.427051 -6.706339,0 0,-6.427051 z"
         id="path5966"
         inkscape:connector-curvature="0" /></clipPath><clipPath
       clipPathUnits="userSpaceOnUse"
       id="clipPath5976"><path
         d="m -3.3531695,-2.927051 6.706339,0 0,6.427051 -6.706339,0 0,-6.427051 z"
         id="path5978"
         inkscape:connector-curvature="0" /></clipPath><clipPath
       clipPathUnits="userSpaceOnUse"
       id="clipPath5988"><path
         d="m -3.3531695,-2.927051 6.706339,0 0,6.427051 -6.706339,0 0,-6.427051 z"
         id="path5990"
         inkscape:connector-curvature="0" /></clipPath><clipPath
       clipPathUnits="userSpaceOnUse"
       id="clipPath6000"><path
         d="m -3.3531695,-2.927051 6.706339,0 0,6.427051 -6.706339,0 0,-6.427051 z"
         id="path6002"
         inkscape:connector-curvature="0" /></clipPath><clipPath
       clipPathUnits="userSpaceOnUse"
       id="clipPath6012"><path
         d="m -3.3531695,-2.927051 6.706339,0 0,6.427051 -6.706339,0 0,-6.427051 z"
         id="path6014"
         inkscape:connector-curvature="0" /></clipPath></defs><sodipodi:namedview
     pagecolor="#ffffff"
     bordercolor="#666666"
     borderopacity="1"
     objecttolerance="10"
     gridtolerance="10"
     guidetolerance="10"
     inkscape:pageopacity="0"
     inkscape:pageshadow="2"
     inkscape:window-width="1855"
     inkscape:window-height="1056"
     id="namedview5570"
     showgrid="false"
     inkscape:zoom="3.2548878"
     inkscape:cx="211.06718"
     inkscape:cy="127.22735"
     inkscape:window-x="65"
     inkscape:window-y="24"
     inkscape:window-maximized="1"
     inkscape:current-layer="g5576" /><g
     id="g5576"
     inkscape:groupmode="layer"
     inkscape:label="cap_theo_meas_vs_speed_40C"
     transform="matrix(1.25,0,0,-1.25,0,254.45469)"><path
       d="m 0,0 337.7075,0 0,203.56375 L 0,203.56375 0,0 Z"
       style="fill:#ffffff;fill-opacity:1;fill-rule:nonzero;stroke:none"
       id="path5578"
       inkscape:connector-curvature="0" /><path
       d="m 42.9375,30.34375 255.02,0 0,169.72 -255.02,0 0,-169.72 z"
       style="fill:#ffffff;fill-opacity:1;fill-rule:nonzero;stroke:none"
       id="path5580"
       inkscape:connector-curvature="0" /><path
       d="m 71.45168,30.34375 0,-3.5"
       style="fill:#000000;fill-opacity:1;fill-rule:nonzero;stroke:#000000;stroke-width:0.80000001;stroke-linecap:butt;stroke-linejoin:round;stroke-miterlimit:10;stroke-dasharray:none;stroke-opacity:1"
       id="path5582"
       inkscape:connector-curvature="0" /><text
       transform="matrix(1,0,0,-1,63.498555,15.75)"
       style="font-variant:normal;font-weight:normal;font-size:10px;font-family:'DejaVu Sans';-inkscape-font-specification:DejaVuSans;writing-mode:lr-tb;fill:#000000;fill-opacity:1;fill-rule:nonzero;stroke:none"
       id="text5584"><tspan
         x="0 6.3600001 9.54"
         y="0"
         sodipodi:role="line"
         id="tspan5586">0.2</tspan></text>
<path
       d="m 105.29641,30.34375 0,-3.5"
       style="fill:#000000;fill-opacity:1;fill-rule:nonzero;stroke:#000000;stroke-width:0.80000001;stroke-linecap:butt;stroke-linejoin:round;stroke-miterlimit:10;stroke-dasharray:none;stroke-opacity:1"
       id="path5588"
       inkscape:connector-curvature="0" /><text
       transform="matrix(1,0,0,-1,97.34328,15.75)"
       style="font-variant:normal;font-weight:normal;font-size:10px;font-family:'DejaVu Sans';-inkscape-font-specification:DejaVuSans;writing-mode:lr-tb;fill:#000000;fill-opacity:1;fill-rule:nonzero;stroke:none"
       id="text5590"><tspan
         x="0 6.3600001 9.54"
         y="0"
         sodipodi:role="line"
         id="tspan5592">0.4</tspan></text>
<path
       d="m 139.14113,30.34375 0,-3.5"
       style="fill:#000000;fill-opacity:1;fill-rule:nonzero;stroke:#000000;stroke-width:0.80000001;stroke-linecap:butt;stroke-linejoin:round;stroke-miterlimit:10;stroke-dasharray:none;stroke-opacity:1"
       id="path5594"
       inkscape:connector-curvature="0" /><text
       transform="matrix(1,0,0,-1,131.188,15.75)"
       style="font-variant:normal;font-weight:normal;font-size:10px;font-family:'DejaVu Sans';-inkscape-font-specification:DejaVuSans;writing-mode:lr-tb;fill:#000000;fill-opacity:1;fill-rule:nonzero;stroke:none"
       id="text5596"><tspan
         x="0 6.3600001 9.54"
         y="0"
         sodipodi:role="line"
         id="tspan5598">0.6</tspan></text>
<path
       d="m 172.98585,30.34375 0,-3.5"
       style="fill:#000000;fill-opacity:1;fill-rule:nonzero;stroke:#000000;stroke-width:0.80000001;stroke-linecap:butt;stroke-linejoin:round;stroke-miterlimit:10;stroke-dasharray:none;stroke-opacity:1"
       id="path5600"
       inkscape:connector-curvature="0" /><text
       transform="matrix(1,0,0,-1,165.03273,15.75)"
       style="font-variant:normal;font-weight:normal;font-size:10px;font-family:'DejaVu Sans';-inkscape-font-specification:DejaVuSans;writing-mode:lr-tb;fill:#000000;fill-opacity:1;fill-rule:nonzero;stroke:none"
       id="text5602"><tspan
         x="0 6.3600001 9.54"
         y="0"
         sodipodi:role="line"
         id="tspan5604">0.8</tspan></text>
<path
       d="m 206.83058,30.34375 0,-3.5"
       style="fill:#000000;fill-opacity:1;fill-rule:nonzero;stroke:#000000;stroke-width:0.80000001;stroke-linecap:butt;stroke-linejoin:round;stroke-miterlimit:10;stroke-dasharray:none;stroke-opacity:1"
       id="path5606"
       inkscape:connector-curvature="0" /><text
       transform="matrix(1,0,0,-1,198.87745,15.75)"
       style="font-variant:normal;font-weight:normal;font-size:10px;font-family:'DejaVu Sans';-inkscape-font-specification:DejaVuSans;writing-mode:lr-tb;fill:#000000;fill-opacity:1;fill-rule:nonzero;stroke:none"
       id="text5608"><tspan
         x="0 6.3600001 9.54"
         y="0"
         sodipodi:role="line"
         id="tspan5610">1.0</tspan></text>
<path
       d="m 240.6753,30.34375 0,-3.5"
       style="fill:#000000;fill-opacity:1;fill-rule:nonzero;stroke:#000000;stroke-width:0.80000001;stroke-linecap:butt;stroke-linejoin:round;stroke-miterlimit:10;stroke-dasharray:none;stroke-opacity:1"
       id="path5612"
       inkscape:connector-curvature="0" /><text
       transform="matrix(1,0,0,-1,232.72218,15.75)"
       style="font-variant:normal;font-weight:normal;font-size:10px;font-family:'DejaVu Sans';-inkscape-font-specification:DejaVuSans;writing-mode:lr-tb;fill:#000000;fill-opacity:1;fill-rule:nonzero;stroke:none"
       id="text5614"><tspan
         x="0 6.3600001 9.54"
         y="0"
         sodipodi:role="line"
         id="tspan5616">1.2</tspan></text>
<path
       d="m 274.52003,30.34375 0,-3.5"
       style="fill:#000000;fill-opacity:1;fill-rule:nonzero;stroke:#000000;stroke-width:0.80000001;stroke-linecap:butt;stroke-linejoin:round;stroke-miterlimit:10;stroke-dasharray:none;stroke-opacity:1"
       id="path5618"
       inkscape:connector-curvature="0" /><text
       transform="matrix(1,0,0,-1,266.5669,15.75)"
       style="font-variant:normal;font-weight:normal;font-size:10px;font-family:'DejaVu Sans';-inkscape-font-specification:DejaVuSans;writing-mode:lr-tb;fill:#000000;fill-opacity:1;fill-rule:nonzero;stroke:none"
       id="text5620"><tspan
         x="0 6.3600001 9.54"
         y="0"
         sodipodi:role="line"
         id="tspan5622">1.4</tspan></text>
<text
       transform="matrix(1,0,0,-1,140.10375,2.078125)"
       style="font-variant:normal;font-weight:normal;font-size:10px;font-family:'DejaVu Sans';-inkscape-font-specification:DejaVuSans;writing-mode:lr-tb;fill:#000000;fill-opacity:1;fill-rule:nonzero;stroke:none"
       id="text5624"><tspan
         x="0 6.3499999 12.7 18.85 25 31.35 34.529999 38.43 48.169998 51.540001 56.75"
         y="0"
         sodipodi:role="line"
         id="tspan5626">Speed [m/s]</tspan></text>
<path
       d="m 42.9375,31.46419 -3.5,0"
       style="fill:#000000;fill-opacity:1;fill-rule:nonzero;stroke:#000000;stroke-width:0.80000001;stroke-linecap:butt;stroke-linejoin:round;stroke-miterlimit:10;stroke-dasharray:none;stroke-opacity:1"
       id="path5628"
       inkscape:connector-curvature="0" /><text
       transform="matrix(1,0,0,-1,20.03125,27.667315)"
       style="font-variant:normal;font-weight:normal;font-size:10px;font-family:'DejaVu Sans';-inkscape-font-specification:DejaVuSans;writing-mode:lr-tb;fill:#000000;fill-opacity:1;fill-rule:nonzero;stroke:none"
       id="text5630"><tspan
         x="0 6.3600001 9.54"
         y="0"
         sodipodi:role="line"
         id="tspan5632">0.0</tspan></text>
<path
       d="m 42.9375,57.415017 -3.5,0"
       style="fill:#000000;fill-opacity:1;fill-rule:nonzero;stroke:#000000;stroke-width:0.80000001;stroke-linecap:butt;stroke-linejoin:round;stroke-miterlimit:10;stroke-dasharray:none;stroke-opacity:1"
       id="path5634"
       inkscape:connector-curvature="0" /><text
       transform="matrix(1,0,0,-1,20.03125,53.618142)"
       style="font-variant:normal;font-weight:normal;font-size:10px;font-family:'DejaVu Sans';-inkscape-font-specification:DejaVuSans;writing-mode:lr-tb;fill:#000000;fill-opacity:1;fill-rule:nonzero;stroke:none"
       id="text5636"><tspan
         x="0 6.3600001 9.54"
         y="0"
         sodipodi:role="line"
         id="tspan5638">2.5</tspan></text>
<path
       d="m 42.9375,83.365844 -3.5,0"
       style="fill:#000000;fill-opacity:1;fill-rule:nonzero;stroke:#000000;stroke-width:0.80000001;stroke-linecap:butt;stroke-linejoin:round;stroke-miterlimit:10;stroke-dasharray:none;stroke-opacity:1"
       id="path5640"
       inkscape:connector-curvature="0" /><text
       transform="matrix(1,0,0,-1,20.03125,79.568969)"
       style="font-variant:normal;font-weight:normal;font-size:10px;font-family:'DejaVu Sans';-inkscape-font-specification:DejaVuSans;writing-mode:lr-tb;fill:#000000;fill-opacity:1;fill-rule:nonzero;stroke:none"
       id="text5642"><tspan
         x="0 6.3600001 9.54"
         y="0"
         sodipodi:role="line"
         id="tspan5644">5.0</tspan></text>
<path
       d="m 42.9375,109.31667 -3.5,0"
       style="fill:#000000;fill-opacity:1;fill-rule:nonzero;stroke:#000000;stroke-width:0.80000001;stroke-linecap:butt;stroke-linejoin:round;stroke-miterlimit:10;stroke-dasharray:none;stroke-opacity:1"
       id="path5646"
       inkscape:connector-curvature="0" /><text
       transform="matrix(1,0,0,-1,20.03125,105.5198)"
       style="font-variant:normal;font-weight:normal;font-size:10px;font-family:'DejaVu Sans';-inkscape-font-specification:DejaVuSans;writing-mode:lr-tb;fill:#000000;fill-opacity:1;fill-rule:nonzero;stroke:none"
       id="text5648"><tspan
         x="0 6.3600001 9.54"
         y="0"
         sodipodi:role="line"
         id="tspan5650">7.5</tspan></text>
<path
       d="m 42.9375,135.2675 -3.5,0"
       style="fill:#000000;fill-opacity:1;fill-rule:nonzero;stroke:#000000;stroke-width:0.80000001;stroke-linecap:butt;stroke-linejoin:round;stroke-miterlimit:10;stroke-dasharray:none;stroke-opacity:1"
       id="path5652"
       inkscape:connector-curvature="0" /><text
       transform="matrix(1,0,0,-1,13.671875,131.47062)"
       style="font-variant:normal;font-weight:normal;font-size:10px;font-family:'DejaVu Sans';-inkscape-font-specification:DejaVuSans;writing-mode:lr-tb;fill:#000000;fill-opacity:1;fill-rule:nonzero;stroke:none"
       id="text5654"><tspan
         x="0 6.3600001 12.72 15.9"
         y="0"
         sodipodi:role="line"
         id="tspan5656">10.0</tspan></text>
<path
       d="m 42.9375,161.21832 -3.5,0"
       style="fill:#000000;fill-opacity:1;fill-rule:nonzero;stroke:#000000;stroke-width:0.80000001;stroke-linecap:butt;stroke-linejoin:round;stroke-miterlimit:10;stroke-dasharray:none;stroke-opacity:1"
       id="path5658"
       inkscape:connector-curvature="0" /><text
       transform="matrix(1,0,0,-1,13.671875,157.42145)"
       style="font-variant:normal;font-weight:normal;font-size:10px;font-family:'DejaVu Sans';-inkscape-font-specification:DejaVuSans;writing-mode:lr-tb;fill:#000000;fill-opacity:1;fill-rule:nonzero;stroke:none"
       id="text5660"><tspan
         x="0 6.3600001 12.72 15.9"
         y="0"
         sodipodi:role="line"
         id="tspan5662">12.5</tspan></text>
<path
       d="m 42.9375,187.16915 -3.5,0"
       style="fill:#000000;fill-opacity:1;fill-rule:nonzero;stroke:#000000;stroke-width:0.80000001;stroke-linecap:butt;stroke-linejoin:round;stroke-miterlimit:10;stroke-dasharray:none;stroke-opacity:1"
       id="path5664"
       inkscape:connector-curvature="0" /><text
       transform="matrix(1,0,0,-1,13.671875,183.37228)"
       style="font-variant:normal;font-weight:normal;font-size:10px;font-family:'DejaVu Sans';-inkscape-font-specification:DejaVuSans;writing-mode:lr-tb;fill:#000000;fill-opacity:1;fill-rule:nonzero;stroke:none"
       id="text5666"><tspan
         x="0 6.3600001 12.72 15.9"
         y="0"
         sodipodi:role="line"
         id="tspan5668">15.0</tspan></text>
<text
       transform="matrix(0,1,1,0,7.59375,93.930312)"
       style="font-variant:normal;font-weight:normal;font-size:10px;font-family:'DejaVu Sans';-inkscape-font-specification:DejaVuSans;writing-mode:lr-tb;fill:#000000;fill-opacity:1;fill-rule:nonzero;stroke:none"
       id="text5670"><tspan
         x="0 6.98 13.11 19.459999 22.639999 26.540001 32.889999 38.639999"
         y="0"
         sodipodi:role="line"
         id="tspan5672">Cap [pF]</tspan></text>
<g
       id="g5674"><g
         id="g5676"
         clip-path="url(#clipPath5678)"><path
           d="m 54.529318,170.90369 6.768945,-40.38779 22.337518,-15.63641 18.445379,-18.589096 62.10507,-41.798997 51.10553,-6.626803 71.07392,-9.806299"
           style="fill:none;stroke:#1f77b4;stroke-width:1.5;stroke-linecap:square;stroke-linejoin:round;stroke-miterlimit:10;stroke-dasharray:none;stroke-opacity:1"
           id="path5682"
           inkscape:connector-curvature="0" /><g
           id="g5684"
           transform="translate(54.529318,170.90369)"><g
             id="g5686"><g
               id="g5688"
               clip-path="url(#clipPath5690)"><path
                 d="m -3,-3 6,0 0,6 -6,0 0,-6 z"
                 style="fill:#1f77b4;fill-opacity:1;fill-rule:nonzero;stroke:#1f77b4;stroke-width:1;stroke-linecap:butt;stroke-linejoin:miter;stroke-miterlimit:10;stroke-dasharray:none;stroke-opacity:1"
                 id="path5694"
                 inkscape:connector-curvature="0" /></g></g><g
             id="g5696"
             transform="translate(6.7689449,-40.387791)"><g
               id="g5698"><g
                 id="g5700"
                 clip-path="url(#clipPath5702)"><path
                   d="m -3,-3 6,0 0,6 -6,0 0,-6 z"
                   style="fill:#1f77b4;fill-opacity:1;fill-rule:nonzero;stroke:#1f77b4;stroke-width:1;stroke-linecap:butt;stroke-linejoin:miter;stroke-miterlimit:10;stroke-dasharray:none;stroke-opacity:1"
                   id="path5706"
                   inkscape:connector-curvature="0" /></g></g><g
               id="g5708"
               transform="translate(22.337518,-15.636411)"><g
                 id="g5710"><g
                   id="g5712"
                   clip-path="url(#clipPath5714)"><path
                     d="m -3,-3 6,0 0,6 -6,0 0,-6 z"
                     style="fill:#1f77b4;fill-opacity:1;fill-rule:nonzero;stroke:#1f77b4;stroke-width:1;stroke-linecap:butt;stroke-linejoin:miter;stroke-miterlimit:10;stroke-dasharray:none;stroke-opacity:1"
                     id="path5718"
                     inkscape:connector-curvature="0" /></g></g><g
                 id="g5720"
                 transform="translate(18.445375,-18.589096)"><g
                   id="g5722"><g
                     id="g5724"
                     clip-path="url(#clipPath5726)"><path
                       d="m -3,-3 6,0 0,6 -6,0 0,-6 z"
                       style="fill:#1f77b4;fill-opacity:1;fill-rule:nonzero;stroke:#1f77b4;stroke-width:1;stroke-linecap:butt;stroke-linejoin:miter;stroke-miterlimit:10;stroke-dasharray:none;stroke-opacity:1"
                       id="path5730"
                       inkscape:connector-curvature="0" /></g></g><g
                   id="g5732"
                   transform="translate(62.10507,-41.798997)"><g
                     id="g5734"><g
                       id="g5736"
                       clip-path="url(#clipPath5738)"><path
                         d="m -3,-3 6,0 0,6 -6,0 0,-6 z"
                         style="fill:#1f77b4;fill-opacity:1;fill-rule:nonzero;stroke:#1f77b4;stroke-width:1;stroke-linecap:butt;stroke-linejoin:miter;stroke-miterlimit:10;stroke-dasharray:none;stroke-opacity:1"
                         id="path5742"
                         inkscape:connector-curvature="0" /></g></g><g
                     id="g5744"
                     transform="translate(51.105534,-6.6268032)"><g
                       id="g5746"><g
                         id="g5748"
                         clip-path="url(#clipPath5750)"><path
                           d="m -3,-3 6,0 0,6 -6,0 0,-6 z"
                           style="fill:#1f77b4;fill-opacity:1;fill-rule:nonzero;stroke:#1f77b4;stroke-width:1;stroke-linecap:butt;stroke-linejoin:miter;stroke-miterlimit:10;stroke-dasharray:none;stroke-opacity:1"
                           id="path5754"
                           inkscape:connector-curvature="0" /></g></g><g
                       id="g5756"
                       transform="translate(71.073922,-9.8062985)"><g
                         id="g5758"><g
                           id="g5760"
                           clip-path="url(#clipPath5762)"><path
                             d="m -3,-3 6,0 0,6 -6,0 0,-6 z"
                             style="fill:#1f77b4;fill-opacity:1;fill-rule:nonzero;stroke:#1f77b4;stroke-width:1;stroke-linecap:butt;stroke-linejoin:miter;stroke-miterlimit:10;stroke-dasharray:none;stroke-opacity:1"
                             id="path5766"
                             inkscape:connector-curvature="0" /></g></g></g></g></g></g></g></g></g></g></g><g
       id="g5768"><g
         id="g5770"
         clip-path="url(#clipPath5772)"><path
           d="M 54.529318,192.3492 61.298263,163.27073 83.635781,114.3807 102.08116,96.500311 164.18623,83.040662 215.29176,69.730604 286.36568,63.699485"
           style="fill:none;stroke:#ff7f0e;stroke-width:1.5;stroke-linecap:square;stroke-linejoin:round;stroke-miterlimit:10;stroke-dasharray:none;stroke-opacity:1"
           id="path5776"
           inkscape:connector-curvature="0" /><g
           id="g5778"
           transform="translate(54.529318,192.3492)"><g
             id="g5780"><g
               id="g5782"
               clip-path="url(#clipPath5784)"><path
                 d="M 0,3 -3,-3 3,-3 0,3 Z"
                 style="fill:#ff7f0e;fill-opacity:1;fill-rule:nonzero;stroke:#ff7f0e;stroke-width:1;stroke-linecap:butt;stroke-linejoin:miter;stroke-miterlimit:10;stroke-dasharray:none;stroke-opacity:1"
                 id="path5788"
                 inkscape:connector-curvature="0" /></g></g><g
             id="g5790"
             transform="translate(6.7689449,-29.078477)"><g
               id="g5792"><g
                 id="g5794"
                 clip-path="url(#clipPath5796)"><path
                   d="M 0,3 -3,-3 3,-3 0,3 Z"
                   style="fill:#ff7f0e;fill-opacity:1;fill-rule:nonzero;stroke:#ff7f0e;stroke-width:1;stroke-linecap:butt;stroke-linejoin:miter;stroke-miterlimit:10;stroke-dasharray:none;stroke-opacity:1"
                   id="path5800"
                   inkscape:connector-curvature="0" /></g></g><g
               id="g5802"
               transform="translate(22.337518,-48.89003)"><g
                 id="g5804"><g
                   id="g5806"
                   clip-path="url(#clipPath5808)"><path
                     d="M 0,3 -3,-3 3,-3 0,3 Z"
                     style="fill:#ff7f0e;fill-opacity:1;fill-rule:nonzero;stroke:#ff7f0e;stroke-width:1;stroke-linecap:butt;stroke-linejoin:miter;stroke-miterlimit:10;stroke-dasharray:none;stroke-opacity:1"
                     id="path5812"
                     inkscape:connector-curvature="0" /></g></g><g
                 id="g5814"
                 transform="translate(18.445375,-17.880387)"><g
                   id="g5816"><g
                     id="g5818"
                     clip-path="url(#clipPath5820)"><path
                       d="M 0,3 -3,-3 3,-3 0,3 Z"
                       style="fill:#ff7f0e;fill-opacity:1;fill-rule:nonzero;stroke:#ff7f0e;stroke-width:1;stroke-linecap:butt;stroke-linejoin:miter;stroke-miterlimit:10;stroke-dasharray:none;stroke-opacity:1"
                       id="path5824"
                       inkscape:connector-curvature="0" /></g></g><g
                   id="g5826"
                   transform="translate(62.10507,-13.459649)"><g
                     id="g5828"><g
                       id="g5830"
                       clip-path="url(#clipPath5832)"><path
                         d="M 0,3 -3,-3 3,-3 0,3 Z"
                         style="fill:#ff7f0e;fill-opacity:1;fill-rule:nonzero;stroke:#ff7f0e;stroke-width:1;stroke-linecap:butt;stroke-linejoin:miter;stroke-miterlimit:10;stroke-dasharray:none;stroke-opacity:1"
                         id="path5836"
                         inkscape:connector-curvature="0" /></g></g><g
                     id="g5838"
                     transform="translate(51.105534,-13.310057)"><g
                       id="g5840"><g
                         id="g5842"
                         clip-path="url(#clipPath5844)"><path
                           d="M 0,3 -3,-3 3,-3 0,3 Z"
                           style="fill:#ff7f0e;fill-opacity:1;fill-rule:nonzero;stroke:#ff7f0e;stroke-width:1;stroke-linecap:butt;stroke-linejoin:miter;stroke-miterlimit:10;stroke-dasharray:none;stroke-opacity:1"
                           id="path5848"
                           inkscape:connector-curvature="0" /></g></g><g
                       id="g5850"
                       transform="translate(71.073922,-6.0311196)"><g
                         id="g5852"><g
                           id="g5854"
                           clip-path="url(#clipPath5856)"><path
                             d="M 0,3 -3,-3 3,-3 0,3 Z"
                             style="fill:#ff7f0e;fill-opacity:1;fill-rule:nonzero;stroke:#ff7f0e;stroke-width:1;stroke-linecap:butt;stroke-linejoin:miter;stroke-miterlimit:10;stroke-dasharray:none;stroke-opacity:1"
                             id="path5860"
                             inkscape:connector-curvature="0" /></g></g></g></g></g></g></g></g></g></g></g><g
       id="g5862"><path
         d="m 42.9375,30.34375 0,169.72"
         style="fill:none;stroke:#000000;stroke-width:0.80000001;stroke-linecap:square;stroke-linejoin:miter;stroke-miterlimit:10;stroke-dasharray:none;stroke-opacity:1"
         id="path5864"
         inkscape:connector-curvature="0" /><path
         d="m 297.9575,30.34375 0,169.72"
         style="fill:none;stroke:#000000;stroke-width:0.80000001;stroke-linecap:square;stroke-linejoin:miter;stroke-miterlimit:10;stroke-dasharray:none;stroke-opacity:1"
         id="path5866"
         inkscape:connector-curvature="0" /><path
         d="m 42.9375,30.34375 255.02,0"
         style="fill:none;stroke:#000000;stroke-width:0.80000001;stroke-linecap:square;stroke-linejoin:miter;stroke-miterlimit:10;stroke-dasharray:none;stroke-opacity:1"
         id="path5868"
         inkscape:connector-curvature="0" /><path
         d="m 42.9375,200.06375 255.02,0"
         style="fill:none;stroke:#000000;stroke-width:0.80000001;stroke-linecap:square;stroke-linejoin:miter;stroke-miterlimit:10;stroke-dasharray:none;stroke-opacity:1"
         id="path5870"
         inkscape:connector-curvature="0" /><path
         d="m 111.33813,162.1575 118.21874,0 c 1.33334,0 2,0.66667 2,2 l 0,28.90625 c 0,1.33333 -0.66666,2 -2,2 l -118.21874,0 c -1.33334,0 -2,-0.66667 -2,-2 l 0,-28.90625 c 0,-1.33333 0.66666,-2 2,-2 z"
         style="fill:#ffffff;fill-opacity:0.8;fill-rule:nonzero;stroke:#cccccc;stroke-width:1;stroke-linecap:butt;stroke-linejoin:miter;stroke-miterlimit:10;stroke-dasharray:none;stroke-opacity:0.8"
         id="path5872"
         inkscape:connector-curvature="0" /><path
         d="m 113.33813,186.97 20,0"
         style="fill:none;stroke:#1f77b4;stroke-width:1.5;stroke-linecap:square;stroke-linejoin:round;stroke-miterlimit:10;stroke-dasharray:none;stroke-opacity:1"
         id="path5874"
         inkscape:connector-curvature="0" /><path
         d="m 120.33813,183.97 6,0 0,6 -6,0 0,-6 z"
         style="fill:#1f77b4;fill-opacity:1;fill-rule:nonzero;stroke:#1f77b4;stroke-width:1;stroke-linecap:butt;stroke-linejoin:miter;stroke-miterlimit:10;stroke-dasharray:none;stroke-opacity:1"
         id="path5876"
         inkscape:connector-curvature="0" /><text
         transform="matrix(1,0,0,-1,141.33813,183.47)"
         style="font-variant:normal;font-weight:normal;font-size:10px;font-family:'DejaVu Sans';-inkscape-font-specification:DejaVuSans;writing-mode:lr-tb;fill:#000000;fill-opacity:1;fill-rule:nonzero;stroke:none"
         id="text5878"><tspan
           x="0 6.98 11.98 18.33 24.48 34.220001 40.369999 45.580002 50.790001 56.939999 63.279999 66.459999 72.82 79.18"
           y="0"
           sodipodi:role="line"
           id="tspan5880">C_gemessen,40C</tspan></text>
<path
         d="m 113.33813,172.01687 20,0"
         style="fill:none;stroke:#ff7f0e;stroke-width:1.5;stroke-linecap:square;stroke-linejoin:round;stroke-miterlimit:10;stroke-dasharray:none;stroke-opacity:1"
         id="path5882"
         inkscape:connector-curvature="0" /><path
         d="m 123.33813,175.01687 -3,-6 6,0 -3,6 z"
         style="fill:#ff7f0e;fill-opacity:1;fill-rule:nonzero;stroke:#ff7f0e;stroke-width:1;stroke-linecap:butt;stroke-linejoin:miter;stroke-miterlimit:10;stroke-dasharray:none;stroke-opacity:1"
         id="path5884"
         inkscape:connector-curvature="0" /><text
         transform="matrix(1,0,0,-1,141.33813,168.51687)"
         style="font-variant:normal;font-weight:normal;font-size:10px;font-family:'DejaVu Sans';-inkscape-font-specification:DejaVuSans;writing-mode:lr-tb;fill:#000000;fill-opacity:1;fill-rule:nonzero;stroke:none"
         id="text5886"><tspan
           x="0 6.98 11.98 18.33 24.48 28.59 34.740002 40.240002 46.580002 52.919998 59.07 62.990002 66.169998 72.529999 78.889999"
           y="0"
           sodipodi:role="line"
           id="tspan5888">C_berechnet,40C</tspan></text>
<path
         d="m 297.9575,34.353077 3.5,0"
         style="fill:#008000;fill-opacity:1;fill-rule:nonzero;stroke:#008000;stroke-width:0.80000001;stroke-linecap:butt;stroke-linejoin:round;stroke-miterlimit:10;stroke-dasharray:none;stroke-opacity:1"
         id="path5890"
         inkscape:connector-curvature="0" /><text
         transform="matrix(1,0,0,-1,304.9575,30.556202)"
         style="font-variant:normal;font-weight:normal;font-size:10px;font-family:'DejaVu Sans';-inkscape-font-specification:DejaVuSans;writing-mode:lr-tb;fill:#008000;fill-opacity:1;fill-rule:nonzero;stroke:none"
         id="text5892"><tspan
           x="0 6.3600001 12.72"
           y="0"
           sodipodi:role="line"
           id="tspan5894">100</tspan></text>
<path
         d="m 297.9575,69.307972 3.5,0"
         style="fill:#008000;fill-opacity:1;fill-rule:nonzero;stroke:#008000;stroke-width:0.80000001;stroke-linecap:butt;stroke-linejoin:round;stroke-miterlimit:10;stroke-dasharray:none;stroke-opacity:1"
         id="path5896"
         inkscape:connector-curvature="0" /><text
         transform="matrix(1,0,0,-1,304.9575,65.511097)"
         style="font-variant:normal;font-weight:normal;font-size:10px;font-family:'DejaVu Sans';-inkscape-font-specification:DejaVuSans;writing-mode:lr-tb;fill:#008000;fill-opacity:1;fill-rule:nonzero;stroke:none"
         id="text5898"><tspan
           x="0 6.3600001 12.72"
           y="0"
           sodipodi:role="line"
           id="tspan5900">200</tspan></text>
<path
         d="m 297.9575,104.26287 3.5,0"
         style="fill:#008000;fill-opacity:1;fill-rule:nonzero;stroke:#008000;stroke-width:0.80000001;stroke-linecap:butt;stroke-linejoin:round;stroke-miterlimit:10;stroke-dasharray:none;stroke-opacity:1"
         id="path5902"
         inkscape:connector-curvature="0" /><text
         transform="matrix(1,0,0,-1,304.9575,100.46599)"
         style="font-variant:normal;font-weight:normal;font-size:10px;font-family:'DejaVu Sans';-inkscape-font-specification:DejaVuSans;writing-mode:lr-tb;fill:#008000;fill-opacity:1;fill-rule:nonzero;stroke:none"
         id="text5904"><tspan
           x="0 6.3600001 12.72"
           y="0"
           sodipodi:role="line"
           id="tspan5906">300</tspan></text>
<path
         d="m 297.9575,139.21776 3.5,0"
         style="fill:#008000;fill-opacity:1;fill-rule:nonzero;stroke:#008000;stroke-width:0.80000001;stroke-linecap:butt;stroke-linejoin:round;stroke-miterlimit:10;stroke-dasharray:none;stroke-opacity:1"
         id="path5908"
         inkscape:connector-curvature="0" /><text
         transform="matrix(1,0,0,-1,304.9575,135.42089)"
         style="font-variant:normal;font-weight:normal;font-size:10px;font-family:'DejaVu Sans';-inkscape-font-specification:DejaVuSans;writing-mode:lr-tb;fill:#008000;fill-opacity:1;fill-rule:nonzero;stroke:none"
         id="text5910"><tspan
           x="0 6.3600001 12.72"
           y="0"
           sodipodi:role="line"
           id="tspan5912">400</tspan></text>
<path
         d="m 297.9575,174.17266 3.5,0"
         style="fill:#008000;fill-opacity:1;fill-rule:nonzero;stroke:#008000;stroke-width:0.80000001;stroke-linecap:butt;stroke-linejoin:round;stroke-miterlimit:10;stroke-dasharray:none;stroke-opacity:1"
         id="path5914"
         inkscape:connector-curvature="0" /><text
         transform="matrix(1,0,0,-1,304.9575,170.37578)"
         style="font-variant:normal;font-weight:normal;font-size:10px;font-family:'DejaVu Sans';-inkscape-font-specification:DejaVuSans;writing-mode:lr-tb;fill:#008000;fill-opacity:1;fill-rule:nonzero;stroke:none"
         id="text5916"><tspan
           x="0 6.3600001 12.72"
           y="0"
           sodipodi:role="line"
           id="tspan5918">500</tspan></text>
<text
         transform="matrix(0,1,1,0,335.62937,91.125625)"
         style="font-variant:normal;font-weight:normal;font-size:10px;font-family:'DejaVu Sans';-inkscape-font-specification:DejaVuSans;writing-mode:lr-tb;fill:#008000;fill-opacity:1;fill-rule:nonzero;stroke:none"
         id="text5920"><tspan
           x="0 5.75 8.5299997 11.31 21.049999 24.23 28.129999 34.470001 44.209999"
           y="0"
           sodipodi:role="line"
           id="tspan5922">Film [nm]</tspan></text>
</g><g
       id="g5924"><g
         id="g5926"
         clip-path="url(#clipPath5928)"><path
           d="m 54.529318,38.058295 6.768945,8.528995 22.337518,27.824097 18.445379,20.623388 62.10507,24.957795 51.10553,41.94588 71.07392,30.41075"
           style="fill:none;stroke:#008000;stroke-width:1.5;stroke-linecap:square;stroke-linejoin:round;stroke-miterlimit:10;stroke-dasharray:none;stroke-opacity:1"
           id="path5932"
           inkscape:connector-curvature="0" /><g
           id="g5934"
           transform="translate(54.529318,38.058295)"><g
             id="g5936"><g
               id="g5938"
               clip-path="url(#clipPath5940)"><path
                 d="m 0,3 -0.673542,-2.072949 -2.179628,0 1.763356,-1.281153 L -1.763356,-2.427051 0,-1.145898 1.763356,-2.427051 1.089814,-0.354102 2.85317,0.927051 l -2.179628,0 L 0,3 Z"
                 style="fill:#008000;fill-opacity:1;fill-rule:nonzero;stroke:#008000;stroke-width:1;stroke-linecap:butt;stroke-linejoin:bevel;stroke-miterlimit:10;stroke-dasharray:none;stroke-opacity:1"
                 id="path5944"
                 inkscape:connector-curvature="0" /></g></g><g
             id="g5946"
             transform="translate(6.7689449,8.5289945)"><g
               id="g5948"><g
                 id="g5950"
                 clip-path="url(#clipPath5952)"><path
                   d="m 0,3 -0.673542,-2.072949 -2.179628,0 1.763356,-1.281153 L -1.763356,-2.427051 0,-1.145898 1.763356,-2.427051 1.089814,-0.354102 2.85317,0.927051 l -2.179628,0 L 0,3 Z"
                   style="fill:#008000;fill-opacity:1;fill-rule:nonzero;stroke:#008000;stroke-width:1;stroke-linecap:butt;stroke-linejoin:bevel;stroke-miterlimit:10;stroke-dasharray:none;stroke-opacity:1"
                   id="path5956"
                   inkscape:connector-curvature="0" /></g></g><g
               id="g5958"
               transform="translate(22.337518,27.824097)"><g
                 id="g5960"><g
                   id="g5962"
                   clip-path="url(#clipPath5964)"><path
                     d="m 0,3 -0.673542,-2.072949 -2.179628,0 1.763356,-1.281153 L -1.763356,-2.427051 0,-1.145898 1.763356,-2.427051 1.089814,-0.354102 2.85317,0.927051 l -2.179628,0 L 0,3 Z"
                     style="fill:#008000;fill-opacity:1;fill-rule:nonzero;stroke:#008000;stroke-width:1;stroke-linecap:butt;stroke-linejoin:bevel;stroke-miterlimit:10;stroke-dasharray:none;stroke-opacity:1"
                     id="path5968"
                     inkscape:connector-curvature="0" /></g></g><g
                 id="g5970"
                 transform="translate(18.445375,20.623388)"><g
                   id="g5972"><g
                     id="g5974"
                     clip-path="url(#clipPath5976)"><path
                       d="m 0,3 -0.673542,-2.072949 -2.179628,0 1.763356,-1.281153 L -1.763356,-2.427051 0,-1.145898 1.763356,-2.427051 1.089814,-0.354102 2.85317,0.927051 l -2.179628,0 L 0,3 Z"
                       style="fill:#008000;fill-opacity:1;fill-rule:nonzero;stroke:#008000;stroke-width:1;stroke-linecap:butt;stroke-linejoin:bevel;stroke-miterlimit:10;stroke-dasharray:none;stroke-opacity:1"
                       id="path5980"
                       inkscape:connector-curvature="0" /></g></g><g
                   id="g5982"
                   transform="translate(62.10507,24.957795)"><g
                     id="g5984"><g
                       id="g5986"
                       clip-path="url(#clipPath5988)"><path
                         d="m 0,3 -0.673542,-2.072949 -2.179628,0 1.763356,-1.281153 L -1.763356,-2.427051 0,-1.145898 1.763356,-2.427051 1.089814,-0.354102 2.85317,0.927051 l -2.179628,0 L 0,3 Z"
                         style="fill:#008000;fill-opacity:1;fill-rule:nonzero;stroke:#008000;stroke-width:1;stroke-linecap:butt;stroke-linejoin:bevel;stroke-miterlimit:10;stroke-dasharray:none;stroke-opacity:1"
                         id="path5992"
                         inkscape:connector-curvature="0" /></g></g><g
                     id="g5994"
                     transform="translate(51.105534,41.945875)"><g
                       id="g5996"><g
                         id="g5998"
                         clip-path="url(#clipPath6000)"><path
                           d="m 0,3 -0.673542,-2.072949 -2.179628,0 1.763356,-1.281153 L -1.763356,-2.427051 0,-1.145898 1.763356,-2.427051 1.089814,-0.354102 2.85317,0.927051 l -2.179628,0 L 0,3 Z"
                           style="fill:#008000;fill-opacity:1;fill-rule:nonzero;stroke:#008000;stroke-width:1;stroke-linecap:butt;stroke-linejoin:bevel;stroke-miterlimit:10;stroke-dasharray:none;stroke-opacity:1"
                           id="path6004"
                           inkscape:connector-curvature="0" /></g></g><g
                       id="g6006"
                       transform="translate(71.073922,30.410759)"><g
                         id="g6008"><g
                           id="g6010"
                           clip-path="url(#clipPath6012)"><path
                             d="m 0,3 -0.673542,-2.072949 -2.179628,0 1.763356,-1.281153 L -1.763356,-2.427051 0,-1.145898 1.763356,-2.427051 1.089814,-0.354102 2.85317,0.927051 l -2.179628,0 L 0,3 Z"
                             style="fill:#008000;fill-opacity:1;fill-rule:nonzero;stroke:#008000;stroke-width:1;stroke-linecap:butt;stroke-linejoin:bevel;stroke-miterlimit:10;stroke-dasharray:none;stroke-opacity:1"
                             id="path6016"
                             inkscape:connector-curvature="0" /></g></g></g></g></g></g></g></g></g></g></g><g
       id="g6018"><path
         d="m 42.9375,30.34375 0,169.72"
         style="fill:none;stroke:#000000;stroke-width:0.80000001;stroke-linecap:square;stroke-linejoin:miter;stroke-miterlimit:10;stroke-dasharray:none;stroke-opacity:1"
         id="path6020"
         inkscape:connector-curvature="0" /><path
         d="m 297.9575,30.34375 0,169.72"
         style="fill:none;stroke:#000000;stroke-width:0.80000001;stroke-linecap:square;stroke-linejoin:miter;stroke-miterlimit:10;stroke-dasharray:none;stroke-opacity:1"
         id="path6022"
         inkscape:connector-curvature="0" /><path
         d="m 42.9375,30.34375 255.02,0"
         style="fill:none;stroke:#000000;stroke-width:0.80000001;stroke-linecap:square;stroke-linejoin:miter;stroke-miterlimit:10;stroke-dasharray:none;stroke-opacity:1"
         id="path6024"
         inkscape:connector-curvature="0" /><path
         d="m 42.9375,200.06375 255.02,0"
         style="fill:none;stroke:#000000;stroke-width:0.80000001;stroke-linecap:square;stroke-linejoin:miter;stroke-miterlimit:10;stroke-dasharray:none;stroke-opacity:1"
         id="path6026"
         inkscape:connector-curvature="0" /></g></g></svg>