<?xml version="1.0" encoding="UTF-8" standalone="no"?>
<!-- Created with Inkscape (http://www.inkscape.org/) -->

<svg
   xmlns:dc="http://purl.org/dc/elements/1.1/"
   xmlns:cc="http://creativecommons.org/ns#"
   xmlns:rdf="http://www.w3.org/1999/02/22-rdf-syntax-ns#"
   xmlns:svg="http://www.w3.org/2000/svg"
   xmlns="http://www.w3.org/2000/svg"
   xmlns:sodipodi="http://sodipodi.sourceforge.net/DTD/sodipodi-0.dtd"
   xmlns:inkscape="http://www.inkscape.org/namespaces/inkscape"
   id="svg6914"
   version="1.1"
   inkscape:version="0.91 r13725"
   xml:space="preserve"
   width="460.62991"
   height="272.61243"
   viewBox="0 0 460.62991 272.61243"
   sodipodi:docname="differenzmessung_kuhlmann.svg"><sodipodi:namedview
     pagecolor="#ffffff"
     bordercolor="#666666"
     borderopacity="1"
     objecttolerance="10"
     gridtolerance="10"
     guidetolerance="10"
     inkscape:pageopacity="0"
     inkscape:pageshadow="2"
     inkscape:window-width="1855"
     inkscape:window-height="1176"
     id="namedview6916"
     showgrid="false"
     inkscape:zoom="0.8156082"
     inkscape:cx="235.81444"
     inkscape:cy="-34.980071"
     inkscape:window-x="65"
     inkscape:window-y="24"
     inkscape:window-maximized="1"
     inkscape:current-layer="layer6"
     fit-margin-top="0"
     fit-margin-left="0"
     fit-margin-right="0"
     fit-margin-bottom="0" /><metadata
     id="metadata6920"><rdf:RDF><cc:Work
         rdf:about=""><dc:format>image/svg+xml</dc:format><dc:type
           rdf:resource="http://purl.org/dc/dcmitype/StillImage" /><dc:title></dc:title></cc:Work></rdf:RDF></metadata><defs
     id="defs6918"><clipPath
       id="clipPath6938"
       clipPathUnits="userSpaceOnUse"><path
         inkscape:connector-curvature="0"
         id="path6940"
         d="m 121.98,575.9 348,0 0,0.12 -348,0 0,-0.12 z" /></clipPath><clipPath
       id="clipPath6948"
       clipPathUnits="userSpaceOnUse"><path
         inkscape:connector-curvature="0"
         id="path6950"
         d="m 121.98,596.3 348,0 0,0.12 -348,0 0,-0.12 z" /></clipPath><clipPath
       id="clipPath6958"
       clipPathUnits="userSpaceOnUse"><path
         inkscape:connector-curvature="0"
         id="path6960"
         d="m 121.98,616.76 348,0 0,0.12 -348,0 0,-0.12 z" /></clipPath><clipPath
       id="clipPath6968"
       clipPathUnits="userSpaceOnUse"><path
         inkscape:connector-curvature="0"
         id="path6970"
         d="m 121.98,637.22 348,0 0,0.12 -348,0 0,-0.12 z" /></clipPath><clipPath
       id="clipPath6978"
       clipPathUnits="userSpaceOnUse"><path
         inkscape:connector-curvature="0"
         id="path6980"
         d="m 121.98,657.62 348,0 0,0.12 -348,0 0,-0.12 z" /></clipPath><clipPath
       id="clipPath6988"
       clipPathUnits="userSpaceOnUse"><path
         inkscape:connector-curvature="0"
         id="path6990"
         d="m 121.98,678.14 348,0 0,0.0601 -348,0 0,-0.0601 z" /></clipPath><clipPath
       id="clipPath6998"
       clipPathUnits="userSpaceOnUse"><path
         inkscape:connector-curvature="0"
         id="path7000"
         d="m 121.98,698.6 348,0 0,0.12 -348,0 0,-0.12 z" /></clipPath><clipPath
       id="clipPath7008"
       clipPathUnits="userSpaceOnUse"><path
         inkscape:connector-curvature="0"
         id="path7010"
         d="m 121.98,719.06 348,0 0,0.12 -348,0 0,-0.12 z" /></clipPath><clipPath
       id="clipPath7018"
       clipPathUnits="userSpaceOnUse"><path
         inkscape:connector-curvature="0"
         id="path7020"
         d="m 121.98,739.46 348,0 0,0.12 -348,0 0,-0.12 z" /></clipPath><clipPath
       id="clipPath7028"
       clipPathUnits="userSpaceOnUse"><path
         inkscape:connector-curvature="0"
         id="path7030"
         d="m 121.98,759.92 348,0 0,0.12 -348,0 0,-0.12 z" /></clipPath><clipPath
       id="clipPath7038"
       clipPathUnits="userSpaceOnUse"><path
         inkscape:connector-curvature="0"
         id="path7040"
         d="m 191.58,555.5 0.12,0 0,204.48 -0.12,0 0,-204.48 z" /></clipPath><clipPath
       id="clipPath7048"
       clipPathUnits="userSpaceOnUse"><path
         inkscape:connector-curvature="0"
         id="path7050"
         d="m 261.18,555.5 0.12,0 0,204.48 -0.12,0 0,-204.48 z" /></clipPath><clipPath
       id="clipPath7058"
       clipPathUnits="userSpaceOnUse"><path
         inkscape:connector-curvature="0"
         id="path7060"
         d="m 330.78,555.5 0.12,0 0,204.48 -0.12,0 0,-204.48 z" /></clipPath><clipPath
       id="clipPath7068"
       clipPathUnits="userSpaceOnUse"><path
         inkscape:connector-curvature="0"
         id="path7070"
         d="m 400.38,555.5 0.12,0 0,204.48 -0.12,0 0,-204.48 z" /></clipPath><clipPath
       id="clipPath7078"
       clipPathUnits="userSpaceOnUse"><path
         inkscape:connector-curvature="0"
         id="path7080"
         d="m 469.98,555.5 0.12,0 0,204.48 -0.12,0 0,-204.48 z" /></clipPath><clipPath
       id="clipPath7296"
       clipPathUnits="userSpaceOnUse"><path
         inkscape:connector-curvature="0"
         id="path7298"
         d="m 187.26,560.9 13.74,0 0,7.44 -13.74,0 0,-7.44 z" /></clipPath></defs><g
     transform="matrix(1.25,0,0,-1.25,-152.20692,979.48098)"
     inkscape:label="image"
     inkscape:groupmode="layer"
     id="g6922"
     style="display:inline" /><g
     inkscape:groupmode="layer"
     id="layer6"
     inkscape:label="text"
     transform="translate(-152.20692,-73.019016)"><g
       id="g9046"
       transform="matrix(0.9388004,0,0,0.9388004,29.662765,-7.3343727)"><g
         transform="matrix(1.25,0,0,-1.25,22.541186,1038.6285)"
         id="g6934"
         style="display:inline"><g
           id="g6936"
           clip-path="url(#clipPath6938)"><path
             d="m 121.98,576.02 348,0"
             style="fill:none;stroke:#000000;stroke-width:0.06;stroke-linecap:butt;stroke-linejoin:miter;stroke-miterlimit:10;stroke-dasharray:none;stroke-opacity:1"
             id="path6942"
             inkscape:connector-curvature="0" /></g></g><g
         transform="matrix(1.25,0,0,-1.25,22.541186,1038.6285)"
         id="g6944"
         style="display:inline"><g
           id="g6946"
           clip-path="url(#clipPath6948)"><path
             d="m 121.98,596.42 348,0"
             style="fill:none;stroke:#000000;stroke-width:0.06;stroke-linecap:butt;stroke-linejoin:miter;stroke-miterlimit:10;stroke-dasharray:none;stroke-opacity:1"
             id="path6952"
             inkscape:connector-curvature="0" /></g></g><g
         transform="matrix(1.25,0,0,-1.25,22.541186,1038.6285)"
         id="g6954"
         style="display:inline"><g
           id="g6956"
           clip-path="url(#clipPath6958)"><path
             d="m 121.98,616.88 348,0"
             style="fill:none;stroke:#000000;stroke-width:0.06;stroke-linecap:butt;stroke-linejoin:miter;stroke-miterlimit:10;stroke-dasharray:none;stroke-opacity:1"
             id="path6962"
             inkscape:connector-curvature="0" /></g></g><g
         transform="matrix(1.25,0,0,-1.25,22.541186,1038.6285)"
         id="g6964"
         style="display:inline"><g
           id="g6966"
           clip-path="url(#clipPath6968)"><path
             d="m 121.98,637.34 348,0"
             style="fill:none;stroke:#000000;stroke-width:0.06;stroke-linecap:butt;stroke-linejoin:miter;stroke-miterlimit:10;stroke-dasharray:none;stroke-opacity:1"
             id="path6972"
             inkscape:connector-curvature="0" /></g></g><g
         transform="matrix(1.25,0,0,-1.25,22.541186,1038.6285)"
         id="g6974"
         style="display:inline"><g
           id="g6976"
           clip-path="url(#clipPath6978)"><path
             d="m 121.98,657.74 348,0"
             style="fill:none;stroke:#000000;stroke-width:0.06;stroke-linecap:butt;stroke-linejoin:miter;stroke-miterlimit:10;stroke-dasharray:none;stroke-opacity:1"
             id="path6982"
             inkscape:connector-curvature="0" /></g></g><g
         transform="matrix(1.25,0,0,-1.25,22.541186,1038.6285)"
         id="g6984"
         style="display:inline"><g
           id="g6986"
           clip-path="url(#clipPath6988)"><path
             d="m 121.98,678.2 348,0"
             style="fill:none;stroke:#000000;stroke-width:0.06;stroke-linecap:butt;stroke-linejoin:miter;stroke-miterlimit:10;stroke-dasharray:none;stroke-opacity:1"
             id="path6992"
             inkscape:connector-curvature="0" /></g></g><g
         transform="matrix(1.25,0,0,-1.25,22.541186,1038.6285)"
         id="g6994"
         style="display:inline"><g
           id="g6996"
           clip-path="url(#clipPath6998)"><path
             d="m 121.98,698.72 348,0"
             style="fill:none;stroke:#000000;stroke-width:0.06;stroke-linecap:butt;stroke-linejoin:miter;stroke-miterlimit:10;stroke-dasharray:none;stroke-opacity:1"
             id="path7002"
             inkscape:connector-curvature="0" /></g></g><g
         transform="matrix(1.25,0,0,-1.25,22.541186,1038.6285)"
         id="g7004"
         style="display:inline"><g
           id="g7006"
           clip-path="url(#clipPath7008)"><path
             d="m 121.98,719.18 348,0"
             style="fill:none;stroke:#000000;stroke-width:0.06;stroke-linecap:butt;stroke-linejoin:miter;stroke-miterlimit:10;stroke-dasharray:none;stroke-opacity:1"
             id="path7012"
             inkscape:connector-curvature="0" /></g></g><g
         transform="matrix(1.25,0,0,-1.25,22.541186,1038.6285)"
         id="g7014"
         style="display:inline"><g
           id="g7016"
           clip-path="url(#clipPath7018)"><path
             d="m 121.98,739.58 348,0"
             style="fill:none;stroke:#000000;stroke-width:0.06;stroke-linecap:butt;stroke-linejoin:miter;stroke-miterlimit:10;stroke-dasharray:none;stroke-opacity:1"
             id="path7022"
             inkscape:connector-curvature="0" /></g></g><g
         transform="matrix(1.25,0,0,-1.25,22.541186,1038.6285)"
         id="g7024"
         style="display:inline"><g
           id="g7026"
           clip-path="url(#clipPath7028)"><path
             d="m 121.98,760.04 348,0"
             style="fill:none;stroke:#000000;stroke-width:0.06;stroke-linecap:butt;stroke-linejoin:miter;stroke-miterlimit:10;stroke-dasharray:none;stroke-opacity:1"
             id="path7032"
             inkscape:connector-curvature="0" /></g></g><g
         transform="matrix(1.25,0,0,-1.25,22.541186,1038.6285)"
         id="g7034"
         style="display:inline"><g
           id="g7036"
           clip-path="url(#clipPath7038)"><path
             d="m 191.58,760.04 0,-204.48"
             style="fill:none;stroke:#000000;stroke-width:0.06;stroke-linecap:butt;stroke-linejoin:miter;stroke-miterlimit:10;stroke-dasharray:none;stroke-opacity:1"
             id="path7042"
             inkscape:connector-curvature="0" /></g></g><g
         transform="matrix(1.25,0,0,-1.25,22.541186,1038.6285)"
         id="g7044"
         style="display:inline"><g
           id="g7046"
           clip-path="url(#clipPath7048)"><path
             d="m 261.18,760.04 0,-204.48"
             style="fill:none;stroke:#000000;stroke-width:0.06;stroke-linecap:butt;stroke-linejoin:miter;stroke-miterlimit:10;stroke-dasharray:none;stroke-opacity:1"
             id="path7052"
             inkscape:connector-curvature="0" /></g></g><g
         transform="matrix(1.25,0,0,-1.25,22.541186,1038.6285)"
         id="g7054"
         style="display:inline"><g
           id="g7056"
           clip-path="url(#clipPath7058)"><path
             d="m 330.78,760.04 0,-204.48"
             style="fill:none;stroke:#000000;stroke-width:0.06;stroke-linecap:butt;stroke-linejoin:miter;stroke-miterlimit:10;stroke-dasharray:none;stroke-opacity:1"
             id="path7062"
             inkscape:connector-curvature="0" /></g></g><g
         transform="matrix(1.25,0,0,-1.25,22.541186,1038.6285)"
         id="g7064"
         style="display:inline"><g
           id="g7066"
           clip-path="url(#clipPath7068)"><path
             d="m 400.38,760.04 0,-204.48"
             style="fill:none;stroke:#000000;stroke-width:0.06;stroke-linecap:butt;stroke-linejoin:miter;stroke-miterlimit:10;stroke-dasharray:none;stroke-opacity:1"
             id="path7072"
             inkscape:connector-curvature="0" /></g></g><g
         transform="matrix(1.25,0,0,-1.25,22.541186,1038.6285)"
         id="g7074"
         style="display:inline"><g
           id="g7076"
           clip-path="url(#clipPath7078)"><path
             d="m 469.98,760.04 0,-204.48"
             style="fill:none;stroke:#000000;stroke-width:0.06;stroke-linecap:butt;stroke-linejoin:miter;stroke-miterlimit:10;stroke-dasharray:none;stroke-opacity:1"
             id="path7082"
             inkscape:connector-curvature="0" /></g></g><path
         d="m 140.01295,771.1372 348,0 m 0,0 0,-204.48 m 0,0 -348,0 m 0,0 0,204.48"
         style="display:inline;fill:none;stroke:#000000;stroke-width:0.06;stroke-linecap:butt;stroke-linejoin:miter;stroke-miterlimit:10;stroke-dasharray:none;stroke-opacity:1"
         id="path7084"
         inkscape:connector-curvature="0"
         transform="matrix(1.25,0,0,-1.25,0,1052.5)" /><path
         d="m 140.01295,771.1372 0,-204.48 m -1.5,0 1.5,0 m -1.5,20.46 1.5,0 m -1.5,20.4 1.5,0 m -1.5,20.46 1.5,0 m -1.5,20.46 1.5,0 m -1.5,20.4 1.5,0 m -1.5,20.46 1.5,0 m -1.5,20.52 1.5,0 m -1.5,20.46 1.5,0 m -1.5,20.4 1.5,0 m -1.5,20.46 1.5,0 m -2.04,-204.48 2.04,0 m -2.04,20.46 2.04,0 m -2.04,20.4 2.04,0 m -2.04,20.46 2.04,0 m -2.04,20.46 2.04,0 m -2.04,20.4 2.04,0 m -2.04,20.46 2.04,0 m -2.04,20.52 2.04,0 m -2.04,20.46 2.04,0 m -2.04,20.4 2.04,0 m -2.04,20.46 2.04,0 m 0,-204.48 348,0 m -348,-1.5 0,1.5 m 34.8,-1.5 0,1.5 m 34.8,-1.5 0,1.5 m 34.8,-1.5 0,1.5 m 34.8,-1.5 0,1.5 m 34.8,-1.5 0,1.5 m 34.8,-1.5 0,1.5 m 34.8,-1.5 0,1.5 m 34.8,-1.5 0,1.5 m 34.8,-1.5 0,1.5 m 34.8,-1.5 0,1.5 m -348,-2.04 0,2.04 m 69.6,-2.04 0,2.04 m 69.6,-2.04 0,2.04 m 69.6,-2.04 0,2.04 m 69.6,-2.04 0,2.04 m 69.6,-2.04 0,2.04"
         style="display:inline;fill:none;stroke:#000000;stroke-width:0.396;stroke-linecap:round;stroke-linejoin:round;stroke-miterlimit:10;stroke-dasharray:none;stroke-opacity:1"
         id="path7086"
         inkscape:connector-curvature="0"
         transform="matrix(1.25,0,0,-1.25,0,1052.5)" /><path
         d="m 140.67295,731.5972 c 1.09,-0.231 2.364,-1.752 3.42,-0.72 m 0,0 c 1.458,1.308 2.102,4.812 3.42,6.54 m 0,0 c 0.751,0.801 2.019,3.247 3.42,2.4 m 0,0 0.48,-0.48 0.36,-0.84 0.18,-0.54 0.3,-0.54 0.36,-1.2 0.24,-0.54 0.18,-0.6 0.24,-0.48 0.18,-0.48 0.24,-0.36 0.18,-0.3 0.24,-0.18 0.18,-0.06 m 0,0 0.24,0.12 0.24,0.18 0.18,0.36 0.24,0.42 0.24,0.54 0.36,1.2 0.24,0.6 0.42,1.32 0.18,0.6 0.3,0.54 0.36,0.96 0.24,0.3 0.24,0.18 m 0,0 0.18,0.12 0.24,0 0.18,-0.06 0.24,-0.12 0.18,-0.12 c 0.894,-0.832 1.423,-2.021 2.34,-2.94 m 0,0 c 0.904,-0.864 1.336,-2.056 2.16,-2.88 0.439,-0.516 0.598,-0.871 1.26,-0.78 m 0,0 0.24,0.06 0.24,0.18 0.18,0.18 0.18,0.3 0.24,0.3 0.24,0.42 0.36,0.78 0.42,0.84 0.48,0.72 0.36,0.72 0.24,0.24 0.24,0.18 m 0,0 c 1.217,0.887 2.258,1.839 3.42,0.42 m 0,0 c 1.533,-2.488 2.195,-6.302 3.42,-9.12 m 0,0 c 0.746,-1.506 1.186,-3.164 1.92,-4.68 l 0.18,-0.42 0.24,-0.36 0.18,-0.24 0.24,-0.18 0.18,-0.06 0.24,0.06 0.18,0.12 m 0,0 c 0.76,1.007 1.32,3.856 1.5,5.1 0.583,2.226 1.019,5.853 1.98,7.98 m 0,0 0.3,0.54 0.42,0.48 0.48,0.3 0.48,0.18 0.48,0.12 0.48,0 0.36,-0.06 0.36,-0.24 m 0,0 c 1.321,-1.019 1.939,-5.601 3.42,-6.42 m 0,0 0.24,0.06 0.24,0.12 0.18,0.24 0.18,0.36 0.48,0.84 0.36,1.08 0.24,0.48 0.18,0.48 0.24,0.48 0.24,0.36 0.18,0.36 0.18,0.24 0.24,0.12 0.24,0 m 0,0 c 1.488,-1.234 1.94,-6.229 3.42,-7.5 m 0,0 c 1.323,-0.796 3.109,3.132 3.36,3.84 m 0,0 c 0.98,2.051 1.32,5.059 1.98,7.08 0.192,0.861 0.748,3.48 1.5,4.02 m 0,0 0.06,0.06 0.12,0 0.24,-0.06 0.18,-0.18 0.24,-0.3 0.18,-0.48 0.24,-0.42 0.18,-0.54 c 0.66,-1.49 0.903,-3.244 1.92,-4.56 m 0,0 c 1.071,-1.044 2.505,0.119 3.42,-0.42 m 0,0 c 1.115,-0.474 2.685,-2.329 3.42,-3.18 m 0,0 c 0.604,-0.675 1.536,-2.672 1.92,-3.48 l 0.18,-0.36 0.48,-0.6 0.18,-0.18 0.18,-0.12 0.24,-0.06 0.24,0.06 m 0,0 c 1.651,1.841 1.846,6.414 3.42,8.1 m 0,0 0.18,0.12 0.24,-0.06 0.24,-0.12 0.18,-0.24 0.18,-0.3 0.24,-0.36 0.42,-0.72 0.18,-0.36 0.24,-0.36 0.24,-0.3 0.18,-0.24 0.24,-0.18 0.18,-0.06 0.24,0 0.12,0.12 0.06,0.12 m 0,0 c 0.799,0.909 1.407,4.72 1.74,5.94 0.21,0.567 0.86,4.909 1.74,4.98 m 0,0 0.18,0 0.24,-0.24 0.18,-0.3 0.24,-0.42 0.18,-0.54 0.24,-0.66 c 0.76,-2.705 1.32,-5.45 2.1,-8.16 m 0,0 c 0.943,-3.452 1.293,-6.874 2.16,-10.32 0.052,-0.25 0.602,-3.101 1.26,-3.06 m 0,0 c 0.771,0.346 1.39,4.987 1.5,5.52 0.564,2.729 0.832,6.958 1.92,9.42 m 0,0 c 1.018,1.894 2.725,-1.627 3.42,-2.16 m 0,0 c 0.831,-1.115 1.487,-3.222 2.1,-4.62 l 0.3,-0.3 0.18,-0.3 0.18,-0.18 0.18,-0.12 0.18,0.06 0.12,0.06 0.06,0.12 0.12,0.12 m 0,0 c 1.758,4.448 1.704,10.952 3.36,15.6 m 0,0 c 1.051,2.011 2.96,-0.756 3.48,-1.68 m 0,0 c 1.478,-3.464 1.781,-8.269 3.36,-11.52 m 0,0 c 0.916,-1.461 2.445,0.712 3.42,1.02 m 0,0 1.68,0.24 0.84,0.06 0.9,0.06 m 0,0 c 1.212,0.198 2.139,0.728 3.42,0.48 m 0,0 c 1.018,-0.033 2.124,-2.961 3.36,-1.68 m 0,0 c 1.582,2.597 1.821,6.936 3.42,9.72 m 0,0 c 0.666,0.479 0.156,0.339 1.2,0.36 l 0.54,-0.12 0.48,-0.3 0.42,-0.36 0.42,-0.48 0.36,-0.6 m 0,0 c 0.998,-2.699 1.211,-5.519 1.92,-8.34 0.102,-0.479 0.814,-4.401 1.5,-4.68 m 0,0 0.12,0 0.06,0.06 0.12,0.12 0.12,0.18 0.12,0.18 0.12,0.3 c 0.496,1.627 0.714,2.661 1.08,4.32 0.214,1.507 0.726,2.954 1.02,4.44 l 0.12,0.3 0.12,0.24 0.12,0.18 0.12,0.18 0.12,0.06 0.06,0 c 0.631,0.055 1.356,-2.22 1.5,-2.64 0.82,-2.673 1.373,-5.418 1.92,-8.16 m 0,0 c 1.426,-8.712 2.105,-17.614 3.42,-26.34 m 0,0 c 0.962,-6.61 2.382,-13.195 3.36,-19.8 m 0,0 c 1.331,-8.412 2.632,-16.956 3.42,-25.44 m 0,0 c 1.457,-13.875 1.857,-27.966 3.42,-41.82 m 0,0 c 0.625,-5.358 1.606,-10.923 3.42,-16.02 m 0,0 c 0.672,-1.76 1.713,-2.363 3.36,-3 m 0,0 c 1.34,-0.595 2.166,0.296 3.48,0.12 m 0,0 c 1.026,-0.222 2.36,-0.695 3.42,-0.96 m 0,0 1.68,-0.3 1.68,-0.18 m 0,0 1.68,0 0.9,0.06 0.84,-0.06 m 0,0 c 1.199,-0.054 2.185,-1.045 3.42,-0.84 m 0,0 c 1.344,0.383 2.122,1.687 3.42,2.16 m 0,0 c 0.902,0.313 2.375,0.231 3.36,0.36 m 0,0 0.84,0.12 0.9,0.18 0.9,0.12 0.84,0.12 m 0,0 0.84,0 1.68,-0.12 0.84,0 m 0,0 c 1.176,0.13 2.229,0.474 3.42,0.6 m 0,0 c 0.958,0.013 2.358,-0.571 3.42,-0.36 m 0,0 0.42,0.06 0.42,0.18 0.42,0.3 0.84,0.48 0.84,0.42 0.48,0.06 m 0,0 c 1.202,0.072 2.285,-0.488 3.42,-0.78 m 0,0 c 1.534,-0.362 1.759,-0.819 3.36,-0.72 m 0,0 c 1.268,-0.009 1.784,1.389 3.48,1.62 m 0,0 c 1.13,0.091 2.266,-0.909 3.36,-1.26 m 0,0 c 1.138,-0.414 2.241,-1.085 3.42,-1.14 m 0,0 c 1.487,0.128 1.794,0.926 3.42,1.14 m 0,0 c 1.508,0.082 2.008,-0.279 3.42,-0.54 m 0,0 c 1.282,-0.354 1.939,-0.958 3.36,-1.2 m 0,0 c 1.393,-0.247 2.153,0.238 3.42,0.24 m 0,0 0.9,0.18 0.84,0.18 0.9,0.18 0.84,0.12 m 0,0 0.84,0.06 0.84,-0.06 1.68,-0.06 m 0,0 1.68,0 0.9,-0.06 0.84,0 m 0,0 0.84,-0.12 0.84,-0.18 1.74,-0.36 m 0,0 c 1.342,-0.254 1.886,-0.66 3.42,-0.78 m 0,0 0.84,0 0.84,0.18 1.68,0.24 m 0,0 1.68,0.18 0.9,0.06 0.84,0.06 m 0,0 c 1.141,0.016 2.279,-0.327 3.42,-0.12 m 0,0 c 1.253,0.424 2.125,1.723 3.42,2.04 m 0,0 c 1.216,0.42 2.221,0.03 3.42,-0.3 m 0,0 c 0.76,-0.055 2.522,-1.433 3.42,-1.8 m 0,0 0.06,-0.12 0.18,-0.12 0.18,-0.18 0.18,-0.24 0.54,-0.54 0.54,-0.48 0.3,-0.3 c 0.551,-0.303 1.197,-0.857 1.44,0.12 m 0,0 c 1.732,11.387 2.022,23.297 3.36,34.8 m 0,0 c 0.96,8.111 2.78,16.096 3.42,24.24 m 0,0 c 1.522,15.056 1.721,30.403 3.42,45.42 m 0,0 c 0.446,3.228 2.243,3.582 3.42,5.82 m 0,0 c 1.498,4.944 1.746,10.468 3.36,15.36 m 0,0 c 0.416,0.751 1.283,0.192 1.74,-0.18 0.57,-0.31 1.298,-0.9 1.74,-0.06 m 0,0 c 1.663,5.096 2.152,10.813 3.36,16.08 m 0,0 c 0.864,3.839 1.288,7.843 2.16,11.64 0.085,0.917 0.466,1.825 0.72,2.7 l 0.12,0.24 0.12,0.18 0.24,0.24 0.06,0 m 0,0 c 0.467,-0.256 0.504,-0.919 0.66,-1.38 0.343,-1.581 0.691,-2.825 0.84,-4.5 0.647,-2.563 0.811,-7.371 1.98,-9.66 m 0,0 0.18,-0.24 0.18,-0.06 0.18,0 0.3,0.06 0.18,0.24 0.18,0.3 c 0.979,1.481 1.546,3.806 2.16,5.46 m 0,0 c 0.79,2.713 1.211,5.719 1.68,8.52 0.359,1.232 0.733,4.786 1.56,5.88 l 0.06,0 0.12,0.06 m 0,0 0.12,-0.06 0.06,-0.06 0.12,-0.24 0.18,-0.24 0.06,-0.3 0.12,-0.3 c 0.282,-1.434 0.67,-2.885 0.84,-4.32 0.531,-2.934 0.8,-6.661 1.86,-9.42 m 0,0 0.3,-0.3 0.18,0 0.18,0.06 0.24,0.12 0.24,0.3 0.18,0.36 c 0.467,0.983 1.319,3.568 2.16,4.2 m 0,0 0.36,0.18 0.42,0.18 0.9,0 0.42,-0.06 0.48,-0.24 0.36,-0.3 0.42,-0.48 m 0,0 c 1.019,-1.717 1.286,-3.768 1.92,-5.64 l 0.24,-0.72 0.18,-0.66 0.24,-0.54 0.24,-0.42 0.18,-0.36 0.12,-0.12 0.24,-0.12 0.06,0 m 0,0 c 1.461,0.625 2.538,7.994 3.42,9.66 m 0,0 c 0.816,2.388 1.318,4.9 2.1,7.32 l 0.24,0.48 0.24,0.48 0.18,0.3 0.12,0.06 0.06,0.06 0.18,0.06 0.12,-0.06 0.18,-0.18 m 0,0 c 0.893,-1.937 1.09,-5.144 1.5,-7.2 0.603,-3.286 0.867,-7.65 1.92,-10.8 m 0,0 0.12,-0.18 0.06,-0.18 0.12,-0.06 0.12,-0.12 0.24,-0.06 0.18,0.06 0.24,0.18 0.18,0.24 c 0.916,1.255 1.235,2.879 2.16,3.9"
         style="display:inline;fill:none;stroke:#333333;stroke-width:0.79299998;stroke-linecap:round;stroke-linejoin:round;stroke-miterlimit:10;stroke-dasharray:none;stroke-opacity:1"
         id="path7088"
         inkscape:connector-curvature="0"
         transform="matrix(1.25,0,0,-1.25,0,1052.5)" /><text
         y="-564.47595"
         x="118.40488"
         transform="matrix(1.2500851,0,0,1.2499148,0,1052.5)"
         style="font-variant:normal;font-weight:normal;font-stretch:normal;font-size:6.60605001px;font-family:Arial;-inkscape-font-specification:ArialMT;writing-mode:lr-tb;display:inline;fill:#000000;fill-opacity:1;fill-rule:nonzero;stroke:none"
         id="text7090"><tspan
           x="118.40488 122.12343 123.92424 127.64278 131.30121"
           y="-564.47595"
           sodipodi:role="line"
           id="tspan7092">0,004</tspan><tspan
           x="118.40488 122.12343 123.92424 127.64278 131.30121"
           y="-584.93689"
           sodipodi:role="line"
           id="tspan7094">0,005</tspan><tspan
           x="118.40488 122.12343 123.92424 127.64278 131.30121"
           y="-605.39777"
           sodipodi:role="line"
           id="tspan7096">0,006</tspan><tspan
           x="118.40488 122.12343 123.92424 127.64278 131.30121"
           y="-625.8587"
           sodipodi:role="line"
           id="tspan7098">0,007</tspan><tspan
           x="118.40488 122.12343 123.92424 127.64278 131.30121"
           y="-646.31964"
           sodipodi:role="line"
           id="tspan7100">0,008</tspan><tspan
           x="118.40488 122.12343 123.92424 127.64278 131.30121"
           y="-666.72107"
           sodipodi:role="line"
           id="tspan7102">0,009</tspan><tspan
           x="118.40488 122.12343 123.92424 127.64278 131.30121"
           y="-687.18201"
           sodipodi:role="line"
           id="tspan7104">0,010</tspan><tspan
           x="118.40488 122.12343 123.92424 127.64278 131.30121"
           y="-707.64294"
           sodipodi:role="line"
           id="tspan7106">0,011</tspan><tspan
           x="118.40488 122.12343 123.92424 127.64278 131.30121"
           y="-728.10382"
           sodipodi:role="line"
           id="tspan7108">0,012</tspan><tspan
           x="118.40488 122.12343 123.92424 127.64278 131.30121"
           y="-748.50531"
           sodipodi:role="line"
           id="tspan7110">0,013</tspan><tspan
           x="118.40488 122.12343 123.92424 127.64278 131.30121"
           y="-768.96686"
           sodipodi:role="line"
           id="tspan7112">0,014</tspan><tspan
           x="130.82426 134.48268 138.14111 141.85966 145.5181 200.41304 204.07147 207.79002 211.44846 215.10689 270.00183 273.66028 277.37881 281.03726 284.69568 339.59064 343.24905 346.96762 350.62604 354.28448 409.17941 412.83786 416.5564 420.21481 423.87326 478.76822 482.42667 486.14517 489.80362 493.52216"
           y="-554.93353"
           sodipodi:role="line"
           id="tspan7114">991009910599110991159912099125</tspan></text>
<path
         d="m 110.61295,687.0772 -0.66,0 0,24 0.66,0 0,-24 z m -0.66,0 z m -0.48,23.58 0.84,4.14 0.78,-4.14"
         style="display:inline;fill:#010101;fill-opacity:1;fill-rule:nonzero;stroke:none"
         id="path7124"
         inkscape:connector-curvature="0"
         transform="matrix(1.25,0,0,-1.25,0,1052.5)" /><path
         d="m 313.05295,545.4172 21.36,0 0,-0.59998 -21.36,0 0,0.59998 z m 20.94,0.54 4.14,-0.84 -4.14,-0.84"
         style="display:inline;fill:#010101;fill-opacity:1;fill-rule:nonzero;stroke:none"
         id="path7126"
         inkscape:connector-curvature="0"
         transform="matrix(1.25,0,0,-1.25,0,1052.5)" /><path
         d="m 446.55295,553.3972 13.44,0 0,8.46 -13.44,0 0,-8.46 z"
         style="display:inline;fill:#ffffff;fill-opacity:1;fill-rule:nonzero;stroke:none"
         id="path7128"
         inkscape:connector-curvature="0"
         transform="matrix(1.25,0,0,-1.25,0,1052.5)" /><text
         y="-555.35535"
         x="449.7623"
         transform="matrix(1.2500851,0,0,1.2499148,0,1052.5)"
         style="font-variant:normal;font-weight:normal;font-stretch:normal;font-size:6.60605001px;font-family:Arial;-inkscape-font-specification:ArialMT;writing-mode:lr-tb;display:inline;fill:#000000;fill-opacity:1;fill-rule:nonzero;stroke:none"
         id="text7130"><tspan
           x="449.7623 451.60938 454.92294"
           y="-555.35535"
           sodipodi:role="line"
           id="tspan7132">[s]</tspan></text>
<path
         d="m 114.63295,746.5972 20.52,0 0,9.18 -20.52,0 0,-9.18 z"
         style="display:inline;fill:#ffffff;fill-opacity:1;fill-rule:nonzero;stroke:none"
         id="path7134"
         inkscape:connector-curvature="0"
         transform="matrix(1.25,0,0,-1.25,0,1052.5)" /><text
         y="-749.28851"
         x="119.12483"
         transform="matrix(1.2500851,0,0,1.2499148,0,1052.5)"
         style="font-variant:normal;font-weight:normal;font-stretch:normal;font-size:6.60605001px;font-family:Arial;-inkscape-font-specification:ArialMT;writing-mode:lr-tb;display:inline;fill:#000000;fill-opacity:1;fill-rule:nonzero;stroke:none"
         id="text7136"><tspan
           x="119.12483 120.97981 126.50115 132.02249"
           y="-749.28851"
           sodipodi:role="line"
           id="tspan7138">[mm]</tspan></text>
<path
         d="m 139.65295,735.7372 245.1,0 m -82.98,-140.16 110.82,0"
         style="display:inline;fill:none;stroke:#ff0101;stroke-width:1.5;stroke-linecap:butt;stroke-linejoin:round;stroke-miterlimit:10;stroke-dasharray:none;stroke-opacity:1"
         id="path7270"
         inkscape:connector-curvature="0"
         transform="matrix(1.25,0,0,-1.25,0,1052.5)" /><path
         d="m 349.23295,606.0772 -1.5,0 0,121.32 1.5,0 0,-121.32 z m -1.5,0 z m 3.72,1.02 -3,-10.02 -3,10.02 6,0 z m -6,119.28 3,10.02 3,-10.02"
         style="display:inline;fill:#ff0101;fill-opacity:1;fill-rule:nonzero;stroke:none"
         id="path7272"
         inkscape:connector-curvature="0"
         transform="matrix(1.25,0,0,-1.25,0,1052.5)" /><path
         d="m 350.31295,656.8972 37.92,0 0,23.28 -37.92,0 0,-23.28 z"
         style="display:inline;fill:#ffffff;fill-opacity:1;fill-rule:nonzero;stroke:none"
         id="path7274"
         inkscape:connector-curvature="0"
         transform="matrix(1.25,0,0,-1.25,0,1052.5)" /><text
         y="-664.9975"
         x="357.51294"
         transform="matrix(1.25,0,0,1.25,0,1052.5)"
         style="font-style:italic;font-variant:normal;font-weight:bold;font-stretch:normal;font-size:12px;font-family:Arial;-inkscape-font-specification:Arial-BoldItalicMT;writing-mode:lr-tb;display:inline;fill:#ff0000;fill-opacity:1;fill-rule:nonzero;stroke:none"
         id="text7276"><tspan
           x="357.51294"
           y="-664.9975"
           id="tspan7278">h</tspan></text>
<text
         y="-663.4975"
         x="364.83295"
         transform="matrix(1.25,0,0,1.25,0,1052.5)"
         style="font-variant:normal;font-weight:normal;font-stretch:normal;font-size:7.98000002px;font-family:Arial;-inkscape-font-specification:ArialMT;writing-mode:lr-tb;display:inline;fill:#ff0000;fill-opacity:1;fill-rule:nonzero;stroke:none"
         id="text7280"><tspan
           x="364.83295"
           y="-663.4975"
           id="tspan7282">x</tspan></text>
<path
         d="m 140.55295,573.9772 129.54,0 0,-1.5 -129.54,0 0,1.5 z m 128.52,2.22 10.02,-3 -10.02,-3"
         style="display:inline;fill:#ff0101;fill-opacity:1;fill-rule:nonzero;stroke:none"
         id="path7284"
         inkscape:connector-curvature="0"
         transform="matrix(1.25,0,0,-1.25,0,1052.5)" /><path
         d="m 190.77295,568.3972 36.9,0 0,20.34 -36.9,0 0,-20.34 z"
         style="display:inline;fill:#ffffff;fill-opacity:1;fill-rule:nonzero;stroke:none"
         id="path7286"
         inkscape:connector-curvature="0"
         transform="matrix(1.25,0,0,-1.25,0,1052.5)" /><text
         y="-573.5575"
         x="197.97295"
         transform="matrix(1.25,0,0,1.25,0,1052.5)"
         style="font-style:italic;font-variant:normal;font-weight:bold;font-stretch:normal;font-size:12px;font-family:Arial;-inkscape-font-specification:Arial-BoldItalicMT;writing-mode:lr-tb;display:inline;fill:#ff0000;fill-opacity:1;fill-rule:nonzero;stroke:none"
         id="text7288"><tspan
           x="197.97295"
           y="-573.5575"
           id="tspan7290">n</tspan></text>
<g
         transform="matrix(1.25,0,0,-1.25,22.541186,1038.6285)"
         id="g7292"
         style="display:inline"><g
           id="g7294"
           clip-path="url(#clipPath7296)"><text
             transform="matrix(1,0,0,-1,187.26,560.9603)"
             style="font-variant:normal;font-weight:bold;font-stretch:normal;font-size:7.98000002px;font-family:Arial;-inkscape-font-specification:Arial-BoldMT;writing-mode:lr-tb;fill:#ff0000;fill-opacity:1;fill-rule:nonzero;stroke:none"
             id="text7300"><tspan
               x="0 4.4384761"
               y="0"
               sodipodi:role="line"
               id="tspan7302">so</tspan></text>
</g></g><text
         y="-572.0575"
         x="214.59296"
         transform="matrix(1.25,0,0,1.25,0,1052.5)"
         style="font-variant:normal;font-weight:bold;font-stretch:normal;font-size:7.98000002px;font-family:Arial;-inkscape-font-specification:Arial-BoldMT;writing-mode:lr-tb;display:inline;fill:#ff0000;fill-opacity:1;fill-rule:nonzero;stroke:none"
         id="text7304"><tspan
           x="214.59296 216.81458"
           y="-572.0575"
           sodipodi:role="line"
           id="tspan7306">ll</tspan></text>
<path
         d="m 288.27295,573.6172 120.54,0 0,-1.5 -120.54,0 0,1.5 z m 1.02,-3.78 -10.02,3 10.02,3 0,-6 z m 118.56,6 9.96,-3 -9.96,-3"
         style="display:inline;fill:#ff0101;fill-opacity:1;fill-rule:nonzero;stroke:none"
         id="path7308"
         inkscape:connector-curvature="0"
         transform="matrix(1.25,0,0,-1.25,0,1052.5)" /><path
         d="m 333.93295,566.5372 28.32,0 0,21.84 -28.32,0 0,-21.84 z"
         style="display:inline;fill:#ffffff;fill-opacity:1;fill-rule:nonzero;stroke:none"
         id="path7310"
         inkscape:connector-curvature="0"
         transform="matrix(1.25,0,0,-1.25,0,1052.5)" /><text
         y="-573.19751"
         x="341.19296"
         transform="matrix(1.25,0,0,1.25,0,1052.5)"
         style="font-style:italic;font-variant:normal;font-weight:bold;font-stretch:normal;font-size:12px;font-family:Arial;-inkscape-font-specification:Arial-BoldItalicMT;writing-mode:lr-tb;display:inline;fill:#ff0000;fill-opacity:1;fill-rule:nonzero;stroke:none"
         id="text7312"><tspan
           x="341.19296"
           y="-573.19751"
           id="tspan7314">n</tspan></text>
<text
         y="-571.69751"
         x="348.51294"
         transform="matrix(1.25,0,0,1.25,0,1052.5)"
         style="font-variant:normal;font-weight:bold;font-stretch:normal;font-size:7.98000002px;font-family:Arial;-inkscape-font-specification:Arial-BoldMT;writing-mode:lr-tb;display:inline;fill:#ff0000;fill-opacity:1;fill-rule:nonzero;stroke:none"
         id="text7316"><tspan
           x="348.51294"
           y="-571.69751"
           id="tspan7318">0</tspan></text>
<path
         d="m 486.27295,571.5772 -58.02,0.48 0,1.5 58.02,-0.48 0,-1.5 z m -57.06,-1.8 -9.96,3.06 10.02,2.94"
         style="display:inline;fill:#ff0101;fill-opacity:1;fill-rule:nonzero;stroke:none"
         id="path7320"
         inkscape:connector-curvature="0"
         transform="matrix(1.25,0,0,-1.25,0,1052.5)" /><path
         d="m 433.89295,568.5172 36.9,0 0,20.28 -36.9,0 0,-20.28 z"
         style="display:inline;fill:#ffffff;fill-opacity:1;fill-rule:nonzero;stroke:none"
         id="path7322"
         inkscape:connector-curvature="0"
         transform="matrix(1.25,0,0,-1.25,0,1052.5)" /><text
         y="-573.67749"
         x="441.15295"
         transform="matrix(1.25,0,0,1.25,0,1052.5)"
         style="font-style:italic;font-variant:normal;font-weight:bold;font-stretch:normal;font-size:12px;font-family:Arial;-inkscape-font-specification:Arial-BoldItalicMT;writing-mode:lr-tb;display:inline;fill:#ff0000;fill-opacity:1;fill-rule:nonzero;stroke:none"
         id="text7324"><tspan
           x="441.15295"
           y="-573.67749"
           id="tspan7326">n</tspan></text>
<text
         y="-572.17749"
         x="448.47296"
         transform="matrix(1.25,0,0,1.25,0,1052.5)"
         style="font-variant:normal;font-weight:bold;font-stretch:normal;font-size:7.98000002px;font-family:Arial;-inkscape-font-specification:Arial-BoldMT;writing-mode:lr-tb;display:inline;fill:#ff0000;fill-opacity:1;fill-rule:nonzero;stroke:none"
         id="text7328"><tspan
           x="448.47296 452.90823 457.78241 459.99927"
           y="-572.17749"
           sodipodi:role="line"
           id="tspan7330">soll</tspan></text>
<text
         transform="matrix(0,-1,1,0,0,0)"
         sodipodi:linespacing="125%"
         id="text8926"
         y="141.92918"
         x="-273.23477"
         style="font-style:normal;font-weight:normal;font-size:15px;line-height:125%;font-family:sans-serif;letter-spacing:0px;word-spacing:0px;fill:#000000;fill-opacity:1;stroke:none;stroke-width:1px;stroke-linecap:butt;stroke-linejoin:miter;stroke-opacity:1"
         xml:space="preserve"><tspan
           style="font-style:normal;font-variant:normal;font-weight:normal;font-stretch:normal;font-family:sans-serif;-inkscape-font-specification:sans-serif"
           y="141.92918"
           x="-273.23477"
           id="tspan8928"
           sodipodi:role="line">Wegsignal</tspan></text>
<text
         sodipodi:linespacing="125%"
         id="text8926-4"
         y="375.97534"
         x="378.80222"
         style="font-style:normal;font-weight:normal;font-size:15px;line-height:125%;font-family:sans-serif;letter-spacing:0px;word-spacing:0px;fill:#000000;fill-opacity:1;stroke:none;stroke-width:1px;stroke-linecap:butt;stroke-linejoin:miter;stroke-opacity:1"
         xml:space="preserve"><tspan
           style="font-style:normal;font-variant:normal;font-weight:normal;font-stretch:normal;font-family:sans-serif;-inkscape-font-specification:sans-serif"
           y="375.97534"
           x="378.80222"
           id="tspan8928-8"
           sodipodi:role="line">t</tspan></text>
</g></g></svg>