<?xml version="1.0" encoding="UTF-8" standalone="no"?>
<!-- Created with Inkscape (http://www.inkscape.org/) -->

<svg
   xmlns:dc="http://purl.org/dc/elements/1.1/"
   xmlns:cc="http://creativecommons.org/ns#"
   xmlns:rdf="http://www.w3.org/1999/02/22-rdf-syntax-ns#"
   xmlns:svg="http://www.w3.org/2000/svg"
   xmlns="http://www.w3.org/2000/svg"
   xmlns:sodipodi="http://sodipodi.sourceforge.net/DTD/sodipodi-0.dtd"
   xmlns:inkscape="http://www.inkscape.org/namespaces/inkscape"
   width="210mm"
   height="297mm"
   viewBox="0 0 744.09448819 1052.3622047"
   id="svg7086"
   version="1.1"
   inkscape:version="0.91 r13725"
   sodipodi:docname="ehl_film_thicknes_profile.svg">
  <defs
     id="defs7088">
    <clipPath
       id="clipPath7856"
       clipPathUnits="userSpaceOnUse">
      <path
         inkscape:connector-curvature="0"
         id="path7858"
         d="m 127.729,671.811 297.298,0 0,-251.49 -297.298,0 0,251.49 z" />
    </clipPath>
    <clipPath
       id="clipPath7966"
       clipPathUnits="userSpaceOnUse">
      <path
         inkscape:connector-curvature="0"
         id="path7968"
         d="m 127.729,671.811 297.298,0 0,-251.49 -297.298,0 0,251.49 z" />
    </clipPath>
    <clipPath
       id="clipPath8114"
       clipPathUnits="userSpaceOnUse">
      <path
         inkscape:connector-curvature="0"
         id="path8116"
         d="m 127.729,671.811 297.298,0 0,-251.49 -297.298,0 0,251.49 z" />
    </clipPath>
    <clipPath
       id="clipPath8180"
       clipPathUnits="userSpaceOnUse">
      <path
         inkscape:connector-curvature="0"
         id="path8182"
         d="m 0,737.008 547.08,0 L 547.08,0 0,0 0,737.008 Z" />
    </clipPath>
  </defs>
  <sodipodi:namedview
     id="base"
     pagecolor="#ffffff"
     bordercolor="#666666"
     borderopacity="1.0"
     inkscape:pageopacity="0.0"
     inkscape:pageshadow="2"
     inkscape:zoom="2.2465712"
     inkscape:cx="420.29067"
     inkscape:cy="606.33497"
     inkscape:document-units="px"
     inkscape:current-layer="layer1"
     showgrid="false"
     inkscape:window-width="928"
     inkscape:window-height="1028"
     inkscape:window-x="65"
     inkscape:window-y="24"
     inkscape:window-maximized="0" />
  <metadata
     id="metadata7091">
    <rdf:RDF>
      <cc:Work
         rdf:about="">
        <dc:format>image/svg+xml</dc:format>
        <dc:type
           rdf:resource="http://purl.org/dc/dcmitype/StillImage" />
        <dc:title></dc:title>
      </cc:Work>
    </rdf:RDF>
  </metadata>
  <g
     inkscape:label="Layer 1"
     inkscape:groupmode="layer"
     id="layer1">
    <text
       id="text7232"
       style="font-variant:normal;font-weight:normal;font-size:11.83074951px;font-family:AdvP4C4E51;-inkscape-font-specification:AdvP4C4E51;writing-mode:lr-tb;fill:#000000;fill-opacity:1;fill-rule:nonzero;stroke:none"
       x="1067.3708"
       y="818.52612">
      <tspan
         id="tspan7234"
         y="818.52612"
         x="1067.3708"></tspan>
    </text>
    <text
       id="text7414"
       style="font-variant:normal;font-weight:normal;font-size:8.36503601px;font-family:AdvP4C4E74;-inkscape-font-specification:AdvP4C4E74;writing-mode:lr-tb;fill:#000000;fill-opacity:1;fill-rule:nonzero;stroke:none"
       transform="scale(1.0606947,0.94277832)"
       x="1047.1824"
       y="997.34381">
      <tspan
         id="tspan7416"
         y="997.34381"
         x="1047.1824"></tspan>
    </text>
    <text
       id="text7426"
       style="font-variant:normal;font-weight:normal;font-size:11.83074951px;font-family:AdvP4C4E51;-inkscape-font-specification:AdvP4C4E51;writing-mode:lr-tb;fill:#000000;fill-opacity:1;fill-rule:nonzero;stroke:none"
       x="1132.142"
       y="945.51825">
      <tspan
         id="tspan7428"
         y="945.51825"
         x="1132.142"></tspan>
    </text>
    <text
       id="text7530"
       style="font-variant:normal;font-weight:normal;font-size:8.36503601px;font-family:AdvP4C4E74;-inkscape-font-specification:AdvP4C4E74;writing-mode:lr-tb;fill:#000000;fill-opacity:1;fill-rule:nonzero;stroke:none"
       transform="scale(1.0606947,0.94277832)"
       x="1157.4874"
       y="1013.2042">
      <tspan
         id="tspan7532"
         y="1013.2042"
         x="1157.4874"></tspan>
    </text>
    <text
       id="text7610"
       style="font-variant:normal;font-weight:normal;font-size:11.83074951px;font-family:AdvP4C4E51;-inkscape-font-specification:AdvP4C4E51;writing-mode:lr-tb;fill:#000000;fill-opacity:1;fill-rule:nonzero;stroke:none"
       x="1079.2054"
       y="1045.9355">
      <tspan
         id="tspan7612"
         y="1045.9355"
         x="1079.2054"></tspan>
    </text>
    <text
       id="text7632"
       style="font-variant:normal;font-weight:normal;font-size:11.83074951px;font-family:AdvP4C4E46;-inkscape-font-specification:AdvP4C4E46;writing-mode:lr-tb;fill:#000000;fill-opacity:1;fill-rule:nonzero;stroke:none"
       x="1059.2205"
       y="1021.1322">
      <tspan
         id="tspan7634"
         sodipodi:role="line"
         y="1021.1322"
         x="1059.2205 1099.968"></tspan>
    </text>
    <text
       id="text7796"
       style="font-variant:normal;font-weight:normal;font-size:11.83074951px;font-family:AdvP4C4E74;-inkscape-font-specification:AdvP4C4E74;writing-mode:lr-tb;fill:#000000;fill-opacity:1;fill-rule:nonzero;stroke:none"
       x="1344.1759"
       y="855.59045">
      <tspan
         id="tspan7798"
         y="855.59045"
         x="1344.1759"></tspan>
    </text>
    <g
       id="g9718"
       transform="translate(-880.10346,-111.28069)">
      <g
         id="g7842"
         transform="matrix(1.25,0,0,-1.25,1095.6927,427.5309)">
        <path
           d="m 0,0 c -4.017,0.437 -9.373,-3.28 -11.828,-4.888 -3.906,-3.286 -3.125,-3.286 -3.125,-4.743 0,-1.462 1.563,-2.848 3.125,-4.235 3.682,-3.426 5.802,-0.874 6.138,-4.155 2.12,-2.774 -3.237,-4.452 -3.237,-4.452 0,0 -1.004,-0.221 -2.455,-2.044 0.67,-2.336 1.451,-4.673 1.451,-4.673 l -2.901,-4.014 c -1.005,-1.823 -4.687,-2.843 -2.902,-6.782 0.335,-6.351 6.584,-4.598 7.588,-7.663 -2.901,-6.787 0.781,-10.289 0.781,-10.289 l 4.129,-4.235 3.571,-3.793 1.785,-2.849 c 0.781,-1.019 1.451,-2.919 2.678,-3.502 3.571,-0.145 1.897,-1.602 4.91,-0.145 l 13.056,8.756 16.069,6.788 20.869,1.241 17.961,0.361 21.648,0.88 13.726,0 20.643,0.729 22.206,0.513 14.953,0.652 7.59,1.975 4.461,4.888 4.578,2.186 5.356,-0.216 9.15,-2.336 11.267,-4.376 12.277,-5.4 9.371,-4.89 7.478,-5.983 9.372,-8.758 2.342,-2.044 c 0.897,2.919 9.375,7.44 3.351,19.774 -9.265,6.352 -7.479,1.167 -12.5,7.953 -1.005,4.237 3.235,6.863 3.235,6.863 l 6.583,4.23 c 0,0 4.689,11.456 5.246,15.4 2.123,4.306 -0.331,4.376 -1.785,8.098 l -6.694,14.158 -16.07,-15.398 -18.189,-10.506 -17.181,-6.496 -9.376,-1.824 -3.903,0 -7.59,2.552 -8.032,4.889 -12.39,1.241 -22.206,0.874 -27.335,0.297 -19.193,0 -22.544,0.362 -21.98,0.874 -12.273,1.974 -8.369,3.281 -12.052,7.883 L 0,0"
           style="fill:#a4a5a5;fill-opacity:1;fill-rule:evenodd;stroke:none"
           id="path7844"
           inkscape:connector-curvature="0" />
      </g>
      <path
         d="m 1070.964,401.9384 c 0.9775,1.0925 2.93,3.7425 5.5812,6.57 l 10.4263,10.4425 c 9.7337,8.95375 29.3412,28.14875 49.4337,37.995 20.095,9.85375 41.9988,17.61 70.4688,21.17 28.46,3.55625 72.14,3.7375 100.4625,0 28.33,-3.7425 49.9587,-12.04375 69.9075,-22.62625 19.955,-10.5825 39.63,-32.475 49.6775,-41.05375 l 10.7425,-10.58125"
         style="fill:none;stroke:#131413;stroke-width:0.9375;stroke-linecap:butt;stroke-linejoin:round;stroke-miterlimit:10;stroke-dasharray:3.776375, 2.83225;stroke-dashoffset:0;stroke-opacity:1"
         id="path7846"
         inkscape:connector-curvature="0" />
      <g
         id="g7848"
         transform="matrix(1.25,0,0,-1.25,1071.7515,403.03715)">
        <path
           d="m 0,0 c 1.228,-1.387 2.233,-3.356 7.706,-8.537 5.473,-5.179 18.652,-17.433 25.242,-22.613 6.589,-5.179 9.381,-6.566 14.52,-8.612 5.136,-2.039 6.474,-2.843 16.308,-3.647 9.828,-0.798 27.693,-0.95 42.662,-1.241 14.964,-0.291 34.957,-0.362 46.909,-0.653 11.949,-0.292 18.986,-0.658 25.129,-1.095 6.145,-0.437 6.924,0.07 11.501,-1.387 4.583,-1.457 9.833,-6.857 15.864,-7.294 6.031,-0.438 13.511,2.115 20.325,4.521 6.81,2.406 15.748,7.149 20.663,9.777 4.914,2.627 3.907,2.044 8.822,6.129 4.913,4.085 14.853,12.691 20.999,18.384 6.141,5.687 12.731,12.474 16.08,15.755"
           style="fill:#eff0f0;fill-opacity:1;fill-rule:evenodd;stroke:none"
           id="path7850"
           inkscape:connector-curvature="0" />
      </g>
      <g
         transform="matrix(1.25,0,0,-1.25,906.64647,1131.2584)"
         id="g7852">
        <g
           id="g7854"
           clip-path="url(#clipPath7856)">
          <g
             id="g7860"
             transform="translate(132.084,582.577)">
            <path
               d="m 0,0 c 1.228,-1.387 2.233,-3.356 7.706,-8.537 5.473,-5.179 18.652,-17.433 25.242,-22.613 6.589,-5.179 9.381,-6.566 14.52,-8.612 5.136,-2.039 6.474,-2.843 16.308,-3.647 9.828,-0.798 27.693,-0.95 42.662,-1.241 14.964,-0.291 34.957,-0.362 46.909,-0.653 11.949,-0.292 18.986,-0.658 25.129,-1.095 6.145,-0.437 6.924,0.07 11.501,-1.387 4.583,-1.457 9.833,-6.857 15.864,-7.294 6.031,-0.438 13.511,2.115 20.325,4.521 6.81,2.406 15.748,7.149 20.663,9.777 4.914,2.627 3.907,2.044 8.822,6.129 4.913,4.085 14.853,12.691 20.999,18.384 6.141,5.687 12.731,12.474 16.08,15.755"
               style="fill:none;stroke:#131413;stroke-width:0.75;stroke-linecap:butt;stroke-linejoin:round;stroke-miterlimit:10;stroke-dasharray:none;stroke-opacity:1"
               id="path7862"
               inkscape:connector-curvature="0" />
          </g>
        </g>
      </g>
      <path
         d="m 1076.6227,547.47965 c 1.1175,-1.18625 5.025,-5.37625 6.9775,-7.3775 1.9538,-2.0125 3.35,-3.46875 4.885,-4.925 1.5338,-1.4575 -4.0475,2.3675 4.325,-4.015 8.3738,-6.37875 27.4938,-24.97375 45.7713,-34.3575 18.2837,-9.3875 36.8437,-18.23 64.055,-21.8775 27.21,-3.6425 70.75,-3.825 99.6387,-0.27125 28.8825,3.555 54.56,12.39625 74.1,21.69125 19.535,9.2925 34.4663,27.3425 42.8438,34.08625 8.375,6.7475 5.0225,3.74 7.675,6.2 2.6475,2.4625 7.2562,7.02125 8.6512,8.38375"
         style="fill:none;stroke:#131413;stroke-width:0.9375;stroke-linecap:butt;stroke-linejoin:round;stroke-miterlimit:10;stroke-dasharray:3.776375, 2.83225;stroke-dashoffset:0;stroke-opacity:1"
         id="path7864"
         inkscape:connector-curvature="0" />
      <g
         id="g7866"
         transform="matrix(1.25,0,0,-1.25,1076.8577,547.08965)">
        <path
           d="m 0,0 c 4.801,4.446 20.431,20.483 28.917,26.677 8.486,6.2 14.068,8.385 21.659,10.647 7.59,2.257 15.184,2.257 24.117,2.839 8.928,0.587 15.291,0.366 29.806,0.657 14.517,0.292 43.991,0.875 57.274,1.242 13.286,0.361 17.308,0.581 22.328,1.019 5.026,0.439 4.804,0.216 8.042,1.748 3.234,1.533 6.137,7.069 11.387,7.436 5.246,0.362 15.517,-3.794 20.204,-5.103 4.694,-1.313 5.474,-2.116 7.707,-2.991 2.232,-0.874 2.232,-0.436 5.357,-2.109 3.128,-1.679 8.595,-4.155 13.735,-7.873 5.136,-3.718 12.616,-10.787 16.856,-14.505 4.246,-3.718 5.252,-4.884 8.595,-7.873 3.35,-2.989 8.934,-8.165 11.279,-10.279"
           style="fill:#eff0f0;fill-opacity:1;fill-rule:evenodd;stroke:none"
           id="path7868"
           inkscape:connector-curvature="0" />
      </g>
      <g
         id="g7870"
         transform="matrix(1.25,0,0,-1.25,1076.8577,547.08965)">
        <path
           d="m 0,0 c 4.801,4.446 20.431,20.483 28.917,26.677 8.486,6.2 14.068,8.385 21.659,10.647 7.59,2.257 15.184,2.257 24.117,2.839 8.928,0.587 15.291,0.366 29.806,0.657 14.517,0.292 43.991,0.875 57.274,1.242 13.286,0.361 17.308,0.581 22.328,1.019 5.026,0.439 4.804,0.216 8.042,1.748 3.234,1.533 6.137,7.069 11.387,7.436 5.246,0.362 15.517,-3.794 20.204,-5.103 4.694,-1.313 5.474,-2.116 7.707,-2.991 2.232,-0.874 2.232,-0.436 5.357,-2.109 3.128,-1.679 8.595,-4.155 13.735,-7.873 5.136,-3.718 12.616,-10.787 16.856,-14.505 4.246,-3.718 5.252,-4.884 8.595,-7.873 3.35,-2.989 8.934,-8.165 11.279,-10.279"
           style="fill:none;stroke:#131413;stroke-width:0.75;stroke-linecap:butt;stroke-linejoin:round;stroke-miterlimit:10;stroke-dasharray:none;stroke-opacity:1"
           id="path7872"
           inkscape:connector-curvature="0" />
      </g>
      <g
         id="g7874"
         transform="matrix(1.25,0,0,-1.25,1390.9427,456.18715)">
        <path
           d="m 0,0 c -1.472,0 -2.669,-1.572 -2.669,-3.516 0,-1.939 1.197,-3.517 2.669,-3.517 1.475,0 2.672,1.578 2.672,3.517 C 2.672,-1.572 1.475,0 0,0"
           style="fill:#ffffff;fill-opacity:1;fill-rule:evenodd;stroke:none"
           id="path7876"
           inkscape:connector-curvature="0" />
      </g>
      <g
         id="g7878"
         transform="matrix(1.25,0,0,-1.25,1407.6427,443.0734)">
        <path
           d="m 0,0 c -2.952,0 -5.341,-2.346 -5.341,-5.246 0,-2.893 2.389,-5.245 5.341,-5.245 2.953,0 5.348,2.352 5.348,5.245 C 5.348,-2.346 2.953,0 0,0"
           style="fill:#ffffff;fill-opacity:1;fill-rule:evenodd;stroke:none"
           id="path7880"
           inkscape:connector-curvature="0" />
      </g>
      <g
         id="g7882"
         transform="matrix(1.25,0,0,-1.25,1397.6265,495.59465)">
        <path
           d="m 0,0 c -1.477,0 -2.675,-1.571 -2.675,-3.515 0,-1.94 1.198,-3.517 2.675,-3.517 1.475,0 2.672,1.577 2.672,3.517 C 2.672,-1.571 1.475,0 0,0"
           style="fill:#ffffff;fill-opacity:1;fill-rule:evenodd;stroke:none"
           id="path7884"
           inkscape:connector-curvature="0" />
      </g>
      <g
         id="g7886"
         transform="matrix(1.25,0,0,-1.25,1105.1315,527.68465)">
        <path
           d="m 0,0 1.361,1.397 c 4.246,4.158 9.144,8.921 14.656,11.36 l 0.467,0.216 0.318,-0.684 -0.453,-0.212 C 10.932,9.694 6.07,4.948 1.902,0.869 L 0.539,-0.528 0,0 Z M 13.206,13.345 17.325,12.942 14.951,9.556 C 14.83,9.386 14.593,9.345 14.423,9.466 14.252,9.586 14.211,9.817 14.332,9.987 l 2.001,2.86 0.278,-0.594 -3.481,0.337 c -0.206,0.02 -0.357,0.207 -0.337,0.412 0.02,0.211 0.201,0.362 0.413,0.343"
           style="fill:#131413;fill-opacity:1;fill-rule:nonzero;stroke:none"
           id="path7888"
           inkscape:connector-curvature="0" />
      </g>
      <g
         id="g7890"
         transform="matrix(1.25,0,0,-1.25,1108.5977,432.0334)">
        <path
           d="m 0,0 1.539,-1.281 c 4.9,-3.899 10.389,-8.146 16.356,-10.265 l 0.604,-0.226 -0.261,-0.708 -0.624,0.231 C 11.565,-10.088 6.025,-5.82 1.056,-1.859 L -0.482,-0.583 0,0 Z m 16.447,-9.189 2.625,-3.2 -4.084,-0.704 c -0.201,-0.035 -0.397,0.101 -0.432,0.307 -0.036,0.205 0.101,0.402 0.307,0.437 l 3.44,0.593 -0.226,-0.608 -2.214,2.698 c -0.13,0.161 -0.105,0.402 0.055,0.533 0.162,0.129 0.398,0.105 0.529,-0.056"
           style="fill:#131413;fill-opacity:1;fill-rule:nonzero;stroke:none"
           id="path7892"
           inkscape:connector-curvature="0" />
      </g>
      <g
         id="g7894"
         transform="matrix(1.25,0,0,-1.25,1113.954,508.62465)">
        <path
           d="M 0.755,0 9e-5,0 l 0,49.236 0.75491,0 L 0.755,0 Z M 0,0 Z m 1.887,0.503 -1.51,-3.015 -1.508,3.015 3.018,0 z m -3.018,48.231 1.508,3.014 1.51,-3.014 -3.018,0"
           style="fill:#131413;fill-opacity:1;fill-rule:nonzero;stroke:none"
           id="path7896"
           inkscape:connector-curvature="0" />
      </g>
      <g
         id="g7898"
         transform="matrix(1.25,0,0,-1.25,1256.8302,425.5709)">
        <path
           d="M 2.264,0 0,0 l 0,19.217 2.264,0 L 2.264,0 Z M 0,0 Z m 4.529,1.13 -3.396,-6.782 -3.395,6.782 6.791,0"
           style="fill:#131413;fill-opacity:1;fill-rule:nonzero;stroke:none"
           id="path7900"
           inkscape:connector-curvature="0" />
      </g>
      <g
         id="g7902"
         transform="matrix(1.25,0,0,-1.25,1330.864,522.12715)">
        <path
           d="M 0,0 0,59.536"
           style="fill:none;stroke:#131413;stroke-width:0.126;stroke-linecap:round;stroke-linejoin:round;stroke-miterlimit:10;stroke-dasharray:none;stroke-opacity:1"
           id="path7904"
           inkscape:connector-curvature="0" />
      </g>
      <g
         id="g7906"
         transform="matrix(1.25,0,0,-1.25,1331.3352,444.88215)">
        <path
           d="m -0.755,0 0.75497,0 0,-18.966 -0.75497,0 0,18.966 z M 0,0 Z m 1.131,-18.464 -1.508,-3.014 -1.509,3.014 3.017,0"
           style="fill:#131413;fill-opacity:1;fill-rule:nonzero;stroke:none"
           id="path7908"
           inkscape:connector-curvature="0" />
      </g>
      <g
         id="g7910"
         transform="matrix(1.25,0,0,-1.25,1330.3915,522.82965)">
        <path
           d="M 0.755,0 3e-5,0 l 0,29.893 0.75497,0 L 0.755,0 Z M 0,0 Z m -1.131,29.39 1.509,3.015 1.508,-3.015 -3.017,0"
           style="fill:#131413;fill-opacity:1;fill-rule:nonzero;stroke:none"
           id="path7912"
           inkscape:connector-curvature="0" />
      </g>
      <g
         id="g7914"
         transform="matrix(1.25,0,0,-1.25,1257.6165,516.7884)">
        <path
           d="M 0,0 0,59.535"
           style="fill:none;stroke:#131413;stroke-width:0.126;stroke-linecap:round;stroke-linejoin:round;stroke-miterlimit:10;stroke-dasharray:none;stroke-opacity:1"
           id="path7916"
           inkscape:connector-curvature="0" />
      </g>
      <g
         id="g7918"
         transform="matrix(1.25,0,0,-1.25,1257.3027,527.7784)">
        <path
           d="M 0.755,0 0,0 l 0,24.618 0.755,0 L 0.755,0 Z M 0,0 Z m -1.132,24.116 1.508,3.014 1.51,-3.014 -3.018,0"
           style="fill:#131413;fill-opacity:1;fill-rule:nonzero;stroke:none"
           id="path7920"
           inkscape:connector-curvature="0" />
      </g>
      <g
         id="g7922"
         transform="matrix(1.25,0,0,-1.25,1256.674,454.30215)">
        <path
           d="M 0.754,0 0,0 l 0,14.821 0.754,0 L 0.754,0 Z M 0,0 Z m 1.886,0.502 -1.51,-3.014 -1.507,3.014 3.017,0"
           style="fill:#131413;fill-opacity:1;fill-rule:nonzero;stroke:none"
           id="path7924"
           inkscape:connector-curvature="0" />
      </g>
      <path
         d="m 1133.4452,395.89715 c 0.1938,-4.295 0.5975,-8.4275 1.1875,-12.3975 0.5975,-3.975 0.7988,-5.56375 2.785,-11.1275 1.9875,-5.55875 5.1613,-14.62 8.74,-22.24375 3.5713,-7.63125 8.5375,-17.0075 13.1088,-23.20625 4.5712,-6.1975 8.94,-10.01 13.9012,-14.30625 4.9675,-4.28875 9.7338,-8.42125 15.8938,-11.4425 6.155,-3.01375 15.2912,-5.5575 20.6525,-6.98875 5.3637,-1.4325 8.94,-1.27375 11.9212,-1.58875 2.9788,-0.32 4.37,-0.4775 5.96,-0.635 m 94.1513,103.93625 c -0.2013,-4.295 -0.5963,-8.4275 -1.1938,-12.3975 -0.5987,-3.975 -0.7925,-5.56375 -2.7787,-11.1275 -1.9875,-5.55875 -5.1638,-14.62 -8.7413,-22.24375 -3.5762,-7.63125 -8.5437,-17.0075 -13.1087,-23.20625 -4.57,-6.1975 -8.94,-10.01 -13.9063,-14.30625 -4.9662,-4.28875 -9.7325,-8.42125 -15.8887,-11.4425 -6.1613,-3.01375 -15.2963,-5.5575 -20.6588,-6.98875 -5.3625,-1.4325 -8.94,-1.27375 -11.915,-1.58875 -2.98,-0.32 -4.3687,-0.4775 -5.96,-0.635"
         style="fill:none;stroke:#131413;stroke-width:0.9375;stroke-linecap:butt;stroke-linejoin:round;stroke-miterlimit:10;stroke-dasharray:3.776375, 2.83225;stroke-dashoffset:0;stroke-opacity:1"
         id="path7926"
         inkscape:connector-curvature="0" />
      <text
         y="338.27701"
         x="1341.1552"
         style="font-variant:normal;font-weight:normal;font-size:10px;font-family:Helvetica;-inkscape-font-specification:Helvetica;writing-mode:lr-tb;fill:#131413;fill-opacity:1;fill-rule:nonzero;stroke:none"
         id="text7928">
        <tspan
           x="1341.1552 1348.3751 1352.0051 1357.0051 1359.7861 1364.7861 1370.3461 1375.9061 1378.6862 1384.2461 1389.2461"
           y="338.27701"
           sodipodi:role="line"
           id="tspan7930">Dry contact</tspan>
        <tspan
           x="1341.1552 1348.3751 1353.9351 1357.6652 1360.4451 1365.4451 1368.2261 1373.7861 1377.1161 1382.6761 1387.6761 1392.6761 1398.2361 1401.566"
           y="350.27701"
           sodipodi:role="line"
           id="tspan7932">Hertz pressure</tspan>
      </text>
      <g
         id="g7934"
         transform="matrix(1.25,0,0,-1.25,1282.2952,370.9334)">
        <path
           d="M 0,0 16.596,12.058"
           style="fill:none;stroke:#131413;stroke-width:0.25;stroke-linecap:round;stroke-linejoin:round;stroke-miterlimit:10;stroke-dasharray:none;stroke-opacity:1"
           id="path7936"
           inkscape:connector-curvature="0" />
        <g
           id="g7938"
           transform="translate(24.394,8.415)">
          <path
             d="M 0,0 19.617,17.71"
             style="fill:none;stroke:#131413;stroke-width:0.25;stroke-linecap:round;stroke-linejoin:round;stroke-miterlimit:10;stroke-dasharray:none;stroke-opacity:1"
             id="path7940"
             inkscape:connector-curvature="0" />
          <g
             id="g7942"
             transform="translate(-185.411,-152.229)">
            <path
               d="M 0,0 0,-42.703"
               style="fill:none;stroke:#131413;stroke-width:0.25;stroke-linecap:round;stroke-linejoin:round;stroke-miterlimit:10;stroke-dasharray:none;stroke-opacity:1"
               id="path7944"
               inkscape:connector-curvature="0" />
          </g>
        </g>
      </g>
      <g
         id="g7946"
         transform="matrix(1.25,0,0,-1.25,1081.024,550.22965)">
        <path
           d="m 0,0 14.586,0 0,-0.75299 -14.586,0 L 0,0 Z m 14.084,1.13 3.017,-1.507 -3.017,-1.508 0,3.015"
           style="fill:#131413;fill-opacity:1;fill-rule:nonzero;stroke:none"
           id="path7948"
           inkscape:connector-curvature="0" />
      </g>
      <g
         id="g7950"
         transform="matrix(1.25,0,0,-1.25,1081.024,563.5734)">
        <path
           d="m 0,0 14.586,0 0,-0.75299 -14.586,0 L 0,0 Z m 14.084,1.131 3.017,-1.507 -3.017,-1.508 0,3.015"
           style="fill:#131413;fill-opacity:1;fill-rule:nonzero;stroke:none"
           id="path7952"
           inkscape:connector-curvature="0" />
      </g>
      <g
         id="g7954"
         transform="matrix(1.25,0,0,-1.25,1081.024,576.91965)">
        <path
           d="m 0,0 14.586,0 0,-0.75299 -14.586,0 L 0,0 Z m 14.084,1.132 3.017,-1.508 -3.017,-1.508 0,3.016"
           style="fill:#131413;fill-opacity:1;fill-rule:nonzero;stroke:none"
           id="path7956"
           inkscape:connector-curvature="0" />
      </g>
      <g
         id="g7958"
         transform="matrix(1.25,0,0,-1.25,1081.024,590.26465)">
        <path
           d="m 0,0 14.586,0 0,-0.75299 -14.586,0 L 0,0 Z m 14.084,1.132 3.017,-1.508 -3.017,-1.507 0,3.015"
           style="fill:#131413;fill-opacity:1;fill-rule:nonzero;stroke:none"
           id="path7960"
           inkscape:connector-curvature="0" />
      </g>
      <g
         transform="matrix(1.25,0,0,-1.25,906.64647,1131.2584)"
         id="g7962">
        <g
           id="g7964"
           clip-path="url(#clipPath7966)">
          <g
             id="g7970"
             transform="translate(139.502,422.12)">
            <path
               d="m 0,0 14.586,0 0,-0.75302 -14.586,0 L 0,0 Z m 14.084,1.129 3.017,-1.506 -3.017,-1.507 0,3.013"
               style="fill:#131413;fill-opacity:1;fill-rule:nonzero;stroke:none"
               id="path7972"
               inkscape:connector-curvature="0" />
          </g>
        </g>
      </g>
      <g
         id="g7974"
         transform="matrix(1.25,0,0,-1.25,1102.4002,550.7009)">
        <path
           d="M 0,0 0,-42.703"
           style="fill:none;stroke:#131413;stroke-width:0.75;stroke-linecap:butt;stroke-linejoin:round;stroke-miterlimit:10;stroke-dasharray:none;stroke-opacity:1"
           id="path7976"
           inkscape:connector-curvature="0" />
      </g>
      <text
         y="579.23474"
         x="1107.1346"
         style="font-variant:normal;font-weight:normal;font-size:10px;font-family:Helvetica;-inkscape-font-specification:Helvetica;writing-mode:lr-tb;fill:#131413;fill-opacity:1;fill-rule:nonzero;stroke:none"
         id="text7978">
        <tspan
           x="1107.1346"
           y="579.23474"
           id="tspan7980">+</tspan>
      </text>
      <g
         id="g7982"
         transform="matrix(1.25,0,0,-1.25,1127.3152,550.7009)">
        <path
           d="M 0,0 0,-42.703"
           style="fill:none;stroke:#131413;stroke-width:0.25;stroke-linecap:round;stroke-linejoin:round;stroke-miterlimit:10;stroke-dasharray:none;stroke-opacity:1"
           id="path7984"
           inkscape:connector-curvature="0" />
      </g>
      <g
         id="g7986"
         transform="matrix(1.25,0,0,-1.25,1127.3152,550.7009)">
        <path
           d="m 0,0 c -4.275,-7.064 -8.551,-14.208 -8.551,-21.351 0,-7.144 4.276,-14.209 8.551,-21.352"
           style="fill:none;stroke:#131413;stroke-width:0.75;stroke-linecap:butt;stroke-linejoin:round;stroke-miterlimit:10;stroke-dasharray:none;stroke-opacity:1"
           id="path7988"
           inkscape:connector-curvature="0" />
      </g>
      <g
         id="g7990"
         transform="matrix(1.25,0,0,-1.25,1127.3152,577.8609)">
        <path
           d="m 0,0 -6.0362,0 0,0.75299 6.0362,0 L 0,0 Z m -5.533,-1.131 -3.018,1.508 3.018,1.508 0,-3.016"
           style="fill:#131413;fill-opacity:1;fill-rule:nonzero;stroke:none"
           id="path7992"
           inkscape:connector-curvature="0" />
      </g>
      <g
         id="g7994"
         transform="matrix(1.25,0,0,-1.25,1127.3152,564.51465)">
        <path
           d="m 0,0 -3.1441,0 0,0.75299 3.1441,0 L 0,0 Z m -2.641,-1.131 -3.018,1.508 3.018,1.507 0,-3.015"
           style="fill:#131413;fill-opacity:1;fill-rule:nonzero;stroke:none"
           id="path7996"
           inkscape:connector-curvature="0" />
      </g>
      <g
         id="g7998"
         transform="matrix(1.25,0,0,-1.25,1127.3152,591.2059)">
        <path
           d="m 0,0 -3.1441,0 0,0.75299 3.1441,0 L 0,0 Z m -2.641,-1.13 -3.018,1.507 3.018,1.508 0,-3.015"
           style="fill:#131413;fill-opacity:1;fill-rule:nonzero;stroke:none"
           id="path8000"
           inkscape:connector-curvature="0" />
      </g>
      <g
         id="g8002"
         transform="matrix(1.25,0,0,-1.25,1216.4352,557.84215)">
        <path
           d="M 0,0 0,-34.164"
           style="fill:none;stroke:#131413;stroke-width:0.25;stroke-linecap:round;stroke-linejoin:round;stroke-miterlimit:10;stroke-dasharray:none;stroke-opacity:1"
           id="path8004"
           inkscape:connector-curvature="0" />
      </g>
      <g
         id="g8006"
         transform="matrix(1.25,0,0,-1.25,1216.4352,557.3709)">
        <path
           d="m 0,0 14.586,0 0,-0.75302 -14.586,0 L 0,0 Z m 14.084,1.131 3.018,-1.508 -3.018,-1.508 0,3.016"
           style="fill:#131413;fill-opacity:1;fill-rule:nonzero;stroke:none"
           id="path8008"
           inkscape:connector-curvature="0" />
      </g>
      <g
         id="g8010"
         transform="matrix(1.25,0,0,-1.25,1216.4352,568.04715)">
        <path
           d="m 0,0 14.586,0 0,-0.754 L 0,-0.754 0,0 Z m 14.084,1.129 3.018,-1.506 -3.018,-1.508 0,3.014"
           style="fill:#131413;fill-opacity:1;fill-rule:nonzero;stroke:none"
           id="path8012"
           inkscape:connector-curvature="0" />
      </g>
      <g
         id="g8014"
         transform="matrix(1.25,0,0,-1.25,1216.4352,578.72465)">
        <path
           d="m 0,0 14.586,0 0,-0.75299 -14.586,0 L 0,0 Z m 14.084,1.131 3.018,-1.508 -3.018,-1.507 0,3.015"
           style="fill:#131413;fill-opacity:1;fill-rule:nonzero;stroke:none"
           id="path8016"
           inkscape:connector-curvature="0" />
      </g>
      <g
         id="g8018"
         transform="matrix(1.25,0,0,-1.25,1216.4352,589.4009)">
        <path
           d="m 0,0 14.586,0 0,-0.75299 -14.586,0 L 0,0 Z m 14.084,1.131 3.018,-1.507 -3.018,-1.507 0,3.014"
           style="fill:#131413;fill-opacity:1;fill-rule:nonzero;stroke:none"
           id="path8020"
           inkscape:connector-curvature="0" />
      </g>
      <g
         id="g8022"
         transform="matrix(1.25,0,0,-1.25,1216.4352,600.07715)">
        <path
           d="m 0,0 14.586,0 0,-0.75299 -14.586,0 L 0,0 Z m 14.084,1.132 3.018,-1.508 -3.018,-1.508 0,3.016"
           style="fill:#131413;fill-opacity:1;fill-rule:nonzero;stroke:none"
           id="path8024"
           inkscape:connector-curvature="0" />
      </g>
      <g
         id="g8026"
         transform="matrix(1.25,0,0,-1.25,1237.8127,557.84215)">
        <path
           d="M 0,0 0,-34.164"
           style="fill:none;stroke:#131413;stroke-width:0.75;stroke-linecap:butt;stroke-linejoin:round;stroke-miterlimit:10;stroke-dasharray:none;stroke-opacity:1"
           id="path8028"
           inkscape:connector-curvature="0" />
      </g>
      <g
         id="g8030"
         transform="matrix(1.25,0,0,-1.25,1294.869,561.37465)">
        <path
           d="M 0,0 0,-25.622"
           style="fill:none;stroke:#131413;stroke-width:0.25;stroke-linecap:round;stroke-linejoin:round;stroke-miterlimit:10;stroke-dasharray:none;stroke-opacity:1"
           id="path8032"
           inkscape:connector-curvature="0" />
      </g>
      <g
         id="g8034"
         transform="matrix(1.25,0,0,-1.25,1294.869,560.90465)">
        <path
           d="m 0,0 14.586,0 0,-0.75299 -14.586,0 L 0,0 Z m 14.083,1.131 3.019,-1.507 -3.019,-1.508 0,3.015"
           style="fill:#131413;fill-opacity:1;fill-rule:nonzero;stroke:none"
           id="path8036"
           inkscape:connector-curvature="0" />
      </g>
      <g
         id="g8038"
         transform="matrix(1.25,0,0,-1.25,1294.869,568.91215)">
        <path
           d="m 0,0 14.586,0 0,-0.75299 -14.586,0 L 0,0 Z m 14.083,1.131 3.019,-1.508 -3.019,-1.506 0,3.014"
           style="fill:#131413;fill-opacity:1;fill-rule:nonzero;stroke:none"
           id="path8040"
           inkscape:connector-curvature="0" />
      </g>
      <g
         id="g8042"
         transform="matrix(1.25,0,0,-1.25,1294.869,576.91965)">
        <path
           d="m 0,0 14.586,0 0,-0.75299 -14.586,0 L 0,0 Z m 14.083,1.132 3.019,-1.508 -3.019,-1.508 0,3.016"
           style="fill:#131413;fill-opacity:1;fill-rule:nonzero;stroke:none"
           id="path8044"
           inkscape:connector-curvature="0" />
      </g>
      <g
         id="g8046"
         transform="matrix(1.25,0,0,-1.25,1294.869,584.9259)">
        <path
           d="m 0,0 14.586,0 0,-0.75299 -14.586,0 L 0,0 Z m 14.083,1.132 3.019,-1.508 -3.019,-1.508 0,3.016"
           style="fill:#131413;fill-opacity:1;fill-rule:nonzero;stroke:none"
           id="path8048"
           inkscape:connector-curvature="0" />
      </g>
      <g
         id="g8050"
         transform="matrix(1.25,0,0,-1.25,1294.869,592.93215)">
        <path
           d="m 0,0 14.586,0 0,-0.754 L 0,-0.754 0,0 Z m 14.083,1.13 3.019,-1.506 -3.019,-1.508 0,3.014"
           style="fill:#131413;fill-opacity:1;fill-rule:nonzero;stroke:none"
           id="path8052"
           inkscape:connector-curvature="0" />
      </g>
      <g
         id="g8054"
         transform="matrix(1.25,0,0,-1.25,1316.2465,561.37465)">
        <path
           d="M 0,0 0,-25.622"
           style="fill:none;stroke:#131413;stroke-width:0.25;stroke-linecap:round;stroke-linejoin:round;stroke-miterlimit:10;stroke-dasharray:none;stroke-opacity:1"
           id="path8056"
           inkscape:connector-curvature="0" />
      </g>
      <text
         y="579.23474"
         x="1321.0115"
         style="font-variant:normal;font-weight:normal;font-size:10px;font-family:Helvetica;-inkscape-font-specification:Helvetica;writing-mode:lr-tb;fill:#131413;fill-opacity:1;fill-rule:nonzero;stroke:none"
         id="text8058">
        <tspan
           x="1321.0115"
           y="579.23474"
           id="tspan8060">+</tspan>
      </text>
      <g
         id="g8062"
         transform="matrix(1.25,0,0,-1.25,1330.4677,561.37465)">
        <path
           d="M 0,0 0,-25.622"
           style="fill:none;stroke:#131413;stroke-width:0.25;stroke-linecap:round;stroke-linejoin:round;stroke-miterlimit:10;stroke-dasharray:none;stroke-opacity:1"
           id="path8064"
           inkscape:connector-curvature="0" />
      </g>
      <g
         id="g8066"
         transform="matrix(1.25,0,0,-1.25,1330.4677,561.37465)">
        <path
           d="m 0,0 c 4.275,-4.24 8.55,-8.526 8.55,-12.812 0,-4.286 -4.275,-8.525 -8.55,-12.81"
           style="fill:none;stroke:#131413;stroke-width:0.75;stroke-linecap:butt;stroke-linejoin:round;stroke-miterlimit:10;stroke-dasharray:none;stroke-opacity:1"
           id="path8068"
           inkscape:connector-curvature="0" />
      </g>
      <g
         id="g8070"
         transform="matrix(1.25,0,0,-1.25,1330.4677,576.91965)">
        <path
           d="m 0,0 6.0349,0 0,-0.75299 -6.0349,0 L 0,0 Z m 5.533,1.132 3.017,-1.508 -3.017,-1.508 0,3.016"
           style="fill:#131413;fill-opacity:1;fill-rule:nonzero;stroke:none"
           id="path8072"
           inkscape:connector-curvature="0" />
      </g>
      <g
         id="g8074"
         transform="matrix(1.25,0,0,-1.25,1330.4677,568.91215)">
        <path
           d="m 0,0 3.143,0 0,-0.75299 -3.143,0 L 0,0 Z m 2.64,1.131 3.017,-1.508 -3.017,-1.506 0,3.014"
           style="fill:#131413;fill-opacity:1;fill-rule:nonzero;stroke:none"
           id="path8076"
           inkscape:connector-curvature="0" />
      </g>
      <g
         id="g8078"
         transform="matrix(1.25,0,0,-1.25,1330.4677,584.9259)">
        <path
           d="m 0,0 3.143,0 0,-0.75299 -3.143,0 L 0,0 Z m 2.64,1.132 3.017,-1.508 -3.017,-1.508 0,3.016"
           style="fill:#131413;fill-opacity:1;fill-rule:nonzero;stroke:none"
           id="path8080"
           inkscape:connector-curvature="0" />
      </g>
      <g
         id="g8082"
         transform="matrix(1.25,0,0,-1.25,1234.2727,543.0834)">
        <path
           d="m 0,0 31.752,0 0,-0.754 L 0,-0.754 0,0 Z m 31.25,1.129 3.017,-1.506 -3.017,-1.507 0,3.013"
           style="fill:#131413;fill-opacity:1;fill-rule:nonzero;stroke:none"
           id="path8084"
           inkscape:connector-curvature="0" />
      </g>
      <g
         id="g8086"
         transform="matrix(1.25,0,0,-1.25,1390.9427,456.18715)">
        <path
           d="m 0,0 c -1.472,0 -2.669,-1.572 -2.669,-3.516 0,-1.939 1.197,-3.517 2.669,-3.517 1.475,0 2.672,1.578 2.672,3.517 C 2.672,-1.572 1.475,0 0,0"
           style="fill:#ffffff;fill-opacity:1;fill-rule:evenodd;stroke:none"
           id="path8088"
           inkscape:connector-curvature="0" />
      </g>
      <g
         id="g8090"
         transform="matrix(1.25,0,0,-1.25,1407.6427,443.0734)">
        <path
           d="m 0,0 c -2.952,0 -5.341,-2.346 -5.341,-5.246 0,-2.893 2.389,-5.245 5.341,-5.245 2.953,0 5.348,2.352 5.348,5.245 C 5.348,-2.346 2.953,0 0,0"
           style="fill:#ffffff;fill-opacity:1;fill-rule:evenodd;stroke:none"
           id="path8092"
           inkscape:connector-curvature="0" />
      </g>
      <g
         id="g8094"
         transform="matrix(1.25,0,0,-1.25,1397.6265,495.59465)">
        <path
           d="m 0,0 c -1.477,0 -2.675,-1.571 -2.675,-3.515 0,-1.94 1.198,-3.517 2.675,-3.517 1.475,0 2.672,1.577 2.672,3.517 C 2.672,-1.571 1.475,0 0,0"
           style="fill:#ffffff;fill-opacity:1;fill-rule:evenodd;stroke:none"
           id="path8096"
           inkscape:connector-curvature="0" />
      </g>
      <g
         id="g8098"
         transform="matrix(1.25,0,0,-1.25,1105.1315,527.68465)">
        <path
           d="m 0,0 1.361,1.397 c 4.246,4.158 9.144,8.921 14.656,11.36 l 0.467,0.216 0.318,-0.684 -0.453,-0.212 C 10.932,9.694 6.07,4.948 1.902,0.869 L 0.539,-0.528 0,0 Z M 13.206,13.345 17.325,12.942 14.951,9.556 C 14.83,9.386 14.593,9.345 14.423,9.466 14.252,9.586 14.211,9.817 14.332,9.987 l 2.001,2.86 0.278,-0.594 -3.481,0.337 c -0.206,0.02 -0.357,0.207 -0.337,0.412 0.02,0.211 0.201,0.362 0.413,0.343"
           style="fill:#131413;fill-opacity:1;fill-rule:nonzero;stroke:none"
           id="path8100"
           inkscape:connector-curvature="0" />
      </g>
      <text
         y="479.47165"
         x="1086.4768"
         style="font-variant:normal;font-weight:normal;font-size:10px;font-family:Helvetica;-inkscape-font-specification:Helvetica;writing-mode:lr-tb;fill:#131413;fill-opacity:1;fill-rule:nonzero;stroke:none"
         id="text8102">
        <tspan
           x="1086.4768 1088.6968 1094.2568 1096.4768 1102.0367"
           y="479.47165"
           sodipodi:role="line"
           id="tspan8104">inlet</tspan>
      </text>
      <g
         id="g8106"
         transform="matrix(1.25,0,0,-1.25,1256.8302,425.5709)">
        <path
           d="M 2.264,0 0,0 l 0,19.217 2.264,0 L 2.264,0 Z M 0,0 Z m 4.529,1.13 -3.396,-6.782 -3.395,6.782 6.791,0"
           style="fill:#131413;fill-opacity:1;fill-rule:nonzero;stroke:none"
           id="path8108"
           inkscape:connector-curvature="0" />
      </g>
      <g
         transform="matrix(1.25,0,0,-1.25,906.64647,1131.2584)"
         id="g8110">
        <g
           id="g8112"
           clip-path="url(#clipPath8114)">
          <g
             id="g8118"
             transform="translate(127.745,587.29)">
            <path
               d="m 0,0 c 5.072,0.125 10.298,0.125 14.14,0.256 3.843,0.125 5.687,0.507 8.915,0.758 3.228,0.256 7.224,0.256 10.756,1.021 3.536,0.763 7.686,1.778 10.763,3.556 3.075,1.784 5.222,3.437 7.682,6.868 2.459,3.432 5.225,9.155 7.378,13.731 2.153,4.577 2.767,8.898 5.226,13.982 2.459,5.09 5.533,11.445 9.225,16.273 3.687,4.833 8.143,9.154 13.218,12.967 5.07,3.819 11.216,7.502 17.518,9.667 6.303,2.16 13.988,2.924 19.984,3.305 5.991,0.377 9.989,0.76 16.292,-0.763 6.302,-1.528 15.984,-5.597 21.21,-8.39 5.224,-2.798 6.915,-5.849 9.833,-8.14 2.923,-2.285 5.844,-4.702 7.378,-5.847 1.539,-1.146 0.921,-1.015 1.846,-1.015 0.921,0 2.611,0.758 3.38,1.015 0.77,0.256 1.076,1.527 1.539,0.764 0.458,-0.764 0.921,-3.05 1.228,-5.342 0.306,-2.285 0.462,-4.832 0.92,-8.134 0.462,-3.305 0.926,-7.882 1.538,-11.695 0.615,-3.819 1.077,-7.632 1.847,-11.445 0.77,-3.814 1.841,-8.391 2.766,-11.696 0.922,-3.306 2.152,-6.356 3.073,-8.135 0.921,-1.783 1.692,-1.652 2.46,-2.291 0.77,-0.638 1.227,-1.014 2.154,-1.27 0.919,-0.256 1.996,-0.256 3.072,-0.256"
               style="fill:none;stroke:#131413;stroke-width:1.25;stroke-linecap:butt;stroke-linejoin:round;stroke-miterlimit:10;stroke-dasharray:none;stroke-opacity:1"
               id="path8120"
               inkscape:connector-curvature="0" />
          </g>
        </g>
      </g>
      <text
         y="374.98465"
         x="1219.2383"
         style="font-variant:normal;font-weight:normal;font-size:10px;font-family:Helvetica;-inkscape-font-specification:Helvetica;writing-mode:lr-tb;fill:#131413;fill-opacity:1;fill-rule:nonzero;stroke:none"
         id="text8122">
        <tspan
           x="1219.2383 1225.3483 1227.5684 1229.7883 1238.1183 1240.8983 1246.4583 1249.7883 1255.3483 1260.3483 1265.3483 1270.9083 1274.2383"
           y="374.98465"
           sodipodi:role="line"
           id="tspan8124">Film pressure</tspan>
        <tspan
           x="1280.1903"
           y="545.32965"
           id="tspan8126">x</tspan>
        <tspan
           x="1384.7213 1390.2812 1395.8413 1398.6213 1400.8413 1406.4012"
           y="477.61765"
           sodipodi:role="line"
           id="tspan8128">outlet</tspan>
        <tspan
           x="1264.2653 1271.4843"
           y="415.57764"
           sodipodi:role="line"
           id="tspan8130">w´</tspan>
        <tspan
           x="1114.1443"
           y="533.36462"
           id="tspan8132">u</tspan>
      </text>
      <text
         y="535.86377"
         x="1119.7054"
         style="font-variant:normal;font-weight:normal;font-size:7.5px;font-family:Helvetica;-inkscape-font-specification:Helvetica;writing-mode:lr-tb;fill:#131413;fill-opacity:1;fill-rule:nonzero;stroke:none"
         id="text8134">
        <tspan
           x="1119.7054"
           y="535.86377"
           id="tspan8136">1</tspan>
      </text>
      <text
         y="431.96552"
         x="1114.4471"
         style="font-variant:normal;font-weight:normal;font-size:10px;font-family:Helvetica;-inkscape-font-specification:Helvetica;writing-mode:lr-tb;fill:#131413;fill-opacity:1;fill-rule:nonzero;stroke:none"
         id="text8138">
        <tspan
           x="1114.4471"
           y="431.96552"
           id="tspan8140">u</tspan>
      </text>
      <text
         y="434.46552"
         x="1120.007"
         style="font-variant:normal;font-weight:normal;font-size:7.5px;font-family:Helvetica;-inkscape-font-specification:Helvetica;writing-mode:lr-tb;fill:#131413;fill-opacity:1;fill-rule:nonzero;stroke:none"
         id="text8142">
        <tspan
           x="1120.007"
           y="434.46552"
           id="tspan8144">2</tspan>
      </text>
      <text
         y="481.83777"
         x="1117.3787"
         style="font-variant:normal;font-weight:normal;font-size:10px;font-family:Helvetica;-inkscape-font-specification:Helvetica;writing-mode:lr-tb;fill:#131413;fill-opacity:1;fill-rule:nonzero;stroke:none"
         id="text8146">
        <tspan
           x="1117.3787 1122.9387 1126.2687 1131.2687"
           y="481.83777"
           sodipodi:role="line"
           id="tspan8148">h(x)</tspan>
      </text>
      <text
         y="1252.6268"
         x="-521.44012"
         transform="matrix(0,-1,1,0,0,0)"
         style="font-variant:normal;font-weight:normal;font-size:10px;font-family:Helvetica;-inkscape-font-specification:Helvetica;writing-mode:lr-tb;fill:#131413;fill-opacity:1;fill-rule:nonzero;stroke:none"
         id="text8150">
        <tspan
           x="-521.44012"
           y="1252.6268"
           id="tspan8152">h</tspan>
      </text>
      <text
         y="1255.1268"
         x="-515.88013"
         transform="matrix(0,-1,1,0,0,0)"
         style="font-variant:normal;font-weight:normal;font-size:7.5px;font-family:Helvetica;-inkscape-font-specification:Helvetica;writing-mode:lr-tb;fill:#131413;fill-opacity:1;fill-rule:nonzero;stroke:none"
         id="text8154">
        <tspan
           x="-515.88013"
           y="1255.1268"
           id="tspan8156">c</tspan>
      </text>
      <text
         y="1324.9252"
         x="-521.90143"
         transform="matrix(0,-1,1,0,0,0)"
         style="font-variant:normal;font-weight:normal;font-size:10px;font-family:Helvetica;-inkscape-font-specification:Helvetica;writing-mode:lr-tb;fill:#131413;fill-opacity:1;fill-rule:nonzero;stroke:none"
         id="text8158">
        <tspan
           x="-521.90143"
           y="1324.9252"
           id="tspan8160">h</tspan>
      </text>
      <text
         y="1327.4252"
         x="-516.34137"
         transform="matrix(0,-1,1,0,0,0)"
         style="font-variant:normal;font-weight:normal;font-size:7.5px;font-family:Helvetica;-inkscape-font-specification:Helvetica;writing-mode:lr-tb;fill:#131413;fill-opacity:1;fill-rule:nonzero;stroke:none"
         id="text8162">
        <tspan
           x="-516.34137 -510.0939 -508.42889"
           y="1327.4252"
           sodipodi:role="line"
           id="tspan8164">min</tspan>
      </text>
    </g>
    <g
       id="g9876"
       transform="translate(-12.75464,0)">
      <text
         y="536.90973"
         x="109.55852"
         style="font-variant:normal;font-weight:normal;font-size:10.5852499px;font-family:AdvP49FC2D;-inkscape-font-specification:AdvP49FC2D;writing-mode:lr-tb;fill:#131413;fill-opacity:1;fill-rule:nonzero;stroke:none"
         id="text8166">
        <tspan
           x="109.55852 114.95702 122.12321 130.03886 135.43736 138.1895 140.94164 152.64464 158.14903 164.20384 166.95604 171.68761 177.08604 183.14085 188.64513 193.04857 200.33763 206.39244 211.89671 217.95152 223.34996 228.7484 231.5006 237.44957 241.19664 249.02232 254.42088 257.17294 263.22775 268.58176"
           y="536.90973"
           sodipodi:role="line"
           id="tspan8168">EHLFilmThicknessBehavior,Fig.1</tspan>
      </text>
      <text
         y="536.90973"
         x="279.49509"
         style="font-variant:normal;font-weight:normal;font-size:10.5852499px;font-family:AdvP49E930;-inkscape-font-specification:AdvP49E930;writing-mode:lr-tb;fill:#000000;fill-opacity:1;fill-rule:nonzero;stroke:none"
         id="text8170">
        <tspan
           x="279.49509 284.78781 289.74167 295.79648 298.22043 302.952 308.02243 313.22714 316.30746 318.73154 321.15549 332.71567 336.24057 342.08359 344.50766 349.23923 354.19308 360.03622 365.32883 369.50998 376.51108 382.56589 385.97433 391.81735 394.89767 397.32162 399.7457 407.83383 410.91415 416.75729 422.92844 427.99875 436.60568 441.78183 448.7258 456.44772 458.87167 461.29575 467.13876 475.22702 479.95859 485.80161 491.64474 495.16965 500.23996 504.97153 508.49643 513.42395 518.6001 521.02417 526.86719 537.51807 542.58838 547.88098 550.30505 556.14807 560.87964 563.30371 566.82861 574.51025 580.56506 583.97351 589.81665 592.89685 595.32092 597.745 603.14026 610.01428 612.98877 619.15991 625.00305 630.84607 636.13867 639.66357 643.18848 651.25867"
           y="536.90973"
           sodipodi:role="line"
           id="tspan8172">TypicalfilmthicknessprofileforanEHLlinecontact.Flowvelocityprofiles(Couette+</tspan>
        <tspan
           x="109.55852 115.17924 121.02232 123.44633 127.62749 132.92015 138.76317 141.18724 143.61125 146.03526 154.13298 157.21324 159.63737 165.48033 173.30284 179.00731 184.07762 190.34618 193.87108 199.7141 203.12254 208.41515 216.49596 222.44493 224.86888 227.9492 231.02953 236.32213 239.73058 245.02318 250.86632 257.17294 263.22775 269.07077 273.25192 275.67599 279.2009 281.62485 287.46799 293.311 300.33005 305.40036 308.80893 316.84201 321.02316 326.8663 332.70932 340.53183 349.15671 351.58066 360.21188 363.73679 369.5798 377.57382 383.62863 389.47165 392.99655 396.52145 402.36447 413.99875 419.84177 425.69125 429.21603 435.05917 443.12399 446.20432 448.62839 454.57724 460.42038 463.82883"
           y="551.86243"
           sodipodi:role="line"
           id="tspan8174">Poiseuilleflow)atthreedifferentpositionsareshowninthebottomofthefigure</tspan>
      </text>
    </g>
    <text
       xml:space="preserve"
       style="font-style:normal;font-weight:normal;font-size:15px;line-height:125%;font-family:sans-serif;letter-spacing:0px;word-spacing:0px;fill:#000000;fill-opacity:1;stroke:none;stroke-width:1px;stroke-linecap:butt;stroke-linejoin:miter;stroke-opacity:1"
       x="369.00677"
       y="609.0199"
       id="text9921"
       sodipodi:linespacing="125%"><tspan
         sodipodi:role="line"
         id="tspan9923"
         x="369.00677"
         y="609.0199">Quelle: Larsson2013</tspan></text>
  </g>
</svg>
