<?xml version="1.0" encoding="UTF-8" standalone="no"?>
<!-- Created with Inkscape (http://www.inkscape.org/) -->

<svg
   xmlns:dc="http://purl.org/dc/elements/1.1/"
   xmlns:cc="http://creativecommons.org/ns#"
   xmlns:rdf="http://www.w3.org/1999/02/22-rdf-syntax-ns#"
   xmlns:svg="http://www.w3.org/2000/svg"
   xmlns="http://www.w3.org/2000/svg"
   xmlns:sodipodi="http://sodipodi.sourceforge.net/DTD/sodipodi-0.dtd"
   xmlns:inkscape="http://www.inkscape.org/namespaces/inkscape"
   id="svg4193"
   version="1.1"
   inkscape:version="0.91 r13725"
   xml:space="preserve"
   width="337.6597"
   height="156.11021"
   viewBox="0 0 337.6597 156.11021"
   sodipodi:docname="ersatzschaltbild_kuhlmann.svg"><metadata
     id="metadata4199"><rdf:RDF><cc:Work
         rdf:about=""><dc:format>image/svg+xml</dc:format><dc:type
           rdf:resource="http://purl.org/dc/dcmitype/StillImage" /><dc:title></dc:title></cc:Work></rdf:RDF></metadata><defs
     id="defs4197"><clipPath
       clipPathUnits="userSpaceOnUse"
       id="clipPath4461"><path
         d="m 56.7,470.36 1.2,0 0,7.44 -1.2,0 0,-7.44 z"
         id="path4463"
         inkscape:connector-curvature="0" /></clipPath><clipPath
       clipPathUnits="userSpaceOnUse"
       id="clipPath4557"><path
         d="m 162.96,378.5 5.4,0 0,5.34 -5.4,0 0,-5.34 z"
         id="path4559"
         inkscape:connector-curvature="0" /></clipPath></defs><sodipodi:namedview
     pagecolor="#ffffff"
     bordercolor="#666666"
     borderopacity="1"
     objecttolerance="10"
     gridtolerance="10"
     guidetolerance="10"
     inkscape:pageopacity="0"
     inkscape:pageshadow="2"
     inkscape:window-width="1855"
     inkscape:window-height="1056"
     id="namedview4195"
     showgrid="false"
     inkscape:zoom="1.9743468"
     inkscape:cx="129.75063"
     inkscape:cy="54.10211"
     inkscape:window-x="1431"
     inkscape:window-y="24"
     inkscape:window-maximized="1"
     inkscape:current-layer="g4201"
     fit-margin-top="0"
     fit-margin-left="0"
     fit-margin-right="0"
     fit-margin-bottom="0" /><g
     id="g4201"
     inkscape:groupmode="layer"
     inkscape:label="kuhlmann_Tribologische_Eigenschaften_von_Waelzlagerschmierfetten_bei_dauerhaft_niedrigen_Betriebstemperaturen"
     transform="matrix(1.25,0,0,-1.25,-222.84065,980.74389)"><g
       id="g5252"
       transform="matrix(0.650866,0,0,0.650866,141.35974,413.35416)"><g
         id="g4863"><path
           d="m 268.14,567.44 11.88,-0.12"
           style="fill:none;stroke:#da251d;stroke-width:0.40000001;stroke-linecap:round;stroke-linejoin:round;stroke-miterlimit:10;stroke-dasharray:none;stroke-opacity:1"
           id="path4447"
           inkscape:connector-curvature="0" /><path
           d="m 170.1,479.06 -6.9,-9.66"
           style="fill:none;stroke:#eb3d00;stroke-width:0.40000001;stroke-linecap:round;stroke-linejoin:round;stroke-miterlimit:10;stroke-dasharray:none;stroke-opacity:1"
           id="path4449"
           inkscape:connector-curvature="0" /><path
           d="m 170.1,479.06 -2.52,-6.54 -2.88,1.98 5.4,4.56"
           style="fill:#da251d;fill-opacity:1;fill-rule:evenodd;stroke:none"
           id="path4451"
           inkscape:connector-curvature="0" /><path
           d="m 268.56,380.3 11.88,-0.12"
           style="fill:none;stroke:#da251d;stroke-width:0.40000001;stroke-linecap:round;stroke-linejoin:round;stroke-miterlimit:10;stroke-dasharray:none;stroke-opacity:1"
           id="path4453"
           inkscape:connector-curvature="0" /><path
           d="m 60.36,474.44 11.88,-0.12 m -12,-6.06 0.12,11.88 m -1.56,-10.32 0.06,8.94"
           style="fill:none;stroke:#1f1a17;stroke-width:0.93300003;stroke-linecap:round;stroke-linejoin:round;stroke-miterlimit:10;stroke-dasharray:none;stroke-opacity:1"
           id="path4455"
           inkscape:connector-curvature="0" /><g
           id="g4457"><g
             id="g4459"
             clip-path="url(#clipPath4461)"><path
               d="m 57.18,470.96 0.12,6.3"
               style="fill:none;stroke:#1f1a17;stroke-width:0.93300003;stroke-linecap:round;stroke-linejoin:round;stroke-miterlimit:10;stroke-dasharray:none;stroke-opacity:1"
               id="path4465"
               inkscape:connector-curvature="0" /></g></g><path
           d="m 112.86,425.96 -0.36,-0.42 0.12,0.3 0.06,0.3 0.18,-0.18 z m -12.24,-12.3 -0.42,-0.36 -0.18,0.18 0.3,0.12 0.3,0.06 z m -26.4,25.62 -0.18,0.12 0.42,0.42 -0.12,-0.3 -0.12,-0.24 z m 12.12,12.42 0.36,0.36 0.18,-0.18 -0.3,-0.06 -0.24,-0.12"
           style="fill:#0090ce;fill-opacity:1;fill-rule:evenodd;stroke:none"
           id="path4467"
           inkscape:connector-curvature="0" /><path
           d="m 112.86,425.96 -1.38,-1.38 0.24,0.48 0.18,0.48 0.18,0.54 0.18,0.48 0.6,-0.6 z m -11.22,-11.28 -1.44,-1.38 -0.6,0.6 0.54,0.18 0.48,0.18 0.48,0.24 0.54,0.18 z m -26.94,24.12 -0.66,0.6 1.38,1.44 -0.18,-0.48 -0.24,-0.48 -0.12,-0.54 -0.18,-0.54 z m 10.62,11.88 1.38,1.38 0.66,-0.6 -0.54,-0.18 -0.48,-0.18 -0.54,-0.18 -0.48,-0.24"
           style="fill:#1291cf;fill-opacity:1;fill-rule:evenodd;stroke:none"
           id="path4469"
           inkscape:connector-curvature="0" /><path
           d="m 86.88,451.88 -0.3,-0.12 -0.24,-0.06 -2.28,-2.28 0.9,0.48 0.9,0.42 1.92,0.72 -0.9,0.84 z m -12.42,-12.06 -0.12,-0.3 -0.12,-0.24 0.9,-0.9 0.3,0.96 0.42,0.96 0.84,1.8 -2.22,-2.28 z m 25.56,-26.34 0.3,0.12 0.3,0.06 2.28,2.28 -0.96,-0.48 -0.9,-0.42 -0.9,-0.36 -0.96,-0.3 0.84,-0.9 z m 12.48,12.06 0.12,0.3 0.06,0.3 -0.9,0.84 -0.3,-0.96 -0.36,-0.9 -0.42,-0.96 -0.48,-0.9 2.28,2.28"
           style="fill:#1e93d0;fill-opacity:1;fill-rule:evenodd;stroke:none"
           id="path4471"
           inkscape:connector-curvature="0" /><path
           d="m 87.36,451.46 -0.54,-0.18 -0.48,-0.18 -0.54,-0.18 -0.48,-0.24 -3.18,-3.18 c 1.61,1.248 4.09,2.552 6.06,3.06 l -0.84,0.9 z m -11.94,-10.62 -0.18,-0.48 -0.24,-0.48 -0.12,-0.54 -0.24,-0.54 0.9,-0.9 c 0.65,2.2 1.632,4.356 3.12,6.12 l -3.24,-3.18 z m 24.18,-26.94 0.54,0.18 0.48,0.18 0.48,0.24 0.54,0.18 3.18,3.18 c -1.858,-1.301 -3.866,-2.439 -6.06,-3.06 l 0.84,-0.9 z m 11.88,10.68 0.24,0.48 0.18,0.48 0.18,0.54 0.18,0.48 -0.9,0.9 c -0.565,-2.209 -1.709,-4.238 -3.06,-6.06 l 3.18,3.18"
           style="fill:#2895d1;fill-opacity:1;fill-rule:evenodd;stroke:none"
           id="path4473"
           inkscape:connector-curvature="0" /><path
           d="m 87.78,451.04 -1.92,-0.72 -0.9,-0.42 -0.9,-0.48 -7.38,-7.32 -0.84,-1.8 -0.42,-0.96 -0.3,-0.96 0.84,-0.9 c 1.764,6.157 6.474,10.933 12.66,12.66 l -0.84,0.9 z m 11.4,-36.66 0.96,0.3 0.9,0.36 0.9,0.42 0.96,0.48 7.32,7.32 0.48,0.9 0.42,0.96 0.36,0.9 0.3,0.96 -0.84,0.9 c -1.687,-6.121 -6.553,-10.95 -12.66,-12.66 l 0.9,-0.84"
           style="fill:#3297d2;fill-opacity:1;fill-rule:evenodd;stroke:none"
           id="path4475"
           inkscape:connector-curvature="0" /><path
           d="M 88.2,450.56 C 82.216,448.872 77.189,443.913 75.54,437.9 l 0.9,-0.84 c 1.499,6.064 6.59,11.172 12.66,12.6 l -0.9,0.9 z M 98.76,414.8 c 5.926,1.729 10.96,6.707 12.6,12.66 l -0.9,0.84 c -1.472,-6.086 -6.565,-11.167 -12.66,-12.6 l 0.96,-0.9"
           style="fill:#399ad3;fill-opacity:1;fill-rule:evenodd;stroke:none"
           id="path4477"
           inkscape:connector-curvature="0" /><path
           d="m 88.62,450.14 c -6.186,-1.727 -10.896,-6.503 -12.66,-12.66 l 0.96,-0.9 c 1.311,6.19 6.496,11.2 12.6,12.66 l -0.9,0.9 z m 9.66,-34.92 c 6.107,1.71 10.973,6.539 12.66,12.66 l -0.9,0.9 c -1.552,-6.326 -6.326,-11.097 -12.66,-12.66 l 0.9,-0.9"
           style="fill:#3f9bd4;fill-opacity:1;fill-rule:evenodd;stroke:none"
           id="path4479"
           inkscape:connector-curvature="0" /><path
           d="m 89.1,449.66 c -6.067,-1.428 -11.174,-6.538 -12.66,-12.6 l 0.9,-0.9 c 1.425,6.324 6.314,11.255 12.66,12.6 l -0.9,0.9 z m 8.7,-33.96 c 6.087,1.417 11.188,6.52 12.66,12.6 l -0.9,0.9 c -1.295,-6.209 -6.427,-11.363 -12.66,-12.6 l 0.9,-0.9"
           style="fill:#449dd5;fill-opacity:1;fill-rule:evenodd;stroke:none"
           id="path4481"
           inkscape:connector-curvature="0" /><path
           d="m 89.52,449.24 c -6.182,-1.519 -11.224,-6.408 -12.6,-12.66 l 0.9,-0.9 c 1.272,6.445 6.222,11.347 12.66,12.66 l -0.96,0.9 z m 7.86,-33.12 c 6.334,1.563 11.108,6.334 12.66,12.66 l -0.9,0.96 c -1.38,-6.584 -6.156,-11.315 -12.72,-12.72 l 0.96,-0.9"
           style="fill:#499fd6;fill-opacity:1;fill-rule:evenodd;stroke:none"
           id="path4483"
           inkscape:connector-curvature="0" /><path
           d="m 90,448.76 c -6.346,-1.345 -11.235,-6.276 -12.66,-12.6 l 0.96,-0.96 c 1.142,6.593 6.103,11.476 12.66,12.66 l -0.96,0.9 z m 6.9,-32.16 c 6.233,1.237 11.365,6.391 12.66,12.6 l -0.9,1.02 C 107.564,423.718 102.503,418.602 96,417.56 l 0.9,-0.96"
           style="fill:#4ea1d8;fill-opacity:1;fill-rule:evenodd;stroke:none"
           id="path4485"
           inkscape:connector-curvature="0" /><path
           d="m 90.48,448.34 c -6.438,-1.313 -11.388,-6.215 -12.66,-12.66 l 0.96,-0.96 c 0.862,6.561 6.134,11.736 12.66,12.66 l -0.96,0.96 z m 5.94,-31.32 c 6.564,1.405 11.34,6.136 12.72,12.72 l -1.02,0.96 c -0.789,-6.522 -6.067,-11.809 -12.6,-12.66 l 0.9,-1.02"
           style="fill:#53a3d9;fill-opacity:1;fill-rule:evenodd;stroke:none"
           id="path4487"
           inkscape:connector-curvature="0" /><path
           d="M 90.96,447.86 C 84.403,446.676 79.442,441.793 78.3,435.2 l 0.96,-0.96 c 0.792,6.739 5.936,11.791 12.66,12.66 l -0.96,0.96 z M 96,417.56 c 6.493,1.038 11.578,6.164 12.66,12.66 l -1.02,0.96 c -0.665,-6.652 -6.009,-11.995 -12.66,-12.66 L 96,417.56"
           style="fill:#58a5da;fill-opacity:1;fill-rule:evenodd;stroke:none"
           id="path4489"
           inkscape:connector-curvature="0" /><path
           d="m 91.44,447.38 c -6.526,-0.924 -11.798,-6.099 -12.66,-12.66 l 1.02,-1.02 c 0.404,6.727 5.948,12.208 12.66,12.66 l -1.02,1.02 z m 4.08,-29.34 c 3.425,0.484 5.917,1.853 8.46,4.14 0.99,1.216 2.108,2.399 2.7,3.9 l 0.3,0.54 0.24,0.54 0.18,0.54 0.24,0.54 0.12,0.6 0.18,0.6 0.12,0.6 0.06,0.66 -0.96,0.96 C 106.646,424.948 101.23,419.505 94.5,419 l 1.02,-0.96"
           style="fill:#5da8db;fill-opacity:1;fill-rule:evenodd;stroke:none"
           id="path4491"
           inkscape:connector-curvature="0" /><path
           d="m 91.92,446.9 c -3.217,-0.418 -6.277,-1.837 -8.58,-4.14 -1.084,-1.155 -2.098,-2.417 -2.7,-3.9 l -0.3,-0.48 -0.24,-0.6 -0.18,-0.54 -0.36,-1.2 -0.12,-0.6 -0.12,-0.6 -0.06,-0.6 1.02,-1.02 c 0.33,6.826 5.781,12.384 12.66,12.6 l -1.02,1.08 z m 3.06,-28.38 c 3.221,0.302 6.296,1.814 8.58,4.08 1.122,1.134 2.058,2.467 2.76,3.9 l 0.48,1.08 0.18,0.6 0.18,0.54 0.18,0.6 0.12,0.6 0.12,0.6 0.06,0.66 -1.02,1.02 c -0.128,-6.783 -5.889,-12.488 -12.66,-12.66 l 1.02,-1.02"
           style="fill:#62aadc;fill-opacity:1;fill-rule:evenodd;stroke:none"
           id="path4493"
           inkscape:connector-curvature="0" /><path
           d="m 92.46,446.36 c -3.459,-0.337 -6.195,-1.54 -8.7,-3.96 -1.38,-1.409 -1.84,-2.25 -2.76,-3.96 l -0.24,-0.54 -0.18,-0.54 -0.24,-0.6 -0.18,-0.6 -0.12,-0.6 -0.12,-0.6 -0.06,-0.6 -0.06,-0.66 1.02,-1.02 c 0.074,6.973 5.657,12.663 12.66,12.6 l -1.02,1.08 z M 94.5,419 c 3.221,0.291 6.419,1.626 8.64,4.02 1.046,0.921 2.221,2.624 2.76,3.9 l 0.24,0.54 0.24,0.6 0.18,0.54 0.18,0.6 0.12,0.6 0.18,0.6 0.06,0.66 0.06,0.6 -1.08,1.08 c 0.032,-7.024 -5.667,-12.678 -12.66,-12.66 L 94.5,419"
           style="fill:#68adde;fill-opacity:1;fill-rule:evenodd;stroke:none"
           id="path4495"
           inkscape:connector-curvature="0" /><path
           d="m 92.94,445.82 c -3.212,-0.12 -6.556,-1.436 -8.76,-3.84 -1.105,-1.052 -2.173,-2.551 -2.76,-3.96 l -0.24,-0.54 -0.18,-0.6 -0.24,-0.54 -0.12,-0.66 -0.12,-0.6 -0.12,-0.6 -0.06,-0.66 -0.06,-0.6 1.14,-1.14 c -0.508,6.976 5.668,13.134 12.66,12.66 l -1.14,1.08 z m 1.02,-26.28 c 3.427,0.145 6.372,1.446 8.82,3.84 1.205,1.254 2.009,2.393 2.76,3.96 l 0.18,0.54 0.24,0.6 0.36,1.2 0.24,1.2 0,0.66 0.06,0.66 -1.08,1.08 c 0.335,-7.126 -5.548,-12.967 -12.66,-12.66 l 1.08,-1.08"
           style="fill:#6cafdf;fill-opacity:1;fill-rule:evenodd;stroke:none"
           id="path4497"
           inkscape:connector-curvature="0" /><path
           d="m 106.08,432.68 0,0.06 -1.14,1.14 c 0.821,-7.192 -5.49,-13.45 -12.66,-12.66 l 1.14,-1.14 0.72,0 0.6,0.06 0.66,0.06 0.6,0.12 0.6,0.18 0.66,0.12 c 2.081,0.89 2.911,1.219 4.68,2.7 2.581,2.359 4.178,5.849 4.14,9.36 z m -12.6,12.6 c -3.319,0.075 -6.599,-1.337 -8.94,-3.66 -1.333,-1.446 -1.88,-2.211 -2.7,-4.02 L 81.6,437 81.24,435.8 81.12,435.26 81,434.6 80.88,434 l -0.06,-0.66 0,-0.66 1.2,-1.2 c -0.825,7.248 5.37,13.411 12.6,12.66 l -1.14,1.14"
           style="fill:#70b1e0;fill-opacity:1;fill-rule:evenodd;stroke:none"
           id="path4499"
           inkscape:connector-curvature="0" /><path
           d="m 105.54,432.68 0,0.6 -1.26,1.26 c 1.392,-7.332 -5.343,-14.035 -12.66,-12.66 l 1.26,-1.26 1.2,0 1.2,0.12 0.6,0.12 0.6,0.18 c 1.399,0.196 3.595,1.423 4.68,2.34 2.701,2.249 4.45,5.758 4.38,9.3 z m -11.46,12.06 c -3.524,0.133 -6.669,-1.062 -9.18,-3.54 -1.089,-1.093 -2.306,-2.904 -2.76,-4.38 -0.407,-0.676 -0.505,-2.07 -0.72,-2.88 l 0,-0.66 -0.06,-0.6 0,-0.3 0.06,-0.3 1.2,-1.2 c -1.228,7.386 5.263,13.937 12.66,12.6 l -1.2,1.26"
           style="fill:#74b3e2;fill-opacity:1;fill-rule:evenodd;stroke:none"
           id="path4501"
           inkscape:connector-curvature="0" /><path
           d="m 105,432.68 0,0.9 -0.06,0.3 -1.38,1.38 c 2.067,-7.519 -5.102,-14.696 -12.6,-12.66 l 1.32,-1.38 0.3,0 0.3,-0.06 0.3,0 c 0.793,-0.022 1.815,0.039 2.58,0.24 1.635,0.302 3.216,1.077 4.56,2.04 2.918,2.094 4.698,5.656 4.68,9.24 z m -10.38,11.46 c -3.485,0.36 -6.789,-0.858 -9.3,-3.3 -1.403,-1.361 -2.241,-2.91 -2.88,-4.74 -0.266,-0.651 -0.403,-2.087 -0.48,-2.82 l 0,-1.5 0.06,-0.3 1.32,-1.32 c -1.828,7.742 4.88,14.413 12.66,12.66 l -1.38,1.32"
           style="fill:#7ab6e3;fill-opacity:1;fill-rule:evenodd;stroke:none"
           id="path4503"
           inkscape:connector-curvature="0" /><path
           d="m 104.46,432.68 0,0.48 -0.06,0.48 -0.06,0.42 -0.06,0.48 -1.5,1.5 c 2.701,-7.975 -4.689,-15.33 -12.66,-12.66 l 1.5,-1.5 0.42,-0.06 0.54,-0.06 0.42,-0.06 c 0.904,-0.018 1.82,0.014 2.7,0.24 1.58,0.29 3.043,1.022 4.32,1.98 2.73,1.962 4.485,5.386 4.44,8.76 z m -9.18,10.8 c -3.456,0.676 -7.141,-0.571 -9.6,-3.06 -1.281,-1.193 -2.171,-2.847 -2.7,-4.5 -0.386,-0.804 -0.349,-1.764 -0.48,-2.64 l 0,-1.5 0.06,-0.48 0.06,-0.42 1.56,-1.56 c -2.797,7.983 4.69,15.404 12.66,12.66 l -1.56,1.5"
           style="fill:#82bae4;fill-opacity:1;fill-rule:evenodd;stroke:none"
           id="path4505"
           inkscape:connector-curvature="0" /><path
           d="m 103.92,432.68 -0.12,1.32 -0.06,0.6 -0.18,0.66 -1.92,1.86 c 4.373,-8.284 -4.429,-16.95 -12.66,-12.6 l 1.98,-1.92 0.54,-0.18 1.32,-0.12 c 0.59,-0.098 2.176,-0.011 2.76,0.18 1.428,0.257 2.993,0.999 4.14,1.86 2.709,2.103 4.112,4.913 4.2,8.34 z M 96,442.82 c -3.634,0.775 -7.256,-0.094 -9.9,-2.76 -1.119,-0.971 -2.197,-2.835 -2.58,-4.26 -0.373,-0.781 -0.36,-1.732 -0.48,-2.58 l 0,-1.2 0.06,-0.66 0.12,-0.6 0.12,-0.6 1.92,-1.92 c -4.27,8.33 4.333,16.876 12.66,12.66 L 96,442.82"
           style="fill:#87bde6;fill-opacity:1;fill-rule:evenodd;stroke:none"
           id="path4507"
           inkscape:connector-curvature="0" /><path
           d="m 103.38,432.68 c -0.077,1.126 -0.127,1.479 -0.36,2.58 l -0.12,0.42 -0.12,0.36 -5.94,5.94 -0.84,0.24 -0.36,0.12 c -1.859,0.317 -3.822,0.342 -5.58,-0.42 -3.843,-1.24 -6.539,-5.227 -6.48,-9.24 -0.014,-0.539 0.169,-2.021 0.36,-2.52 l 0.24,-0.84 5.94,-5.94 0.36,-0.12 0.42,-0.12 0.42,-0.06 c 1.804,-0.456 3.79,-0.315 5.52,0.36 3.947,1.357 6.444,5.125 6.54,9.24 z m -1.14,0 c -0.545,-11.636 -16.975,-11.652 -17.58,0 0.595,11.675 17.044,11.661 17.58,0"
           style="fill:#8dbfe7;fill-opacity:1;fill-rule:evenodd;stroke:none"
           id="path4509"
           inkscape:connector-curvature="0" /><path
           d="m 102.78,432.68 c 0.084,0.71 -0.301,2.814 -0.66,3.42 l -0.24,0.54 -0.24,0.48 -3.72,3.78 -0.54,0.24 -0.48,0.24 -0.54,0.18 c -1.936,0.595 -4.219,0.637 -6.12,-0.12 -3.635,-1.327 -6.136,-4.873 -6.12,-8.76 0.144,-1.412 0.127,-2.056 0.66,-3.42 l 0.24,-0.54 0.24,-0.48 3.72,-3.72 0.54,-0.3 0.48,-0.18 0.54,-0.24 c 1.964,-0.591 4.185,-0.568 6.12,0.12 3.634,1.288 6.188,4.899 6.12,8.76 z m -1.08,0 c -0.473,-10.909 -16.055,-10.909 -16.44,0 0.389,10.941 15.966,10.937 16.44,0"
           style="fill:#90c2e8;fill-opacity:1;fill-rule:evenodd;stroke:none"
           id="path4511"
           inkscape:connector-curvature="0" /><path
           d="m 102.24,432.68 c -0.536,11.661 -16.985,11.675 -17.58,0 0.605,-11.652 17.035,-11.636 17.58,0 z m -1.08,0 c -0.506,-10.195 -14.96,-10.164 -15.36,0 0.406,10.186 14.829,10.251 15.36,0"
           style="fill:#95c4e9;fill-opacity:1;fill-rule:evenodd;stroke:none"
           id="path4513"
           inkscape:connector-curvature="0" /><path
           d="m 101.7,432.68 c -0.474,10.937 -16.051,10.941 -16.44,0 0.385,-10.909 15.967,-10.909 16.44,0 z m -1.08,0 c -0.476,-9.437 -13.895,-9.437 -14.28,0 0.368,9.47 13.813,9.485 14.28,0"
           style="fill:#9ac6ea;fill-opacity:1;fill-rule:evenodd;stroke:none"
           id="path4515"
           inkscape:connector-curvature="0" /><path
           d="m 101.16,432.68 c -0.531,10.251 -14.954,10.186 -15.36,0 0.4,-10.164 14.854,-10.195 15.36,0 z m -1.14,0 c -0.285,-8.661 -12.735,-8.806 -13.14,0 0.361,8.769 12.838,8.737 13.14,0"
           style="fill:#a1caec;fill-opacity:1;fill-rule:evenodd;stroke:none"
           id="path4517"
           inkscape:connector-curvature="0" /><path
           d="m 100.62,432.68 c -0.454,9.479 -13.916,9.473 -14.28,0 0.415,-9.444 13.768,-9.462 14.28,0 z m -1.14,0 c -0.279,-7.566 -10.829,-8.229 -12.06,-0.6 -0.342,8.343 11.602,9.105 12.06,0.6"
           style="fill:#a8ceed;fill-opacity:1;fill-rule:evenodd;stroke:none"
           id="path4519"
           inkscape:connector-curvature="0" /><path
           d="m 100.02,432.68 c -0.302,8.737 -12.779,8.769 -13.14,0 0.405,-8.806 12.855,-8.661 13.14,0 z m -1.08,0 c -0.301,-7.027 -10.041,-7.344 -10.92,-0.54 -0.368,2.848 1.584,5.233 4.32,5.94 3.36,0.66 6.664,-1.92 6.6,-5.4"
           style="fill:#aed2ef;fill-opacity:1;fill-rule:evenodd;stroke:none"
           id="path4521"
           inkscape:connector-curvature="0" /><path
           d="m 99.48,432.68 c -0.458,8.505 -12.402,7.743 -12.06,-0.6 1.231,-7.629 11.781,-6.966 12.06,0.6 z m -1.08,0 c -0.314,-6.528 -9.53,-6.553 -9.9,0 0.311,6.558 9.645,6.532 9.9,0"
           style="fill:#b4d5f0;fill-opacity:1;fill-rule:evenodd;stroke:none"
           id="path4523"
           inkscape:connector-curvature="0" /><path
           d="m 98.94,432.68 c 0.06,3.493 -3.24,6.046 -6.6,5.4 -2.736,-0.707 -4.688,-3.092 -4.32,-5.94 0.884,-6.817 10.625,-6.47 10.92,0.54 z m -1.08,0 c -0.326,-5.824 -8.44,-5.821 -8.82,0 0.298,5.834 8.57,5.848 8.82,0"
           style="fill:#bbd9f2;fill-opacity:1;fill-rule:evenodd;stroke:none"
           id="path4525"
           inkscape:connector-curvature="0" /><path
           d="m 98.4,432.68 c -0.263,6.543 -9.581,6.568 -9.9,0 0.37,-6.553 9.586,-6.528 9.9,0 z m -1.08,0 c -0.263,-5.097 -7.476,-5.114 -7.68,0 0.168,5.115 7.457,5.092 7.68,0"
           style="fill:#c1dcf3;fill-opacity:1;fill-rule:evenodd;stroke:none"
           id="path4527"
           inkscape:connector-curvature="0" /><path
           d="m 97.86,432.68 c -0.25,5.848 -8.522,5.834 -8.82,0 0.38,-5.821 8.494,-5.824 8.82,0 z m -1.14,0 c -0.046,-4.338 -6.455,-4.323 -6.54,0 0.072,4.351 6.508,4.362 6.54,0"
           style="fill:#c6def4;fill-opacity:1;fill-rule:evenodd;stroke:none"
           id="path4529"
           inkscape:connector-curvature="0" /><path
           d="m 97.32,432.68 c -0.223,5.092 -7.512,5.115 -7.68,0 0.204,-5.114 7.417,-5.097 7.68,0 z m -1.14,0 c -0.059,-3.606 -5.346,-3.628 -5.46,0 0.028,3.635 5.486,3.614 5.46,0"
           style="fill:#cee3f6;fill-opacity:1;fill-rule:evenodd;stroke:none"
           id="path4531"
           inkscape:connector-curvature="0" /><path
           d="m 96.72,432.68 c -0.032,4.362 -6.468,4.351 -6.54,0 0.085,-4.323 6.494,-4.338 6.54,0 z m -1.02,0 c -0.251,-2.916 -4.29,-2.885 -4.44,0 0.147,2.937 4.235,2.891 4.44,0"
           style="fill:#d7e8f7;fill-opacity:1;fill-rule:evenodd;stroke:none"
           id="path4533"
           inkscape:connector-curvature="0" /><path
           d="m 96.18,432.68 c 0.026,3.614 -5.432,3.635 -5.46,0 0.114,-3.628 5.401,-3.606 5.46,0 z m -1.08,0 c -0.069,-2.156 -3.164,-2.178 -3.3,0 l 0,0.18 0.06,0.18 0.06,0.12 0.06,0.18 0.06,0.12 0.06,0.18 0.06,0.12 0.12,0.06 c 0.474,0.405 0.551,0.53 1.2,0.48 0.519,0.081 0.807,-0.116 1.14,-0.48 l 0.12,-0.06 0.06,-0.12 0.12,-0.18 0.06,-0.12 0.06,-0.18 0.06,-0.12 0,-0.36"
           style="fill:#e1edf9;fill-opacity:1;fill-rule:evenodd;stroke:none"
           id="path4535"
           inkscape:connector-curvature="0" /><path
           d="m 95.7,432.68 c -0.226,2.887 -4.276,2.945 -4.44,0 0.175,-2.907 4.175,-2.899 4.44,0 z m -1.14,0 c -0.047,-1.45 -2.068,-1.461 -2.22,0 0.293,1.666 2.227,1.28 2.22,0"
           style="fill:#e8f1fa;fill-opacity:1;fill-rule:evenodd;stroke:none"
           id="path4537"
           inkscape:connector-curvature="0" /><path
           d="m 95.1,432.68 0,0.36 -0.06,0.12 -0.06,0.18 -0.06,0.12 -0.12,0.18 -0.06,0.12 -0.12,0.06 c -0.333,0.364 -0.621,0.561 -1.14,0.48 -0.649,0.05 -0.726,-0.075 -1.2,-0.48 l -0.12,-0.06 -0.06,-0.12 -0.06,-0.18 -0.06,-0.12 -0.06,-0.18 -0.06,-0.12 -0.06,-0.18 0,-0.18 c 0.136,-2.178 3.231,-2.156 3.3,0"
           style="fill:#f0f5fb;fill-opacity:1;fill-rule:evenodd;stroke:none"
           id="path4539"
           inkscape:connector-curvature="0" /><path
           d="m 94.56,432.68 c 0.007,1.28 -1.927,1.666 -2.22,0 0.152,-1.461 2.173,-1.45 2.22,0"
           style="fill:#f7fafd;fill-opacity:1;fill-rule:evenodd;stroke:none"
           id="path4541"
           inkscape:connector-curvature="0" /><path
           d="m 94.02,432.68 0,0.12 -0.06,0.12 -0.06,0.06 -0.06,0.12 -0.06,0.06 -0.12,0.06 -0.42,0 -0.12,-0.06 -0.06,-0.06 -0.06,-0.12 -0.06,-0.06 0,-0.12 c 0.013,-0.396 -0.056,-0.187 0.12,-0.54 l 0.06,0 0.24,-0.12 0.24,0 0.06,0.06 0.12,0.06 0.06,0 0.06,0.12 0.06,0.12 0.06,0.06 0,0.12"
           style="fill:#ffffff;fill-opacity:1;fill-rule:evenodd;stroke:none"
           id="path4543"
           inkscape:connector-curvature="0" /><path
           d="m 112.86,425.96 -12.66,-12.66 -26.16,26.1 12.66,12.66 26.16,-26.1 z m -6.18,-6.36 5.52,-5.52 m -37.38,37.32 5.52,-5.52 m 80.64,-47.52 -12.66,-12.6 -26.16,26.1 12.66,12.66 26.16,-26.16 z m -6.18,-6.36 5.46,-5.46 m -37.38,37.32 5.52,-5.52 m 5.94,28.62 -12.66,-12.66 -26.16,26.1 12.6,12.66 26.22,-26.1 z m -6.24,-6.42 5.52,-5.46 m -37.38,37.32 5.58,-5.52 m 130.2,-32.04 -12.66,12.66 -26.16,-26.16 12.66,-12.6 26.16,26.1 z m -6.18,6.36 5.52,5.52 m -37.38,-37.32 5.52,5.52 M 138.72,527.6 126,540.26 99.84,514.1 112.5,501.44 138.72,527.6 Z m -6.24,6.36 5.52,5.52 m -37.38,-37.32 5.52,5.52 M 232.02,515 219.36,502.4 193.2,528.5 205.86,541.16 232.02,515 Z m -6.18,-6.36 5.52,-5.46 m -37.38,37.32 5.52,-5.52"
           style="fill:none;stroke:#1f1a17;stroke-width:0.93300003;stroke-linecap:round;stroke-linejoin:round;stroke-miterlimit:10;stroke-dasharray:none;stroke-opacity:1"
           id="path4545"
           inkscape:connector-curvature="0" /><path
           d="m 74.16,475.82 0,0.06 -0.06,0 0,0.06 -0.12,0 0,0.06 -0.06,0 -0.06,0.06 0,0.06 -0.06,0 0,0.06 -0.06,0 -0.06,0.06 -0.06,0 -0.06,0.06 -0.06,0 0,0.06 -0.12,0 -0.06,0.06 -0.12,0 -0.06,0.06 -0.12,0 -0.06,0.06 c -0.375,-0.02 -0.011,0.093 -0.6,0.06 l -0.54,0 -0.06,-0.06 -0.18,0 -0.06,-0.06 -0.18,0 -0.06,-0.06 -0.12,0 0,-0.06 -0.12,0 -0.06,-0.06 -0.06,0 0,-0.06 -0.12,0 0,-0.06 -0.06,0 0,-0.06 -0.06,0 0,-0.06 -0.06,0 -0.06,-0.06 -0.06,-0.06 -0.06,0 -0.06,-0.06 0,-0.06 -0.06,0 -0.06,-0.06 0,-0.06 -0.12,-0.12 0,-0.06 -0.06,0 0,-0.06 -0.12,-0.12 0,-0.06 -0.06,0 0,-0.12 -0.06,0 0,-0.12 -0.06,0 0,-0.12 -0.06,0 0,-0.24 -0.06,-0.06 0,-0.18 -0.06,-0.06 0,-0.9 0.06,-0.06 0,-0.18 0.06,-0.06 0,-0.24 0.06,0 0,-0.06 0.06,-0.06 0,-0.12 0.06,0 0,-0.12 0.06,0 0,-0.06 0.06,-0.06 0,-0.06 0.06,0 0,-0.06 0.06,0 0,-0.06 0.06,0 0,-0.06 0.06,0 0,-0.12 0.06,0 0,-0.06 0.06,0 0,-0.06 0.06,0 0,-0.06 0.06,0 0,-0.06 0.12,0 0,-0.06 0.06,0 0,-0.06 0.06,0 0,-0.06 0.06,0 0.06,-0.06 0.06,0 0.06,-0.06 0.06,0 0.06,-0.06 0.12,0 0,-0.06 0.06,0 0.06,-0.06 0.24,0 0.06,-0.06 0.24,0 0.06,-0.06 0.66,0 0.06,0.06 0.24,0 0.06,0.06 0.24,0 0,0.06 0.12,0 0,0.06 0.12,0 0,0.06 0.12,0 0,0.06 0.12,0 0,0.06 0.06,0 0.06,0.06 0.06,0 0,0.06 0.06,0.06 0.06,0 0.24,0.24 0.06,0.06 0,0.06 0.06,0 0,0.06 0.06,0 0,0.06 0.12,0.12 0,0.06 0.06,0.06 0,0.06 0.06,0 0,0.12 0.06,0 0,0.12 0.06,0 0,0.12 0.06,0.06 0,0.12 0.06,0.06 0,0.36 0.06,0.06 0,0.54 -0.06,0.06 0,0.36 -0.06,0.06 0,0.18 -0.06,0 0,0.06 -0.06,0.06 0,0.12 -0.06,0 0,0.12 -0.06,0 0,0.06 -0.06,0.06 0,0.06 -0.06,0 0,0.06 -0.06,0.06 0,0.06 -0.12,0.12 0,0.06 -0.06,0 0,0.06 -0.06,0 -1.92,-1.92"
           style="fill:#1f1a17;fill-opacity:1;fill-rule:evenodd;stroke:none"
           id="path4547"
           inkscape:connector-curvature="0" /><path
           d="M 85.26,461.6 72.6,474.26 71.94,473.6 84.6,460.94"
           style="fill:#1f1a17;fill-opacity:1;fill-rule:nonzero;stroke:none"
           id="path4549"
           inkscape:connector-curvature="0" /><path
           d="m 165.96,380.84 28.38,28.2 -0.66,0.66 -28.38,-28.2"
           style="fill:#1f1a17;fill-opacity:1;fill-rule:nonzero;stroke:none"
           id="path4551"
           inkscape:connector-curvature="0" /><g
           id="g4553"><g
             id="g4555"
             clip-path="url(#clipPath4557)"><path
               d="m 167.52,379.28 -0.06,0 0,-0.06 -0.06,0 0,-0.06 -0.06,0 0,-0.06 -0.06,-0.06 -0.06,0 0,-0.06 -0.12,0 0,-0.06 -0.12,0 0,-0.06 -0.06,0 -0.06,-0.06 -0.06,0 0,-0.06 -0.12,0 -0.06,-0.06 -0.06,0 -0.06,-0.06 -0.12,0 -0.06,-0.06 -0.18,0 -0.06,-0.06 -0.24,0 c -0.12,0 -0.24,0 -0.36,0 -0.1,0 -0.2,0 -0.3,0 l -0.06,0.06 -0.24,0 -0.06,0.06 -0.12,0 -0.06,0.06 -0.06,0 -0.06,0.06 -0.06,0 -0.06,0.06 -0.06,0 -0.06,0.06 -0.06,0 0,0.06 -0.06,0 0,0.06 -0.12,0 -0.12,0.12 -0.06,0 0,0.06 -0.06,0 0,0.06 -0.06,0 0,0.06 -0.06,0 0,0.06 -0.24,0.24 0,0.06 -0.06,0 0,0.06 -0.06,0.06 0,0.06 -0.06,0.06 0,0.06 -0.06,0 0,0.12 -0.06,0.06 0,0.12 -0.06,0.06 0,0.06 -0.06,0.06 0,0.18 -0.06,0.06 0,0.3 c 0,0.18 0,0.36 0,0.54 l 0,0.18 0.06,0.06 0,0.18 0.06,0.06 0,0.12 0.06,0 0,0.18 0.06,0 0,0.12 0.06,0.06 0,0.06 0.06,0 0,0.06 0.06,0.06 0,0.06 0.06,0 0,0.06 0.06,0.06 0,0.06 0.06,0 0,0.06 0.06,0 0,0.06 0.06,0 0,0.06 0.06,0.06 0.06,0 0,0.06 0.06,0 0,0.06 0.06,0 0,0.06 0.06,0 0.06,0.06 0.06,0 0,0.06 0.06,0 0.12,0.12 0.12,0 0.06,0.06 0.12,0 0,0.06 0.12,0 0,0.06 0.12,0 0.12,0.06 0.18,0 0.06,0.06 c 0.18,0 0.36,0 0.54,0 l 0.36,0 0.06,-0.06 0.18,0 0.06,-0.06 0.12,0 0.06,-0.06 0.12,0 0,-0.06 0.12,0 0,-0.06 0.12,0 0.06,-0.06 0.06,0 0,-0.06 0.06,0 0.06,-0.06 0.06,0 0,-0.06 0.06,0 0.06,-0.06 0,-0.06 0.06,0 0.06,-0.06 0,-0.06 0.12,0 0,-0.06 0.06,0 0,-0.06 0.06,-0.06 0,-0.06 0.06,0 0,-0.06 0.06,0 0,-0.12 0.06,0 0,-0.06 0.06,-0.06 0,-0.06 0.06,0 0,-0.12 0.06,0 0,-0.12 0.06,-0.06 0,-0.06 0.06,-0.06 0,-0.12 0.06,-0.06 0,-0.24 0.06,-0.06 c 0,-0.1 0,-0.2 0,-0.3 l 0,-0.48 -0.06,-0.06 0,-0.18 -0.06,-0.06 0,-0.12 -0.06,-0.06 0,-0.12 -0.06,-0.06 0,-0.12 -0.06,0 0,-0.06 -0.06,-0.06 0,-0.06 -0.06,-0.06 0,-0.06 -0.06,0 0,-0.12 -0.06,0 0,-0.06 -0.06,0 0,-0.06 -0.06,0 0,-0.06 -0.06,0 0,-0.06 -0.06,-0.06 -1.92,1.92"
               style="fill:#1f1a17;fill-opacity:1;fill-rule:evenodd;stroke:none"
               id="path4561"
               inkscape:connector-curvature="0" /></g></g><path
           d="m 160.26,386.54 5.34,-5.34"
           style="fill:none;stroke:#1f1a17;stroke-width:0.93300003;stroke-linecap:round;stroke-linejoin:round;stroke-miterlimit:10;stroke-dasharray:none;stroke-opacity:1"
           id="path4563"
           inkscape:connector-curvature="0" /><path
           d="m 72.6,473.6 28.32,28.2 -0.6,0.66 -28.38,-28.2"
           style="fill:#1f1a17;fill-opacity:1;fill-rule:nonzero;stroke:none"
           id="path4565"
           inkscape:connector-curvature="0" /><path
           d="m 74.16,472.04 -0.18,-0.18 -0.06,0 -0.12,-0.12 -0.06,0 0,-0.06 -0.06,0 -0.06,-0.06 -0.06,0 -0.06,-0.06 -0.06,0 0,-0.06 -0.12,0 -0.06,-0.06 -0.06,0 -0.06,-0.06 -0.18,0 -0.06,-0.06 -0.24,0 -0.06,-0.06 -0.66,0 -0.06,0.06 -0.18,0 -0.06,0.06 -0.3,0 -0.06,0.06 -0.06,0 0,0.06 -0.12,0 -0.06,0.06 -0.06,0 -0.06,0.06 -0.06,0 0,0.06 -0.12,0 0,0.06 -0.06,0 0,0.06 -0.06,0 0,0.06 -0.06,0 -0.06,0.06 -0.06,0 0,0.06 -0.06,0 0,0.06 -0.06,0 0,0.06 -0.06,0 0,0.06 -0.06,0.06 0,0.06 -0.06,0 0,0.06 -0.06,0.06 -0.06,0 0,0.06 -0.06,0.06 0,0.06 -0.06,0 0,0.12 -0.06,0.06 0,0.06 -0.06,0.06 0,0.06 -0.06,0.06 0,0.18 -0.06,0.06 0,0.18 -0.06,0.06 0,0.18 c 0,0.2 0,0.4 0,0.6 l 0,0.12 0.06,0.06 0,0.18 0.06,0.12 0,0.18 0.06,0 0,0.12 0.06,0 0,0.12 0.06,0.06 0,0.06 0.06,0 0,0.12 0.06,0 0,0.06 0.06,0 0,0.06 0.06,0 0,0.06 0.12,0.12 0,0.06 0.06,0.06 0.06,0 0,0.06 0.06,0.06 0.06,0 0.06,0.06 0.06,0.06 0.06,0 0,0.06 0.06,0 0,0.06 0.06,0 0.06,0.06 0.06,0 0,0.06 0.12,0 0,0.06 0.12,0 0,0.06 0.18,0 0,0.06 0.18,0 0.06,0.06 0.18,0 0.06,0.06 c 0.18,0 0.36,0 0.54,0 0.505,0.035 0.286,-0.067 0.54,-0.06 l 0.06,0 0.06,-0.06 0.12,0 0.06,-0.06 0.18,0 0,-0.06 0.12,0 0,-0.06 0.06,0 0.06,-0.06 0.06,0 0.06,-0.06 0.06,0 0,-0.06 0.06,0 0,-0.06 0.06,0 0,-0.06 0.06,0 0,-0.06 0.12,0 0,-0.06 0.06,0 0,-0.06 0.06,-0.06 0.06,0 0,-0.06 0.06,0 0,-0.06 0.06,-0.06 0,-0.06 0.06,-0.06 0,-0.06 0.06,0 0,-0.06 0.06,0 0,-0.12 0.06,0 0,-0.12 0.06,0 0,-0.12 0.06,0 0,-0.12 0.06,-0.06 0,-0.12 0.06,-0.06 0,-0.36 0.06,-0.06 0,-0.54 -0.06,-0.06 c 0,-0.1 0,-0.2 0,-0.3 l 0,-0.06 -0.06,-0.06 0,-0.12 -0.06,-0.06 0,-0.06 -0.06,-0.06 0,-0.12 -0.06,0 0,-0.12 -0.06,0 0,-0.06 -0.06,-0.06 0,-0.06 -0.06,0 0,-0.06 -0.06,0 0,-0.12 -0.06,-0.06 -0.06,0 0,-0.06 -0.06,-0.06 -0.06,-0.06 -1.92,1.86"
           style="fill:#1f1a17;fill-opacity:1;fill-rule:evenodd;stroke:none"
           id="path4567"
           inkscape:connector-curvature="0" /><path
           d="M 193.98,540.5 165.6,568.7"
           style="fill:none;stroke:#1f1a17;stroke-width:0.93300003;stroke-linecap:round;stroke-linejoin:round;stroke-miterlimit:10;stroke-dasharray:none;stroke-opacity:1"
           id="path4569"
           inkscape:connector-curvature="0" /><path
           d="m 261.6,473.06 0.06,0 0.12,0.12 0,0.06 0.06,0 0,0.12 0.06,0 0,0.06 0.06,0 0,0.06 0.06,0 0,0.06 0.06,0.06 0,0.06 0.06,0.06 0,0.12 0.12,0.12 0,0.06 0.06,0.06 c -0.031,0.486 0.089,0.23 0.06,0.72 0,0.22 0,0.44 0,0.66 l -0.06,0.06 0,0.24 -0.06,0.06 0,0.06 -0.06,0.06 0,0.12 -0.06,0 0,0.12 -0.06,0.06 0,0.06 -0.06,0 0,0.06 -0.06,0.06 0,0.06 -0.06,0 -0.06,0.06 0,0.06 -0.06,0.06 0,0.06 -0.06,0 0,0.06 -0.06,0 0,0.06 -0.06,0 0,0.06 -0.06,0 0,0.06 -0.06,0 -0.06,0.06 -0.06,0 0,0.06 -0.06,0 0,0.06 -0.06,0 0,0.06 -0.12,0 0,0.06 -0.06,0 -0.06,0.06 -0.06,0 -0.06,0.06 -0.06,0 -0.06,0.06 -0.12,0 -0.06,0.06 -0.24,0 -0.06,0.06 -0.18,0 -0.06,0.06 c -0.16,0 -0.32,0 -0.48,0 l -0.12,0 -0.12,-0.06 -0.24,0 -0.06,-0.06 -0.12,0 0,-0.06 -0.18,0 -0.06,-0.06 -0.12,0 0,-0.06 -0.06,0 -0.06,-0.06 -0.06,0 -0.06,-0.06 -0.06,0 0,-0.06 -0.06,0 0,-0.06 -0.06,0 -0.12,-0.12 -0.06,0 0,-0.06 -0.06,0 -0.12,-0.12 0,-0.06 -0.06,0 0,-0.06 -0.06,0 0,-0.06 -0.06,-0.06 0,-0.06 -0.06,0 0,-0.06 -0.06,0 0,-0.06 -0.06,-0.06 0,-0.06 -0.06,-0.06 0,-0.06 -0.06,0 0,-0.12 -0.06,-0.06 0,-0.06 -0.06,-0.06 0,-0.24 -0.06,-0.06 0,-0.3 -0.06,-0.06 0,-0.42 0.06,-0.06 0,-0.3 0.06,-0.06 c 0,-0.1 0,-0.2 0,-0.3 l 0.06,0 0,-0.12 0.06,0 0,-0.12 0.06,0 0,-0.12 0.06,0 0,-0.06 0.06,-0.06 0,-0.06 0.06,0 0,-0.06 0.06,0 0,-0.06 0.06,-0.06 0,-0.06 0.06,-0.06 0,-0.06 0.06,0 0.06,-0.06 0,-0.06 0.06,0 0,-0.06 0.06,0 0.06,-0.06 0.06,0 0.12,-0.12 0,-0.06 0.06,0 0.06,-0.06 0.06,0 0.06,-0.06 0.06,0 0,-0.06 0.12,0 0.06,-0.06 0.06,0 0.06,-0.06 0.18,0 0.06,-0.06 0.18,0 0.06,-0.06 0.12,0 c 0.14,0 0.28,0 0.42,0 0.1,0 0.2,0 0.3,0 l 0.06,0 0.12,0.06 0.12,0 0.06,0.06 c 0.315,0.018 0.166,-0.069 0.36,0.12 l 0.12,0 0.06,0.06 0.06,0 0.06,0.06 0.06,0 0,0.06 0.06,0 0.06,0.06 0,0.06 0.06,0 0.06,0.06 0.06,0 0.06,0.06 0.06,0.06 0,0.06 -1.86,1.86"
           style="fill:#1f1a17;fill-opacity:1;fill-rule:evenodd;stroke:none"
           id="path4571"
           inkscape:connector-curvature="0" /><path
           d="m 231.72,446.42 28.32,28.2 -0.66,0.66 -28.32,-28.26"
           style="fill:#1f1a17;fill-opacity:1;fill-rule:nonzero;stroke:none"
           id="path4573"
           inkscape:connector-curvature="0" /><path
           d="m 168.3,565.76 0,0.06 0.06,0.06 0,0.06 0.06,0 0,0.06 0.06,0 0,0.06 0.06,0.06 0.06,0.06 0,0.06 0.06,0 0,0.06 0.06,0.06 0,0.06 0.06,0 0,0.12 0.06,0 0,0.06 0.06,0.12 0,0.12 0.06,0.06 0,0.24 0.06,0.06 0,0.36 0.06,0.06 0,0.12 -0.06,0.06 0,0.42 -0.06,0.06 0,0.18 -0.06,0.06 0,0.18 -0.06,0.06 0,0.06 -0.06,0 0,0.12 -0.06,0 0,0.12 -0.06,0 0,0.06 -0.06,0.06 0,0.06 -0.06,0 0,0.06 -0.06,0.06 -0.12,0.12 0,0.06 -0.06,0 0,0.06 -0.06,0 0,0.06 -0.06,0 0,0.06 -0.06,0 0,0.06 -0.06,0 -0.06,0.06 -0.06,0 -0.06,0.06 -0.06,0 0,0.06 -0.06,0 0,0.06 -0.06,0 -0.06,0.06 -0.06,0 -0.06,0.06 -0.06,0 -0.06,0.06 -0.06,0 -0.06,0.06 -0.12,0 -0.06,0.06 -0.36,0 -0.12,0.06 c -0.16,0 -0.32,0 -0.48,0 l -0.06,-0.06 -0.42,0 -0.06,-0.06 -0.12,0 0,-0.06 -0.18,0 0,-0.06 -0.06,0 -0.06,-0.06 -0.06,0 -0.06,-0.06 -0.06,0 0,-0.06 -0.12,0 0,-0.06 -0.06,0 -0.06,-0.06 -0.06,0 0,-0.06 -0.06,0 0,-0.06 -0.06,0 0,-0.06 -0.06,0 0,-0.06 -0.06,0 -0.06,-0.06 0,-0.06 -0.06,0 0,-0.06 -0.06,0 0,-0.06 -0.06,0 0,-0.06 -0.06,-0.06 0,-0.06 -0.06,0 0,-0.12 -0.06,0 0,-0.06 -0.06,-0.06 0,-0.06 -0.06,-0.06 0,-0.06 -0.06,-0.06 0,-0.12 -0.06,0 0,-0.18 -0.06,-0.06 0,-0.18 -0.06,-0.06 0,-0.06 c 0,-0.22 0,-0.44 0,-0.66 l 0,-0.06 0.06,-0.06 0,-0.18 0.06,-0.06 0,-0.18 0.06,-0.06 0,-0.06 0.06,-0.06 0,-0.06 0.06,-0.06 0,-0.06 0.06,-0.06 0,-0.12 0.06,0 0,-0.06 0.06,0 0,-0.06 0.06,0 0,-0.12 0.06,0 0,-0.06 0.12,-0.12 0,-0.06 0.06,0 0.06,-0.06 0.06,0 0,-0.06 0.06,0 0,-0.06 0.06,0 0,-0.06 0.06,0 0,-0.06 0.06,0 0.06,-0.06 0.06,0 0,-0.06 0.06,0 0.06,-0.06 0.06,0 0.06,-0.06 0.12,0 0,-0.06 0.12,0 0.06,-0.06 0.12,0 0.06,-0.06 0.18,0 0.06,-0.06 0.3,0 c 0.1,0 0.2,0 0.3,0 0.1,0 0.2,0 0.3,0 l 0.06,0.06 0.24,0 0.06,0.06 0.12,0 0.06,0.06 0.12,0.06 0.12,0 0.06,0.06 0.06,0 0.06,0.06 0.06,0 0,0.06 0.06,0 0,0.06 0.06,0 0.06,0.06 0.06,0 0,0.06 0.06,0 0,0.06 0.06,0 0,0.06 0.12,0 -1.92,1.92"
           style="fill:#1f1a17;fill-opacity:1;fill-rule:evenodd;stroke:none"
           id="path4575"
           inkscape:connector-curvature="0" /><path
           d="m 138.3,539.18 28.44,28.2 -0.72,0.66 -28.32,-28.2"
           style="fill:#1f1a17;fill-opacity:1;fill-rule:nonzero;stroke:none"
           id="path4577"
           inkscape:connector-curvature="0" /><path
           d="m 257.82,473.06 0.06,-0.06 0.06,-0.06 0,-0.06 0.12,0 0,-0.06 0.06,0 0.06,-0.06 0.06,-0.06 0.06,0 0,-0.06 0.06,0 0.06,-0.06 0.06,0 0.06,-0.06 0.06,0 0.06,-0.06 0.06,0 0.06,-0.06 0.18,0 0.06,-0.06 0.18,0 0.06,-0.06 c 0.14,0 0.28,0 0.42,0 0.1,0 0.2,0 0.3,0 l 0.24,0 0.06,0.06 0.18,0 0.06,0.06 0.18,0 0.06,0.06 0.06,0 0.06,0.06 0.06,0 0.06,0.06 0.06,0 0,0.06 0.12,0 0,0.06 0.06,0 0.18,0.18 0.06,0 0,0.06 0.06,0 0.06,0.06 0.06,0.06 0,0.06 0.06,0 0.06,0.06 0,0.06 0.06,0 0,0.12 0.06,0 0,0.06 0.06,0 0,0.06 0.06,0.06 0,0.06 0.06,0 0,0.06 0.06,0.06 0,0.06 0.06,0.06 0,0.06 0.06,0.06 0,0.06 0.06,0.12 0,0.24 0.06,0.06 c 0,0.1 0,0.2 0,0.3 0,0.22 0,0.44 0,0.66 l -0.06,0.06 0,0.3 -0.06,0.06 0,0.12 -0.06,0 0,0.12 -0.06,0 0,0.12 -0.06,0 0,0.12 -0.06,0 0,0.06 -0.12,0.12 0,0.06 -0.06,0 0,0.12 -0.06,0 0,0.06 -0.06,0 0,0.06 -0.06,0 0,0.06 -0.06,0 0,0.06 -0.06,0 0,0.06 -0.12,0 0,0.06 -0.06,0 0,0.06 -0.06,0 0,0.06 -0.06,0 0,0.06 -0.06,0 -0.06,0.06 -0.06,0 -0.06,0.06 -0.06,0 0,0.06 -0.18,0 0,0.06 -0.18,0 0,0.06 -0.18,0 -0.06,0.06 -0.24,0 -0.06,0.06 c -0.2,0 -0.4,0 -0.6,0 l -0.06,0 -0.06,-0.06 -0.18,0 -0.06,-0.06 -0.18,0 -0.06,-0.06 -0.12,0 -0.06,-0.06 -0.06,0 -0.06,-0.06 -0.12,0 0,-0.06 -0.06,0 -0.06,-0.06 -0.06,0 -0.06,-0.06 0,-0.06 -0.06,0 0,-0.06 c -0.129,-0.01 -0.41,-0.216 -0.42,-0.36 l -0.06,0 0,-0.12 -0.06,0 0,-0.06 -0.06,0 0,-0.06 -0.06,0 0,-0.06 -0.06,-0.06 0,-0.06 -0.06,0 0,-0.12 -0.06,-0.06 0,-0.06 -0.06,-0.06 0,-0.06 -0.06,-0.06 0,-0.06 c 0.02,-0.353 -0.093,-0.042 -0.06,-0.6 l -0.06,-0.06 0,-0.36 0.06,-0.06 0,-0.3 0.06,-0.06 0,-0.3 0.06,0 0,-0.12 0.06,0 0,-0.12 0.06,-0.06 0,-0.06 0.06,0 0,-0.12 0.06,0 0,-0.06 0.06,-0.06 0.06,-0.06 0.06,-0.06 0,-0.06 0.12,-0.12 0,-0.06 0.06,0 1.92,1.86"
           style="fill:#1f1a17;fill-opacity:1;fill-rule:evenodd;stroke:none"
           id="path4579"
           inkscape:connector-curvature="0" /><path
           d="m 231.06,502.82 28.32,-28.2 0.66,0.66 -28.32,28.2"
           style="fill:#1f1a17;fill-opacity:1;fill-rule:nonzero;stroke:none"
           id="path4581"
           inkscape:connector-curvature="0" /><text
           transform="matrix(1,0,0,-0.99794857,87.12,429.3803)"
           style="font-style:italic;font-variant:normal;font-weight:bold;font-stretch:normal;font-size:13.45400047px;font-family:Arial;-inkscape-font-specification:Arial-BoldItalicMT;writing-mode:lr-tb;fill:#1f1a17;fill-opacity:1;fill-rule:nonzero;stroke:none"
           id="text4583"><tspan
             x="0"
             y="0"
             id="tspan4585">R</tspan></text>
<text
           transform="matrix(0.99763153,0,0,-1,96.84,426.7403)"
           style="font-variant:normal;font-weight:bold;font-stretch:normal;font-size:6.71320009px;font-family:Arial;-inkscape-font-specification:Arial-BoldMT;writing-mode:lr-tb;fill:#1f1a17;fill-opacity:1;fill-rule:nonzero;stroke:none"
           id="text4587"><tspan
             x="0"
             y="0"
             id="tspan4589">L</tspan></text>
<text
           transform="matrix(1,0,0,-0.99773616,108.06,450.5003)"
           style="font-style:italic;font-variant:normal;font-weight:normal;font-stretch:normal;font-size:13.42850018px;font-family:Arial;-inkscape-font-specification:Arial-ItalicMT;writing-mode:lr-tb;fill:#1f1a17;fill-opacity:1;fill-rule:nonzero;stroke:none"
           id="text4591"><tspan
             x="0"
             y="0"
             id="tspan4593">R</tspan></text>
<text
           transform="matrix(1,0,0,-0.99509361,117.78,447.8003)"
           style="font-variant:normal;font-weight:normal;font-stretch:normal;font-size:6.74630022px;font-family:Arial;-inkscape-font-specification:ArialMT;writing-mode:lr-tb;fill:#1f1a17;fill-opacity:1;fill-rule:nonzero;stroke:none"
           id="text4595"><tspan
             x="0"
             y="0"
             id="tspan4597">P</tspan></text>
<text
           transform="matrix(1,0,0,-0.99773616,135,401.8403)"
           style="font-style:italic;font-variant:normal;font-weight:normal;font-stretch:normal;font-size:13.42850018px;font-family:Arial;-inkscape-font-specification:Arial-ItalicMT;writing-mode:lr-tb;fill:#1f1a17;fill-opacity:1;fill-rule:nonzero;stroke:none"
           id="text4599"><tspan
             x="0"
             y="0"
             id="tspan4601">R</tspan></text>
<text
           transform="matrix(1,0,0,-0.99509361,144.66,399.2003)"
           style="font-variant:normal;font-weight:normal;font-stretch:normal;font-size:6.74630022px;font-family:Arial;-inkscape-font-specification:ArialMT;writing-mode:lr-tb;fill:#1f1a17;fill-opacity:1;fill-rule:nonzero;stroke:none"
           id="text4603"><tspan
             x="0"
             y="0"
             id="tspan4605">V</tspan></text>
<text
           transform="matrix(1,0,0,-0.99773616,112.98,518.3604)"
           style="font-style:italic;font-variant:normal;font-weight:normal;font-stretch:normal;font-size:13.42850018px;font-family:Arial;-inkscape-font-specification:Arial-ItalicMT;writing-mode:lr-tb;fill:#1f1a17;fill-opacity:1;fill-rule:nonzero;stroke:none"
           id="text4607"><tspan
             x="0"
             y="0"
             id="tspan4609">R</tspan></text>
<text
           transform="matrix(1,0,0,-0.99509361,122.7,515.6603)"
           style="font-variant:normal;font-weight:normal;font-stretch:normal;font-size:6.74630022px;font-family:Arial;-inkscape-font-specification:ArialMT;writing-mode:lr-tb;fill:#1f1a17;fill-opacity:1;fill-rule:nonzero;stroke:none"
           id="text4611"><tspan
             x="0"
             y="0"
             id="tspan4613">V</tspan></text>
<text
           transform="matrix(1,0,0,-0.99773616,205.92,518.1203)"
           style="font-style:italic;font-variant:normal;font-weight:normal;font-stretch:normal;font-size:13.42850018px;font-family:Arial;-inkscape-font-specification:Arial-ItalicMT;writing-mode:lr-tb;fill:#1f1a17;fill-opacity:1;fill-rule:nonzero;stroke:none"
           id="text4615"><tspan
             x="0"
             y="0"
             id="tspan4617">R</tspan></text>
<text
           transform="matrix(1,0,0,-0.99509361,215.58,515.4203)"
           style="font-variant:normal;font-weight:normal;font-stretch:normal;font-size:6.74630022px;font-family:Arial;-inkscape-font-specification:ArialMT;writing-mode:lr-tb;fill:#1f1a17;fill-opacity:1;fill-rule:nonzero;stroke:none"
           id="text4619"><tspan
             x="0"
             y="0"
             id="tspan4621">B</tspan></text>
<text
           transform="matrix(1,0,0,-0.99773616,284.1,469.7603)"
           style="font-style:italic;font-variant:normal;font-weight:normal;font-stretch:normal;font-size:13.42850018px;font-family:Arial;-inkscape-font-specification:Arial-ItalicMT;writing-mode:lr-tb;fill:#da251d;fill-opacity:1;fill-rule:nonzero;stroke:none"
           id="text4623"><tspan
             x="0"
             y="0"
             id="tspan4625">U</tspan><tspan
             x="-112.61946"
             y="11.426311"
             id="tspan4627">U</tspan></text>
<text
           transform="matrix(1,0,0,-0.99509361,181.2,455.6603)"
           style="font-style:italic;font-variant:normal;font-weight:normal;font-stretch:normal;font-size:6.74630022px;font-family:Arial;-inkscape-font-specification:Arial-ItalicMT;writing-mode:lr-tb;fill:#da251d;fill-opacity:1;fill-rule:nonzero;stroke:none"
           id="text4629"><tspan
             x="0"
             y="0"
             id="tspan4631">m</tspan></text>
<text
           transform="matrix(1,0,0,-0.99773616,205.14,424.5803)"
           style="font-style:italic;font-variant:normal;font-weight:normal;font-stretch:normal;font-size:13.42850018px;font-family:Arial;-inkscape-font-specification:Arial-ItalicMT;writing-mode:lr-tb;fill:#1f1a17;fill-opacity:1;fill-rule:nonzero;stroke:none"
           id="text4633"><tspan
             x="0"
             y="0"
             id="tspan4635">R</tspan></text>
<text
           transform="matrix(1,0,0,-0.99509361,214.86,421.8803)"
           style="font-variant:normal;font-weight:normal;font-stretch:normal;font-size:6.74630022px;font-family:Arial;-inkscape-font-specification:ArialMT;writing-mode:lr-tb;fill:#1f1a17;fill-opacity:1;fill-rule:nonzero;stroke:none"
           id="text4637"><tspan
             x="0"
             y="0"
             id="tspan4639">B</tspan></text>
<path
           d="m 74.82,451.4 21.42,21 m 15.96,-58.32 21.42,21"
           style="fill:none;stroke:#1f1a17;stroke-width:0.93300003;stroke-linecap:round;stroke-linejoin:round;stroke-miterlimit:10;stroke-dasharray:none;stroke-opacity:1"
           id="path4641"
           inkscape:connector-curvature="0" /><path
           d="m 274.14,567.68 0.12,-84.78"
           style="fill:none;stroke:#da251d;stroke-width:0.40000001;stroke-linecap:round;stroke-linejoin:round;stroke-miterlimit:10;stroke-dasharray:none;stroke-opacity:1"
           id="path4643"
           inkscape:connector-curvature="0" /><path
           d="m 77.46,474.32 81.48,0.06"
           style="fill:none;stroke:#eb3d00;stroke-width:0.40000001;stroke-linecap:round;stroke-linejoin:round;stroke-miterlimit:10;stroke-dasharray:none;stroke-opacity:1"
           id="path4645"
           inkscape:connector-curvature="0" /><path
           d="m 77.52,474.32 8.88,1.74 0,-3.48 -8.88,1.74"
           style="fill:#da251d;fill-opacity:1;fill-rule:evenodd;stroke:none"
           id="path4647"
           inkscape:connector-curvature="0" /><path
           d="m 274.5,380.54 0.06,87.12"
           style="fill:none;stroke:#da251d;stroke-width:0.40000001;stroke-linecap:round;stroke-linejoin:round;stroke-miterlimit:10;stroke-dasharray:none;stroke-opacity:1"
           id="path4649"
           inkscape:connector-curvature="0" /><path
           d="m 254.7,474.62 -80.58,-0.18"
           style="fill:none;stroke:#eb3d00;stroke-width:0.40000001;stroke-linecap:round;stroke-linejoin:round;stroke-miterlimit:10;stroke-dasharray:none;stroke-opacity:1"
           id="path4651"
           inkscape:connector-curvature="0" /><path
           d="m 254.7,474.62 -8.94,-1.74 0,3.48 8.94,-1.74"
           style="fill:#da251d;fill-opacity:1;fill-rule:evenodd;stroke:none"
           id="path4653"
           inkscape:connector-curvature="0" /><path
           d="m 274.5,467.66 c 10.811,0.549 10.787,14.709 0,15.24 -10.757,-0.579 -10.815,-14.626 0,-15.24 z"
           style="fill:none;stroke:#da251d;stroke-width:0.40000001;stroke-linecap:round;stroke-linejoin:round;stroke-miterlimit:10;stroke-dasharray:none;stroke-opacity:1"
           id="path4655"
           inkscape:connector-curvature="0" /><path
           d="m 158.94,474.44 c 0.393,10.039 14.749,10.059 15.18,0 -0.409,-10.153 -14.816,-10.118 -15.18,0"
           style="fill:none;stroke:#eb3d00;stroke-width:0.40000001;stroke-linecap:round;stroke-linejoin:round;stroke-miterlimit:10;stroke-dasharray:none;stroke-opacity:1"
           id="path4657"
           inkscape:connector-curvature="0" /></g><path
         sodipodi:nodetypes="cssc"
         inkscape:connector-curvature="0"
         id="path5145"
         d="m 268.89693,472.89757 c 0,0 2.76427,4.84309 5.01405,4.58428 2.01327,-0.2316 1.41366,-5.10389 3.43822,-5.01406 1.75153,0.0777 2.57866,4.58428 2.57866,4.58428"
         style="fill:none;fill-rule:evenodd;stroke:#ff0000;stroke-width:0.40000001;stroke-linecap:butt;stroke-linejoin:miter;stroke-miterlimit:4;stroke-dasharray:none;stroke-opacity:1" /></g><g
       id="g5162"
       transform="matrix(0.650866,0,0,0.650866,116.14627,413.35416)"><g
         id="g4967"><g
           id="g4776"><path
             inkscape:connector-curvature="0"
             id="path4277"
             style="fill:#007bc3;fill-opacity:1;fill-rule:evenodd;stroke:none"
             d="m 441.36,464.96 -2.1,0 0.54,0.24 0.54,0.18 0.48,0.24 0.54,0.24 0,-0.9 z m -15.84,0 -2.1,0 0,0.9 0.48,-0.24 0.54,-0.24 0.54,-0.18 0.54,-0.24 z m -2.1,36.06 0,0.9 2.1,0 -0.54,-0.18 -1.08,-0.48 -0.48,-0.24 z m 15.84,0.9 2.1,0 0,-0.9 -1.08,0.48 -0.48,0.24 -0.54,0.18" /><path
             inkscape:connector-curvature="0"
             id="path4279"
             style="fill:#007dc4;fill-opacity:1;fill-rule:evenodd;stroke:none"
             d="m 441.36,501.44 -0.3,0.12 -0.18,0.12 -0.3,0.12 -0.24,0.12 -2.4,0 0.9,-0.3 0.84,-0.3 0.84,-0.36 0.84,-0.42 0,0.9 z m -16.98,0.48 -0.96,-0.48 0,-0.9 0.84,0.42 0.84,0.36 0.84,0.3 0.9,0.3 -2.46,0 z m -0.96,-36.54 0.24,-0.12 0.24,-0.06 0.48,-0.24 2.4,0 -1.68,0.6 -0.84,0.36 -0.84,0.42 0,-0.96 z m 16.92,-0.42 0.24,0.12 0.3,0.12 0.18,0.06 0.3,0.12 0,0.96 -0.84,-0.42 -0.84,-0.36 -0.84,-0.3 -0.9,-0.3 2.4,0" /><path
             inkscape:connector-curvature="0"
             id="path4281"
             style="fill:#0080c5;fill-opacity:1;fill-rule:evenodd;stroke:none"
             d="m 441.36,501.02 -1.08,0.48 -0.48,0.24 -0.54,0.18 -3,0 c 1.799,-0.298 3.48,-1.047 5.1,-1.86 l 0,0.96 z m -15.84,0.9 -0.54,-0.18 -1.08,-0.48 -0.48,-0.24 0,-0.96 c 1.595,0.814 3.264,1.558 5.04,1.86 l -2.94,0 z m -2.1,-36.06 0.48,-0.24 0.54,-0.24 0.54,-0.18 0.54,-0.24 2.94,0 c -1.549,0.343 -3.696,1.029 -5.04,1.86 l 0,-0.96 z m 15.84,-0.9 0.54,0.24 0.54,0.18 0.48,0.24 0.54,0.24 0,0.96 c -1.601,-0.861 -3.321,-1.497 -5.1,-1.86 l 3,0" /><path
             inkscape:connector-curvature="0"
             id="path4283"
             style="fill:#0083c6;fill-opacity:1;fill-rule:evenodd;stroke:none"
             d="m 441.36,500.54 -0.84,0.42 -0.84,0.36 -0.84,0.3 -0.9,0.3 -11.1,0 -0.9,-0.3 -0.84,-0.3 -0.84,-0.36 -0.84,-0.42 0,-0.9 c 5.895,3.057 12.038,3.028 17.94,0 l 0,0.9 z m -17.94,-34.2 0.84,-0.42 0.84,-0.36 1.68,-0.6 11.16,0 0.9,0.3 0.84,0.3 0.84,0.36 0.84,0.42 0,0.96 c -5.37,-3.087 -12.588,-3.111 -17.94,0 l 0,-0.96" /><path
             inkscape:connector-curvature="0"
             id="path4285"
             style="fill:#0085c7;fill-opacity:1;fill-rule:evenodd;stroke:none"
             d="m 441.36,500.06 c -1.62,0.813 -3.301,1.562 -5.1,1.86 l -7.8,0 -0.66,-0.12 -0.66,-0.18 -0.66,-0.24 c -0.932,-0.25 -2.184,-0.879 -3.06,-1.32 l 0,-0.9 c 5.699,3.138 12.239,3.089 17.94,0 l 0,0.9 z m -17.94,-33.24 c 1.344,-0.831 3.491,-1.517 5.04,-1.86 l 7.8,0 0.72,0.18 0.66,0.12 0.6,0.24 c 1.296,0.414 1.915,0.684 3.12,1.32 l 0,0.9 c -5.827,-3.12 -12.125,-3.164 -17.94,0 l 0,-0.9" /><path
             inkscape:connector-curvature="0"
             id="path4287"
             style="fill:#0086c8;fill-opacity:1;fill-rule:evenodd;stroke:none"
             d="m 441.36,499.64 c -5.902,3.028 -12.045,3.057 -17.94,0 l 0,-0.96 c 5.655,3.24 12.286,3.209 17.94,0 l 0,0.96 z M 423.42,467.3 c 5.352,-3.111 12.57,-3.087 17.94,0 l 0,0.9 c -5.528,-3.216 -12.42,-3.242 -17.94,0 l 0,-0.9" /><path
             inkscape:connector-curvature="0"
             id="path4289"
             style="fill:#0087c9;fill-opacity:1;fill-rule:evenodd;stroke:none"
             d="m 441.36,499.16 c -5.701,3.089 -12.241,3.138 -17.94,0 l 0,-0.96 c 5.647,3.338 12.291,3.306 17.94,0 l 0,0.96 z m -17.94,-31.44 c 5.815,-3.164 12.113,-3.12 17.94,0 l 0,0.96 c -5.564,-3.305 -12.395,-3.326 -17.94,0 l 0,-0.96" /><path
             inkscape:connector-curvature="0"
             id="path4291"
             style="fill:#0089c9;fill-opacity:1;fill-rule:evenodd;stroke:none"
             d="m 441.36,498.68 c -5.654,3.209 -12.285,3.24 -17.94,0 l 0,-0.96 c 5.698,3.436 12.236,3.417 17.94,0 l 0,0.96 z M 423.42,468.2 c 5.52,-3.242 12.412,-3.216 17.94,0 l 0,0.96 c -5.49,-3.386 -12.454,-3.406 -17.94,0 l 0,-0.96" /><path
             inkscape:connector-curvature="0"
             id="path4293"
             style="fill:#008acb;fill-opacity:1;fill-rule:evenodd;stroke:none"
             d="m 441.36,498.2 c -5.649,3.306 -12.293,3.338 -17.94,0 l 0,-0.96 c 5.634,3.511 12.299,3.491 17.94,0 l 0,0.96 z m -17.94,-29.52 c 5.545,-3.326 12.376,-3.305 17.94,0 l 0,0.96 c -5.536,-3.494 -12.412,-3.513 -17.94,0 l 0,-0.96" /><path
             inkscape:connector-curvature="0"
             id="path4295"
             style="fill:#008dcc;fill-opacity:1;fill-rule:evenodd;stroke:none"
             d="m 441.36,497.72 c -5.704,3.417 -12.242,3.436 -17.94,0 l 0,-0.96 c 5.746,3.622 12.192,3.582 17.94,0 l 0,0.96 z m -17.94,-28.56 c 5.486,-3.406 12.45,-3.386 17.94,0 l 0,1.02 c -5.213,-3.643 -12.747,-3.697 -17.94,0 l 0,-1.02" /><path
             inkscape:connector-curvature="0"
             id="path4297"
             style="fill:#008fcd;fill-opacity:1;fill-rule:evenodd;stroke:none"
             d="m 441.36,497.24 c -5.641,3.491 -12.306,3.511 -17.94,0 l 0,-1.02 c 5.306,3.768 12.63,3.738 17.94,0 l 0,1.02 z m -17.94,-27.6 c 5.528,-3.513 12.404,-3.494 17.94,0 l 0,1.02 c -5.368,-3.753 -12.592,-3.773 -17.94,0 l 0,-1.02" /><path
             inkscape:connector-curvature="0"
             id="path4299"
             style="fill:#0090ce;fill-opacity:1;fill-rule:evenodd;stroke:none"
             d="m 441.36,496.76 c -5.748,3.582 -12.194,3.622 -17.94,0 l 0,-1.02 c 5.325,3.848 12.604,3.831 17.94,0 l 0,1.02 z m -17.94,-26.58 c 2.563,-1.875 5.788,-2.713 8.94,-2.76 1.525,-0.005 3.343,0.265 4.8,0.72 l 0.54,0.18 0.54,0.24 0.54,0.18 0.54,0.24 0.54,0.3 0.48,0.24 0.54,0.3 0.48,0.36 0,0.96 c -5.397,-3.848 -12.54,-3.875 -17.94,0 l 0,-0.96" /><path
             inkscape:connector-curvature="0"
             id="path4301"
             style="fill:#1291cf;fill-opacity:1;fill-rule:evenodd;stroke:none"
             d="m 441.36,496.22 c -5.31,3.738 -12.634,3.768 -17.94,0 l 0,-1.02 c 5.231,4.041 12.696,4.025 17.94,0 l 0,1.02 z m -17.94,-25.56 c 5.348,-3.773 12.572,-3.753 17.94,0 l 0,1.02 c -5.075,-3.992 -12.861,-4.019 -17.94,0 l 0,-1.02" /><path
             inkscape:connector-curvature="0"
             id="path4303"
             style="fill:#1e93d0;fill-opacity:1;fill-rule:evenodd;stroke:none"
             d="m 441.36,495.74 c -5.336,3.831 -12.615,3.848 -17.94,0 l 0,-1.02 c 5.422,4.147 12.506,4.112 17.94,0 l 0,1.02 z m -17.94,-24.6 c 5.4,-3.875 12.543,-3.848 17.94,0 l 0,1.08 c -5.082,-4.179 -12.864,-4.217 -17.94,0 l 0,-1.08" /><path
             inkscape:connector-curvature="0"
             id="path4305"
             style="fill:#2895d1;fill-opacity:1;fill-rule:evenodd;stroke:none"
             d="m 441.36,495.2 c -2.701,2.062 -5.636,2.933 -9,3.06 -1.625,-0.08 -3.257,-0.284 -4.8,-0.84 l -0.54,-0.18 -1.08,-0.48 -0.54,-0.3 -0.54,-0.24 -0.48,-0.36 -0.48,-0.3 -0.48,-0.36 0,-1.02 c 5.182,4.291 12.755,4.261 17.94,0 l 0,1.02 z m -17.94,-23.52 c 2.514,-1.986 5.741,-3.016 8.94,-3 1.639,0.006 3.307,0.245 4.86,0.78 l 0.54,0.18 1.62,0.72 0.48,0.36 0.54,0.24 0.96,0.72 0,1.02 c -5.359,-4.307 -12.587,-4.336 -17.94,0 l 0,-1.02" /><path
             inkscape:connector-curvature="0"
             id="path4307"
             style="fill:#3297d2;fill-opacity:1;fill-rule:evenodd;stroke:none"
             d="m 441.36,494.72 c -5.434,4.112 -12.518,4.147 -17.94,0 l 0,-1.08 c 5.184,4.474 12.748,4.45 17.94,0 l 0,1.08 z m -17.94,-22.5 c 2.719,-2.185 5.488,-3.044 8.94,-3.18 1.645,0.086 3.299,0.274 4.86,0.84 l 2.16,0.96 0.54,0.36 0.48,0.3 0.96,0.72 0,1.02 c -5.264,-4.461 -12.691,-4.503 -17.94,0 l 0,-1.02" /><path
             inkscape:connector-curvature="0"
             id="path4309"
             style="fill:#399ad3;fill-opacity:1;fill-rule:evenodd;stroke:none"
             d="m 441.36,494.18 c -2.782,2.162 -5.484,3.13 -9,3.24 -1.647,-0.077 -3.315,-0.295 -4.86,-0.9 l -0.54,-0.24 -0.54,-0.18 -1.08,-0.6 -0.96,-0.6 -0.96,-0.72 0,-1.08 c 5.396,4.677 12.528,4.653 17.94,0 l 0,1.08 z M 423.42,472.7 c 5.353,-4.336 12.581,-4.307 17.94,0 l 0,1.14 c -4.937,-4.71 -13.029,-4.726 -17.94,0 l 0,-1.14" /><path
             inkscape:connector-curvature="0"
             id="path4311"
             style="fill:#3f9bd4;fill-opacity:1;fill-rule:evenodd;stroke:none"
             d="m 441.36,493.64 c -2.723,2.218 -5.478,3.29 -9,3.36 -1.657,-0.007 -3.299,-0.349 -4.86,-0.9 l -1.08,-0.48 -1.08,-0.6 -0.48,-0.3 -0.54,-0.36 -0.42,-0.36 -0.48,-0.36 0,-1.14 c 5.07,4.908 12.831,4.88 17.94,0 l 0,1.14 z m -17.94,-20.4 c 2.552,-2.138 5.59,-3.373 8.94,-3.36 1.68,-0.028 3.351,0.326 4.92,0.9 l 1.08,0.48 0.54,0.3 0.48,0.3 0.54,0.3 1.44,1.08 0,1.14 c -5.065,-4.896 -12.918,-4.921 -17.94,0 l 0,-1.14" /><path
             inkscape:connector-curvature="0"
             id="path4313"
             style="fill:#449dd5;fill-opacity:1;fill-rule:evenodd;stroke:none"
             d="m 441.36,493.1 c -2.566,2.161 -5.598,3.536 -9,3.48 -1.494,0.032 -3.509,-0.32 -4.86,-0.96 l -0.6,-0.24 -0.48,-0.24 -1.08,-0.6 -0.48,-0.36 -0.54,-0.36 -0.48,-0.36 -0.42,-0.36 0,-1.2 c 4.934,5.162 12.98,5.138 17.94,0 l 0,1.2 z m -17.94,-19.26 c 2.324,-2.236 5.698,-3.585 8.94,-3.54 1.6,-0.029 3.453,0.309 4.92,0.96 l 0.54,0.18 1.62,0.9 0.48,0.36 0.48,0.3 0.96,0.84 0,1.14 c -4.778,-5.11 -13.182,-5.139 -17.94,0 l 0,-1.14" /><path
             inkscape:connector-curvature="0"
             id="path4315"
             style="fill:#499fd6;fill-opacity:1;fill-rule:evenodd;stroke:none"
             d="m 441.36,492.5 c -2.445,2.306 -5.617,3.702 -9,3.66 -1.698,0.068 -3.338,-0.408 -4.92,-0.96 l -0.54,-0.3 -0.54,-0.24 -0.54,-0.3 -0.48,-0.3 -0.54,-0.36 -0.48,-0.42 -0.48,-0.36 -0.42,-0.42 0,-1.2 c 4.769,5.397 13.156,5.379 17.94,0 l 0,1.2 z m -17.94,-18.12 c 2.355,-2.324 5.604,-3.719 8.94,-3.66 1.525,-0.034 3.537,0.308 4.92,0.96 l 0.54,0.24 0.6,0.3 0.48,0.3 0.54,0.36 0.48,0.3 0.48,0.36 0.96,0.84 0,1.2 c -4.815,-5.39 -13.144,-5.404 -17.94,0 l 0,-1.2" /><path
             inkscape:connector-curvature="0"
             id="path4317"
             style="fill:#4ea1d8;fill-opacity:1;fill-rule:evenodd;stroke:none"
             d="m 441.36,491.9 c -2.386,2.428 -5.565,3.915 -9,3.84 -1.488,0.047 -3.593,-0.348 -4.92,-1.02 l -0.54,-0.24 -0.6,-0.3 -0.48,-0.36 -0.54,-0.3 -0.48,-0.36 -0.96,-0.84 -0.42,-0.42 0,-1.26 c 4.608,5.745 13.318,5.702 17.94,0 l 0,1.26 z m -17.94,-16.92 c 2.201,-2.412 5.673,-3.902 8.94,-3.84 1.718,-0.064 3.401,0.374 4.98,1.02 l 0.54,0.24 1.08,0.6 0.48,0.36 0.54,0.36 0.48,0.42 0.42,0.36 0.48,0.48 0,1.26 c -4.687,-5.722 -13.276,-5.755 -17.94,0 l 0,-1.26" /><path
             inkscape:connector-curvature="0"
             id="path4319"
             style="fill:#53a3d9;fill-opacity:1;fill-rule:evenodd;stroke:none"
             d="m 441.36,491.3 c -2.254,2.526 -5.594,4.112 -9,4.02 -1.838,0.03 -3.314,-0.324 -4.98,-1.08 l -0.54,-0.24 -0.54,-0.3 -0.54,-0.36 -0.48,-0.36 -0.54,-0.36 -1.32,-1.32 0,-1.32 c 4.398,6.066 13.512,6.022 17.94,0 l 0,1.32 z m -17.94,-15.72 c 2.315,-2.624 5.456,-3.968 8.94,-4.08 1.983,0.134 3.15,0.272 4.98,1.14 l 0.6,0.24 0.54,0.3 0.54,0.36 0.96,0.72 0.96,0.84 0.42,0.48 0,1.32 c -4.483,-6.034 -13.506,-6.073 -17.94,0 l 0,-1.32" /><path
             inkscape:connector-curvature="0"
             id="path4321"
             style="fill:#58a5da;fill-opacity:1;fill-rule:evenodd;stroke:none"
             d="m 441.36,490.64 c -2.185,2.709 -5.517,4.286 -9,4.32 -2.132,-0.143 -3.076,-0.27 -5.04,-1.2 l -1.08,-0.6 -0.54,-0.36 -0.48,-0.36 -0.96,-0.84 -0.42,-0.42 -0.42,-0.54 0,-1.38 c 4.322,6.476 13.527,6.491 17.94,0 l 0,1.38 z m -17.94,-14.4 c 2.268,-2.763 5.357,-4.257 8.94,-4.32 1.733,0.109 3.514,0.298 5.04,1.2 l 0.6,0.3 0.54,0.3 0.48,0.36 0.54,0.36 0.48,0.42 0.9,0.9 0.42,0.48 0,1.38 c -4.314,-6.462 -13.737,-6.463 -17.94,0 l 0,-1.38" /><path
             inkscape:connector-curvature="0"
             id="path4323"
             style="fill:#5da8db;fill-opacity:1;fill-rule:evenodd;stroke:none"
             d="m 441.36,489.98 c -2.251,2.925 -5.302,4.482 -9,4.56 -1.765,-0.095 -3.542,-0.374 -5.1,-1.26 l -0.54,-0.3 -1.08,-0.72 -0.96,-0.84 -0.9,-0.9 -0.36,-0.54 0,-1.5 c 4.042,7.007 13.856,6.957 17.94,0 l 0,1.5 z M 423.42,476.9 c 1.991,-2.842 5.48,-4.537 8.94,-4.56 1.777,-0.004 3.519,0.455 5.1,1.26 l 0.6,0.3 0.54,0.36 0.48,0.36 0.54,0.36 0.42,0.48 0.48,0.48 0.84,0.96 0,1.5 c -4.137,-6.966 -13.889,-6.94 -17.94,0 l 0,-1.5" /><path
             inkscape:connector-curvature="0"
             id="path4325"
             style="fill:#62aadc;fill-opacity:1;fill-rule:evenodd;stroke:none"
             d="m 441.36,489.26 c -2.185,3.081 -5.196,4.82 -9,4.86 -1.795,0.01 -3.574,-0.482 -5.16,-1.32 l -1.08,-0.72 -0.54,-0.42 -0.96,-0.84 -0.42,-0.48 -0.42,-0.54 -0.36,-0.54 0,-1.68 c 3.643,7.593 14.248,7.623 17.94,0 l 0,1.68 z m -17.94,-11.64 c 1.995,-3.098 5.269,-4.798 8.94,-4.86 2.077,0.102 3.296,0.343 5.16,1.32 l 0.6,0.36 0.54,0.36 0.48,0.42 0.54,0.42 0.42,0.42 0.42,0.48 0.84,1.08 0,1.68 c -3.66,-7.632 -14.367,-7.563 -17.94,0 l 0,-1.68" /><path
             inkscape:connector-curvature="0"
             id="path4327"
             style="fill:#68adde;fill-opacity:1;fill-rule:evenodd;stroke:none"
             d="m 441.36,488.48 c -1.815,3.138 -5.338,5.323 -9,5.22 -1.837,0.078 -3.665,-0.49 -5.22,-1.44 l -0.6,-0.36 -0.54,-0.42 -0.96,-0.84 -0.48,-0.48 -0.42,-0.54 -0.36,-0.54 -0.36,-0.6 0,-1.98 c 1.37,3.848 4.892,6.372 8.94,6.36 1.519,0.058 3.014,-0.39 4.38,-1.02 2.329,-1.363 3.647,-2.858 4.62,-5.34 l 0,1.98 z M 423.42,478.4 c 1.748,-3.181 5.327,-5.226 8.94,-5.22 1.924,0.006 3.605,0.505 5.28,1.44 l 0.54,0.36 1.08,0.84 0.48,0.42 0.42,0.54 0.42,0.48 0.36,0.54 0.42,0.6 0,1.98 c -3.227,-8.533 -14.795,-8.488 -17.94,0 l 0,-1.98" /><path
             inkscape:connector-curvature="0"
             id="path4329"
             style="fill:#6cafdf;fill-opacity:1;fill-rule:evenodd;stroke:none"
             d="m 441.36,487.58 c -1.7,3.511 -5.084,5.717 -9,5.7 -1.583,0.045 -4.104,-0.578 -5.34,-1.62 l -0.6,-0.36 -0.54,-0.42 -0.96,-0.96 -0.42,-0.54 -0.42,-0.6 -0.3,-0.6 -0.36,-0.6 0,-2.82 c 1.915,10.287 16.059,10.25 17.94,-0.06 l 0,2.88 z m -17.94,-8.28 c 1.57,-3.487 5.138,-5.694 8.94,-5.7 1.587,-0.087 4.087,0.653 5.4,1.56 l 0.6,0.42 0.48,0.42 0.54,0.48 0.48,0.48 0.42,0.54 1.08,1.8 0,2.82 c -1.991,-10.272 -16.002,-10.283 -17.94,0 l 0,-2.82" /><path
             inkscape:connector-curvature="0"
             id="path4331"
             style="fill:#70b1e0;fill-opacity:1;fill-rule:evenodd;stroke:none"
             d="m 441.36,486.5 c -0.973,2.482 -2.291,3.977 -4.62,5.34 -1.366,0.63 -2.861,1.078 -4.38,1.02 -1.498,0.044 -2.975,-0.383 -4.32,-1.02 -1.345,-0.82 -2.324,-1.441 -3.24,-2.76 l -0.42,-0.6 -0.36,-0.66 -0.18,-0.3 -0.12,-0.36 -0.18,-0.3 -0.12,-0.36 0,-6.12 c 1.484,-3.981 4.77,-6.248 8.94,-6.42 1.653,0.146 2.889,0.301 4.38,1.08 1.384,0.794 2.23,1.534 3.24,2.76 l 0.42,0.66 0.54,0.9 0.12,0.36 0.12,0.3 0.18,0.36 0,6.12 z M 441,483.44 c -0.433,-11.422 -16.816,-11.456 -17.22,0 0.431,11.459 16.762,11.42 17.22,0" /><path
             inkscape:connector-curvature="0"
             id="path4333"
             style="fill:#74b3e2;fill-opacity:1;fill-rule:evenodd;stroke:none"
             d="m 441.36,484.7 c -2.346,11.797 -19.016,9.479 -17.94,-2.58 2.352,-11.739 18.937,-9.386 17.94,2.58 z m -0.78,-1.26 c -0.485,-10.916 -15.896,-10.916 -16.44,0 0.56,10.907 15.941,10.903 16.44,0" /><path
             inkscape:connector-curvature="0"
             id="path4335"
             style="fill:#7ab6e3;fill-opacity:1;fill-rule:evenodd;stroke:none"
             d="m 441,483.44 c -0.458,11.42 -16.789,11.459 -17.22,0 0.404,-11.456 16.787,-11.422 17.22,0 z m -0.78,0 c -0.621,-10.396 -15.123,-10.34 -15.66,0 0.54,10.346 15.034,10.407 15.66,0" /><path
             inkscape:connector-curvature="0"
             id="path4337"
             style="fill:#82bae4;fill-opacity:1;fill-rule:evenodd;stroke:none"
             d="m 440.58,483.44 c -0.499,10.903 -15.88,10.907 -16.44,0 0.544,-10.916 15.955,-10.916 16.44,0 z m -0.78,0 c -0.554,-9.823 -14.329,-9.816 -14.82,0 0.464,9.796 14.291,9.809 14.82,0" /><path
             inkscape:connector-curvature="0"
             id="path4339"
             style="fill:#87bde6;fill-opacity:1;fill-rule:evenodd;stroke:none"
             d="m 440.22,483.44 c -0.626,10.407 -15.12,10.346 -15.66,0 0.537,-10.34 15.039,-10.396 15.66,0 z m -0.84,0 c -0.459,-9.264 -13.558,-9.291 -13.98,0 0.396,9.253 13.534,9.253 13.98,0" /><path
             inkscape:connector-curvature="0"
             id="path4341"
             style="fill:#8dbfe7;fill-opacity:1;fill-rule:evenodd;stroke:none"
             d="m 439.8,483.44 c -0.529,9.809 -14.356,9.796 -14.82,0 0.491,-9.816 14.266,-9.823 14.82,0 z m -0.84,0 c -0.456,-8.848 -12.849,-8.605 -13.14,0 0.353,8.695 12.717,8.763 13.14,0" /><path
             inkscape:connector-curvature="0"
             id="path4343"
             style="fill:#90c2e8;fill-opacity:1;fill-rule:evenodd;stroke:none"
             d="m 439.38,483.44 c -0.446,9.253 -13.584,9.253 -13.98,0 0.422,-9.291 13.521,-9.264 13.98,0 z m -0.84,0 c -0.269,-7.789 -11.225,-8.361 -12.3,-0.6 -0.288,8.687 11.86,9.093 12.3,0.6" /><path
             inkscape:connector-curvature="0"
             id="path4345"
             style="fill:#95c4e9;fill-opacity:1;fill-rule:evenodd;stroke:none"
             d="m 438.96,483.44 c -0.423,8.763 -12.787,8.695 -13.14,0 0.291,-8.605 12.684,-8.848 13.14,0 z m -0.84,0 c -0.248,-7.292 -10.443,-7.786 -11.46,-0.6 -0.467,7.936 11.057,8.684 11.46,0.6" /><path
             inkscape:connector-curvature="0"
             id="path4347"
             style="fill:#9ac6ea;fill-opacity:1;fill-rule:evenodd;stroke:none"
             d="m 438.54,483.44 c -0.44,8.493 -12.588,8.087 -12.3,-0.6 1.075,-7.761 12.031,-7.189 12.3,0.6 z m -0.78,0 c -0.471,-7.116 -10.315,-7.094 -10.74,0 0.353,7.073 10.346,7.086 10.74,0" /><path
             inkscape:connector-curvature="0"
             id="path4349"
             style="fill:#a1caec;fill-opacity:1;fill-rule:evenodd;stroke:none"
             d="m 438.12,483.44 c -0.403,8.084 -11.927,7.336 -11.46,-0.6 1.017,-7.186 11.212,-6.692 11.46,0.6 z m -0.84,0 c -0.227,-6.532 -9.524,-6.571 -9.84,0 0.286,6.54 9.636,6.516 9.84,0" /><path
             inkscape:connector-curvature="0"
             id="path4351"
             style="fill:#a8ceed;fill-opacity:1;fill-rule:evenodd;stroke:none"
             d="m 437.76,483.44 c -0.394,7.086 -10.387,7.073 -10.74,0 0.425,-7.094 10.269,-7.116 10.74,0 z m -0.84,0 c -0.338,-5.998 -8.792,-5.976 -9.06,0 0.298,5.986 8.696,6.001 9.06,0" /><path
             inkscape:connector-curvature="0"
             id="path4353"
             style="fill:#aed2ef;fill-opacity:1;fill-rule:evenodd;stroke:none"
             d="m 437.28,483.44 c -0.204,6.516 -9.554,6.54 -9.84,0 0.316,-6.571 9.613,-6.532 9.84,0 z m -0.78,0 c -0.294,-5.507 -7.998,-5.413 -8.22,0 0.195,5.4 7.949,5.503 8.22,0" /><path
             inkscape:connector-curvature="0"
             id="path4355"
             style="fill:#b4d5f0;fill-opacity:1;fill-rule:evenodd;stroke:none"
             d="m 436.92,483.44 c -0.364,6.001 -8.762,5.986 -9.06,0 0.268,-5.976 8.722,-5.998 9.06,0 z m -0.84,0 c -0.232,-4.896 -7.164,-4.929 -7.38,0 0.216,4.931 7.147,4.9 7.38,0" /><path
             inkscape:connector-curvature="0"
             id="path4357"
             style="fill:#bbd9f2;fill-opacity:1;fill-rule:evenodd;stroke:none"
             d="m 436.5,483.44 c -0.271,5.503 -8.025,5.4 -8.22,0 0.222,-5.413 7.926,-5.507 8.22,0 z m -0.84,0 c -0.21,-4.348 -6.291,-4.395 -6.6,0 0.282,4.389 6.432,4.315 6.6,0" /><path
             inkscape:connector-curvature="0"
             id="path4359"
             style="fill:#c1dcf3;fill-opacity:1;fill-rule:evenodd;stroke:none"
             d="m 436.08,483.44 c -0.233,4.9 -7.164,4.931 -7.38,0 0.216,-4.929 7.148,-4.896 7.38,0 z m -0.84,0 c -0.05,-3.81 -5.721,-3.804 -5.7,0 0.018,3.813 5.615,3.811 5.7,0" /><path
             inkscape:connector-curvature="0"
             id="path4361"
             style="fill:#c6def4;fill-opacity:1;fill-rule:evenodd;stroke:none"
             d="m 435.66,483.44 c -0.168,4.315 -6.318,4.389 -6.6,0 0.309,-4.395 6.39,-4.348 6.6,0 z m -0.84,0 c 0.052,-1.341 -1.117,-2.497 -2.46,-2.46 -0.624,0.006 -1.306,0.264 -1.74,0.72 -0.682,0.829 -0.54,0.721 -0.72,1.74 0.16,0.98 0.07,0.913 0.72,1.74 0.437,0.458 1.113,0.714 1.74,0.72 1.399,-0.009 2.446,-1.044 2.46,-2.46" /><path
             inkscape:connector-curvature="0"
             id="path4363"
             style="fill:#cee3f6;fill-opacity:1;fill-rule:evenodd;stroke:none"
             d="m 435.24,483.44 c -0.085,3.811 -5.682,3.813 -5.7,0 -0.021,-3.804 5.65,-3.81 5.7,0 z m -0.78,0 c -0.199,-2.709 -3.96,-2.717 -4.14,0 0.018,1.059 0.929,2.128 2.04,2.04 l 0.42,0 0.24,-0.06 0.36,-0.18 0.18,-0.12 0.12,-0.06 0.12,-0.18 c 0.5,-0.29 0.558,-0.939 0.66,-1.44" /><path
             inkscape:connector-curvature="0"
             id="path4365"
             style="fill:#d7e8f7;fill-opacity:1;fill-rule:evenodd;stroke:none"
             d="m 434.82,483.44 c -0.014,1.416 -1.061,2.451 -2.46,2.46 -0.627,-0.006 -1.303,-0.262 -1.74,-0.72 -0.65,-0.827 -0.56,-0.76 -0.72,-1.74 0.18,-1.019 0.038,-0.911 0.72,-1.74 0.434,-0.456 1.116,-0.714 1.74,-0.72 1.343,-0.037 2.512,1.119 2.46,2.46 z m -0.78,0 c -0.106,-2.157 -3.222,-2.176 -3.3,0 -0.037,0.857 0.744,1.671 1.62,1.62 l 0.36,0 0.12,-0.06 0.18,-0.06 0.12,-0.06 0.18,-0.06 0.24,-0.24 0.12,-0.06 0.06,-0.18 0.06,-0.12 0.12,-0.18 0,-0.12 0.06,-0.18 0.06,-0.12 0,-0.18" /><path
             inkscape:connector-curvature="0"
             id="path4367"
             style="fill:#e1edf9;fill-opacity:1;fill-rule:evenodd;stroke:none"
             d="m 434.46,483.44 c -0.102,0.501 -0.16,1.15 -0.66,1.44 l -0.12,0.18 -0.12,0.06 -0.18,0.12 -0.36,0.18 -0.24,0.06 -0.42,0 c -1.111,0.088 -2.022,-0.981 -2.04,-2.04 0.18,-2.717 3.941,-2.709 4.14,0 z m -0.84,0 c -0.094,-1.73 -2.525,-1.549 -2.46,0 0.042,1.617 2.35,1.632 2.46,0" /><path
             inkscape:connector-curvature="0"
             id="path4369"
             style="fill:#e8f1fa;fill-opacity:1;fill-rule:evenodd;stroke:none"
             d="m 434.04,483.44 0,0.18 -0.06,0.12 -0.06,0.18 0,0.12 -0.12,0.18 -0.06,0.12 -0.06,0.18 -0.12,0.06 -0.24,0.24 -0.18,0.06 -0.12,0.06 -0.18,0.06 -0.12,0.06 -0.36,0 c -0.876,0.051 -1.657,-0.763 -1.62,-1.62 0.078,-2.176 3.194,-2.157 3.3,0 z m -0.84,0 -0.06,-0.18 0,-0.18 -0.06,-0.06 -0.12,-0.18 -0.12,-0.06 -0.18,-0.12 -0.12,-0.06 -0.36,0 -0.12,0.06 -0.12,0.12 -0.12,0.06 -0.12,0.18 -0.12,0.06 c 0.015,0.725 -0.146,0.794 0.6,1.14 l 0.18,0.06 0.18,-0.06 0.12,-0.06 0.18,-0.06 0.12,-0.06 0.12,-0.12 0.06,-0.18 0,-0.12 0.06,-0.18" /><path
             inkscape:connector-curvature="0"
             id="path4371"
             style="fill:#f0f5fb;fill-opacity:1;fill-rule:evenodd;stroke:none"
             d="m 433.62,483.44 c -0.11,1.632 -2.418,1.617 -2.46,0 -0.065,-1.549 2.366,-1.73 2.46,0" /><path
             inkscape:connector-curvature="0"
             id="path4373"
             style="fill:#f7fafd;fill-opacity:1;fill-rule:evenodd;stroke:none"
             d="m 433.2,483.44 -0.06,0.18 0,0.12 -0.06,0.18 -0.12,0.12 -0.12,0.06 -0.18,0.06 -0.12,0.06 -0.18,0.06 -0.18,-0.06 c -0.746,-0.346 -0.585,-0.415 -0.6,-1.14 l 0.12,-0.06 0.12,-0.18 0.12,-0.06 0.12,-0.12 0.12,-0.06 0.36,0 0.12,0.06 0.18,0.12 0.12,0.06 0.12,0.18 0.06,0.06 0,0.18 0.06,0.18" /><path
             inkscape:connector-curvature="0"
             id="path4375"
             style="fill:#ffffff;fill-opacity:1;fill-rule:evenodd;stroke:none"
             d="m 432.78,483.44 0,0.12 -0.06,0 0,0.12 -0.12,0.12 -0.06,0 -0.06,0.06 -0.18,0 -0.12,-0.06 -0.06,0 0,-0.06 -0.06,-0.06 -0.06,-0.12 0,-0.3 0.12,-0.12 0,-0.06 0.06,-0.06 0.36,0 0.18,0.18 0,0.06 0.06,0.12 0,0.06" /><path
             inkscape:connector-curvature="0"
             id="path4377"
             style="fill:none;stroke:#1f1a17;stroke-width:0.93300003;stroke-linecap:round;stroke-linejoin:round;stroke-miterlimit:10;stroke-dasharray:none;stroke-opacity:1"
             d="m 441.36,464.96 -17.94,0 0,36.96 17.94,0 0,-36.96 z m -9,0 0,-7.8 m 0.06,52.68 0,-7.8 m 23.4,-90.54 -17.94,0 0,36.96 17.94,0 0,-36.96 z m -8.88,-0.12 0,-7.8 m 0,52.8 0,-7.8 m 24.42,16.08 -17.94,0 0,36.96 17.94,0 0,-36.96 z m -8.88,-0.12 0,-7.8 m 0,52.8 0,-7.8" /><path
             inkscape:connector-curvature="0"
             id="path4379"
             style="fill:#1f1a17;fill-opacity:1;fill-rule:evenodd;stroke:none"
             d="m 449.88,566.36 c 0,0.1 0,0.2 0,0.3 l -0.06,0 c 0,0.1 0,0.2 0,0.3 l -0.06,0 c 0,0.1 0,0.2 0,0.3 l -0.06,0 0,0.12 -0.06,0.06 0,0.06 -0.06,0.06 0,0.06 -0.06,0.06 -0.06,0.06 0,0.06 -0.06,0.06 0,0.06 -0.06,0.06 -0.06,0 -0.06,0.06 0,0.06 -0.06,0.06 0,0.06 -0.06,0.06 -0.06,0 -0.06,0.06 -0.06,0 0,0.06 -0.12,0.12 -0.06,0 -0.12,0.12 -0.06,0 -0.06,0.06 -0.06,0 -0.06,0.06 -0.06,0 -0.06,0.06 -0.12,0 0,0.06 -0.12,0 -0.06,0.06 -0.18,0 -0.06,0.06 -0.36,0 -0.06,0.06 -0.24,0 -0.06,-0.06 -0.36,0 0,-0.06 -0.24,0 0,-0.06 -0.12,0 -0.06,-0.06 -0.12,0 -0.06,-0.06 -0.06,0 -0.06,-0.06 -0.06,0 -0.06,-0.06 -0.06,0 -0.12,-0.12 c -0.276,-0.298 -0.024,0.058 -0.3,-0.24 l -0.24,-0.24 0,-0.06 -0.06,-0.06 -0.06,-0.06 0,-0.06 -0.06,-0.06 -0.06,-0.06 0,-0.06 -0.06,-0.06 0,-0.06 -0.06,-0.06 0,-0.06 -0.06,-0.06 0,-0.12 -0.06,0 c 0.026,-0.577 -0.086,-0.083 -0.06,-0.66 0,-0.24 0,-0.48 0,-0.72 l 0.06,0 c 0,-0.1 0,-0.2 0,-0.3 l 0.06,0 0,-0.18 0.06,0 0,-0.06 0.06,-0.06 0,-0.06 0.06,-0.06 0,-0.06 0.12,-0.12 0,-0.06 0.06,-0.06 0.06,-0.06 0,-0.06 0.06,-0.06 0.06,-0.06 0.06,-0.06 0,-0.06 0.06,0 0.06,-0.06 0.12,-0.12 0.06,0 c 0.103,-0.112 0.218,-0.222 0.36,-0.24 l 0,-0.06 0.12,0 0,-0.06 0.12,0 0,-0.06 0.12,0 0.06,-0.06 0.18,0 0,-0.06 c 0.12,0 0.24,0 0.36,0 l 0.12,0 0.06,-0.06 0.3,0 0.06,0.06 0.42,0 0.06,0.06 0.18,0 0,0.06 0.12,0 0,0.06 0.12,0 0,0.06 0.12,0 0,0.06 0.06,0 0.06,0.06 0.06,0 0.12,0.12 0.06,0 0.06,0.06 0.06,0 0,0.06 0.12,0.12 0.06,0 0.06,0.06 0,0.06 0.06,0.06 0,0.06 0.06,0.06 0.06,0 0.06,0.06 0,0.06 0.06,0.06 0,0.06 c 0.093,0.083 0.163,0.187 0.18,0.3 l 0.06,0 0,0.12 0.06,0.06 0,0.24 0.06,0.06 0,0.3 0.06,0 c 0,0.1 0,0.2 0,0.3 l -2.7,0" /><path
             inkscape:connector-curvature="0"
             id="path4381"
             style="fill:#1f1a17;fill-opacity:1;fill-rule:nonzero;stroke:none"
             d="m 446.7,546.5 0.95999,0 0,19.86 -0.95999,0 0,-19.86 z" /><path
             inkscape:connector-curvature="0"
             id="path4383"
             style="fill:none;stroke:#1f1a17;stroke-width:0.93300003;stroke-linecap:round;stroke-linejoin:round;stroke-miterlimit:10;stroke-dasharray:none;stroke-opacity:1"
             d="m 447.42,525.2 0,-15.6" /><path
             inkscape:connector-curvature="0"
             id="path4385"
             style="fill:#1f1a17;fill-opacity:1;fill-rule:nonzero;stroke:none"
             d="m 446.46,396.08 0.96002,0 0,7.5 -0.96002,0 0,-7.5 z" /><path
             inkscape:connector-curvature="0"
             id="path4387"
             style="fill:#1f1a17;fill-opacity:1;fill-rule:evenodd;stroke:none"
             d="m 449.64,396.08 0,-0.24 -0.06,-0.06 c 0,-0.1 0,-0.2 0,-0.3 l -0.06,0 0,-0.24 -0.06,0 0,-0.12 -0.06,-0.06 0,-0.06 -0.06,-0.06 0,-0.06 -0.06,-0.06 0,-0.06 -0.06,-0.06 0,-0.06 -0.12,-0.12 0,-0.06 -0.12,-0.12 0,-0.06 -0.06,-0.06 -0.06,0 -0.06,-0.06 -0.18,-0.18 0,-0.06 -0.06,0 -0.12,-0.12 -0.06,0 -0.06,-0.06 -0.06,0 -0.06,-0.06 -0.12,0 -0.06,-0.06 -0.06,0 0,-0.06 -0.12,0 -0.06,-0.06 -0.12,0 -0.06,-0.06 -0.24,0 0,-0.06 c -0.28,0 -0.56,0 -0.84,0 l -0.06,0.06 -0.18,0 -0.06,0.06 -0.12,0 -0.06,0.06 -0.12,0 -0.06,0.06 -0.06,0 -0.06,0.06 -0.12,0 0,0.06 -0.06,0 -0.06,0.06 -0.06,0 -0.06,0.06 c -0.064,0.085 -0.264,0.086 -0.24,0.24 l -0.06,0 -0.06,0.06 0,0.06 -0.06,0 -0.12,0.12 0,0.06 -0.12,0.12 0,0.06 -0.12,0.12 0,0.06 -0.06,0.06 0,0.06 -0.06,0.06 0,0.12 -0.06,0 0,0.12 -0.06,0.06 0,0.12 -0.06,0 0,0.3 -0.06,0.06 0,0.18 c 0,0.18 0,0.36 0,0.54 l 0.06,0 c 0,0.1 0,0.2 0,0.3 l 0.06,0 0,0.18 0.06,0 0,0.12 0.06,0.06 0,0.12 0.06,0 0,0.06 0.06,0.06 0,0.12 0.12,0.12 0,0.06 0.06,0 0.06,0.06 0,0.06 0.06,0.06 0.06,0 0.06,0.06 0,0.06 0.06,0.06 0.06,0.06 0.18,0.18 0.12,0 0.12,0.12 0.06,0 0,0.06 0.06,0 0.06,0.06 0.06,0 0.06,0.06 0.12,0 0.06,0.06 0.12,0 0,0.06 0.18,0 0.06,0.06 0.06,0 c 0.12,0 0.24,0 0.36,0 l 0.06,0.06 0.12,0 0.06,-0.06 0.06,0 c 0.12,0 0.24,0 0.36,0 l 0,-0.06 0.24,0 0,-0.06 0.12,0 0.06,-0.06 0.12,0 0,-0.06 0.12,0 0,-0.06 c 0.114,-0.017 0.218,-0.086 0.3,-0.18 l 0.12,0 0.06,-0.06 0,-0.06 0.06,-0.06 0.06,0 0,-0.06 0.18,-0.18 0.06,0 0,-0.06 0.24,-0.24 0,-0.12 0.06,-0.06 0,-0.06 0.06,-0.06 0,-0.06 0.06,0 0,-0.12 0.06,-0.06 0,-0.12 0.06,0 c -0.019,-0.358 0.092,-0.034 0.06,-0.6 l 0.06,0 0,-0.18 -2.7,0" /><text
             id="text4389"
             style="font-style:italic;font-variant:normal;font-weight:bold;font-stretch:normal;font-size:13.45400047px;font-family:Arial;-inkscape-font-specification:Arial-BoldItalicMT;writing-mode:lr-tb;fill:#1f1a17;fill-opacity:1;fill-rule:nonzero;stroke:none"
             transform="matrix(1,0,0,-0.99794857,425.16,480.0803)"><tspan
               id="tspan4391"
               y="0"
               x="0">R</tspan></text>
<text
             id="text4393"
             style="font-variant:normal;font-weight:bold;font-stretch:normal;font-size:6.71320009px;font-family:Arial;-inkscape-font-specification:Arial-BoldMT;writing-mode:lr-tb;fill:#1f1a17;fill-opacity:1;fill-rule:nonzero;stroke:none"
             transform="matrix(0.99763153,0,0,-1,434.82,477.3803)"><tspan
               id="tspan4395"
               y="0"
               x="0">L</tspan></text>
<text
             id="text4397"
             style="font-style:italic;font-variant:normal;font-weight:normal;font-stretch:normal;font-size:13.42850018px;font-family:Arial;-inkscape-font-specification:Arial-ItalicMT;writing-mode:lr-tb;fill:#1f1a17;fill-opacity:1;fill-rule:nonzero;stroke:none"
             transform="matrix(1,0,0,-0.99984362,455.46,480.4403)"><tspan
               id="tspan4399"
               y="0"
               x="0">R</tspan></text>
<text
             id="text4401"
             style="font-variant:normal;font-weight:normal;font-stretch:normal;font-size:6.74630022px;font-family:Arial;-inkscape-font-specification:ArialMT;writing-mode:lr-tb;fill:#1f1a17;fill-opacity:1;fill-rule:nonzero;stroke:none"
             transform="matrix(1,0,0,-0.99509361,465.18,477.8003)"><tspan
               id="tspan4403"
               y="0"
               x="0">P</tspan></text>
<text
             id="text4405"
             style="font-style:italic;font-variant:normal;font-weight:normal;font-stretch:normal;font-size:13.42850018px;font-family:Arial;-inkscape-font-specification:Arial-ItalicMT;writing-mode:lr-tb;fill:#1f1a17;fill-opacity:1;fill-rule:nonzero;stroke:none"
             transform="matrix(1,0,0,-0.99773616,439.8,426.9203)"><tspan
               id="tspan4407"
               y="0"
               x="0">R</tspan></text>
<text
             id="text4409"
             style="font-variant:normal;font-weight:normal;font-stretch:normal;font-size:6.74630022px;font-family:Arial;-inkscape-font-specification:ArialMT;writing-mode:lr-tb;fill:#1f1a17;fill-opacity:1;fill-rule:nonzero;stroke:none"
             transform="matrix(1,0,0,-0.99509361,449.52,424.2203)"><tspan
               id="tspan4411"
               y="0"
               x="0">V</tspan></text>
<path
             inkscape:connector-curvature="0"
             id="path4413"
             style="fill:none;stroke:#1f1a17;stroke-width:0.93300003;stroke-linecap:round;stroke-linejoin:round;stroke-miterlimit:10;stroke-dasharray:none;stroke-opacity:1"
             d="m 432.42,509.84 30.06,-0.3 m -30.06,-52.5 30.06,-0.3" /><path
             inkscape:connector-curvature="0"
             id="path4415"
             style="fill:none;stroke:#eb3d00;stroke-width:0.40000001;stroke-linecap:round;stroke-linejoin:round;stroke-miterlimit:10;stroke-dasharray:none;stroke-opacity:1"
             d="m 487.08,460.28 9.66,-6.9" /><path
             inkscape:connector-curvature="0"
             id="path4417"
             style="fill:#da251d;fill-opacity:1;fill-rule:evenodd;stroke:none"
             d="m 487.08,460.28 6.54,-2.58 -2.04,-2.76 -4.5,5.34" /><path
             inkscape:connector-curvature="0"
             id="path4419"
             style="fill:none;stroke:#da251d;stroke-width:0.45199999;stroke-linecap:round;stroke-linejoin:round;stroke-miterlimit:10;stroke-dasharray:none;stroke-opacity:1"
             d="m 449.94,395.9 44.28,-0.12 m -46.26,122.28 46.86,-0.12" /><path
             inkscape:connector-curvature="0"
             id="path4421"
             style="fill:none;stroke:#1f1a17;stroke-width:0.93300003;stroke-linecap:round;stroke-linejoin:round;stroke-miterlimit:10;stroke-dasharray:none;stroke-opacity:1"
             d="m 446.76,383.84 0.12,11.88 m 6.06,-12.06 -11.94,0.18 m 10.38,-1.62 -8.94,0.12 m 7.8,-1.74 -6.3,0.12" /><text
             id="text4423"
             style="font-style:italic;font-variant:normal;font-weight:normal;font-stretch:normal;font-size:13.42850018px;font-family:Arial;-inkscape-font-specification:Arial-ItalicMT;writing-mode:lr-tb;fill:#da251d;fill-opacity:1;fill-rule:nonzero;stroke:none"
             transform="matrix(1,0,0,-0.99773616,459.3,531.6203)"><tspan
               id="tspan4425"
               y="0"
               x="0">i</tspan></text>
<text
             id="text4427"
             style="font-style:italic;font-variant:normal;font-weight:normal;font-stretch:normal;font-size:13.42850018px;font-family:Arial;-inkscape-font-specification:Arial-ItalicMT;writing-mode:lr-tb;fill:#da251d;fill-opacity:1;fill-rule:nonzero;stroke:none"
             transform="matrix(0,1,0.99773616,0,507.78,461.6603)"><tspan
               id="tspan4429"
               y="0"
               x="0">U</tspan></text>
<text
             id="text4431"
             style="font-style:italic;font-variant:normal;font-weight:normal;font-stretch:normal;font-size:6.74630022px;font-family:Arial;-inkscape-font-specification:Arial-ItalicMT;writing-mode:lr-tb;fill:#da251d;fill-opacity:1;fill-rule:nonzero;stroke:none"
             transform="matrix(0,1,0.99509361,0,510.4799,471.3803)"><tspan
               id="tspan4433"
               y="0"
               x="0">m</tspan></text>
<path
             inkscape:connector-curvature="0"
             id="path4435"
             style="fill:none;stroke:#eb3d00;stroke-width:0.40000001;stroke-linecap:round;stroke-linejoin:round;stroke-miterlimit:10;stroke-dasharray:none;stroke-opacity:1"
             d="m 491.82,395.78 -0.06,52.86" /><path
             inkscape:connector-curvature="0"
             id="path4437"
             style="fill:#da251d;fill-opacity:1;fill-rule:evenodd;stroke:none"
             d="m 491.82,395.72 -1.74,8.94 3.48,0 -1.74,-8.94" /><path
             inkscape:connector-curvature="0"
             id="path4439"
             style="fill:none;stroke:#eb3d00;stroke-width:0.40000001;stroke-linecap:round;stroke-linejoin:round;stroke-miterlimit:10;stroke-dasharray:none;stroke-opacity:1"
             d="m 491.52,517.58 0.24,-53.4" /><path
             inkscape:connector-curvature="0"
             id="path4441"
             style="fill:#da251d;fill-opacity:1;fill-rule:evenodd;stroke:none"
             d="m 491.52,517.58 1.8,-8.94 -3.54,0 1.74,8.94" /><path
             inkscape:connector-curvature="0"
             id="path4443"
             style="fill:none;stroke:#1f1a17;stroke-width:0.93300003;stroke-linecap:round;stroke-linejoin:round;stroke-miterlimit:10;stroke-dasharray:none;stroke-opacity:1"
             d="m 447.6,531.32 c 10.744,0.417 10.739,14.827 0,15.18 -10.803,-0.36 -10.801,-14.759 0,-15.18 m 0.12,-6.24 c 10.739,0.447 10.738,14.72 0,15.18 -10.817,-0.399 -10.818,-14.793 0,-15.18" /><path
             inkscape:connector-curvature="0"
             id="path4445"
             style="fill:none;stroke:#eb3d00;stroke-width:0.40000001;stroke-linecap:round;stroke-linejoin:round;stroke-miterlimit:10;stroke-dasharray:none;stroke-opacity:1"
             d="m 491.76,449.06 c -10.148,0.537 -10.169,14.784 0,15.24 10.073,-0.52 10.047,-14.641 0,-15.24" /></g></g><path
         sodipodi:nodetypes="cssc"
         inkscape:connector-curvature="0"
         id="path5145-3"
         d="m 464.0967,533.58905 c 0,0 2.76427,4.84309 5.01405,4.58428 2.01327,-0.2316 1.41366,-5.10389 3.43822,-5.01406 1.75153,0.0777 2.57866,4.58428 2.57866,4.58428"
         style="fill:none;fill-rule:evenodd;stroke:#ff0000;stroke-width:0.40000001;stroke-linecap:butt;stroke-linejoin:miter;stroke-miterlimit:4;stroke-dasharray:none;stroke-opacity:1" /></g></g></svg>