<?xml version="1.0" encoding="UTF-8" standalone="no"?>
<!-- Created with Inkscape (http://www.inkscape.org/) -->

<svg
   xmlns:dc="http://purl.org/dc/elements/1.1/"
   xmlns:cc="http://creativecommons.org/ns#"
   xmlns:rdf="http://www.w3.org/1999/02/22-rdf-syntax-ns#"
   xmlns:svg="http://www.w3.org/2000/svg"
   xmlns="http://www.w3.org/2000/svg"
   xmlns:sodipodi="http://sodipodi.sourceforge.net/DTD/sodipodi-0.dtd"
   xmlns:inkscape="http://www.inkscape.org/namespaces/inkscape"
   width="38.347969mm"
   height="15.891571mm"
   viewBox="0 0 135.87863 56.308716"
   id="svg10697"
   version="1.1"
   inkscape:version="0.91 r13725"
   sodipodi:docname="festkoerperreibung.svg">
  <defs
     id="defs10699" />
  <sodipodi:namedview
     id="base"
     pagecolor="#ffffff"
     bordercolor="#666666"
     borderopacity="1.0"
     inkscape:pageopacity="0.0"
     inkscape:pageshadow="2"
     inkscape:zoom="0.7"
     inkscape:cx="-114.34174"
     inkscape:cy="-89.049377"
     inkscape:document-units="px"
     inkscape:current-layer="layer1"
     showgrid="false"
     inkscape:window-width="1855"
     inkscape:window-height="1176"
     inkscape:window-x="1431"
     inkscape:window-y="24"
     inkscape:window-maximized="1"
     fit-margin-top="0"
     fit-margin-left="0"
     fit-margin-right="0"
     fit-margin-bottom="0" />
  <metadata
     id="metadata10702">
    <rdf:RDF>
      <cc:Work
         rdf:about="">
        <dc:format>image/svg+xml</dc:format>
        <dc:type
           rdf:resource="http://purl.org/dc/dcmitype/StillImage" />
        <dc:title></dc:title>
      </cc:Work>
    </rdf:RDF>
  </metadata>
  <g
     inkscape:label="Layer 1"
     inkscape:groupmode="layer"
     id="layer1"
     transform="translate(-105.8883,-68.523352)">
    <path
       style="fill:#000000"
       d="m 116.67473,117.33211 c 2.97642,-5.42318 3.70727,-7.5 2.63933,-7.5 -0.8123,0 -3.12567,2.94826 -5.14082,6.55169 -2.01516,3.60343 -3.86966,6.34595 -4.12113,6.09448 -0.25147,-0.25147 0.62934,-2.18723 1.95735,-4.30169 1.32801,-2.11446 2.97518,-4.90155 3.66038,-6.19352 2.51482,-4.74183 -2.02269,-0.67374 -5.52754,4.9557 -4.15673,6.67648 -4.49625,5.83545 -0.42898,-1.06265 1.63573,-2.77421 2.64823,-5.03712 2.25,-5.0287 -1.21983,0.0258 -2.83369,1.38584 -4.13502,3.48469 -0.93055,1.50084 -1.10424,1.56323 -0.69592,0.25 0.30432,-0.97874 0.0291,-1.75 -0.62449,-1.75 -0.74572,0 -0.8216,-0.34702 -0.20969,-0.95893 1.47786,-1.47787 12.55164,-4.05978 16.45528,-3.83664 9.29776,0.53146 10.43935,0.10829 12.01662,-4.45443 1.3499,-3.904987 1.78175,-4.275677 5.31967,-4.566357 2.85719,-0.23474 4.80582,0.34569 7.55375,2.249997 4.55277,3.15507 6.98639,3.22713 10.68512,0.31636 2.31738,-1.823697 4.25157,-2.279757 10.20859,-2.407067 4.04224,-0.0864 7.65096,-0.45851 8.01938,-0.82694 0.80362,-0.80361 -5.36748,-6.206465 -8.63244,-7.557795 -1.2733,-0.527 -3.83425,-0.95819 -5.69098,-0.95819 -1.85674,0 -3.654,-0.45 -3.99392,-1 -1.02982,-1.66629 -4.41404,-1.12325 -6.23203,1 -0.94185,1.1 -2.45734,2 -3.36777,2 -0.91042,0 -2.15397,0.60085 -2.76344,1.335215 -0.60947,0.73437 -2.89115,1.92366 -5.0704,2.64288 -3.1557,1.04147 -4.56187,1.05929 -6.90787,0.0875 -1.85651,-0.76899 -4.65216,-0.96421 -7.56114,-0.52798 -2.95506,0.44314 -5.10697,0.28427 -5.98159,-0.4416 -0.75134,-0.62356 -3.36813,-1.28362 -5.81508,-1.46681 -4.49586,-0.33658 -10.11989,-2.534955 -6.64855,-2.598845 1.50238,-0.0276 1.52374,-0.45704 0.2356,-4.7372 -0.7791,-2.58873 -1.27644,-5.127066 -1.10522,-5.640746 0.17123,-0.51368 1.0796,1.82938 2.0186,5.206786 1.13078,4.06719 2.21881,6.14075 3.22214,6.14075 1.64277,0 1.39372,-1.98616 -1.17565,-9.375726 -0.74118,-2.13165 -1.31207,-4.60665 -1.26865,-5.5 0.0948,-1.9509 0.22364,-1.61966 2.96564,7.625726 1.34411,4.532 2.67604,7.25 3.55281,7.25 1.71526,0 1.77813,0.80681 -0.57958,-7.43767 -1.09019,-3.812216 -1.80683,-7.106656 -1.59251,-7.320966 0.35778,-0.35778 2.52384,6.474096 4.10148,12.936276 0.54704,2.24075 3.12552,4.550625 4.01403,3.595895 0.14001,-0.15045 -0.59846,-2.973535 -1.64106,-6.273535 -1.04259,-3.3 -1.77388,-6.674996 -1.6251,-7.499996 0.14879,-0.825 1.19027,1.8746 2.31442,5.999106 1.3705,5.0284 2.57936,7.602225 3.66915,7.812095 1.41358,0.27223 1.3092,-0.70445 -0.80148,-7.499105 -2.77741,-8.940976 -2.70102,-8.581096 -1.68862,-7.955396 0.42248,0.2611 1.63772,3.64915 2.70055,7.528986 1.62023,5.91461 3.77237,9.206585 5.13077,7.848185 0.17226,-0.17226 -0.78192,-3.862615 -2.1204,-8.200815 -1.33849,-4.338186 -2.05223,-7.470336 -1.5861,-6.960336 0.46613,0.51 1.80401,4.14091 2.97307,8.068676 1.16907,3.92777 2.80246,7.401135 3.62978,7.718605 0.82731,0.31747 1.5042,0.0553 1.5042,-0.58252 0,-0.63786 0.63821,-0.28695 1.41824,0.77981 2.38962,3.268 2.82277,0.93288 1.01926,-5.494795 -0.94399,-3.36435 -1.52838,-6.304946 -1.29866,-6.534666 0.22972,-0.22973 1.24395,2.467456 2.25384,5.993756 l 1.83615,6.411435 2.88559,-1.4922 c 1.58707,-0.820695 2.88214,-1.818125 2.87794,-2.216505 -0.004,-0.39838 -0.88997,-3.62606 -1.96837,-7.17262 -1.0784,-3.546556 -1.78185,-6.627166 -1.56323,-6.845786 0.21862,-0.21862 1.34844,2.79561 2.51071,6.698296 1.36476,4.58259 2.62949,7.09579 3.57087,7.09579 1.791,0 1.89458,0.9169 -0.93082,-8.240006 -1.31351,-4.25701 -2.03983,-7.5247 -1.61404,-7.26155 0.4258,0.26316 1.57366,3.43199 2.5508,7.04185 1.46362,5.407046 2.00714,6.332856 3.08506,5.254936 1.07792,-1.07792 0.95665,-2.43875 -0.68835,-7.724136 -1.09823,-3.52864 -1.84958,-6.85731 -1.66967,-7.39705 0.17991,-0.53974 1.32785,2.4628 2.55098,6.67231 1.56192,5.375496 2.69472,7.653646 3.80577,7.653646 0.87005,0 1.36983,-0.5625 1.11062,-1.25 -1.38999,-3.686736 -3.80523,-13.020786 -3.45883,-13.367186 0.22122,-0.22123 1.38077,2.96554 2.57677,7.08171 1.38329,4.760726 2.86713,7.854596 4.07789,8.502576 1.85415,0.9923 1.85157,0.83572 -0.0996,-6.058926 -1.10159,-3.89267 -1.81024,-7.27022 -1.57477,-7.50569 0.23546,-0.23547 1.31477,2.83975 2.39845,6.83381 1.40964,5.195416 2.47688,7.359476 3.75041,7.604736 1.45591,0.28038 1.6423,-0.0837 1.02353,-1.99911 -2.4756,-7.663346 -3.37125,-11.160056 -2.64069,-10.309596 0.45718,0.53222 1.61313,3.55518 2.56878,6.717676 1.03397,3.42173 2.30239,5.75 3.13253,5.75 1.17876,0 1.16158,-0.78602 -0.11085,-5.07075 -0.82822,-2.788906 -1.35198,-5.532366 -1.16391,-6.096556 0.18806,-0.5642 1.16352,2.14184 2.16769,6.013436 1.00416,3.87159 2.64585,7.78145 3.64821,8.68857 1.71562,1.552605 1.70491,1.257455 -0.18274,-5.03456 -1.10287,-3.67612 -1.80929,-6.879786 -1.56983,-7.119246 0.23947,-0.23946 1.21383,2.38938 2.16526,5.841856 1.81437,6.5839 3.96144,10.777245 5.51812,10.777245 0.50768,0 0.21503,-2.3625 -0.65033,-5.249995 -3.02318,-10.087596 -3.18469,-10.785136 -2.38256,-10.289396 0.44424,0.27456 1.62706,3.658236 2.62849,7.519296 1.08539,4.184765 2.34875,7.020095 3.12802,7.020095 1.7463,0 1.64664,-1.33354 -0.66878,-8.948295 -1.0784,-3.54656 -1.76055,-6.648466 -1.5159,-6.893126 0.51678,-0.51678 0.83581,0.33775 3.00119,8.038696 1.10535,3.93106 2.01529,5.538655 2.9352,5.185655 1.08214,-0.415255 0.99461,-1.629945 -0.46484,-6.450165 -0.98893,-3.26621 -1.43413,-5.713646 -0.98933,-5.438746 0.4448,0.2749 1.35108,2.760596 2.01396,5.523776 0.7222,3.01049 1.96479,5.43047 3.10048,6.038265 1.04239,0.55787 1.89181,0.88597 1.88761,0.72912 -0.004,-0.15685 -0.88412,-3.167595 -1.95537,-6.690545 -1.07125,-3.52295 -1.56763,-5.997946 -1.10307,-5.499996 0.46456,0.49795 1.58204,3.492866 2.4833,6.655366 1.04128,3.65384 2.17529,5.749995 3.11072,5.749995 1.84935,0 1.83887,-0.56719 -0.11655,-6.306025 -0.87373,-2.56428 -1.40173,-5.222956 -1.17332,-5.908186 0.22841,-0.68523 1.23508,1.782646 2.23703,5.484166 1.00196,3.70153 2.12995,6.730045 2.50665,6.730045 1.69258,0 1.67521,-1.525595 -0.0832,-7.307555 -1.0358,-3.40584 -1.84004,-6.642436 -1.78721,-7.192436 0.0528,-0.55 1.09216,2.14967 2.30963,5.999256 1.43418,4.53485 2.79642,7.1115 3.86895,7.31806 1.52205,0.293115 1.53457,-0.0693 0.1554,-4.49926 -0.825,-2.64993 -1.72131,-6.168056 -1.9918,-7.818056 -0.2705,-1.65 0.57653,0.375 1.88228,4.499996 1.45718,4.60341 2.97052,7.61738 3.9184,7.80392 1.30523,0.256865 1.17399,-0.96988 -0.84773,-7.92387 -1.31563,-4.525276 -2.21193,-8.407906 -1.99177,-8.628066 0.22015,-0.22016 1.13982,2.22058 2.04371,5.42387 2.74174,9.716456 3.12149,10.684106 4.3541,11.094976 1.70945,0.569815 1.49074,-1.33052 -1.23034,-10.690026 -1.32981,-4.57406 -2.05032,-7.92595 -1.60113,-7.44864 0.44919,0.47731 1.74346,4.18658 2.87615,8.24282 2.26936,8.126686 2.72111,8.946726 4.1445,7.523326 0.62447,-0.62446 0.0647,-3.9109 -1.57631,-9.254386 -1.39956,-4.55732 -2.39828,-8.72519 -2.21936,-9.26194 0.17891,-0.53674 1.42101,2.93056 2.76022,7.70512 2.05226,7.316746 2.58496,8.344736 3.38967,6.541326 0.68605,-1.5375 0.36263,-4.169486 -1.14921,-9.352086 -1.15717,-3.96683 -1.92947,-7.38689 -1.71623,-7.60014 0.21325,-0.21324 1.35896,2.80987 2.54603,6.71804 1.24427,4.09647 2.71349,7.105756 3.46924,7.105756 1.01832,0 0.88669,-1.394996 -0.58976,-6.249996 -2.66093,-8.74987 -2.20462,-9.74123 0.57535,-1.25 1.40193,4.2821 2.90565,7.12349 3.87286,7.31806 1.42745,0.287136 1.43905,-0.15022 0.1193,-4.5 -0.80401,-2.64993 -1.42054,-5.26806 -1.37007,-5.81806 0.0505,-0.55 0.88726,1.475 1.85952,4.5 1.04457,3.24994 2.42326,5.63012 3.37006,5.81806 1.45317,0.288446 1.46625,-0.13041 0.14049,-4.5 -0.80401,-2.64993 -1.43231,-5.49306 -1.39622,-6.31806 0.0361,-0.825 0.92121,1.4025 1.96695,4.95 1.04575,3.5475 2.87394,7.372496 4.06265,8.499996 1.94878,1.84843 2.09804,1.86879 1.51795,0.2071 -1.46754,-4.203866 -1.51916,-6.815856 -0.0575,-2.907096 0.87412,2.337496 2.22682,4.249996 3.00598,4.249996 1.74488,0 1.8602,0.93833 -1.03979,-8.460336 -1.3509,-4.37819 -2.27946,-8.13708 -2.06345,-8.35308 0.21601,-0.21601 1.5864,3.52066 3.04531,8.3037 2.27929,7.472586 2.92152,8.626106 4.56359,8.196696 2.29721,-0.60073 2.57598,0.84387 0.32922,1.70603 -3.15728,1.21157 -6.88469,0.55643 -10.36446,-1.82167 -2.94015,-2.00933 -4.36168,-2.33357 -8.233,-1.87793 -4.02452,0.47369 -4.85289,0.96997 -5.92031,3.54694 -0.68258,1.6479 -2.59894,3.82197 -4.25858,4.831255 l -3.01753,1.83506 2.72614,1.03648 c 2.72463,1.0359 6.24987,4.316247 8.85513,8.239977 1.30683,1.96819 1.54688,1.99623 4.41105,0.51511 1.66596,-0.8615 3.63847,-2.30071 4.38335,-3.19824 2.4765,-2.983997 6.25087,-4.270317 9.75,-3.322837 3.11221,0.84271 4.24809,2.284027 2.35599,2.989507 -0.49167,0.18333 -2.51552,3.03333 -4.49739,6.33333 -4.35482,7.25115 -4.81627,6.60964 -0.60856,-0.84601 1.65,-2.92364 3,-5.84182 3,-6.48485 0,-2.744407 -1.80466,-0.668867 -5.93553,6.82647 -2.42363,4.39758 -4.58673,7.81546 -4.80691,7.59529 -0.22017,-0.22018 1.44436,-3.65565 3.69896,-7.63438 3.85057,-6.795157 4.48233,-8.963807 2.20044,-7.553527 -0.53685,0.3318 -3.12033,4.423327 -5.74105,9.092287 -2.62072,4.66896 -4.97554,8.27842 -5.23293,8.02103 -0.25739,-0.25739 -0.0252,-1.04135 0.51592,-1.74214 0.54114,-0.7008 2.48451,-3.94245 4.3186,-7.20369 3.28642,-5.84367 3.29689,-5.90158 0.72286,-4 -1.43651,1.06124 -4.70724,5.64202 -7.26828,10.17952 -2.56105,4.5375 -4.87149,8.25 -5.13431,8.25 -0.26282,0 1.38518,-3.375 3.66223,-7.5 3.11409,-5.64135 3.75741,-7.5 2.5959,-7.5 -0.89001,0 -3.29947,3.1982 -5.68746,7.54925 -2.2788,4.15209 -4.32841,7.36412 -4.55468,7.13784 -0.22628,-0.22627 1.43207,-3.60888 3.68521,-7.5169 3.06683,-5.31935 3.85929,-7.52956 3.15252,-8.79251 -0.77258,-1.38052 -1.78084,-0.25092 -5.54973,6.21765 -2.5331,4.34757 -4.61376,7.53318 -4.6237,7.07914 -0.01,-0.45404 1.78194,-3.90755 3.98194,-7.67447 2.2,-3.76692 4,-7.33293 4,-7.92447 0,-2.58722 -1.95575,-0.63574 -4.90121,4.89051 -1.74893,3.28132 -3.69757,6.28599 -4.33031,6.67705 -0.63275,0.39106 -0.1645,-0.94366 1.04054,-2.96604 1.20504,-2.02238 3.09633,-5.20132 4.20286,-7.06431 1.13615,-1.91285 1.73022,-4.12124 1.3648,-5.073497 -0.48672,-1.26839 -1.49526,-0.18117 -4.06979,4.387247 -1.88249,3.34043 -3.66461,6.07351 -3.96026,6.07351 -0.29565,0 0.89034,-2.53007 2.63553,-5.62238 2.03034,-3.59757 2.82686,-5.968597 2.21172,-6.583737 -0.61513,-0.61513 -2.42341,1.67979 -5.0211,6.372387 -4.01412,7.25128 -8.538,13.93443 -6.31808,9.33373 0.53077,-1.1 2.80559,-5.14286 5.05517,-8.98413 4.21576,-7.198647 4.71373,-8.515867 3.21938,-8.515867 -0.47892,0 -3.49642,4.482487 -6.70557,9.961097 -3.20915,5.4786 -5.98817,9.80775 -6.17559,9.62032 -0.18743,-0.18742 2.15508,-4.54447 5.20557,-9.68232 5.21347,-8.780897 6.20062,-10.899097 5.07935,-10.899097 -0.61526,0 -12.8314,18.594657 -14.90442,22.686587 -0.8879,1.75262 -2.07383,3.47055 -2.6354,3.81762 -0.56157,0.34707 0.33523,-1.6692 1.99288,-4.48059 3.53688,-5.99855 3.63087,-6.42416 1.12225,-5.08159 -1.04043,0.55682 -3.29427,3.49765 -5.00855,6.53518 -1.71428,3.03754 -3.35699,5.52279 -3.65047,5.52279 -0.53268,0 4.01405,-8.34451 5.88051,-10.79238 0.65312,-0.85656 0.62982,-1.64799 -0.0691,-2.34688 -0.73933,-0.73933 -2.15563,0.91451 -4.7387,5.53348 -2.02632,3.62338 -4.18366,6.89665 -4.7941,7.27393 -0.61045,0.37727 -0.18319,-0.85622 0.94946,-2.7411 5.82292,-9.69013 7.17498,-12.54789 6.47356,-13.6828 -0.49141,-0.79512 -2.26985,1.42171 -5.02403,6.26247 -2.34484,4.1213 -4.49068,7.49328 -4.76853,7.49328 -0.50002,0 4.74685,-9.66765 7.31186,-13.47251 1.69261,-2.51076 1.6837,-3.52749 -0.0309,-3.52749 -0.74837,0 -2.74626,2.5875 -4.43977,5.75 -1.6935,3.1625 -3.81025,6.65 -4.70389,7.75 -1.58959,1.95666 4.95299,-10.84696 6.73801,-13.18608 0.55191,-0.72323 0.47408,-1.99149 -0.19946,-3.25 -2.10031,-3.924467 -3.84648,-2.489827 -9.4521,7.76577 -2.15484,3.94232 -4.1033,6.98245 -4.32991,6.75585 -0.2266,-0.22661 0.23228,-1.46356 1.01975,-2.74878 5.42653,-8.85663 6.76573,-11.83676 5.31914,-11.83676 -0.82126,0 -3.14197,2.94826 -5.15712,6.55169 -2.01516,3.60343 -3.86966,6.34595 -4.12113,6.09448 -0.25147,-0.25147 0.62934,-2.18723 1.95735,-4.30169 4.5033,-7.17018 4.96967,-8.34448 3.31393,-8.34448 -0.81743,0 -3.11975,2.92099 -5.11627,6.4911 -1.99651,3.5701 -4.09021,6.77551 -4.65266,7.12312 -0.56246,0.34762 -0.36763,-0.43588 0.43293,-1.7411 5.44688,-8.88039 6.79241,-11.87312 5.33814,-11.87312 -0.82392,0 -3.33774,3.15 -5.58626,7 -5.09877,8.7303 -6.18117,9.21772 -1.48108,0.66695 1.91459,-3.48317 3.48108,-6.70292 3.48108,-7.15498 0,-2.017657 -4.37584,3.44465 -7.72108,9.63812 -2.018,3.73619 -3.83582,6.62634 -4.0396,6.42256 -0.20378,-0.20377 1.00901,-2.81487 2.69509,-5.80243 3.42038,-6.06058 3.61196,-6.77405 1.81559,-6.76146 -0.6875,0.005 -3.04346,3.12386 -5.23547,6.9312 -5.01222,8.70585 -5.84163,8.54324 -1.03422,-0.20277 2.7222,-4.95243 3.24817,-6.62741 2.20661,-7.02709 -0.89129,-0.34202 -2.65087,1.70655 -5.0527,5.88257 -4.76659,8.28756 -5.66269,8.34725 -1.1153,0.0743 3.7113,-6.75189 4.0155,-7.66696 2.54877,-7.66696 -0.51277,0 -2.4064,2.68137 -4.20806,5.9586 -1.80167,3.27723 -3.42824,5.80612 -3.6146,5.61976 -0.18637,-0.18636 1.29856,-3.31773 3.29983,-6.9586 2.51903,-4.58281 3.2101,-6.61976 2.24587,-6.61976 -0.76604,0 -3.31303,3.375 -5.65998,7.5 -2.34695,4.125 -4.50425,7.5 -4.79399,7.5 -0.486,0 2.06891,-4.73721 6.87642,-12.75 1.63383,-2.72314 1.70312,-3.249997 0.4274,-3.249997 -0.8374,0 -1.8052,0.457337 -2.15066,1.016307 -0.34547,0.55897 -1.04187,0.7606 -1.54756,0.44806 -0.5085,-0.31427 -0.62514,0.19872 -0.26097,1.14774 0.48212,1.25638 0.30375,1.49674 -0.66596,0.89743 -0.87254,-0.53927 -1.08539,-0.43175 -0.62381,0.3151 0.38536,0.62352 -1.33699,4.63055 -3.82742,8.90451 -2.49044,4.27397 -4.5362,7.40098 -4.54614,6.94892 -0.01,-0.45206 1.1497,-2.81456 2.57696,-5.25 2.03233,-3.46791 2.26783,-4.42807 1.08607,-4.42807 -0.82993,0 -3.14471,2.925 -5.14397,6.5 -1.99925,3.575 -3.87671,6.5 -4.17213,6.5 -0.29542,0 1.09863,-2.925 3.09788,-6.5 2.5884,-4.62849 3.22152,-6.5 2.1989,-6.5 -0.78986,0 -3.36522,3.37166 -5.72303,7.49258 -2.35781,4.12091 -4.45239,7.32711 -4.65462,7.12487 -0.20223,-0.20223 1.22611,-3.08711 3.17409,-6.41084 3.64144,-6.21316 4.26514,-8.20661 2.56764,-8.20661 -0.53578,0 -2.82645,3.375 -5.09039,7.5 -2.26393,4.125 -4.34123,7.5 -4.61623,7.5 -0.275,0 1.3523,-3.375 3.61623,-7.5 z m 76.5483,-9.44885 c 0.3402,-1.07186 1.38705,-2.19276 2.32634,-2.49088 0.93928,-0.29812 2.15376,-1.39008 2.69884,-2.42658 0.54508,-1.0365 1.77543,-3.262207 2.73411,-4.946007 l 1.74304,-3.06147 -8.69635,0.0242 c -6.7905,0.0189 -9.19118,0.41346 -10.95422,1.80027 l -2.25787,1.77604 3.05864,3.386617 c 1.68225,1.86264 3.45364,4.39912 3.93643,5.63662 1.08222,2.77404 4.56467,2.96785 5.41104,0.30115 z m -23.46071,9.71088 c -0.0127,-0.40588 2.22695,-4.66199 4.97695,-9.45803 2.75,-4.79604 5,-8.285327 5,-7.75397 0,1.14011 -9.94317,18.29383 -9.97695,17.212 z m 33.97695,-4.644 c 0,-0.55 0.45,-1.27811 1,-1.61803 0.55,-0.33992 1,-0.16803 1,0.38197 0,0.55 -0.45,1.27811 -1,1.61803 -0.55,0.33992 -1,0.16803 -1,-0.38197 z m 34,-2.76023 c 0,-0.53655 0.69982,-1.84905 1.55517,-2.91667 1.46637,-1.83031 1.48719,-1.7984 0.36454,0.55887 -1.45781,3.06103 -1.91971,3.62834 -1.91971,2.3578 z M 133.72845,91.248788 c -0.006,-0.50417 -0.68891,-3.15213 -1.51769,-5.88435 -0.82877,-2.732226 -1.12476,-4.532226 -0.65775,-3.999996 1.23006,1.401836 3.42721,9.560056 2.75557,10.231696 -0.31312,0.31312 -0.57418,0.15681 -0.58013,-0.34735 z m 6.57332,-5.47917 c -0.94399,-3.364346 -1.53077,-6.302556 -1.30396,-6.529366 0.22681,-0.22681 1.17921,2.34578 2.11646,5.716866 0.93725,3.37109 1.52403,6.3093 1.30396,6.52937 -0.22007,0.22007 -1.17247,-2.35252 -2.11646,-5.71687 z m 97.4875,-8.487496 c -1.23803,-4.17031 -2.05137,-7.78196 -1.80744,-8.0259 0.24394,-0.24393 1.43979,2.98522 2.65744,7.1759 1.21765,4.19068 2.031,7.802326 1.80744,8.025896 -0.22357,0.22356 -1.41941,-3.005586 -2.65744,-7.175896 z m -8.88978,-3.30957 c -0.63812,-2.12986 -1.12888,-4.49526 -1.09057,-5.25645 0.0383,-0.76119 0.74078,0.80105 1.56106,3.47163 0.82027,2.67059 1.31102,5.03599 1.09056,5.25645 -0.22046,0.22046 -0.92293,-1.34178 -1.56105,-3.47163 z"
       id="path10986"
       inkscape:connector-curvature="0" />
  </g>
</svg>
