<?xml version="1.0" encoding="UTF-8" standalone="no"?>
<!-- Created with Inkscape (http://www.inkscape.org/) -->

<svg
   xmlns:rendltx="http://NOTSET"
   xmlns:dc="http://purl.org/dc/elements/1.1/"
   xmlns:cc="http://creativecommons.org/ns#"
   xmlns:rdf="http://www.w3.org/1999/02/22-rdf-syntax-ns#"
   xmlns:svg="http://www.w3.org/2000/svg"
   xmlns="http://www.w3.org/2000/svg"
   xmlns:xlink="http://www.w3.org/1999/xlink"
   xmlns:sodipodi="http://sodipodi.sourceforge.net/DTD/sodipodi-0.dtd"
   xmlns:inkscape="http://www.inkscape.org/namespaces/inkscape"
   id="svg4155"
   version="1.1"
   inkscape:version="0.91 r13725"
   xml:space="preserve"
   width="91.399399"
   height="102.15227"
   viewBox="0 0 91.399399 102.15226"
   sodipodi:docname="general_ac_circuit_capacitor.svg"><sodipodi:namedview
     pagecolor="#ffffff"
     bordercolor="#666666"
     borderopacity="1"
     objecttolerance="10"
     gridtolerance="10"
     guidetolerance="10"
     inkscape:pageopacity="0"
     inkscape:pageshadow="2"
     inkscape:window-width="1301"
     inkscape:window-height="744"
     id="namedview4157"
     showgrid="false"
     inkscape:zoom="3.3703666"
     inkscape:cx="55.203334"
     inkscape:cy="53.582202"
     inkscape:window-x="65"
     inkscape:window-y="24"
     inkscape:window-maximized="1"
     inkscape:current-layer="ltx-render-layer"
     fit-margin-top="0"
     fit-margin-left="0"
     fit-margin-right="0"
     fit-margin-bottom="0" /><metadata
     id="metadata4161"><rdf:RDF><cc:Work
         rdf:about=""><dc:format>image/svg+xml</dc:format><dc:type
           rdf:resource="http://purl.org/dc/dcmitype/StillImage" /><dc:title></dc:title></cc:Work></rdf:RDF></metadata><defs
     id="defs4159"><clipPath
       id="clipPath4369"
       clipPathUnits="userSpaceOnUse"><path
         inkscape:connector-curvature="0"
         id="path4371"
         d="m 0,0 359.49118,0 0,116.83636 L 0,116.83636 0,0 Z" /></clipPath><clipPath
       id="clipPath4373"
       clipPathUnits="userSpaceOnUse"><path
         inkscape:connector-curvature="0"
         id="path4375"
         d="m 0,98.856 184.184,0 0,-74.086 L 0,24.77 0,98.856 Z" /></clipPath><clipPath
       id="clipPath4377"
       clipPathUnits="userSpaceOnUse"><path
         inkscape:connector-curvature="0"
         id="path4379"
         d="M 0,0 186,0 186,117 0,117 0,0 Z" /></clipPath><clipPath
       id="clipPath4381"
       clipPathUnits="userSpaceOnUse"><path
         inkscape:connector-curvature="0"
         id="path4383"
         d="m 0,117 185.48,0 0,-117 L 0,0 0,117 Z" /></clipPath></defs><g
     transform="matrix(1.25,0,0,-1.25,-195.15202,547.046)"
     inkscape:label="main"
     inkscape:groupmode="layer"
     id="g4163"><g
       transform="matrix(0.40963316,0,0,-0.40963316,152.43492,441.11868)"
       id="g4858"
       style="stroke:#000000;stroke-width:2"><path
         id="path4860"
         d="m 18,186 48,0"
         inkscape:connector-curvature="0" /><path
         id="path4862"
         d="m 114,186 48,0"
         inkscape:connector-curvature="0" /><path
         id="path4864"
         d="m 18,90 16,0"
         inkscape:connector-curvature="0" /><path
         id="path4866"
         d="m 50,90 16,0"
         inkscape:connector-curvature="0" /><path
         id="path4868"
         d="m 114,90 16,0"
         inkscape:connector-curvature="0" /><path
         id="path4870"
         d="m 146,90 16,0"
         inkscape:connector-curvature="0" /><path
         id="path4872"
         d="m 50,26 16,0"
         inkscape:connector-curvature="0" /><path
         id="path4874"
         d="m 114,26 16,0"
         inkscape:connector-curvature="0" /><path
         id="path4876"
         d="m 10,98 0,80"
         inkscape:connector-curvature="0" /><path
         id="path4878"
         d="m 170,98 0,16"
         inkscape:connector-curvature="0" /><path
         id="path4880"
         d="m 170,162 0,16"
         inkscape:connector-curvature="0" /><path
         id="path4882"
         d="m 138,34 0,48"
         inkscape:connector-curvature="0" /><path
         id="path4884"
         d="m 42,34 0,48"
         inkscape:connector-curvature="0" /></g><g
       id="g4886"
       style="font-style:italic;font-family:Serif;fill:none;stroke:#000000;stroke-width:2"
       transform="matrix(0.40963316,0,0,-0.40963316,-253.10191,866.3179)"><g
         id="g4888"
         transform="translate(1056,1040)"
         style="fill:#ffffff"><path
           id="path4890"
           d="m 0,24 48,0"
           inkscape:connector-curvature="0" /><circle
           id="circle4892"
           r="16"
           cx="24"
           cy="24"
           style="stroke-width:3" /></g><g
         id="g4896"
         transform="translate(1056,1104)"><path
           id="path4898"
           d="M -1,0 17,0"
           inkscape:connector-curvature="0" /></g><g
         id="g4900"
         transform="translate(1072,1104)"><path
           id="path4902"
           d="M -1,0 17,0"
           inkscape:connector-curvature="0" /></g><g
         id="g4904"
         transform="translate(1088,1104)"><path
           id="path4906"
           d="M -1,0 17,0"
           inkscape:connector-curvature="0" /></g><g
         id="g4908"
         transform="translate(1056,1152)"><path
           id="path4910"
           d="M -1,0 17,0"
           inkscape:connector-curvature="0" /></g><g
         id="g4912"
         transform="translate(1072,1152)"><path
           id="path4914"
           d="M -1,0 17,0"
           inkscape:connector-curvature="0" /></g><g
         id="g4916"
         transform="translate(1088,1152)"><path
           id="path4918"
           d="M -1,0 17,0"
           inkscape:connector-curvature="0" /></g><g
         id="g4920"
         transform="matrix(0,-1,1,0,1056,1120)"><path
           id="path4922"
           d="M -1,0 17,0"
           inkscape:connector-curvature="0" /></g><g
         id="g4924"
         transform="matrix(0,-1,1,0,1056,1136)"><path
           id="path4926"
           d="M -1,0 17,0"
           inkscape:connector-curvature="0" /></g><g
         id="g4928"
         transform="matrix(0,-1,1,0,1056,1152)"><path
           id="path4930"
           d="M -1,0 17,0"
           inkscape:connector-curvature="0" /></g><g
         id="g4932"
         transform="matrix(0,-1,1,0,1104,1120)"><path
           id="path4934"
           d="M -1,0 17,0"
           inkscape:connector-curvature="0" /></g><g
         id="g4936"
         transform="matrix(0,-1,1,0,1104,1136)"><path
           id="path4938"
           d="M -1,0 17,0"
           inkscape:connector-curvature="0" /></g><g
         id="g4940"
         transform="matrix(0,-1,1,0,1104,1152)"><path
           id="path4942"
           d="M -1,0 17,0"
           inkscape:connector-curvature="0" /></g><g
         id="g4944"
         transform="matrix(0,-1,1,0,1120,1136)"><path
           id="path4946"
           d="M 8,0 8,16"
           inkscape:connector-curvature="0" /><path
           id="path4948"
           d="m 8,8 8,0"
           inkscape:connector-curvature="0" /><circle
           id="circle4950"
           r="3"
           cx="8"
           cy="8"
           style="fill:#000000;stroke:none" /></g><g
         id="g4952"
         transform="matrix(0,-1,1,0,1136,1200)"
         style="fill:#ffffff"><path
           id="path4954"
           d="m 0,24 48,0"
           inkscape:connector-curvature="0" /><circle
           id="circle4956"
           r="16"
           cx="24"
           cy="24"
           style="stroke-width:3" /></g><g
         id="g4958"
         transform="translate(1056,1200)"><circle
           id="circle4960"
           r="20"
           cx="24"
           cy="24"
           style="fill:#ffffff;stroke-width:4" /><path
           id="path4962"
           d="m 0,24 4,0"
           inkscape:connector-curvature="0" /><path
           id="path4964"
           d="m 48,24 -4,0"
           inkscape:connector-curvature="0" /><path
           id="path4966"
           d="m 10,24 a 8,8 0 0 1 14,0 8,8 0 0 0 14,0"
           inkscape:connector-curvature="0" /></g><g
         id="g4972"
         transform="matrix(0,-1,1,0,1024,1136)"><path
           id="path4974"
           d="M 8,0 8,16"
           inkscape:connector-curvature="0" /><path
           id="path4976"
           d="m 8,8 8,0"
           inkscape:connector-curvature="0" /><circle
           id="circle4978"
           r="3"
           cx="8"
           cy="8"
           style="fill:#000000;stroke:none" /></g><g
         id="g4980"
         transform="matrix(0,-1,1,0,992,1232)"><path
           id="path4982"
           d="M 8,16 8,8 16,8"
           inkscape:connector-curvature="0" /></g><g
         id="g4984"
         transform="matrix(-1,0,0,-1,1168,1232)"><path
           id="path4986"
           d="M 8,16 8,8 16,8"
           inkscape:connector-curvature="0" /></g><g
         id="g4988"
         transform="matrix(0,1,-1,0,1168,1120)"><path
           id="path4990"
           d="M 8,16 8,8 16,8"
           inkscape:connector-curvature="0" /></g><g
         id="g4992"
         transform="matrix(0,1,-1,0,1136,1056)"><path
           id="path4994"
           d="M 8,16 8,8 16,8"
           inkscape:connector-curvature="0" /></g><g
         id="g4996"
         transform="translate(1024,1056)"><path
           id="path4998"
           d="M 8,16 8,8 16,8"
           inkscape:connector-curvature="0" /></g><g
         id="g5000"
         transform="translate(992,1120)"><path
           id="path5002"
           d="M 8,16 8,8 16,8"
           inkscape:connector-curvature="0" /></g></g></g><g
     inkscape:label="text"
     id="layer1"
     inkscape:groupmode="layer"
     style="display:none"
     transform="translate(-195.15202,-505.3165)"><text
       sodipodi:linespacing="125%"
       id="text5197"
       y="634.60382"
       x="273.61417"
       style="font-style:normal;font-weight:normal;font-size:15px;line-height:125%;font-family:sans-serif;letter-spacing:0px;word-spacing:0px;fill:#000000;fill-opacity:1;stroke:none;stroke-width:1px;stroke-linecap:butt;stroke-linejoin:miter;stroke-opacity:1"
       xml:space="preserve"><tspan
         y="634.60382"
         x="273.61417"
         id="tspan5199"
         sodipodi:role="line">$Z_C$</tspan></text>
<text
       sodipodi:linespacing="125%"
       id="text5197-3"
       y="657.63452"
       x="273.61417"
       style="font-style:normal;font-weight:normal;font-size:15px;line-height:125%;font-family:sans-serif;letter-spacing:0px;word-spacing:0px;fill:#000000;fill-opacity:1;stroke:none;stroke-width:1px;stroke-linecap:butt;stroke-linejoin:miter;stroke-opacity:1"
       xml:space="preserve"><tspan
         y="657.63452"
         x="273.61417"
         id="tspan5199-6"
         sodipodi:role="line">$v_C$</tspan></text>
<text
       sodipodi:linespacing="125%"
       id="text5197-7"
       y="680.66522"
       x="273.61417"
       style="font-style:normal;font-weight:normal;font-size:15px;line-height:125%;font-family:sans-serif;letter-spacing:0px;word-spacing:0px;fill:#000000;fill-opacity:1;stroke:none;stroke-width:1px;stroke-linecap:butt;stroke-linejoin:miter;stroke-opacity:1"
       xml:space="preserve"><tspan
         y="680.66522"
         x="273.61417"
         id="tspan5199-5"
         sodipodi:role="line">$i_C$</tspan></text>
</g><g
     rendltx:math="False"
     rendltx:newline="False"
     rendltx:fontsize="12"
     rendltx:depth="0"
     rendltx:scale="1.0"
     rendltx:preamble="preamble.tex"
     id="ltx-render-layer"
     inkscape:groupmode="layer"
     inkscape:label="Rendered Latex"
     transform="translate(-195.15202,-505.3165)"><g
       id="lx-text5197"
       transform="matrix(1.25,0,0,1.25,226.82851,550.89316)"><defs
         id="defs5319"><g
           id="g5321"><symbol
             id="lx-text5197-glyph0-0"
             overflow="visible"
             style="overflow:visible"><path
               id="path5324"
               d=""
               style="stroke:none"
               inkscape:connector-curvature="0" /></symbol><symbol
             id="lx-text5197-glyph0-1"
             overflow="visible"
             style="overflow:visible"><path
               id="path5327"
               d="M 8.359375,-7.796875 C 8.4375,-7.875 8.5,-7.953125 8.5,-8.0625 8.5,-8.15625 8.484375,-8.15625 8.21875,-8.15625 l -4.9375,0 c -0.28125,0 -0.296875,0 -0.359375,0.21875 l -0.65625,2.15625 C 2.21875,-5.671875 2.21875,-5.640625 2.21875,-5.625 c 0,0.0625 0.046875,0.125 0.125,0.125 0.09375,0 0.125,-0.046875 0.171875,-0.203125 C 2.953125,-7 3.53125,-7.8125 5.421875,-7.8125 l 1.96875,0 -6.546875,7.40625 C 0.734375,-0.28125 0.6875,-0.234375 0.6875,-0.09375 0.6875,0 0.734375,0 0.96875,0 L 6.078125,0 C 6.34375,0 6.359375,-0.015625 6.4375,-0.234375 L 7.265625,-2.875 c 0.015625,-0.03125 0.03125,-0.109375 0.03125,-0.15625 0,-0.0625 -0.046875,-0.125 -0.109375,-0.125 -0.09375,0 -0.109375,0.015625 -0.203125,0.3125 -0.5,1.546875 -1.03125,2.46875 -3.109375,2.46875 l -2.0625,0 z m 0,0"
               style="stroke:none"
               inkscape:connector-curvature="0" /></symbol><symbol
             id="lx-text5197-glyph1-0"
             overflow="visible"
             style="overflow:visible"><path
               id="path5330"
               d=""
               style="stroke:none"
               inkscape:connector-curvature="0" /></symbol><symbol
             id="lx-text5197-glyph1-1"
             overflow="visible"
             style="overflow:visible"><path
               id="path5333"
               d="m 6.34375,-5.390625 c 0,-0.03125 0.015625,-0.078125 0.015625,-0.125 0,-0.046875 -0.046875,-0.09375 -0.09375,-0.09375 -0.0625,0 -0.078125,0.015625 -0.140625,0.09375 L 5.5625,-4.90625 C 5.484375,-5 5.0625,-5.609375 4.140625,-5.609375 c -1.859375,0 -3.71875,1.71875 -3.71875,3.546875 0,1.390625 1.046875,2.234375 2.3125,2.234375 1.046875,0 1.9375,-0.640625 2.359375,-1.265625 0.265625,-0.390625 0.375,-0.765625 0.375,-0.8125 0,-0.078125 -0.046875,-0.109375 -0.125,-0.109375 -0.09375,0 -0.109375,0.046875 -0.125,0.125 -0.34375,1.109375 -1.421875,1.796875 -2.375,1.796875 -0.8125,0 -1.671875,-0.484375 -1.671875,-1.703125 0,-0.25 0.09375,-1.578125 0.984375,-2.578125 C 2.75,-5.046875 3.5625,-5.34375 4.1875,-5.34375 c 1.015625,0 1.421875,0.796875 1.421875,1.5625 0,0.109375 -0.03125,0.265625 -0.03125,0.359375 0,0.09375 0.109375,0.09375 0.140625,0.09375 0.09375,0 0.109375,-0.03125 0.140625,-0.171875 z m 0,0"
               style="stroke:none"
               inkscape:connector-curvature="0" /></symbol></g></defs><g
         id="lx-text5197-surface1"><g
           id="g5336"
           style="fill:#000000;fill-opacity:1"><use
             id="use5338"
             y="0"
             x="0"
             xlink:href="#lx-text5197-glyph0-1"
             width="100%"
             height="100%" /></g><g
           id="g5340"
           style="fill:#000000;fill-opacity:1"><use
             id="use5342"
             y="1.793"
             x="8.0120001"
             xlink:href="#lx-text5197-glyph1-1"
             width="100%"
             height="100%" /></g></g></g><g
       id="lx-text5197-3"
       transform="matrix(0.9375,0,0,0.9375,230.64586,515.7128)"><defs
         id="defs5345"><g
           id="g5347"><symbol
             id="lx-text5197-3-glyph0-0"
             overflow="visible"
             style="overflow:visible"><path
               id="path5350"
               d=""
               style="stroke:none"
               inkscape:connector-curvature="0" /></symbol><symbol
             id="lx-text5197-3-glyph0-1"
             overflow="visible"
             style="overflow:visible"><path
               id="path5353"
               d="m 5.46875,-4.46875 c 0,-0.75 -0.390625,-0.796875 -0.484375,-0.796875 -0.28125,0 -0.546875,0.28125 -0.546875,0.515625 0,0.140625 0.078125,0.234375 0.125,0.28125 C 4.6875,-4.359375 5,-4.046875 5,-3.421875 c 0,0.5 -0.71875,3.296875 -2.15625,3.296875 -0.734375,0 -0.875,-0.609375 -0.875,-1.046875 0,-0.59375 0.28125,-1.4375 0.59375,-2.296875 0.203125,-0.484375 0.25,-0.609375 0.25,-0.84375 0,-0.5 -0.359375,-0.953125 -0.953125,-0.953125 -1.09375,0 -1.53125,1.734375 -1.53125,1.828125 0,0.046875 0.046875,0.109375 0.125,0.109375 0.109375,0 0.125,-0.046875 0.171875,-0.21875 0.28125,-1.03125 0.75,-1.484375 1.203125,-1.484375 0.109375,0 0.3125,0 0.3125,0.390625 0,0.3125 -0.125,0.65625 -0.3125,1.109375 C 1.25,-2 1.25,-1.625 1.25,-1.34375 c 0,0.265625 0.046875,0.765625 0.40625,1.09375 0.4375,0.375 1.03125,0.375 1.140625,0.375 1.984375,0 2.671875,-3.921875 2.671875,-4.59375 z m 0,0"
               style="stroke:none"
               inkscape:connector-curvature="0" /></symbol><symbol
             id="lx-text5197-3-glyph1-0"
             overflow="visible"
             style="overflow:visible"><path
               id="path5356"
               d=""
               style="stroke:none"
               inkscape:connector-curvature="0" /></symbol><symbol
             id="lx-text5197-3-glyph1-1"
             overflow="visible"
             style="overflow:visible"><path
               id="path5359"
               d="m 6.34375,-5.390625 c 0,-0.03125 0.015625,-0.078125 0.015625,-0.125 0,-0.046875 -0.046875,-0.09375 -0.09375,-0.09375 -0.0625,0 -0.078125,0.015625 -0.140625,0.09375 L 5.5625,-4.90625 C 5.484375,-5 5.0625,-5.609375 4.140625,-5.609375 c -1.859375,0 -3.71875,1.71875 -3.71875,3.546875 0,1.390625 1.046875,2.234375 2.3125,2.234375 1.046875,0 1.9375,-0.640625 2.359375,-1.265625 0.265625,-0.390625 0.375,-0.765625 0.375,-0.8125 0,-0.078125 -0.046875,-0.109375 -0.125,-0.109375 -0.09375,0 -0.109375,0.046875 -0.125,0.125 -0.34375,1.109375 -1.421875,1.796875 -2.375,1.796875 -0.8125,0 -1.671875,-0.484375 -1.671875,-1.703125 0,-0.25 0.09375,-1.578125 0.984375,-2.578125 C 2.75,-5.046875 3.5625,-5.34375 4.1875,-5.34375 c 1.015625,0 1.421875,0.796875 1.421875,1.5625 0,0.109375 -0.03125,0.265625 -0.03125,0.359375 0,0.09375 0.109375,0.09375 0.140625,0.09375 0.09375,0 0.109375,-0.03125 0.140625,-0.171875 z m 0,0"
               style="stroke:none"
               inkscape:connector-curvature="0" /></symbol></g></defs><g
         id="lx-text5197-3-surface1"><g
           id="g5362"
           style="fill:#000000;fill-opacity:1"><use
             id="use5364"
             y="0"
             x="0"
             xlink:href="#lx-text5197-3-glyph0-1"
             width="100%"
             height="100%" /></g><g
           id="g5366"
           style="fill:#000000;fill-opacity:1"><use
             id="use5368"
             y="1.793"
             x="5.6589999"
             xlink:href="#lx-text5197-3-glyph1-1"
             width="100%"
             height="100%" /></g></g></g><g
       id="lx-text5197-7"
       transform="matrix(0.9375,0,0,0.9375,272.76554,573.79462)"><defs
         id="defs5371"><g
           id="g5373"><symbol
             id="lx-text5197-7-glyph0-0"
             overflow="visible"
             style="overflow:visible"><path
               id="path5376"
               d=""
               style="stroke:none"
               inkscape:connector-curvature="0" /></symbol><symbol
             id="lx-text5197-7-glyph0-1"
             overflow="visible"
             style="overflow:visible"><path
               id="path5379"
               d="m 3.375,-1.703125 c 0,-0.0625 -0.046875,-0.109375 -0.109375,-0.109375 -0.109375,0 -0.125,0.03125 -0.1875,0.234375 -0.3125,1.09375 -0.796875,1.453125 -1.1875,1.453125 -0.140625,0 -0.3125,-0.03125 -0.3125,-0.390625 0,-0.328125 0.140625,-0.671875 0.28125,-1.03125 L 2.6875,-3.78125 c 0.03125,-0.09375 0.125,-0.3125 0.125,-0.53125 0,-0.5 -0.359375,-0.953125 -0.953125,-0.953125 -1.09375,0 -1.53125,1.734375 -1.53125,1.828125 0,0.046875 0.046875,0.109375 0.125,0.109375 0.109375,0 0.125,-0.046875 0.171875,-0.21875 0.28125,-1 0.734375,-1.484375 1.203125,-1.484375 0.109375,0 0.3125,0.015625 0.3125,0.390625 0,0.3125 -0.15625,0.703125 -0.25,0.96875 l -0.84375,2.21875 C 0.984375,-1.25 0.90625,-1.0625 0.90625,-0.84375 c 0,0.53125 0.375,0.96875 0.953125,0.96875 1.09375,0 1.515625,-1.75 1.515625,-1.828125 z m -0.09375,-5.75 c 0,-0.1875 -0.140625,-0.40625 -0.40625,-0.40625 -0.265625,0 -0.578125,0.265625 -0.578125,0.578125 0,0.296875 0.25,0.390625 0.390625,0.390625 0.328125,0 0.59375,-0.3125 0.59375,-0.5625 z m 0,0"
               style="stroke:none"
               inkscape:connector-curvature="0" /></symbol><symbol
             id="lx-text5197-7-glyph1-0"
             overflow="visible"
             style="overflow:visible"><path
               id="path5382"
               d=""
               style="stroke:none"
               inkscape:connector-curvature="0" /></symbol><symbol
             id="lx-text5197-7-glyph1-1"
             overflow="visible"
             style="overflow:visible"><path
               id="path5385"
               d="m 6.34375,-5.390625 c 0,-0.03125 0.015625,-0.078125 0.015625,-0.125 0,-0.046875 -0.046875,-0.09375 -0.09375,-0.09375 -0.0625,0 -0.078125,0.015625 -0.140625,0.09375 L 5.5625,-4.90625 C 5.484375,-5 5.0625,-5.609375 4.140625,-5.609375 c -1.859375,0 -3.71875,1.71875 -3.71875,3.546875 0,1.390625 1.046875,2.234375 2.3125,2.234375 1.046875,0 1.9375,-0.640625 2.359375,-1.265625 0.265625,-0.390625 0.375,-0.765625 0.375,-0.8125 0,-0.078125 -0.046875,-0.109375 -0.125,-0.109375 -0.09375,0 -0.109375,0.046875 -0.125,0.125 -0.34375,1.109375 -1.421875,1.796875 -2.375,1.796875 -0.8125,0 -1.671875,-0.484375 -1.671875,-1.703125 0,-0.25 0.09375,-1.578125 0.984375,-2.578125 C 2.75,-5.046875 3.5625,-5.34375 4.1875,-5.34375 c 1.015625,0 1.421875,0.796875 1.421875,1.5625 0,0.109375 -0.03125,0.265625 -0.03125,0.359375 0,0.09375 0.109375,0.09375 0.140625,0.09375 0.09375,0 0.109375,-0.03125 0.140625,-0.171875 z m 0,0"
               style="stroke:none"
               inkscape:connector-curvature="0" /></symbol></g></defs><g
         id="lx-text5197-7-surface1"><g
           id="g5388"
           style="fill:#000000;fill-opacity:1"><use
             id="use5390"
             y="0"
             x="0"
             xlink:href="#lx-text5197-7-glyph0-1"
             width="100%"
             height="100%" /></g><g
           id="g5392"
           style="fill:#000000;fill-opacity:1"><use
             id="use5394"
             y="1.793"
             x="3.994"
             xlink:href="#lx-text5197-7-glyph1-1"
             width="100%"
             height="100%" /></g></g></g></g></svg>