<?xml version="1.0" encoding="UTF-8" standalone="no"?>
<!-- Created with Inkscape (http://www.inkscape.org/) -->

<svg
   xmlns:dc="http://purl.org/dc/elements/1.1/"
   xmlns:cc="http://creativecommons.org/ns#"
   xmlns:rdf="http://www.w3.org/1999/02/22-rdf-syntax-ns#"
   xmlns:svg="http://www.w3.org/2000/svg"
   xmlns="http://www.w3.org/2000/svg"
   xmlns:sodipodi="http://sodipodi.sourceforge.net/DTD/sodipodi-0.dtd"
   xmlns:inkscape="http://www.inkscape.org/namespaces/inkscape"
   id="svg4155"
   version="1.1"
   inkscape:version="0.91 r13725"
   xml:space="preserve"
   width="744.09497"
   height="1052.3625"
   viewBox="0 0 744.09497 1052.3625"
   sodipodi:docname="general_ac_circuit.svg"><metadata
     id="metadata4161"><rdf:RDF><cc:Work
         rdf:about=""><dc:format>image/svg+xml</dc:format><dc:type
           rdf:resource="http://purl.org/dc/dcmitype/StillImage" /><dc:title></dc:title></cc:Work></rdf:RDF></metadata><defs
     id="defs4159"><clipPath
       clipPathUnits="userSpaceOnUse"
       id="clipPath4369"><path
         d="m 0,0 359.49118,0 0,116.83636 L 0,116.83636 0,0 Z"
         id="path4371"
         inkscape:connector-curvature="0" /></clipPath><clipPath
       clipPathUnits="userSpaceOnUse"
       id="clipPath4373"><path
         d="m 0,98.856 184.184,0 0,-74.086 L 0,24.77 0,98.856 Z"
         id="path4375"
         inkscape:connector-curvature="0" /></clipPath><clipPath
       clipPathUnits="userSpaceOnUse"
       id="clipPath4377"><path
         d="M 0,0 186,0 186,117 0,117 0,0 Z"
         id="path4379"
         inkscape:connector-curvature="0" /></clipPath><clipPath
       clipPathUnits="userSpaceOnUse"
       id="clipPath4381"><path
         d="m 0,117 185.48,0 0,-117 L 0,0 0,117 Z"
         id="path4383"
         inkscape:connector-curvature="0" /></clipPath></defs><sodipodi:namedview
     pagecolor="#ffffff"
     bordercolor="#666666"
     borderopacity="1"
     objecttolerance="10"
     gridtolerance="10"
     guidetolerance="10"
     inkscape:pageopacity="0"
     inkscape:pageshadow="2"
     inkscape:window-width="1301"
     inkscape:window-height="744"
     id="namedview4157"
     showgrid="false"
     inkscape:zoom="2.3832091"
     inkscape:cx="305.25614"
     inkscape:cy="471.08092"
     inkscape:window-x="65"
     inkscape:window-y="24"
     inkscape:window-maximized="1"
     inkscape:current-layer="g4163" /><g
     id="g4163"
     inkscape:groupmode="layer"
     inkscape:label="main"
     transform="matrix(1.25,0,0,-1.25,0,1052.3625)"><text
       transform="matrix(1,0,0,-1,263.037,394.9)"
       style="font-variant:normal;font-weight:normal;font-size:11.9552002px;font-family:CMMI12;-inkscape-font-specification:CMMI12;writing-mode:lr-tb;fill:#000000;fill-opacity:1;fill-rule:nonzero;stroke:none"
       id="text4277"><tspan
         x="0"
         y="0"
         id="tspan4279">Z</tspan></text>
<text
       transform="matrix(1,0,0,-1,271.049,393.107)"
       style="font-variant:normal;font-weight:normal;font-size:7.97009993px;font-family:CMMI8;-inkscape-font-specification:CMMI8;writing-mode:lr-tb;fill:#000000;fill-opacity:1;fill-rule:nonzero;stroke:none"
       id="text4281"><tspan
         x="0"
         y="0"
         id="tspan4283">C</tspan></text>
<text
       transform="matrix(1,0,0,-1,281.467,394.9)"
       style="font-variant:normal;font-weight:normal;font-size:11.9552002px;font-family:CMR12;-inkscape-font-specification:CMR12;writing-mode:lr-tb;fill:#000000;fill-opacity:1;fill-rule:nonzero;stroke:none"
       id="text4285"><tspan
         x="0"
         y="0"
         id="tspan4287">=</tspan></text>
<text
       transform="matrix(1,0,0,-1,295.088,403.897)"
       style="font-variant:normal;font-weight:normal;font-size:11.9552002px;font-family:CMMI12;-inkscape-font-specification:CMMI12;writing-mode:lr-tb;fill:#000000;fill-opacity:1;fill-rule:nonzero;stroke:none"
       id="text4289"><tspan
         x="0"
         y="0"
         id="tspan4291">v</tspan></text>
<text
       transform="matrix(1,0,0,-1,300.747,402.103)"
       style="font-variant:normal;font-weight:normal;font-size:7.97009993px;font-family:CMMI8;-inkscape-font-specification:CMMI8;writing-mode:lr-tb;fill:#000000;fill-opacity:1;fill-rule:nonzero;stroke:none"
       id="text4293"><tspan
         x="0"
         y="0"
         id="tspan4295">C</tspan></text>
<text
       transform="matrix(1,0,0,-1,307.844,403.897)"
       style="font-variant:normal;font-weight:normal;font-size:11.9552002px;font-family:CMR12;-inkscape-font-specification:CMR12;writing-mode:lr-tb;fill:#000000;fill-opacity:1;fill-rule:nonzero;stroke:none"
       id="text4297"><tspan
         x="0"
         y="0"
         id="tspan4299">(</tspan></text>
<text
       transform="matrix(1,0,0,-1,312.396,403.897)"
       style="font-variant:normal;font-weight:normal;font-size:11.9552002px;font-family:CMMI12;-inkscape-font-specification:CMMI12;writing-mode:lr-tb;fill:#000000;fill-opacity:1;fill-rule:nonzero;stroke:none"
       id="text4301"><tspan
         x="0"
         y="0"
         id="tspan4303">t</tspan></text>
<text
       transform="matrix(1,0,0,-1,316.623,403.897)"
       style="font-variant:normal;font-weight:normal;font-size:11.9552002px;font-family:CMR12;-inkscape-font-specification:CMR12;writing-mode:lr-tb;fill:#000000;fill-opacity:1;fill-rule:nonzero;stroke:none"
       id="text4305"><tspan
         x="0"
         y="0"
         id="tspan4307">)</tspan></text>
<g
       id="g4309"
       transform="translate(295.088,397.889)"><path
         d="M 0,0 26.088,0"
         style="fill:none;stroke:#000000;stroke-width:0.47799999;stroke-linecap:butt;stroke-linejoin:miter;stroke-miterlimit:10;stroke-dasharray:none;stroke-opacity:1"
         id="path4311"
         inkscape:connector-curvature="0" /></g><text
       transform="matrix(1,0,0,-1,295.921,386.7)"
       style="font-variant:normal;font-weight:normal;font-size:11.9552002px;font-family:CMMI12;-inkscape-font-specification:CMMI12;writing-mode:lr-tb;fill:#000000;fill-opacity:1;fill-rule:nonzero;stroke:none"
       id="text4313"><tspan
         x="0"
         y="0"
         id="tspan4315">i</tspan></text>
<text
       transform="matrix(1,0,0,-1,299.914,384.906)"
       style="font-variant:normal;font-weight:normal;font-size:7.97009993px;font-family:CMMI8;-inkscape-font-specification:CMMI8;writing-mode:lr-tb;fill:#000000;fill-opacity:1;fill-rule:nonzero;stroke:none"
       id="text4317"><tspan
         x="0"
         y="0"
         id="tspan4319">C</tspan></text>
<text
       transform="matrix(1,0,0,-1,307.011,386.7)"
       style="font-variant:normal;font-weight:normal;font-size:11.9552002px;font-family:CMR12;-inkscape-font-specification:CMR12;writing-mode:lr-tb;fill:#000000;fill-opacity:1;fill-rule:nonzero;stroke:none"
       id="text4321"><tspan
         x="0"
         y="0"
         id="tspan4323">(</tspan></text>
<text
       transform="matrix(1,0,0,-1,311.563,386.7)"
       style="font-variant:normal;font-weight:normal;font-size:11.9552002px;font-family:CMMI12;-inkscape-font-specification:CMMI12;writing-mode:lr-tb;fill:#000000;fill-opacity:1;fill-rule:nonzero;stroke:none"
       id="text4325"><tspan
         x="0"
         y="0"
         id="tspan4327">t</tspan></text>
<text
       transform="matrix(1,0,0,-1,315.791,386.7)"
       style="font-variant:normal;font-weight:normal;font-size:11.9552002px;font-family:CMR12;-inkscape-font-specification:CMR12;writing-mode:lr-tb;fill:#000000;fill-opacity:1;fill-rule:nonzero;stroke:none"
       id="text4329"><tspan
         x="0"
         y="0"
         id="tspan4331">)</tspan><tspan
         x="8.7060003"
         y="-8.1999998"
         id="tspan4333">=</tspan><tspan
         x="30.634001"
         y="-17.197001"
         id="tspan4335">1</tspan></text>
<g
       id="g4337"
       transform="translate(338.118,397.889)"><path
         d="M 0,0 22.467,0"
         style="fill:none;stroke:#000000;stroke-width:0.47799999;stroke-linecap:butt;stroke-linejoin:miter;stroke-miterlimit:10;stroke-dasharray:none;stroke-opacity:1"
         id="path4339"
         inkscape:connector-curvature="0" /></g><text
       transform="matrix(1,0,0,-1,338.118,386.7)"
       style="font-variant:normal;font-weight:normal;font-size:11.9552002px;font-family:CMMI12;-inkscape-font-specification:CMMI12;writing-mode:lr-tb;fill:#000000;fill-opacity:1;fill-rule:nonzero;stroke:none"
       id="text4341"><tspan
         x="0 5.5125427 13.232016"
         y="0"
         sodipodi:role="line"
         id="tspan4343">jωC</tspan></text>
<text
       transform="matrix(1,0,0,-1,529.85,394.9)"
       style="font-variant:normal;font-weight:normal;font-size:11.9552002px;font-family:TeXGyreTermes;-inkscape-font-specification:TeXGyreTermes-Regular;writing-mode:lr-tb;fill:#000000;fill-opacity:1;fill-rule:nonzero;stroke:none"
       id="text4345"><tspan
         x="0 3.9810815 9.9586821 12.947481 18.925081"
         y="0"
         sodipodi:role="line"
         id="tspan4347">(6.1)</tspan></text>
<g
       style="stroke:#000000;stroke-width:2"
       id="g4858"
       transform="matrix(0.40963316,0,0,-0.40963316,152.43492,441.11868)"><path
         inkscape:connector-curvature="0"
         d="m 18,186 48,0"
         id="path4860" /><path
         inkscape:connector-curvature="0"
         d="m 114,186 48,0"
         id="path4862" /><path
         inkscape:connector-curvature="0"
         d="m 18,90 16,0"
         id="path4864" /><path
         inkscape:connector-curvature="0"
         d="m 50,90 16,0"
         id="path4866" /><path
         inkscape:connector-curvature="0"
         d="m 114,90 16,0"
         id="path4868" /><path
         inkscape:connector-curvature="0"
         d="m 146,90 16,0"
         id="path4870" /><path
         inkscape:connector-curvature="0"
         d="m 50,26 16,0"
         id="path4872" /><path
         inkscape:connector-curvature="0"
         d="m 114,26 16,0"
         id="path4874" /><path
         inkscape:connector-curvature="0"
         d="m 10,98 0,80"
         id="path4876" /><path
         inkscape:connector-curvature="0"
         d="m 170,98 0,16"
         id="path4878" /><path
         inkscape:connector-curvature="0"
         d="m 170,162 0,16"
         id="path4880" /><path
         inkscape:connector-curvature="0"
         d="m 138,34 0,48"
         id="path4882" /><path
         inkscape:connector-curvature="0"
         d="m 42,34 0,48"
         id="path4884" /></g><g
       transform="matrix(0.40963316,0,0,-0.40963316,-253.10191,866.3179)"
       style="font-style:italic;font-family:Serif;fill:none;stroke:#000000;stroke-width:2"
       id="g4886"><g
         style="fill:#ffffff"
         transform="translate(1056,1040)"
         id="g4888"><path
           inkscape:connector-curvature="0"
           d="m 0,24 48,0"
           id="path4890" /><circle
           style="stroke-width:3"
           cy="24"
           cx="24"
           r="16"
           id="circle4892" /></g><g
         transform="translate(1056,1104)"
         id="g4896"><path
           inkscape:connector-curvature="0"
           d="M -1,0 17,0"
           id="path4898" /></g><g
         transform="translate(1072,1104)"
         id="g4900"><path
           inkscape:connector-curvature="0"
           d="M -1,0 17,0"
           id="path4902" /></g><g
         transform="translate(1088,1104)"
         id="g4904"><path
           inkscape:connector-curvature="0"
           d="M -1,0 17,0"
           id="path4906" /></g><g
         transform="translate(1056,1152)"
         id="g4908"><path
           inkscape:connector-curvature="0"
           d="M -1,0 17,0"
           id="path4910" /></g><g
         transform="translate(1072,1152)"
         id="g4912"><path
           inkscape:connector-curvature="0"
           d="M -1,0 17,0"
           id="path4914" /></g><g
         transform="translate(1088,1152)"
         id="g4916"><path
           inkscape:connector-curvature="0"
           d="M -1,0 17,0"
           id="path4918" /></g><g
         transform="matrix(0,-1,1,0,1056,1120)"
         id="g4920"><path
           inkscape:connector-curvature="0"
           d="M -1,0 17,0"
           id="path4922" /></g><g
         transform="matrix(0,-1,1,0,1056,1136)"
         id="g4924"><path
           inkscape:connector-curvature="0"
           d="M -1,0 17,0"
           id="path4926" /></g><g
         transform="matrix(0,-1,1,0,1056,1152)"
         id="g4928"><path
           inkscape:connector-curvature="0"
           d="M -1,0 17,0"
           id="path4930" /></g><g
         transform="matrix(0,-1,1,0,1104,1120)"
         id="g4932"><path
           inkscape:connector-curvature="0"
           d="M -1,0 17,0"
           id="path4934" /></g><g
         transform="matrix(0,-1,1,0,1104,1136)"
         id="g4936"><path
           inkscape:connector-curvature="0"
           d="M -1,0 17,0"
           id="path4938" /></g><g
         transform="matrix(0,-1,1,0,1104,1152)"
         id="g4940"><path
           inkscape:connector-curvature="0"
           d="M -1,0 17,0"
           id="path4942" /></g><g
         transform="matrix(0,-1,1,0,1120,1136)"
         id="g4944"><path
           inkscape:connector-curvature="0"
           d="M 8,0 8,16"
           id="path4946" /><path
           inkscape:connector-curvature="0"
           d="m 8,8 8,0"
           id="path4948" /><circle
           style="fill:#000000;stroke:none"
           cy="8"
           cx="8"
           r="3"
           id="circle4950" /></g><g
         style="fill:#ffffff"
         transform="matrix(0,-1,1,0,1136,1200)"
         id="g4952"><path
           inkscape:connector-curvature="0"
           d="m 0,24 48,0"
           id="path4954" /><circle
           style="stroke-width:3"
           cy="24"
           cx="24"
           r="16"
           id="circle4956" /></g><g
         transform="translate(1056,1200)"
         id="g4958"><circle
           style="fill:#ffffff;stroke-width:4"
           cy="24"
           cx="24"
           r="20"
           id="circle4960" /><path
           inkscape:connector-curvature="0"
           d="m 0,24 4,0"
           id="path4962" /><path
           inkscape:connector-curvature="0"
           d="m 48,24 -4,0"
           id="path4964" /><path
           inkscape:connector-curvature="0"
           d="m 10,24 a 8,8 0 0 1 14,0 8,8 0 0 0 14,0"
           id="path4966" /></g><g
         transform="matrix(0,-1,1,0,1024,1136)"
         id="g4972"><path
           inkscape:connector-curvature="0"
           d="M 8,0 8,16"
           id="path4974" /><path
           inkscape:connector-curvature="0"
           d="m 8,8 8,0"
           id="path4976" /><circle
           style="fill:#000000;stroke:none"
           cy="8"
           cx="8"
           r="3"
           id="circle4978" /></g><g
         transform="matrix(0,-1,1,0,992,1232)"
         id="g4980"><path
           inkscape:connector-curvature="0"
           d="M 8,16 8,8 16,8"
           id="path4982" /></g><g
         transform="matrix(-1,0,0,-1,1168,1232)"
         id="g4984"><path
           inkscape:connector-curvature="0"
           d="M 8,16 8,8 16,8"
           id="path4986" /></g><g
         transform="matrix(0,1,-1,0,1168,1120)"
         id="g4988"><path
           inkscape:connector-curvature="0"
           d="M 8,16 8,8 16,8"
           id="path4990" /></g><g
         transform="matrix(0,1,-1,0,1136,1056)"
         id="g4992"><path
           inkscape:connector-curvature="0"
           d="M 8,16 8,8 16,8"
           id="path4994" /></g><g
         transform="translate(1024,1056)"
         id="g4996"><path
           inkscape:connector-curvature="0"
           d="M 8,16 8,8 16,8"
           id="path4998" /></g><g
         transform="translate(992,1120)"
         id="g5000"><path
           inkscape:connector-curvature="0"
           d="M 8,16 8,8 16,8"
           id="path5002" /></g></g></g></svg>