<?xml version="1.0" encoding="UTF-8" standalone="no"?>
<!-- Created with Inkscape (http://www.inkscape.org/) -->

<svg
   xmlns:dc="http://purl.org/dc/elements/1.1/"
   xmlns:cc="http://creativecommons.org/ns#"
   xmlns:rdf="http://www.w3.org/1999/02/22-rdf-syntax-ns#"
   xmlns:svg="http://www.w3.org/2000/svg"
   xmlns="http://www.w3.org/2000/svg"
   xmlns:sodipodi="http://sodipodi.sourceforge.net/DTD/sodipodi-0.dtd"
   xmlns:inkscape="http://www.inkscape.org/namespaces/inkscape"
   id="svg9250"
   version="1.1"
   inkscape:version="0.91 r13725"
   xml:space="preserve"
   width="496.06299"
   height="151.33337"
   viewBox="0 0 496.06299 151.33337"
   sodipodi:docname="kalibrierkurve_kuhlmann.svg"><metadata
     id="metadata9256"><rdf:RDF><cc:Work
         rdf:about=""><dc:format>image/svg+xml</dc:format><dc:type
           rdf:resource="http://purl.org/dc/dcmitype/StillImage" /><dc:title></dc:title></cc:Work></rdf:RDF></metadata><defs
     id="defs9254"><clipPath
       clipPathUnits="userSpaceOnUse"
       id="clipPath9274"><path
         d="m 121.98,575.9 348,0 0,0.12 -348,0 0,-0.12 z"
         id="path9276"
         inkscape:connector-curvature="0" /></clipPath><clipPath
       clipPathUnits="userSpaceOnUse"
       id="clipPath9284"><path
         d="m 121.98,596.3 348,0 0,0.12 -348,0 0,-0.12 z"
         id="path9286"
         inkscape:connector-curvature="0" /></clipPath><clipPath
       clipPathUnits="userSpaceOnUse"
       id="clipPath9294"><path
         d="m 121.98,616.76 348,0 0,0.12 -348,0 0,-0.12 z"
         id="path9296"
         inkscape:connector-curvature="0" /></clipPath><clipPath
       clipPathUnits="userSpaceOnUse"
       id="clipPath9304"><path
         d="m 121.98,637.22 348,0 0,0.12 -348,0 0,-0.12 z"
         id="path9306"
         inkscape:connector-curvature="0" /></clipPath><clipPath
       clipPathUnits="userSpaceOnUse"
       id="clipPath9314"><path
         d="m 121.98,657.62 348,0 0,0.12 -348,0 0,-0.12 z"
         id="path9316"
         inkscape:connector-curvature="0" /></clipPath><clipPath
       clipPathUnits="userSpaceOnUse"
       id="clipPath9324"><path
         d="m 121.98,678.14 348,0 0,0.0601 -348,0 0,-0.0601 z"
         id="path9326"
         inkscape:connector-curvature="0" /></clipPath><clipPath
       clipPathUnits="userSpaceOnUse"
       id="clipPath9334"><path
         d="m 121.98,698.6 348,0 0,0.12 -348,0 0,-0.12 z"
         id="path9336"
         inkscape:connector-curvature="0" /></clipPath><clipPath
       clipPathUnits="userSpaceOnUse"
       id="clipPath9344"><path
         d="m 121.98,719.06 348,0 0,0.12 -348,0 0,-0.12 z"
         id="path9346"
         inkscape:connector-curvature="0" /></clipPath><clipPath
       clipPathUnits="userSpaceOnUse"
       id="clipPath9354"><path
         d="m 121.98,739.46 348,0 0,0.12 -348,0 0,-0.12 z"
         id="path9356"
         inkscape:connector-curvature="0" /></clipPath><clipPath
       clipPathUnits="userSpaceOnUse"
       id="clipPath9364"><path
         d="m 121.98,759.92 348,0 0,0.12 -348,0 0,-0.12 z"
         id="path9366"
         inkscape:connector-curvature="0" /></clipPath><clipPath
       clipPathUnits="userSpaceOnUse"
       id="clipPath9374"><path
         d="m 191.58,555.5 0.12,0 0,204.48 -0.12,0 0,-204.48 z"
         id="path9376"
         inkscape:connector-curvature="0" /></clipPath><clipPath
       clipPathUnits="userSpaceOnUse"
       id="clipPath9384"><path
         d="m 261.18,555.5 0.12,0 0,204.48 -0.12,0 0,-204.48 z"
         id="path9386"
         inkscape:connector-curvature="0" /></clipPath><clipPath
       clipPathUnits="userSpaceOnUse"
       id="clipPath9394"><path
         d="m 330.78,555.5 0.12,0 0,204.48 -0.12,0 0,-204.48 z"
         id="path9396"
         inkscape:connector-curvature="0" /></clipPath><clipPath
       clipPathUnits="userSpaceOnUse"
       id="clipPath9404"><path
         d="m 400.38,555.5 0.12,0 0,204.48 -0.12,0 0,-204.48 z"
         id="path9406"
         inkscape:connector-curvature="0" /></clipPath><clipPath
       clipPathUnits="userSpaceOnUse"
       id="clipPath9414"><path
         d="m 469.98,555.5 0.12,0 0,204.48 -0.12,0 0,-204.48 z"
         id="path9416"
         inkscape:connector-curvature="0" /></clipPath><clipPath
       clipPathUnits="userSpaceOnUse"
       id="clipPath9632"><path
         d="m 187.26,560.9 13.74,0 0,7.44 -13.74,0 0,-7.44 z"
         id="path9634"
         inkscape:connector-curvature="0" /></clipPath></defs><sodipodi:namedview
     pagecolor="#ffffff"
     bordercolor="#666666"
     borderopacity="1"
     objecttolerance="10"
     gridtolerance="10"
     guidetolerance="10"
     inkscape:pageopacity="0"
     inkscape:pageshadow="2"
     inkscape:window-width="1855"
     inkscape:window-height="1176"
     id="namedview9252"
     showgrid="false"
     inkscape:zoom="1.396074"
     inkscape:cx="246.66289"
     inkscape:cy="11.071061"
     inkscape:window-x="65"
     inkscape:window-y="24"
     inkscape:window-maximized="1"
     inkscape:current-layer="g9258"
     fit-margin-top="0"
     fit-margin-left="0"
     fit-margin-right="0"
     fit-margin-bottom="0" /><g
     id="g9258"
     inkscape:groupmode="layer"
     inkscape:label="img"
     transform="matrix(1.25,0,0,-1.25,-73.875,378.38337)"><path
       d="m 59.1,181.64 396.85039,0 0,121.0667 -396.85039,0 0,-121.0667 z"
       style="fill:#ffffff;fill-opacity:1;fill-rule:nonzero;stroke:none"
       id="path9524"
       inkscape:connector-curvature="0" /><path
       d="m 97.208678,198.73052 350.514912,0 m -350.514912,11.83598 350.514912,0 m -350.514912,12.20752 350.514912,0 m -350.514912,11.88906 350.514912,0 m -350.514912,24.04349 350.514912,0 m -350.514912,12.20752 350.514912,0 m -350.514912,11.83598 350.514912,0 m -350.514912,12.20752 350.514912,0"
       style="fill:none;stroke:#000000;stroke-width:0.05307615;stroke-linecap:round;stroke-linejoin:round;stroke-miterlimit:10;stroke-dasharray:none;stroke-opacity:1"
       id="path9526"
       inkscape:connector-curvature="0" /><path
       d="m 97.208678,294.95759 350.514912,0 m 0,0 0,-96.22707 m 0,0 -350.514912,0 m 0,0 0,96.22707"
       style="fill:none;stroke:#808080;stroke-width:0.36976388;stroke-linecap:round;stroke-linejoin:round;stroke-miterlimit:10;stroke-dasharray:none;stroke-opacity:1"
       id="path9528"
       inkscape:connector-curvature="0" /><path
       d="m 97.208678,294.95759 0,-96.22707 m -1.486133,0 1.486133,0 m -1.486133,11.83598 1.486133,0 m -1.486133,12.20752 1.486133,0 m -1.486133,11.88906 1.486133,0 m -1.486133,12.20751 1.486133,0 m -1.486133,11.83598 1.486133,0 m -1.486133,12.20752 1.486133,0 m -1.486133,11.83598 1.486133,0 m -1.486133,12.20752 1.486133,0 m 0,-48.087 350.514912,0 m -350.514912,-1.1146 0,1.1146 m 4.776852,-1.1146 0,1.1146 m 4.82993,-1.1146 0,1.1146 m 4.82993,-1.1146 0,1.1146 m 5.14839,-1.1146 0,1.1146 m 4.82993,-1.1146 0,1.1146 m 4.82993,-1.1146 0,1.1146 m 4.77685,-1.1146 0,1.1146 m 4.82993,-1.1146 0,1.1146 m 4.82993,-1.1146 0,1.1146 m 5.14839,-1.1146 0,1.1146 m 4.82993,-1.1146 0,1.1146 m 4.82993,-1.1146 0,1.1146 m 4.77685,-1.1146 0,1.1146 m 4.82993,-1.1146 0,1.1146 m 4.82993,-1.1146 0,1.1146 m 4.77686,-1.1146 0,1.1146 m 5.20146,-1.1146 0,1.1146 m 4.82993,-1.1146 0,1.1146 m 4.77685,-1.1146 0,1.1146 m 4.82993,-1.1146 0,1.1146 m 4.82993,-1.1146 0,1.1146 m 4.77686,-1.1146 0,1.1146 m 5.20146,-1.1146 0,1.1146 m 4.82993,-1.1146 0,1.1146 m 4.77685,-1.1146 0,1.1146 m 4.82993,-1.1146 0,1.1146 m 4.82993,-1.1146 0,1.1146 m 4.77686,-1.1146 0,1.1146 m 4.82993,-1.1146 0,1.1146 m 5.20146,-1.1146 0,1.1146 m 4.77685,-1.1146 0,1.1146 m 4.82993,-1.1146 0,1.1146 m 4.77686,-1.1146 0,1.1146 m 4.82993,-1.1146 0,1.1146 m 4.82993,-1.1146 0,1.1146 m 4.77685,-1.1146 0,1.1146 m 5.20146,-1.1146 0,1.1146 m 4.82993,-1.1146 0,1.1146 m 4.77686,-1.1146 0,1.1146 m 4.82993,-1.1146 0,1.1146 m 4.82993,-1.1146 0,1.1146 m 4.77685,-1.1146 0,1.1146 m 5.20146,-1.1146 0,1.1146 m 4.82993,-1.1146 0,1.1146 m 4.77686,-1.1146 0,1.1146 m 4.82993,-1.1146 0,1.1146 m 4.82993,-1.1146 0,1.1146 m 4.77685,-1.1146 0,1.1146 m 4.82993,-1.1146 0,1.1146 m 5.20146,-1.1146 0,1.1146 m 4.77686,-1.1146 0,1.1146 m 4.82993,-1.1146 0,1.1146 m 4.82993,-1.1146 0,1.1146 m 4.77685,-1.1146 0,1.1146 m 4.82993,-1.1146 0,1.1146 m 5.20146,-1.1146 0,1.1146 m 4.77686,-1.1146 0,1.1146 m 4.82993,-1.1146 0,1.1146 m 4.82993,-1.1146 0,1.1146 m 4.77685,-1.1146 0,1.1146 m 4.82993,-1.1146 0,1.1146 m 4.82993,-1.1146 0,1.1146 m 5.14839,-1.1146 0,1.1146 m 4.82993,-1.1146 0,1.1146 m 4.82993,-1.1146 0,1.1146 m 4.77685,-1.1146 0,1.1146 m 4.82993,-1.1146 0,1.1146 m 4.82993,-1.1146 0,1.1146 m 5.14839,-1.1146 0,1.1146 m 4.82993,-1.1146 0,1.1146 m 4.82993,-1.1146 0,1.1146 m 4.77685,-1.1146 0,1.1146 m -350.514912,-1.48613 0,1.48613 m 14.436712,-1.48613 0,1.48613 m 14.80825,-1.48613 0,1.48613 m 14.43671,-1.48613 0,1.48613 m 14.80825,-1.48613 0,1.48613 m 14.43671,-1.48613 0,1.48613 m 14.80825,-1.48613 0,1.48613 m 14.43671,-1.48613 0,1.48613 m 14.80825,-1.48613 0,1.48613 m 14.43671,-1.48613 0,1.48613 m 14.80825,-1.48613 0,1.48613 m 14.38364,-1.48613 0,1.48613 m 14.43671,-1.48613 0,1.48613 m 14.80825,-1.48613 0,1.48613 m 14.43671,-1.48613 0,1.48613 m 14.80825,-1.48613 0,1.48613 m 14.43671,-1.48613 0,1.48613 m 14.80825,-1.48613 0,1.48613 m 14.43671,-1.48613 0,1.48613 m 14.80825,-1.48613 0,1.48613 m 14.43671,-1.48613 0,1.48613 m 14.80825,-1.48613 0,1.48613 m 14.43671,-1.48613 0,1.48613 m 14.80825,-1.48613 0,1.48613 m 14.43671,-1.48613 0,1.48613"
       style="fill:none;stroke:#000000;stroke-width:0.05307615;stroke-linecap:round;stroke-linejoin:round;stroke-miterlimit:10;stroke-dasharray:none;stroke-opacity:1"
       id="path9530"
       inkscape:connector-curvature="0" /><path
       d="m 98.323277,226.11782 0.743066,-0.37154 0.743066,0 m 0,0 0.371531,0.37154 0.68999,0.37153 m 0,0 0.74307,0 0.74306,-0.37153 m 0,0 0.37154,0 0.74306,0.37153 m 0,0 1.48614,1.48613 0.37153,0.37153 0.74307,0 0.74306,0 0.74307,0.37154 m 0,0 0.37153,0.37153 0.37153,0.74307 0,0.74306 0.37154,0.37154 m 0,0 0.37153,0 0.37153,-0.37154 0.37154,0 m 0,0 1.48613,1.48614 m 0,0 1.1146,0.74306 m 0,0 1.48613,0 m 0,0 0.37153,0.37153 0,0.74307 0.37154,1.1146 0.31845,0.37153 m 0,0 0.37154,0.31846 1.11459,0 m 0,0 1.1146,0.74307 m 0,0 1.48614,1.48613 m 0,0 0.74306,0.37153 0.37154,0.37153 m 0,0 0.37153,1.1146 0.74306,1.1146 m 0,0 0.74307,0.74307 0.74307,0.37153 m 0,0 1.1146,1.1146 m 0,0 0.74306,1.1146 0.74307,1.48613 0.37153,0.74307 0.74307,0.74306 0.74306,0.74307 0.74307,0.37153 m 0,0 0.37153,0.74307 0.74307,0.68999 m 0,0 0.68999,0.37153 0.74307,0.74307 m 0,0 0.74306,1.48613 0,0.74307 0.37153,0.37153 0.37154,0.37153 0.74306,0.37154 m 0,0 1.48614,0 m 0,0 0.37153,0.74306 0.74307,1.1146 1.48613,2.2292 m 0,0 0.37153,0.37153 0.74307,0.37154 m 0,0 0.37153,0.37153 0.37153,0.74307 0.74307,0.74306 m 0,0 0.37153,0 0.37154,-0.37153 0.37153,0 m 0,0 0.74306,0.37153 0.74307,0.74307 m 0,0 1.1146,0 m 0,0 0.31846,0.37153 0,0.37153 0.37153,0.68999 0.37153,0.37154 m 0,0 0.74307,0.37153 0.74307,0 m 0,0 1.11459,0.74307 m 0,0 1.48614,1.48613 m 0,0 0.37153,0 0.74307,-0.37153 m 0,0 0.74306,0 0.74307,0.37153 m 0,0 0.37153,0.37153 0.74307,0.37154 m 0,0 1.48613,0 m 0,0 0.74307,0.37153 0.37153,0.37153 m 0,0 1.1146,0.74307 m 0,0 0.74306,0 0.74307,0.37153 m 0,0 0.37153,0.74307 0.68999,0.37153 m 0,0 1.48614,0 m 0,0 0.37153,0.37153 0.74306,0.37154 m 0,0 0.74307,0 0.74307,-0.37154 m 0,0 0.37153,0.37154 0.74307,0.37153 m 0,0 0.74306,0 0.74307,0.37153 m 0,0 0.74306,0.74307 0.37154,0.74306 m 0,0 1.1146,0 1.48613,0 m 0,0 0.37153,0.37154 0,0.37153 0.37154,0.74307 0.37153,0.37153 m 0,0 0.74306,0.37153 0.74307,0 m 0,0 0.37153,0.37154 0.68999,0.74306 m 0,0 0.74307,0.37153 0.74307,0.31846 m 0,0 1.1146,0 m 0,0 1.48613,0.74307 m 0,0 1.1146,1.1146 m 0,0 0.37153,0.74306 0.74307,0.74307 m 0,0 1.48613,0 m 0,0 0.37153,0.74307 0.74307,0.37153 m 0,0 0.74306,0 0.74307,-0.37153 m 0,0 1.1146,1.11459 m 0,0 1.48613,0.74307 m 0,0 0.37153,0 0.37154,-0.37153 0.31845,0 m 0,0 0.37154,0.37153 0,0.74307 0.74306,1.48613 m 0,0 1.48614,0.74307 m 0,0 1.11459,0.37153 m 0,0 1.48614,0 m 0,0 0.37153,0.74306 0.74307,0.37154 m 0,0 0.74306,0 0.74307,-0.37154 m 0,0 1.1146,1.1146 m 0,0 0.74306,0.37154 0.74307,0 m 0,0 0.74307,-0.37154 0.37153,0 m 0,0 0.37153,0.37154 0.74307,0.37153 m 0,0 0.74306,-0.37153 0.74307,0 m 0,0 0.31846,0.37153 0,0.74307 0.74306,0.74306 m 0,0 0.37154,0 0.74306,-0.74306 0.37154,0 m 0,0 0.37153,0.37153 0.74307,0.37153 m 0,0 1.48613,-0.74306 m 0,0 1.1146,-0.37154 m 0,0 0.74306,0.37154 0.74307,0 0.74307,0 0.37153,-0.37154 m 0,0 0.37153,0.37154 0.74307,0 m 0,0 0.74306,-0.37154 0.37154,-0.37153 0.37153,0 0.37153,0 0,0.37153 0.74307,0.74307 m 0,0 0.74307,0 0.74306,-0.37153 m 0,0 1.06152,0 0.74307,0 0.74307,-0.37154 m 0,0 1.1146,-0.37153 m 0,0 1.48613,0 m 0,0 0.74306,0.37153 0.37154,0 m 0,0 1.1146,-0.37153 m 0,0 1.48613,-0.74307 m 0,0 0.37153,0 0,0.37154 0.37153,0.37153 0.37154,0 m 0,0 1.48613,-1.48613 m 0,0 0.37153,0 0,0.37153 0.37154,0.37153 0.37153,0 m 0,0 0.74307,-0.74306 0.37153,-0.74307 0.37153,-0.37153 m 0,0 1.06152,0 m 0,0 1.48614,-0.74307 m 0,0 0.37153,0 0.37153,0.37154 0,0.37153 0.37154,0 m 0,0 0.37153,-0.37153 0,-0.37154 0.74307,-1.1146 m 0,0 0.74306,-0.74306 0.74307,-0.37154 m 0,0 0.37153,0 0.74307,0.37154 m 0,0 1.48613,-0.74307 m 0,0 1.1146,0 m 0,0 0.37153,-0.37153 0.74307,-1.48613 0.37153,-0.37154 0.37153,-0.37153 0.74307,0 m 0,0 1.48613,-0.74307 m 0,0 1.06153,0 1.11459,0 m 0,0 1.48614,-1.48613 m 0,0 0.37153,0 0.37153,0.37153 0.37154,0 m 0,0 0.74306,-0.37153 0.74307,-0.74307 m 0,0 0.37153,-0.68999 0.74307,-1.11459 m 0,0 1.48613,-1.48614 m 0,0 0.37153,0 0,0.37154 0.74307,0 m 0,0 0.37153,-0.37154 0.37154,-0.74306 0.74306,-1.1146 m 0,0 0.74307,-0.74307 0.37153,-0.74306 m 0,0 0.37153,-0.37154 0.74307,0 m 0,0 0.74307,-0.37153 0.68999,-0.37153 m 0,0 0.37153,0 0.74306,-0.37154 0.74307,-0.37153 0.74307,-0.74307 m 0,0 0.37153,-0.74306 0.74307,-0.74307 m 0,0 0.74306,-0.37153 0.74307,0 m 0,0 1.1146,-1.1146 m 0,0 0.74306,-0.37153 0.74307,0 m 0,0 1.1146,-0.74307 1.1146,-0.74307 m 0,0 0.74306,-0.31845 0.74307,-0.37154 m 0,0 0.37153,0.37154 0.74307,0.31845 m 0,0 0.74307,-0.31845 0.74306,-0.37154 m 0,0 1.06153,0 0.74306,0 0.74307,-0.37153 m 0,0 0.37153,-0.74306 0.74307,-0.74307 m 0,0 0.74306,0 0.74307,0.37153 m 0,0 1.1146,-0.37153 m 0,0 1.1146,-0.74307 m 0,0 1.48613,-0.74306 m 0,0 0.37153,-0.37154 0.74307,-0.37153 m 0,0 1.48613,0 m 0,0 0.37153,0.37153 0.74307,0 m 0,0 1.48613,-0.74306 m 0,0 0.31846,0 0.74307,-0.37154 m 0,0 0.37153,-0.37153 0.37153,-0.74306 0.74307,-0.74307 m 0,0 0.74306,0 0.37154,0.37153 m 0,0 0.37153,-0.37153 0.74307,-0.37153 m 0,0 0.74306,0 0.74307,-0.37154 m 0,0 0.37153,-0.37153 0.74307,-0.37153 m 0,0 0.74306,-0.74307 0.74307,-1.1146 m 0,0 1.1146,-1.48613 m 0,0 1.48613,-1.48613 m 0,0 1.1146,-1.06153 m 0,0 1.48613,-1.48613 m 0,0 0.68999,-0.74306 0.37154,-0.74307 m 0,0 1.1146,-0.74307 m 0,0 1.48613,0 m 0,0 0.37153,-0.37153 0,-0.74307 0.74307,-1.48613 m 0,0 0.74306,-0.74306 0.74307,-0.37154 m 0,0 0.37153,0 0.74307,-0.37153 m 0,0 0.74306,-0.74307 0.74307,-1.1146 m 0,0 0.37153,-1.1146 0.37154,-0.74306 0.37153,-0.37153 m 0,0 0.74307,0 0.37153,0.37153 0.37153,0 m 0,0 0.74307,-0.37153 0.37153,-0.74307 m 0,0 0.37153,-0.31846 0.74307,-0.37153 m 0,0 0.74307,-0.74307 0.68999,-0.74306 m 0,0 1.1146,-1.1146 m 0,0 0.74306,-1.1146 0.37154,-0.74307 0.37153,-0.37153 0.37153,-0.37153 0.74307,0 m 0,0 1.48613,-0.74307 m 0,0 0.37153,-0.74307 0.74307,-0.74306 m 0,0 0.74307,-0.37153 0.74306,0 m 0,0 1.1146,-1.1146 m 0,0 0.37153,-1.1146 0.74307,-0.74307 m 0,0 1.48613,-0.74307 m 0,0 0.37153,-1.11459 0.74307,-0.68999 m 0,0 0.74307,-0.37154 0.68999,0 m 0,0 0.37153,-0.37153 0.74307,-0.37153 m 0,0 0.74306,0.37153 0.74307,0 m 0,0 0.37153,-0.37153 0.74307,-0.37154 m 0,0 0.37153,-0.37153 0.74307,-1.48613 0.37153,-0.37154 m 0,0 0.37153,0 0.37154,0.37154 0,0.74306 0.37153,0 m 0,0 0.37153,-0.37153 0,-0.37153 0.74307,-0.74307 m 0,0 1.48613,-0.74306 m 0,0 0.37153,-0.37154 0.74307,-0.37153 m 0,0 0.74307,0.37153 0.74306,0 m 0,0 0.37154,-0.37153 0.74306,-0.37153 1.48613,-0.74307 m 0,0 0.31846,0.37153 0.74307,0 m 0,0 0.37153,-0.37153 0.37153,0 0.74307,-0.74307 m 0,0 0.74307,0 0.37153,0.37154 m 0,0 0.37153,-0.37154 0.74307,-0.37153 m 0,0 1.48613,0 m 0,0 0.37153,0.37153 0.74307,0.37154 m 0,0 0.74307,0 0.74306,-0.37154 m 0,0 1.1146,-0.37153"
       style="fill:none;stroke:#000080;stroke-width:1.11017621;stroke-linecap:round;stroke-linejoin:round;stroke-miterlimit:10;stroke-dasharray:none;stroke-opacity:1"
       id="path9532"
       inkscape:connector-curvature="0" /><path
       d="m 353.35419,213.9103 0.74307,-0.37153 0.74306,0 0.37154,0 0.74306,0.37153 0.74307,0.37153 0.74306,0 m 0,0 1.06153,-0.37153 m 0,0 0.37153,-0.74307 0.74307,-0.37153 m 0,0 1.48613,0 m 0,0 1.1146,-0.37153 m 0,0 0.74306,-0.37153 0.74307,0 1.1146,0 1.48613,0 1.1146,0 1.1146,0 m 0,0 1.1146,-1.1146 0.37153,0 0.37154,0 0,0.37153 0.37153,0.37153 0.37153,0 0.37153,0 0.37154,-0.37153 0.31845,-0.37153 0.37154,-0.37154 m 0,0 0.37153,0 0,0.37154 0.74307,0 m 0,0 0.74306,-0.74307 0.37154,-0.74307 0.37153,0 m 0,0 0.37153,0.37154 0,0.74306 0.37154,0.74307 0.37153,0.37153 m 0,0 0.37153,0 0.37153,-0.37153 0.74307,-0.37153 0.74307,-0.37154 0.37153,0 m 0,0 0.37153,0.37154 0.74307,0.37153 m 0,0 0.74307,0 0.74306,-0.37153 m 0,0 0.37153,-0.74307 0.74307,-0.37153 m 0,0 0.74307,0 0.74306,0.37153 m 0,0 0.37154,-0.37153 0.74306,-0.37154 m 0,0 0.74307,0 0.68999,0.37154 m 0,0 0.37153,0.37153 0.74307,0 m 0,0 1.1146,-1.1146 0.37153,0 0.37153,0 0.37154,0.37153 0.37153,0.74307 m 0,0 1.1146,0 1.48613,0 m 0,0 0.37153,0.37153 0.74307,0 0.74307,0 0.74306,-0.37153 m 0,0 1.1146,0 m 0,0 1.48613,0.74307 m 0,0 0.37154,0 0.74306,-0.37154 m 0,0 0.74307,0.37154 0.68999,0 m 0,0 0.74306,-0.37154 0.37154,0 m 0,0 0.37153,0.37154 0,0.37153 0.74307,0.74307 m 0,0 0.74306,0.37153 0.74307,0 0.37153,0 0.74307,-0.37153 m 0,0 1.48613,0 m 0,0 0.37153,0.37153 0.74307,0.37153 m 0,0 1.1146,1.1146 0.37153,0 0.37154,0 0,-0.37153 0.74306,-0.74307 m 0,0 1.48613,0.74307 m 0,0 1.1146,0.74306 m 0,0 0.37154,0.37154 0.74306,0.37153 m 0,0 1.43306,0 m 0,0 1.1146,0.37153 m 0,0 0.74306,0.74307 0.74307,0.37153 m 0,0 0.37153,0.37154 0.74307,0 m 0,0 0.74307,0.74306 0.74306,0.37153 m 0,0 0.37153,0.37154 0.74307,0 m 0,0 1.48613,-0.74307 m 0,0 0.74307,0 0.37153,0.37153 m 0,0 1.1146,0.74307 m 0,0 1.48613,1.48613 m 0,0 0.37154,0 0,-0.37153 0.37153,-0.37153 0.37153,0 m 0,0 0.68999,0.37153 0.74307,0.74307 0.37153,0.37153 0.74307,0.37153 m 0,0 1.48613,0 0.37153,0 0.74307,0.37154 m 0,0 0.74307,0.68999 0.74306,0.74306 m 0,0 0.74307,0.37153 0.37153,0 1.1146,0 1.48613,0 m 0,0 0.37154,0.37154 0,0.74306 0.74306,0.74307 m 0,0 1.48613,0 1.1146,0 m 0,0 0.74307,0.37153 0.68999,0.37154 m 0,0 0.37153,0 0.74307,-0.37154 m 0,0 0.74306,0 0.74307,0.37154"
       style="fill:none;stroke:#000080;stroke-width:1.11017621;stroke-linecap:round;stroke-linejoin:round;stroke-miterlimit:10;stroke-dasharray:none;stroke-opacity:1"
       id="path9534"
       inkscape:connector-curvature="0" /><text
       transform="scale(0.99347001,-1.0065729)"
       style="font-variant:normal;font-weight:normal;font-stretch:normal;font-size:4.77984715px;font-family:Arial;-inkscape-font-specification:ArialMT;writing-mode:lr-tb;fill:#000000;fill-opacity:1;fill-rule:nonzero;stroke:none"
       id="text9536"
       x="72.89814"
       y="-196.0621"><tspan
         x="72.89814 74.393753 77.010719 78.507286 81.070724 83.687691 86.304657 88.921623 91.538589"
         y="-196.0621"
         sodipodi:role="line"
         id="tspan9538">-0,000800</tspan><tspan
         x="72.89814 74.393753 77.010719 78.507286 81.070724 83.687691 86.304657 88.921623 91.538589"
         y="-207.8736"
         sodipodi:role="line"
         id="tspan9540">-0,000600</tspan><tspan
         x="72.89814 74.393753 77.010719 78.507286 81.070724 83.687691 86.304657 88.921623 91.538589"
         y="-220.0015"
         sodipodi:role="line"
         id="tspan9542">-0,000400</tspan><tspan
         x="72.89814 74.393753 77.010719 78.507286 81.070724 83.687691 86.304657 88.921623 91.538589"
         y="-231.76039"
         sodipodi:role="line"
         id="tspan9544">-0,000200</tspan><tspan
         x="74.394234 77.0112 78.507767 81.071198 83.688164 86.30513 88.922096 91.539062"
         y="-243.88831"
         sodipodi:role="line"
         id="tspan9546">0,000000</tspan><tspan
         x="74.394234 77.0112 78.507767 81.071198 83.688164 86.30513 88.922096 91.539062"
         y="-255.6472"
         sodipodi:role="line"
         id="tspan9548">0,000200</tspan><tspan
         x="74.394234 77.0112 78.507767 81.071198 83.688164 86.30513 88.922096 91.539062"
         y="-267.77512"
         sodipodi:role="line"
         id="tspan9550">0,000400</tspan><tspan
         x="74.394234 77.0112 78.507767 81.071198 83.688164 86.30513 88.922096 91.539062"
         y="-279.53403"
         sodipodi:role="line"
         id="tspan9552">0,000600</tspan><tspan
         x="74.394234 77.0112 78.507767 81.071198 83.688164 86.30513 88.922096 91.539062"
         y="-291.66193"
         sodipodi:role="line"
         id="tspan9554">0,000800</tspan><tspan
         x="96.725677 109.76032 112.37729 124.66436 127.28133 139.19414 141.81111 154.09819 156.71515 168.62796 171.24493 183.53201 186.14897 196.93996 199.55693 202.17389 211.84305 214.46001 217.07698 226.37234 228.98932 231.60628 241.27544 243.8924 246.50937 255.80473 258.42169 261.03867 270.33405 272.95099 275.56796 285.23712 287.8541 290.47104 299.76642 302.38336 305.00037 314.66949 317.28647 319.90344 329.19882 331.81577 334.43274 344.1019 346.71884 349.33582 358.6312 361.24814 363.86514 373.53427 376.15125 378.76822 388.06357 390.68057 393.29752 402.96667 405.58362 408.20059 417.49597 420.11295 422.72989 432.39905 435.01602 437.633 446.92834 449.54535 452.16229"
         y="-236.87579"
         sodipodi:role="line"
         id="tspan9556">0153045607590105120135150165180195210225240255270285300315330345360</tspan></text>
<path
       d="m 293.0066,190.87525 25.42348,0 c 0.10615,0 0.15923,-0.10615 0.15923,-0.2123 0,-0.10616 -0.0531,-0.15923 -0.15923,-0.15923 l -25.42348,0 c -0.0531,0 -0.15922,0.0531 -0.15922,0.15923 0,0.10615 0.10615,0.2123 0.15922,0.2123 z m 25.1581,0.53076 1.48613,-0.74306 -1.48613,-0.74307"
       style="fill:#010101;fill-opacity:1;fill-rule:nonzero;stroke:none"
       id="path9566"
       inkscape:connector-curvature="0" /><path
       d="m 72.20981,280.36164 21.814298,0 0,7.05913 -21.814298,0 0,-7.05913 z"
       style="fill:#ffffff;fill-opacity:1;fill-rule:nonzero;stroke:none"
       id="path9568"
       inkscape:connector-curvature="0" /><text
       transform="scale(0.99347001,-1.0065729)"
       style="font-variant:normal;font-weight:normal;font-stretch:normal;font-size:4.77984715px;font-family:Arial;-inkscape-font-specification:ArialMT;writing-mode:lr-tb;fill:#000000;fill-opacity:1;fill-rule:nonzero;stroke:none"
       id="text9570"
       x="84.063965"
       y="-280.64041"><tspan
         x="84.063965 85.560539 88.177505 92.291039"
         y="-280.64041"
         sodipodi:role="line"
         id="tspan9572">[µm]</tspan></text>
<path
       d="m 66.849118,264.49187 0,24.62734 c 0,0.10615 0.106153,0.2123 0.212305,0.2123 0.106152,0 0.159228,-0.10615 0.159228,-0.2123 l 0,-24.62734 c 0,-0.10615 -0.05308,-0.15922 -0.159228,-0.15922 -0.106152,0 -0.212305,0.0531 -0.212305,0.15922 z m -0.530761,24.36196 0.743066,1.48613 0.743066,-1.48613"
       style="fill:#010101;fill-opacity:1;fill-rule:nonzero;stroke:none"
       id="path9574"
       inkscape:connector-curvature="0" /><path
       d="m 427.28927,237.58226 11.83598,0 0,7.00606 -11.83598,0 0,-7.00606 z"
       style="fill:#ffffff;fill-opacity:1;fill-rule:nonzero;stroke:none"
       id="path9576"
       inkscape:connector-curvature="0" /><text
       transform="scale(0.99347001,-1.0065729)"
       style="font-variant:normal;font-weight:normal;font-stretch:normal;font-size:4.77984715px;font-family:Arial;-inkscape-font-specification:ArialMT;writing-mode:lr-tb;fill:#000000;fill-opacity:1;fill-rule:nonzero;stroke:none"
       id="text9578"
       x="433.9444"
       y="-237.98212"><tspan
         x="433.9444 435.44098 437.31134"
         y="-237.98212"
         sodipodi:role="line"
         id="tspan9580">[°]</tspan></text>
<path
       d="m 70.033687,277.01785 26.007315,0 0,12.47289 -26.007315,0 0,-12.47289 z"
       style="fill:#ffffff;fill-opacity:1;fill-rule:nonzero;stroke:none"
       id="path9668"
       inkscape:connector-curvature="0" /><text
       transform="scale(1,-1)"
       style="font-variant:normal;font-weight:normal;font-stretch:normal;font-size:5.30761528px;font-family:Arial;-inkscape-font-specification:ArialMT;writing-mode:lr-tb;fill:#000000;fill-opacity:1;fill-rule:nonzero;stroke:none"
       id="text9670"
       x="77.835884"
       y="-281.37036"><tspan
         x="77.835884 79.335815 83.781471 88.227135 89.727066"
         y="-281.37036"
         sodipodi:role="line"
         id="tspan9672">[mm] </tspan></text>
<text
       xml:space="preserve"
       style="font-style:normal;font-weight:normal;font-size:10.61523056px;line-height:125%;font-family:sans-serif;letter-spacing:0px;word-spacing:0px;fill:#000000;fill-opacity:1;stroke:none;stroke-width:1px;stroke-linecap:butt;stroke-linejoin:miter;stroke-opacity:1"
       x="210.77153"
       y="-187.63472"
       id="text9674"
       sodipodi:linespacing="125%"
       transform="scale(1,-1)"><tspan
         sodipodi:role="line"
         id="tspan9676"
         x="210.77153"
         y="-187.63472">Wellenstellung</tspan></text>
<text
       xml:space="preserve"
       style="font-style:normal;font-weight:normal;font-size:10.61523056px;line-height:125%;font-family:sans-serif;letter-spacing:0px;word-spacing:0px;fill:#000000;fill-opacity:1;stroke:none;stroke-width:1px;stroke-linecap:butt;stroke-linejoin:miter;stroke-opacity:1"
       x="196.45926"
       y="69.097786"
       id="text9674-7"
       sodipodi:linespacing="125%"
       transform="matrix(0,1,1,0,0,0)"><tspan
         sodipodi:role="line"
         id="tspan9676-7"
         x="196.45926"
         y="69.097786">Abweichung</tspan></text>
</g></svg>