<?xml version="1.0" encoding="UTF-8" standalone="no"?>
<!-- Created with Inkscape (http://www.inkscape.org/) -->

<svg
   xmlns:rendltx="http://NOTSET"
   xmlns:dc="http://purl.org/dc/elements/1.1/"
   xmlns:cc="http://creativecommons.org/ns#"
   xmlns:rdf="http://www.w3.org/1999/02/22-rdf-syntax-ns#"
   xmlns:svg="http://www.w3.org/2000/svg"
   xmlns="http://www.w3.org/2000/svg"
   xmlns:xlink="http://www.w3.org/1999/xlink"
   xmlns:sodipodi="http://sodipodi.sourceforge.net/DTD/sodipodi-0.dtd"
   xmlns:inkscape="http://www.inkscape.org/namespaces/inkscape"
   id="svg4155"
   version="1.1"
   inkscape:version="0.91 r13725"
   xml:space="preserve"
   width="268.29141"
   height="134.76576"
   viewBox="0 0 268.29141 134.76576"
   sodipodi:docname="licht_interferenz_furtuna.svg"><sodipodi:namedview
     pagecolor="#ffffff"
     bordercolor="#666666"
     borderopacity="1"
     objecttolerance="10"
     gridtolerance="10"
     guidetolerance="10"
     inkscape:pageopacity="0"
     inkscape:pageshadow="2"
     inkscape:window-width="1855"
     inkscape:window-height="1176"
     id="namedview4157"
     showgrid="false"
     fit-margin-top="0"
     fit-margin-left="0"
     fit-margin-right="0"
     fit-margin-bottom="0"
     inkscape:zoom="5.584296"
     inkscape:cx="216.13161"
     inkscape:cy="75.091389"
     inkscape:window-x="65"
     inkscape:window-y="24"
     inkscape:window-maximized="1"
     inkscape:current-layer="ltx-render-layer" /><metadata
     id="metadata4161"><rdf:RDF><cc:Work
         rdf:about=""><dc:format>image/svg+xml</dc:format><dc:type
           rdf:resource="http://purl.org/dc/dcmitype/StillImage" /><dc:title></dc:title></cc:Work></rdf:RDF></metadata><defs
     id="defs4159"><clipPath
       id="clipPath4403"
       clipPathUnits="userSpaceOnUse"><path
         inkscape:connector-curvature="0"
         id="path4405"
         d="m 2884,1031.67 1,0 0,-104.002 -1,0 0,104.002 z" /></clipPath><clipPath
       id="clipPath4419"
       clipPathUnits="userSpaceOnUse"><path
         inkscape:connector-curvature="0"
         id="path4421"
         d="m 2711,1225.67 1,0 0,-104 -1,0 0,104 z" /></clipPath><clipPath
       id="clipPath4463"
       clipPathUnits="userSpaceOnUse"><path
         inkscape:connector-curvature="0"
         id="path4465"
         d="m 2603,1415.67 1,0 0,-104 -1,0 0,104 z" /></clipPath><clipPath
       id="clipPath4479"
       clipPathUnits="userSpaceOnUse"><path
         inkscape:connector-curvature="0"
         id="path4481"
         d="m 3374,1884.67 1,0 0,-104 -1,0 0,104 z" /></clipPath><clipPath
       id="clipPath4495"
       clipPathUnits="userSpaceOnUse"><path
         inkscape:connector-curvature="0"
         id="path4497"
         d="m 3136,1424.67 1,0 0,-104 -1,0 0,104 z" /></clipPath><clipPath
       id="clipPath4511"
       clipPathUnits="userSpaceOnUse"><path
         inkscape:connector-curvature="0"
         id="path4513"
         d="m 2924,1699.67 1,0 0,-104 -1,0 0,104 z" /></clipPath><clipPath
       id="clipPath4527"
       clipPathUnits="userSpaceOnUse"><path
         inkscape:connector-curvature="0"
         id="path4529"
         d="m 3467,1669.67 1,0 0,-104 -1,0 0,104 z" /></clipPath><clipPath
       id="clipPath4557"
       clipPathUnits="userSpaceOnUse"><path
         inkscape:connector-curvature="0"
         id="path4559"
         d="m 2121,1292.67 1,0 0,-104 -1,0 0,104 z" /></clipPath><clipPath
       id="clipPath4587"
       clipPathUnits="userSpaceOnUse"><path
         inkscape:connector-curvature="0"
         id="path4589"
         d="m 2491,1806.67 1,0 0,-104 -1,0 0,104 z" /></clipPath></defs><g
     transform="matrix(1.25,0,0,-1.25,-228.365,976.94086)"
     inkscape:label="img"
     inkscape:groupmode="layer"
     id="g4163"><g
       transform="scale(0.12,0.12)"
       id="g4399"><g
         id="g4401"
         clip-path="url(#clipPath4403)"><g
           id="g4407"
           transform="scale(8.33333,8.33333)" /></g></g><g
       transform="scale(0.12,0.12)"
       id="g4415"><g
         id="g4417"
         clip-path="url(#clipPath4419)"><g
           id="g4423"
           transform="scale(8.33333,8.33333)" /></g></g><g
       transform="scale(0.12,0.12)"
       id="g4459"><g
         id="g4461"
         clip-path="url(#clipPath4463)"><g
           id="g4467"
           transform="scale(8.33333,8.33333)" /></g></g><g
       transform="scale(0.12,0.12)"
       id="g4475"><g
         id="g4477"
         clip-path="url(#clipPath4479)"><g
           id="g4483"
           transform="scale(8.33333,8.33333)" /></g></g><g
       transform="scale(0.12,0.12)"
       id="g4491"><g
         id="g4493"
         clip-path="url(#clipPath4495)"><g
           id="g4499"
           transform="scale(8.33333,8.33333)" /></g></g><g
       transform="scale(0.12,0.12)"
       id="g4507"><g
         id="g4509"
         clip-path="url(#clipPath4511)"><g
           id="g4515"
           transform="scale(8.33333,8.33333)" /></g></g><g
       transform="scale(0.12,0.12)"
       id="g4523"><g
         id="g4525"
         clip-path="url(#clipPath4527)"><g
           id="g4531"
           transform="scale(8.33333,8.33333)" /></g></g><g
       transform="scale(0.12,0.12)"
       id="g4553"><g
         id="g4555"
         clip-path="url(#clipPath4557)"><g
           id="g4561"
           transform="scale(8.33333,8.33333)" /></g></g><path
       d="m 189.66514,729.77269 201.72,-0.12 c -1.56,-2.16 -2.52,-7.2 -3.36,-9.48 0.24,-2.28 0.24,-4.68 0.72,-6.96 0.24,-1.32 1.32,-3.84 1.32,-3.84 -2.88,-4.08 -0.72,-4.56 1.92,-6.84 3.72,-3.24 3.36,-2.88 5.28,-5.64 -0.36,-2.76 0.12,-5.88 -1.32,-8.28 -2.28,-3.84 -1.92,-0.24 -1.92,-3.12 l -203.4,0 c 0.12,2.52 -0.12,8.88 -0.72,11.4 -0.24,1.32 -1.44,2.4 -1.92,3.72 0.84,2.4 2.28,4.08 3.24,6.36 0.6,1.08 1.32,3.72 1.32,3.72 -0.72,11.88 -1.44,9.36 -2.88,19.08"
       style="fill:#eaeaea;fill-opacity:1;fill-rule:evenodd;stroke:none"
       id="path4345"
       inkscape:connector-curvature="0" /><path
       d="m 189.66514,729.77269 201.72,-0.12 c -1.56,-2.16 -2.52,-7.2 -3.36,-9.48 0.24,-2.28 0.24,-4.68 0.72,-6.96 0.24,-1.32 1.32,-3.84 1.32,-3.84 -2.88,-4.08 -0.72,-4.56 1.92,-6.84 3.72,-3.24 3.36,-2.88 5.28,-5.64 -0.36,-2.76 0.12,-5.88 -1.32,-8.28 -2.28,-3.84 -1.92,-0.24 -1.92,-3.12 l -203.4,0 c 0.12,2.52 -0.12,8.88 -0.72,11.4 -0.24,1.32 -1.44,2.4 -1.92,3.72 0.84,2.4 2.28,4.08 3.24,6.36 0.6,1.08 1.32,3.72 1.32,3.72 -0.72,11.88 -1.44,9.36 -2.88,19.08 z"
       style="fill:none;stroke:#000000;stroke-width:0.12;stroke-linecap:round;stroke-linejoin:round;stroke-miterlimit:10;stroke-dasharray:none;stroke-opacity:1"
       id="path4347"
       inkscape:connector-curvature="0" /><path
       d="m 182.94514,773.81269 81.84,-44.04"
       style="fill:none;stroke:#000000;stroke-width:0.50000399;stroke-linecap:round;stroke-linejoin:round;stroke-miterlimit:10;stroke-dasharray:none;stroke-opacity:1"
       id="path4349"
       inkscape:connector-curvature="0" /><path
       d="m 265.02514,781.25269 0,-3.48 c 0,-0.12 -0.12,-0.24 -0.24,-0.24 -0.12,0 -0.24,0.12 -0.24,0.24 l 0,3.48 c 0,0.12 0.12,0.24 0.24,0.24 0.12,0 0.24,-0.12 0.24,-0.24 z m 0,-5.4 0,-3.36 c 0,-0.12 -0.12,-0.24 -0.24,-0.24 -0.12,0 -0.24,0.12 -0.24,0.24 l 0,3.36 c 0,0.12 0.12,0.24 0.24,0.24 0.12,0 0.24,-0.12 0.24,-0.24 z m 0,-5.28 0,-3.48 c 0,-0.12 -0.12,-0.24 -0.24,-0.24 -0.12,0 -0.24,0.12 -0.24,0.24 l 0,3.48 c 0,0.12 0.12,0.24 0.24,0.24 0.12,0 0.24,-0.12 0.24,-0.24 z m 0,-5.4 0,-3.36 c 0,-0.12 -0.12,-0.24 -0.24,-0.24 -0.12,0 -0.24,0.12 -0.24,0.24 l 0,3.36 c 0,0.12 0.12,0.24 0.24,0.24 0.12,0 0.24,-0.12 0.24,-0.24 z m 0,-5.4 0,-3.36 c 0,-0.12 -0.12,-0.24 -0.24,-0.24 -0.12,0 -0.24,0.12 -0.24,0.24 l 0,3.36 c 0,0.24 0.12,0.24 0.24,0.24 0.12,0 0.24,0 0.24,-0.24 z m 0,-5.28 0,-3.48 c 0,-0.12 -0.12,-0.24 -0.24,-0.24 -0.12,0 -0.24,0.12 -0.24,0.24 l 0,3.48 c 0,0.12 0.12,0.24 0.24,0.24 0.12,0 0.24,-0.12 0.24,-0.24 z m 0,-5.4 0,-3.36 c 0,-0.12 -0.12,-0.24 -0.24,-0.24 -0.12,0 -0.24,0.12 -0.24,0.24 l 0,3.36 c 0,0.12 0.12,0.24 0.24,0.24 0.12,0 0.24,-0.12 0.24,-0.24 z m 0,-5.28 0,-3.48 c 0,-0.12 -0.12,-0.24 -0.24,-0.24 -0.12,0 -0.24,0.12 -0.24,0.24 l 0,3.48 c 0,0.12 0.12,0.24 0.24,0.24 0.12,0 0.24,-0.12 0.24,-0.24 z m 0,-5.4 0,-3.36 c 0,-0.24 -0.12,-0.24 -0.24,-0.24 -0.12,0 -0.24,0 -0.24,0.24 l 0,3.36 c 0,0.12 0.12,0.24 0.24,0.24 0.12,0 0.24,-0.12 0.24,-0.24 z m 0,-5.4 0,-3.36 c 0,-0.12 -0.12,-0.24 -0.24,-0.24 -0.12,0 -0.24,0.12 -0.24,0.24 l 0,3.36 c 0,0.24 0.12,0.24 0.24,0.24 0.12,0 0.24,0 0.24,-0.24 z m 0,-5.28 0,-3.48 c 0,-0.12 -0.12,-0.24 -0.24,-0.24 -0.12,0 -0.24,0.12 -0.24,0.24 l 0,3.48 c 0,0.12 0.12,0.24 0.24,0.24 0.12,0 0.24,-0.12 0.24,-0.24 z m 0,-5.4 0,-3.36 c 0,-0.12 -0.12,-0.24 -0.24,-0.24 -0.12,0 -0.24,0.12 -0.24,0.24 l 0,3.36 c 0,0.12 0.12,0.24 0.24,0.24 0.12,0 0.24,-0.12 0.24,-0.24 z m 0,-5.28 0,-3.48 c 0,-0.12 -0.12,-0.24 -0.24,-0.24 -0.12,0 -0.24,0.12 -0.24,0.24 l 0,3.48 c 0,0.12 0.12,0.24 0.24,0.24 0.12,0 0.24,-0.12 0.24,-0.24 z m 0,-5.4 0,-3.36 c 0,-0.24 -0.12,-0.24 -0.24,-0.24 -0.12,0 -0.24,0 -0.24,0.24 l 0,3.36 c 0,0.12 0.12,0.24 0.24,0.24 0.12,0 0.24,-0.12 0.24,-0.24 z m 0,-5.4 0,-3.36 c 0,-0.12 -0.12,-0.24 -0.24,-0.24 -0.12,0 -0.24,0.12 -0.24,0.24 l 0,3.36 c 0,0.24 0.12,0.24 0.24,0.24 0.12,0 0.24,0 0.24,-0.24 z m 0,-5.28 0,-3.48 c 0,-0.12 -0.12,-0.24 -0.24,-0.24 -0.12,0 -0.24,0.12 -0.24,0.24 l 0,3.48 c 0,0.12 0.12,0.24 0.24,0.24 0.12,0 0.24,-0.12 0.24,-0.24 z m 0,-5.4 0,-3.36 c 0,-0.12 -0.12,-0.24 -0.24,-0.24 -0.12,0 -0.24,0.12 -0.24,0.24 l 0,3.36 c 0,0.12 0.12,0.24 0.24,0.24 0.12,0 0.24,-0.12 0.24,-0.24 z m 0,-5.28 0,-1.08 c 0,-0.12 -0.12,-0.24 -0.24,-0.24 -0.12,0 -0.24,0.12 -0.24,0.24 l 0,1.08 c 0,0.12 0.12,0.24 0.24,0.24 0.12,0 0.24,-0.12 0.24,-0.24"
       style="fill:#000000;fill-opacity:1;fill-rule:evenodd;stroke:none"
       id="path4351"
       inkscape:connector-curvature="0" /><path
       d="m 265.02514,781.25269 0,-3.48 c 0,-0.12 -0.12,-0.24 -0.24,-0.24 -0.12,0 -0.24,0.12 -0.24,0.24 l 0,3.48 c 0,0.12 0.12,0.24 0.24,0.24 0.12,0 0.24,-0.12 0.24,-0.24 z"
       style="fill:none;stroke:#000000;stroke-width:0.12;stroke-linecap:round;stroke-linejoin:round;stroke-miterlimit:10;stroke-dasharray:none;stroke-opacity:1"
       id="path4353"
       inkscape:connector-curvature="0" /><path
       d="m 265.02514,775.85269 0,-3.36 c 0,-0.12 -0.12,-0.24 -0.24,-0.24 -0.12,0 -0.24,0.12 -0.24,0.24 l 0,3.36 c 0,0.12 0.12,0.24 0.24,0.24 0.12,0 0.24,-0.12 0.24,-0.24 z"
       style="fill:none;stroke:#000000;stroke-width:0.12;stroke-linecap:round;stroke-linejoin:round;stroke-miterlimit:10;stroke-dasharray:none;stroke-opacity:1"
       id="path4355"
       inkscape:connector-curvature="0" /><path
       d="m 265.02514,770.57269 0,-3.48 c 0,-0.12 -0.12,-0.24 -0.24,-0.24 -0.12,0 -0.24,0.12 -0.24,0.24 l 0,3.48 c 0,0.12 0.12,0.24 0.24,0.24 0.12,0 0.24,-0.12 0.24,-0.24 z"
       style="fill:none;stroke:#000000;stroke-width:0.12;stroke-linecap:round;stroke-linejoin:round;stroke-miterlimit:10;stroke-dasharray:none;stroke-opacity:1"
       id="path4357"
       inkscape:connector-curvature="0" /><path
       d="m 265.02514,765.17269 0,-3.36 c 0,-0.12 -0.12,-0.24 -0.24,-0.24 -0.12,0 -0.24,0.12 -0.24,0.24 l 0,3.36 c 0,0.12 0.12,0.24 0.24,0.24 0.12,0 0.24,-0.12 0.24,-0.24 z"
       style="fill:none;stroke:#000000;stroke-width:0.12;stroke-linecap:round;stroke-linejoin:round;stroke-miterlimit:10;stroke-dasharray:none;stroke-opacity:1"
       id="path4359"
       inkscape:connector-curvature="0" /><path
       d="m 265.02514,759.77269 0,-3.36 c 0,-0.12 -0.12,-0.24 -0.24,-0.24 -0.12,0 -0.24,0.12 -0.24,0.24 l 0,3.36 c 0,0.24 0.12,0.24 0.24,0.24 0.12,0 0.24,0 0.24,-0.24 z"
       style="fill:none;stroke:#000000;stroke-width:0.12;stroke-linecap:round;stroke-linejoin:round;stroke-miterlimit:10;stroke-dasharray:none;stroke-opacity:1"
       id="path4361"
       inkscape:connector-curvature="0" /><path
       d="m 265.02514,754.49269 0,-3.48 c 0,-0.12 -0.12,-0.24 -0.24,-0.24 -0.12,0 -0.24,0.12 -0.24,0.24 l 0,3.48 c 0,0.12 0.12,0.24 0.24,0.24 0.12,0 0.24,-0.12 0.24,-0.24 z"
       style="fill:none;stroke:#000000;stroke-width:0.12;stroke-linecap:round;stroke-linejoin:round;stroke-miterlimit:10;stroke-dasharray:none;stroke-opacity:1"
       id="path4363"
       inkscape:connector-curvature="0" /><path
       d="m 265.02514,749.09269 0,-3.36 c 0,-0.12 -0.12,-0.24 -0.24,-0.24 -0.12,0 -0.24,0.12 -0.24,0.24 l 0,3.36 c 0,0.12 0.12,0.24 0.24,0.24 0.12,0 0.24,-0.12 0.24,-0.24 z"
       style="fill:none;stroke:#000000;stroke-width:0.12;stroke-linecap:round;stroke-linejoin:round;stroke-miterlimit:10;stroke-dasharray:none;stroke-opacity:1"
       id="path4365"
       inkscape:connector-curvature="0" /><path
       d="m 265.02514,743.81269 0,-3.48 c 0,-0.12 -0.12,-0.24 -0.24,-0.24 -0.12,0 -0.24,0.12 -0.24,0.24 l 0,3.48 c 0,0.12 0.12,0.24 0.24,0.24 0.12,0 0.24,-0.12 0.24,-0.24 z"
       style="fill:none;stroke:#000000;stroke-width:0.12;stroke-linecap:round;stroke-linejoin:round;stroke-miterlimit:10;stroke-dasharray:none;stroke-opacity:1"
       id="path4367"
       inkscape:connector-curvature="0" /><path
       d="m 265.02514,738.41269 0,-3.36 c 0,-0.24 -0.12,-0.24 -0.24,-0.24 -0.12,0 -0.24,0 -0.24,0.24 l 0,3.36 c 0,0.12 0.12,0.24 0.24,0.24 0.12,0 0.24,-0.12 0.24,-0.24 z"
       style="fill:none;stroke:#000000;stroke-width:0.12;stroke-linecap:round;stroke-linejoin:round;stroke-miterlimit:10;stroke-dasharray:none;stroke-opacity:1"
       id="path4369"
       inkscape:connector-curvature="0" /><path
       d="m 265.02514,733.01269 0,-3.36 c 0,-0.12 -0.12,-0.24 -0.24,-0.24 -0.12,0 -0.24,0.12 -0.24,0.24 l 0,3.36 c 0,0.24 0.12,0.24 0.24,0.24 0.12,0 0.24,0 0.24,-0.24 z"
       style="fill:none;stroke:#000000;stroke-width:0.12;stroke-linecap:round;stroke-linejoin:round;stroke-miterlimit:10;stroke-dasharray:none;stroke-opacity:1"
       id="path4371"
       inkscape:connector-curvature="0" /><path
       d="m 265.02514,727.73269 0,-3.48 c 0,-0.12 -0.12,-0.24 -0.24,-0.24 -0.12,0 -0.24,0.12 -0.24,0.24 l 0,3.48 c 0,0.12 0.12,0.24 0.24,0.24 0.12,0 0.24,-0.12 0.24,-0.24 z"
       style="fill:none;stroke:#000000;stroke-width:0.12;stroke-linecap:round;stroke-linejoin:round;stroke-miterlimit:10;stroke-dasharray:none;stroke-opacity:1"
       id="path4373"
       inkscape:connector-curvature="0" /><path
       d="m 265.02514,722.33269 0,-3.36 c 0,-0.12 -0.12,-0.24 -0.24,-0.24 -0.12,0 -0.24,0.12 -0.24,0.24 l 0,3.36 c 0,0.12 0.12,0.24 0.24,0.24 0.12,0 0.24,-0.12 0.24,-0.24 z"
       style="fill:none;stroke:#000000;stroke-width:0.12;stroke-linecap:round;stroke-linejoin:round;stroke-miterlimit:10;stroke-dasharray:none;stroke-opacity:1"
       id="path4375"
       inkscape:connector-curvature="0" /><path
       d="m 265.02514,717.05269 0,-3.48 c 0,-0.12 -0.12,-0.24 -0.24,-0.24 -0.12,0 -0.24,0.12 -0.24,0.24 l 0,3.48 c 0,0.12 0.12,0.24 0.24,0.24 0.12,0 0.24,-0.12 0.24,-0.24 z"
       style="fill:none;stroke:#000000;stroke-width:0.12;stroke-linecap:round;stroke-linejoin:round;stroke-miterlimit:10;stroke-dasharray:none;stroke-opacity:1"
       id="path4377"
       inkscape:connector-curvature="0" /><path
       d="m 265.02514,711.65269 0,-3.36 c 0,-0.24 -0.12,-0.24 -0.24,-0.24 -0.12,0 -0.24,0 -0.24,0.24 l 0,3.36 c 0,0.12 0.12,0.24 0.24,0.24 0.12,0 0.24,-0.12 0.24,-0.24 z"
       style="fill:none;stroke:#000000;stroke-width:0.12;stroke-linecap:round;stroke-linejoin:round;stroke-miterlimit:10;stroke-dasharray:none;stroke-opacity:1"
       id="path4379"
       inkscape:connector-curvature="0" /><path
       d="m 265.02514,706.25269 0,-3.36 c 0,-0.12 -0.12,-0.24 -0.24,-0.24 -0.12,0 -0.24,0.12 -0.24,0.24 l 0,3.36 c 0,0.24 0.12,0.24 0.24,0.24 0.12,0 0.24,0 0.24,-0.24 z"
       style="fill:none;stroke:#000000;stroke-width:0.12;stroke-linecap:round;stroke-linejoin:round;stroke-miterlimit:10;stroke-dasharray:none;stroke-opacity:1"
       id="path4381"
       inkscape:connector-curvature="0" /><path
       d="m 265.02514,700.97269 0,-3.48 c 0,-0.12 -0.12,-0.24 -0.24,-0.24 -0.12,0 -0.24,0.12 -0.24,0.24 l 0,3.48 c 0,0.12 0.12,0.24 0.24,0.24 0.12,0 0.24,-0.12 0.24,-0.24 z"
       style="fill:none;stroke:#000000;stroke-width:0.12;stroke-linecap:round;stroke-linejoin:round;stroke-miterlimit:10;stroke-dasharray:none;stroke-opacity:1"
       id="path4383"
       inkscape:connector-curvature="0" /><path
       d="m 265.02514,695.57269 0,-3.36 c 0,-0.12 -0.12,-0.24 -0.24,-0.24 -0.12,0 -0.24,0.12 -0.24,0.24 l 0,3.36 c 0,0.12 0.12,0.24 0.24,0.24 0.12,0 0.24,-0.12 0.24,-0.24 z"
       style="fill:none;stroke:#000000;stroke-width:0.12;stroke-linecap:round;stroke-linejoin:round;stroke-miterlimit:10;stroke-dasharray:none;stroke-opacity:1"
       id="path4385"
       inkscape:connector-curvature="0" /><path
       d="m 265.02514,690.29269 0,-1.08 c 0,-0.12 -0.12,-0.24 -0.24,-0.24 -0.12,0 -0.24,0.12 -0.24,0.24 l 0,1.08 c 0,0.12 0.12,0.24 0.24,0.24 0.12,0 0.24,-0.12 0.24,-0.24 z"
       style="fill:none;stroke:#000000;stroke-width:0.12;stroke-linecap:round;stroke-linejoin:round;stroke-miterlimit:10;stroke-dasharray:none;stroke-opacity:1"
       id="path4387"
       inkscape:connector-curvature="0" /><path
       d="m 264.78514,762.77269 c -1.56,0.36 -3.12,0.36 -4.8,0.36 -10.8,0 -20.64,-5.76 -26.16,-15.12"
       style="fill:none;stroke:#000000;stroke-width:0.50000399;stroke-linecap:round;stroke-linejoin:round;stroke-miterlimit:10;stroke-dasharray:none;stroke-opacity:1"
       id="path4389"
       inkscape:connector-curvature="0" /><path
       d="m 264.90514,706.49269 c 3.84,0 7.44,1.2 10.44,3.36"
       style="fill:none;stroke:#000000;stroke-width:0.50000399;stroke-linecap:round;stroke-linejoin:round;stroke-miterlimit:10;stroke-dasharray:none;stroke-opacity:1"
       id="path4391"
       inkscape:connector-curvature="0" /><path
       d="m 346.62514,773.81269 -81.84,-44.04"
       style="fill:none;stroke:#000000;stroke-width:0.50000399;stroke-linecap:round;stroke-linejoin:round;stroke-miterlimit:10;stroke-dasharray:none;stroke-opacity:1"
       id="path4431"
       inkscape:connector-curvature="0" /><path
       d="m 264.78514,729.77269 26.16,-45.36"
       style="fill:none;stroke:#000000;stroke-width:0.50000399;stroke-linecap:round;stroke-linejoin:round;stroke-miterlimit:10;stroke-dasharray:none;stroke-opacity:1"
       id="path4433"
       inkscape:connector-curvature="0" /><path
       d="m 316.98514,729.77269 -26.04,-45.36"
       style="fill:none;stroke:#000000;stroke-width:0.50000399;stroke-linecap:round;stroke-linejoin:round;stroke-miterlimit:10;stroke-dasharray:none;stroke-opacity:1"
       id="path4435"
       inkscape:connector-curvature="0" /><path
       d="m 264.78514,729.77269 25.8,-45.12"
       style="fill:none;stroke:#000000;stroke-width:0.50000399;stroke-linecap:round;stroke-linejoin:round;stroke-miterlimit:10;stroke-dasharray:none;stroke-opacity:1"
       id="path4437"
       inkscape:connector-curvature="0" /><path
       d="m 355.38514,751.13269 -38.52,-21.36"
       style="fill:none;stroke:#000000;stroke-width:0.50000399;stroke-linecap:round;stroke-linejoin:round;stroke-miterlimit:10;stroke-dasharray:none;stroke-opacity:1"
       id="path4439"
       inkscape:connector-curvature="0" /><path
       d="m 316.02514,730.01269 -1.68,3 c -0.12,0.12 0,0.24 0.12,0.36 0.12,0 0.24,0 0.24,-0.12 l 1.68,-3 c 0.12,-0.12 0.12,-0.24 0,-0.36 -0.12,0 -0.36,0 -0.36,0.12 z m -2.64,4.68 -1.68,3 c -0.12,0.12 0,0.24 0.12,0.24 0.12,0.12 0.24,0.12 0.24,0 l 1.68,-3 c 0.12,-0.12 0.12,-0.24 0,-0.36 -0.12,0 -0.36,0 -0.36,0.12 z m -2.64,4.68 -1.68,3 c -0.12,0.12 0,0.24 0.12,0.24 0.12,0.12 0.24,0.12 0.24,0 l 1.68,-3 c 0.12,-0.12 0.12,-0.24 0,-0.36 -0.12,0 -0.36,0 -0.36,0.12 z m -2.64,4.68 -1.68,2.88 c -0.12,0.12 0,0.36 0.12,0.36 0,0.12 0.24,0 0.24,-0.12 l 1.68,-2.88 c 0.12,-0.12 0.12,-0.36 0,-0.36 -0.12,-0.12 -0.36,0 -0.36,0.12 z m -2.64,4.68 -1.08,1.8 c -0.12,0.12 0,0.36 0.12,0.36 0.12,0.12 0.24,0 0.24,-0.12 l 1.08,-1.92 c 0.12,-0.12 0.12,-0.24 0,-0.24 -0.12,-0.12 -0.36,0 -0.36,0.12"
       style="fill:#000000;fill-opacity:1;fill-rule:evenodd;stroke:none"
       id="path4441"
       inkscape:connector-curvature="0" /><path
       d="m 316.02514,730.01269 -1.68,3 c -0.12,0.12 0,0.24 0.12,0.36 0.12,0 0.24,0 0.24,-0.12 l 1.68,-3 c 0.12,-0.12 0.12,-0.24 0,-0.36 -0.12,0 -0.36,0 -0.36,0.12 z"
       style="fill:none;stroke:#000000;stroke-width:0.12;stroke-linecap:round;stroke-linejoin:round;stroke-miterlimit:10;stroke-dasharray:none;stroke-opacity:1"
       id="path4443"
       inkscape:connector-curvature="0" /><path
       d="m 313.38514,734.69269 -1.68,3 c -0.12,0.12 0,0.24 0.12,0.24 0.12,0.12 0.24,0.12 0.24,0 l 1.68,-3 c 0.12,-0.12 0.12,-0.24 0,-0.36 -0.12,0 -0.36,0 -0.36,0.12 z"
       style="fill:none;stroke:#000000;stroke-width:0.12;stroke-linecap:round;stroke-linejoin:round;stroke-miterlimit:10;stroke-dasharray:none;stroke-opacity:1"
       id="path4445"
       inkscape:connector-curvature="0" /><path
       d="m 310.74514,739.37269 -1.68,3 c -0.12,0.12 0,0.24 0.12,0.24 0.12,0.12 0.24,0.12 0.24,0 l 1.68,-3 c 0.12,-0.12 0.12,-0.24 0,-0.36 -0.12,0 -0.36,0 -0.36,0.12 z"
       style="fill:none;stroke:#000000;stroke-width:0.12;stroke-linecap:round;stroke-linejoin:round;stroke-miterlimit:10;stroke-dasharray:none;stroke-opacity:1"
       id="path4447"
       inkscape:connector-curvature="0" /><path
       d="m 308.10514,744.05269 -1.68,2.88 c -0.12,0.12 0,0.36 0.12,0.36 0,0.12 0.24,0 0.24,-0.12 l 1.68,-2.88 c 0.12,-0.12 0.12,-0.36 0,-0.36 -0.12,-0.12 -0.36,0 -0.36,0.12 z"
       style="fill:none;stroke:#000000;stroke-width:0.12;stroke-linecap:round;stroke-linejoin:round;stroke-miterlimit:10;stroke-dasharray:none;stroke-opacity:1"
       id="path4449"
       inkscape:connector-curvature="0" /><path
       d="m 305.46514,748.73269 -1.08,1.8 c -0.12,0.12 0,0.36 0.12,0.36 0.12,0.12 0.24,0 0.24,-0.12 l 1.08,-1.92 c 0.12,-0.12 0.12,-0.24 0,-0.24 -0.12,-0.12 -0.36,0 -0.36,0.12 z"
       style="fill:none;stroke:#000000;stroke-width:0.12;stroke-linecap:round;stroke-linejoin:round;stroke-miterlimit:10;stroke-dasharray:none;stroke-opacity:1"
       id="path4451"
       inkscape:connector-curvature="0" /><path
       d="m 210.90514,726.89269 0,-40.2 c 0,-0.12 -0.12,-0.36 -0.36,-0.36 -0.12,0 -0.24,0.24 -0.24,0.36 l 0,40.2 c 0,0.12 0.12,0.36 0.24,0.36 0.24,0 0.36,-0.24 0.36,-0.36 z m -0.36,0 -1.2,-1.32 1.2,3.96 1.32,-3.96 -1.32,1.32 z m 0,-40.2 1.32,1.32 -1.32,-3.84 -1.2,3.84 1.2,-1.32"
       style="fill:#000000;fill-opacity:1;fill-rule:evenodd;stroke:none"
       id="path4539"
       inkscape:connector-curvature="0" /><path
       d="m 210.90514,726.89269 0,-40.2 c 0,-0.12 -0.12,-0.36 -0.36,-0.36 -0.12,0 -0.24,0.24 -0.24,0.36 l 0,40.2 c 0,0.12 0.12,0.36 0.24,0.36 0.24,0 0.36,-0.24 0.36,-0.36 z"
       style="fill:none;stroke:#000000;stroke-width:0.12;stroke-linecap:round;stroke-linejoin:round;stroke-miterlimit:10;stroke-dasharray:none;stroke-opacity:1"
       id="path4541"
       inkscape:connector-curvature="0" /><path
       d="m 210.54514,726.89269 -1.2,-1.32 1.2,3.96 1.32,-3.96 -1.32,1.32 z"
       style="fill:none;stroke:#000000;stroke-width:0.12;stroke-linecap:round;stroke-linejoin:round;stroke-miterlimit:10;stroke-dasharray:none;stroke-opacity:1"
       id="path4543"
       inkscape:connector-curvature="0" /><path
       d="m 210.54514,686.69269 1.32,1.32 -1.32,-3.84 -1.2,3.84 1.2,-1.32 z"
       style="fill:none;stroke:#000000;stroke-width:0.12;stroke-linecap:round;stroke-linejoin:round;stroke-miterlimit:10;stroke-dasharray:none;stroke-opacity:1"
       id="path4545"
       inkscape:connector-curvature="0" /><path
       d="m 190.86514,729.77269 199.44,0"
       style="fill:none;stroke:#000000;stroke-width:0.75;stroke-linecap:round;stroke-linejoin:round;stroke-miterlimit:10;stroke-dasharray:none;stroke-opacity:1"
       id="path4563"
       inkscape:connector-curvature="0" /><path
       d="m 227.79888,749.7454 6.83371,-3.72188 -0.004,-0.11993 -0.12414,-0.11572 -6.83371,3.72188 0.004,0.11993 0.12413,0.11572 z m 7.29867,-0.73635 3.89238,-5.4198 -6.71587,0.23561"
       style="fill:#000000;fill-opacity:1;fill-rule:nonzero;stroke:none"
       id="path4565"
       inkscape:connector-curvature="0" /><path
       d="m 284.9477,740.9202 6.79906,3.78481 0.1252,-0.11457 0.005,-0.11988 -6.79906,-3.78481 -0.1252,0.11457 -0.005,0.11988 z m 4.55084,5.72715 6.71341,0.29759 -3.84218,-5.4555"
       style="fill:#000000;fill-opacity:1;fill-rule:nonzero;stroke:none"
       id="path4567"
       inkscape:connector-curvature="0" /><path
       d="m 276.21452,710.03437 5.79567,-9.8432 -0.005,-0.23995 -0.23995,0.005 -5.79316,9.96318 0.12498,0.23744 0.11747,-0.12248 z m 7.76287,-7.6038 0.45951,-6.73107 -5.68355,3.71953"
       style="fill:#000000;fill-opacity:1;fill-rule:nonzero;stroke:none"
       id="path4569"
       inkscape:connector-curvature="0" /><path
       d="m 298.87772,698.79888 2.54577,4.63973 0.23053,0.13732 0.24817,-0.10203 0.24818,-0.10203 -0.0932,-0.36785 -2.55459,-4.52005 -0.23053,-0.13732 -0.23935,-0.0177 -0.257,0.22171 0.10203,0.24817 z m -0.25087,5.03519 5.61705,3.78321 -0.34366,-6.76357"
       style="fill:#000000;fill-opacity:1;fill-rule:nonzero;stroke:none"
       id="path4571"
       inkscape:connector-curvature="0" /><path
       d="m 190.86514,684.65269 202.32,0"
       style="fill:none;stroke:#000000;stroke-width:0.99999595;stroke-linecap:butt;stroke-linejoin:round;stroke-miterlimit:10;stroke-dasharray:none;stroke-opacity:1"
       id="path4573"
       inkscape:connector-curvature="0" /><path
       d="m 336.18219,740.73043 1.18123,0.63616 0.11996,0.004 0.007,-0.2399 -1.18123,-0.63615 -0.24355,0.11262 0.11631,0.12359 z m -1.04336,2.72958 6.71691,0.20403 -3.91417,-5.52138"
       style="fill:#000000;fill-opacity:1;fill-rule:nonzero;stroke:none"
       id="path4575"
       inkscape:connector-curvature="0" /><g
       transform="scale(0.12,0.12)"
       id="g4583"><g
         id="g4585"
         clip-path="url(#clipPath4587)"><g
           id="g4591"
           transform="scale(8.33333,8.33333)" /></g></g></g><g
     transform="translate(5.9341564e-7,-1.4805775)"
     inkscape:label="text"
     id="layer1"
     inkscape:groupmode="layer"
     style="display:none"><text
       sodipodi:linespacing="125%"
       id="text5233"
       y="11.901406"
       x="62.80558"
       style="font-style:normal;font-weight:normal;font-size:15px;line-height:125%;font-family:sans-serif;letter-spacing:0px;word-spacing:0px;fill:#000000;fill-opacity:1;stroke:none;stroke-width:1px;stroke-linecap:butt;stroke-linejoin:miter;stroke-opacity:1"
       xml:space="preserve"><tspan
         y="11.901406"
         x="62.80558"
         id="tspan5235"
         sodipodi:role="line">$\theta$</tspan></text>
<text
       sodipodi:linespacing="125%"
       id="text5237"
       y="11.901405"
       x="189.17648"
       style="font-style:normal;font-weight:normal;font-size:15px;line-height:125%;font-family:sans-serif;letter-spacing:0px;word-spacing:0px;fill:#000000;fill-opacity:1;stroke:none;stroke-width:1px;stroke-linecap:butt;stroke-linejoin:miter;stroke-opacity:1"
       xml:space="preserve"><tspan
         y="11.901405"
         x="189.17648"
         id="tspan5239"
         sodipodi:role="line">F</tspan></text>
<text
       sodipodi:linespacing="125%"
       id="text5241"
       y="36.213245"
       x="208.42336"
       style="font-style:normal;font-weight:normal;font-size:15px;line-height:125%;font-family:sans-serif;letter-spacing:0px;word-spacing:0px;fill:#000000;fill-opacity:1;stroke:none;stroke-width:1px;stroke-linecap:butt;stroke-linejoin:miter;stroke-opacity:1"
       xml:space="preserve"><tspan
         y="36.213245"
         x="208.42336"
         id="tspan5243"
         sodipodi:role="line">F'</tspan></text>
<text
       sodipodi:linespacing="125%"
       id="text5245"
       y="35.706749"
       x="140.29956"
       style="font-style:normal;font-weight:normal;font-size:15px;line-height:125%;font-family:sans-serif;letter-spacing:0px;word-spacing:0px;fill:#000000;fill-opacity:1;stroke:none;stroke-width:1px;stroke-linecap:butt;stroke-linejoin:miter;stroke-opacity:1"
       xml:space="preserve"><tspan
         y="35.706749"
         x="140.29956"
         id="tspan5247"
         sodipodi:role="line">D</tspan></text>
<text
       sodipodi:linespacing="125%"
       id="text5249"
       y="81.797943"
       x="167.65039"
       style="font-style:normal;font-weight:normal;font-size:15px;line-height:125%;font-family:sans-serif;letter-spacing:0px;word-spacing:0px;fill:#000000;fill-opacity:1;stroke:none;stroke-width:1px;stroke-linecap:butt;stroke-linejoin:miter;stroke-opacity:1"
       xml:space="preserve"><tspan
         y="81.797943"
         x="167.65039"
         id="tspan5251"
         sodipodi:role="line">C</tspan></text>
<text
       sodipodi:linespacing="125%"
       id="text5253"
       y="136.24634"
       x="133.20862"
       style="font-style:normal;font-weight:normal;font-size:15px;line-height:125%;font-family:sans-serif;letter-spacing:0px;word-spacing:0px;fill:#000000;fill-opacity:1;stroke:none;stroke-width:1px;stroke-linecap:butt;stroke-linejoin:miter;stroke-opacity:1"
       xml:space="preserve"><tspan
         y="136.24634"
         x="133.20862"
         id="tspan5255"
         sodipodi:role="line">B</tspan></text>
<text
       sodipodi:linespacing="125%"
       id="text5257"
       y="80.27845"
       x="86.610924"
       style="font-style:normal;font-weight:normal;font-size:15px;line-height:125%;font-family:sans-serif;letter-spacing:0px;word-spacing:0px;fill:#000000;fill-opacity:1;stroke:none;stroke-width:1px;stroke-linecap:butt;stroke-linejoin:miter;stroke-opacity:1"
       xml:space="preserve"><tspan
         y="80.27845"
         x="86.610924"
         id="tspan5259"
         sodipodi:role="line">A</tspan></text>
<text
       sodipodi:linespacing="125%"
       id="text5261"
       y="100.53831"
       x="20.006617"
       style="font-style:normal;font-weight:normal;font-size:15px;line-height:125%;font-family:sans-serif;letter-spacing:0px;word-spacing:0px;fill:#000000;fill-opacity:1;stroke:none;stroke-width:1px;stroke-linecap:butt;stroke-linejoin:miter;stroke-opacity:1"
       xml:space="preserve"><tspan
         y="100.53831"
         x="20.006617"
         id="tspan5263"
         sodipodi:role="line">h</tspan></text>
<text
       sodipodi:linespacing="125%"
       id="text5265"
       y="110.92149"
       x="88.383659"
       style="font-style:normal;font-weight:normal;font-size:15px;line-height:125%;font-family:sans-serif;letter-spacing:0px;word-spacing:0px;fill:#000000;fill-opacity:1;stroke:none;stroke-width:1px;stroke-linecap:butt;stroke-linejoin:miter;stroke-opacity:1"
       xml:space="preserve"><tspan
         y="110.92149"
         x="88.383659"
         id="tspan5267"
         sodipodi:role="line">$\theta'$</tspan></text>
<text
       sodipodi:linespacing="125%"
       id="text6819"
       y="59.005604"
       x="218.5533"
       style="font-style:normal;font-weight:normal;font-size:15px;line-height:125%;font-family:sans-serif;letter-spacing:0px;word-spacing:0px;fill:#000000;fill-opacity:1;stroke:none;stroke-width:1px;stroke-linecap:butt;stroke-linejoin:miter;stroke-opacity:1"
       xml:space="preserve"><tspan
         y="59.005604"
         x="218.5533"
         id="tspan6821"
         sodipodi:role="line">$n_1$</tspan></text>
<text
       sodipodi:linespacing="125%"
       id="text6823"
       y="115.47998"
       x="215.51431"
       style="font-style:normal;font-weight:normal;font-size:15px;line-height:125%;font-family:sans-serif;letter-spacing:0px;word-spacing:0px;fill:#000000;fill-opacity:1;stroke:none;stroke-width:1px;stroke-linecap:butt;stroke-linejoin:miter;stroke-opacity:1"
       xml:space="preserve"><tspan
         y="115.47998"
         x="215.51431"
         id="tspan6825"
         sodipodi:role="line">$n_2$</tspan></text>
</g><g
     transform="translate(5.9341564e-7,-1.4805775)"
     rendltx:math="False"
     rendltx:newline="False"
     rendltx:fontsize="12"
     rendltx:depth="0"
     rendltx:scale="1.0"
     rendltx:preamble="preamble.tex"
     id="ltx-render-layer"
     inkscape:groupmode="layer"
     inkscape:label="Rendered Latex"
     style="display:inline"><g
       id="lx-text5233"
       transform="matrix(1.25,0,0,1.25,73.012775,25.511)"><defs
         id="defs6948"><g
           id="g6950"><symbol
             id="lx-text5233-glyph0-0"
             overflow="visible"
             style="overflow:visible"><path
               id="path6953"
               d=""
               style="stroke:none"
               inkscape:connector-curvature="0" /></symbol><symbol
             id="lx-text5233-glyph0-1"
             overflow="visible"
             style="overflow:visible"><path
               id="path6956"
               d="m 5.296875,-6.015625 c 0,-1.21875 -0.390625,-2.40625 -1.359375,-2.40625 -1.671875,0 -3.453125,3.515625 -3.453125,6.140625 0,0.546875 0.109375,2.40625 1.375,2.40625 1.625,0 3.4375,-3.421875 3.4375,-6.140625 z m -3.625,1.6875 c 0.1875,-0.703125 0.4375,-1.703125 0.90625,-2.5625 0.390625,-0.71875 0.8125,-1.28125 1.34375,-1.28125 0.390625,0 0.65625,0.328125 0.65625,1.484375 0,0.421875 -0.03125,1.015625 -0.375,2.359375 z m 2.4375,0.359375 C 3.8125,-2.796875 3.5625,-2.046875 3.125,-1.296875 2.78125,-0.6875 2.359375,-0.125 1.859375,-0.125 1.5,-0.125 1.1875,-0.40625 1.1875,-1.59375 c 0,-0.765625 0.203125,-1.578125 0.390625,-2.375 z m 0,0"
               style="stroke:none"
               inkscape:connector-curvature="0" /></symbol></g></defs><g
         id="lx-text5233-surface1"><g
           id="g6959"
           style="fill:#000000;fill-opacity:1"><use
             id="use6961"
             y="0"
             x="0"
             xlink:href="#lx-text5233-glyph0-1"
             width="100%"
             height="100%" /></g></g></g><g
       id="lx-text5237"
       transform="matrix(1.25,0,0,1.25,189.17648,11.901405)"><defs
         id="defs6964"><g
           id="g6966"><symbol
             id="lx-text5237-glyph0-0"
             overflow="visible"
             style="overflow:visible"><path
               id="path6969"
               d=""
               style="stroke:none"
               inkscape:connector-curvature="0" /></symbol><symbol
             id="lx-text5237-glyph0-1"
             overflow="visible"
             style="overflow:visible"><path
               id="path6972"
               d="m 6.53125,-6.203125 -0.046875,-1.703125 -6.34375,0 0,0.21875 C 1.03125,-7.609375 1.1875,-7.453125 1.1875,-6.609375 l 0,5.171875 c 0,1 -0.140625,1.15625 -1.046875,1.203125 l 0,0.234375 3.34375,0 0,-0.234375 C 2.5625,-0.28125 2.40625,-0.4375 2.40625,-1.296875 l 0,-2.609375 1.734375,0 c 0.96875,0 1.171875,0.171875 1.3125,1.140625 l 0.265625,0 0,-2.765625 -0.265625,0 c -0.140625,0.953125 -0.359375,1.125 -1.3125,1.125 l -1.734375,0 0,-2.640625 c 0,-0.34375 0.0625,-0.40625 0.375,-0.40625 l 1.625,0 c 1.359375,0 1.625,0.171875 1.828125,1.25 z m 0,0"
               style="stroke:none"
               inkscape:connector-curvature="0" /></symbol></g></defs><g
         id="lx-text5237-surface1"><g
           id="g6975"
           style="fill:#000000;fill-opacity:1"><use
             id="use6977"
             y="0"
             x="0"
             xlink:href="#lx-text5237-glyph0-1"
             width="100%"
             height="100%" /></g></g></g><g
       id="lx-text5241"
       transform="matrix(1.25,0,0,1.25,208.42336,36.213245)"><defs
         id="defs6980"><g
           id="g6982"><symbol
             id="lx-text5241-glyph0-0"
             overflow="visible"
             style="overflow:visible"><path
               id="path6985"
               d=""
               style="stroke:none"
               inkscape:connector-curvature="0" /></symbol><symbol
             id="lx-text5241-glyph0-1"
             overflow="visible"
             style="overflow:visible"><path
               id="path6988"
               d="m 6.53125,-6.203125 -0.046875,-1.703125 -6.34375,0 0,0.21875 C 1.03125,-7.609375 1.1875,-7.453125 1.1875,-6.609375 l 0,5.171875 c 0,1 -0.140625,1.15625 -1.046875,1.203125 l 0,0.234375 3.34375,0 0,-0.234375 C 2.5625,-0.28125 2.40625,-0.4375 2.40625,-1.296875 l 0,-2.609375 1.734375,0 c 0.96875,0 1.171875,0.171875 1.3125,1.140625 l 0.265625,0 0,-2.765625 -0.265625,0 c -0.140625,0.953125 -0.359375,1.125 -1.3125,1.125 l -1.734375,0 0,-2.640625 c 0,-0.34375 0.0625,-0.40625 0.375,-0.40625 l 1.625,0 c 1.359375,0 1.625,0.171875 1.828125,1.25 z m 0,0"
               style="stroke:none"
               inkscape:connector-curvature="0" /></symbol><symbol
             id="lx-text5241-glyph0-2"
             overflow="visible"
             style="overflow:visible"><path
               id="path6991"
               d="m 2.609375,-7.015625 c 0,-0.59375 -0.421875,-1.0625 -0.953125,-1.0625 -0.421875,0 -0.71875,0.265625 -0.71875,0.671875 0,0.390625 0.28125,0.609375 0.71875,0.609375 0.0625,0 0.15625,0 0.21875,-0.015625 0.078125,-0.03125 0.09375,-0.03125 0.09375,-0.03125 0.09375,0 0.171875,0.078125 0.171875,0.171875 0,0.390625 -0.328125,0.828125 -0.984375,1.265625 l 0.109375,0.234375 c 0.796875,-0.390625 1.34375,-1.125 1.34375,-1.84375 z m 0,0"
               style="stroke:none"
               inkscape:connector-curvature="0" /></symbol></g></defs><g
         id="lx-text5241-surface1"><g
           id="g6994"
           style="fill:#000000;fill-opacity:1"><use
             id="use6996"
             y="0"
             x="0"
             xlink:href="#lx-text5241-glyph0-1"
             width="100%"
             height="100%" /><use
             id="use6998"
             y="0"
             x="6.6470909"
             xlink:href="#lx-text5241-glyph0-2"
             width="100%"
             height="100%" /></g></g></g><g
       id="lx-text5245"
       transform="matrix(1.25,0,0,1.25,140.29956,35.706749)"><defs
         id="defs7001"><g
           id="g7003"><symbol
             id="lx-text5245-glyph0-0"
             overflow="visible"
             style="overflow:visible"><path
               id="path7006"
               d=""
               style="stroke:none"
               inkscape:connector-curvature="0" /></symbol><symbol
             id="lx-text5245-glyph0-1"
             overflow="visible"
             style="overflow:visible"><path
               id="path7009"
               d="m 8.1875,-4 c 0,-1.0625 -0.359375,-2 -1.015625,-2.65625 -0.8125,-0.828125 -2.109375,-1.25 -3.75,-1.25 l -3.234375,0 0,0.21875 C 1.140625,-7.609375 1.25,-7.5 1.25,-6.609375 l 0,5.3125 c 0,0.859375 -0.15625,1.015625 -1.0625,1.0625 L 0.1875,0 3.578125,0 C 4.96875,0 6.234375,-0.390625 6.96875,-1.0625 7.75,-1.765625 8.1875,-2.828125 8.1875,-4 Z m -1.296875,0.09375 c 0,1.40625 -0.5,2.40625 -1.46875,2.96875 -0.609375,0.359375 -1.296875,0.5 -2.34375,0.5 -0.46875,0 -0.609375,-0.109375 -0.609375,-0.5 l 0,-6.0625 c 0,-0.375 0.125,-0.46875 0.609375,-0.46875 1.03125,0 1.8125,0.1875 2.390625,0.59375 0.921875,0.640625 1.421875,1.671875 1.421875,2.96875 z m 0,0"
               style="stroke:none"
               inkscape:connector-curvature="0" /></symbol></g></defs><g
         id="lx-text5245-surface1"><g
           id="g7012"
           style="fill:#000000;fill-opacity:1"><use
             id="use7014"
             y="0"
             x="0"
             xlink:href="#lx-text5245-glyph0-1"
             width="100%"
             height="100%" /></g></g></g><g
       id="lx-text5249"
       transform="matrix(1.25,0,0,1.25,167.65039,81.797943)"><defs
         id="defs7017"><g
           id="g7019"><symbol
             id="lx-text5249-glyph0-0"
             overflow="visible"
             style="overflow:visible"><path
               id="path7022"
               d=""
               style="stroke:none"
               inkscape:connector-curvature="0" /></symbol><symbol
             id="lx-text5249-glyph0-1"
             overflow="visible"
             style="overflow:visible"><path
               id="path7025"
               d="M 7.5625,-1.34375 7.34375,-1.5625 c -0.875,0.84375 -1.671875,1.203125 -2.65625,1.203125 -0.71875,0 -1.359375,-0.21875 -1.859375,-0.625 -0.71875,-0.59375 -1.109375,-1.671875 -1.109375,-3.0625 0,-2.15625 1.109375,-3.5625 2.84375,-3.5625 0.703125,0 1.3125,0.265625 1.78125,0.734375 0.390625,0.390625 0.5625,0.71875 0.796875,1.5 l 0.265625,0 -0.109375,-2.703125 -0.25,0 c -0.0625,0.25 -0.25,0.390625 -0.484375,0.390625 -0.125,0 -0.28125,-0.03125 -0.484375,-0.109375 -0.578125,-0.1875 -1.171875,-0.28125 -1.75,-0.28125 -0.921875,0 -1.859375,0.34375 -2.59375,0.9375 -0.90625,0.75 -1.40625,1.890625 -1.40625,3.25 0,2.4375 1.59375,4.0625 3.96875,4.0625 1.359375,0 2.546875,-0.546875 3.265625,-1.515625 z m 0,0"
               style="stroke:none"
               inkscape:connector-curvature="0" /></symbol></g></defs><g
         id="lx-text5249-surface1"><g
           id="g7028"
           style="fill:#000000;fill-opacity:1"><use
             id="use7030"
             y="0"
             x="0"
             xlink:href="#lx-text5249-glyph0-1"
             width="100%"
             height="100%" /></g></g></g><g
       id="lx-text5253"
       transform="matrix(1.25,0,0,1.25,133.20862,136.24634)"><defs
         id="defs7033"><g
           id="g7035"><symbol
             id="lx-text5253-glyph0-0"
             overflow="visible"
             style="overflow:visible"><path
               id="path7038"
               d=""
               style="stroke:none"
               inkscape:connector-curvature="0" /></symbol><symbol
             id="lx-text5253-glyph0-1"
             overflow="visible"
             style="overflow:visible"><path
               id="path7041"
               d="M 7.09375,-2.15625 C 7.09375,-2.671875 6.875,-3.15625 6.5,-3.5 6.140625,-3.828125 5.828125,-3.96875 5.046875,-4.15625 5.671875,-4.3125 5.921875,-4.4375 6.203125,-4.6875 6.5,-4.953125 6.6875,-5.390625 6.6875,-5.875 c 0,-1.34375 -1.0625,-2.03125 -3.140625,-2.03125 l -3.34375,0 0,0.21875 c 1,0.0625 1.140625,0.1875 1.140625,1.078125 l 0,5.3125 c 0,0.875 -0.15625,1.03125 -1.140625,1.0625 l 0,0.234375 4,0 C 5.125,0 5.96875,-0.25 6.421875,-0.65625 6.84375,-1.046875 7.09375,-1.578125 7.09375,-2.15625 Z m -1.375,0.015625 c 0,0.640625 -0.25,1.109375 -0.734375,1.390625 -0.375,0.21875 -0.875,0.3125 -1.65625,0.3125 -0.59375,0 -0.765625,-0.109375 -0.765625,-0.5 l 0,-2.953125 c 1.171875,0 1.71875,0.046875 2.140625,0.234375 0.6875,0.28125 1.015625,0.765625 1.015625,1.515625 z m -0.25,-3.6875 c 0,0.921875 -0.640625,1.453125 -1.765625,1.453125 l -1.140625,0 0,-2.734375 c 0,-0.25 0.09375,-0.359375 0.265625,-0.359375 l 0.53125,0 c 1.375,0 2.109375,0.578125 2.109375,1.640625 z m 0,0"
               style="stroke:none"
               inkscape:connector-curvature="0" /></symbol></g></defs><g
         id="lx-text5253-surface1"><g
           id="g7044"
           style="fill:#000000;fill-opacity:1"><use
             id="use7046"
             y="0"
             x="0"
             xlink:href="#lx-text5253-glyph0-1"
             width="100%"
             height="100%" /></g></g></g><g
       id="lx-text5257"
       transform="matrix(1.25,0,0,1.25,86.610924,80.27845)"><defs
         id="defs7049"><g
           id="g7051"><symbol
             id="lx-text5257-glyph0-0"
             overflow="visible"
             style="overflow:visible"><path
               id="path7054"
               d=""
               style="stroke:none"
               inkscape:connector-curvature="0" /></symbol><symbol
             id="lx-text5257-glyph0-1"
             overflow="visible"
             style="overflow:visible"><path
               id="path7057"
               d="m 8.4375,0 0,-0.234375 C 7.90625,-0.265625 7.78125,-0.375 7.359375,-1.265625 l -2.96875,-6.796875 -0.25,0 -2.484375,5.875 C 0.890625,-0.4375 0.75,-0.265625 0.171875,-0.234375 l 0,0.234375 2.375,0 0,-0.234375 c -0.578125,0 -0.8125,-0.140625 -0.8125,-0.484375 0,-0.140625 0.03125,-0.3125 0.09375,-0.46875 L 2.375,-2.578125 l 3.140625,0 L 6,-1.4375 c 0.140625,0.34375 0.234375,0.640625 0.234375,0.8125 0,0.109375 -0.078125,0.25 -0.171875,0.296875 -0.140625,0.078125 -0.234375,0.09375 -0.671875,0.09375 l 0,0.234375 z m -3.09375,-3.078125 -2.765625,0 1.375,-3.28125 z m 0,0"
               style="stroke:none"
               inkscape:connector-curvature="0" /></symbol></g></defs><g
         id="lx-text5257-surface1"><g
           id="g7060"
           style="fill:#000000;fill-opacity:1"><use
             id="use7062"
             y="0"
             x="0"
             xlink:href="#lx-text5257-glyph0-1"
             width="100%"
             height="100%" /></g></g></g><g
       id="lx-text5261"
       transform="matrix(1.25,0,0,1.25,23.409015,98.03128)"><defs
         id="defs7065"><g
           id="g7067"><symbol
             id="lx-text5261-glyph0-0"
             overflow="visible"
             style="overflow:visible"><path
               id="path7070"
               d=""
               style="stroke:none"
               inkscape:connector-curvature="0" /></symbol><symbol
             id="lx-text5261-glyph0-1"
             overflow="visible"
             style="overflow:visible"><path
               id="path7073"
               d="m 5.828125,0 0,-0.171875 c -0.65625,-0.125 -0.71875,-0.21875 -0.71875,-1.046875 l 0,-2.375 c 0,-1.265625 -0.5,-1.90625 -1.46875,-1.90625 -0.71875,0 -1.21875,0.28125 -1.765625,1 l 0,-3.625 -0.0625,-0.03125 c -0.40625,0.140625 -0.703125,0.234375 -1.375,0.421875 l -0.3125,0.09375 0,0.1875 c 0.046875,0 0.078125,0 0.140625,0 0.515625,0 0.609375,0.09375 0.609375,0.609375 l 0,5.625 c 0,0.84375 -0.078125,0.9375 -0.765625,1.046875 l 0,0.171875 2.578125,0 0,-0.171875 C 2,-0.25 1.875,-0.390625 1.875,-1.21875 l 0,-2.875 c 0.5,-0.5625 0.859375,-0.765625 1.328125,-0.765625 0.59375,0 0.890625,0.4375 0.890625,1.28125 l 0,2.359375 c 0,0.8125 -0.109375,0.96875 -0.8125,1.046875 L 3.28125,0 Z m 0,0"
               style="stroke:none"
               inkscape:connector-curvature="0" /></symbol></g></defs><g
         id="lx-text5261-surface1"><g
           id="g7076"
           style="fill:#000000;fill-opacity:1"><use
             id="use7078"
             y="0"
             x="0"
             xlink:href="#lx-text5261-glyph0-1"
             width="100%"
             height="100%" /></g></g></g><g
       id="lx-text5265"
       transform="matrix(1.25,0,0,1.25,107.00731,110.2052)"><defs
         id="defs7081"><g
           id="g7083"><symbol
             id="lx-text5265-glyph0-0"
             overflow="visible"
             style="overflow:visible"><path
               id="path7086"
               d=""
               style="stroke:none"
               inkscape:connector-curvature="0" /></symbol><symbol
             id="lx-text5265-glyph0-1"
             overflow="visible"
             style="overflow:visible"><path
               id="path7089"
               d="m 5.296875,-6.015625 c 0,-1.21875 -0.390625,-2.40625 -1.359375,-2.40625 -1.671875,0 -3.453125,3.515625 -3.453125,6.140625 0,0.546875 0.109375,2.40625 1.375,2.40625 1.625,0 3.4375,-3.421875 3.4375,-6.140625 z m -3.625,1.6875 c 0.1875,-0.703125 0.4375,-1.703125 0.90625,-2.5625 0.390625,-0.71875 0.8125,-1.28125 1.34375,-1.28125 0.390625,0 0.65625,0.328125 0.65625,1.484375 0,0.421875 -0.03125,1.015625 -0.375,2.359375 z m 2.4375,0.359375 C 3.8125,-2.796875 3.5625,-2.046875 3.125,-1.296875 2.78125,-0.6875 2.359375,-0.125 1.859375,-0.125 1.5,-0.125 1.1875,-0.40625 1.1875,-1.59375 c 0,-0.765625 0.203125,-1.578125 0.390625,-2.375 z m 0,0"
               style="stroke:none"
               inkscape:connector-curvature="0" /></symbol><symbol
             id="lx-text5265-glyph1-0"
             overflow="visible"
             style="overflow:visible"><path
               id="path7092"
               d=""
               style="stroke:none"
               inkscape:connector-curvature="0" /></symbol><symbol
             id="lx-text5265-glyph1-1"
             overflow="visible"
             style="overflow:visible"><path
               id="path7095"
               d="M 2.109375,-3.78125 C 2.15625,-3.875 2.1875,-3.9375 2.1875,-4.015625 c 0,-0.265625 -0.25,-0.4375 -0.46875,-0.4375 -0.3125,0 -0.40625,0.28125 -0.4375,0.390625 L 0.265625,-0.625 c -0.03125,0.09375 -0.03125,0.109375 -0.03125,0.125 0,0.0625 0.046875,0.078125 0.125,0.109375 0.15625,0.0625 0.171875,0.0625 0.1875,0.0625 0.015625,0 0.0625,0 0.125,-0.140625 z m 0,0"
               style="stroke:none"
               inkscape:connector-curvature="0" /></symbol></g></defs><g
         id="lx-text5265-surface1"><g
           id="g7098"
           style="fill:#000000;fill-opacity:1"><use
             id="use7100"
             y="0"
             x="0"
             xlink:href="#lx-text5265-glyph0-1"
             width="100%"
             height="100%" /></g><g
           id="g7102"
           style="fill:#000000;fill-opacity:1"><use
             id="use7104"
             y="-4.3390002"
             x="5.7810001"
             xlink:href="#lx-text5265-glyph1-1"
             width="100%"
             height="100%" /></g></g></g><g
       id="lx-text6819"
       transform="matrix(1.25,0,0,1.25,237.29368,60.310757)"><defs
         id="defs7107"><g
           id="g7109"><symbol
             id="lx-text6819-glyph0-0"
             overflow="visible"
             style="overflow:visible"><path
               id="path7112"
               d=""
               style="stroke:none"
               inkscape:connector-curvature="0" /></symbol><symbol
             id="lx-text6819-glyph0-1"
             overflow="visible"
             style="overflow:visible"><path
               id="path7115"
               d="M 2.46875,-3.5 C 2.484375,-3.578125 2.78125,-4.171875 3.234375,-4.546875 3.53125,-4.84375 3.9375,-5.03125 4.40625,-5.03125 c 0.484375,0 0.65625,0.359375 0.65625,0.828125 0,0.6875 -0.5,2.046875 -0.734375,2.703125 -0.109375,0.28125 -0.171875,0.4375 -0.171875,0.65625 0,0.53125 0.375,0.96875 0.953125,0.96875 1.109375,0 1.53125,-1.765625 1.53125,-1.828125 0,-0.0625 -0.046875,-0.109375 -0.125,-0.109375 -0.109375,0 -0.125,0.03125 -0.1875,0.234375 C 6.0625,-0.59375 5.609375,-0.125 5.140625,-0.125 c -0.125,0 -0.3125,0 -0.3125,-0.390625 0,-0.296875 0.125,-0.65625 0.203125,-0.828125 C 5.265625,-2 5.765625,-3.328125 5.765625,-4.015625 c 0,-0.71875 -0.40625,-1.25 -1.3125,-1.25 -1.078125,0 -1.625,0.75 -1.84375,1.046875 -0.046875,-0.6875 -0.53125,-1.046875 -1.0625,-1.046875 -0.375,0 -0.640625,0.21875 -0.84375,0.625 -0.21875,0.4375 -0.375,1.15625 -0.375,1.203125 0,0.046875 0.046875,0.109375 0.125,0.109375 0.09375,0 0.109375,-0.015625 0.1875,-0.296875 0.1875,-0.71875 0.40625,-1.40625 0.875,-1.40625 0.28125,0 0.375,0.1875 0.375,0.546875 0,0.265625 -0.125,0.734375 -0.203125,1.109375 l -0.34375,1.28125 c -0.046875,0.234375 -0.171875,0.765625 -0.234375,0.984375 -0.078125,0.3125 -0.21875,0.875 -0.21875,0.9375 0,0.15625 0.140625,0.296875 0.3125,0.296875 0.140625,0 0.3125,-0.078125 0.40625,-0.25 C 1.640625,-0.1875 1.75,-0.609375 1.8125,-0.84375 l 0.25,-1.078125 z m 0,0"
               style="stroke:none"
               inkscape:connector-curvature="0" /></symbol><symbol
             id="lx-text6819-glyph1-0"
             overflow="visible"
             style="overflow:visible"><path
               id="path7118"
               d=""
               style="stroke:none"
               inkscape:connector-curvature="0" /></symbol><symbol
             id="lx-text6819-glyph1-1"
             overflow="visible"
             style="overflow:visible"><path
               id="path7121"
               d="m 2.5,-5.078125 c 0,-0.21875 -0.015625,-0.21875 -0.234375,-0.21875 -0.328125,0.3125 -0.75,0.5 -1.5,0.5 l 0,0.265625 c 0.21875,0 0.640625,0 1.109375,-0.203125 l 0,4.078125 c 0,0.296875 -0.03125,0.390625 -0.78125,0.390625 l -0.28125,0 0,0.265625 c 0.328125,-0.03125 1.015625,-0.03125 1.375,-0.03125 0.359375,0 1.046875,0 1.375,0.03125 l 0,-0.265625 -0.28125,0 c -0.75,0 -0.78125,-0.09375 -0.78125,-0.390625 z m 0,0"
               style="stroke:none"
               inkscape:connector-curvature="0" /></symbol></g></defs><g
         id="lx-text6819-surface1"><g
           id="g7124"
           style="fill:#000000;fill-opacity:1"><use
             id="use7126"
             y="0"
             x="0"
             xlink:href="#lx-text6819-glyph0-1"
             width="100%"
             height="100%" /></g><g
           id="g7128"
           style="fill:#000000;fill-opacity:1"><use
             id="use7130"
             y="1.793"
             x="6.9879999"
             xlink:href="#lx-text6819-glyph1-1"
             width="100%"
             height="100%" /></g></g></g><g
       id="lx-text6823"
       transform="matrix(1.25,0,0,1.25,239.0664,116.53188)"><defs
         id="defs7133"><g
           id="g7135"><symbol
             id="lx-text6823-glyph0-0"
             overflow="visible"
             style="overflow:visible"><path
               id="path7138"
               d=""
               style="stroke:none"
               inkscape:connector-curvature="0" /></symbol><symbol
             id="lx-text6823-glyph0-1"
             overflow="visible"
             style="overflow:visible"><path
               id="path7141"
               d="M 2.46875,-3.5 C 2.484375,-3.578125 2.78125,-4.171875 3.234375,-4.546875 3.53125,-4.84375 3.9375,-5.03125 4.40625,-5.03125 c 0.484375,0 0.65625,0.359375 0.65625,0.828125 0,0.6875 -0.5,2.046875 -0.734375,2.703125 -0.109375,0.28125 -0.171875,0.4375 -0.171875,0.65625 0,0.53125 0.375,0.96875 0.953125,0.96875 1.109375,0 1.53125,-1.765625 1.53125,-1.828125 0,-0.0625 -0.046875,-0.109375 -0.125,-0.109375 -0.109375,0 -0.125,0.03125 -0.1875,0.234375 C 6.0625,-0.59375 5.609375,-0.125 5.140625,-0.125 c -0.125,0 -0.3125,0 -0.3125,-0.390625 0,-0.296875 0.125,-0.65625 0.203125,-0.828125 C 5.265625,-2 5.765625,-3.328125 5.765625,-4.015625 c 0,-0.71875 -0.40625,-1.25 -1.3125,-1.25 -1.078125,0 -1.625,0.75 -1.84375,1.046875 -0.046875,-0.6875 -0.53125,-1.046875 -1.0625,-1.046875 -0.375,0 -0.640625,0.21875 -0.84375,0.625 -0.21875,0.4375 -0.375,1.15625 -0.375,1.203125 0,0.046875 0.046875,0.109375 0.125,0.109375 0.09375,0 0.109375,-0.015625 0.1875,-0.296875 0.1875,-0.71875 0.40625,-1.40625 0.875,-1.40625 0.28125,0 0.375,0.1875 0.375,0.546875 0,0.265625 -0.125,0.734375 -0.203125,1.109375 l -0.34375,1.28125 c -0.046875,0.234375 -0.171875,0.765625 -0.234375,0.984375 -0.078125,0.3125 -0.21875,0.875 -0.21875,0.9375 0,0.15625 0.140625,0.296875 0.3125,0.296875 0.140625,0 0.3125,-0.078125 0.40625,-0.25 C 1.640625,-0.1875 1.75,-0.609375 1.8125,-0.84375 l 0.25,-1.078125 z m 0,0"
               style="stroke:none"
               inkscape:connector-curvature="0" /></symbol><symbol
             id="lx-text6823-glyph1-0"
             overflow="visible"
             style="overflow:visible"><path
               id="path7144"
               d=""
               style="stroke:none"
               inkscape:connector-curvature="0" /></symbol><symbol
             id="lx-text6823-glyph1-1"
             overflow="visible"
             style="overflow:visible"><path
               id="path7147"
               d="m 2.25,-1.625 c 0.125,-0.125 0.453125,-0.390625 0.59375,-0.5 0.484375,-0.453125 0.953125,-0.890625 0.953125,-1.609375 0,-0.953125 -0.796875,-1.5625 -1.78125,-1.5625 -0.96875,0 -1.59375,0.71875 -1.59375,1.4375 0,0.390625 0.3125,0.4375 0.421875,0.4375 0.171875,0 0.421875,-0.109375 0.421875,-0.421875 0,-0.40625 -0.40625,-0.40625 -0.5,-0.40625 C 1,-4.84375 1.53125,-5.03125 1.921875,-5.03125 c 0.734375,0 1.125,0.625 1.125,1.296875 0,0.828125 -0.578125,1.4375 -1.53125,2.390625 l -1,1.046875 C 0.421875,-0.21875 0.421875,-0.203125 0.421875,0 l 3.140625,0 0.234375,-1.421875 -0.25,0 C 3.53125,-1.265625 3.46875,-0.875 3.375,-0.71875 c -0.046875,0.0625 -0.65625,0.0625 -0.78125,0.0625 l -1.421875,0 z m 0,0"
               style="stroke:none"
               inkscape:connector-curvature="0" /></symbol></g></defs><g
         id="lx-text6823-surface1"><g
           id="g7150"
           style="fill:#000000;fill-opacity:1"><use
             id="use7152"
             y="0"
             x="0"
             xlink:href="#lx-text6823-glyph0-1"
             width="100%"
             height="100%" /></g><g
           id="g7154"
           style="fill:#000000;fill-opacity:1"><use
             id="use7156"
             y="1.793"
             x="6.9879999"
             xlink:href="#lx-text6823-glyph1-1"
             width="100%"
             height="100%" /></g></g></g></g></svg>