<?xml version="1.0" encoding="UTF-8" standalone="no"?>
<!-- Created with Inkscape (http://www.inkscape.org/) -->

<svg
   xmlns:rendltx="http://NOTSET"
   xmlns:dc="http://purl.org/dc/elements/1.1/"
   xmlns:cc="http://creativecommons.org/ns#"
   xmlns:rdf="http://www.w3.org/1999/02/22-rdf-syntax-ns#"
   xmlns:svg="http://www.w3.org/2000/svg"
   xmlns="http://www.w3.org/2000/svg"
   xmlns:xlink="http://www.w3.org/1999/xlink"
   xmlns:sodipodi="http://sodipodi.sourceforge.net/DTD/sodipodi-0.dtd"
   xmlns:inkscape="http://www.inkscape.org/namespaces/inkscape"
   version="1.0"
   width="34.999996mm"
   height="19.116657mm"
   viewBox="0 0 34.222476 69.852942"
   id="svg2"
   xml:space="preserve"
   style="fill-rule:evenodd"
   inkscape:version="0.91 r13725"
   sodipodi:docname="plattenkondensator.svg"><sodipodi:namedview
     pagecolor="#ffffff"
     bordercolor="#666666"
     borderopacity="1"
     objecttolerance="10"
     gridtolerance="10"
     guidetolerance="10"
     inkscape:pageopacity="0"
     inkscape:pageshadow="2"
     inkscape:window-width="1855"
     inkscape:window-height="1056"
     id="namedview5534"
     showgrid="false"
     units="mm"
     inkscape:zoom="3.6110381"
     inkscape:cx="109.11253"
     inkscape:cy="9.462607"
     inkscape:window-x="65"
     inkscape:window-y="24"
     inkscape:window-maximized="1"
     inkscape:current-layer="ltx-render-layer"
     fit-margin-top="0"
     fit-margin-left="0"
     fit-margin-right="0"
     fit-margin-bottom="0" /><metadata
     id="metadata47"><rdf:RDF><cc:Work
         rdf:about=""><dc:format>image/svg+xml</dc:format><dc:type
           rdf:resource="http://purl.org/dc/dcmitype/StillImage" /><dc:title></dc:title></cc:Work></rdf:RDF></metadata><defs
     id="defs4"><marker
       refX="0"
       refY="0"
       orient="auto"
       id="Arrow2Lstart"
       style="overflow:visible"><path
         d="M 8.7185878,4.0337352 -2.2072895,0.01601326 8.7185884,-4.0017078 c -1.7454984,2.3720609 -1.7354408,5.6174519 -6e-7,8.035443 z"
         transform="matrix(1.1,0,0,1.1,-5.5,0)"
         id="path2356"
         style="font-size:12px;fill-rule:evenodd;stroke-width:0.625;stroke-linejoin:round"
         inkscape:connector-curvature="0" /></marker><marker
       refX="0"
       refY="0"
       orient="auto"
       id="Arrow2Lend"
       style="overflow:visible"><path
         d="M 8.7185878,4.0337352 -2.2072895,0.01601326 8.7185884,-4.0017078 c -1.7454984,2.3720609 -1.7354408,5.6174519 -6e-7,8.035443 z"
         transform="matrix(-1.1,0,0,-1.1,5.5,0)"
         id="path2353"
         style="font-size:12px;fill-rule:evenodd;stroke-width:0.625;stroke-linejoin:round"
         inkscape:connector-curvature="0" /></marker></defs><g
     inkscape:groupmode="layer"
     id="layer5"
     inkscape:label="image"
     transform="translate(118.80722,-790.82307)"><g
       style="fill-rule:evenodd"
       id="g3097"
       transform="matrix(0.16612162,0,0,0.16612162,-118.07112,790.49932)"><path
         d="m 208,167 -135,0 -50.5298,-40 0,-5 50.5298,40 135,0 0,5 z"
         transform="matrix(3.652422,0,0,3.652422,-277.2293,-314.7806)"
         id="polygon29"
         style="fill:#999999;fill-opacity:1;stroke:#000000;stroke-width:0.56469381;stroke-miterlimit:4"
         inkscape:connector-curvature="0" /><path
         d="M 22.4702,92 73,132 l 135,0 0,-5 -50.53,-40 -134.9998,0 0,5 z"
         transform="matrix(3.652422,0,0,3.652422,-277.2293,-314.7806)"
         id="polygon37"
         style="fill:#cccccc;fill-opacity:1;stroke:#000000;stroke-width:0.56469381;stroke-miterlimit:4"
         inkscape:connector-curvature="0" /><path
         d="M 22.4702,87 73,127 l 135,0"
         transform="matrix(3.652422,0,0,3.652422,-277.2293,-314.7806)"
         id="polyline39"
         style="fill:none;stroke:#000000;stroke-width:0.56469381;stroke-miterlimit:4"
         inkscape:connector-curvature="0" /><path
         d="m 22.4702,92 0,30 50.5298,40 135,0 0,-30 -135,0 -50.5298,-40 z"
         transform="matrix(3.652422,0,0,3.652422,-277.2293,-314.7806)"
         id="polygon41"
         style="fill:#b0c4de;fill-opacity:1;stroke:#000000;stroke-width:0.56469381;stroke-miterlimit:4"
         inkscape:connector-curvature="0" /><path
         d="m -10.60254,149.077 0,146.09689"
         id="line43"
         style="fill:none;stroke:#000000;stroke-width:2.0625;stroke-miterlimit:4"
         inkscape:connector-curvature="0" /><g
         id="text1311"
         style="font-style:italic;font-variant:normal;font-weight:normal;font-stretch:normal;font-size:78.43992615px;line-height:125%;font-family:'Times New Roman';text-align:start;writing-mode:lr-tb;text-anchor:start;fill:#000000;fill-opacity:1;stroke:none"><path
           d="m 164.3768,28.300183 -3.94498,43.203241 c -0.2043,2.01718 -0.30644,3.344938 -0.3064,3.983277 -4e-5,1.021359 0.19146,1.80014 0.57451,2.336346 0.4851,0.740484 1.13622,1.289461 1.95334,1.646932 0.84257,0.357475 2.24693,0.536212 4.21308,0.53621 l -0.42131,1.417128 -20.4526,0 0.42131,-1.417128 0.88092,0 c 1.65967,2e-6 3.01296,-0.357471 4.05988,-1.07242 0.74045,-0.48514 1.31496,-1.289455 1.72353,-2.412947 0.28084,-0.791543 0.54895,-2.655511 0.80431,-5.591909 l 0.61282,-6.587728 -14.86069,0 -5.28551,7.162239 c -1.20009,1.60864 -1.95334,2.770428 -2.25974,3.485368 -0.30641,0.689419 -0.45962,1.340531 -0.45961,1.953338 -1e-5,0.817086 0.33193,1.519266 0.99582,2.106541 0.66387,0.58728 1.76183,0.906452 3.29387,0.957518 l -0.42131,1.417128 -15.3586,0 0.42131,-1.417128 c 1.8895,-0.0766 3.5492,-0.702178 4.97909,-1.876736 1.45543,-1.200086 3.61304,-3.740699 6.47283,-7.621848 l 31.0236,-42.207422 1.34053,0 m -7.58355,12.754149 -15.05219,20.490898 13.06055,0 1.99164,-20.490898"
           id="path3089"
           inkscape:connector-curvature="0" /></g><g
         id="text2374"
         style="font-style:italic;font-variant:normal;font-weight:normal;font-stretch:normal;font-size:81.4098587px;line-height:125%;font-family:'Times New Roman';text-align:start;writing-mode:lr-tb;text-anchor:start;fill:#000000;fill-opacity:1;stroke:none"><path
           d="m -243.86566,44.727589 -13.67431,46.906071 c -0.74205,2.544065 -1.11306,4.213602 -1.11303,5.008615 -3e-5,0.26501 0.10597,0.516765 0.31801,0.755267 0.23847,0.238509 0.47698,0.357761 0.71551,0.357758 0.34448,3e-6 0.75524,-0.17225 1.23228,-0.516762 0.90099,-0.63601 2.41152,-2.226044 4.53161,-4.770109 l 1.35153,0.834769 c -1.90808,2.650066 -3.84263,4.796613 -5.80364,6.439647 -1.93457,1.643035 -3.74986,2.464555 -5.44587,2.464555 -0.90105,0 -1.64306,-0.31801 -2.22605,-0.95402 -0.58304,-0.63601 -0.87454,-1.537034 -0.87452,-2.703062 -2e-5,-1.51053 0.39748,-3.537824 1.19253,-6.081889 l 1.55028,-4.929112 c -3.84261,5.936143 -7.34069,10.043733 -10.49424,12.322781 -2.17306,1.563532 -4.25336,2.345302 -6.24089,2.345302 -2.01405,0 -3.77634,-0.88777 -5.28687,-2.663309 -1.48404,-1.802038 -2.22605,-4.240091 -2.22605,-7.314167 0,-3.948577 1.25877,-8.162169 3.77633,-12.640789 2.51755,-4.478576 5.84338,-8.122405 9.97748,-10.931499 3.25956,-2.252517 6.25412,-3.378792 8.98371,-3.378828 1.431,3.6e-5 2.66328,0.291543 3.69683,0.87452 1.0335,0.583048 2.05377,1.550319 3.06082,2.901817 l 3.89559,-13.833316 c 0.29147,-0.980476 0.52998,-1.762243 0.71552,-2.345304 0.31797,-1.059974 0.47697,-1.934494 0.47701,-2.62356 -4e-5,-0.556461 -0.19879,-1.020221 -0.59627,-1.391281 -0.55654,-0.450458 -1.27206,-0.675713 -2.14655,-0.675766 -0.60954,5.3e-5 -1.61656,0.0928 -3.02106,0.278257 l 0,-1.470784 13.67431,-2.265802 m -14.74759,28.223145 c -3e-5,-1.696009 -0.49029,-3.060789 -1.47078,-4.094344 -0.98055,-1.03349 -2.22608,-1.550251 -3.73659,-1.550285 -3.33909,3.4e-5 -6.82392,2.756094 -10.45449,8.268189 -3.60409,5.512146 -5.40613,10.785761 -5.40612,15.820861 -10e-6,1.987553 0.43725,3.511336 1.31178,4.571354 0.87451,1.033528 1.92128,1.550289 3.14032,1.550286 2.75605,3e-6 6.21437,-2.981312 10.37499,-8.943955 4.16057,-5.962617 6.24086,-11.169981 6.24089,-15.622106"
           id="path3092"
           inkscape:connector-curvature="0" /></g><g
         id="text2378"
         style="font-style:italic;font-variant:normal;font-weight:normal;font-stretch:normal;font-size:82.62272644px;line-height:125%;font-family:'Times New Roman';text-align:start;writing-mode:lr-tb;text-anchor:start;fill:#000000;fill-opacity:1;stroke:none"><path
           d="m 204.62727,228.466 c -4.89498,-1.18338 -7.34246,-3.63086 -7.34245,-7.34245 -1e-5,-2.7433 1.26407,-5.06975 3.79225,-6.97936 2.55505,-1.90954 5.94387,-2.86432 10.16647,-2.86436 3.81912,4e-5 6.79106,0.78 8.91583,2.3399 2.12471,1.55997 3.18707,3.24093 3.18711,5.04289 -4e-5,0.91447 -0.29588,1.68099 -0.88755,2.29956 -0.59173,0.61862 -1.35825,0.92792 -2.29956,0.92789 -0.99516,3e-5 -1.77513,-0.33617 -2.3399,-1.00858 -0.56483,-0.69925 -0.84723,-1.50611 -0.84721,-2.42058 -2e-5,-0.21514 0.0269,-0.53788 0.0807,-0.96824 0.0269,-0.26892 0.0403,-0.49753 0.0403,-0.68583 -2e-5,-0.88752 -0.37656,-1.72128 -1.12961,-2.50128 -0.75309,-0.80683 -1.97683,-1.21026 -3.67122,-1.21029 -2.55508,3e-5 -4.85464,0.90103 -6.89867,2.70299 -2.04407,1.80202 -3.06609,4.11503 -3.06608,6.93902 -10e-6,3.52332 1.61371,5.28497 4.84117,5.28495 0.69927,2e-5 1.62716,-0.12101 2.78368,-0.36309 0.88753,-0.18825 1.53302,-0.28238 1.93647,-0.2824 1.29096,2e-5 1.93645,0.49758 1.93647,1.49269 -2e-5,0.86067 -0.53793,1.291 -1.61373,1.29098 -0.32276,2e-5 -0.91446,-0.0807 -1.77509,-0.24206 -1.12963,-0.18825 -2.07097,-0.28238 -2.82402,-0.2824 -2.68956,2e-5 -4.90843,1.04894 -6.65662,3.14677 -1.72131,2.09785 -2.58197,4.55878 -2.58196,7.38279 -1e-5,1.90958 0.61859,3.5233 1.85578,4.84117 1.26408,1.29099 3.01228,1.93647 5.24461,1.93647 3.28122,0 5.52699,-1.80199 6.7373,-5.40598 0.4841,-1.45234 0.98166,-2.46092 1.4927,-3.02573 0.51099,-0.56479 1.25061,-0.8472 2.21887,-0.84721 0.86063,1e-5 1.55991,0.29586 2.09784,0.88755 0.53789,0.59171 0.80684,1.30444 0.80687,2.13819 -3e-5,1.93647 -1.38514,3.76536 -4.15535,5.48666 -2.77024,1.72131 -6.13217,2.58196 -10.08578,2.58196 -4.30327,0 -7.49038,-0.91444 -9.56132,-2.74333 -2.07095,-1.82888 -3.10642,-4.07465 -3.10642,-6.7373 0,-2.71643 1.06237,-5.13701 3.18711,-7.26176 2.15162,-2.12472 5.32528,-3.30812 9.52098,-3.5502"
           id="path3095"
           inkscape:connector-curvature="0" /></g><path
         d="m -219.05541,113.65277 0,-72.273737"
         id="path1324"
         style="fill:none;stroke:#000000;stroke-width:2.34143257;stroke-linecap:butt;stroke-linejoin:miter;stroke-miterlimit:4;stroke-dasharray:none;stroke-opacity:1;marker-start:url(#Arrow2Lstart);marker-end:url(#Arrow2Lend)"
         inkscape:connector-curvature="0" /></g></g><g
     style="display:none"
     inkscape:groupmode="layer"
     id="layer6"
     inkscape:label="text"
     transform="translate(118.80722,-790.82307)"><text
       xml:space="preserve"
       style="font-style:normal;font-weight:normal;font-size:15.46875px;line-height:125%;font-family:sans-serif;letter-spacing:0px;word-spacing:0px;fill:#000000;fill-opacity:1;stroke:none;stroke-width:1px;stroke-linecap:butt;stroke-linejoin:miter;stroke-opacity:1"
       x="-225.27155"
       y="941.46899"
       id="text5551"
       sodipodi:linespacing="125%"><tspan
         sodipodi:role="line"
         id="tspan5553"
         x="-225.27155"
         y="941.46899">$C = \varepsilon_0 \varepsilon_r \cfrac{A}{d}$</tspan></text>
</g><g
     transform="translate(6.6906038,-6.9831799)"
     rendltx:math="False"
     rendltx:newline="False"
     rendltx:fontsize="12"
     rendltx:depth="0"
     rendltx:scale="2.0"
     rendltx:preamble="preamble.tex"
     id="ltx-render-layer"
     inkscape:groupmode="layer"
     inkscape:label="Rendered Latex"><g
       id="lx-text5551"
       transform="matrix(0.344941,0,0,0.344941,-8.8225916,71.097557)"><defs
         id="defs6712"><g
           id="g6714"><symbol
             id="lx-text5551-glyph0-0"
             overflow="visible"
             style="overflow:visible"><path
               id="path6717"
               d=""
               style="stroke:none"
               inkscape:connector-curvature="0" /></symbol><symbol
             id="lx-text5551-glyph0-1"
             overflow="visible"
             style="overflow:visible"><path
               id="path6720"
               d="m 17.859375,-16.609375 c 0,-0.21875 -0.171875,-0.21875 -0.21875,-0.21875 -0.04687,0 -0.140625,0 -0.328125,0.234375 l -1.65625,2.015625 c -0.828125,-1.4375 -2.15625,-2.25 -3.9375,-2.25 -5.171875,0 -10.53125,5.234375 -10.53125,10.859375 C 1.1875,-1.984375 4,0.5 7.484375,0.5 c 1.90625,0 3.578125,-0.8125 4.96875,-1.984375 2.078125,-1.75 2.703125,-4.0625 2.703125,-4.25 0,-0.21875 -0.1875,-0.21875 -0.265625,-0.21875 -0.21875,0 -0.234375,0.140625 -0.28125,0.234375 C 13.5,-1.984375 10.28125,-0.1875 7.890625,-0.1875 c -2.53125,0 -4.734375,-1.625 -4.734375,-5.03125 0,-0.75 0.234375,-4.921875 2.9375,-8.046875 1.3125,-1.53125 3.5625,-2.875 5.828125,-2.875 2.640625,0 3.8125,2.171875 3.8125,4.625 0,0.609375 -0.07813,1.140625 -0.07813,1.234375 0,0.21875 0.234375,0.21875 0.3125,0.21875 0.265625,0 0.28125,-0.03125 0.390625,-0.453125 z m 0,0"
               style="stroke:none"
               inkscape:connector-curvature="0" /></symbol><symbol
             id="lx-text5551-glyph0-2"
             overflow="visible"
             style="overflow:visible"><path
               id="path6723"
               d="m 3.328125,-5.453125 c 0.765625,0.3125 1.578125,0.3125 2.03125,0.3125 0.609375,0 1.859375,0 1.859375,-0.6875 0,-0.4375 -0.453125,-0.609375 -1.671875,-0.609375 -0.59375,0 -1.3125,0.078125 -2.15625,0.4375 -0.734375,-0.359375 -1.03125,-0.90625 -1.03125,-1.4375 0,-1.484375 2.34375,-2.34375 4.484375,-2.34375 0.40625,0 1.265625,0 2.265625,0.75 0.140625,0.09375 0.21875,0.15625 0.375,0.15625 0.296875,0 0.609375,-0.3125 0.609375,-0.59375 0,-0.421875 -1.390625,-1.34375 -3.046875,-1.34375 -2.671875,0 -5.203125,1.609375 -5.203125,3.375 0,0.890625 0.578125,1.4375 0.984375,1.71875 C 1.4375,-4.921875 0.625,-3.640625 0.625,-2.46875 0.625,-0.8125 2.109375,0.5 4.40625,0.5 c 3.140625,0 4.421875,-2.109375 4.421875,-2.4375 0,-0.125 -0.109375,-0.21875 -0.21875,-0.21875 -0.125,0 -0.171875,0.078125 -0.265625,0.21875 -0.265625,0.453125 -0.890625,1.40625 -3.734375,1.40625 -1.484375,0 -3.4375,-0.375 -3.4375,-2.078125 0,-0.8125 0.59375,-2.03125 2.15625,-2.84375 z M 4.0625,-5.734375 c 0.640625,-0.21875 1.265625,-0.21875 1.4375,-0.21875 0.671875,0 0.78125,0.046875 1.171875,0.140625 -0.40625,0.1875 -0.453125,0.1875 -1.3125,0.1875 -0.4375,0 -0.8125,0 -1.296875,-0.109375 z m 0,0"
               style="stroke:none"
               inkscape:connector-curvature="0" /></symbol><symbol
             id="lx-text5551-glyph0-3"
             overflow="visible"
             style="overflow:visible"><path
               id="path6726"
               d="M 4.0625,-2.65625 C 3.234375,-1.25 2.421875,-0.765625 1.265625,-0.6875 1,-0.671875 0.8125,-0.671875 0.8125,-0.234375 0.8125,-0.09375 0.9375,0 1.09375,0 1.53125,0 2.609375,-0.046875 3.03125,-0.046875 3.734375,-0.046875 4.5,0 5.15625,0 5.3125,0 5.59375,0 5.59375,-0.453125 5.59375,-0.671875 5.40625,-0.6875 5.265625,-0.6875 4.703125,-0.734375 4.25,-0.9375 4.25,-1.5 c 0,-0.34375 0.15625,-0.609375 0.453125,-1.125 l 1.828125,-3.015625 6.09375,0 c 0.01563,0.21875 0.01563,0.40625 0.04687,0.625 0.0625,0.609375 0.359375,3.109375 0.359375,3.5625 0,0.71875 -1.21875,0.765625 -1.609375,0.765625 -0.25,0 -0.515625,0 -0.515625,0.421875 C 10.90625,0 11.109375,0 11.265625,0 c 0.40625,0 0.875,-0.046875 1.28125,-0.046875 l 1.359375,0 C 15.375,-0.046875 16.421875,0 16.453125,0 16.609375,0 16.875,0 16.875,-0.453125 16.875,-0.6875 16.65625,-0.6875 16.296875,-0.6875 c -1.3125,0 -1.328125,-0.21875 -1.40625,-0.9375 L 13.4375,-16.546875 c -0.04687,-0.46875 -0.140625,-0.515625 -0.40625,-0.515625 -0.234375,0 -0.390625,0.04687 -0.59375,0.40625 z m 2.875,-3.671875 4.796875,-8.046875 0.8125,8.046875 z m 0,0"
               style="stroke:none"
               inkscape:connector-curvature="0" /></symbol><symbol
             id="lx-text5551-glyph0-4"
             overflow="visible"
             style="overflow:visible"><path
               id="path6729"
               d="m 12.03125,-16 c 0.01563,-0.09375 0.0625,-0.234375 0.0625,-0.359375 0,-0.234375 -0.234375,-0.234375 -0.28125,-0.234375 -0.03125,0 -1.203125,0.09375 -1.3125,0.125 -0.40625,0.01563 -0.765625,0.0625 -1.203125,0.09375 -0.59375,0.04687 -0.765625,0.07813 -0.765625,0.5 0,0.234375 0.1875,0.234375 0.53125,0.234375 1.171875,0 1.1875,0.21875 1.1875,0.453125 0,0.15625 -0.04687,0.34375 -0.0625,0.40625 l -1.46875,5.8125 c -0.25,-0.625 -0.90625,-1.578125 -2.140625,-1.578125 -2.703125,0 -5.625,3.5 -5.625,7.03125 0,2.375 1.390625,3.75 3.015625,3.75 1.3125,0 2.4375,-1.015625 3.109375,-1.8125 0.234375,1.40625 1.359375,1.8125 2.078125,1.8125 0.71875,0 1.296875,-0.421875 1.71875,-1.28125 0.390625,-0.8125 0.71875,-2.28125 0.71875,-2.375 0,-0.109375 -0.09375,-0.21875 -0.234375,-0.21875 -0.21875,0 -0.25,0.125 -0.34375,0.484375 -0.359375,1.40625 -0.8125,2.921875 -1.78125,2.921875 -0.703125,0 -0.75,-0.625 -0.75,-1.109375 0,-0.09375 0,-0.59375 0.171875,-1.265625 z M 7.203125,-2.84375 c -0.125,0.40625 -0.125,0.453125 -0.46875,0.90625 -0.515625,0.671875 -1.578125,1.703125 -2.6875,1.703125 -0.984375,0 -1.53125,-0.890625 -1.53125,-2.296875 0,-1.3125 0.734375,-4 1.1875,-5 0.8125,-1.671875 1.9375,-2.53125 2.875,-2.53125 1.578125,0 1.890625,1.953125 1.890625,2.15625 0,0.015625 -0.078125,0.328125 -0.109375,0.375 z m 0,0"
               style="stroke:none"
               inkscape:connector-curvature="0" /></symbol><symbol
             id="lx-text5551-glyph1-0"
             overflow="visible"
             style="overflow:visible"><path
               id="path6732"
               d=""
               style="stroke:none"
               inkscape:connector-curvature="0" /></symbol><symbol
             id="lx-text5551-glyph1-1"
             overflow="visible"
             style="overflow:visible"><path
               id="path6735"
               d="m 16.140625,-7.75 c 0.328125,0 0.765625,0 0.765625,-0.421875 C 16.90625,-8.625 16.5,-8.625 16.140625,-8.625 l -14.078125,0 c -0.34375,0 -0.765625,0 -0.765625,0.421875 C 1.296875,-7.75 1.703125,-7.75 2.0625,-7.75 Z m 0,4.453125 c 0.328125,0 0.765625,0 0.765625,-0.4375 C 16.90625,-4.1875 16.5,-4.1875 16.140625,-4.1875 l -14.078125,0 c -0.34375,0 -0.765625,0 -0.765625,0.4375 0,0.453125 0.40625,0.453125 0.765625,0.453125 z m 0,0"
               style="stroke:none"
               inkscape:connector-curvature="0" /></symbol><symbol
             id="lx-text5551-glyph2-0"
             overflow="visible"
             style="overflow:visible"><path
               id="path6738"
               d=""
               style="stroke:none"
               inkscape:connector-curvature="0" /></symbol><symbol
             id="lx-text5551-glyph2-1"
             overflow="visible"
             style="overflow:visible"><path
               id="path6741"
               d="m 7.796875,-5.078125 c 0,-1.71875 -0.171875,-2.75 -0.703125,-3.765625 -0.703125,-1.40625 -2,-1.75 -2.875,-1.75 -2,0 -2.734375,1.5 -2.953125,1.9375 -0.578125,1.171875 -0.609375,2.75 -0.609375,3.578125 0,1.046875 0.046875,2.65625 0.8125,3.9375 0.734375,1.171875 1.90625,1.46875 2.75,1.46875 0.765625,0 2.140625,-0.234375 2.9375,-1.8125 C 7.75,-2.625 7.796875,-4.046875 7.796875,-5.078125 Z m -3.578125,4.96875 c -0.53125,0 -1.640625,-0.25 -1.96875,-1.9375 -0.171875,-0.90625 -0.171875,-2.40625 -0.171875,-3.234375 0,-1.09375 0,-2.203125 0.171875,-3.09375 0.328125,-1.625 1.578125,-1.78125 1.96875,-1.78125 0.546875,0 1.640625,0.28125 1.96875,1.71875 0.1875,0.890625 0.1875,2.078125 0.1875,3.15625 0,0.953125 0,2.375 -0.1875,3.265625 -0.34375,1.6875 -1.4375,1.90625 -1.96875,1.90625 z m 0,0"
               style="stroke:none"
               inkscape:connector-curvature="0" /></symbol><symbol
             id="lx-text5551-glyph3-0"
             overflow="visible"
             style="overflow:visible"><path
               id="path6744"
               d=""
               style="stroke:none"
               inkscape:connector-curvature="0" /></symbol><symbol
             id="lx-text5551-glyph3-1"
             overflow="visible"
             style="overflow:visible"><path
               id="path6747"
               d="m 3.078125,-2.203125 c 0.171875,-0.6875 0.34375,-1.359375 0.515625,-2.0625 0.015625,-0.03125 0.125,-0.5 0.140625,-0.578125 0.046875,-0.140625 0.4375,-0.796875 0.859375,-1.203125 0.5,-0.453125 1.046875,-0.53125 1.328125,-0.53125 0.1875,0 0.46875,0.015625 0.6875,0.203125 -0.6875,0.140625 -0.78125,0.734375 -0.78125,0.875 0,0.359375 0.28125,0.59375 0.625,0.59375 0.4375,0 0.90625,-0.359375 0.90625,-0.984375 C 7.359375,-6.46875 6.875,-7.03125 5.953125,-7.03125 4.875,-7.03125 4.140625,-6.3125 3.8125,-5.875 3.484375,-7.03125 2.40625,-7.03125 2.25,-7.03125 c -0.578125,0 -0.96875,0.375 -1.234375,0.859375 -0.359375,0.71875 -0.53125,1.53125 -0.53125,1.578125 0,0.140625 0.109375,0.203125 0.234375,0.203125 0.203125,0 0.21875,-0.0625 0.328125,-0.46875 0.203125,-0.78125 0.484375,-1.71875 1.15625,-1.71875 0.40625,0 0.5,0.390625 0.5,0.75 0,0.28125 -0.078125,0.578125 -0.203125,1.109375 -0.03125,0.125 -0.265625,1.0625 -0.328125,1.296875 l -0.59375,2.390625 c -0.0625,0.234375 -0.15625,0.625 -0.15625,0.703125 0,0.359375 0.296875,0.484375 0.5,0.484375 0.5625,0 0.671875,-0.4375 0.796875,-0.984375 z m 0,0"
               style="stroke:none"
               inkscape:connector-curvature="0" /></symbol></g></defs><g
         id="lx-text5551-surface1"><g
           id="g6750"
           style="fill:#000000;fill-opacity:1"><use
             id="use6752"
             y="0"
             x="0"
             xlink:href="#lx-text5551-glyph0-1"
             width="100%"
             height="100%" /></g><g
           id="g6754"
           style="fill:#000000;fill-opacity:1"><use
             id="use6756"
             y="0"
             x="25.110001"
             xlink:href="#lx-text5551-glyph1-1"
             width="100%"
             height="100%" /></g><g
           id="g6758"
           style="fill:#000000;fill-opacity:1"><use
             id="use6760"
             y="0"
             x="49.959999"
             xlink:href="#lx-text5551-glyph0-2"
             width="100%"
             height="100%" /></g><g
           id="g6762"
           style="fill:#000000;fill-opacity:1"><use
             id="use6764"
             y="3.586"
             x="60.916"
             xlink:href="#lx-text5551-glyph2-1"
             width="100%"
             height="100%" /></g><g
           id="g6766"
           style="fill:#000000;fill-opacity:1"><use
             id="use6768"
             y="0"
             x="70.379997"
             xlink:href="#lx-text5551-glyph0-2"
             width="100%"
             height="100%" /></g><g
           id="g6770"
           style="fill:#000000;fill-opacity:1"><use
             id="use6772"
             y="3.586"
             x="81.335999"
             xlink:href="#lx-text5551-glyph3-1"
             width="100%"
             height="100%" /></g><g
           id="g6774"
           style="fill:#000000;fill-opacity:1"><use
             id="use6776"
             y="-17.992001"
             x="92.837997"
             xlink:href="#lx-text5551-glyph0-3"
             width="100%"
             height="100%" /></g><path
           id="path6778"
           transform="matrix(2,0,0,-2,92.838,-5.978)"
           d="m 7.96875e-4,-7.03125e-4 8.773437125,0"
           style="fill:none;stroke:#000000;stroke-width:0.47799999;stroke-linecap:butt;stroke-linejoin:miter;stroke-miterlimit:10;stroke-opacity:1"
           inkscape:connector-curvature="0" /><g
           id="g6780"
           style="fill:#000000;fill-opacity:1"><use
             id="use6782"
             y="16.402"
             x="95.529999"
             xlink:href="#lx-text5551-glyph0-4"
             width="100%"
             height="100%" /></g></g></g></g></svg>