<?xml version="1.0" encoding="UTF-8" standalone="no"?>
<!-- Created with Inkscape (http://www.inkscape.org/) -->

<svg
   xmlns:dc="http://purl.org/dc/elements/1.1/"
   xmlns:cc="http://creativecommons.org/ns#"
   xmlns:rdf="http://www.w3.org/1999/02/22-rdf-syntax-ns#"
   xmlns:svg="http://www.w3.org/2000/svg"
   xmlns="http://www.w3.org/2000/svg"
   xmlns:sodipodi="http://sodipodi.sourceforge.net/DTD/sodipodi-0.dtd"
   xmlns:inkscape="http://www.inkscape.org/namespaces/inkscape"
   id="svg4704"
   version="1.1"
   inkscape:version="0.91 r13725"
   xml:space="preserve"
   width="423.82501"
   height="254.4547"
   viewBox="0 0 423.82501 254.4547"
   sodipodi:docname="vergleichsmessung_T40_F20_FVA3.pdf"><metadata
     id="metadata4710"><rdf:RDF><cc:Work
         rdf:about=""><dc:format>image/svg+xml</dc:format><dc:type
           rdf:resource="http://purl.org/dc/dcmitype/StillImage" /><dc:title></dc:title></cc:Work></rdf:RDF></metadata><defs
     id="defs4708"><clipPath
       clipPathUnits="userSpaceOnUse"
       id="clipPath4820"><path
         d="m 39.75,30.34375 295.81,0 0,169.72 -295.81,0 0,-169.72 z"
         id="path4822"
         inkscape:connector-curvature="0" /></clipPath><clipPath
       clipPathUnits="userSpaceOnUse"
       id="clipPath4830"><path
         d="m -3.5,-3.5 7,0 0,7 -7,0 0,-7 z"
         id="path4832"
         inkscape:connector-curvature="0" /></clipPath><clipPath
       clipPathUnits="userSpaceOnUse"
       id="clipPath4842"><path
         d="m -3.5,-3.5 7,0 0,7 -7,0 0,-7 z"
         id="path4844"
         inkscape:connector-curvature="0" /></clipPath><clipPath
       clipPathUnits="userSpaceOnUse"
       id="clipPath4854"><path
         d="m -3.5,-3.5 7,0 0,7 -7,0 0,-7 z"
         id="path4856"
         inkscape:connector-curvature="0" /></clipPath><clipPath
       clipPathUnits="userSpaceOnUse"
       id="clipPath4866"><path
         d="m -3.5,-3.5 7,0 0,7 -7,0 0,-7 z"
         id="path4868"
         inkscape:connector-curvature="0" /></clipPath><clipPath
       clipPathUnits="userSpaceOnUse"
       id="clipPath4878"><path
         d="m -3.5,-3.5 7,0 0,7 -7,0 0,-7 z"
         id="path4880"
         inkscape:connector-curvature="0" /></clipPath><clipPath
       clipPathUnits="userSpaceOnUse"
       id="clipPath4890"><path
         d="m -3.5,-3.5 7,0 0,7 -7,0 0,-7 z"
         id="path4892"
         inkscape:connector-curvature="0" /></clipPath><clipPath
       clipPathUnits="userSpaceOnUse"
       id="clipPath4902"><path
         d="m -3.5,-3.5 7,0 0,7 -7,0 0,-7 z"
         id="path4904"
         inkscape:connector-curvature="0" /></clipPath><clipPath
       clipPathUnits="userSpaceOnUse"
       id="clipPath4914"><path
         d="m -3.5,-3.5 7,0 0,7 -7,0 0,-7 z"
         id="path4916"
         inkscape:connector-curvature="0" /></clipPath><clipPath
       clipPathUnits="userSpaceOnUse"
       id="clipPath4926"><path
         d="m -3.5,-3.5 7,0 0,7 -7,0 0,-7 z"
         id="path4928"
         inkscape:connector-curvature="0" /></clipPath><clipPath
       clipPathUnits="userSpaceOnUse"
       id="clipPath4938"><path
         d="m -3.5,-3.5 7,0 0,7 -7,0 0,-7 z"
         id="path4940"
         inkscape:connector-curvature="0" /></clipPath><clipPath
       clipPathUnits="userSpaceOnUse"
       id="clipPath4950"><path
         d="m -3.5,-3.5 7,0 0,7 -7,0 0,-7 z"
         id="path4952"
         inkscape:connector-curvature="0" /></clipPath><clipPath
       clipPathUnits="userSpaceOnUse"
       id="clipPath4962"><path
         d="m -3.5,-3.5 7,0 0,7 -7,0 0,-7 z"
         id="path4964"
         inkscape:connector-curvature="0" /></clipPath><clipPath
       clipPathUnits="userSpaceOnUse"
       id="clipPath4972"><path
         d="m 39.75,30.34375 295.81,0 0,169.72 -295.81,0 0,-169.72 z"
         id="path4974"
         inkscape:connector-curvature="0" /></clipPath><clipPath
       clipPathUnits="userSpaceOnUse"
       id="clipPath4982"><path
         d="m -3.5,-3.5 7,0 0,7 -7,0 0,-7 z"
         id="path4984"
         inkscape:connector-curvature="0" /></clipPath><clipPath
       clipPathUnits="userSpaceOnUse"
       id="clipPath4994"><path
         d="m -3.5,-3.5 7,0 0,7 -7,0 0,-7 z"
         id="path4996"
         inkscape:connector-curvature="0" /></clipPath><clipPath
       clipPathUnits="userSpaceOnUse"
       id="clipPath5006"><path
         d="m -3.5,-3.5 7,0 0,7 -7,0 0,-7 z"
         id="path5008"
         inkscape:connector-curvature="0" /></clipPath><clipPath
       clipPathUnits="userSpaceOnUse"
       id="clipPath5018"><path
         d="m -3.5,-3.5 7,0 0,7 -7,0 0,-7 z"
         id="path5020"
         inkscape:connector-curvature="0" /></clipPath><clipPath
       clipPathUnits="userSpaceOnUse"
       id="clipPath5030"><path
         d="m -3.5,-3.5 7,0 0,7 -7,0 0,-7 z"
         id="path5032"
         inkscape:connector-curvature="0" /></clipPath><clipPath
       clipPathUnits="userSpaceOnUse"
       id="clipPath5042"><path
         d="m -3.5,-3.5 7,0 0,7 -7,0 0,-7 z"
         id="path5044"
         inkscape:connector-curvature="0" /></clipPath><clipPath
       clipPathUnits="userSpaceOnUse"
       id="clipPath5054"><path
         d="m -3.5,-3.5 7,0 0,7 -7,0 0,-7 z"
         id="path5056"
         inkscape:connector-curvature="0" /></clipPath><clipPath
       clipPathUnits="userSpaceOnUse"
       id="clipPath5064"><path
         d="m 39.75,30.34375 295.81,0 0,169.72 -295.81,0 0,-169.72 z"
         id="path5066"
         inkscape:connector-curvature="0" /></clipPath></defs><sodipodi:namedview
     pagecolor="#ffffff"
     bordercolor="#666666"
     borderopacity="1"
     objecttolerance="10"
     gridtolerance="10"
     guidetolerance="10"
     inkscape:pageopacity="0"
     inkscape:pageshadow="2"
     inkscape:window-width="1855"
     inkscape:window-height="1056"
     id="namedview4706"
     showgrid="false"
     inkscape:zoom="1.1461862"
     inkscape:cx="185.40879"
     inkscape:cy="128.08103"
     inkscape:window-x="65"
     inkscape:window-y="24"
     inkscape:window-maximized="1"
     inkscape:current-layer="g4712" /><g
     id="g4712"
     inkscape:groupmode="layer"
     inkscape:label="vergleichsmessung_T40_F20_FVA3"
     transform="matrix(1.25,0,0,-1.25,0,254.45469)"><path
       d="m 0,0 339.06,0 0,203.56375 -339.06,0 L 0,0 Z"
       style="fill:#ffffff;fill-opacity:1;fill-rule:nonzero;stroke:none"
       id="path4714"
       inkscape:connector-curvature="0" /><path
       d="m 39.75,30.34375 295.81,0 0,169.72 -295.81,0 0,-169.72 z"
       style="fill:#ffffff;fill-opacity:1;fill-rule:nonzero;stroke:none"
       id="path4716"
       inkscape:connector-curvature="0" /><path
       d="m 39.75,30.34375 0,-3.5"
       style="fill:#000000;fill-opacity:1;fill-rule:nonzero;stroke:#000000;stroke-width:0.80000001;stroke-linecap:butt;stroke-linejoin:round;stroke-miterlimit:10;stroke-dasharray:none;stroke-opacity:1"
       id="path4718"
       inkscape:connector-curvature="0" /><text
       transform="matrix(1,0,0,-1,31.796875,15.75)"
       style="font-variant:normal;font-weight:normal;font-size:10px;font-family:'DejaVu Sans';-inkscape-font-specification:DejaVuSans;writing-mode:lr-tb;fill:#000000;fill-opacity:1;fill-rule:nonzero;stroke:none"
       id="text4720"><tspan
         x="0 6.3600001 9.54"
         y="0"
         sodipodi:role="line"
         id="tspan4722">0.0</tspan></text>
<path
       d="m 79.191333,30.34375 0,-3.5"
       style="fill:#000000;fill-opacity:1;fill-rule:nonzero;stroke:#000000;stroke-width:0.80000001;stroke-linecap:butt;stroke-linejoin:round;stroke-miterlimit:10;stroke-dasharray:none;stroke-opacity:1"
       id="path4724"
       inkscape:connector-curvature="0" /><text
       transform="matrix(1,0,0,-1,71.238208,15.75)"
       style="font-variant:normal;font-weight:normal;font-size:10px;font-family:'DejaVu Sans';-inkscape-font-specification:DejaVuSans;writing-mode:lr-tb;fill:#000000;fill-opacity:1;fill-rule:nonzero;stroke:none"
       id="text4726"><tspan
         x="0 6.3600001 9.54"
         y="0"
         sodipodi:role="line"
         id="tspan4728">0.2</tspan></text>
<path
       d="m 118.63267,30.34375 0,-3.5"
       style="fill:#000000;fill-opacity:1;fill-rule:nonzero;stroke:#000000;stroke-width:0.80000001;stroke-linecap:butt;stroke-linejoin:round;stroke-miterlimit:10;stroke-dasharray:none;stroke-opacity:1"
       id="path4730"
       inkscape:connector-curvature="0" /><text
       transform="matrix(1,0,0,-1,110.67954,15.75)"
       style="font-variant:normal;font-weight:normal;font-size:10px;font-family:'DejaVu Sans';-inkscape-font-specification:DejaVuSans;writing-mode:lr-tb;fill:#000000;fill-opacity:1;fill-rule:nonzero;stroke:none"
       id="text4732"><tspan
         x="0 6.3600001 9.54"
         y="0"
         sodipodi:role="line"
         id="tspan4734">0.4</tspan></text>
<path
       d="m 158.074,30.34375 0,-3.5"
       style="fill:#000000;fill-opacity:1;fill-rule:nonzero;stroke:#000000;stroke-width:0.80000001;stroke-linecap:butt;stroke-linejoin:round;stroke-miterlimit:10;stroke-dasharray:none;stroke-opacity:1"
       id="path4736"
       inkscape:connector-curvature="0" /><text
       transform="matrix(1,0,0,-1,150.12087,15.75)"
       style="font-variant:normal;font-weight:normal;font-size:10px;font-family:'DejaVu Sans';-inkscape-font-specification:DejaVuSans;writing-mode:lr-tb;fill:#000000;fill-opacity:1;fill-rule:nonzero;stroke:none"
       id="text4738"><tspan
         x="0 6.3600001 9.54"
         y="0"
         sodipodi:role="line"
         id="tspan4740">0.6</tspan></text>
<path
       d="m 197.51533,30.34375 0,-3.5"
       style="fill:#000000;fill-opacity:1;fill-rule:nonzero;stroke:#000000;stroke-width:0.80000001;stroke-linecap:butt;stroke-linejoin:round;stroke-miterlimit:10;stroke-dasharray:none;stroke-opacity:1"
       id="path4742"
       inkscape:connector-curvature="0" /><text
       transform="matrix(1,0,0,-1,189.56221,15.75)"
       style="font-variant:normal;font-weight:normal;font-size:10px;font-family:'DejaVu Sans';-inkscape-font-specification:DejaVuSans;writing-mode:lr-tb;fill:#000000;fill-opacity:1;fill-rule:nonzero;stroke:none"
       id="text4744"><tspan
         x="0 6.3600001 9.54"
         y="0"
         sodipodi:role="line"
         id="tspan4746">0.8</tspan></text>
<path
       d="m 236.95667,30.34375 0,-3.5"
       style="fill:#000000;fill-opacity:1;fill-rule:nonzero;stroke:#000000;stroke-width:0.80000001;stroke-linecap:butt;stroke-linejoin:round;stroke-miterlimit:10;stroke-dasharray:none;stroke-opacity:1"
       id="path4748"
       inkscape:connector-curvature="0" /><text
       transform="matrix(1,0,0,-1,229.00354,15.75)"
       style="font-variant:normal;font-weight:normal;font-size:10px;font-family:'DejaVu Sans';-inkscape-font-specification:DejaVuSans;writing-mode:lr-tb;fill:#000000;fill-opacity:1;fill-rule:nonzero;stroke:none"
       id="text4750"><tspan
         x="0 6.3600001 9.54"
         y="0"
         sodipodi:role="line"
         id="tspan4752">1.0</tspan></text>
<path
       d="m 276.398,30.34375 0,-3.5"
       style="fill:#000000;fill-opacity:1;fill-rule:nonzero;stroke:#000000;stroke-width:0.80000001;stroke-linecap:butt;stroke-linejoin:round;stroke-miterlimit:10;stroke-dasharray:none;stroke-opacity:1"
       id="path4754"
       inkscape:connector-curvature="0" /><text
       transform="matrix(1,0,0,-1,268.44488,15.75)"
       style="font-variant:normal;font-weight:normal;font-size:10px;font-family:'DejaVu Sans';-inkscape-font-specification:DejaVuSans;writing-mode:lr-tb;fill:#000000;fill-opacity:1;fill-rule:nonzero;stroke:none"
       id="text4756"><tspan
         x="0 6.3600001 9.54"
         y="0"
         sodipodi:role="line"
         id="tspan4758">1.2</tspan></text>
<path
       d="m 315.83933,30.34375 0,-3.5"
       style="fill:#000000;fill-opacity:1;fill-rule:nonzero;stroke:#000000;stroke-width:0.80000001;stroke-linecap:butt;stroke-linejoin:round;stroke-miterlimit:10;stroke-dasharray:none;stroke-opacity:1"
       id="path4760"
       inkscape:connector-curvature="0" /><text
       transform="matrix(1,0,0,-1,307.88621,15.75)"
       style="font-variant:normal;font-weight:normal;font-size:10px;font-family:'DejaVu Sans';-inkscape-font-specification:DejaVuSans;writing-mode:lr-tb;fill:#000000;fill-opacity:1;fill-rule:nonzero;stroke:none"
       id="text4762"><tspan
         x="0 6.3600001 9.54"
         y="0"
         sodipodi:role="line"
         id="tspan4764">1.4</tspan></text>
<text
       transform="matrix(1,0,0,-1,157.31125,2.078125)"
       style="font-variant:normal;font-weight:normal;font-size:10px;font-family:'DejaVu Sans';-inkscape-font-specification:DejaVuSans;writing-mode:lr-tb;fill:#000000;fill-opacity:1;fill-rule:nonzero;stroke:none"
       id="text4766"><tspan
         x="0 6.3499999 12.7 18.85 25 31.35 34.529999 38.43 48.169998 51.540001 56.75"
         y="0"
         sodipodi:role="line"
         id="tspan4768">Speed [m/s]</tspan></text>
<path
       d="m 39.75,30.34375 -3.5,0"
       style="fill:#000000;fill-opacity:1;fill-rule:nonzero;stroke:#000000;stroke-width:0.80000001;stroke-linecap:butt;stroke-linejoin:round;stroke-miterlimit:10;stroke-dasharray:none;stroke-opacity:1"
       id="path4770"
       inkscape:connector-curvature="0" /><text
       transform="matrix(1,0,0,-1,26.390625,26.546875)"
       style="font-variant:normal;font-weight:normal;font-size:10px;font-family:'DejaVu Sans';-inkscape-font-specification:DejaVuSans;writing-mode:lr-tb;fill:#000000;fill-opacity:1;fill-rule:nonzero;stroke:none"
       id="text4772"><tspan
         x="0"
         y="0"
         id="tspan4774">0</tspan></text>
<path
       d="m 39.75,56.454519 -3.5,0"
       style="fill:#000000;fill-opacity:1;fill-rule:nonzero;stroke:#000000;stroke-width:0.80000001;stroke-linecap:butt;stroke-linejoin:round;stroke-miterlimit:10;stroke-dasharray:none;stroke-opacity:1"
       id="path4776"
       inkscape:connector-curvature="0" /><text
       transform="matrix(1,0,0,-1,13.671875,52.657644)"
       style="font-variant:normal;font-weight:normal;font-size:10px;font-family:'DejaVu Sans';-inkscape-font-specification:DejaVuSans;writing-mode:lr-tb;fill:#000000;fill-opacity:1;fill-rule:nonzero;stroke:none"
       id="text4778"><tspan
         x="0 6.3600001 12.72"
         y="0"
         sodipodi:role="line"
         id="tspan4780">100</tspan></text>
<path
       d="m 39.75,82.565288 -3.5,0"
       style="fill:#000000;fill-opacity:1;fill-rule:nonzero;stroke:#000000;stroke-width:0.80000001;stroke-linecap:butt;stroke-linejoin:round;stroke-miterlimit:10;stroke-dasharray:none;stroke-opacity:1"
       id="path4782"
       inkscape:connector-curvature="0" /><text
       transform="matrix(1,0,0,-1,13.671875,78.768413)"
       style="font-variant:normal;font-weight:normal;font-size:10px;font-family:'DejaVu Sans';-inkscape-font-specification:DejaVuSans;writing-mode:lr-tb;fill:#000000;fill-opacity:1;fill-rule:nonzero;stroke:none"
       id="text4784"><tspan
         x="0 6.3600001 12.72"
         y="0"
         sodipodi:role="line"
         id="tspan4786">200</tspan></text>
<path
       d="m 39.75,108.67606 -3.5,0"
       style="fill:#000000;fill-opacity:1;fill-rule:nonzero;stroke:#000000;stroke-width:0.80000001;stroke-linecap:butt;stroke-linejoin:round;stroke-miterlimit:10;stroke-dasharray:none;stroke-opacity:1"
       id="path4788"
       inkscape:connector-curvature="0" /><text
       transform="matrix(1,0,0,-1,13.671875,104.87918)"
       style="font-variant:normal;font-weight:normal;font-size:10px;font-family:'DejaVu Sans';-inkscape-font-specification:DejaVuSans;writing-mode:lr-tb;fill:#000000;fill-opacity:1;fill-rule:nonzero;stroke:none"
       id="text4790"><tspan
         x="0 6.3600001 12.72"
         y="0"
         sodipodi:role="line"
         id="tspan4792">300</tspan></text>
<path
       d="m 39.75,134.78683 -3.5,0"
       style="fill:#000000;fill-opacity:1;fill-rule:nonzero;stroke:#000000;stroke-width:0.80000001;stroke-linecap:butt;stroke-linejoin:round;stroke-miterlimit:10;stroke-dasharray:none;stroke-opacity:1"
       id="path4794"
       inkscape:connector-curvature="0" /><text
       transform="matrix(1,0,0,-1,13.671875,130.98995)"
       style="font-variant:normal;font-weight:normal;font-size:10px;font-family:'DejaVu Sans';-inkscape-font-specification:DejaVuSans;writing-mode:lr-tb;fill:#000000;fill-opacity:1;fill-rule:nonzero;stroke:none"
       id="text4796"><tspan
         x="0 6.3600001 12.72"
         y="0"
         sodipodi:role="line"
         id="tspan4798">400</tspan></text>
<path
       d="m 39.75,160.8976 -3.5,0"
       style="fill:#000000;fill-opacity:1;fill-rule:nonzero;stroke:#000000;stroke-width:0.80000001;stroke-linecap:butt;stroke-linejoin:round;stroke-miterlimit:10;stroke-dasharray:none;stroke-opacity:1"
       id="path4800"
       inkscape:connector-curvature="0" /><text
       transform="matrix(1,0,0,-1,13.671875,157.10072)"
       style="font-variant:normal;font-weight:normal;font-size:10px;font-family:'DejaVu Sans';-inkscape-font-specification:DejaVuSans;writing-mode:lr-tb;fill:#000000;fill-opacity:1;fill-rule:nonzero;stroke:none"
       id="text4802"><tspan
         x="0 6.3600001 12.72"
         y="0"
         sodipodi:role="line"
         id="tspan4804">500</tspan></text>
<path
       d="m 39.75,187.00836 -3.5,0"
       style="fill:#000000;fill-opacity:1;fill-rule:nonzero;stroke:#000000;stroke-width:0.80000001;stroke-linecap:butt;stroke-linejoin:round;stroke-miterlimit:10;stroke-dasharray:none;stroke-opacity:1"
       id="path4806"
       inkscape:connector-curvature="0" /><text
       transform="matrix(1,0,0,-1,13.671875,183.21149)"
       style="font-variant:normal;font-weight:normal;font-size:10px;font-family:'DejaVu Sans';-inkscape-font-specification:DejaVuSans;writing-mode:lr-tb;fill:#000000;fill-opacity:1;fill-rule:nonzero;stroke:none"
       id="text4808"><tspan
         x="0 6.3600001 12.72"
         y="0"
         sodipodi:role="line"
         id="tspan4810">600</tspan></text>
<text
       transform="matrix(0,1,1,0,7.59375,91.125625)"
       style="font-variant:normal;font-weight:normal;font-size:10px;font-family:'DejaVu Sans';-inkscape-font-specification:DejaVuSans;writing-mode:lr-tb;fill:#000000;fill-opacity:1;fill-rule:nonzero;stroke:none"
       id="text4812"><tspan
         x="0 5.75 8.5299997 11.31 21.049999 24.23 28.129999 34.470001 44.209999"
         y="0"
         sodipodi:role="line"
         id="tspan4814">Film [nm]</tspan></text>
<g
       id="g4816"><g
         id="g4818"
         clip-path="url(#clipPath4820)"><g
           id="g4824"
           transform="translate(43.994676,41.858759)"><g
             id="g4826"><g
               id="g4828"
               clip-path="url(#clipPath4830)"><path
                 d="m 0,-3 c 0.795609,0 1.55874,0.316099 2.12132,0.87868 C 2.683901,-1.55874 3,-0.795609 3,0 3,0.795609 2.683901,1.55874 2.12132,2.12132 1.55874,2.683901 0.795609,3 0,3 -0.795609,3 -1.55874,2.683901 -2.12132,2.12132 -2.683901,1.55874 -3,0.795609 -3,0 -3,-0.795609 -2.683901,-1.55874 -2.12132,-2.12132 -1.55874,-2.683901 -0.795609,-3 0,-3 Z"
                 style="fill:#1f77b4;fill-opacity:1;fill-rule:nonzero;stroke:#1f77b4;stroke-width:1;stroke-linecap:butt;stroke-linejoin:round;stroke-miterlimit:10;stroke-dasharray:none;stroke-opacity:1"
                 id="path4834"
                 inkscape:connector-curvature="0" /></g></g><g
             id="g4836"
             transform="translate(3.7307143,3.8368835)"><g
               id="g4838"><g
                 id="g4840"
                 clip-path="url(#clipPath4842)"><path
                   d="m 0,-3 c 0.795609,0 1.55874,0.316099 2.12132,0.87868 C 2.683901,-1.55874 3,-0.795609 3,0 3,0.795609 2.683901,1.55874 2.12132,2.12132 1.55874,2.683901 0.795609,3 0,3 -0.795609,3 -1.55874,2.683901 -2.12132,2.12132 -2.683901,1.55874 -3,0.795609 -3,0 -3,-0.795609 -2.683901,-1.55874 -2.12132,-2.12132 -1.55874,-2.683901 -0.795609,-3 0,-3 Z"
                   style="fill:#1f77b4;fill-opacity:1;fill-rule:nonzero;stroke:#1f77b4;stroke-width:1;stroke-linecap:butt;stroke-linejoin:round;stroke-miterlimit:10;stroke-dasharray:none;stroke-opacity:1"
                   id="path4846"
                   inkscape:connector-curvature="0" /></g></g><g
               id="g4848"
               transform="translate(7.1824226,5.4486987)"><g
                 id="g4850"><g
                   id="g4852"
                   clip-path="url(#clipPath4854)"><path
                     d="m 0,-3 c 0.795609,0 1.55874,0.316099 2.12132,0.87868 C 2.683901,-1.55874 3,-0.795609 3,0 3,0.795609 2.683901,1.55874 2.12132,2.12132 1.55874,2.683901 0.795609,3 0,3 -0.795609,3 -1.55874,2.683901 -2.12132,2.12132 -2.683901,1.55874 -3,0.795609 -3,0 -3,-0.795609 -2.683901,-1.55874 -2.12132,-2.12132 -1.55874,-2.683901 -0.795609,-3 0,-3 Z"
                     style="fill:#1f77b4;fill-opacity:1;fill-rule:nonzero;stroke:#1f77b4;stroke-width:1;stroke-linecap:butt;stroke-linejoin:round;stroke-miterlimit:10;stroke-dasharray:none;stroke-opacity:1"
                     id="path4858"
                     inkscape:connector-curvature="0" /></g></g><g
                 id="g4860"
                 transform="translate(6.0292034,4.2108028)"><g
                   id="g4862"><g
                     id="g4864"
                     clip-path="url(#clipPath4866)"><path
                       d="m 0,-3 c 0.795609,0 1.55874,0.316099 2.12132,0.87868 C 2.683901,-1.55874 3,-0.795609 3,0 3,0.795609 2.683901,1.55874 2.12132,2.12132 1.55874,2.683901 0.795609,3 0,3 -0.795609,3 -1.55874,2.683901 -2.12132,2.12132 -2.683901,1.55874 -3,0.795609 -3,0 -3,-0.795609 -2.683901,-1.55874 -2.12132,-2.12132 -1.55874,-2.683901 -0.795609,-3 0,-3 Z"
                       style="fill:#1f77b4;fill-opacity:1;fill-rule:nonzero;stroke:#1f77b4;stroke-width:1;stroke-linecap:butt;stroke-linejoin:round;stroke-miterlimit:10;stroke-dasharray:none;stroke-opacity:1"
                       id="path4870"
                       inkscape:connector-curvature="0" /></g></g><g
                   id="g4872"
                   transform="translate(8.582513,7.3182298)"><g
                     id="g4874"><g
                       id="g4876"
                       clip-path="url(#clipPath4878)"><path
                         d="m 0,-3 c 0.795609,0 1.55874,0.316099 2.12132,0.87868 C 2.683901,-1.55874 3,-0.795609 3,0 3,0.795609 2.683901,1.55874 2.12132,2.12132 1.55874,2.683901 0.795609,3 0,3 -0.795609,3 -1.55874,2.683901 -2.12132,2.12132 -2.683901,1.55874 -3,0.795609 -3,0 -3,-0.795609 -2.683901,-1.55874 -2.12132,-2.12132 -1.55874,-2.683901 -0.795609,-3 0,-3 Z"
                         style="fill:#1f77b4;fill-opacity:1;fill-rule:nonzero;stroke:#1f77b4;stroke-width:1;stroke-linecap:butt;stroke-linejoin:round;stroke-miterlimit:10;stroke-dasharray:none;stroke-opacity:1"
                         id="path4882"
                         inkscape:connector-curvature="0" /></g></g><g
                     id="g4884"
                     transform="translate(11.804278,6.5260473)"><g
                       id="g4886"><g
                         id="g4888"
                         clip-path="url(#clipPath4890)"><path
                           d="m 0,-3 c 0.795609,0 1.55874,0.316099 2.12132,0.87868 C 2.683901,-1.55874 3,-0.795609 3,0 3,0.795609 2.683901,1.55874 2.12132,2.12132 1.55874,2.683901 0.795609,3 0,3 -0.795609,3 -1.55874,2.683901 -2.12132,2.12132 -2.683901,1.55874 -3,0.795609 -3,0 -3,-0.795609 -2.683901,-1.55874 -2.12132,-2.12132 -1.55874,-2.683901 -0.795609,-3 0,-3 Z"
                           style="fill:#1f77b4;fill-opacity:1;fill-rule:nonzero;stroke:#1f77b4;stroke-width:1;stroke-linecap:butt;stroke-linejoin:round;stroke-miterlimit:10;stroke-dasharray:none;stroke-opacity:1"
                           id="path4894"
                           inkscape:connector-curvature="0" /></g></g><g
                       id="g4896"
                       transform="translate(16.343443,10.612879)"><g
                         id="g4898"><g
                           id="g4900"
                           clip-path="url(#clipPath4902)"><path
                             d="m 0,-3 c 0.795609,0 1.55874,0.316099 2.12132,0.87868 C 2.683901,-1.55874 3,-0.795609 3,0 3,0.795609 2.683901,1.55874 2.12132,2.12132 1.55874,2.683901 0.795609,3 0,3 -0.795609,3 -1.55874,2.683901 -2.12132,2.12132 -2.683901,1.55874 -3,0.795609 -3,0 -3,-0.795609 -2.683901,-1.55874 -2.12132,-2.12132 -1.55874,-2.683901 -0.795609,-3 0,-3 Z"
                             style="fill:#1f77b4;fill-opacity:1;fill-rule:nonzero;stroke:#1f77b4;stroke-width:1;stroke-linecap:butt;stroke-linejoin:round;stroke-miterlimit:10;stroke-dasharray:none;stroke-opacity:1"
                             id="path4906"
                             inkscape:connector-curvature="0" /></g></g><g
                         id="g4908"
                         transform="translate(23.050048,10.377334)"><g
                           id="g4910"><g
                             id="g4912"
                             clip-path="url(#clipPath4914)"><path
                               d="m 0,-3 c 0.795609,0 1.55874,0.316099 2.12132,0.87868 C 2.683901,-1.55874 3,-0.795609 3,0 3,0.795609 2.683901,1.55874 2.12132,2.12132 1.55874,2.683901 0.795609,3 0,3 -0.795609,3 -1.55874,2.683901 -2.12132,2.12132 -2.683901,1.55874 -3,0.795609 -3,0 -3,-0.795609 -2.683901,-1.55874 -2.12132,-2.12132 -1.55874,-2.683901 -0.795609,-3 0,-3 Z"
                               style="fill:#1f77b4;fill-opacity:1;fill-rule:nonzero;stroke:#1f77b4;stroke-width:1;stroke-linecap:butt;stroke-linejoin:round;stroke-miterlimit:10;stroke-dasharray:none;stroke-opacity:1"
                               id="path4918"
                               inkscape:connector-curvature="0" /></g></g><g
                           id="g4920"
                           transform="translate(32.476684,16.670682)"><g
                             id="g4922"><g
                               id="g4924"
                               clip-path="url(#clipPath4926)"><path
                                 d="m 0,-3 c 0.795609,0 1.55874,0.316099 2.12132,0.87868 C 2.683901,-1.55874 3,-0.795609 3,0 3,0.795609 2.683901,1.55874 2.12132,2.12132 1.55874,2.683901 0.795609,3 0,3 -0.795609,3 -1.55874,2.683901 -2.12132,2.12132 -2.683901,1.55874 -3,0.795609 -3,0 -3,-0.795609 -2.683901,-1.55874 -2.12132,-2.12132 -1.55874,-2.683901 -0.795609,-3 0,-3 Z"
                                 style="fill:#1f77b4;fill-opacity:1;fill-rule:nonzero;stroke:#1f77b4;stroke-width:1;stroke-linecap:butt;stroke-linejoin:round;stroke-miterlimit:10;stroke-dasharray:none;stroke-opacity:1"
                                 id="path4930"
                                 inkscape:connector-curvature="0" /></g></g><g
                             id="g4932"
                             transform="translate(33.888467,13.569558)"><g
                               id="g4934"><g
                                 id="g4936"
                                 clip-path="url(#clipPath4938)"><path
                                   d="m 0,-3 c 0.795609,0 1.55874,0.316099 2.12132,0.87868 C 2.683901,-1.55874 3,-0.795609 3,0 3,0.795609 2.683901,1.55874 2.12132,2.12132 1.55874,2.683901 0.795609,3 0,3 -0.795609,3 -1.55874,2.683901 -2.12132,2.12132 -2.683901,1.55874 -3,0.795609 -3,0 -3,-0.795609 -2.683901,-1.55874 -2.12132,-2.12132 -1.55874,-2.683901 -0.795609,-3 0,-3 Z"
                                   style="fill:#1f77b4;fill-opacity:1;fill-rule:nonzero;stroke:#1f77b4;stroke-width:1;stroke-linecap:butt;stroke-linejoin:round;stroke-miterlimit:10;stroke-dasharray:none;stroke-opacity:1"
                                   id="path4942"
                                   inkscape:connector-curvature="0" /></g></g><g
                               id="g4944"
                               transform="translate(59.216291,31.519798)"><g
                                 id="g4946"><g
                                   id="g4948"
                                   clip-path="url(#clipPath4950)"><path
                                   d="m 0,-3 c 0.795609,0 1.55874,0.316099 2.12132,0.87868 C 2.683901,-1.55874 3,-0.795609 3,0 3,0.795609 2.683901,1.55874 2.12132,2.12132 1.55874,2.683901 0.795609,3 0,3 -0.795609,3 -1.55874,2.683901 -2.12132,2.12132 -2.683901,1.55874 -3,0.795609 -3,0 -3,-0.795609 -2.683901,-1.55874 -2.12132,-2.12132 -1.55874,-2.683901 -0.795609,-3 0,-3 Z"
                                   style="fill:#1f77b4;fill-opacity:1;fill-rule:nonzero;stroke:#1f77b4;stroke-width:1;stroke-linecap:butt;stroke-linejoin:round;stroke-miterlimit:10;stroke-dasharray:none;stroke-opacity:1"
                                   id="path4954"
                                   inkscape:connector-curvature="0" /></g></g><g
                                 id="g4956"
                                 transform="translate(83.179997,22.696917)"><g
                                   id="g4958"><g
                                   id="g4960"
                                   clip-path="url(#clipPath4962)"><path
                                   d="m 0,-3 c 0.795609,0 1.55874,0.316099 2.12132,0.87868 C 2.683901,-1.55874 3,-0.795609 3,0 3,0.795609 2.683901,1.55874 2.12132,2.12132 1.55874,2.683901 0.795609,3 0,3 -0.795609,3 -1.55874,2.683901 -2.12132,2.12132 -2.683901,1.55874 -3,0.795609 -3,0 -3,-0.795609 -2.683901,-1.55874 -2.12132,-2.12132 -1.55874,-2.683901 -0.795609,-3 0,-3 Z"
                                   style="fill:#1f77b4;fill-opacity:1;fill-rule:nonzero;stroke:#1f77b4;stroke-width:1;stroke-linecap:butt;stroke-linejoin:round;stroke-miterlimit:10;stroke-dasharray:none;stroke-opacity:1"
                                   id="path4966"
                                   inkscape:connector-curvature="0" /></g></g></g></g></g></g></g></g></g></g></g></g></g></g></g></g><g
       id="g4968"><g
         id="g4970"
         clip-path="url(#clipPath4972)"><g
           id="g4976"
           transform="translate(59.642335,56.138448)"><g
             id="g4978"><g
               id="g4980"
               clip-path="url(#clipPath4982)"><path
                 d="M 0,3 -3,-3 3,-3 0,3 Z"
                 style="fill:#ff7f0e;fill-opacity:1;fill-rule:nonzero;stroke:#ff7f0e;stroke-width:1;stroke-linecap:butt;stroke-linejoin:miter;stroke-miterlimit:10;stroke-dasharray:none;stroke-opacity:1"
                 id="path4986"
                 inkscape:connector-curvature="0" /></g></g><g
             id="g4988"
             transform="translate(7.7350765,5.2437736)"><g
               id="g4990"><g
                 id="g4992"
                 clip-path="url(#clipPath4994)"><path
                   d="M 0,3 -3,-3 3,-3 0,3 Z"
                   style="fill:#ff7f0e;fill-opacity:1;fill-rule:nonzero;stroke:#ff7f0e;stroke-width:1;stroke-linecap:butt;stroke-linejoin:miter;stroke-miterlimit:10;stroke-dasharray:none;stroke-opacity:1"
                   id="path4998"
                   inkscape:connector-curvature="0" /></g></g><g
               id="g5000"
               transform="translate(26.092808,15.871222)"><g
                 id="g5002"><g
                   id="g5004"
                   clip-path="url(#clipPath5006)"><path
                     d="M 0,3 -3,-3 3,-3 0,3 Z"
                     style="fill:#ff7f0e;fill-opacity:1;fill-rule:nonzero;stroke:#ff7f0e;stroke-width:1;stroke-linecap:butt;stroke-linejoin:miter;stroke-miterlimit:10;stroke-dasharray:none;stroke-opacity:1"
                     id="path5010"
                     inkscape:connector-curvature="0" /></g></g><g
                 id="g5012"
                 transform="translate(21.566422,9.3264012)"><g
                   id="g5014"><g
                     id="g5016"
                     clip-path="url(#clipPath5018)"><path
                       d="M 0,3 -3,-3 3,-3 0,3 Z"
                       style="fill:#ff7f0e;fill-opacity:1;fill-rule:nonzero;stroke:#ff7f0e;stroke-width:1;stroke-linecap:butt;stroke-linejoin:miter;stroke-miterlimit:10;stroke-dasharray:none;stroke-opacity:1"
                       id="path5022"
                       inkscape:connector-curvature="0" /></g></g><g
                   id="g5024"
                   transform="translate(72.092604,39.698317)"><g
                     id="g5026"><g
                       id="g5028"
                       clip-path="url(#clipPath5030)"><path
                         d="M 0,3 -3,-3 3,-3 0,3 Z"
                         style="fill:#ff7f0e;fill-opacity:1;fill-rule:nonzero;stroke:#ff7f0e;stroke-width:1;stroke-linecap:butt;stroke-linejoin:miter;stroke-miterlimit:10;stroke-dasharray:none;stroke-opacity:1"
                         id="path5034"
                         inkscape:connector-curvature="0" /></g></g><g
                     id="g5036"
                     transform="translate(59.283282,19.300741)"><g
                       id="g5038"><g
                         id="g5040"
                         clip-path="url(#clipPath5042)"><path
                           d="M 0,3 -3,-3 3,-3 0,3 Z"
                           style="fill:#ff7f0e;fill-opacity:1;fill-rule:nonzero;stroke:#ff7f0e;stroke-width:1;stroke-linecap:butt;stroke-linejoin:miter;stroke-miterlimit:10;stroke-dasharray:none;stroke-opacity:1"
                           id="path5046"
                           inkscape:connector-curvature="0" /></g></g><g
                       id="g5048"
                       transform="translate(82.75265,36.36956)"><g
                         id="g5050"><g
                           id="g5052"
                           clip-path="url(#clipPath5054)"><path
                             d="M 0,3 -3,-3 3,-3 0,3 Z"
                             style="fill:#ff7f0e;fill-opacity:1;fill-rule:nonzero;stroke:#ff7f0e;stroke-width:1;stroke-linecap:butt;stroke-linejoin:miter;stroke-miterlimit:10;stroke-dasharray:none;stroke-opacity:1"
                             id="path5058"
                             inkscape:connector-curvature="0" /></g></g></g></g></g></g></g></g></g></g></g><g
       id="g5060"><g
         id="g5062"
         clip-path="url(#clipPath5064)"><path
           d="m 41.722067,35.586168 0.788826,1.325647 1.104358,1.660862 1.5461,2.080844 2.16454,2.607025 3.030357,3.266262 4.242499,4.092199 5.939499,5.126991 8.315298,6.42345 11.641418,8.047743 16.297984,10.082771 22.817184,12.632395 31.94404,15.826743 44.72167,19.82883 62.61034,24.84295 81.17382,28.82376"
           style="fill:none;stroke:#2ca02c;stroke-width:1.5;stroke-linecap:square;stroke-linejoin:round;stroke-miterlimit:10;stroke-dasharray:none;stroke-opacity:1"
           id="path5068"
           inkscape:connector-curvature="0" /></g></g><g
       id="g5070"><path
         d="m 39.75,30.34375 0,169.72"
         style="fill:none;stroke:#000000;stroke-width:0.80000001;stroke-linecap:square;stroke-linejoin:miter;stroke-miterlimit:10;stroke-dasharray:none;stroke-opacity:1"
         id="path5072"
         inkscape:connector-curvature="0" /><path
         d="m 335.56,30.34375 0,169.72"
         style="fill:none;stroke:#000000;stroke-width:0.80000001;stroke-linecap:square;stroke-linejoin:miter;stroke-miterlimit:10;stroke-dasharray:none;stroke-opacity:1"
         id="path5074"
         inkscape:connector-curvature="0" /><path
         d="m 39.75,30.34375 295.81,0"
         style="fill:none;stroke:#000000;stroke-width:0.80000001;stroke-linecap:square;stroke-linejoin:miter;stroke-miterlimit:10;stroke-dasharray:none;stroke-opacity:1"
         id="path5076"
         inkscape:connector-curvature="0" /><path
         d="m 39.75,200.06375 295.81,0"
         style="fill:none;stroke:#000000;stroke-width:0.80000001;stroke-linecap:square;stroke-linejoin:miter;stroke-miterlimit:10;stroke-dasharray:none;stroke-opacity:1"
         id="path5078"
         inkscape:connector-curvature="0" /><path
         d="m 46.75,148.04812 113.45312,0 c 1.33334,0 2,0.66667 2,2 l 0,43.01563 c 0,1.33333 -0.66666,2 -2,2 l -113.45312,0 c -1.333333,0 -2,-0.66667 -2,-2 l 0,-43.01563 c 0,-1.33333 0.666667,-2 2,-2 z"
         style="fill:#ffffff;fill-opacity:0.8;fill-rule:nonzero;stroke:#cccccc;stroke-width:1;stroke-linecap:butt;stroke-linejoin:miter;stroke-miterlimit:10;stroke-dasharray:none;stroke-opacity:0.8"
         id="path5080"
         inkscape:connector-curvature="0" /><path
         d="m 58.75,183.97 c 0.795609,0 1.55874,0.3161 2.12132,0.87868 0.562581,0.56258 0.87868,1.32571 0.87868,2.12132 0,0.79561 -0.316099,1.55874 -0.87868,2.12132 -0.56258,0.56258 -1.325711,0.87868 -2.12132,0.87868 -0.795609,0 -1.55874,-0.3161 -2.12132,-0.87868 C 56.066099,188.52874 55.75,187.76561 55.75,186.97 c 0,-0.79561 0.316099,-1.55874 0.87868,-2.12132 C 57.19126,184.2861 57.954391,183.97 58.75,183.97 Z"
         style="fill:#1f77b4;fill-opacity:1;fill-rule:nonzero;stroke:#1f77b4;stroke-width:1;stroke-linecap:butt;stroke-linejoin:round;stroke-miterlimit:10;stroke-dasharray:none;stroke-opacity:1"
         id="path5082"
         inkscape:connector-curvature="0" /><text
         transform="matrix(1,0,0,-1,76.75,183.47)"
         style="font-variant:normal;font-weight:normal;font-size:10px;font-family:'DejaVu Sans';-inkscape-font-specification:DejaVuSans;writing-mode:lr-tb;fill:#000000;fill-opacity:1;fill-rule:nonzero;stroke:none"
         id="text5084"><tspan
           x="0 6.1100001 12.47 18.83 22.01 27.76 34.119999"
           y="0"
           sodipodi:role="line"
           id="tspan5086">T40,F20</tspan></text>
<path
         d="m 58.75,175.29812 -3,-6 6,0 -3,6 z"
         style="fill:#ff7f0e;fill-opacity:1;fill-rule:nonzero;stroke:#ff7f0e;stroke-width:1;stroke-linecap:butt;stroke-linejoin:miter;stroke-miterlimit:10;stroke-dasharray:none;stroke-opacity:1"
         id="path5088"
         inkscape:connector-curvature="0" /><text
         transform="matrix(1,0,0,-1,76.75,168.79812)"
         style="font-variant:normal;font-weight:normal;font-size:10px;font-family:'DejaVu Sans';-inkscape-font-specification:DejaVuSans;writing-mode:lr-tb;fill:#000000;fill-opacity:1;fill-rule:nonzero;stroke:none"
         id="text5090"><tspan
           x="0 6.9499998 13.1 16.620001 19.799999 25.91 32.27 38.630001 41.810001 47.560001 53.919998"
           y="0"
           sodipodi:role="line"
           id="tspan5092">Ref,T40,F20</tspan></text>
<path
         d="m 48.75,157.62625 20,0"
         style="fill:none;stroke:#2ca02c;stroke-width:1.5;stroke-linecap:square;stroke-linejoin:round;stroke-miterlimit:10;stroke-dasharray:none;stroke-opacity:1"
         id="path5094"
         inkscape:connector-curvature="0" /><text
         transform="matrix(1,0,0,-1,76.75,154.12625)"
         style="font-variant:normal;font-weight:normal;font-size:10px;font-family:'DejaVu Sans';-inkscape-font-specification:DejaVuSans;writing-mode:lr-tb;fill:#000000;fill-opacity:1;fill-rule:nonzero;stroke:none"
         id="text5096"><tspan
           x="0 6.1100001 12.45 18.6 24.719999 28.83 31.610001 37.759998 40.939999 47.049999 53.41 59.77 62.950001 68.699997 75.059998"
           y="0"
           sodipodi:role="line"
           id="tspan5098">Theorie,T40,F20</tspan></text>
</g></g></svg>