<?xml version="1.0" standalone="no"?>
 <!DOCTYPE svg PUBLIC "-//W3C//DTD SVG 1.1//EN" 
 "http://www.w3.org/Graphics/SVG/1.1/DTD/svg11.dtd"> 
<svg xmlns="http://www.w3.org/2000/svg" version="1.1" 
    width="29.7002cm" height="21.0007cm" viewBox="0 0 116930 82680 ">
<title>SVG Picture created as lcr_ebox-B.Cu.svg date 2018/04/14 11:08:06 </title>
  <desc>Picture generated by PCBNEW </desc>
<g style="fill:#000000; fill-opacity:1;stroke:#000000; stroke-opacity:1;
stroke-linecap:round; stroke-linejoin:round; "
 transform="translate(0 0) scale(1 1)">
</g>
<g style="fill:#000000; fill-opacity:0.0; 
stroke:#000000; stroke-width:-0.000393701; stroke-opacity:1; 
stroke-linecap:round; stroke-linejoin:round;">
</g>
<g style="fill:#000000; fill-opacity:0.0; 
stroke:#000000; stroke-width:59.0551; stroke-opacity:1; 
stroke-linecap:round; stroke-linejoin:round;">
<path d="M64600 35200
L64600 20600
" />
<path d="M74600 35200
L64600 35200
" />
<path d="M74600 20600
L74600 35200
" />
<path d="M64600 20600
L74600 20600
" />
</g>
<g style="fill:#000000; fill-opacity:1.0; 
stroke:#000000; stroke-width:0; stroke-opacity:1; 
stroke-linecap:round; stroke-linejoin:round;">
<circle cx="66000" cy="33250" r="590.551" /> 
</g>
<g style="fill:#000000; fill-opacity:1.0; 
stroke:#000000; stroke-width:39.3701; stroke-opacity:1; 
stroke-linecap:round; stroke-linejoin:round;">
</g>
<g style="fill:#000000; fill-opacity:1.0; 
stroke:#000000; stroke-width:0; stroke-opacity:1; 
stroke-linecap:round; stroke-linejoin:round;">
<circle cx="73086.6" cy="33250" r="590.551" /> 
</g>
<g style="fill:#000000; fill-opacity:1.0; 
stroke:#000000; stroke-width:39.3701; stroke-opacity:1; 
stroke-linecap:round; stroke-linejoin:round;">
</g>
<g style="fill:#000000; fill-opacity:1.0; 
stroke:#000000; stroke-width:0; stroke-opacity:1; 
stroke-linecap:round; stroke-linejoin:round;">
<circle cx="73086.6" cy="22500" r="590.551" /> 
</g>
<g style="fill:#000000; fill-opacity:1.0; 
stroke:#000000; stroke-width:39.3701; stroke-opacity:1; 
stroke-linecap:round; stroke-linejoin:round;">
</g>
<g style="fill:#000000; fill-opacity:1.0; 
stroke:#000000; stroke-width:0; stroke-opacity:1; 
stroke-linecap:round; stroke-linejoin:round;">
<circle cx="66000" cy="22500" r="590.551" /> 
</g>
<g style="fill:#000000; fill-opacity:1.0; 
stroke:#000000; stroke-width:39.3701; stroke-opacity:1; 
stroke-linecap:round; stroke-linejoin:round;">
</g>
<g style="fill:#000000; fill-opacity:1.0; 
stroke:#000000; stroke-width:0; stroke-opacity:1; 
stroke-linecap:round; stroke-linejoin:round;">
<circle cx="71200" cy="27000" r="314.961" /> 
</g>
<g style="fill:#000000; fill-opacity:1.0; 
stroke:#000000; stroke-width:39.3701; stroke-opacity:1; 
stroke-linecap:round; stroke-linejoin:round;">
</g>
<g style="fill:#000000; fill-opacity:1.0; 
stroke:#000000; stroke-width:0; stroke-opacity:1; 
stroke-linecap:round; stroke-linejoin:round;">
<circle cx="71200" cy="28968.5" r="314.961" /> 
</g>
<g style="fill:#000000; fill-opacity:1.0; 
stroke:#000000; stroke-width:39.3701; stroke-opacity:1; 
stroke-linecap:round; stroke-linejoin:round;">
</g>
<g style="fill:#000000; fill-opacity:1.0; 
stroke:#000000; stroke-width:0; stroke-opacity:1; 
stroke-linecap:round; stroke-linejoin:round;">
<polyline style="fill-rule:evenodd;"
points="73165,30584
73165,29915
73834,29915
73834,30584
73165,30584
" /> 
<polyline style="fill-rule:evenodd;"
points="73165,25834
73165,25165
73834,25165
73834,25834
73165,25834
" /> 
<circle cx="69500" cy="30000" r="314.961" /> 
</g>
<g style="fill:#000000; fill-opacity:1.0; 
stroke:#000000; stroke-width:39.3701; stroke-opacity:1; 
stroke-linecap:round; stroke-linejoin:round;">
</g>
<g style="fill:#000000; fill-opacity:1.0; 
stroke:#000000; stroke-width:629.921; stroke-opacity:1; 
stroke-linecap:round; stroke-linejoin:round;">
</g>
<g style="fill:#000000; fill-opacity:0.0; 
stroke:#000000; stroke-width:629.921; stroke-opacity:1; 
stroke-linecap:round; stroke-linejoin:round;">
<path d="M69500 26000
L69500 26000
" />
</g>
<g style="fill:#000000; fill-opacity:0.0; 
stroke:#000000; stroke-width:393.701; stroke-opacity:1; 
stroke-linecap:round; stroke-linejoin:round;">
<path d="M73086 23836
L73500 24250
" />
<path d="M73500 24250
L73500 25500
" />
<path d="M73086 22500
L73086 23836
" />
<path d="M73500 25500
L72750 25500
" />
<path d="M72750 25500
L71250 27000
" />
<path d="M71250 27000
L71200 27000
" />
<path d="M69500 26000
L70200 26000
" />
<path d="M70200 26000
L71200 27000
" />
<path d="M66000 22500
L66590 23090
" />
<path d="M66590 23090
L69500 26000
" />
<path d="M73086 33250
L73086 31663
" />
<path d="M73086 31663
L73500 31250
" />
<path d="M73500 31250
L73500 30250
" />
<path d="M71200 28968
L71218 28968
" />
<path d="M71218 28968
L72500 30250
" />
<path d="M72500 30250
L73500 30250
" />
<path d="M69500 30000
L70250 30000
" />
<path d="M70250 30000
L71200 29050
" />
<path d="M71200 29050
L71200 28718
" />
<path d="M66000 33250
L69250 30000
" />
<path d="M69250 30000
L69500 30000
" />
</g>
<g style="fill:#000000; fill-opacity:1.0; 
stroke:#000000; stroke-width:100; stroke-opacity:1; 
stroke-linecap:round; stroke-linejoin:round;">
<polyline style="fill-rule:evenodd;"
points="74320,34920
64879,34920
64879,33082
65159,33082
65159,33417
65287,33726
65523,33962
65832,34090
66167,34090
66476,33962
66712,33726
66840,33417
66840,33082
66828,33053
69337,30544
69387,30564
69612,30564
69820,30478
69852,30446
70205,30446
70250,30455
70294,30446
70424,30420
70572,30322
70597,30284
71250,29631
72152,30534
72177,30572
72325,30670
72499,30705
72544,30696
72939,30696
72985,30764
73053,30810
73053,31064
72801,31316
72764,31341
72708,31424
72665,31489
72631,31663
72639,31707
72639,32525
72610,32537
72374,32773
72246,33082
72246,33417
72374,33726
72610,33962
72919,34090
73253,34090
73562,33962
73799,33726
73927,33417
73927,33082
73799,32773
73562,32537
73533,32525
73533,31848
73784,31597
73822,31572
73920,31424
73946,31294
73946,31294
73955,31250
73946,31205
73946,30810
74014,30764
74070,30682
74089,30584
74089,29915
74070,29817
74014,29735
73932,29679
73834,29660
73165,29660
73067,29679
72985,29735
72939,29803
72685,29803
71764,28883
71764,28856
71678,28648
71632,28601
71620,28544
71522,28396
71374,28297
71200,28262
71025,28297
70877,28396
70779,28544
70767,28601
70721,28648
70635,28856
70635,28983
70064,29553
69852,29553
69820,29521
69612,29435
69387,29435
69179,29521
69133,29567
69075,29579
68927,29677
68902,29715
66196,32421
66167,32409
65832,32409
65523,32537
65287,32773
65159,33082
64879,33082
64879,22332
65159,22332
65159,22667
65287,22976
65523,23212
65832,23340
66167,23340
66196,23328
66305,23437
66305,23437
68937,26069
68967,26220
69092,26407
69279,26532
69444,26564
69555,26564
69720,26532
69848,26446
70014,26446
70635,27066
70635,27112
70721,27320
70879,27478
71087,27564
71312,27564
71520,27478
71678,27320
71761,27120
72935,25946
72939,25946
72985,26014
73067,26070
73165,26089
73834,26089
73932,26070
74014,26014
74070,25932
74089,25834
74089,25165
74070,25067
74014,24985
73946,24939
73946,24294
73955,24249
73937,24158
73920,24075
73822,23927
73784,23902
73533,23651
73533,23224
73562,23212
73799,22976
73927,22667
73927,22332
73799,22023
73562,21787
73253,21659
72919,21659
72610,21787
72374,22023
72246,22332
72246,22667
72374,22976
72610,23212
72639,23224
72639,23792
72631,23836
72665,24010
72665,24010
72764,24158
72801,24183
73053,24435
73053,24939
72985,24985
72939,25053
72794,25053
72750,25044
72705,25053
72575,25079
72427,25177
72402,25215
71225,26393
70547,25715
70522,25677
70374,25579
70244,25553
70200,25544
70155,25553
69848,25553
69720,25467
69569,25437
66937,22805
66937,22805
66828,22696
66840,22667
66840,22332
66712,22023
66476,21787
66167,21659
65832,21659
65523,21787
65287,22023
65159,22332
64879,22332
64879,20879
74320,20879
74320,34920
" /> 
</g>
<g style="fill:#FFFFFF; fill-opacity:1.0; 
stroke:#FFFFFF; stroke-width:100; stroke-opacity:1; 
stroke-linecap:round; stroke-linejoin:round;">
</g>
<g style="fill:#FFFFFF; fill-opacity:1.0; 
stroke:#FFFFFF; stroke-width:0; stroke-opacity:1; 
stroke-linecap:round; stroke-linejoin:round;">
<circle cx="66000" cy="33250" r="68.8976" /> 
</g>
<g style="fill:#FFFFFF; fill-opacity:1.0; 
stroke:#FFFFFF; stroke-width:39.3701; stroke-opacity:1; 
stroke-linecap:round; stroke-linejoin:round;">
</g>
<g style="fill:#FFFFFF; fill-opacity:1.0; 
stroke:#FFFFFF; stroke-width:0; stroke-opacity:1; 
stroke-linecap:round; stroke-linejoin:round;">
<circle cx="73086.6" cy="33250" r="68.8976" /> 
</g>
<g style="fill:#FFFFFF; fill-opacity:1.0; 
stroke:#FFFFFF; stroke-width:39.3701; stroke-opacity:1; 
stroke-linecap:round; stroke-linejoin:round;">
</g>
<g style="fill:#FFFFFF; fill-opacity:1.0; 
stroke:#FFFFFF; stroke-width:0; stroke-opacity:1; 
stroke-linecap:round; stroke-linejoin:round;">
<circle cx="73086.6" cy="22500" r="68.8976" /> 
</g>
<g style="fill:#FFFFFF; fill-opacity:1.0; 
stroke:#FFFFFF; stroke-width:39.3701; stroke-opacity:1; 
stroke-linecap:round; stroke-linejoin:round;">
</g>
<g style="fill:#FFFFFF; fill-opacity:1.0; 
stroke:#FFFFFF; stroke-width:0; stroke-opacity:1; 
stroke-linecap:round; stroke-linejoin:round;">
<circle cx="66000" cy="22500" r="68.8976" /> 
</g>
<g style="fill:#FFFFFF; fill-opacity:1.0; 
stroke:#FFFFFF; stroke-width:39.3701; stroke-opacity:1; 
stroke-linecap:round; stroke-linejoin:round;">
</g>
<g style="fill:#FFFFFF; fill-opacity:1.0; 
stroke:#FFFFFF; stroke-width:0; stroke-opacity:1; 
stroke-linecap:round; stroke-linejoin:round;">
<circle cx="71200" cy="27000" r="68.8976" /> 
</g>
<g style="fill:#FFFFFF; fill-opacity:1.0; 
stroke:#FFFFFF; stroke-width:39.3701; stroke-opacity:1; 
stroke-linecap:round; stroke-linejoin:round;">
</g>
<g style="fill:#FFFFFF; fill-opacity:1.0; 
stroke:#FFFFFF; stroke-width:0; stroke-opacity:1; 
stroke-linecap:round; stroke-linejoin:round;">
<circle cx="71200" cy="28968.5" r="68.8976" /> 
</g>
<g style="fill:#FFFFFF; fill-opacity:1.0; 
stroke:#FFFFFF; stroke-width:39.3701; stroke-opacity:1; 
stroke-linecap:round; stroke-linejoin:round;">
</g>
<g style="fill:#FFFFFF; fill-opacity:1.0; 
stroke:#FFFFFF; stroke-width:0; stroke-opacity:1; 
stroke-linecap:round; stroke-linejoin:round;">
<circle cx="73500" cy="30250" r="68.8976" /> 
</g>
<g style="fill:#FFFFFF; fill-opacity:1.0; 
stroke:#FFFFFF; stroke-width:39.3701; stroke-opacity:1; 
stroke-linecap:round; stroke-linejoin:round;">
</g>
<g style="fill:#FFFFFF; fill-opacity:1.0; 
stroke:#FFFFFF; stroke-width:0; stroke-opacity:1; 
stroke-linecap:round; stroke-linejoin:round;">
<circle cx="73500" cy="25500" r="68.8976" /> 
</g>
<g style="fill:#FFFFFF; fill-opacity:1.0; 
stroke:#FFFFFF; stroke-width:39.3701; stroke-opacity:1; 
stroke-linecap:round; stroke-linejoin:round;">
</g>
<g style="fill:#FFFFFF; fill-opacity:1.0; 
stroke:#FFFFFF; stroke-width:0; stroke-opacity:1; 
stroke-linecap:round; stroke-linejoin:round;">
<circle cx="69500" cy="30000" r="68.8976" /> 
</g>
<g style="fill:#FFFFFF; fill-opacity:1.0; 
stroke:#FFFFFF; stroke-width:39.3701; stroke-opacity:1; 
stroke-linecap:round; stroke-linejoin:round;">
</g>
<g style="fill:#FFFFFF; fill-opacity:1.0; 
stroke:#FFFFFF; stroke-width:0; stroke-opacity:1; 
stroke-linecap:round; stroke-linejoin:round;">
<circle cx="69500" cy="26000" r="68.8976" /> 
</g>
<g style="fill:#FFFFFF; fill-opacity:1.0; 
stroke:#FFFFFF; stroke-width:39.3701; stroke-opacity:1; 
stroke-linecap:round; stroke-linejoin:round;">
</g>
<g style="fill:#000000; fill-opacity:1.0; 
stroke:#000000; stroke-width:39.3701; stroke-opacity:1; 
stroke-linecap:round; stroke-linejoin:round;">
</g> 
</svg>
