<?xml version="1.0" standalone="no"?>
 <!DOCTYPE svg PUBLIC "-//W3C//DTD SVG 1.1//EN" 
 "http://www.w3.org/Graphics/SVG/1.1/DTD/svg11.dtd"> 
<svg xmlns="http://www.w3.org/2000/svg" version="1.1" 
    width="29.7002cm" height="21.0007cm" viewBox="0 0 116930 82680 ">
<title>SVG Picture created as lcr_ebox-F.SilkS.svg date 2018/04/14 11:08:06 </title>
  <desc>Picture generated by PCBNEW </desc>
<g style="fill:#000000; fill-opacity:1;stroke:#000000; stroke-opacity:1;
stroke-linecap:round; stroke-linejoin:round; "
 transform="translate(0 0) scale(1 1)">
</g>
<g style="fill:#000000; fill-opacity:0.0; 
stroke:#000000; stroke-width:-0.000393701; stroke-opacity:1; 
stroke-linecap:round; stroke-linejoin:round;">
</g>
<g style="fill:#000000; fill-opacity:0.0; 
stroke:#000000; stroke-width:59.0551; stroke-opacity:1; 
stroke-linecap:round; stroke-linejoin:round;">
<path d="M64600 35200
L64600 20600
" />
<path d="M74600 35200
L64600 35200
" />
<path d="M74600 20600
L74600 35200
" />
<path d="M64600 20600
L74600 20600
" />
<path d="M66000 34702
L66000 31750
" />
<path d="M66000 31750
L74267 31750
" />
<path d="M74267 31773
L74267 34726
" />
<path d="M74267 34750
L66000 34750
" />
<path d="M74267 24000
L66000 24000
" />
<path d="M74267 21023
L74267 23976
" />
<path d="M66000 21000
L74267 21000
" />
<path d="M66000 23952
L66000 21000
" />
</g>
<g style="fill:#000000; fill-opacity:0.0; 
stroke:#000000; stroke-width:47.2441; stroke-opacity:1; 
stroke-linecap:round; stroke-linejoin:round;">
<path d="M71715 26976
L71715 28992
" />
<path d="M70684 26976
L70684 28992
" />
<path d="M71715 26976
L71592 26976
" />
<path d="M70807 26976
L70684 26976
" />
<path d="M71715 28992
L71592 28992
" />
<path d="M70807 28992
L70684 28992
" />
<path d="M72976 29726
L73500 29726
" />
<path d="M72976 30250
L72976 29726
" />
<path d="M72976 30750
L74023 30750
" />
<path d="M74023 30750
L74023 30773
" />
<path d="M72976 30750
L72976 30773
" />
<path d="M72976 30773
L74023 30773
" />
<path d="M72976 26023
L74023 26023
" />
<path d="M72976 26000
L72976 26023
" />
<path d="M74023 26000
L74023 26023
" />
<path d="M72976 26000
L74023 26000
" />
<path d="M72976 25500
L72976 24976
" />
<path d="M72976 24976
L73500 24976
" />
<path d="M68960 29287
L70039 29287
" />
<path d="M70039 29287
L70039 26712
" />
<path d="M70039 26712
L68960 26712
" />
<path d="M68960 26712
L68960 29287
" />
<path d="M69500 29590
L69500 29287
" />
<path d="M69500 26409
L69500 26712
" />
</g>
<g style="fill:#000000; fill-opacity:0.0; 
stroke:#000000; stroke-width:59.0551; stroke-opacity:1; 
stroke-linecap:round; stroke-linejoin:round;">
<path d="M70868 31034
L70868 31315
L70850 31371
L70812 31409
L70756 31428
L70718 31428
" />
<path d="M71224 31165
L71224 31428
" />
<path d="M71131 31015
L71037 31296
L71281 31296
" />
<path d="M70868 24534
L70868 24815
L70850 24871
L70812 24909
L70756 24928
L70718 24928
" />
<path d="M71262 24928
L71037 24928
" />
<path d="M71149 24928
L71149 24534
L71112 24590
L71074 24628
L71037 24646
" />
<path d="M72434 27990
L72415 28009
L72359 28028
L72321 28028
L72265 28009
L72228 27971
L72209 27934
L72190 27859
L72190 27803
L72209 27728
L72228 27690
L72265 27653
L72321 27634
L72359 27634
L72415 27653
L72434 27671
" />
<path d="M72809 28028
L72584 28028
" />
<path d="M72696 28028
L72696 27634
L72659 27690
L72621 27728
L72584 27746
" />
<path d="M72118 31034
L72118 31315
L72100 31371
L72062 31409
L72006 31428
L71968 31428
" />
<path d="M72268 31034
L72512 31034
L72381 31184
L72437 31184
L72474 31203
L72493 31221
L72512 31259
L72512 31353
L72493 31390
L72474 31409
L72437 31428
L72324 31428
L72287 31409
L72268 31390
" />
<path d="M72118 24534
L72118 24815
L72100 24871
L72062 24909
L72006 24928
L71968 24928
" />
<path d="M72287 24571
L72306 24553
L72343 24534
L72437 24534
L72474 24553
L72493 24571
L72512 24609
L72512 24646
L72493 24703
L72268 24928
L72512 24928
" />
<path d="M67934 27928
L67803 27740
" />
<path d="M67709 27928
L67709 27534
L67859 27534
L67896 27553
L67915 27571
L67934 27609
L67934 27665
L67915 27703
L67896 27721
L67859 27740
L67709 27740
" />
<path d="M68309 27928
L68084 27928
" />
<path d="M68196 27928
L68196 27534
L68159 27590
L68121 27628
L68084 27646
" />
</g> 
</svg>
