<?xml version="1.0" encoding="UTF-8" standalone="no"?>
<!-- Created with Inkscape (http://www.inkscape.org/) -->

<svg
   xmlns:dc="http://purl.org/dc/elements/1.1/"
   xmlns:cc="http://creativecommons.org/ns#"
   xmlns:rdf="http://www.w3.org/1999/02/22-rdf-syntax-ns#"
   xmlns:svg="http://www.w3.org/2000/svg"
   xmlns="http://www.w3.org/2000/svg"
   xmlns:sodipodi="http://sodipodi.sourceforge.net/DTD/sodipodi-0.dtd"
   xmlns:inkscape="http://www.inkscape.org/namespaces/inkscape"
   version="1.1"
   id="svg2594"
   xml:space="preserve"
   width="793.33331"
   height="1122.6667"
   viewBox="0 0 793.33331 1122.6667"
   sodipodi:docname="cr_disch.svg"
   inkscape:version="0.92.2 (5c3e80d, 2017-08-06)"><metadata
     id="metadata2600"><rdf:RDF><cc:Work
         rdf:about=""><dc:format>image/svg+xml</dc:format><dc:type
           rdf:resource="http://purl.org/dc/dcmitype/StillImage" /><dc:title></dc:title></cc:Work></rdf:RDF></metadata><defs
     id="defs2598"><marker
       inkscape:stockid="TriangleOutL"
       orient="auto"
       refY="0.0"
       refX="0.0"
       id="marker3265"
       style="overflow:visible"
       inkscape:isstock="true"><path
         id="path3263"
         d="M 5.77,0.0 L -2.88,5.0 L -2.88,-5.0 L 5.77,0.0 z "
         style="fill-rule:evenodd;stroke:#000000;stroke-width:1pt;stroke-opacity:1;fill:#000000;fill-opacity:1"
         transform="scale(0.8)" /></marker><marker
       inkscape:stockid="TriangleOutL"
       orient="auto"
       refY="0.0"
       refX="0.0"
       id="TriangleOutL"
       style="overflow:visible"
       inkscape:isstock="true"><path
         id="path2418"
         d="M 5.77,0.0 L -2.88,5.0 L -2.88,-5.0 L 5.77,0.0 z "
         style="fill-rule:evenodd;stroke:#000000;stroke-width:1pt;stroke-opacity:1;fill:#000000;fill-opacity:1"
         transform="scale(0.8)" /></marker><marker
       inkscape:stockid="TriangleOutM"
       orient="auto"
       refY="0.0"
       refX="0.0"
       id="TriangleOutM"
       style="overflow:visible"
       inkscape:isstock="true"><path
         id="path2421"
         d="M 5.77,0.0 L -2.88,5.0 L -2.88,-5.0 L 5.77,0.0 z "
         style="fill-rule:evenodd;stroke:#000000;stroke-width:1pt;stroke-opacity:1;fill:#000000;fill-opacity:1"
         transform="scale(0.4)" /></marker><marker
       inkscape:stockid="Arrow1Mend"
       orient="auto"
       refY="0.0"
       refX="0.0"
       id="Arrow1Mend"
       style="overflow:visible;"
       inkscape:isstock="true"><path
         id="path2284"
         d="M 0.0,0.0 L 5.0,-5.0 L -12.5,0.0 L 5.0,5.0 L 0.0,0.0 z "
         style="fill-rule:evenodd;stroke:#000000;stroke-width:1pt;stroke-opacity:1;fill:#000000;fill-opacity:1"
         transform="scale(0.4) rotate(180) translate(10,0)" /></marker><marker
       inkscape:stockid="Arrow1Lend"
       orient="auto"
       refY="0.0"
       refX="0.0"
       id="Arrow1Lend"
       style="overflow:visible;"
       inkscape:isstock="true"><path
         id="path2278"
         d="M 0.0,0.0 L 5.0,-5.0 L -12.5,0.0 L 5.0,5.0 L 0.0,0.0 z "
         style="fill-rule:evenodd;stroke:#000000;stroke-width:1pt;stroke-opacity:1;fill:#000000;fill-opacity:1"
         transform="scale(0.8) rotate(180) translate(12.5,0)" /></marker><marker
       inkscape:stockid="Arrow1Lstart"
       orient="auto"
       refY="0.0"
       refX="0.0"
       id="Arrow1Lstart"
       style="overflow:visible"
       inkscape:isstock="true"><path
         id="path2275"
         d="M 0.0,0.0 L 5.0,-5.0 L -12.5,0.0 L 5.0,5.0 L 0.0,0.0 z "
         style="fill-rule:evenodd;stroke:#000000;stroke-width:1pt;stroke-opacity:1;fill:#000000;fill-opacity:1"
         transform="scale(0.8) translate(12.5,0)" /></marker><clipPath
       clipPathUnits="userSpaceOnUse"
       id="clipPath2760"><path
         d="m 3759,4935.67 h 35 v -114 h -35 z"
         id="path2758"
         inkscape:connector-curvature="0" /></clipPath><clipPath
       clipPathUnits="userSpaceOnUse"
       id="clipPath2770"><path
         d="m 2536,5864.67 h 499 v -109 h -499 z"
         id="path2768"
         inkscape:connector-curvature="0" /></clipPath><clipPath
       clipPathUnits="userSpaceOnUse"
       id="clipPath2784"><path
         d="m 3035,5864.67 h 33 v -109 h -33 z"
         id="path2782"
         inkscape:connector-curvature="0" /></clipPath><clipPath
       clipPathUnits="userSpaceOnUse"
       id="clipPath2798"><path
         d="m 3068,5864.67 h 46 v -109 h -46 z"
         id="path2796"
         inkscape:connector-curvature="0" /></clipPath><clipPath
       clipPathUnits="userSpaceOnUse"
       id="clipPath2814"><path
         d="m 1543,5578.67 h 285 v -95 h -285 z"
         id="path2812"
         inkscape:connector-curvature="0" /></clipPath><clipPath
       clipPathUnits="userSpaceOnUse"
       id="clipPath2828"><path
         d="m 1828,5578.67 h 46 v -95 h -46 z"
         id="path2826"
         inkscape:connector-curvature="0" /></clipPath><clipPath
       clipPathUnits="userSpaceOnUse"
       id="clipPath2926"><path
         d="m 1613,5274.67 h 186 v -102 h -186 z"
         id="path2924"
         inkscape:connector-curvature="0" /></clipPath><clipPath
       clipPathUnits="userSpaceOnUse"
       id="clipPath2940"><path
         d="m 1799,5274.67 h 45 v -102 h -45 z"
         id="path2938"
         inkscape:connector-curvature="0" /></clipPath><clipPath
       clipPathUnits="userSpaceOnUse"
       id="clipPath3139"><rect
         style="fill:none;fill-opacity:1;stroke:#000000;stroke-width:6.25;stroke-miterlimit:4;stroke-dasharray:none;stroke-dashoffset:0"
         id="rect3141"
         width="2776.9775"
         height="1309.8077"
         x="1235.755"
         y="-5951.9883"
         transform="scale(1,-1)" /></clipPath></defs><sodipodi:namedview
     pagecolor="#ffffff"
     bordercolor="#666666"
     borderopacity="1"
     objecttolerance="10"
     gridtolerance="10"
     guidetolerance="10"
     inkscape:pageopacity="0"
     inkscape:pageshadow="2"
     inkscape:window-width="1366"
     inkscape:window-height="705"
     id="namedview2596"
     showgrid="false"
     inkscape:zoom="1.4142136"
     inkscape:cx="389.65718"
     inkscape:cy="833.16061"
     inkscape:window-x="-4"
     inkscape:window-y="-4"
     inkscape:window-maximized="1"
     inkscape:current-layer="g2602" /><g
     id="g2602"
     inkscape:groupmode="layer"
     inkscape:label="furtuna_film_formation_in_ehd_contacts"
     transform="matrix(1.3333333,0,0,-1.3333333,0,1122.6667)"><g
       id="g2604"
       transform="scale(0.12)"
       clip-path="url(#clipPath3139)"><g
         id="g2606"
         transform="scale(8.33333)"><text
           transform="matrix(0.999443,0,0,-1,446.40112,789.44)"
           style="font-variant:normal;font-weight:normal;font-size:10.98760033px;font-family:'Times New Roman';-inkscape-font-specification:Times-Roman;writing-mode:lr-tb;fill:#000000;fill-opacity:1;fill-rule:nonzero;stroke:none"
           id="text2610"><tspan
             x="0 9.8455105 14.768268 18.3703 21.492039 26.414797 31.93788 34.699436 42.623894 45.385452 48.147007 54.27042 59.673466 63.395535 66.397209 71.920319 77.443436 82.366196"
             y="0"
             sodipodi:role="line"
             id="tspan2608">Marian D. Furtuna </tspan></text>
<text
           transform="matrix(0.999386,0,0,-1,307.67964,39.4402)"
           style="font-variant:normal;font-weight:normal;font-size:9.96000004px;font-family:'Times New Roman';-inkscape-font-specification:Times-Roman;writing-mode:lr-tb;fill:#000000;fill-opacity:1;fill-rule:nonzero;stroke:none"
           id="text2614"><tspan
             x="0 3.2419858 5.7635283 10.806614 15.8497 20.892786 23.414328 26.656315"
             y="0"
             sodipodi:role="line"
             id="tspan2612">- 105 - </tspan></text>
<text
           transform="matrix(0.999443,0,0,-1,113.4,769.64)"
           style="font-variant:normal;font-weight:normal;font-size:10.98760033px;font-family:'Times New Roman';-inkscape-font-specification:Times-Roman;writing-mode:lr-tb;fill:#000000;fill-opacity:1;fill-rule:nonzero;stroke:none"
           id="text2622"><tspan
             x="0 6.8438387 12.366938 17.169628 21.011776 26.534874 31.937906 35.059658 38.181412 46.586132 52.10923 60.513947 64.356094 71.680206 75.40229 79.244438 82.366196 87.88929 91.011047 95.933807 101.33684 106.85993 111.78269 116.10512 120.30748 124.14961 127.27136 132.79448 137.59717 140.7189 144.56107 152.48552 155.4872 158.60893 161.61061 165.45277 170.97586 175.77855 178.90028 182.02202 187.42503 192.34779 195.94983 199.79199 202.91373 208.31674 213.2395 217.08167 222.60475 227.40744 232.3302 237.252 241.45436 245.77678 250.69951 254.42162 259.82462 263.66678 269.18988 274.71295 279.51566 283.83807 288.76083 292.603 297.4057 302.92877 307.85153 313.3746 318.77762 323.70038 327.54254 330.54422 334.86664 338.7088 344.2319 349.75497 355.15799 360.561 366.08411 374.00854 379.53168 382.29321 386.13538 391.65851 397.18161 400.18329 404.02545 407.14719 412.55023 415.55191 419.75427"
             y="0"
             sodipodi:role="line"
             id="tspan2616">The optimum Cr thickness that will deliver the necessary phase change is unknown, but this </tspan><tspan
             x="0 7.9244437 11.046197 14.167951 17.289705 20.051247 25.454277 30.377035 33.138577 38.061337 42.263695 45.385448 50.308205 55.711235 58.832989 61.954742 66.157104 71.680199 76.602959 82.12606 84.887596 90.410698 95.813728 98.575272 103.49803 109.02113 114.54423 119.34692 123.06898 126.19074 134.59546 139.51822 145.04131 148.16304 151.28477 156.80786 162.21088 164.97243 172.8969 176.01863 179.14037 184.66345 187.42502 191.62737 196.55013 201.95314 206.8759 210.59801 215.4007 218.52243 221.28398 226.806 229.92773 233.52977 237.25188 242.05457 245.77666 250.69939 256.22247 259.34421 261.98569 265.10745 270.63052 273.6322 278.55496 283.95798 289.48105 294.40381 298.72623 303.04868 307.85135 312.1738 314.93536 317.69693 321.29895 324.42068 329.94379 335.46686 338.46854 343.99161 349.39462 352.15619 355.27792 360.80103 365.72375 368.48532 373.40808 378.93118 384.45432 387.45599 390.57773 393.69946 399.10251 402.82458 405.82623 411.34937 419.75409"
             y="18.959999"
             sodipodi:role="line"
             id="tspan2618">will be established by experimenting with several different thicknesses, finding the equilibrium </tspan><tspan
             x="0 5.5230985 10.445856 13.56761 21.492054 26.41481 31.217501 36.740601 39.50214 42.623894 48.026928 52.949684 55.711227 58.712914 63.63567 69.038704 73.961456 77.68354 80.445084 83.44677 87.168854 92.091614 97.614716 101.93714 110.34186 113.46361 116.46529 119.46698 124.38974 129.91284 134.8356 139.75835 142.51991 147.3226 152.84569 158.36877 161.13033 164.13199 167.25374 171.57616 174.21765 179.74074 185.26382 188.98592 193.7886 199.31169 202.31337 205.4351 208.43677 211.55852 216.96153 219.722"
             y="37.919998"
             sodipodi:role="line"
             id="tspan2620">between the layer transmittance and its durability. </tspan></text>
<text
           transform="matrix(0.999386,0,0,-1,136.08,541.88)"
           style="font-variant:normal;font-weight:bold;font-size:9.96000004px;font-family:'Times New Roman';-inkscape-font-specification:Times-Bold;writing-mode:lr-tb;fill:#000000;fill-opacity:1;fill-rule:nonzero;stroke:none"
           id="text2626"><tspan
             x="0 6.1237574 8.8854551 13.928555 19.451952 23.894682 28.337414 30.858963 35.902061 40.945164 44.30722 46.828766 53.432819 58.355843 63.879238 68.321968 72.764702 75.646477 83.811485 88.254219 93.777611 97.139671 102.18277 104.94447 107.46601 111.30838 115.75111 119.23325 124.75665 130.28004 132.80157 136.16364 141.20673 145.64946 148.17101 151.53307 157.05646 161.49919 164.14081 172.18576 177.22884 182.75224 185.51393 188.87599 191.6377 196.2005 201.72389 204.24544 211.44986 214.21156 217.57362 222.01601 227.05908 229.58063 236.18469 241.82817 244.58986 250.11327 252.6348 258.75854 261.52026 264.40204 272.56705 275.08859 279.05106 284.57443 287.93646 292.37921 296.82193 300.18399 304.62671 309.06946 314.2326 322.27756 326.72031 330.08237 334.52509 339.56818 342.20978 350.37482 354.81754 358.17966 363.82312 368.86621 374.38962"
             y="0"
             sodipodi:role="line"
             id="tspan2624">Figure 91: Experimental setup for the modified Ultra Thin Film Interferometry method </tspan></text>
<text
           transform="matrix(0.999443,0,0,-1,113.4,510.8)"
           style="font-variant:normal;font-weight:normal;font-size:10.98760033px;font-family:'Times New Roman';-inkscape-font-specification:Times-Roman;writing-mode:lr-tb;fill:#000000;fill-opacity:1;fill-rule:nonzero;stroke:none"
           id="text2654"><tspan
             x="0 7.9244437 12.24687 15.248547 20.171305 25.694403 31.097435 34.219189 39.021877 42.143631 47.666729 52.589489 57.992519 60.994198 63.995884 69.518982 72.52066 77.923691 81.645775 86.568535 91.971565 95.093315 100.61642 106.13951 110.34187 113.34355 118.14624 123.66934 128.5921 134.11519 137.23692 142.03961 145.7617 148.64334 152.36543 157.88852 160.65007 166.05309 169.77519 172.65681 177.57957 182.50233 188.02542 192.82811 197.75087 200.75253 203.87428 206.99602 212.39903 217.32179 220.32349 228.72701 233.64977 236.65143 242.17451 247.6976 253.22069 257.54312 260.42474 265.3475 269.06958 273.87228 276.87396 282.39706 287.80008 290.92181 293.92349 298.84625 301.84793 307.25095 310.97305 313.97473 318.89749 324.42056 327.30219 332.82526 337.14771 342.07047 347.47348 350.47516 353.47684 358.87985 361.88153 370.28625 375.20901 380.13177 384.45419 389.97733 393.69937 398.50208 401.50375 405.10577 408.22751 411.34924 419.75397"
             y="0"
             sodipodi:role="line"
             id="tspan2628">As explained in previous chapter (3.2) capacitive methods are quite often used to measure film </tspan><tspan
             x="0 3.1217537 8.6448526 11.646539 16.569296 21.972328 27.495426 32.418182 36.740608 41.063034 43.944645 47.066399 52.589497 55.35104 58.472794 63.995892 69.51899 73.12101 76.24276 81.045448 85.968208 88.969894 92.091652 97.614746 103.13785 106.01945 109.62148 114.54423 118.74659 123.66933 128.59209 132.31418 137.1169 142.63998 145.52161 151.04469 156.56776 159.68951 162.45107 165.5728 171.09589 176.01865 180.22101 185.14377 188.02539 192.94815 196.55017 201.47293 204.35455 209.27731 214.8004 220.323 223.92503 227.04677 232.56985 237.37254 242.89563 245.77725 248.89896 254.42204 257.30368 262.22644 267.74951 273.15253 276.27426 279.396 284.1987 289.12146 292.12314 295.24487 300.76794 306.29105 310.61346 313.49509 321.41956 326.82257 331.74533 335.46741 340.39017 343.15173 346.27347 351.79654 356.7193 359.48087 362.6026 368.1257 373.64877 377.25079 380.37262 385.29535 390.09805 395.62115 398.74292 401.62454 405.22653 408.22821 411.34995 419.75467"
             y="19.08"
             sodipodi:role="line"
             id="tspan2630">thickness in lubrication research but these are confined to applications where the lubricant film </tspan><tspan
             x="0 3.1217537 8.6448526 11.646539 16.569296 21.972328 27.495426 32.418182 36.740608 41.063034 44.064713 47.066399 51.388824 54.390503 58.112587 62.915279 66.037033 70.839722 73.961472 77.083229 82.486259 87.409019 90.530769 95.9338 98.935478 102.05724 106.97999 110.70207 116.10511 120.9078 123.66933 126.67101 130.99342 136.51654 141.4393 146.96239 149.96408 154.88683 159.20926 162.21095 167.73404 173.13705 178.66014 182.38223 187.78525 193.30833 198.71135 204.23444 209.1572 217.5619 220.68365 225.606 228.6077 234.13078 239.05353 243.97629 247.69836 250.8201 256.34317 261.74619 266.06863 268.83017 271.83188 277.23489 280.957 283.95868 288.2811 293.8042 302.20892 307.13165 310.13336 315.65643 318.77817 323.10062 326.10229 331.62537 337.14847 342.67157 346.27359 349.39532 354.91843 360.32144 363.32312 368.24588 373.76895 379.29208 382.41382 387.21652 392.13925 395.14093 399.46338 402.46506 406.18713 411.71024 417.11328 419.75476"
             y="38.040001"
             sodipodi:role="line"
             id="tspan2632">thickness is relatively large, such as hydrodynamic bearings, or some piston–ring contacts [47, </tspan><tspan
             x="0 5.5230985 11.046196 16.569294 22.092394 27.615492 31.337576 34.099125"
             y="57"
             sodipodi:role="line"
             id="tspan2634">58–61]. </tspan><tspan
             x="0 6.8438387 12.366938 17.169628 20.531506 25.334196 28.45595 33.378708 38.181396 41.30315 44.905167 48.02692 52.94968 57.752369 60.874123 64.115944 69.038696 73.961456 79.484558 84.287247 89.209999 92.211685 95.333443 100.2562 105.65923 110.58199 115.50475 118.74656 124.26965 127.99174 131.35362 138.07739 146.00185 153.92632 157.28821 162.21095 167.61397 173.13705 176.2588 181.06149 185.98425 188.98592 193.30835 196.67024 202.19333 206.99602 211.31844 214.68033 219.48302 222.60477 226.92719 232.32899 235.69089 241.09392 246.01666 250.93942 256.46252 259.8244 265.22742 269.54984 274.4726 279.9957 283.23752 286.35925 291.76227 295.12418 298.24591 303.64893 308.57169 311.93356 317.45667 322.25934 326.58176 329.58344 332.94534 336.06708 341.47009 344.83197 349.75473 353.95709 357.07883 360.08051 368.4852 373.40796 376.52969 381.45251 384.81439 387.93616 393.45926 398.26193 401.62384 405.22583 408.3476 411.46933 419.75397"
             y="75.959999"
             sodipodi:role="line"
             id="tspan2636">The electrical capacitance of EHD contacts has also been used in the past to estimate the film </tspan><tspan
             x="0 3.1217537 8.6448526 11.646539 16.569296 21.972328 27.495426 32.418182 36.740608 41.063034 45.625591 48.747345 54.270447 58.712929 63.635689 66.637375 71.560127 75.882553 78.884239 84.407341 89.930443 95.333473 100.85657 104.57865 110.10175 115.62486 121.02789 126.55096 131.47372 139.87845 143.00018 147.92294 152.8457 155.96744 159.08917 164.49219 169.05476 172.1765 177.69958 183.1026 186.82469 189.82637 194.74913 199.67189 202.67355 207.59631 213.1194 217.68196 222.60472 228.00774 233.53082 236.65199 241.4547 246.37741 249.49916 253.82158 258.26407 261.98621 267.50928 273.03238 276.75449 279.51602 288.64117 296.56561 302.08871 310.01318 314.93591 320.33893 325.26169 328.9838 331.74536 336.18787 339.3096 344.83267 350.23569 354.55811 359.48087 363.92337 368.24579 371.36752 376.89062 382.29367 385.41541 390.33817 394.66058 399.22314 404.62619 409.54895 414.952 419.7547"
             y="94.919998"
             sodipodi:role="line"
             id="tspan2638">thickness in elastohydrodynamically lubricated contacts [47]. However, those studies have </tspan><tspan
             x="0 5.5230985 10.445856 15.368613 20.891712 25.214125 28.335878 33.138569 36.860653 42.263683 47.186443 50.308197 55.711227 60.033638 64.956398 70.479492 75.402252 80.925354 86.448448 91.97155 97.494644 102.29734 107.82043 112.14285 120.06729 123.18903 126.31078 131.83388 136.15631 139.15799 144.68108 149.60384 153.92627 159.44934 164.3721 169.77512 174.69788 177.81963 183.3427 188.86578 197.27051 202.19327 207.71634 210.83809 215.16052 220.68361 224.4057 228.72813 234.25122 239.65424 242.65591 245.77699 250.69972 255.50241 258.62415 262.94659 266.06833 271.5914 274.59308 279.51584 283.11789 286.83997 291.64267 295.36478 300.88785 309.29257 314.21533 317.33707 321.05917 326.46219 330.78461 335.70737 341.23047 346.75354 351.07596 354.19772 359.72079 364.5235 368.84592 373.16833 378.69147 383.61423 388.53699 393.45972 397.66208 401.98453 406.30695 409.42868 414.95181 419.75449"
             y="113.88"
             sodipodi:role="line"
             id="tspan2640">been largely abandoned with the development of optical interferometry and the success the </tspan><tspan
             x="0 8.4047098 13.327467 16.449221 21.972319 27.495419 33.018517 41.063023 46.586121 51.508877 57.031979 64.956413 68.078163 73.601265 81.525703 86.448463 91.371223 96.293976 101.69701 105.4191 110.22179 113.34354 118.2663 121.26798 126.67101 134.83559 143.24031 148.16307 153.08583 157.40825 162.93134 166.65343 169.77518 175.29826 180.70128 188.74579 192.34782 195.46956 198.59129 206.99602 215.04053 218.16228 223.56529 226.68703 231.60979 237.0128 242.53589 247.45865 251.78107 256.10349 264.14801 269.54999 275.07309 282.99753 288.52063 296.56516 299.68689 305.0899 313.13443 318.05719 325.98163 329.70374 334.6265 342.55093 350.59546 355.99847 360.80118 366.32425 371.84735 380.25204 385.1748 388.29654 392.01862 396.94138 401.26379 404.02536 411.9498 419.75418"
             y="132.84"
             sodipodi:role="line"
             id="tspan2642">method had in accurately measuring film thickness down to a few nanometres. A </tspan><tspan
             x="0 4.9227576 10.445856 18.850574 24.373672 28.095757 33.018517 38.541615 43.464371 48.987469 53.189827 56.311581 61.714615 66.637367 69.398911 74.922005 79.844765 85.367859 93.772583 99.295677 104.21844 107.94052 112.86328 115.86497 118.86665 124.26967 129.19243 134.71553 139.03795 142.1597 147.68279 153.20586 158.60887 164.13199 169.65506 173.37717 178.90027 182.62238 185.62404 188.74577 197.1505 202.6736 205.79533 211.31842 214.44017 219.36292 224.76593 230.28902 235.21178 239.41414 243.73656 249.259 254.78209 260.18509 265.70819 270.63095 273.75272 278.67545 283.47815 286.59988 290.20193 293.32367 298.24643 303.0491 306.17084 311.69394 316.6167 321.4194 326.94247 331.86523 336.66794 339.78967 342.79135 347.71411 353.23718 358.03986 362.96262 368.48572 373.40848 378.93161 384.45471 389.97781 395.50095 400.90399 404.02573 407.0274 411.95013 416.75284 419.75452"
             y="151.8"
             sodipodi:role="line"
             id="tspan2644">comprehensive, comparative study of film thickness by electrical capacitance and optical </tspan><tspan
             x="0 3.1217537 8.6448526 11.646539 16.569296 20.291382 23.893398 28.816156 32.538242 38.06134 46.466057 51.388813 54.510567 58.232655 63.635685 66.397224 71.319992 74.441742 79.964844 84.887604 89.810356 98.215073 103.13783 106.25958 111.78268 117.30578 122.70882 127.63157 135.55603 141.0791 144.20085 149.12361 154.64668 159.56946 165.09253 170.01529 174.33772 179.26048 184.6635 188.38559 193.90868 199.31169 204.23445 209.75754 214.6803 217.80205 223.32512 228.24789 233.77098 238.69373 243.49643 246.617 252.14009 257.06284 261.9856 270.39032 275.91342 280.23584 283.35757 288.28033 293.20309 298.12585 303.04861 308.45163 312.17374 316.97641 320.09814 325.0209 329.94366 333.0654 338.5885 343.51126 348.91428 353.83704 356.83871 361.76147 365.36349 373.76822 376.88995 382.41306 385.53479 391.05792 396.46097 401.38373 405.1058 408.22754 411.34927 419.754"
             y="170.75999"
             sodipodi:role="line"
             id="tspan2646">interferometry, the method which has proven to be the most accurate in determining film </tspan><tspan
             x="0 3.1217537 8.6448526 11.646539 16.569296 21.972328 27.495426 32.418182 36.740608 41.063034 43.824577 46.586121 52.109219 56.911907 61.234333 63.995876 69.518974 74.441734 79.844765 84.767525 88.489609 91.131081 96.654182 101.57693 106.49969 112.0228 114.66427 119.58703 122.58871 125.71045 130.63321 139.03792 144.561 147.68275 152.6055 158.12859 160.89015"
             y="189.84"
             sodipodi:role="line"
             id="tspan2648">thickness, has never been attempted. </tspan><tspan
             x="0 6.8438387 12.366938 17.169628 20.891712 25.694403 29.05628 33.979038 39.502136 45.025234 49.827927 54.750683 58.352699 61.714581 64.836334 70.239365 73.601242 79.124344 84.047096 87.28891 90.41066 98.335106 103.85821 107.22009 115.6248 120.54756 123.6693 129.1924 132.55429 137.95731 141.67941 147.20248 152.72557 155.72725 160.65001 169.05472 173.37715 176.73904 184.6635 187.78523 190.90698 196.43005 199.67189 204.59465 210.11772 215.52075 218.64249 224.0455 227.16724 232.69032 238.09334 241.455 244.57674 250.09979 255.02255 258.26437 263.18713 268.10989 273.63297 278.43567 283.35843 286.36011 289.48184 294.4046 299.80762 304.73038 309.65314 312.89496 316.01669 320.93945 325.86221 331.26523 336.7883 339.91003 345.43314 350.83615 355.75891 359.00076 366.9252 372.4483 377.37106 382.89417 386.25604 389.37781 394.78085 400.30396 405.707 408.82874 414.35187 419.75491"
             y="227.75999"
             sodipodi:role="line"
             id="tspan2650">There appear to be two main problems with applying the capacitance technique when looking </tspan><tspan
             x="0 4.9227576 8.0445108 10.806053 16.209084 21.131842 24.853928 30.256958 33.018501 36.140255 41.663353 44.785107 50.188137 52.94968 56.071434 61.594532 66.997566 70.71965 73.721336 78.644089 83.566849 88.969879 92.091637 94.853172 98.455193 101.57695 104.6987 113.10342 117.42584 120.18739"
             y="246.72"
             sodipodi:role="line"
             id="tspan2652">at very thin lubricant films. </tspan></text>
<text
           transform="matrix(0.999402,0,0,-1,131.4,245.12)"
           style="font-variant:normal;font-weight:normal;font-size:11.03999996px;font-family:TTE1B50970t00;-inkscape-font-specification:TTE1B50970t00;writing-mode:lr-tb;fill:#000000;fill-opacity:1;fill-rule:nonzero;stroke:none"
           id="text2658"><tspan
             x="0"
             y="0"
             id="tspan2656"></tspan></text>
<text
           transform="matrix(0.999443,0,0,-1,149.4,245.12)"
           style="font-variant:normal;font-weight:normal;font-size:10.98760033px;font-family:'Times New Roman';-inkscape-font-specification:Times-Roman;writing-mode:lr-tb;fill:#000000;fill-opacity:1;fill-rule:nonzero;stroke:none"
           id="text2668"><tspan
             x="0 6.1234398 9.2451935 12.366947 20.771664 23.893408 27.015162 32.538261 35.539948 40.462704 45.865734 51.388836 56.311592 60.634018 64.956444 67.958122 73.481216 78.403976 81.405663 86.328423 90.050507 98.455223 101.57697 107.10004 112.0228 115.02448 118.02615 123.54923 129.07231 132.19408 137.71716 142.63991 148.04294 152.96568 158.48877 164.01186 168.21422 171.33597 176.85905 182.38214 185.38383 188.50557 194.02866 198.83134 201.95311 207.35612 210.47786 215.40062 218.4023 223.32504 228.12773 231.24899 234.85103 237.85271 242.77547 245.89722 250.81995 256.34302 261.74606 266.06848 269.07016 273.99289 279.51599 282.51767 285.6394 291.16251 294.76453 297.88629 301.00803 306.41104 311.3338 314.33551 318.05759 321.05927 324.181 332.58575 335.34732 338.46906 346.39349 351.9166 355.03836 359.84103 365.36414 368.4859 373.40866 378.33142 383.73447"
             y="0"
             sodipodi:role="line"
             id="tspan2660">Film thickness determination depends on the dielectric constant of the film, which can </tspan><tspan
             x="0 5.4030313 10.325788 14.047873 19.450905 23.533182 28.45594 33.979038 39.502136 43.824562 46.946316 52.469414 57.392174 60.99419 65.916946 71.440048 74.561798 79.964828 84.047112 89.570206 94.492966 100.01605 104.81874 110.34183 115.86491 118.86658 124.38966 129.79268 133.87498 139.39807 144.92114 149.00345 152.12518 157.64827 162.57103 166.65334 171.57608 177.09917 182.02193 190.42665 193.54839 198.47115 203.27383 206.39557 210.47787 216.00096 220.92371 223.92538 229.44847 233.17056 237.97325 242.05499 247.57808 251.30019 255.38248 258.50421 264.02731 268.95004 272.91226 276.63437 279.63605 282.75778 291.16248 295.24481 300.76788 305.09033 310.01309 315.53616 318.2977 322.38 327.90311 333.42618 336.42786 339.54959 344.95264 349.8754 353.9577 359.4808 365.00391 368.12567 371.12732 375.93002 380.7327 383.73438"
             y="18.959999"
             sodipodi:role="line"
             id="tspan2662">vary considerably depending on the chemical nature of the film used, unlike optical </tspan><tspan
             x="0 3.1217537 8.6448526 11.646539 16.569296 20.291382 23.893398 28.816156 32.418175 37.340931 42.864029 47.786789 52.709545 56.311558 64.236 69.63903 72.760788 77.683548 83.206642 86.808655 92.331757 97.254509 102.65753 107.58028 113.10337 118.62646 122.82881 126.43084 131.95392 137.47701 141.07903 144.20078 149.72385 154.64661 158.24863 161.97073 166.77342 170.49551 174.09755 179.02031 183.94307 186.94473 190.06648 195.4695 200.39226 203.99428 207.11601 212.6391 218.16219 223.08495 228.48796 231.24899 234.85103 242.77548 248.29857 251.4203 256.34308 261.86615 265.46817 270.87119 275.79395 279.51605 282.51773 287.44049 291.76291 295.36493 298.96698 303.88971 307.01147 311.81415 314.93588 318.05762 323.46066 328.38339 331.50516 336.90817 340.51019 343.63193 346.63361 349.75534 352.75702 355.87875 360.80151 364.28348 372.20789 375.32962 378.3313 383.73434"
             y="37.919998"
             sodipodi:role="line"
             id="tspan2664">interference which depends on the refractive index, which varies relatively little with </tspan><tspan
             x="0 4.9227576 10.445856 15.368613 23.773331 26.895084 31.817842 36.740601 39.86235 42.503826 47.426582 52.94968 61.354397 66.877495 72.400597 76.723022 79.844772 82.846458 85.968216 91.491318 97.014397 99.775955"
             y="56.880001"
             sodipodi:role="line"
             id="tspan2666">chemical composition. </tspan></text>
<text
           transform="matrix(0.999402,0,0,-1,131.40009,169.28)"
           style="font-variant:normal;font-weight:normal;font-size:11.03999996px;font-family:TTE1B50970t00;-inkscape-font-specification:TTE1B50970t00;writing-mode:lr-tb;fill:#000000;fill-opacity:1;fill-rule:nonzero;stroke:none"
           id="text2672"><tspan
             x="0"
             y="0"
             id="tspan2670"></tspan></text>
<text
           transform="matrix(0.999443,0,0,-1,149.4,169.28)"
           style="font-variant:normal;font-weight:normal;font-size:10.98760033px;font-family:'Times New Roman';-inkscape-font-specification:Times-Roman;writing-mode:lr-tb;fill:#000000;fill-opacity:1;fill-rule:nonzero;stroke:none"
           id="text2678"><tspan
             x="0 6.1234398 11.646539 15.368624 18.730501 24.133533 29.05629 32.778374 38.181408 41.543285 44.665039 50.188137 53.189823 58.712921 62.074799 65.676819 68.798569 71.920326 80.325043 84.647469 88.009346 91.131104 96.534119 99.896011 103.01775 108.42077 113.34352 116.70541 122.10844 127.03119 132.55428 138.07736 146.48207 151.40483 154.52658 158.24867 163.17143 166.41325 170.13536 175.05812 180.58119 185.98422 190.90697 194.26886 197.27054 200.39227 203.63411 206.75584 211.07826 214.44016 219.84319 225.366 228.48773 231.84964 237.25266 242.65567 248.17873 256.10318 261.62625 264.98816 268.10989 271.71191 275.07382 278.19556 283.59857 288.52136 291.88327 296.80603 302.3291 307.85217 313.25519 318.17795 323.58096 326.70273 329.82446 335.34753 340.75055 345.67331 348.67499 352.03687 355.15863 360.56168 365.96472 370.88748 374.60953 378.93198 383.73465"
             y="0"
             sodipodi:role="line"
             id="tspan2674">For very thin films in the nanometre range it is not known if the conventional inverse </tspan><tspan
             x="0 3.722085 8.6448421 11.646528 16.569286 19.570972 22.692726 28.215824 33.738922 38.061348 43.464382 46.586136 52.109234 54.870773 60.273808 65.196564 68.318321 76.24276 81.045448 85.968208 91.49131 94.252846 99.055542 103.97829 109.50138 114.42414 119.22683 122.2285 125.35024 130.27299 135.79608 140.59877 145.52153 148.28308 153.20584 158.72893 164.25201 166.89349 171.21593 176.13869 181.5417 186.46446 190.18655 194.98924 198.11099 201.11266 206.63574 212.15883 214.92038 222.84483 228.36792 233.89 236.89168 242.41475 245.05624 249.37868 254.90175 260.42484 265.94794 269.06967 274.47269 277.23422 282.63724 288.16034 293.68341 299.20651 301.96805 307.37106 312.29382 315.41559 320.93866 325.86142 330.18384"
             y="19.08"
             sodipodi:role="line"
             id="tspan2676">relationship between capacitance and separation would supply good values.</tspan></text>
<text
           transform="matrix(0.999443,0,0,-1,113.4,112.28)"
           style="font-variant:normal;font-weight:normal;font-size:10.98760033px;font-family:'Times New Roman';-inkscape-font-specification:Times-Roman;writing-mode:lr-tb;fill:#000000;fill-opacity:1;fill-rule:nonzero;stroke:none"
           id="text2684"><tspan
             x="0 6.8438387 12.366938 17.289696 20.051243 28.455961 33.378719 36.500473 42.023571 44.785118 47.786804 52.10923 56.43166 61.83469 66.757454 69.51899 72.640747 78.043777 81.165527 85.487953 88.249496 93.772598 97.374619 102.77765 106.01947 110.82216 115.74492 118.86667 121.50814 129.43259 132.55432 135.67607 138.79781 141.55936 147.08244 152.48546 157.40822 161.01025 165.93301 171.45609 179.86081 184.78357 187.54512 192.46788 196.18999 201.11273 203.8743 206.99603 212.39905 217.32181 220.08336 223.20399 231.12846 236.65154 239.4131 242.41476 245.53651 253.94122 257.06296 260.18469 265.10745 268.10913 271.23087 276.75397 282.27704 286.59946 289.36102 293.56339 299.08646 307.61124 316.01593 320.93869 324.6608 327.78253 332.58524 337.508 343.03107 345.79263 350.71539 356.23846 361.64148 367.04449 371.96729 374.72885 380.25195 387.09576 392.61887 395.74063 400.06305 402.82462 410.74902 413.7507 416.87244 419.75406"
             y="0"
             sodipodi:role="line"
             id="tspan2680">The main issue this project will overcome are the two limitations summarized above. This will </tspan><tspan
             x="0 5.5230985 10.445856 13.207398 18.730497 24.253595 29.776693 34.699451 37.460995 42.984093 48.387123 51.148666 56.671764 60.99419 64.115944 69.639046 75.042076 77.803619 80.925369 86.448471 89.570221 95.093323 97.734795 101.45688 104.45856 107.58032 115.98504 118.86665 124.38973 129.91283 133.03459 136.03627 140.95903 145.76172 148.88345 151.64502 154.76675 160.16977 163.2915 168.21426 171.8163 175.53839 180.34108 184.06319 189.58627 197.99098 202.91374 206.03548 209.75758 215.1606 217.92215 221.043 226.56609"
             y="18.959999"
             sodipodi:role="line"
             id="tspan2682">be done by using thin film optical interferometry to </tspan></text>
<text
           transform="matrix(0.999443,0,0,-1,342.59988,93.32)"
           style="font-style:italic;font-variant:normal;font-size:10.98760033px;font-family:'Times New Roman';-inkscape-font-specification:Times-Italic;writing-mode:lr-tb;fill:#000000;fill-opacity:1;fill-rule:nonzero;stroke:none"
           id="text2688"><tspan
             x="0 4.9227576 10.325774 13.447514 16.569252 21.972269 26.294695 31.81778 34.81945"
             y="0"
             sodipodi:role="line"
             id="tspan2686">calibrate</tspan></text>
<text
           transform="matrix(0.999443,0,0,-1,385.07987,93.32)"
           style="font-variant:normal;font-weight:normal;font-size:10.98760033px;font-family:'Times New Roman';-inkscape-font-specification:Times-Roman;writing-mode:lr-tb;fill:#000000;fill-opacity:1;fill-rule:nonzero;stroke:none"
           id="text2694"><tspan
             x="0 4.922761 9.8455181 15.368603 20.171293 25.094049 28.095722 31.217461 36.140217 41.543236 46.465992 51.388748 54.150307 62.555023 67.477783 72.400536 76.722961 82.246048 85.848083 90.770836 99.17556 104.09831 109.62143 112.74316 117.06559 119.82715 122.58871 126.07064 131.59375 134.35532 137.47705 143.00017 147.92293"
             y="0"
             sodipodi:role="line"
             id="tspan2690">capacitance measurements. In the </tspan><tspan
             x="-271.83154 -266.30847 -261.38571 -258.384 -255.26227 -249.73917 -244.21606 -238.69296 -233.16988 -227.76685 -224.64508 -220.44273 -215.51997 -212.63837 -207.11526 -201.59216 -198.59047 -195.46872 -190.54596 -185.74327 -182.62152 -179.73991 -176.61816 -171.21513 -168.09337 -163.17062 -159.5686 -155.84651 -151.04382 -147.32173 -142.39899 -136.8759 -132.07321 -127.15045 -124.26882 -115.86411 -110.94135 -107.81961 -102.29652 -96.773445 -91.250359 -88.4888 -85.607178 -82.485435 -76.962357 -72.039597 -69.157974 -64.235214 -58.712132 -53.309113 -47.78603 -42.263557 -37.460865 -34.339127 -31.337456 -25.814371 -20.411356 -17.529732 -12.606974 -7.0838895 -3.3617897 2.1612945 10.566011 13.687721 19.330872 27.73559 30.617214 34.93964 40.462723 44.184826 47.906925 52.829681 57.752438 62.675198 65.556824 70.359512 75.282265 80.805351 83.686974 89.089996 94.012749 96.894379 102.41746 106.73988 111.66264 117.18575 120.06738 124.99014 129.31256 132.19418 137.7173 143.12035 147.92303"
             y="18.959999"
             sodipodi:role="line"
             id="tspan2692">ball–on–disc optical interference method, the conducting chromium surface can be used as one </tspan></text>
</g><path
         d="m 2071,4997.67 c -6,-1 -12,-5 -18,-7 -6,-5 -19,-14 -19,-14 -8,-10 -16,-21 -23,-32 -2,-13 -5,-24 -6,-37 1,-22 1,-49 8,-72 3,-9 7,-20 15,-27 3,-3 12,-10 12,-10 292,0 583,-5 875,-2 4,0 -7,8 -8,12 -1,12 11,34 15,46 3,28 10,56 0,84 -4,12 -12,25 -19,37 -2,3 -8,11 -8,11 1,2 5,5 4,8 0,2 -5,0 -6,2 -5,3 -10,9 -15,13 -5,4 -12,5 -17,10 l -790,-22"
         style="fill:#ffff00;fill-opacity:1;fill-rule:evenodd;stroke:none"
         id="path2696"
         inkscape:connector-curvature="0" /><path
         d="m 2071,4997.67 c -6,-1 -12,-5 -18,-7 -6,-5 -19,-14 -19,-14 -8,-10 -16,-21 -23,-32 -2,-13 -5,-24 -6,-37 1,-22 1,-49 8,-72 3,-9 7,-20 15,-27 3,-3 12,-10 12,-10 292,0 583,-5 875,-2 4,0 -7,8 -8,12 -1,12 11,34 15,46 3,28 10,56 0,84 -4,12 -12,25 -19,37 -2,3 -8,11 -8,11 1,2 5,5 4,8 0,2 -5,0 -6,2 -5,3 -10,9 -15,13 -5,4 -12,5 -17,10 z"
         style="fill:none;stroke:#000000;stroke-width:6.25;stroke-linecap:round;stroke-linejoin:round;stroke-miterlimit:10;stroke-dasharray:none;stroke-opacity:1"
         id="path2698"
         inkscape:connector-curvature="0" /><path
         d="m 1874,4975.67 h 1221 v 208 H 1874 Z"
         style="fill:#ccffff;fill-opacity:1;fill-rule:evenodd;stroke:none"
         id="path2700"
         inkscape:connector-curvature="0" /><path
         d="m 1874,4975.67 h 1221 v 208 H 1874 Z"
         style="fill:none;stroke:#000000;stroke-width:8.33329964;stroke-linecap:round;stroke-linejoin:miter;stroke-miterlimit:8;stroke-dasharray:none;stroke-opacity:1"
         id="path2702"
         inkscape:connector-curvature="0" /><path
         d="m 2410,4978.67 56,79"
         style="fill:none;stroke:#000000;stroke-width:8.33329964;stroke-linecap:butt;stroke-linejoin:round;stroke-miterlimit:10;stroke-dasharray:none;stroke-opacity:1"
         id="path2706"
         inkscape:connector-curvature="0" /><path
         d="m 2463,5030.67 24,56 -44,-39 20,6 v -23"
         style="fill:#000000;fill-opacity:1;fill-rule:evenodd;stroke:none"
         id="path2708"
         inkscape:connector-curvature="0" /><path
         d="m 2476,4977.67 50,72"
         style="fill:none;stroke:#000000;stroke-width:8.33329964;stroke-linecap:butt;stroke-linejoin:round;stroke-miterlimit:10;stroke-dasharray:none;stroke-opacity:1"
         id="path2710"
         inkscape:connector-curvature="0" /><path
         d="m 2524,5022.67 23,56 -45,-40 22,7 v -23"
         style="fill:#000000;fill-opacity:1;fill-rule:evenodd;stroke:none"
         id="path2712"
         inkscape:connector-curvature="0" /><path
         d="m 2273,5163.67 27,-34"
         style="fill:none;stroke:#000000;stroke-width:8.33329964;stroke-linecap:butt;stroke-linejoin:round;stroke-miterlimit:10;stroke-dasharray:none;stroke-opacity:1"
         id="path2714"
         inkscape:connector-curvature="0" /><path
         d="m 2276,5137.67 46,-39 -24,56 v -22 l -22,5"
         style="fill:#000000;fill-opacity:1;fill-rule:evenodd;stroke:none"
         id="path2716"
         inkscape:connector-curvature="0" /><path
         d="m 1874,4963.67 h 1219 v 15 H 1874 Z"
         style="fill:#000000;fill-opacity:1;fill-rule:evenodd;stroke:none"
         id="path2718"
         inkscape:connector-curvature="0" /><path
         d="m 1855,4646.67 h 1282 v 95 H 1855 Z"
         style="fill:#ffffff;fill-opacity:1;fill-rule:evenodd;stroke:none"
         id="path2720"
         inkscape:connector-curvature="0" /><path
         d="m 2443,4843.67 h 1 l 1,1 h 1 v 30 l -2,2 -1,-2 v -31"
         style="fill:#000000;fill-opacity:1;fill-rule:evenodd;stroke:none"
         id="path2722"
         inkscape:connector-curvature="0" /><path
         d="m 2443,4884.67 h 1 l 1,2 h 1 v 30 l -2,1 -1,-1 v -32"
         style="fill:#000000;fill-opacity:1;fill-rule:evenodd;stroke:none"
         id="path2724"
         inkscape:connector-curvature="0" /><path
         d="m 2443,4926.67 h 1 l 1,1 h 1 v 30 l -2,1 -1,-1 v -31"
         style="fill:#000000;fill-opacity:1;fill-rule:evenodd;stroke:none"
         id="path2726"
         inkscape:connector-curvature="0" /><path
         d="m 2443,4966.67 h 1 l 1,2 h 1 v 29 l -2,2 -1,-2 v -31"
         style="fill:#000000;fill-opacity:1;fill-rule:evenodd;stroke:none"
         id="path2728"
         inkscape:connector-curvature="0" /><path
         d="m 2443,5008.67 h 1 l 1,1 h 1 v 31 l -2,1 -1,-1 v -32"
         style="fill:#000000;fill-opacity:1;fill-rule:evenodd;stroke:none"
         id="path2730"
         inkscape:connector-curvature="0" /><path
         d="m 2443,5049.67 h 1 l 1,1 h 1 v 30 l -2,1 -1,-1 v -31"
         style="fill:#000000;fill-opacity:1;fill-rule:evenodd;stroke:none"
         id="path2732"
         inkscape:connector-curvature="0" /><path
         d="m 2443,5090.67 h 1 l 1,1 h 1 v 31 l -2,1 -1,-1 v -32"
         style="fill:#000000;fill-opacity:1;fill-rule:evenodd;stroke:none"
         id="path2734"
         inkscape:connector-curvature="0" /><path
         d="m 2443,5132.67 h 1 l 1,1 h 1 v 30 l -2,1 -1,-1 v -31"
         style="fill:#000000;fill-opacity:1;fill-rule:evenodd;stroke:none"
         id="path2736"
         inkscape:connector-curvature="0" /><path
         d="m 2443,5173.67 h 1 l 1,1 h 1 v 30 l -2,2 -1,-2 v -31"
         style="fill:#000000;fill-opacity:1;fill-rule:evenodd;stroke:none"
         id="path2738"
         inkscape:connector-curvature="0" /><path
         d="m 2443,5214.67 h 1 l 1,1 h 1 v 31 h -3 v -32"
         style="fill:#000000;fill-opacity:1;fill-rule:evenodd;stroke:none"
         id="path2740"
         inkscape:connector-curvature="0" /><path
         d="m 2443,5256.67 h 1 l 1,1 h 1 v 30 l -2,1 -1,-1 v -31"
         style="fill:#000000;fill-opacity:1;fill-rule:evenodd;stroke:none"
         id="path2742"
         inkscape:connector-curvature="0" /><g
         id="g2748"
         transform="scale(8.33333)" /><g
         id="g2754"><g
           id="g2756"
           clip-path="url(#clipPath2760)"><g
             id="g2762"
             transform="scale(8.33333)" /></g></g><g
         id="g2764"><g
           id="g2766"
           clip-path="url(#clipPath2770)"><g
             id="g2772"
             transform="scale(8.33333)" /></g></g><g
         id="g2778"><g
           id="g2780"
           clip-path="url(#clipPath2784)"><g
             id="g2786"
             transform="scale(8.33333)" /></g></g><g
         id="g2792"><g
           id="g2794"
           clip-path="url(#clipPath2798)"><g
             id="g2800"
             transform="scale(8.33333)" /></g></g><g
         id="g2802"
         transform="scale(8.33333)" /><g
         id="g2808"><g
           id="g2810"
           clip-path="url(#clipPath2814)"><g
             id="g2816"
             transform="scale(8.33333)" /></g></g><g
         id="g2822"><g
           id="g2824"
           clip-path="url(#clipPath2828)"><g
             id="g2830"
             transform="scale(8.33333)" /></g></g><path
         d="m 3131,4773.67 -23,11 -25,11 -28,12 -32,9 -34,10 -36,8 -38,7 -40,8 -44,6 -44,6 -46,6 -48,3 -47,4 -50,1 -102,3 -104,-3 -51,-3 -49,-2 -49,-5 -46,-5 -45,-5 -42,-7 -42,-7 -38,-8 -37,-9 -34,-10 -31,-10 -28,-11 -25,-12 -23,-12 644,-66 637,70"
         style="fill:#b2b2b2;fill-opacity:1;fill-rule:evenodd;stroke:none"
         id="path2832"
         inkscape:connector-curvature="0" /><path
         d="m 3131,4773.67 -23,11 -25,11 -28,12 -32,10 -34,9 -36,8 -38,7 -40,8 -44,6 -44,6 -46,6 -48,3 -47,4 -50,1 -102,3 -104,-3 -51,-3 -49,-2 -49,-5 -46,-5 -45,-5 -42,-7 -42,-7 -38,-8 -37,-9 -34,-10 -31,-10 -28,-11 -25,-11 -23,-13"
         style="fill:none;stroke:#000000;stroke-width:8.33329964;stroke-linecap:butt;stroke-linejoin:round;stroke-miterlimit:10;stroke-dasharray:none;stroke-opacity:1"
         id="path2834"
         inkscape:connector-curvature="0" /><path
         d="m 1874,4975.67 h 1221 v 208 H 1874 Z"
         style="fill:#ccffff;fill-opacity:1;fill-rule:evenodd;stroke:none"
         id="path2836"
         inkscape:connector-curvature="0" /><path
         d="m 1874,4975.67 h 1221 v 208 H 1874 Z"
         style="fill:none;stroke:#000000;stroke-width:8.33329964;stroke-linecap:round;stroke-linejoin:miter;stroke-miterlimit:8;stroke-dasharray:none;stroke-opacity:1"
         id="path2838"
         inkscape:connector-curvature="0" /><path
         d="m 1876,4958.67 h 1220 v 29 H 1876 Z"
         style="fill:#808080;fill-opacity:1;fill-rule:evenodd;stroke:none"
         id="path2858"
         inkscape:connector-curvature="0" /><path
         d="m 1876,4958.67 h 1220 v 29 H 1876 Z"
         style="fill:none;stroke:#000000;stroke-width:8.33329964;stroke-linecap:round;stroke-linejoin:miter;stroke-miterlimit:8;stroke-dasharray:none;stroke-opacity:1"
         id="path2860"
         inkscape:connector-curvature="0" /><path
         d="m 2443,4843.67 h 1 l 1,1 h 1 v 30 l -2,2 -1,-2 v -31"
         style="fill:#000000;fill-opacity:1;fill-rule:evenodd;stroke:none"
         id="path2866"
         inkscape:connector-curvature="0" /><path
         d="m 2443,4884.67 h 1 l 1,2 h 1 v 30 l -2,1 -1,-1 v -32"
         style="fill:#000000;fill-opacity:1;fill-rule:evenodd;stroke:none"
         id="path2868"
         inkscape:connector-curvature="0" /><path
         d="m 2443,4926.67 h 1 l 1,1 h 1 v 30 l -2,1 -1,-1 v -31"
         style="fill:#000000;fill-opacity:1;fill-rule:evenodd;stroke:none"
         id="path2870"
         inkscape:connector-curvature="0" /><path
         d="m 2443,4966.67 h 1 l 1,2 h 1 v 29 l -2,2 -1,-2 v -31"
         style="fill:#000000;fill-opacity:1;fill-rule:evenodd;stroke:none"
         id="path2872"
         inkscape:connector-curvature="0" /><path
         d="m 2443,5008.67 h 1 l 1,1 h 1 v 31 l -2,1 -1,-1 v -32"
         style="fill:#000000;fill-opacity:1;fill-rule:evenodd;stroke:none"
         id="path2874"
         inkscape:connector-curvature="0" /><path
         d="m 2443,5049.67 h 1 l 1,1 h 1 v 30 l -2,1 -1,-1 v -31"
         style="fill:#000000;fill-opacity:1;fill-rule:evenodd;stroke:none"
         id="path2876"
         inkscape:connector-curvature="0" /><path
         d="m 2443,5090.67 h 1 l 1,1 h 1 v 30 l -2,2 -1,-2 v -31"
         style="fill:#000000;fill-opacity:1;fill-rule:evenodd;stroke:none"
         id="path2878"
         inkscape:connector-curvature="0" /><path
         d="m 2443,5131.67 h 1 l 1,2 h 1 v 30 l -2,1 -1,-1 v -32"
         style="fill:#000000;fill-opacity:1;fill-rule:evenodd;stroke:none"
         id="path2880"
         inkscape:connector-curvature="0" /><path
         d="m 2443,5173.67 h 1 l 1,1 h 1 v 30 l -2,2 -1,-2 v -31"
         style="fill:#000000;fill-opacity:1;fill-rule:evenodd;stroke:none"
         id="path2882"
         inkscape:connector-curvature="0" /><path
         d="m 2443,5214.67 h 1 l 1,1 h 1 v 31 h -3 v -32"
         style="fill:#000000;fill-opacity:1;fill-rule:evenodd;stroke:none"
         id="path2884"
         inkscape:connector-curvature="0" /><path
         d="m 2443,5256.67 h 1 l 1,1 h 1 v 30 l -2,1 -1,-1 v -31"
         style="fill:#000000;fill-opacity:1;fill-rule:evenodd;stroke:none"
         id="path2886"
         inkscape:connector-curvature="0" /><path
         d="m 2443,4843.67 h 1 l 1,1 h 1 v 30 l -2,2 -1,-2 v -31"
         style="fill:#000000;fill-opacity:1;fill-rule:evenodd;stroke:none"
         id="path2888"
         inkscape:connector-curvature="0" /><path
         d="m 2443,4884.67 h 1 l 1,2 h 1 v 30 l -2,1 -1,-1 v -32"
         style="fill:#000000;fill-opacity:1;fill-rule:evenodd;stroke:none"
         id="path2890"
         inkscape:connector-curvature="0" /><path
         d="m 2443,4926.67 h 1 l 1,1 h 1 v 30 l -2,1 -1,-1 v -31"
         style="fill:#000000;fill-opacity:1;fill-rule:evenodd;stroke:none"
         id="path2892"
         inkscape:connector-curvature="0" /><path
         d="m 2443,4966.67 h 1 l 1,2 h 1 v 29 l -2,2 -1,-2 v -31"
         style="fill:#000000;fill-opacity:1;fill-rule:evenodd;stroke:none"
         id="path2894"
         inkscape:connector-curvature="0" /><path
         d="m 2443,5008.67 h 1 l 1,1 h 1 v 31 l -2,1 -1,-1 v -32"
         style="fill:#000000;fill-opacity:1;fill-rule:evenodd;stroke:none"
         id="path2896"
         inkscape:connector-curvature="0" /><path
         d="m 2443,5049.67 h 1 l 1,1 h 1 v 30 l -2,1 -1,-1 v -31"
         style="fill:#000000;fill-opacity:1;fill-rule:evenodd;stroke:none"
         id="path2898"
         inkscape:connector-curvature="0" /><path
         d="m 2443,5090.67 h 1 l 1,1 h 1 v 30 l -2,2 -1,-2 v -31"
         style="fill:#000000;fill-opacity:1;fill-rule:evenodd;stroke:none"
         id="path2900"
         inkscape:connector-curvature="0" /><path
         d="m 2443,5131.67 h 1 l 1,2 h 1 v 30 l -2,1 -1,-1 v -32"
         style="fill:#000000;fill-opacity:1;fill-rule:evenodd;stroke:none"
         id="path2902"
         inkscape:connector-curvature="0" /><path
         d="m 2443,5173.67 h 1 l 1,1 h 1 v 30 l -2,2 -1,-2 v -31"
         style="fill:#000000;fill-opacity:1;fill-rule:evenodd;stroke:none"
         id="path2904"
         inkscape:connector-curvature="0" /><path
         d="m 2443,5214.67 h 1 l 1,1 h 1 v 31 h -3 v -32"
         style="fill:#000000;fill-opacity:1;fill-rule:evenodd;stroke:none"
         id="path2906"
         inkscape:connector-curvature="0" /><path
         d="m 2443,5256.67 h 1 l 1,1 h 1 v 30 l -2,1 -1,-1 v -31"
         style="fill:#000000;fill-opacity:1;fill-rule:evenodd;stroke:none"
         id="path2908"
         inkscape:connector-curvature="0" /><g
         id="g2910"
         transform="scale(8.33333)" /><g
         id="g2920"><g
           id="g2922"
           clip-path="url(#clipPath2926)"><g
             id="g2928"
             transform="scale(8.33333)"><text
               transform="matrix(0.999447,0,0,-1,193.56,622.16)"
               style="font-variant:normal;font-weight:normal;font-size:11.93109989px;font-family:'Times New Roman';-inkscape-font-specification:Times-Roman;writing-mode:lr-tb;fill:#000000;fill-opacity:1;fill-rule:nonzero;stroke:none"
               id="text2932"><tspan
                 sodipodi:role="line"
                 id="tspan2930"
                 x="0"
                 y="10.885104" /></text>
</g></g></g><g
         id="g2934"><g
           id="g2936"
           clip-path="url(#clipPath2940)"><g
             id="g2942"
             transform="scale(8.33333)" /></g></g><path
         d="m 1838,4662.67 h 1299 v 119 H 1838 Z"
         style="fill:#ffffff;fill-opacity:1;fill-rule:evenodd;stroke:none"
         id="path2944"
         inkscape:connector-curvature="0" /><path
         d="m 1838,4662.67 h 1299 v 119 H 1838 Z"
         style="fill:none;stroke:#ffffff;stroke-width:6.25;stroke-linecap:round;stroke-linejoin:miter;stroke-miterlimit:8;stroke-dasharray:none;stroke-opacity:1"
         id="path2946"
         inkscape:connector-curvature="0" /><path
         d="m 1925,5647.67 c -20,-17 -21,-48 -3,-67 18,-19 48,-20 68,-2 19,17 20,48 2,67 -18,19 -48,20 -67,2"
         style="fill:#ffffff;fill-opacity:1;fill-rule:evenodd;stroke:none"
         id="path2948"
         inkscape:connector-curvature="0" /><g
         id="g2956"
         transform="scale(8.33333)"><text
           transform="matrix(0.999447,0,0,-1,278.88,563)"
           style="font-variant:normal;font-weight:normal;font-size:11.93109989px;font-family:'Times New Roman';-inkscape-font-specification:Times-Roman;writing-mode:lr-tb;fill:#000000;fill-opacity:1;fill-rule:nonzero;stroke:none"
           id="text2960"><tspan
             x="0 6.723712 10.085553 15.368481 20.651409 24.01325 27.014902 33.018208 38.301136 41.662975 45.024818"
             y="0"
             sodipodi:role="line"
             id="tspan2958">Steel ball </tspan></text>
<text
           id="text3157"
           style="font-variant:normal;font-weight:normal;font-size:11.92780018px;font-family:'Times New Roman';-inkscape-font-specification:Times-Roman;writing-mode:lr-tb;fill:#000000;fill-opacity:1;fill-rule:nonzero;stroke:none;stroke-width:0.99972343"
           transform="scale(0.99972347,-1.0002766)"
           x="174.67825"
           y="-606.70721"><tspan
             id="tspan3155"
             sodipodi:role="line"
             style="stroke-width:0.99972343"
             x="174.67825"
             y="-606.70721">Cr layer</tspan></text>
<text
           y="-582.08032"
           x="168.9763"
           transform="scale(0.99972347,-1.0002766)"
           style="font-variant:normal;font-weight:normal;font-size:11.92780018px;font-family:'Times New Roman';-inkscape-font-specification:Times-Roman;writing-mode:lr-tb;fill:#000000;fill-opacity:1;fill-rule:nonzero;stroke:none;stroke-width:0.99972343"
           id="text3259"><tspan
             y="-582.08032"
             x="168.9763"
             style="stroke-width:0.99972343"
             sodipodi:role="line"
             id="tspan3257">Lubricant</tspan></text>
<text
           y="-606.70721"
           x="174.67825"
           transform="scale(0.99972347,-1.0002766)"
           style="font-variant:normal;font-weight:normal;font-size:11.92780018px;font-family:'Times New Roman';-inkscape-font-specification:Times-Roman;writing-mode:lr-tb;fill:#000000;fill-opacity:1;fill-rule:nonzero;stroke:none;stroke-width:0.99972343"
           id="text3293"><tspan
             y="-606.70721"
             x="174.67825"
             style="stroke-width:0.99972343"
             sodipodi:role="line"
             id="tspan3291">Cr layer</tspan></text>
<text
           id="text3297"
           style="font-variant:normal;font-weight:normal;font-size:11.92780018px;font-family:'Times New Roman';-inkscape-font-specification:Times-Roman;writing-mode:lr-tb;fill:#000000;fill-opacity:1;fill-rule:nonzero;stroke:none;stroke-width:0.99972343"
           transform="scale(0.99972347,-1.0002766)"
           x="166.05086"
           y="-627.32654"><tspan
             id="tspan3295"
             sodipodi:role="line"
             style="stroke-width:0.99972343"
             x="166.05086"
             y="-627.32654">Glass disc</tspan></text>
</g><path
         d="m 1816,5235.67 108,-72 1,-2 v -2 l -2,-2 -2,1 -108,72 -1,2 v 2 l 2,1 z m 113,-49 28,-49 -55,7"
         style="fill:#000000;fill-opacity:1;fill-rule:nonzero;stroke:none"
         id="path2962"
         inkscape:connector-curvature="0" /></g><path
       style="fill:none;stroke:#000000;stroke-width:0.62594283px;stroke-linecap:butt;stroke-linejoin:miter;stroke-opacity:1;marker-end:url(#TriangleOutL)"
       d="m 215.93466,607.52371 13.16531,-8.69375"
       id="path3161"
       inkscape:connector-curvature="0" /><path
       style="fill:none;stroke:#000000;stroke-width:0.75px;stroke-linecap:butt;stroke-linejoin:miter;stroke-opacity:1;marker-end:url(#marker3265)"
       d="m 220.12501,584.99998 29.625,2.625"
       id="path3261"
       inkscape:connector-curvature="0" /></g></svg>