<?xml version="1.0" encoding="UTF-8" standalone="no"?>
<!-- Created with Inkscape (http://www.inkscape.org/) -->

<svg
   xmlns:dc="http://purl.org/dc/elements/1.1/"
   xmlns:cc="http://creativecommons.org/ns#"
   xmlns:rdf="http://www.w3.org/1999/02/22-rdf-syntax-ns#"
   xmlns:svg="http://www.w3.org/2000/svg"
   xmlns="http://www.w3.org/2000/svg"
   xmlns:sodipodi="http://sodipodi.sourceforge.net/DTD/sodipodi-0.dtd"
   xmlns:inkscape="http://www.inkscape.org/namespaces/inkscape"
   id="svg4155"
   version="1.1"
   inkscape:version="0.91 r13725"
   xml:space="preserve"
   width="743.75"
   height="1052.5"
   viewBox="0 0 743.75 1052.5"
   sodipodi:docname="dao_antrag.svg"><metadata
     id="metadata4161"><rdf:RDF><cc:Work
         rdf:about=""><dc:format>image/svg+xml</dc:format><dc:type
           rdf:resource="http://purl.org/dc/dcmitype/StillImage" /><dc:title></dc:title></cc:Work></rdf:RDF></metadata><defs
     id="defs4159" /><sodipodi:namedview
     pagecolor="#ffffff"
     bordercolor="#666666"
     borderopacity="1"
     objecttolerance="10"
     gridtolerance="10"
     guidetolerance="10"
     inkscape:pageopacity="0"
     inkscape:pageshadow="2"
     inkscape:window-width="1301"
     inkscape:window-height="744"
     id="namedview4157"
     showgrid="false"
     inkscape:zoom="0.84248162"
     inkscape:cx="304.188"
     inkscape:cy="617.68922"
     inkscape:window-x="65"
     inkscape:window-y="24"
     inkscape:window-maximized="1"
     inkscape:current-layer="g4163" /><g
     id="g4163"
     inkscape:groupmode="layer"
     inkscape:label="antrag-auf-verlaengerung-bachelorarbeit-masterarbeit"
     transform="matrix(1.25,0,0,-1.25,0,1052.5)"><text
       transform="scale(0.99969995,-1.0003001)"
       style="font-variant:normal;font-weight:normal;font-size:11.99639988px;font-family:sans-serif;-inkscape-font-specification:sans-serif;writing-mode:lr-tb;fill:#000000;fill-opacity:1;fill-rule:nonzero;stroke:none;font-style:normal;font-stretch:normal;"
       id="text4165"
       x="155.20647"
       y="-726.23181"><tspan
         x="155.20647 163.60895 171.05112 175.13229 179.8136 186.53557 193.85767 197.21866 203.94064 211.26274 215.22386 218.58485 226.62724 233.34912 238.03052 241.27144 247.99341 255.31552 262.6376 269.35959 273.92093 281.24301 288.56512 295.88733 299.2482 306.5704 313.2923 317.97369 321.33469 329.9772 336.69907 343.42105 348.10245 355.42453 362.02646 365.38745 369.34857 376.67078 383.99286 391.31497 398.03696 404.03516 410.75714 414.11801 418.07922 421.44022 428.76233 435.48419 440.04562"
         y="-726.23181"
         sodipodi:role="line"
         id="tspan4167"
         style="-inkscape-font-specification:'sans-serif Bold';font-family:sans-serif;font-weight:bold;font-style:normal;font-stretch:normal;font-variant:normal">Antrag auf Verlängerung der Bearbeitungszeit der </tspan></text>
<text
       transform="matrix(0.9994,0,0,-1,70.8,689.7197)"
       style="font-variant:normal;font-weight:normal;font-size:9px;font-family:sans-serif;-inkscape-font-specification:sans-serif;writing-mode:lr-tb;fill:#000000;fill-opacity:1;fill-rule:nonzero;stroke:none;font-style:normal;font-stretch:normal;"
       id="text4185"><tspan
         x="0"
         y="0"
         id="tspan4187"
         style="-inkscape-font-specification:sans-serif;font-family:sans-serif;font-weight:normal;font-style:normal;font-stretch:normal;font-variant:normal;">_</tspan></text>
<text
       transform="matrix(0.9994,0,0,-1,75.839974,689.7197)"
       style="font-variant:normal;font-weight:normal;font-size:9px;font-family:sans-serif;-inkscape-font-specification:sans-serif;writing-mode:lr-tb;fill:#000000;fill-opacity:1;fill-rule:nonzero;stroke:none;font-style:normal;font-stretch:normal;"
       id="text4189"><tspan
         x="0 5.0428982 10.085796 15.128694 20.051497 25.094395 30.137293 35.060093 40.102993 45.145889 50.188789 55.111591 60.154488 65.197388 70.120186 75.163086 80.205986 85.248779 90.171585 95.214485 100.25738 105.18018 110.22308 115.14588 120.18878 125.23168 130.27458 135.31747 140.24028 145.28317 150.32597 155.24887 160.29167 165.33458 170.37747 175.30037 180.34326 185.38617 278.319 283.36191 288.40479 293.44769 298.4906 303.41339 308.4563 313.49918 318.42169 323.46457 328.50748 333.55038 338.47318 343.51608 348.55899 353.48187 358.52478 363.56769 368.61047 373.53339 378.57626 383.61917 388.54196 393.58487 398.50766 403.55057 408.59348 413.63635 418.67926 423.60208"
         y="0"
         sodipodi:role="line"
         id="tspan4191">_____________________________________ _____________________________ </tspan><tspan
         x="-5.0430002 1.440699 6.4835968 14.047899 19.090797 21.612301 24.133703 30.017103 35.060001 38.061699 43.104595 48.027397 55.591702 60.634598 278.319 285.64319 290.6861 293.20749 296.20929 298.73071 301.73239 308.21609 311.2178 313.85928"
         y="10.44"
         sodipodi:role="line"
         id="tspan4193"
         style="-inkscape-font-specification:sans-serif;font-family:sans-serif;font-weight:normal;font-style:normal;font-stretch:normal;font-variant:normal;">Name, Vorname Matr.-Nr. </tspan></text>
<text
       transform="matrix(0.9994,0,0,-1,70.8,646.5197)"
       style="font-style:normal;font-variant:normal;font-weight:normal;font-stretch:normal;font-size:11.03999996px;font-family:sans-serif;-inkscape-font-specification:sans-serif;writing-mode:lr-tb;fill:#000000;fill-opacity:1;fill-rule:nonzero;stroke:none"
       id="text4195"><tspan
         x="0 7.924777 10.326154 16.449799 19.571724 26.896101 29.297478 35.421223 41.544868 47.66851 50.069988 53.191814 59.315456 65.439102 71.682838 74.804764 80.928413 87.052055 92.455254 95.577179 102.90156 108.9051 115.14883 121.15247 127.27612 133.39977 136.52159 142.64534 146.24745 155.49298 157.89445 164.0181 169.5381 172.65993 178.78368 184.90732 191.03096 197.1546 203.27835 209.40199 215.52563 221.64938 227.77303 233.89667 239.90031 246.02396 252.1476 258.27136 264.39499 270.51865 276.6424 282.76602 288.88968 295.01343 301.13705 307.26071 313.38446 319.50809 325.63174 331.7554 337.87912 344.00278 350.12643 356.25018 362.37381 368.49747 374.62122 380.74484 383.86667 393.11221 399.23593 401.63733 407.76108 413.8847 417.48682 420.60876 427.93314 431.65536 437.77899 443.90265 446.30411 449.30594"
         y="0"
         sodipodi:role="line"
         id="tspan4197"
         style="font-style:normal;font-variant:normal;font-weight:normal;font-stretch:normal;font-family:sans-serif;-inkscape-font-specification:sans-serif">Die Einhaltung des Abgabetermins __________________________________ meiner Arbeit </tspan><tspan
         x="0 9.2455254 11.646957 14.768882 17.890707 24.014351 30.017992 39.143414 42.145233 48.989273 55.113014 61.23666 70.482185 76.485725 79.607651 82.729477 88.853119 94.976868 101.10051 107.22416 113.3478 119.35134 125.47499 131.59874 137.72238 143.84602 149.96967 156.09332 162.21698 168.34064 174.46428 180.58792 186.71167 192.83531 198.95898 205.08266 211.20631 217.32999 223.45366 229.57732 235.70099 241.82463 247.94827 254.07202 260.19568 266.31934 272.44299 278.56668 284.69034 290.814 296.93768 303.06122 309.18494 315.30859 321.43225 327.55597 333.67963 339.80328 345.92703 352.05066 358.17432 364.29807 370.42169 376.54535 382.66898 388.79272 394.91638 401.04001 407.16376 413.28741 419.41107 425.53479 431.65845 437.7821 443.90573 450.02939"
         y="19.08"
         sodipodi:role="line"
         id="tspan4199"
         style="font-style:normal;font-variant:normal;font-weight:normal;font-stretch:normal;font-family:sans-serif;-inkscape-font-specification:sans-serif">mit dem Thema: ____________________________________________________________ </tspan><tspan
         x="0 6.1236563 12.247313 18.370958 24.494701 30.618347 36.741993 42.86565 48.989304 55.112949 61.236595 67.360336 73.483986 79.607628 85.731277 91.854927 97.978584 104.10224 110.22589 116.34953 122.47318 128.59682 134.72057 140.84421 146.96786 153.09151 159.21515 165.33879 171.46254 177.58618 183.70982 189.83357 195.95721 202.08086 208.20451 214.32825 220.4519 226.57556 232.69923 238.82291 244.94656 251.07021 257.19388 263.31754 269.44125 275.56491 281.68857 287.81226 293.93591 300.05957 306.18326 312.30728 318.43094 324.55469 330.67831 336.80197 342.92572 349.04935 355.173 361.29675 367.42041 373.54404 379.66779 385.79144 391.91507 398.03873 404.16248 410.2861 416.40976 422.53351 428.65714 434.78079 440.90445 447.02808"
         y="38.040001"
         sodipodi:role="line"
         id="tspan4201"
         style="font-style:normal;font-variant:normal;font-weight:normal;font-stretch:normal;font-family:sans-serif;-inkscape-font-specification:sans-serif">__________________________________________________________________________</tspan><tspan
         x="0 6.1236563 12.247313 18.370958 24.494701 30.618347 36.741993 42.86565 48.989304 55.112949 61.236595 67.360336 73.483986 79.607628 85.731277 91.854927 97.978584 104.10224 110.22589 116.34953 122.47318 128.59682 134.72057 140.84421 146.96786 153.09151 159.21515 165.33879 171.46254 177.58618 183.70982 189.83357 195.95721 202.08086 208.20451 214.32825 220.4519 226.57556 232.69923 238.82291 244.94656 251.07021 257.19388 263.31754 269.44125 275.56491 281.68857 287.81226 293.93591 300.05957 306.18326 312.30728 318.43094 324.55469 330.67831 336.80197 342.92572 349.04935 355.173 361.29675 367.42041 373.54404 379.66779 385.79144 391.91507 398.03873 404.16248 410.2861 416.40976 422.53351 428.65714 434.78079 440.90445 447.02808 453.15173"
         y="57"
         sodipodi:role="line"
         id="tspan4203"
         style="font-style:normal;font-variant:normal;font-weight:normal;font-stretch:normal;font-family:sans-serif;-inkscape-font-specification:sans-serif">__________________________________________________________________________ </tspan><tspan
         x="0 6.1236563 12.247313 14.648788 17.770613 25.695356 31.819014 35.541237 39.263462 45.387108 48.509033 55.713314 59.435539 65.439178 68.681099 74.684639 80.204643 85.72464 91.848381 95.4505 98.572327 104.69608 110.81972 116.82326 122.94691 129.07056 135.1942 141.31793 147.44159 153.56523 159.68887 165.81252 171.93617 178.05991 184.18355 190.30722 196.43089 202.55455 208.67822 214.80186 220.92561 227.04926 230.17111 232.57249 237.97578 241.09761 244.09944 253.34496 255.74634 259.46857 262.59048 268.71463 274.71826 280.23828 283.24008 286.36191 292.48566 294.88702 301.13077 307.25443 313.37817 319.5018 325.62546 331.62909 334.6308 343.27603 346.99826 353.12192 359.12555 365.24921 371.37292 377.49658 380.61841 386.74216 389.14352 394.66351 400.78717 403.90909 406.91083 416.15643 422.15997 428.40372 430.80521 433.20667 438.72668 444.85031 447.85214"
         y="88.559998"
         sodipodi:role="line"
         id="tspan4205"
         style="font-style:normal;font-variant:normal;font-weight:normal;font-stretch:normal;font-family:sans-serif;-inkscape-font-specification:sans-serif">bei Herrn Professor _____________________ ist mir aus folgenden Gründen nicht möglich: </tspan><tspan
         x="0 6.1236563 12.247313 18.370958 24.494701 30.618347 36.741993 42.86565 48.989304 55.112949 61.236595 67.360336 73.483986 79.607628 85.731277 91.854927 97.978584 104.10224 110.22589 116.34953 122.47318 128.59682 134.72057 140.84421 146.96786 153.09151 159.21515 165.33879 171.46254 177.58618 183.70982 189.83357 195.95721 202.08086 208.20451 214.32825 220.4519 226.57556 232.69923 238.82291 244.94656 251.07021 257.19388 263.31754 269.44125 275.56491 281.68857 287.81226 293.93591 300.05957 306.18326 312.30728 318.43094 324.55469 330.67831 336.80197 342.92572 349.04935 355.173 361.29675 367.42041 373.54404 379.66779 385.79144 391.91507 398.03873 404.16248 410.2861 416.40976 422.53351 428.65714 434.78079 440.90445 447.02808"
         y="107.52"
         sodipodi:role="line"
         id="tspan4207"
         style="font-style:normal;font-variant:normal;font-weight:normal;font-stretch:normal;font-family:sans-serif;-inkscape-font-specification:sans-serif">__________________________________________________________________________</tspan><tspan
         x="0 6.1236563 12.247313 18.370958 24.494701 30.618347 36.741993 42.86565 48.989304 55.112949 61.236595 67.360336 73.483986 79.607628 85.731277 91.854927 97.978584 104.10224 110.22589 116.34953 122.47318 128.59682 134.72057 140.84421 146.96786 153.09151 159.21515 165.33879 171.46254 177.58618 183.70982 189.83357 195.95721 202.08086 208.20451 214.32825 220.4519 226.57556 232.69923 238.82291 244.94656 251.07021 257.19388 263.31754 269.44125 275.56491 281.68857 287.81226 293.93591 300.05957 306.18326 312.30728 318.43094 324.55469 330.67831 336.80197 342.92572 349.04935 355.173 361.29675 367.42041 373.54404 379.66779 385.79144 391.91507 398.03873 404.16248 410.2861 416.40976 422.53351 428.65714 434.78079 440.90445 447.02808"
         y="126.48"
         sodipodi:role="line"
         id="tspan4209"
         style="font-style:normal;font-variant:normal;font-weight:normal;font-stretch:normal;font-family:sans-serif;-inkscape-font-specification:sans-serif">__________________________________________________________________________</tspan><tspan
         x="0 6.1236563 12.247313 18.370958 24.494701 30.618347 36.741993 42.86565 48.989304 55.112949 61.236595 67.360336 73.483986 79.607628 85.731277 91.854927 97.978577 104.10222 110.22597 116.34961 122.47326 128.59689 134.72055 140.84421 146.96786 153.09151 159.21515 165.3389 171.46254 177.58618 183.70982 189.83357 195.95721 202.08089 208.20456 214.32822 220.45189 226.57556 232.69922 238.82289 244.94655 251.07022 257.19388 263.31757 269.44119 275.56494 281.6886 287.81226 293.93591 300.0596 306.18326 312.30731 318.43094 324.5546 330.67834 336.80197 342.92563 349.04929 355.173 361.29666 367.42032 373.54395 379.66769 385.79135 391.91498 398.03873 404.16238 410.28601 416.40976 422.53342 428.65704 434.7807 440.90436 447.02798 453.15164"
         y="145.56"
         sodipodi:role="line"
         id="tspan4211"
         style="font-style:normal;font-variant:normal;font-weight:normal;font-stretch:normal;font-family:sans-serif;-inkscape-font-specification:sans-serif">__________________________________________________________________________ </tspan><tspan
         sodipodi:role="line"
         id="tspan4213"
         x="0"
         y="0"
         style="font-style:normal;font-variant:normal;font-weight:normal;font-stretch:normal;font-family:sans-serif;-inkscape-font-specification:sans-serif" /><tspan
         x="0"
         sodipodi:role="line"
         id="tspan4215"
         style="font-style:normal;font-variant:normal;font-weight:normal;font-stretch:normal;font-family:sans-serif;-inkscape-font-specification:sans-serif"
         y="0">Ich beantrage eine Verlängerung der Bearbeitungszeit um _____Tage / Wochen,</tspan><tspan
         x="0"
         sodipodi:role="line"
         style="font-style:normal;font-variant:normal;font-weight:normal;font-stretch:normal;font-family:sans-serif;-inkscape-font-specification:sans-serif"
         y="0"
         id="tspan4397">neuer Abgabetermin wäre somit der ______________________________. </tspan></text>
<text
       transform="matrix(0.9994,0,0,-1,70.8,393.5598)"
       style="font-variant:normal;font-weight:normal;font-size:9px;font-family:sans-serif;-inkscape-font-specification:sans-serif;writing-mode:lr-tb;fill:#000000;fill-opacity:1;fill-rule:nonzero;stroke:none;font-style:normal;font-stretch:normal;"
       id="text4217"><tspan
         x="0"
         y="0"
         id="tspan4219"
         style="-inkscape-font-specification:sans-serif;font-family:sans-serif;font-weight:normal;font-style:normal;font-stretch:normal;font-variant:normal;">_</tspan></text>
<text
       transform="matrix(0.9994,0,0,-1,75.839974,393.5598)"
       style="font-variant:normal;font-weight:normal;font-size:9px;font-family:sans-serif;-inkscape-font-specification:sans-serif;writing-mode:lr-tb;fill:#000000;fill-opacity:1;fill-rule:nonzero;stroke:none;font-style:normal;font-stretch:normal;"
       id="text4221"><tspan
         x="0 5.0428982 10.085796 15.128694 20.051497 25.094395 30.137293 35.060093 40.102993 45.145889 50.188789 55.111591 60.154488 65.197388 70.120186 75.163086 80.205986 85.248779 90.171585 95.214485 100.25738 105.18018 278.32001 283.36288 288.40579 293.4487 298.49158 303.4144 308.45731 313.50018 318.4231 323.466 328.50888 333.55179 338.47458 343.51749 348.56039 353.48318 358.52609 363.56897 368.61188 373.53467 378.57758 383.62048 388.54337 393.58627 398.50858 403.55148 408.59436 413.63727 418.68005 423.60287"
         y="0"
         sodipodi:role="line"
         id="tspan4223"
         style="-inkscape-font-specification:sans-serif;font-family:sans-serif;font-weight:normal;font-style:normal;font-stretch:normal;font-variant:normal;">_____________________ _____________________________ </tspan><tspan
         x="-5.0419998 1.441699 6.4845972 9.0060015 14.048899 21.493195 280.8414 287.3251 292.36801 294.8895 299.9324 302.93411 307.37659 311.9393 316.98221 319.98389 321.905 324.42639 326.82779"
         y="10.32"
         sodipodi:role="line"
         id="tspan4225"
         style="-inkscape-font-specification:sans-serif;font-family:sans-serif;font-weight:normal;font-style:normal;font-stretch:normal;font-variant:normal;">Datum Unterschrift </tspan></text>
<g
       id="g4227"
       transform="scale(0.12,0.12)"
       style=""><path
         d="m 578,2920.67 3804,0 0,6 -3804,0 0,-6 z"
         style="fill:#000000;fill-opacity:1;fill-rule:nonzero;stroke:none"
         id="path4229"
         inkscape:connector-curvature="0" /></g><text
       transform="matrix(0.9994,0,0,-1,70.8,327.7999)"
       style="font-variant:normal;font-weight:normal;font-size:11.03999996px;font-family:sans-serif;-inkscape-font-specification:sans-serif;writing-mode:lr-tb;fill:#000000;fill-opacity:1;fill-rule:nonzero;stroke:none;font-style:normal;font-stretch:normal;"
       id="text4235"><tspan
         x="0"
         y="0"
         id="tspan4237"
         style="-inkscape-font-specification:sans-serif;font-family:sans-serif;font-weight:normal;font-style:normal;font-stretch:normal;font-variant:normal;">S</tspan></text>
<text
       transform="matrix(0.9994,0,0,-1,78.119606,327.7999)"
       style="font-variant:normal;font-weight:normal;font-size:11.03999996px;font-family:sans-serif;-inkscape-font-specification:sans-serif;writing-mode:lr-tb;fill:#000000;fill-opacity:1;fill-rule:nonzero;stroke:none;font-style:normal;font-stretch:normal;"
       id="text4239"><tspan
         x="0 3.7222242 9.8458691 12.967793 16.089619 22.813663 29.537708 36.261753 42.985699 49.109444 55.713383 65.559242 71.682884 74.80471 81.528755 87.652496 93.656044 96.777863 103.50191 109.50555 115.6292 122.35324 128.35678 134.48042 138.80309 142.52531 146.84787 152.97151 156.69374 162.81738 167.14003 173.14357"
         y="0"
         sodipodi:role="line"
         id="tspan4241">tellungnahme des Fachvertreters </tspan></text>
<text
       transform="matrix(0.9994,0,0,-1,177.00024,301.5199)"
       style="font-variant:normal;font-size:11.03999996px;font-family:sans-serif;-inkscape-font-specification:sans-serif;writing-mode:lr-tb;fill:#000000;fill-opacity:1;fill-rule:nonzero;stroke:none;font-weight:normal;font-style:normal;font-stretch:normal;"
       id="text4243"><tspan
         x="0"
         y="0"
         id="tspan4245"
         style="-inkscape-font-specification:sans-serif;font-family:sans-serif;font-weight:normal;font-style:normal;font-stretch:normal;font-variant:normal;">□</tspan></text>
<text
       transform="matrix(0.9994,0,0,-1,193.5603,301.5199)"
       style="font-variant:normal;font-weight:normal;font-size:11.03999996px;font-family:sans-serif;-inkscape-font-specification:sans-serif;writing-mode:lr-tb;fill:#000000;fill-opacity:1;fill-rule:nonzero;stroke:none;font-style:normal;font-stretch:normal;"
       id="text4247"><tspan
         x="0 3.1219244 8.6419239 14.645465 17.76729 23.891035 30.014679 33.136505 39.140144 42.86237 48.38237 51.504196 57.507835 60.629662 66.032959 72.156601 75.278427 81.402168 87.525818 93.64946 96.771385 103.97567 110.09931 113.22124 116.94347 122.94701"
         y="0"
         sodipodi:role="line"
         id="tspan4249">Ich unterstütze den Antrag</tspan></text>
<text
       transform="matrix(0.9994,0,0,-1,177.00024,280.0399)"
       style="font-variant:normal;font-size:11.03999996px;font-family:sans-serif;-inkscape-font-specification:sans-serif;writing-mode:lr-tb;fill:#000000;fill-opacity:1;fill-rule:nonzero;stroke:none;font-weight:normal;font-style:normal;font-stretch:normal;"
       id="text4251"><tspan
         x="0"
         y="0"
         id="tspan4253"
         style="-inkscape-font-specification:sans-serif;font-family:sans-serif;font-weight:normal;font-style:normal;font-stretch:normal;font-variant:normal;">□</tspan></text>
<text
       transform="matrix(0.9994,0,0,-1,193.5603,280.0399)"
       style="font-variant:normal;font-weight:normal;font-size:11.03999996px;font-family:sans-serif;-inkscape-font-specification:sans-serif;writing-mode:lr-tb;fill:#000000;fill-opacity:1;fill-rule:nonzero;stroke:none;font-style:normal;font-stretch:normal;"
       id="text4255"><tspan
         x="0 3.1219244 8.6419239 14.645465 17.76729 23.891035 33.136559 39.140102 42.262024 48.38567 54.509315 56.910793 63.034435 66.156265 72.280006 78.403648 84.407188 87.529114 94.853493 100.97714 103.97896 107.70119 113.70473 119.94846 123.07039 129.19403 135.31767 140.72098 146.84462 149.24609 155.36974 161.49338 167.61703 173.74077"
         y="0"
         sodipodi:role="line"
         id="tspan4257">Ich empfehle den Antrag abzulehnen</tspan></text>
<text
       transform="matrix(0.9994,0,0,-1,70.8,250.9999)"
       style="font-variant:normal;font-weight:normal;font-size:9px;font-family:sans-serif;-inkscape-font-specification:sans-serif;writing-mode:lr-tb;fill:#000000;fill-opacity:1;fill-rule:nonzero;stroke:none;font-style:normal;font-stretch:normal;"
       id="text4259"><tspan
         x="0"
         y="0"
         id="tspan4261"
         style="-inkscape-font-specification:sans-serif;font-family:sans-serif;font-weight:normal;font-style:normal;font-stretch:normal;font-variant:normal;">_</tspan></text>
<text
       transform="matrix(0.9994,0,0,-1,75.839974,250.9999)"
       style="font-variant:normal;font-weight:normal;font-size:9px;font-family:sans-serif;-inkscape-font-specification:sans-serif;writing-mode:lr-tb;fill:#000000;fill-opacity:1;fill-rule:nonzero;stroke:none;font-style:normal;font-stretch:normal;"
       id="text4263"><tspan
         x="0 5.0428982 10.085796 15.128694 20.051497 25.094395 30.137293 35.060093 40.102993 45.145889 50.188789 55.111591 60.154488 65.197388 70.120186 75.163086 80.205986 85.248779 90.171585 95.214485 100.13728 278.32001 283.36288 288.40579 293.4487 298.49158 303.4144 308.45731 313.50018 318.4231 323.466 328.50888 333.55179 338.47458 343.51749 348.56039 353.48318 358.52609 363.56897 368.61188 373.53467 378.57758 383.62048 388.54337 393.58627 398.50858 403.55148 408.59436 413.63727 418.68005 423.60297 428.64575 433.68866 438.61148 443.65436 448.57718"
         y="0"
         sodipodi:role="line"
         id="tspan4265">____________________ __________________________________ </tspan><tspan
         x="-5.0419998 1.441699 6.4845972 9.0060015 14.048899 21.6133 278.32001 284.80371 289.84659 292.3681 297.41101 300.41269 304.85519 309.41779 314.46069 317.46249 319.5036 321.905 324.42639 326.94791 331.99078 336.9136 341.4762 343.99771 350.0007 355.04352 357.565 360.44662 365.4895 370.53241 375.57532 378.457 382.89951"
         y="10.32"
         sodipodi:role="line"
         id="tspan4267">Datum Unterschrift des Betreuers </tspan></text>
<g
       id="g4269"
       transform="scale(0.12,0.12)"
       style=""><path
         d="m 578,1770.67 3804,0 0,6 -3804,0 0,-6 z"
         style="fill:#000000;fill-opacity:1;fill-rule:nonzero;stroke:none"
         id="path4271"
         inkscape:connector-curvature="0" /></g><text
       transform="matrix(0.9994,0,0,-1,70.8,202.3999)"
       style="font-variant:normal;font-weight:normal;font-size:11.03999996px;font-family:sans-serif;-inkscape-font-specification:sans-serif;writing-mode:lr-tb;fill:#000000;fill-opacity:1;fill-rule:nonzero;stroke:none;font-style:normal;font-stretch:normal;"
       id="text4277"><tspan
         x="0 7.3243775 13.448023 17.77058 20.892504 27.01615 33.740192 40.464237 46.587883 50.910442 57.634487 64.358528 70.962471 74.084396 80.808342 86.932083 91.254639 94.376465 102.30125 108.42489 114.42853 118.631 125.35504 131.47868 134.60051 138.32283 145.04678 151.77083 158.49487 164.61852 170.1385 176.14215 179.26398 182.8662"
         y="0"
         sodipodi:role="line"
         id="tspan4279">Verlängerung der Bearbeitungszeit </tspan></text>
<text
       transform="matrix(0.9994,0,0,-1,177.00024,174.5599)"
       style="font-variant:normal;font-size:11.03999996px;font-family:sans-serif;-inkscape-font-specification:sans-serif;writing-mode:lr-tb;fill:#000000;fill-opacity:1;fill-rule:nonzero;stroke:none;font-weight:normal;font-style:normal;font-stretch:normal;"
       id="text4281"><tspan
         x="0"
         y="0"
         id="tspan4283"
         style="-inkscape-font-specification:sans-serif;font-family:sans-serif;font-weight:normal;font-style:normal;font-stretch:normal;font-variant:normal;">□</tspan></text>
<text
       transform="matrix(0.9994,0,0,-1,193.5603,174.5599)"
       style="font-variant:normal;font-weight:normal;font-size:11.03999996px;font-family:sans-serif;-inkscape-font-specification:sans-serif;writing-mode:lr-tb;fill:#000000;fill-opacity:1;fill-rule:nonzero;stroke:none;font-style:normal;font-stretch:normal;"
       id="text4285"><tspan
         x="0 7.9247437 10.326187 16.449842 19.571712 26.89609 33.019745 39.143402 42.865627 48.989281 55.112949 57.514381 60.636208 66.759949 72.763489 79.007233 84.527229 89.930527 96.054169 98.45565 101.57747 104.57929 112.50397 114.90545 118.62767 124.75131 127.87318 133.27637 139.40012 143.12234 145.52371 151.64746 157.7711 164.01485 170.13849 173.74071 176.86253"
         y="0"
         sodipodi:role="line"
         id="tspan4287">Die Bearbeitungszeit wird verlängert.</tspan><tspan
         x="-1.201 6.7237768 12.847422 18.971067 25.094713 28.816936 31.938862 39.263237 45.266781 51.510517 57.634163 63.757908 69.761452 72.883369 79.007019 82.609138 91.854759 94.256142 100.37978 103.38161 109.50525 115.629 121.75264 127.87628 134.00003 140.12367 146.24731 152.37106 158.49471 164.61835 170.742 176.86574 182.9894"
         y="20.639999"
         sodipodi:role="line"
         id="tspan4289">Neuer Abgabetermin:______________</tspan></text>
<text
       transform="matrix(0.9994,0,0,-1,177.00024,134.1199)"
       style="font-variant:normal;font-size:11.03999996px;font-family:sans-serif;-inkscape-font-specification:sans-serif;writing-mode:lr-tb;fill:#000000;fill-opacity:1;fill-rule:nonzero;stroke:none;font-weight:normal;font-style:normal;font-stretch:normal;"
       id="text4291"><tspan
         x="0"
         y="0"
         id="tspan4293"
         style="-inkscape-font-specification:sans-serif;font-family:sans-serif;font-weight:normal;font-style:normal;font-stretch:normal;font-variant:normal;">□</tspan></text>
<text
       transform="matrix(0.9994,0,0,-1,193.5603,134.1199)"
       style="font-variant:normal;font-weight:normal;font-size:11.03999996px;font-family:sans-serif;-inkscape-font-specification:sans-serif;writing-mode:lr-tb;fill:#000000;fill-opacity:1;fill-rule:nonzero;stroke:none;font-style:normal;font-stretch:normal;"
       id="text4295"><tspan
         x="0 7.924777 10.326154 16.449799 19.571724 26.896101 33.019745 39.143391 42.865616 48.989361 55.113007 57.514381 60.636307 66.759949 72.763588 79.007332 84.527328 89.930527 96.054169 98.45565 101.57747 104.57929 112.50397 114.90545 118.62767 124.75131 127.87324 133.99689 136.39825 141.91826 148.0419 151.16373 154.28566 159.68886 165.8125 169.53473 171.9362 178.05984 184.06348 190.30722 196.43086 200.03299 203.15491"
         y="0"
         sodipodi:role="line"
         id="tspan4297">Die Bearbeitungszeit wird nicht verlängert.</tspan></text>
<text
       transform="matrix(0.9994,0,0,-1,70.8,76.4002)"
       style="font-variant:normal;font-weight:normal;font-size:9px;font-family:sans-serif;-inkscape-font-specification:sans-serif;writing-mode:lr-tb;fill:#000000;fill-opacity:1;fill-rule:nonzero;stroke:none;font-style:normal;font-stretch:normal;"
       id="text4299"><tspan
         x="0 5.0428982 10.085796 15.128694 20.171593 25.094395 30.137293 35.180191 40.102993 45.145889 50.188789 55.231686 60.154488 65.197388 70.240288 75.163086 80.205986 85.248779 90.291679 95.214485 100.25738 105.18018 283.362 288.40491 293.44778 298.49069 303.5336 308.45639 313.4993 318.54218 323.46509 328.508 333.55087 338.59378 343.5166 348.55948 353.60239 358.52518 363.56808 368.61099 373.65387 378.57669 383.61957 388.66248 393.58539 398.62827 403.55057 408.59348 413.63638 418.67926 423.72208 428.64496 433.68777 438.73065 443.65347 448.69635 453.61917"
         y="0"
         sodipodi:role="line"
         id="tspan4301">_____________________ __________________________________ </tspan><tspan
         x="0 6.4836988 11.526597 14.048001 19.090899 26.535194 283.362 289.36499 292.3667 297.40961 299.93109 304.974 310.01691 314.9397 319.50229 324.5452 329.46799 334.0307 338.47321 343.0358 348.0787 353.0015 357.56421 362.1268 366.56931 371.61221 374.49393 379.05652 381.09772 383.61911 388.06161 393.10452 398.0274 402.95023 407.9931"
         y="10.32"
         sodipodi:role="line"
         id="tspan4303">Datum Prüfungsausschussvorsitzender</tspan></text>
</g><g
     inkscape:groupmode="layer"
     id="layer1"
     inkscape:label="text"><text
       xml:space="preserve"
       style="font-style:normal;font-weight:normal;font-size:15px;line-height:179.99999523%;font-family:sans-serif;letter-spacing:0px;word-spacing:0px;fill:#000000;fill-opacity:1;stroke:none;stroke-width:1px;stroke-linecap:butt;stroke-linejoin:miter;stroke-opacity:1"
       x="89.237297"
       y="63.754391"
       id="text4325"
       sodipodi:linespacing="180%"><tspan
         sodipodi:role="line"
         x="89.237297"
         y="63.754391"
         id="tspan4331"
         style="line-height:179.99999523%">An den Vorsitzenden des Prüfungsausschusses des Studiengangs Maschinenbau</tspan><tspan
         sodipodi:role="line"
         x="89.237297"
         y="90.754387"
         id="tspan4335"
         style="line-height:179.99999523%">der Leibniz Universität Hannover: Prof. Dr.-Ing. Bernd-Arno Behrens</tspan></text>
</g></svg>